<?xml version="1.0"?>
<!DOCTYPE svg PUBLIC "-//W3C//DTD SVG 1.1//EN" "http://www.w3.org/Graphics/SVG/1.1/DTD/svg11.dtd">
<svg width="118.1738482303416mm" height="67.47954966129939mm" viewBox="0 0 118.1738482303416 67.47954966129939" xmlns="http://www.w3.org/2000/svg" version="1.1">
<g id="Cut_cs" transform="translate(60.339573,33.512064) scale(1,-1)">
<path id="Cut_cs_w0000"  d="M -13.287838481109638 -30.402446945345183 L -10.5944304050161 -30.942383124527264 C -3.51201869829224 -32.1657989820386 3.6865242449559865 -32.464621731412436 10.853203350344613 -32.808918999999996 L 53.17570799999999 -32.808919 A 3.5 3.5 0 0 1 56.6757 -29.3089L 56.67570799999999 28.853496382273082 A 3.5 3.5 0 0 1 53.1757 32.3535L -42.80056038863627 32.35349638227308 C -45.04431459487582 32.08619415656626 -46.33241796881073 29.845011594525374 -47.35719808566041 28.053634119085306 L -47.55688791764447 27.657223102831747 L -58.65832964884706 4.832093063753775 Q -59.16660496330985 3.855054077356929 -59.1805887310428 2.7589829711943037 C -59.075682081703675 0.7822765437849121 -57.65390603016543 -0.7634294454267471 -56.51022575242253 -2.2586663651217127 C -55.37709613935327 -3.5926815795766425 -54.24396652628399 -4.92669679403157 -53.110836913214726 -6.2607120084865 Q -48.854036681117776 -11.13815187517703 -44.047575658578076 -15.471457195003216 L -43.935027337267805 -15.570518316594878 L -43.13915729788919 -16.258160829280165 L -43.05837933762101 -16.32671484590403 Q -40.579827645640165 -18.42701293949367 -37.90403244242356 -20.26943780232946 L -37.89824722752801 -20.273419923640347 Q -33.0733638787824 -23.609738626311483 -27.7110014758502 -25.98307517149578 Q -24.283599606345177 -27.434774661977322 -20.714821735720793 -28.49655931618905 Q -17.04029882574828 -29.600675152447714 -13.287838481109647 -30.40244694534518 " stroke="#191919" stroke-width="0.7 px" style="stroke-width:0.7;stroke-miterlimit:4;stroke-dasharray:none;stroke-linecap:square;fill:none;fill-opacity:1;fill-rule: evenodd"/>
<title>b'CrossSection Window Acrylic'</title>
</g>
</svg>