<?xml version="1.0" encoding="UTF-8" standalone="no"?>
<!-- Created with Inkscape (http://www.inkscape.org/) -->

<svg
   width="12in"
   height="12in"
   viewBox="0 0 304.8 304.8"
   version="1.1"
   id="svg1"
   inkscape:version="1.3.2 (091e20e, 2023-11-25, custom)"
   sodipodi:docname="Engine-Panels-Lasercut&amp;Engrave.svg"
   xml:space="preserve"
   xmlns:inkscape="http://www.inkscape.org/namespaces/inkscape"
   xmlns:sodipodi="http://sodipodi.sourceforge.net/DTD/sodipodi-0.dtd"
   xmlns="http://www.w3.org/2000/svg"
   xmlns:svg="http://www.w3.org/2000/svg"><sodipodi:namedview
     id="namedview1"
     pagecolor="#ffffff"
     bordercolor="#000000"
     borderopacity="0.25"
     inkscape:showpageshadow="2"
     inkscape:pageopacity="0.0"
     inkscape:pagecheckerboard="0"
     inkscape:deskcolor="#d1d1d1"
     inkscape:document-units="mm"
     inkscape:zoom="0.86772068"
     inkscape:cx="401.62694"
     inkscape:cy="309.43137"
     inkscape:window-width="1920"
     inkscape:window-height="1009"
     inkscape:window-x="-8"
     inkscape:window-y="-8"
     inkscape:window-maximized="1"
     inkscape:current-layer="Cut_cs" /><defs
     id="defs1" /><g
     inkscape:label="Layer 1"
     inkscape:groupmode="layer"
     id="layer1"><g
       inkscape:groupmode="layer"
       id="layer4"
       inkscape:label="Panel Bottom Cut"><path
         id="Connect_w0086"
         d="m 53.19176,17.887094 h -18 v 8 h 18 v -8"
         stroke="#191919"
         stroke-width="0.7 px"
         style="stroke:#ff0000;stroke-opacity:1;fill:none;fill-opacity:1;fill-rule:evenodd;stroke-width:0.1;stroke-linecap:square;stroke-miterlimit:4;stroke-dasharray:none"
         transform="matrix(-1,0,0,1,94.354229,59.572623)"
         inkscape:label="STAB box" /><path
         id="Connect_w0026"
         d="m 22.131744,-24.112906 h -24 v 8 h 24 v -8"
         stroke="#191919"
         stroke-width="0.7 px"
         style="fill:none;fill-opacity:1;fill-rule:evenodd;stroke-width:0.1;stroke-linecap:square;stroke-miterlimit:4;stroke-dasharray:none;stroke:#000000;stroke-opacity:1"
         inkscape:label="RPM box"
         transform="matrix(-1,0,0,1,94.354229,59.572623)" /><path
         id="Connect_w0032"
         d="m 53.19176,-24.112906 h -18 v 8 h 18 v -8"
         stroke="#191919"
         stroke-width="0.7 px"
         style="fill:none;fill-opacity:1;fill-rule:evenodd;stroke-width:0.1;stroke-linecap:square;stroke-miterlimit:4;stroke-dasharray:none;stroke:#000000;stroke-opacity:1"
         transform="matrix(-1,0,0,1,94.354229,59.572623)"
         inkscape:label="DUCT box" /><path
         id="Connect_w0068"
         d="m 16.131744,-3.1129058 h -18 v 8 h 18 v -8"
         stroke="#191919"
         stroke-width="0.7 px"
         style="fill:none;fill-opacity:1;fill-rule:evenodd;stroke-width:0.1;stroke-linecap:square;stroke-miterlimit:4;stroke-dasharray:none;stroke:#000000;stroke-opacity:1"
         transform="matrix(-1,0,0,1,94.354229,59.572623)" /><path
         id="Connect_w0079"
         d="m 53.19176,-3.1129058 h -18 v 8 h 18 v -8"
         stroke="#191919"
         stroke-width="0.7 px"
         style="fill:none;fill-opacity:1;fill-rule:evenodd;stroke-width:0.1;stroke-linecap:square;stroke-miterlimit:4;stroke-dasharray:none;stroke:#000000;stroke-opacity:1"
         transform="matrix(-1,0,0,1,94.354229,59.572623)" /><circle
         cx="-21.024893"
         cy="28.387508"
         r="1.5"
         stroke="#191919"
         stroke-width="0.7 px"
         style="fill:none;stroke-width:0.1;stroke-linecap:square;stroke-miterlimit:4;stroke-dasharray:none"
         id="circle8"
         transform="matrix(-1,0,0,1,94.354229,59.572623)" /><circle
         cx="-63.987091"
         cy="13.260443"
         r="1.5"
         stroke="#191919"
         stroke-width="0.7 px"
         style="fill:none;stroke-width:0.1;stroke-linecap:square;stroke-miterlimit:4;stroke-dasharray:none"
         id="circle5"
         transform="matrix(-1,0,0,1,94.354229,59.572623)" /><circle
         cx="-26.672939"
         cy="0"
         r="4"
         stroke="#191919"
         stroke-width="0.7 px"
         style="fill:none;stroke-width:0.1;stroke-linecap:square;stroke-miterlimit:4;stroke-dasharray:none"
         id="circle6"
         transform="matrix(-1,0,0,1,94.354229,59.572623)" /><circle
         cx="-63.864422"
         cy="22.168289"
         r="4"
         stroke="#191919"
         stroke-width="0.7 px"
         style="fill:none;stroke-width:0.1;stroke-linecap:square;stroke-miterlimit:4;stroke-dasharray:none"
         id="circle7"
         transform="matrix(-1,0,0,1,94.354229,59.572623)" /><circle
         cx="71.896545"
         cy="-30.166836"
         r="4"
         stroke="#191919"
         stroke-width="0.7 px"
         style="fill:none;stroke-width:0.1;stroke-linecap:square;stroke-miterlimit:4;stroke-dasharray:none"
         id="circle4"
         transform="matrix(-1,0,0,1,94.354229,59.572623)" /><circle
         cx="71.440971"
         cy="-37.964565"
         r="1.5"
         stroke="#191919"
         stroke-width="0.7 px"
         style="fill:none;stroke-width:0.1;stroke-linecap:square;stroke-miterlimit:4;stroke-dasharray:none"
         id="circle3"
         transform="matrix(-1,0,0,1,94.354229,59.572623)" /><circle
         cx="26.845552"
         cy="-37.158554"
         r="1.5"
         stroke="#191919"
         stroke-width="0.7 px"
         style="fill:none;stroke-width:0.1;stroke-linecap:square;stroke-miterlimit:4;stroke-dasharray:none"
         id="circle2"
         transform="matrix(-1,0,0,1,94.354229,59.572623)" /><circle
         cx="-21.024893"
         cy="-17.770452"
         r="1.5"
         stroke="#191919"
         stroke-width="0.7 px"
         style="fill:none;stroke-width:0.1;stroke-linecap:square;stroke-miterlimit:4;stroke-dasharray:none"
         id="circle1"
         transform="matrix(-1,0,0,1,94.354229,59.572623)" /><path
         id="Connect_w0000"
         d="m 70.122254,35.618132 v -55.449565 h 7.956367 V -41.150829 H 8.502947 q -12.3567862,2.146756 -24.462254,5.40968 -14.030832,3.945599 -26.424306,11.625839 -9.421054,5.946424 -17.273829,13.846886 Q -68.883643,-0.66499067 -75.3148,11.0124 V 35.618132 H 70.122254"
         stroke="#191919"
         stroke-width="0.7 px"
         style="fill:none;fill-opacity:1;fill-rule:evenodd;stroke-width:0.1;stroke-linecap:square;stroke-miterlimit:4;stroke-dasharray:none"
         transform="matrix(-1,0,0,1,94.354229,59.572623)" /><path
         id="Connect_w0084"
         d="m 16.131744,17.887094 h -12 v 8 h 12 v -8"
         stroke="#191919"
         stroke-width="0.7 px"
         style="fill:none;fill-opacity:1;fill-rule:evenodd;stroke-width:0.1;stroke-linecap:square;stroke-miterlimit:4;stroke-dasharray:none"
         transform="matrix(-1,0,0,1,94.354229,59.572623)" /><circle
         cx="26.29822"
         cy="21.887094"
         r="3.5172739"
         stroke="#191919"
         stroke-width="0.7 px"
         style="fill:none;stroke-width:0.1;stroke-linecap:square;stroke-miterlimit:4;stroke-dasharray:none"
         id="circle9"
         transform="matrix(-1,0,0,1,94.354229,59.572623)" /></g><g
       id="Connect"
       transform="matrix(-1,0,0,1,94.354229,59.572623)"
       inkscape:label="Panel Bottom"><path
         id="Connect_w0001"
         d="m 1.7726189,-25.955535 q 0.2085393,-0.262827 0.1972187,-0.666858 0.0034,-0.34054 -0.1761147,-0.597452 -0.1838934,-0.247491 -0.5127388,-0.244628 -0.30559949,-3.84e-4 -0.50932062,0.220106 -0.21187613,0.254185 -0.2018259,0.646645 -0.008845,0.385811 0.2040552,0.639958 0.20363628,0.22379 0.50486202,0.224416 0.2964441,-4.82e-4 0.4938641,-0.222187"
         stroke="#191919"
         stroke-width="0.7 px"
         style="fill:none;fill-opacity:1;fill-rule:evenodd;stroke-width:0.7;stroke-linecap:square;stroke-miterlimit:4;stroke-dasharray:none" /><title
         id="title9">b'Connect'</title></g><g
       id="Slice_child0_cs"
       transform="matrix(-1,0,0,1,99.349634,148.66782)"
       inkscape:label="Panel Middle"><path
         id="Slice_child0_cs_w0000"
         d="M -90.4592,42.531748 H 78.159405 A 7,7 0 0 0 85.1594,35.5317 l 5e-6,-71.443969 A 7,7 0 0 0 78.1594,-42.9123 l -71.58451,3.1e-5 c -7.4946494,0.303422 -14.9379982,1.075384 -22.330046,2.315887 -4.690111,0.902231 -8.260539,1.789255 -12.337071,2.972021 -1.592881,0.508289 -3.185762,1.016577 -4.778643,1.524866 -6.43602,2.138012 -12.607356,5.007366 -18.485685,8.985008 -4.625141,3.129397 -9.00477,6.720121 -13.138888,10.772172 -4.985801,4.846669 -9.921291,10.3512946 -14.352464,16.08453383 -4.074191,5.25307287 -7.589281,10.78971417 -10.545271,16.60992517 -2.450091,4.815516 -4.504768,9.772705 -6.164031,14.871567 -0.713158,2.345599 -1.411575,4.692121 -0.576108,7.006063 0.45212,1.17382 1.178262,2.151659 2.178425,2.93352 1.036561,0.732259 2.201792,1.18841 3.495692,1.368454"
         stroke="#191919"
         stroke-width="0.7 px"
         style="fill:none;fill-opacity:1;fill-rule:evenodd;stroke-width:0.1;stroke-linecap:square;stroke-miterlimit:4;stroke-dasharray:none;stroke:#000000;stroke-opacity:1" /><circle
         cx="71.896545"
         cy="-30.166836"
         r="5.75"
         stroke="#191919"
         stroke-width="0.7 px"
         style="fill:none;stroke-width:0.1;stroke-linecap:square;stroke-miterlimit:4;stroke-dasharray:none;stroke:#000000;stroke-opacity:1"
         id="circle1-4" /><path
         id="Slice_child0_cs_w0002"
         d="M 56.175708,-29.308919 V 28.853496 A 3,3 0 0 1 53.1757,31.8535 l -95.97626,-4e-6 c -1.2803,-0.01819 -2.047333,-1.223872 -2.802256,-2.126774 -0.501478,-0.762729 -1.002956,-1.525459 -1.504434,-2.288189 L -58.2253,4.67572 q -0.76251,-1.9044163 0.198007,-3.75735544 1.44897,-2.43601286 3.388725,-4.52262016 3.280183,-3.8323871 6.787021,-7.4582664 7.474223,-7.963212 17.228107,-12.855718 4.805705,-2.436963 9.965433,-3.997759 4.883433,-1.549876 9.647561,-2.546858 3.0739962,-0.596207 6.1942487,-0.868231 2.6286933,-0.25759 5.68962897,-0.45916 Q 5.8580158,-32.049584 10.8426,-32.308919 H 53.175708 A 3,3 0 0 1 56.1757,-29.3089"
         stroke="#191919"
         stroke-width="0.7 px"
         style="fill:none;fill-opacity:1;fill-rule:evenodd;stroke-width:0.1;stroke-linecap:square;stroke-miterlimit:4;stroke-dasharray:none;stroke:#000000;stroke-opacity:1" /><circle
         cx="-63.864422"
         cy="22.168289"
         r="6.5"
         stroke="#191919"
         stroke-width="0.7 px"
         style="fill:none;stroke-width:0.1;stroke-linecap:square;stroke-miterlimit:4;stroke-dasharray:none;stroke:#000000;stroke-opacity:1"
         id="circle2-4" /><circle
         cx="-89.77919"
         cy="36.087128"
         r="2"
         stroke="#191919"
         stroke-width="0.7 px"
         style="fill:none;stroke-width:0.1;stroke-linecap:square;stroke-miterlimit:4;stroke-dasharray:none;stroke:#000000;stroke-opacity:1"
         id="circle3-0" /><circle
         cx="78.93644"
         cy="36.087128"
         r="2"
         stroke="#191919"
         stroke-width="0.7 px"
         style="fill:none;stroke-width:0.1;stroke-linecap:square;stroke-miterlimit:4;stroke-dasharray:none;stroke:#000000;stroke-opacity:1"
         id="circle4-1" /><title
         id="title4">b'CrossSection Panel Middle'</title></g><g
       id="Cut003_cs"
       transform="matrix(-1,0,0,1,99.349634,240.72686)"
       inkscape:label="Panel Top"><path
         id="Cut003_cs_w0000"
         d="M -90.4592,42.531748 H 78.159405 A 7,7 0 0 0 85.1594,35.5317 l 5e-6,-71.443969 A 7,7 0 0 0 78.1594,-42.9123 l -71.58451,3.1e-5 c -7.4946494,0.303422 -14.9379982,1.075384 -22.330046,2.315887 -4.690111,0.902231 -8.260539,1.789255 -12.337071,2.972021 -1.592881,0.508289 -3.185762,1.016577 -4.778643,1.524866 -6.43602,2.138012 -12.607356,5.007366 -18.485685,8.985008 -4.625141,3.129397 -9.00477,6.720121 -13.138888,10.772172 -4.985801,4.846669 -9.921291,10.3512946 -14.352464,16.08453383 -4.074191,5.25307287 -7.589281,10.78971417 -10.545271,16.60992517 -2.450091,4.815516 -4.504768,9.772705 -6.164031,14.871567 -0.713158,2.345599 -1.411575,4.692121 -0.576108,7.006063 0.45212,1.17382 1.178262,2.151659 2.178425,2.93352 1.036561,0.732259 2.201792,1.18841 3.495692,1.368454"
         stroke="#191919"
         stroke-width="0.7 px"
         style="fill:none;fill-opacity:1;fill-rule:evenodd;stroke-width:0.1;stroke-linecap:square;stroke-miterlimit:4;stroke-dasharray:none" /><circle
         cx="71.896545"
         cy="-30.166836"
         r="4"
         stroke="#191919"
         stroke-width="0.7 px"
         style="fill:none;stroke-width:0.1;stroke-linecap:square;stroke-miterlimit:4;stroke-dasharray:none"
         id="circle1-47" /><path
         id="Cut003_cs_w0011"
         d="M 57.175708,28.853496 A 4,4 0 0 1 53.1757,32.8535 l -95.97626,-4e-6 c -2.602677,-0.265083 -4.088879,-2.879508 -5.205966,-4.977583 L -59.107968,5.0507833 c -1.036469,-1.7900982 -0.521945,-3.9993398 0.669295,-5.57342772 0.916367,-1.29592968 1.896522,-2.54272748 2.940466,-3.74039348 2.013166,-2.3843242 4.105836,-4.6966849 6.27801,-6.9370821 5.229024,-5.546479 11.213075,-10.093198 17.952154,-13.640157 6.424711,-3.330708 13.48711,-5.218576 20.560029,-6.589681 7.1158343,-1.232663 14.3494131,-1.533194 21.550614,-1.878961 H 53.175708 A 4,4 0 0 1 57.1757,-29.3089 l 8e-6,58.162396"
         stroke="#191919"
         stroke-width="0.7 px"
         style="fill:none;fill-opacity:1;fill-rule:evenodd;stroke-width:0.1;stroke-linecap:square;stroke-miterlimit:4;stroke-dasharray:none" /><circle
         cx="-63.864422"
         cy="22.168289"
         r="4"
         stroke="#191919"
         stroke-width="0.7 px"
         style="fill:none;stroke-width:0.1;stroke-linecap:square;stroke-miterlimit:4;stroke-dasharray:none"
         id="circle2-5" /><circle
         cx="-89.77919"
         cy="36.087128"
         r="2"
         stroke="#191919"
         stroke-width="0.7 px"
         style="fill:none;stroke-width:0.1;stroke-linecap:square;stroke-miterlimit:4;stroke-dasharray:none"
         id="circle3-2" /><circle
         cx="78.93644"
         cy="36.087128"
         r="2"
         stroke="#191919"
         stroke-width="0.7 px"
         style="fill:none;stroke-width:0.1;stroke-linecap:square;stroke-miterlimit:4;stroke-dasharray:none"
         id="circle4-6" /><title
         id="title4-6">b'CrossSection Panel Top'</title><g
         inkscape:groupmode="layer"
         id="layer2"
         inkscape:label="Panel Top Engrave"
         transform="matrix(-1,0,0,1,99.349634,-240.72686)"
         style="display:inline;stroke-width:0.1;stroke-dasharray:none"><path
           id="Cut003_cs_w0001"
           d="m 16.723899,-40.047296 h 2.438119 q 0.311264,0.02331 0.357683,0.352645 v 4.448699 q -0.04327,0.316978 -0.357683,0.358522 h -2.438119 q -0.34718,-0.04666 -0.353149,-0.353317 0.006,-0.306893 0.353149,-0.356003 h 2.087993 v -1.65508 h -1.591604 q -0.349232,-0.04656 -0.355163,-0.356339 0.0059,-0.310007 0.355163,-0.358858 h 1.591604 v -1.377666 h -2.088497 q -0.348804,-0.02144 -0.352645,-0.348783 0.0039,-0.327493 0.353149,-0.35382"
           stroke="#191919"
           stroke-width="0.7 px"
           style="fill:#ff0000;fill-opacity:1;fill-rule:evenodd;stroke-width:0.025;stroke-linecap:square;stroke-miterlimit:4;stroke-dasharray:none;stroke:#ff0000;stroke-opacity:1"
           transform="matrix(-1,0,0,1,99.349634,240.72686)" /><path
           id="Cut003_cs_w0002"
           d="m 20.239768,-39.675004 q 0.02308,-0.350271 0.343913,-0.354995 0.321253,0.0048 0.366414,0.354995 v 3.207221 l 2.118556,-3.396138 q 0.150718,-0.237266 0.384719,-0.156171 0.231557,0.08477 0.268514,0.345088 v 4.445844 q -0.04885,0.346413 -0.353821,0.352477 -0.305202,-0.0061 -0.356507,-0.352477 v -3.204702 L 20.893,-35.041586 q -0.141702,0.221185 -0.397145,0.149958 -0.255487,-0.07215 -0.256087,-0.336356 v -4.44702"
           stroke="#191919"
           stroke-width="0.7 px"
           style="fill:#ff0000;fill-opacity:1;fill-rule:evenodd;stroke-width:0.025;stroke-linecap:square;stroke-miterlimit:4;stroke-dasharray:none;stroke:#ff0000;stroke-opacity:1"
           transform="matrix(-1,0,0,1,99.349634,240.72686)" /><path
           id="Cut003_cs_w0003"
           d="m 24.435906,-39.690621 q 0.05123,-0.349294 0.359026,-0.355499 0.307562,0.0062 0.356339,0.355499 v 4.458438 q -0.04878,0.349303 -0.356339,0.3555 -0.3078,-0.0062 -0.359026,-0.3555 v -4.458438"
           stroke="#191919"
           stroke-width="0.7 px"
           style="fill:#ff0000;fill-opacity:1;fill-rule:evenodd;stroke-width:0.025;stroke-linecap:square;stroke-miterlimit:4;stroke-dasharray:none;stroke:#ff0000;stroke-opacity:1"
           transform="matrix(-1,0,0,1,99.349634,240.72686)" /><path
           id="Cut003_cs_w0004"
           d="m 26.677383,-36.961654 h 0.599664 l 0.02267,-0.0025 q 0.30657,-0.03911 0.307305,-0.350798 -7.23e-4,-0.311844 -0.307305,-0.350966 l -0.02267,-0.005 h -0.952309 l -0.250545,0.104618 -0.104618,0.250881 v 1.278086 l 0.03023,0.06549 0.01763,0.0403 0.01763,0.03778 0.0403,0.07557 0.01763,0.03778 0.02015,0.03778 0.02267,0.03778 q 0.418602,0.778469 1.214105,0.812259 0.788422,-0.06588 1.219144,-0.819815 l 0.347607,-0.953149 0.06801,-1.171117 -0.278253,-1.138371 q -0.228608,-0.534158 -0.696558,-0.85743 -0.556814,-0.387823 -1.128463,-0.09202 -0.545049,0.297439 -0.821159,0.845004 l -0.02015,0.0403 -0.01511,0.03526 -0.02015,0.03778 q -0.08586,0.235909 0.06549,0.390261 l 0.317381,0.107137 0.264483,-0.202855 q 0.228942,-0.667335 0.75953,-0.637112 0.506979,0.143061 0.69639,0.760538 0.22907,0.664568 0.178841,1.386398 -0.04371,0.728783 -0.483627,1.293198 -0.275374,0.373201 -0.609572,0.246852 -0.319154,-0.148844 -0.488665,-0.516373 l -0.02771,-0.05525 v -0.768262"
           stroke="#191919"
           stroke-width="0.7 px"
           style="fill:#ff0000;fill-opacity:1;fill-rule:evenodd;stroke-width:0.025;stroke-linecap:square;stroke-miterlimit:4;stroke-dasharray:none;stroke:#ff0000;stroke-opacity:1"
           transform="matrix(-1,0,0,1,99.349634,240.72686)" /><path
           id="Cut003_cs_w0005"
           d="m 29.718861,-39.675004 q 0.02308,-0.350271 0.343913,-0.354995 0.321253,0.0048 0.366414,0.354995 v 3.207221 l 2.118556,-3.396138 q 0.150719,-0.237266 0.384719,-0.156171 0.231557,0.08477 0.268514,0.345088 v 4.445844 q -0.04886,0.346413 -0.35382,0.352477 -0.305203,-0.0061 -0.356508,-0.352477 v -3.204702 l -2.118555,3.392276 q -0.141703,0.221185 -0.397146,0.149958 -0.255486,-0.07215 -0.256087,-0.336356 v -4.44702"
           stroke="#191919"
           stroke-width="0.7 px"
           style="fill:#ff0000;fill-opacity:1;fill-rule:evenodd;stroke-width:0.025;stroke-linecap:square;stroke-miterlimit:4;stroke-dasharray:none;stroke:#ff0000;stroke-opacity:1"
           transform="matrix(-1,0,0,1,99.349634,240.72686)" /><path
           id="Cut003_cs_w0006"
           d="m 34.252698,-40.047296 h 2.438119 q 0.311264,0.02331 0.357683,0.352645 v 4.448699 q -0.04327,0.316978 -0.357683,0.358522 h -2.438119 q -0.347179,-0.04666 -0.353148,-0.353317 0.006,-0.306893 0.353148,-0.356003 h 2.087993 v -1.65508 h -1.591603 q -0.349233,-0.04656 -0.355164,-0.356339 0.0059,-0.310007 0.355164,-0.358858 h 1.591603 v -1.377666 h -2.088497 q -0.348804,-0.02144 -0.352644,-0.348783 0.0039,-0.327493 0.353148,-0.35382"
           stroke="#191919"
           stroke-width="0.7 px"
           style="fill:#ff0000;fill-opacity:1;fill-rule:evenodd;stroke-width:0.025;stroke-linecap:square;stroke-miterlimit:4;stroke-dasharray:none;stroke:#ff0000;stroke-opacity:1"
           transform="matrix(-1,0,0,1,99.349634,240.72686)" /><path
           id="Cut003_cs_w0007"
           d="m 69.647325,-35.10416 v -2.560453 h -0.575777 q -0.216322,-0.01573 -0.21715,-0.222712 8.3e-4,-0.206993 0.21715,-0.224287 h 1.597922 q 0.219454,0.01865 0.220508,0.224287 -0.0011,0.205622 -0.220508,0.222712 h -0.578191 v 2.560453 q -0.01507,0.219003 -0.211692,0.220403 -0.196975,-0.0015 -0.232262,-0.220403"
           stroke="#191919"
           stroke-width="0.7 px"
           style="fill:#ff0000;fill-opacity:1;fill-rule:evenodd;stroke-width:0.025;stroke-linecap:square;stroke-miterlimit:4;stroke-dasharray:none;stroke:#ff0000;stroke-opacity:1"
           transform="matrix(-1,0,0,1,99.349634,240.72686)" /><path
           id="Cut003_cs_w0008"
           d="m 71.336241,-37.889424 q 0.03343,-0.220411 0.224392,-0.222188 0.190833,0.0018 0.222712,0.222188 v 2.786524 q -0.03188,0.220413 -0.222712,0.222187 -0.190959,-0.0018 -0.224392,-0.222187 v -2.786524"
           stroke="#191919"
           stroke-width="0.7 px"
           style="fill:#ff0000;fill-opacity:1;fill-rule:evenodd;stroke-width:0.025;stroke-linecap:square;stroke-miterlimit:4;stroke-dasharray:none;stroke:#ff0000;stroke-opacity:1"
           transform="matrix(-1,0,0,1,99.349634,240.72686)" /><path
           id="Cut003_cs_w0009"
           d="m 74.024948,-38.111612 q 0.196509,0.02847 0.223552,0.223447 v 2.781801 q -0.03014,0.191916 -0.223552,0.218829 h -0.842359 l -0.593514,-0.203086 -0.336062,-0.436818 -0.03705,-0.553421 0.302267,-0.551113 -0.277812,-0.455604 0.0212,-0.467569 0.282641,-0.37542 0.502939,-0.181046 h 0.977749"
           stroke="#191919"
           stroke-width="0.7 px"
           style="fill:#ff0000;fill-opacity:1;fill-rule:evenodd;stroke-width:0.025;stroke-linecap:square;stroke-miterlimit:4;stroke-dasharray:none;stroke:#ff0000;stroke-opacity:1"
           transform="matrix(-1,0,0,1,99.349634,240.72686)" /><path
           id="Cut003_cs_w0012"
           d="m -66.62522,15.09584 v -2.560453 h -0.575776 q -0.216322,-0.01573 -0.21715,-0.222712 8.3e-4,-0.206993 0.21715,-0.224287 h 1.597922 q 0.219454,0.01865 0.220508,0.224287 -0.0011,0.205622 -0.220508,0.222712 h -0.578191 v 2.560453 q -0.01508,0.219003 -0.211692,0.220403 -0.196975,-0.0015 -0.232263,-0.220403"
           stroke="#191919"
           stroke-width="0.7 px"
           style="fill:#ff0000;fill-opacity:1;fill-rule:evenodd;stroke-width:0.025;stroke-linecap:square;stroke-miterlimit:4;stroke-dasharray:none;stroke:#ff0000;stroke-opacity:1"
           transform="matrix(-1,0,0,1,99.349634,240.72686)" /><path
           id="Cut003_cs_w0013"
           d="m -64.172134,13.970001 -0.02991,-0.0047 q -0.37065,-0.07113 -0.5911,-0.391163 -0.221817,-0.319455 -0.156696,-0.692171 0.06259,-0.343686 0.322733,-0.569164 0.261229,-0.224678 0.612406,-0.224392 h 0.977645 l 0.156696,0.06465 0.06371,0.155856 v 2.781801 l -0.08659,0.174749 -0.232998,0.02288 -0.12437,-0.197628 v -1.108102 h -0.393577 l -0.776133,1.226175 -0.143997,0.09761 -0.174013,-0.03621 q -0.157103,-0.12161 -0.05667,-0.299013 l 0.632871,-1.001154"
           stroke="#191919"
           stroke-width="0.7 px"
           style="fill:#ff0000;fill-opacity:1;fill-rule:evenodd;stroke-width:0.025;stroke-linecap:square;stroke-miterlimit:4;stroke-dasharray:none;stroke:#ff0000;stroke-opacity:1"
           transform="matrix(-1,0,0,1,99.349634,240.72686)" /><path
           id="Cut003_cs_w0014"
           d="m -60.575052,12.088388 q 0.196509,0.02847 0.223552,0.223447 v 2.781801 q -0.03014,0.191916 -0.223552,0.218829 h -0.842359 l -0.593514,-0.203086 -0.336062,-0.436818 -0.03705,-0.553421 0.302267,-0.551113 -0.277812,-0.455604 0.0212,-0.467569 0.282641,-0.37542 0.502939,-0.181046 h 0.977749"
           stroke="#191919"
           stroke-width="0.7 px"
           style="fill:#ff0000;fill-opacity:1;fill-rule:evenodd;stroke-width:0.025;stroke-linecap:square;stroke-miterlimit:4;stroke-dasharray:none;stroke:#ff0000;stroke-opacity:1"
           transform="matrix(-1,0,0,1,99.349634,240.72686)" /><path
           id="Cut003_cs_w0018"
           d="m 73.802971,-35.332959 v -1.112826 H 73.16842 l -0.407745,0.209383 -0.12668,0.370592 0.145571,0.359677 0.407746,0.173174 h 0.615659"
           stroke="#191919"
           stroke-width="0.7 px"
           style="fill:#ffffff;fill-opacity:1;fill-rule:evenodd;stroke-width:0.025;stroke-linecap:square;stroke-miterlimit:4;stroke-dasharray:none;stroke:#ff0000;stroke-opacity:1"
           transform="matrix(-1,0,0,1,99.349634,240.72686)" /><path
           id="Cut003_cs_w0019"
           d="m 72.659919,-37.287934 0.09446,0.257976 0.288099,0.140849 h 0.760495 v -0.775714 h -0.756822 l -0.288413,0.125105 -0.09782,0.251784"
           stroke="#191919"
           stroke-width="0.7 px"
           style="fill:#ffffff;fill-opacity:1;fill-rule:evenodd;stroke-width:0.025;stroke-linecap:square;stroke-miterlimit:4;stroke-dasharray:none;stroke:#ff0000;stroke-opacity:1"
           transform="matrix(-1,0,0,1,99.349634,240.72686)" /><path
           id="Cut003_cs_w0020"
           d="m -63.26061,13.53927 v -1.003883 h -0.776133 q -0.248001,0.02015 -0.390429,0.21568 -0.14164,0.196284 -0.0677,0.436923 l 0.183459,0.254093 0.296705,0.09719 h 0.754093"
           stroke="#191919"
           stroke-width="0.7 px"
           style="fill:#ffffff;fill-opacity:1;fill-rule:evenodd;stroke-width:0.025;stroke-linecap:square;stroke-miterlimit:4;stroke-dasharray:none;stroke:#ff0000;stroke-opacity:1"
           transform="matrix(-1,0,0,1,99.349634,240.72686)" /><path
           id="Cut003_cs_w0021"
           d="m -60.797029,14.867041 v -1.112826 h -0.634551 l -0.407745,0.209383 -0.12668,0.370592 0.145571,0.359677 0.407746,0.173174 h 0.615659"
           stroke="#191919"
           stroke-width="0.7 px"
           style="fill:#ffffff;fill-opacity:1;fill-rule:evenodd;stroke-width:0.025;stroke-linecap:square;stroke-miterlimit:4;stroke-dasharray:none;stroke:#ff0000;stroke-opacity:1"
           transform="matrix(-1,0,0,1,99.349634,240.72686)" /><path
           id="Cut003_cs_w0022"
           d="m -61.940081,12.912066 0.09446,0.257976 0.288099,0.140849 h 0.760495 v -0.775714 h -0.756822 l -0.288413,0.125105 -0.09782,0.251784"
           stroke="#191919"
           stroke-width="0.7 px"
           style="display:inline;fill:#ffffff;fill-opacity:1;fill-rule:evenodd;stroke-width:0.025;stroke-linecap:square;stroke-miterlimit:4;stroke-dasharray:none;stroke:#ff0000;stroke-opacity:1"
           transform="matrix(-1,0,0,1,99.349634,240.72686)" /></g></g><g
       id="Cut_cs"
       transform="matrix(-1,0,0,1,230.53901,50.82365)"
       inkscape:label="Window Glass"><path
         id="Cut_cs_w0000"
         d="m -13.287838,-30.402447 2.693408,-0.539936 c 7.0824113,-1.223416 14.2809542,-1.522239 21.447633,-1.866536 H 53.175708 A 3.5,3.5 0 0 1 56.6757,-29.3089 l 8e-6,58.162396 A 3.5,3.5 0 0 1 53.1757,32.3535 l -95.97626,-4e-6 c -2.243755,-0.267302 -3.531858,-2.508484 -4.556638,-4.299862 L -47.556888,27.657223 -58.65833,4.8320931 q -0.508275,-0.977039 -0.522259,-2.0731101 c 0.104907,-1.97670646 1.526683,-3.52241245 2.670363,-5.0176494 1.13313,-1.3340152 2.266259,-2.6680304 3.399389,-4.0020456 q 4.2568,-4.87744 9.063261,-9.210745 l 0.112549,-0.09906 0.79587,-0.687643 0.08078,-0.06855 q 2.478551,-2.100298 5.154347,-3.942723 l 0.0058,-0.004 q 4.824883,-3.336319 10.187246,-5.709655 3.427401,-1.4517 6.996179,-2.513484 3.674523,-1.104116 7.426984,-1.905888"
         stroke="#191919"
         stroke-width="0.7 px"
         style="fill:none;fill-opacity:1;fill-rule:evenodd;stroke-width:0.1;stroke-linecap:square;stroke-miterlimit:4;stroke-dasharray:none" /><title
         id="title1">b'CrossSection Window Acrylic'</title></g></g></svg>
