<?xml version="1.0"?>
<!DOCTYPE svg PUBLIC "-//W3C//DTD SVG 1.1//EN" "http://www.w3.org/Graphics/SVG/1.1/DTD/svg11.dtd">
<svg width="185.30674583009903mm" height="89.07748264046825mm" viewBox="0 0 185.30674583009903 89.07748264046825" xmlns="http://www.w3.org/2000/svg" version="1.1">
<g id="Cut003_cs" transform="translate(98.330608,44.348481) scale(1,-1)">
<path id="Cut003_cs_w0000"  d="M -90.4592 42.53174800000246 L 78.15940527123901 42.53174800000246 A 7 7 0 0 0 85.1594 35.5317L 85.15940527123901 -35.91226903595405 A 7 7 0 0 0 78.1594 -42.9123L 6.574889999999996 -42.91226903595405 C -0.9197593961536612 -42.60884681320748 -8.363108216853318 -41.83688451539135 -15.755156462098974 -40.59638214250562 C -20.445266641486924 -39.694151033380756 -24.015695166860937 -38.80712698487681 -28.092227141445044 -37.62436130325334 C -29.68510803041473 -37.11607249237757 -31.27798891938447 -36.607783681501886 -32.87086980835417 -36.0994948706261 C -39.30688998720855 -33.96148265223566 -45.47822571494686 -31.092128800991798 -51.356555275000574 -27.114486640939695 C -55.98169582161769 -23.985090140910117 -60.36132500604684 -20.3943661671452 -64.49544282828808 -16.342314719644968 C -69.48124423746778 -11.495645955201592 -74.4167339834752 -5.991020434213864 -78.84790684376753 -0.2577811673308936 C -82.92209791294162 4.99529169997966 -86.4371882522887 10.531933376990839 -89.39317786180908 16.35214386370268 C -91.8432691028506 21.16765993772467 -93.89794621002535 26.124848983157126 -95.55720918333336 31.223711000000062 C -96.27036662493069 33.56930960142819 -96.96878423688686 35.91583195895252 -96.1333173436245 38.22977429350401 C -95.68119682643396 39.40359352567261 -94.9550549990503 40.38143328008848 -93.9548918614736 41.163293556751576 C -92.91833080527253 41.89555252859865 -91.75310018478136 42.35170400968231 -90.4592 42.53174800000246 " stroke="#191919" stroke-width="0.7 px" style="stroke-width:0.7;stroke-miterlimit:4;stroke-dasharray:none;stroke-linecap:square;fill:none;fill-opacity:1;fill-rule: evenodd"/>
<path id="Cut003_cs_w0001"  d="M 16.723898824517118 -40.047295884707715 L 19.162018052057 -40.047295884707715 Q 19.47328211868633 -40.023990468640264 19.519700671704356 -39.69465104843568 L 19.519700671704353 -35.245952475807634 Q 19.47643503735303 -34.92897427778293 19.162018052057 -34.88743022559773 L 16.723898824517118 -34.887430225597726 Q 16.37671934284621 -34.93408809101637 16.37075020990755 -35.2407467663198 Q 16.376726282399485 -35.54764002688496 16.723898824517114 -35.59675012484205 L 18.81189210747262 -35.59675012484205 L 18.81189210747262 -37.2518298897455 L 17.220288413098142 -37.2518298897455 Q 16.871055539380357 -37.2983906774151 16.865124685138444 -37.608169100492766 Q 16.87106079673055 -37.91817636374786 17.22028841309814 -37.96702720292769 L 18.81189210747262 -37.967027202927696 L 18.81189210747262 -39.3446930299638 L 16.723395046179586 -39.3446930299638 Q 16.374590595814045 -39.36612985306073 16.37075020990755 -39.6934755656481 Q 16.37465113594003 -40.02096884533147 16.723898824517114 -40.047295884707715 " stroke="#191919" stroke-width="0.7 px" style="stroke-width:0.7;stroke-miterlimit:4;stroke-dasharray:none;stroke-linecap:square;fill:none;fill-opacity:1;fill-rule: evenodd"/>
<path id="Cut003_cs_w0002"  d="M 20.23976784214936 -39.67500369327195 Q 20.262844700321303 -40.02527504260837 20.583680520570855 -40.02999949511914 Q 20.904934250385026 -40.02516384143391 20.950095298068756 -39.675003693271954 L 20.950095298068756 -36.46778287043399 L 23.068651133501163 -39.86392056984626 Q 23.219369464205407 -40.101187471014306 23.45336985726271 -40.02009185448101 Q 23.684927265016803 -39.93532519744623 23.721883711166992 -39.675003693271954 L 23.721883711166992 -35.22915986455658 Q 23.673029242773072 -34.88274697920636 23.36806339210738 -34.87668295439706 Q 23.06286078323437 -34.882755548041395 23.011556255247598 -35.22915986455658 L 23.011556255247594 -38.433861795706875 L 20.893000419815188 -35.041586396882366 Q 20.75129774212892 -34.82040072736828 20.495855163727864 -34.89162837841048 Q 20.240368354363355 -34.96378038668394 20.23976784214936 -35.227984381769005 L 20.23976784214936 -39.67500369327195 " stroke="#191919" stroke-width="0.7 px" style="stroke-width:0.7;stroke-miterlimit:4;stroke-dasharray:none;stroke-linecap:square;fill:none;fill-opacity:1;fill-rule: evenodd"/>
<path id="Cut003_cs_w0003"  d="M 24.435905541561617 -39.69062082173542 Q 24.48713204007469 -40.03991519968116 24.794931570109057 -40.04612040192015 Q 25.102493798515386 -40.03992348344978 25.15127078085633 -39.69062082173542 L 25.151270780856326 -35.232182534581774 Q 25.102493798515376 -34.882879872867385 24.794931570109057 -34.876682954397054 Q 24.487132040074673 -34.88288815663607 24.435905541561617 -35.232182534581774 L 24.435905541561613 -39.69062082173542 " stroke="#191919" stroke-width="0.7 px" style="stroke-width:0.7;stroke-miterlimit:4;stroke-dasharray:none;stroke-linecap:square;fill:none;fill-opacity:1;fill-rule: evenodd"/>
<path id="Cut003_cs_w0004"  d="M 26.67738329135171 -36.96165356732736 L 27.27704743912669 -36.96165356732736 L 27.299717464315606 -36.96417245901502 Q 27.60628656462302 -37.003279247541435 27.607022250209813 -37.31497010804945 Q 27.606298701472262 -37.626813507312335 27.299717464315606 -37.66593568319638 L 27.27704743912669 -37.670973466571695 L 26.32473845507967 -37.670973466571695 L 26.074192695214013 -37.56635549847766 L 25.969574727119973 -37.315473886386975 L 25.969574727119973 -36.0373882440696 L 25.999801427371864 -35.9718970601905 L 26.017433669185465 -35.93159479318798 L 26.035065910999066 -35.893811417873124 L 26.075368178001586 -35.8182446672434 L 26.093000419815187 -35.78046129192854 L 26.11315155331645 -35.74267791661368 L 26.135821578505364 -35.70489454129881 Q 26.554423687939483 -34.926425611785135 27.349927371956245 -34.89263593508554 Q 28.138348687498173 -34.95851302225313 28.569070948782436 -35.712451216361785 L 28.916678001679166 -36.66559983097136 L 28.98468807724592 -37.836716539619545 L 28.70643450881603 -38.9750876563282 Q 28.477827486142083 -39.50924601205123 28.009876994122493 -39.8325183868068 Q 27.453062517259667 -40.220340765266215 26.881413518051968 -39.924541896462536 Q 26.336365304319727 -39.62710266969926 26.06025482787564 -39.07953769830972 L 26.04010369437438 -39.03923543130721 L 26.024990344248437 -39.00397094768001 L 26.00483921074718 -38.96618757236514 Q 25.918982665205867 -38.73027907125918 26.070330394626268 -38.575927286890746 L 26.387710747271107 -38.468790427109056 L 26.652194374475137 -38.67164517102174 Q 26.881136487547625 -39.338980347792145 27.411724181360107 -39.308756841886556 Q 27.91870321580317 -39.165696088649156 28.10811376994113 -38.54821947832652 Q 28.337183812599513 -37.88365063092074 28.286955079764805 -37.161821493439874 Q 28.243246631736817 -36.43303775051713 27.803327875734578 -35.86862250099654 Q 27.52795371887152 -35.49542233144124 27.193756087321482 -35.62177111560612 Q 26.87460196753515 -35.77061455013455 26.705091099915943 -36.138143911575895 L 26.67738329135171 -36.193391602591845 L 26.67738329135171 -36.96165356732736 " stroke="#191919" stroke-width="0.7 px" style="stroke-width:0.7;stroke-miterlimit:4;stroke-dasharray:none;stroke-linecap:square;fill:none;fill-opacity:1;fill-rule: evenodd"/>
<path id="Cut003_cs_w0005"  d="M 29.7188610411418 -39.67500369327195 Q 29.74193789931374 -40.02527504260834 30.062773719563296 -40.029999495119135 Q 30.38402744937746 -40.02516384143391 30.429188497061197 -39.67500369327195 L 30.429188497061194 -36.46778287043399 L 32.54774433249361 -39.86392056984626 Q 32.698462663197915 -40.101187471014335 32.93246305625516 -40.02009185448101 Q 33.16402046400921 -39.93532519744625 33.20097691015943 -39.67500369327195 L 33.20097691015944 -35.229159864556586 Q 33.15212244176556 -34.88274697920641 32.84715659109982 -34.876682954397054 Q 32.541953982226836 -34.882755548041345 32.49064945424004 -35.229159864556586 L 32.49064945424004 -38.433861795706875 L 30.372093618807625 -35.04158639688236 Q 30.230390941121406 -34.8204007273683 29.97494836272031 -34.89162837841049 Q 29.719461553355814 -34.96378038668392 29.718861041141803 -35.22798438176901 L 29.718861041141796 -39.67500369327195 " stroke="#191919" stroke-width="0.7 px" style="stroke-width:0.7;stroke-miterlimit:4;stroke-dasharray:none;stroke-linecap:square;fill:none;fill-opacity:1;fill-rule: evenodd"/>
<path id="Cut003_cs_w0006"  d="M 34.25269815281267 -40.04729588470771 L 36.69081738035255 -40.04729588470771 Q 37.00208144698189 -40.023990468640264 37.048499999999905 -39.694651048435674 L 37.048499999999905 -35.245952475807634 Q 37.00523436564856 -34.928974277782906 36.69081738035255 -34.887430225597726 L 34.25269815281267 -34.887430225597726 Q 33.905518671141756 -34.93408809101637 33.89954953820309 -35.240746766319816 Q 33.90552561069509 -35.54764002688505 34.25269815281266 -35.59675012484205 L 36.340691435768164 -35.59675012484206 L 36.340691435768164 -37.2518298897455 L 34.749087741393694 -37.251829889745494 Q 34.39985486767589 -37.29839067741513 34.39392401343399 -37.60816910049277 Q 34.399860125026066 -37.91817636374782 34.74908774139369 -37.9670272029277 L 36.340691435768164 -37.967027202927696 L 36.340691435768164 -39.34469302996381 L 34.25219437447514 -39.34469302996381 Q 33.90338992410955 -39.36612985306076 33.8995495382031 -39.6934755656481 Q 33.903450464235554 -40.02096884533147 34.25269815281267 -40.04729588470772 " stroke="#191919" stroke-width="0.7 px" style="stroke-width:0.7;stroke-miterlimit:4;stroke-dasharray:none;stroke-linecap:square;fill:none;fill-opacity:1;fill-rule: evenodd"/>
<path id="Cut003_cs_w0007"  d="M 69.64732451721235 -35.10415986455658 L 69.64732451721235 -37.66461326506036 L 69.07154785894198 -37.66461326506036 Q 68.85522595920827 -37.68034656895 68.85439840470184 -37.88732527177741 Q 68.85522788500222 -38.094317554807375 69.07154785894198 -38.11161158579923 L 70.66946977329967 -38.111611585799245 Q 70.88892371562756 -38.09296252813887 70.88997774979002 -37.88732527177741 Q 70.8889260230263 -37.68170332215547 70.66946977329967 -37.66461326506036 L 70.09127917716197 -37.66461326506036 L 70.09127917716197 -35.104159864556586 Q 70.07620385529022 -34.88515660749036 69.87958732157844 -34.88375684188656 Q 69.6826119023167 -34.885215556153284 69.64732451721237 -35.104159864556586 " stroke="#191919" stroke-width="0.7 px" style="stroke-width:0.7;stroke-miterlimit:4;stroke-dasharray:none;stroke-linecap:square;fill:none;fill-opacity:1;fill-rule: evenodd"/>
<path id="Cut003_cs_w0008"  d="M 71.33624139378665 -37.88942434818379 Q 71.36967381225382 -38.10983476409275 71.5606326616288 -38.11161158579923 Q 71.75146598223743 -38.10983823470741 71.78334466834585 -37.88942434818378 L 71.78334466834585 -35.10290041871276 Q 71.75146598223743 -34.88248653218911 71.5606326616288 -34.880713181097306 Q 71.3696738122538 -34.88249000280381 71.33624139378665 -35.102900418712764 L 71.33624139378665 -37.88942434818379 " stroke="#191919" stroke-width="0.7 px" style="stroke-width:0.7;stroke-miterlimit:4;stroke-dasharray:none;stroke-linecap:square;fill:none;fill-opacity:1;fill-rule: evenodd"/>
<path id="Cut003_cs_w0009"  d="M 74.02494836272032 -38.11161158579924 Q 74.22145724770785 -38.08314651743055 74.24849999999992 -37.88816490233995 L 74.24849999999992 -35.106363894783286 Q 74.21835610931727 -34.91444770997185 74.02494836272032 -34.887535179418045 L 73.18258900083956 -34.887535179418045 L 72.58907514693527 -35.09062082173543 L 72.25301301427365 -35.52743862190334 L 72.21596431570103 -36.08086011644575 L 72.5182313182199 -36.631972626941135 L 72.24041855583536 -37.08757716094617 L 72.26161922753981 -37.55514643046759 L 72.54425986565903 -37.93056624574886 L 73.04719857262796 -38.11161158579924 L 74.02494836272032 -38.111611585799245 " stroke="#191919" stroke-width="0.7 px" style="stroke-width:0.7;stroke-miterlimit:4;stroke-dasharray:none;stroke-linecap:square;fill:none;fill-opacity:1;fill-rule: evenodd"/>
<circle cx="71.896548" cy="-30.166836" r="4.0" stroke="#191919" stroke-width="0.7 px" style="stroke-width:0.7;stroke-miterlimit:4;stroke-dasharray:none;stroke-linecap:square;fill:none"/>
<path id="Cut003_cs_w0011"  d="M 57.17570799999999 28.853496382273082 A 4 4 0 0 1 53.1757 32.8535L -42.80056038863627 32.85349638227308 C -45.40323660817184 32.58841290375152 -46.88943945416511 29.97398810393173 -48.00652619413877 27.875913341094076 L -59.10796792534127 5.050783302016293 C -60.144436560871654 3.2606850507146796 -59.62991326062512 1.0514435064788274 -58.43867314245581 -0.5226444158297667 C -57.5223059879825 -1.8185740883242818 -56.542150592213865 -3.065371924103563 -55.498206955149946 -4.263037923167605 C -53.48504117324245 -6.64736207338688 -51.3923711785891 -8.959722773492917 -49.22019697118972 -11.200120023485738 C -43.991173206878074 -16.746599105248556 -38.00712190423605 -21.293318207718123 -31.26804306326369 -24.840277330894402 C -24.843332086005113 -28.170985025301924 -17.780932736858496 -30.05885337568135 -10.708014489487283 -31.42995751552684 C -3.592179682069643 -32.662621183383656 3.641399120567033 -32.96315195000132 10.842599999999997 -33.308919 L 53.175708 -33.308919 A 4 4 0 0 1 57.1757 -29.3089L 57.17570799999999 28.85349638227308 " stroke="#191919" stroke-width="0.7 px" style="stroke-width:0.7;stroke-miterlimit:4;stroke-dasharray:none;stroke-linecap:square;fill:none;fill-opacity:1;fill-rule: evenodd"/>
<path id="Cut003_cs_w0012"  d="M -66.6252195633922 15.09584013544342 L -66.6252195633922 12.535386734939642 L -67.20099622166256 12.535386734939642 Q -67.41731812139628 12.519653431049989 -67.4181456759027 12.312674728222596 Q -67.41731619560233 12.10568244519263 -67.20099622166258 12.088388414200768 L -65.60307430730488 12.088388414200764 Q -65.38362036497696 12.107037471861151 -65.38256633081454 12.312674728222596 Q -65.38361805757819 12.518296677844525 -65.60307430730488 12.535386734939642 L -66.18126490344258 12.535386734939642 L -66.18126490344258 15.09584013544342 Q -66.19634022531434 15.314843392509651 -66.39295675902612 15.316243158113446 Q -66.58993217828785 15.314784443846733 -66.6252195633922 15.095840135443423 " stroke="#191919" stroke-width="0.7 px" style="stroke-width:0.7;stroke-miterlimit:4;stroke-dasharray:none;stroke-linecap:square;fill:none;fill-opacity:1;fill-rule: evenodd"/>
<path id="Cut003_cs_w0013"  d="M -64.17213392107482 13.970000504880872 L -64.20204575986575 13.965277582966513 Q -64.57269630856436 13.894152197392899 -64.7931456759027 13.574114694637375 Q -65.01496254595801 13.254660168084975 -64.94984172963905 12.881944249633177 Q -64.88725337873704 12.538258146729461 -64.62710873215795 12.312779682042915 Q -64.3658796680242 12.088101850797518 -64.01470319059624 12.088388414200764 L -63.03705835432419 12.088388414200766 L -62.880362300587834 12.153039967517307 L -62.81665533165416 12.30889639069111 L -62.81665533165417 15.090697398247785 L -62.90324223341739 15.26544550907902 L -63.1362397145257 15.288325441908574 L -63.260609991603786 15.090697398247785 L -63.260609991603786 13.982594963319155 L -63.65418681780026 13.982594963319155 L -64.4303203190597 15.208770446106733 L -64.57431696053746 15.306377499003453 L -64.74833039462646 15.27016843099338 Q -64.90543330848548 15.148558324310088 -64.80500545759875 14.971154996904376 L -64.17213392107482 13.970000504880872 " stroke="#191919" stroke-width="0.7 px" style="stroke-width:0.7;stroke-miterlimit:4;stroke-dasharray:none;stroke-linecap:square;fill:none;fill-opacity:1;fill-rule: evenodd"/>
<path id="Cut003_cs_w0014"  d="M -60.57505163727969 12.088388414200766 Q -60.37854275229212 12.116853482569496 -60.351500000000094 12.311835097660044 L -60.351500000000094 15.093636105216719 Q -60.38164389068271 15.285552290028164 -60.57505163727969 15.312464820581956 L -61.41741099916047 15.312464820581958 L -62.01092485306475 15.109379178264579 L -62.34698698572638 14.672561378096649 L -62.384035684299 14.11913988355425 L -62.08176868178011 13.568027373058868 L -62.35958144416466 13.112422839053831 L -62.33838077246021 12.644853569532419 L -62.05574013434098 12.269433754251144 L -61.55280142737205 12.088388414200766 L -60.57505163727969 12.088388414200766 " stroke="#191919" stroke-width="0.7 px" style="stroke-width:0.7;stroke-miterlimit:4;stroke-dasharray:none;stroke-linecap:square;fill:none;fill-opacity:1;fill-rule: evenodd"/>
<circle cx="-63.864423" cy="22.16829" r="4.0" stroke="#191919" stroke-width="0.7 px" style="stroke-width:0.7;stroke-miterlimit:4;stroke-dasharray:none;stroke-linecap:square;fill:none"/>
<circle cx="-89.779187" cy="36.087128" r="2.0" stroke="#191919" stroke-width="0.7 px" style="stroke-width:0.7;stroke-miterlimit:4;stroke-dasharray:none;stroke-linecap:square;fill:none"/>
<circle cx="78.936443" cy="36.087128" r="2.0" stroke="#191919" stroke-width="0.7 px" style="stroke-width:0.7;stroke-miterlimit:4;stroke-dasharray:none;stroke-linecap:square;fill:none"/>
<path id="Cut003_cs_w0018"  d="M 73.80297103274552 -35.33295919285213 L 73.80297103274552 -36.44578454969512 L 73.16842023509648 -36.44578454969513 L 72.76067464315693 -36.2364016781586 L 72.63399538203183 -35.865809738612 L 72.77956633081436 -35.50613299637858 L 73.1873119227539 -35.33295919285213 L 73.80297103274552 -35.33295919285214 " stroke="#191919" stroke-width="0.7 px" style="stroke-width:0.7;stroke-miterlimit:4;stroke-dasharray:none;stroke-linecap:square;fill:none;fill-opacity:1;fill-rule: evenodd"/>
<path id="Cut003_cs_w0019"  d="M 72.65991897565064 -37.287934003935256 L 72.75437741393779 -37.02995751359101 L 73.04247565071361 -36.88910948672283 L 73.80297103274552 -36.88910948672284 L 73.80297103274552 -37.664823172701 L 73.04614903442477 -37.664823172701 L 72.757735936188 -37.53971821888068 L 72.65991897565064 -37.28793400393526 " stroke="#191919" stroke-width="0.7 px" style="stroke-width:0.7;stroke-miterlimit:4;stroke-dasharray:none;stroke-linecap:square;fill:none;fill-opacity:1;fill-rule: evenodd"/>
<path id="Cut003_cs_w0020"  d="M -63.260609991603786 13.539270026291447 L -63.260609991603786 12.535386734939642 L -64.03674349286324 12.535386734939642 Q -64.28474436322253 12.555532677751211 -64.42717170445015 12.751066835695308 Q -64.56881172352442 12.947351307760293 -64.49486691855593 13.187989589683554 L -64.31140764063821 13.442082788675997 L -64.01470319059624 13.539270026291447 L -63.260609991603786 13.539270026291447 " stroke="#191919" stroke-width="0.7 px" style="stroke-width:0.7;stroke-miterlimit:4;stroke-dasharray:none;stroke-linecap:square;fill:none;fill-opacity:1;fill-rule: evenodd"/>
<path id="Cut003_cs_w0021"  d="M -60.797028967254505 14.86704080714787 L -60.797028967254505 13.75421545030488 L -61.43157976490354 13.75421545030488 L -61.839325356843084 13.963598321841406 L -61.96600461796819 14.334190261388006 L -61.820433669185654 14.69386700362142 L -61.4126880772461 14.86704080714787 L -60.797028967254505 14.86704080714787 " stroke="#191919" stroke-width="0.7 px" style="stroke-width:0.7;stroke-miterlimit:4;stroke-dasharray:none;stroke-linecap:square;fill:none;fill-opacity:1;fill-rule: evenodd"/>
<path id="Cut003_cs_w0022"  d="M -61.94008102434938 12.912065996064747 L -61.84562258606223 13.170042486408995 L -61.55752434928641 13.310890513277172 L -60.797028967254505 13.310890513277172 L -60.797028967254505 12.535176827299003 L -61.55385096557524 12.535176827299003 L -61.84226406381201 12.660281781119322 L -61.94008102434939 12.912065996064745 " stroke="#191919" stroke-width="0.7 px" style="stroke-width:0.7;stroke-miterlimit:4;stroke-dasharray:none;stroke-linecap:square;fill:none;fill-opacity:1;fill-rule: evenodd"/>
<title>b'CrossSection Panel Top'</title>
</g>
</svg>