<?xml version="1.0"?>
<!DOCTYPE svg PUBLIC "-//W3C//DTD SVG 1.1//EN" "http://www.w3.org/Graphics/SVG/1.1/DTD/svg11.dtd">
<svg width="7.036640108823335mm" height="7.037306689941154mm" viewBox="0 0 7.036640108823335 7.037306689941154" xmlns="http://www.w3.org/2000/svg" version="1.1">
<g id="Cut001_cs" transform="translate(-22.772347,25.378653) scale(1,-1)">
<circle cx="26.290000000000003" cy="21.860000000000003" r="3.45" stroke="#191919" stroke-width="0.7 px" style="stroke-width:0.7;stroke-miterlimit:4;stroke-dasharray:none;stroke-linecap:square;fill:none"/>
<path id="Cut001_cs_w0001"  d="M 26.510329974811086 20.02128715365239 L 27.281740554156173 22.661127623845505 L 27.79087153652393 20.02128715365239 Q 27.90089544330707 19.732357212628543 28.156740554156173 19.775611251049536 Q 28.410757207151214 19.828544021489478 28.408 20.13795382031906 L 27.645405541561715 24.029536523929472 Q 27.561786461569866 24.26513117242593 27.35006549118388 24.282999999999998 Q 27.137834843345793 24.295875266292796 27.039297229219148 24.06039294710327 L 26.21278589420655 21.217781696053734 L 25.379662468513857 24.060392947103274 Q 25.284610778021346 24.28997272132594 25.06566162888329 24.282999999999994 Q 24.84657721382989 24.27192400120196 24.777962216624687 24.02953652392947 L 24.0153677581864 20.13795382031906 Q 23.99247257321015 19.83709122439698 24.2633946263644 19.778843828715363 Q 24.53585784378629 19.72685843052465 24.625884130982367 20.02128715365239 L 25.141627204030236 22.65671956339211 L 25.91303778337532 20.02128715365239 Q 25.99697115831104 19.791898801468783 26.207349286314024 19.796476070528964 Q 26.417135293235233 19.804609924962946 26.510329974811082 20.02128715365239 " stroke="#191919" stroke-width="0.7 px" style="stroke-width:0.7;stroke-miterlimit:4;stroke-dasharray:none;stroke-linecap:square;fill:none;fill-opacity:1;fill-rule: evenodd"/>
<title>b'Cut001_cs'</title>
</g>
</svg>