<?xml version="1.0"?>
<!DOCTYPE svg PUBLIC "-//W3C//DTD SVG 1.1//EN" "http://www.w3.org/Graphics/SVG/1.1/DTD/svg11.dtd">
<svg width="185.30674583009903mm" height="89.07748264046825mm" viewBox="0 0 185.30674583009903 89.07748264046825" xmlns="http://www.w3.org/2000/svg" version="1.1">
<g id="Slice_child0_cs" transform="translate(98.330608,44.348481) scale(1,-1)">
<path id="Slice_child0_cs_w0000"  d="M -90.4592 42.53174800000246 L 78.15940527123901 42.53174800000246 A 7 7 0 0 0 85.1594 35.5317L 85.15940527123901 -35.91226903595405 A 7 7 0 0 0 78.1594 -42.9123L 6.574889999999996 -42.91226903595405 C -0.9197593961536612 -42.60884681320748 -8.363108216853318 -41.83688451539135 -15.755156462098974 -40.59638214250562 C -20.445266641486924 -39.694151033380756 -24.015695166860937 -38.80712698487681 -28.092227141445044 -37.62436130325334 C -29.68510803041473 -37.11607249237757 -31.27798891938447 -36.607783681501886 -32.87086980835417 -36.0994948706261 C -39.30688998720855 -33.96148265223566 -45.47822571494686 -31.092128800991798 -51.356555275000574 -27.114486640939695 C -55.98169582161769 -23.985090140910117 -60.36132500604684 -20.3943661671452 -64.49544282828808 -16.342314719644968 C -69.48124423746778 -11.495645955201592 -74.4167339834752 -5.991020434213864 -78.84790684376753 -0.2577811673308936 C -82.92209791294162 4.99529169997966 -86.4371882522887 10.531933376990839 -89.39317786180908 16.35214386370268 C -91.8432691028506 21.16765993772467 -93.89794621002535 26.124848983157126 -95.55720918333336 31.223711000000062 C -96.27036662493069 33.56930960142819 -96.96878423688686 35.91583195895252 -96.1333173436245 38.22977429350401 C -95.68119682643396 39.40359352567261 -94.9550549990503 40.38143328008848 -93.9548918614736 41.163293556751576 C -92.91833080527253 41.89555252859865 -91.75310018478136 42.35170400968231 -90.4592 42.53174800000246 " stroke="#191919" stroke-width="0.7 px" style="stroke-width:0.7;stroke-miterlimit:4;stroke-dasharray:none;stroke-linecap:square;fill:none;fill-opacity:1;fill-rule: evenodd"/>
<circle cx="71.896548" cy="-30.166836" r="5.75" stroke="#191919" stroke-width="0.7 px" style="stroke-width:0.7;stroke-miterlimit:4;stroke-dasharray:none;stroke-linecap:square;fill:none"/>
<path id="Slice_child0_cs_w0002"  d="M 56.17570799999999 -29.308919 L 56.17570799999999 28.853496382273082 A 3 3 0 0 1 53.1757 31.8535L -42.80056038863627 31.85349638227308 C -44.080860042197166 31.835303736268486 -44.84789310991925 30.629623991242923 -45.60281638052503 29.726722469532195 C -46.104294134066784 28.96399260121114 -46.60577188760858 28.201262732890086 -47.10724964115035 27.438532864569037 L -58.2253 4.675720000000001 Q -58.987810486487604 2.771303708153903 -58.027293337527546 0.9183645561504297 Q -56.5783234144932 -1.5176482808371232 -54.638567593723636 -3.604255639298273 Q -51.35838483940697 -7.436642696066427 -47.85154734227477 -11.062522003753518 Q -40.377324146080966 -19.025734328848564 -30.623439583246927 -23.91824002272361 Q -25.81773521300766 -26.355202786802003 -20.658006628926252 -27.915998818101016 Q -15.774573922666605 -29.465875398576287 -11.010445755809492 -30.462857068535023 Q -7.936449833770364 -31.059064371690077 -4.81619728228637 -31.331088243208583 Q -2.18750403527045 -31.588678178411392 0.8734316677382452 -31.790248233772818 Q 5.858015833869122 -32.049583616886416 10.842599999999994 -32.308919 L 53.17570799999999 -32.308919 A 3 3 0 0 1 56.1757 -29.3089" stroke="#191919" stroke-width="0.7 px" style="stroke-width:0.7;stroke-miterlimit:4;stroke-dasharray:none;stroke-linecap:square;fill:none;fill-opacity:1;fill-rule: evenodd"/>
<circle cx="-63.864423" cy="22.16829" r="6.5" stroke="#191919" stroke-width="0.7 px" style="stroke-width:0.7;stroke-miterlimit:4;stroke-dasharray:none;stroke-linecap:square;fill:none"/>
<circle cx="-89.779187" cy="36.087128" r="2.0" stroke="#191919" stroke-width="0.7 px" style="stroke-width:0.7;stroke-miterlimit:4;stroke-dasharray:none;stroke-linecap:square;fill:none"/>
<circle cx="78.936443" cy="36.087128" r="2.0" stroke="#191919" stroke-width="0.7 px" style="stroke-width:0.7;stroke-miterlimit:4;stroke-dasharray:none;stroke-linecap:square;fill:none"/>
<title>b'CrossSection Panel Middle'</title>
</g>
</svg>