<?xml version="1.0"?>
<!DOCTYPE svg PUBLIC "-//W3C//DTD SVG 1.1//EN" "http://www.w3.org/Graphics/SVG/1.1/DTD/svg11.dtd">
<svg width="61.38055836mm" height="28.124652360000002mm" viewBox="0 0 61.38055836 28.124652360000002" xmlns="http://www.w3.org/2000/svg" version="1.1">
<g id="Slice_child2_cs001" transform="translate(30.690279,14.062326) scale(1,-1)">
<path id="Slice_child2_cs001_w0000"  d="M 30.088509000000002 13.460556 L -30.088509000000002 13.460556 L -30.088509000000002 -13.460556 L 30.088509000000002 -13.460556 L 30.088509000000002 13.460556 " stroke="#191919" stroke-width="0.7 px" style="stroke-width:0.7;stroke-miterlimit:4;stroke-dasharray:none;stroke-linecap:square;fill:none;fill-opacity:1;fill-rule: evenodd"/>
<circle cx="-23.56976081554251" cy="0.0" r="1.2" stroke="#191919" stroke-width="0.7 px" style="stroke-width:0.7;stroke-miterlimit:4;stroke-dasharray:none;stroke-linecap:square;fill:none"/>
<path id="Slice_child2_cs001_w0002"  d="M 6.680908303125 -6.5 L 6.258789162499999 -6.6162109375 Q 5.833303344635951 -6.869737944485708 5.6572266625 -7.376708984375 L 5.5000001 -8.258544921875 L 5.5068360375 -8.45166015625 Q 5.5460334748542355 -8.99558746972296 5.822998146875 -9.451416015625 Q 6.098419357434366 -9.899882016590873 6.615966896875 -9.991455078125 L 6.759521584375 -10.00341796875 L 7.197021584374999 -9.86328125 L 7.612304787499999 -9.4189453125 Q 7.856648756057692 -8.99253246752911 7.892578224999999 -8.4892578125 L 7.8994141625 -8.291015625 L 7.77294931875 -7.506591796875 L 7.367920021874999 -6.8170735677083325 Q 7.099951026584364 -6.500081267163207 6.680908303125 -6.5 " stroke="#191919" stroke-width="0.7 px" style="stroke-width:0.7;stroke-miterlimit:4;stroke-dasharray:none;stroke-linecap:square;fill:none;fill-opacity:1;fill-rule: evenodd"/>
<path id="Slice_child2_cs001_w0003"  d="M 8.600553485416667 -9.99658203125 Q 8.816443390491472 -9.991721331490613 8.831266376041667 -9.75732421875 L 8.831266376041667 -8.395263671875 L 9.933561297916668 -8.395263671875 Q 10.170823073338507 -8.360657306416844 10.172819110416668 -8.15087890625 Q 10.171326811219512 -7.931550594861784 9.933561297916668 -7.9150390625 L 8.831266376041667 -7.9150390625 L 8.831266376041667 -6.980224609375 L 10.244596454166667 -6.980224609375 Q 10.484162408328249 -6.965291914297122 10.485563251041667 -6.741878255208334 Q 10.484357264762274 -6.518481583455866 10.248014422916668 -6.5 L 8.593717547916667 -6.5 Q 8.381391955235511 -6.518121644365037 8.351041766666667 -6.74267578125 L 8.351041766666667 -9.75732421875 Q 8.383967574240064 -9.994594473009784 8.593717547916667 -9.99658203125 L 8.600553485416667 -9.99658203125 " stroke="#191919" stroke-width="0.7 px" style="stroke-width:0.7;stroke-miterlimit:4;stroke-dasharray:none;stroke-linecap:square;fill:none;fill-opacity:1;fill-rule: evenodd"/>
<path id="Slice_child2_cs001_w0004"  d="M 11.210970152083334 -9.99658203125 Q 11.426860057158141 -9.991721331490613 11.441683042708334 -9.75732421875 L 11.441683042708334 -8.395263671875 L 12.543977964583334 -8.395263671875 Q 12.781239740005173 -8.360657306416844 12.783235777083334 -8.15087890625 Q 12.781743477886177 -7.931550594861784 12.543977964583334 -7.9150390625 L 11.441683042708334 -7.9150390625 L 11.441683042708334 -6.980224609375 L 12.855013120833334 -6.980224609375 Q 13.094579074994908 -6.965291914297131 13.095979917708334 -6.741878255208334 Q 13.094773931428932 -6.518481583455856 12.858431089583334 -6.500000000000001 L 11.204134214583334 -6.5 Q 10.991808621902194 -6.5181216443650225 10.961458433333334 -6.74267578125 L 10.961458433333334 -9.75732421875 Q 10.994384240906736 -9.994594473009787 11.204134214583334 -9.99658203125 L 11.210970152083334 -9.99658203125 " stroke="#191919" stroke-width="0.7 px" style="stroke-width:0.7;stroke-miterlimit:4;stroke-dasharray:none;stroke-linecap:square;fill:none;fill-opacity:1;fill-rule: evenodd"/>
<circle cx="0.0" cy="0.0" r="8.0" stroke="#191919" stroke-width="0.7 px" style="stroke-width:0.7;stroke-miterlimit:4;stroke-dasharray:none;stroke-linecap:square;fill:none"/>
<circle cx="23.56976081554251" cy="0.0" r="1.2" stroke="#191919" stroke-width="0.7 px" style="stroke-width:0.7;stroke-miterlimit:4;stroke-dasharray:none;stroke-linecap:square;fill:none"/>
<path id="Slice_child2_cs001_w0007"  d="M -4.21484365 8.50390625 Q -3.967944704674405 8.509891528437226 -3.9511717749999993 8.77734375 L -3.9511717749999997 10.333984375 L -2.6914061499999997 10.333984375 Q -2.4208347962876364 10.373160087209104 -2.4179686499999997 10.61328125 Q -2.4201173757651206 10.864115290642125 -2.6914061499999997 10.8828125 L -3.9511717749999997 10.8828125 L -3.9511717749999997 11.951171875 L -2.3359373999999997 11.951171875 Q -2.062562867542634 11.968103290491918 -2.0605467749999997 12.223567708333334 Q -2.062283364475232 12.478974624704176 -2.3320311499999997 12.5 L -4.22265615 12.5 Q -4.465434104180149 12.478986151175334 -4.4999999 12.22265625 L -4.4999999 8.77734375 Q -4.462736743726213 8.506760628938885 -4.22265615 8.50390625 L -4.21484365 8.50390625 " stroke="#191919" stroke-width="0.7 px" style="stroke-width:0.7;stroke-miterlimit:4;stroke-dasharray:none;stroke-linecap:square;fill:none;fill-opacity:1;fill-rule: evenodd"/>
<path id="Slice_child2_cs001_w0008"  d="M 1.1122396833333337 8.76953125 Q 1.1095926662606392 9.015132418807998 0.8368490583333337 9.044921875 L -0.9658853166666663 9.04296875 L -0.9658853166666663 12.22265625 Q -0.9861811026600575 12.493618455589335 -1.2315103166666663 12.5 L -1.2393228166666663 12.5 Q -1.4778268807633264 12.496733020133629 -1.5166665666666668 12.22265625 L -1.5166665666666668 8.76953125 Q -1.4801853495649127 8.515163049056 -1.2393228166666663 8.498046875 L 0.8348959333333337 8.498046875 Q 1.1100292444018622 8.514809791490048 1.1122396833333337 8.76953125 " stroke="#191919" stroke-width="0.7 px" style="stroke-width:0.7;stroke-miterlimit:4;stroke-dasharray:none;stroke-linecap:square;fill:none;fill-opacity:1;fill-rule: evenodd"/>
<path id="Slice_child2_cs001_w0009"  d="M 1.9440105166666672 12.5 L 1.9420573916666672 12.5 Q 1.7072233886319652 12.496509265780272 1.6666667666666672 12.22265625 L 1.6666667666666672 8.76953125 Q 1.7075537557292129 8.499181782986053 1.9440105166666672 8.49609375 L 1.9459636416666672 8.49609375 Q 2.180564199109584 8.499285640796007 2.2213542666666664 8.76953125 L 2.2213542666666664 12.22265625 Q 2.1807025022636926 12.496614525932923 1.9440105166666675 12.5 " stroke="#191919" stroke-width="0.7 px" style="stroke-width:0.7;stroke-miterlimit:4;stroke-dasharray:none;stroke-linecap:square;fill:none;fill-opacity:1;fill-rule: evenodd"/>
<path id="Slice_child2_cs001_w0010"  d="M 4.493750100000001 10.171875 Q 4.95437140340554 10.260916221851879 5.228125099999999 10.65625 Q 5.439143489243985 10.957716437759746 5.441015725000001 11.302734375 L 5.441015725000001 11.30859375 L 5.421484474999999 11.515625 Q 5.343995610928447 11.941565587698886 5.021093850000001 12.221614583333334 Q 4.696425916698482 12.500468274800507 4.261328224999999 12.5 L 3.0484375999999997 12.5 L 2.854036558333333 12.419921875 L 2.7750000999999997 12.2265625 L 2.7750000999999997 8.775390625 L 2.8824219749999997 8.55859375 L 3.0445313499999997 8.498046875 L 3.1714844749999997 8.53125 L 3.3257813500000006 8.775390625 L 3.3257813500000006 10.150390625 L 3.8140626000000006 10.150390625 L 4.776953224999999 8.62890625 L 4.954687600000001 8.5078125 L 5.013281349999999 8.501953125 L 5.171484475000001 8.552734375 L 5.290625100000001 8.76171875 L 5.241796975000001 8.923828125 L 4.456640724999999 10.166015625 L 4.493750100000001 10.171875 " stroke="#191919" stroke-width="0.7 px" style="stroke-width:0.7;stroke-miterlimit:4;stroke-dasharray:none;stroke-linecap:square;fill:none;fill-opacity:1;fill-rule: evenodd"/>
<circle cx="0.0" cy="0.0" r="7.0" stroke="#191919" stroke-width="0.7 px" style="stroke-width:0.7;stroke-miterlimit:4;stroke-dasharray:none;stroke-linecap:square;fill:none"/>
<circle cx="0.0" cy="0.0" r="6.5" stroke="#191919" stroke-width="0.7 px" style="stroke-width:0.7;stroke-miterlimit:4;stroke-dasharray:none;stroke-linecap:square;fill:none"/>
<path id="Slice_child2_cs001_w0013"  d="M 6.773193459375 -6.99560546875 Q 7.03645876299052 -7.067374790051284 7.176513771875 -7.321223958333333 L 7.3662110375 -7.89453125 L 7.395263771875 -8.27392578125 L 7.395263771875 -8.302978515625 L 7.38330088125 -8.53369140625 L 7.258545021875 -9.0498046875 L 6.9970704125 -9.412109375 L 6.723632912499999 -9.5283203125 L 6.58349619375 -9.506103515625 L 6.251953224999999 -9.248958333333334 L 6.062255959375 -8.813167317708334 L 5.990478615625 -8.323486328125 L 5.98876963125 -8.22265625 L 6.014404396875 -7.9013671875 L 6.218571063541667 -7.32373046875 Q 6.373374085386631 -6.991218845816796 6.694580178125 -6.9853515625 L 6.773193459375 -6.99560546875 " stroke="#191919" stroke-width="0.7 px" style="stroke-width:0.7;stroke-miterlimit:4;stroke-dasharray:none;stroke-linecap:square;fill:none;fill-opacity:1;fill-rule: evenodd"/>
<path id="Slice_child2_cs001_w0014"  d="M 3.3257813500000006 10.69921875 L 3.3257813500000006 11.94921875 L 4.288671974999999 11.94921875 Q 4.59594830344369 11.922277460696115 4.773046974999999 11.6796875 L 4.888281349999999 11.3359375 L 4.857031350000001 11.13671875 L 4.629427183333333 10.8203125 L 4.261328224999999 10.69921875 L 3.3257813500000006 10.69921875 " stroke="#191919" stroke-width="0.7 px" style="stroke-width:0.7;stroke-miterlimit:4;stroke-dasharray:none;stroke-linecap:square;fill:none;fill-opacity:1;fill-rule: evenodd"/>
<title>b'Panel CS Top Engrave'</title>
</g>
</svg>