<?xml version="1.0"?>
<!DOCTYPE svg PUBLIC "-//W3C//DTD SVG 1.1//EN" "http://www.w3.org/Graphics/SVG/1.1/DTD/svg11.dtd">
<svg width="42.82750398000004mm" height="162.0389279799993mm" viewBox="0 0 42.82750398000004 162.0389279799993" xmlns="http://www.w3.org/2000/svg" version="1.1">
<g id="Slice_child1_cs" transform="translate(4.926877,70.675877) scale(1,-1)">
<path id="Slice_child1_cs_w0000"  d="M -4.507 -28.178215 L 33.53139565737462 -28.178215 Q 35.64269322367996 -59.55194200352888 37.48074900000003 -90.9431729999993 L 15.346449428413667 -90.94317299999929 A 1 1 0 0 0 14.3464 -89.9432L 14.346449428413667 -80.763 A 4 4 0 0 1 10.3464 -76.763L -3.5069999999999997 -76.763 A 1 1 0 0 0 -4.507 -75.763L -4.507 -28.178215 " stroke="#191919" stroke-width="0.7 px" style="stroke-width:0.7;stroke-miterlimit:4;stroke-dasharray:none;stroke-linecap:square;fill:none;fill-opacity:1;fill-rule: evenodd"/>
<path id="Slice_child1_cs_w0001"  d="M -0.7716014625000001 -56.57170898437501 L -1.802119040625 -54.73040039062501 L -2.065790915625 -54.56560546875001 L -2.0723827125 -54.56560546875001 L -2.221796775 -54.60955078125001 L -2.3799999 -54.85564453125001 L -2.34044911875 -55.02703125000001 L -1.07921865 -57.28362304687501 L -1.07921865 -58.75359375000001 Q -1.0604808875713916 -59.06266199235005 -0.7727733375000001 -59.06560546875001 Q -0.48492961401972134 -59.06267223637669 -0.46618154062500006 -58.75359375000001 L -0.46618154062500006 -57.28362304687501 L 0.7972461937499999 -55.02703125000001 L 0.8367969749999999 -54.85564453125001 L 0.6720020531249995 -54.60735351562501 L 0.5159961937499999 -54.56121093750001 L 0.25891611562499994 -54.73040039062501 L -0.7716014625000001 -56.57170898437501 " stroke="#191919" stroke-width="0.7 px" style="stroke-width:0.7;stroke-miterlimit:4;stroke-dasharray:none;stroke-linecap:square;fill:none;fill-opacity:1;fill-rule: evenodd"/>
<path id="Slice_child1_cs_w0002"  d="M -1.77798818125 -49.55 Q -2.051965621822055 -49.58987730498013 -2.0899999 -49.86201171875 L -2.0899999 -53.744580078125 Q -2.04767729429658 -54.01227623518938 -1.77798818125 -54.05 L -0.602451071875 -54.05 Q -0.12480471907615809 -54.02247781476403 0.22591806874999998 -53.767724609374994 Q 0.5560589391880124 -53.52296541338546 0.6961329125 -53.15791015625 L 0.7796290062499995 -52.69208984375 L 0.746670021875 -52.38447265625 Q 0.6554686435733124 -51.95782196607224 0.324795021875 -51.6154296875 Q 0.6278420321465954 -51.336100867744854 0.7137110375 -50.97822265625 L 0.746670021875 -50.71015625 L 0.746670021875 -50.694775390625 L 0.68294931875 -50.32783203125 L 0.2884668968749997 -49.802685546875 Q -0.0066369646742941435 -49.58150944154401 -0.413486228125 -49.55 L -1.77798818125 -49.55 " stroke="#191919" stroke-width="0.7 px" style="stroke-width:0.7;stroke-miterlimit:4;stroke-dasharray:none;stroke-linecap:square;fill:none;fill-opacity:1;fill-rule: evenodd"/>
<path id="Slice_child1_cs_w0003"  d="M 1.901611130101776 -67.12767486572265 Q 1.5564969860623836 -66.72014254468888 1.018310348851776 -66.72000885009766 L 0.475585739476776 -66.86942291259766 Q -0.07526764203768405 -67.2004878843172 -0.29785176052322393 -67.84720611572266 Q -0.49944182023201883 -68.39827650680752 -0.5000001980232239 -68.98099517822266 L -0.49121113552322393 -69.22928619384766 Q -0.4413475324479085 -69.92675338083583 -0.08471699489822393 -70.51468658447266 Q 0.2694857423850879 -71.09096603134262 0.9348142551017758 -71.20902252197266 L 1.119384567601776 -71.22440338134766 L 1.681884567601776 -71.04422760009766 L 2.215820114476776 -70.47293853759766 Q 2.530516580905455 -69.9227492870526 2.576171676976776 -69.27762603759766 L 2.584960739476776 -69.02274322509766 L 2.422363083226776 -68.01419830322266 L 1.901611130101776 -67.12767486572267 " stroke="#191919" stroke-width="0.7 px" style="stroke-width:0.7;stroke-miterlimit:4;stroke-dasharray:none;stroke-linecap:square;fill:none;fill-opacity:1;fill-rule: evenodd"/>
<path id="Slice_child1_cs_w0004"  d="M 3.486425583226775 -71.21561431884766 Q 3.7643790505540524 -71.20837899722136 3.7830564426017745 -70.90799713134766 L 3.7830564426017745 -69.15677642822266 L 5.200292770726775 -69.15677642822266 Q 5.503990459116718 -69.11314982612731 5.507909958226776 -68.84256744384766 Q 5.504976567500737 -68.56018126631045 5.200292770726776 -68.53934478759766 L 3.7830564426017745 -68.53934478759766 L 3.7830564426017745 -67.33744049072266 L 5.600195114476775 -67.33744049072266 Q 5.907259136881883 -67.31854485713592 5.910009567601776 -67.03099517822267 Q 5.907639756631115 -66.74355459372725 5.604589645726776 -66.72000885009767 L 3.477636520726776 -66.72000885009766 Q 3.204364709193684 -66.74401268670502 3.165624801976776 -67.03202056884766 L 3.165624801976775 -70.90799713134766 Q 3.20710913593544 -71.21171020736386 3.4776365207267763 -71.21561431884766 L 3.486425583226776 -71.21561431884766 " stroke="#191919" stroke-width="0.7 px" style="stroke-width:0.7;stroke-miterlimit:4;stroke-dasharray:none;stroke-linecap:square;fill:none;fill-opacity:1;fill-rule: evenodd"/>
<path id="Slice_child1_cs_w0005"  d="M 6.842675583226776 -71.21561431884766 Q 7.120629050554058 -71.20837899722133 7.139306442601778 -70.90799713134766 L 7.139306442601778 -69.15677642822266 L 8.556542770726775 -69.15677642822266 Q 8.8602404591167 -69.11314982612734 8.864159958226775 -68.84256744384766 Q 8.861226567500747 -68.56018126631048 8.556542770726775 -68.53934478759766 L 7.139306442601778 -68.53934478759766 L 7.139306442601778 -67.33744049072266 L 8.956445114476775 -67.33744049072266 Q 9.26350913688189 -67.31854485713592 9.266259567601775 -67.03099517822267 Q 9.263889756631137 -66.74355459372725 8.960839645726775 -66.72000885009766 L 6.833886520726778 -66.72000885009766 Q 6.560614709193698 -66.74401268670502 6.521874801976777 -67.03202056884766 L 6.521874801976778 -70.90799713134766 Q 6.563359135935422 -71.21171020736384 6.833886520726777 -71.21561431884766 L 6.842675583226777 -71.21561431884766 " stroke="#191919" stroke-width="0.7 px" style="stroke-width:0.7;stroke-miterlimit:4;stroke-dasharray:none;stroke-linecap:square;fill:none;fill-opacity:1;fill-rule: evenodd"/>
<path id="Slice_child1_cs_w0006"  d="M 15.904942353020068 -42.882964262402844 L 14.762843646979919 -42.882964262402844 L 14.762843646979919 -50.0127090571684 A 5.88548 5.88548 0 0 1 10.5053 -52.5053L 3.236981606565773 -48.30891068144807 L 2.73698160656577 -49.17493608523252 L 10.005347834919597 -53.371329283741375 A 5.88548 5.88548 0 0 1 10.0053 -58.3695L 3.8338929999999998 -61.93259382649108 L 3.8338930000000007 -65.93259382649107 L 4.833893000000001 -65.93259382649107 L 4.833893000000001 -62.509944095680694 L 10.505347834919597 -59.23552812004307 A 5.88548 5.88548 0 0 1 20.1624 -59.2355L 26.264798341475387 -62.75872741057675 L 26.264798341475387 -65.93259382649107 L 27.264798341475387 -65.93259382649107 L 27.264798341475387 -62.181377141387124 L 20.66243816508041 -58.36950271625862 A 5.88548 5.88548 0 0 1 20.6624 -53.3713L 26.69226693370485 -49.89000602100868 L 26.19226693370485 -49.02398061722424 L 20.162438165080403 -52.50530387995692 A 5.88548 5.88548 0 0 1 15.9049 -50.0127L 15.904942353020068 -42.882964262402844 " stroke="#191919" stroke-width="0.7 px" style="stroke-width:0.7;stroke-miterlimit:4;stroke-dasharray:none;stroke-linecap:square;fill:none;fill-opacity:1;fill-rule: evenodd"/>
<path id="Slice_child1_cs_w0007"  d="M -0.8027635718750004 -48.97000000000001 Q -0.534124957473447 -48.965901972120896 -0.48635732187500036 -48.66238281250001 L -0.48635732187500036 -45.08962890625001 L 0.31784189687499964 -45.08962890625001 Q 0.6208157902434697 -45.06832957483204 0.6232618187499996 -44.78201171875001 Q 0.6209620997921657 -44.493620511791086 0.31784189687499964 -44.47000000000001 L -1.9123827125000004 -44.47000000000001 Q -2.2173582232373734 -44.495462388206484 -2.2199999000000004 -44.78201171875001 Q -2.217212614312222 -45.06648125547242 -1.9123827125000004 -45.08962890625001 L -1.1059862281250004 -45.08962890625001 L -1.1059862281250004 -48.66238281250001 Q -1.0832746470060224 -48.96246403333112 -0.8093553687500005 -48.97000000000001 L -0.8027635718750004 -48.97000000000001 " stroke="#191919" stroke-width="0.7 px" style="stroke-width:0.7;stroke-miterlimit:4;stroke-dasharray:none;stroke-linecap:square;fill:none;fill-opacity:1;fill-rule: evenodd"/>
<path id="Slice_child1_cs_w0008"  d="M -1.1210545875000002 -41.035751953125 L -1.1452245093750002 -41.024765625 L -1.1693944312500002 -41.010556640625 L -1.1891698218750002 -40.996201171875 Q -1.3871087110919367 -40.861557823734174 -1.4176854468750002 -40.618271484375 L -1.4220799781250002 -40.5413671875 L -1.3385838843750002 -40.2601171875 Q -1.182439056564681 -40.010026711171164 -0.8881444312500002 -40.005234375 L -0.6859959937500002 -40.011826171875 L -0.5431737281250002 -40.03599609375 L -0.44327138437500024 -40.07232421875 L -0.3498143531250002 -40.12388671875 L -0.16861318125000047 -40.34478515625 L -0.0465916968750002 -40.605087890625 L 0.1621485374999998 -40.780869140625 L 0.2390528343749998 -40.789658203125 L 0.4126368187499998 -40.732529296875 L 0.4587793968749998 -40.692978515625 L 0.5137110374999998 -40.609482421875 L 0.5444727562499998 -40.486435546875 L 0.5356836937499998 -40.41392578125 L 0.5159083031249998 -40.356796875 L 0.2500391624999998 -39.866806640625 L -0.1740331031250002 -39.510849609375 L -0.39595693125 -39.43951171875 L -0.6244725562500002 -39.396591796875 L -0.8661717750000002 -39.39 Q -1.4397342872618324 -39.390531962756484 -1.7934178687500002 -39.8382421875 Q -2.0394050721012036 -40.14686259298688 -2.041708884375 -40.51939453125 L -2.041708884375 -40.525986328125 L -1.9977635718750002 -40.846787109375 Q -1.865646527919221 -41.344449011020714 -1.3781346656250002 -41.59605468750001 L -1.3451756812500002 -41.6136328125 L -0.3278416968750002 -42.059677734375 L -0.1608495093750002 -42.16294921875 L 0.0303125999999998 -42.48814453125 L 0.0500879906249998 -42.644150390625 L 0.0083399437499998 -42.8616796875 Q -0.15233812241467148 -43.26407223885678 -0.5827245093750002 -43.2659765625 L -0.6618260718750002 -43.2659765625 L -1.3144139625000002 -43.18248046875 Q -1.596944434652273 -43.05912255301027 -1.681357321875 -42.61338867187499 L -1.6879491187500002 -42.59361328125 L -1.9296483375000002 -42.37828125 L -1.9911717750000002 -42.37388671875 L -2.20650380625 -42.47056640625 L -2.2899999 -42.679306640625 L -2.283408103125 -42.749619140625 L -2.252646384375 -42.903427734375 L -2.213095603125 -43.052841796875 Q -2.0358589622627905 -43.59793556627207 -1.55171865 -43.75274414062499 L -0.5783299781250003 -43.883408203125 L 0.0083399437499998 -43.733994140625 L 0.44662119375 -43.34185546875 L 0.6565333031249998 -42.789169921875 L 0.6653223656249998 -42.641953125 L 0.6389551781249998 -42.38267578125 Q 0.5343946209216348 -41.87676808637269 0.1006250999999998 -41.59166015625 L 0.06429697499999953 -41.570859375 L 0.0303125999999998 -41.549912109375 L -0.004843650000000199 -41.53013671875 L -0.0443944312500002 -41.510361328125 L -0.0795506812500002 -41.49498046875 L -1.0946874000000002 -41.04673828125 L -1.1210545875000002 -41.035751953125 " stroke="#191919" stroke-width="0.7 px" style="stroke-width:0.7;stroke-miterlimit:4;stroke-dasharray:none;stroke-linecap:square;fill:none;fill-opacity:1;fill-rule: evenodd"/>
<path id="Slice_child1_cs_w0009"  d="M 12.03201181875 -32.71000000000001 Q 11.758034378177939 -32.74987730498016 11.7200001 -33.02201171875001 L 11.7200001 -36.90458007812501 Q 11.762322705703411 -37.1722762351894 12.03201181875 -37.21000000000001 L 13.207548928125 -37.21000000000001 Q 13.685195280923804 -37.18247781476405 14.03591806875 -36.927724609375005 Q 14.366058939188012 -36.68296541338547 14.5061329125 -36.31791015625001 L 14.58962900625 -35.85208984375001 L 14.556670021875 -35.54447265625001 Q 14.465468643573299 -35.11782196607224 14.134795021875 -34.77542968750001 Q 14.437842032146612 -34.49610086774483 14.5237110375 -34.13822265625001 L 14.556670021875 -33.87015625000001 L 14.556670021875 -33.85477539062501 L 14.49294931875 -33.48783203125001 L 14.098466896875 -32.96268554687501 Q 13.803363035325685 -32.74150944154401 13.396513771875 -32.71000000000001 L 12.03201181875 -32.71000000000001 " stroke="#191919" stroke-width="0.7 px" style="stroke-width:0.7;stroke-miterlimit:4;stroke-dasharray:none;stroke-linecap:square;fill:none;fill-opacity:1;fill-rule: evenodd"/>
<path id="Slice_child1_cs_w0010"  d="M 15.7846485375 -33.02201171875001 Q 15.73947505370714 -32.71462774610076 15.47263681875 -32.71000000000001 L 15.470439553125 -32.71000000000001 Q 15.205667939909427 -32.71477265083196 15.1606251 -33.02201171875001 L 15.1606251 -36.90677734375001 Q 15.20611787907474 -37.21017064556115 15.47263681875 -37.21439453125001 L 15.474834084375 -37.21439453125001 Q 15.739288706276826 -37.210027817717574 15.7846485375 -36.90677734375001 L 15.7846485375 -33.02201171875001 " stroke="#191919" stroke-width="0.7 px" style="stroke-width:0.7;stroke-miterlimit:4;stroke-dasharray:none;stroke-linecap:square;fill:none;fill-opacity:1;fill-rule: evenodd"/>
<path id="Slice_child1_cs_w0011"  d="M 17.7599610375 -75.83000000000001 L 15.3966797875 -75.83000000000001 Q 15.09505552922148 -75.85244525736186 15.0500001 -76.17179687500001 L 15.0500001 -80.48332031250001 Q 15.091965052835707 -80.79000020426454 15.3966797875 -80.83000000000001 L 17.7599610375 -80.83000000000001 Q 18.09843768386282 -80.78495971662963 18.104199318750002 -80.48820312500001 Q 18.0984185120423 -80.19137180813055 17.759961037500002 -80.14396484375001 L 15.73603525625 -80.14396484375001 L 15.73603525625 -78.53996093750001 L 17.27900400625 -78.53996093750001 Q 17.62004259228798 -78.49477392440346 17.625683693750002 -78.19328125000001 Q 17.619830050405255 -77.89397658360767 17.279004006250002 -77.84660156250001 L 15.73603525625 -77.84660156250001 L 15.73603525625 -76.51115234375001 L 17.7599610375 -76.51115234375001 Q 18.100507365469134 -76.4904173275242 18.104199318750002 -76.17179687500001 Q 18.10030128464942 -75.8553187333736 17.759961037500002 -75.83000000000001 " stroke="#191919" stroke-width="0.7 px" style="stroke-width:0.7;stroke-miterlimit:4;stroke-dasharray:none;stroke-linecap:square;fill:none;fill-opacity:1;fill-rule: evenodd"/>
<path id="Slice_child1_cs_w0012"  d="M 20.624869891666666 -80.16349609375001 L 20.44908864166667 -80.13664062500001 Q 19.97353871593658 -79.96429800953682 19.70934254791667 -79.43839843750001 Q 19.457963379397743 -78.95889175122815 19.46031911041667 -78.39835937500001 L 19.460319110416666 -78.29582031250001 L 19.488313902083334 -77.96623046875001 L 19.67516286041667 -77.35832031250001 L 20.07311207916667 -76.75773437500001 Q 20.308434093209506 -76.52539453171025 20.61510426666667 -76.50871093750001 L 20.63707692291667 -76.50871093750001 Q 20.958986036143813 -76.52691630186455 21.244987079166673 -76.87492187500001 L 21.50621754791667 -76.99943359375001 L 21.59166676666667 -76.98722656250001 L 21.83336598541667 -76.76750000000001 L 21.85778004791667 -76.62231770833333 L 21.78697926666667 -76.44767578125001 L 21.77477223541667 -76.43058593750001 Q 21.50650576541909 -76.11313178986182 21.10094411041667 -75.94230468750001 L 20.57115895416667 -75.82755859375001 L 20.28795582916667 -75.86173828125001 Q 19.568902984300745 -76.03699610798387 19.19908864166667 -76.68937500000001 Q 18.774811495839444 -77.44590561141794 18.779166766666666 -78.32755859375 Q 18.781968580904902 -79.01231007142982 19.033073016666666 -79.65080078125001 Q 19.29933242606821 -80.35379157811359 19.931510516666666 -80.68595703125001 L 20.50279957916667 -80.83732421875001 L 21.00084645416667 -80.75675781250001 Q 21.540569542949367 -80.56749703150277 21.87975270416667 -80.11222656250001 L 21.90172536041667 -80.08048828125001 L 22.00182301666667 -79.82414062500001 L 21.86998707916667 -79.60929687500001 L 21.62340504791667 -79.50919921875001 L 21.36461598541667 -79.64591796875001 Q 21.056200713046838 -80.12796097646873 20.62486989166667 -80.16349609375003 " stroke="#191919" stroke-width="0.7 px" style="stroke-width:0.7;stroke-miterlimit:4;stroke-dasharray:none;stroke-linecap:square;fill:none;fill-opacity:1;fill-rule: evenodd"/>
<circle cx="26.302277" cy="-83.610572" r="2.0" stroke="#191919" stroke-width="0.7 px" style="stroke-width:0.7;stroke-miterlimit:4;stroke-dasharray:none;stroke-linecap:square;fill:none"/>
<path id="Slice_child1_cs_w0014"  d="M 26.242220152083334 -76.17667968750001 Q 26.222362495226456 -75.90212234675435 25.995638120833338 -75.84220703125001 L 25.905306089583334 -75.83000000000001 L 25.605013120833334 -75.99601562500001 L 24.418489683333334 -78.01505859375001 L 23.244173277083334 -75.99601562500001 L 22.941438902083334 -75.83000000000001 L 22.926790464583334 -75.83000000000001 L 22.848665464583334 -75.83976562500001 Q 22.619823875313088 -75.90413074936572 22.602083433333334 -76.17667968750001 L 22.602083433333334 -80.48820312500001 Q 22.62522385802952 -80.82157303962953 22.936556089583334 -80.82511718750001 L 22.941438902083334 -80.82511718750001 Q 23.255320459722086 -80.82171655660329 23.293001402083334 -80.48820312500001 L 23.290559995833334 -77.44621093750001 L 24.123079527083334 -78.87199218750001 L 24.403841245833334 -79.04044921875001 L 24.418489683333334 -79.04044921875001 L 24.716341245833334 -78.87199218750001 L 25.553743589583334 -77.43888671875001 L 25.553743589583334 -80.48820312500001 Q 25.60135699817571 -80.82448051086786 25.897981870833334 -80.83000000000001 L 25.905306089583334 -80.83000000000001 Q 26.192918467572845 -80.8237103096148 26.242220152083334 -80.48820312500001 L 26.242220152083334 -76.17667968750001 " stroke="#191919" stroke-width="0.7 px" style="stroke-width:0.7;stroke-miterlimit:4;stroke-dasharray:none;stroke-linecap:square;fill:none;fill-opacity:1;fill-rule: evenodd"/>
<path id="Slice_child1_cs_w0015"  d="M 23.821845803125 -69.425732421875 L 23.86359385 -69.419140625 Q 24.382317677235044 -69.3185146643022 24.689765725 -68.87421875 Q 24.926813663804673 -68.53602930567166 24.929267678125 -68.146923828125 L 24.929267678125 -68.14033203125 L 24.907295021875 -67.907421875 Q 24.820221113625358 -67.42852459751035 24.45685556875 -67.11318359374998 Q 24.091221113846927 -66.79939891159123 23.602119240625 -66.8 L 22.2376172875 -66.8 L 22.018916115625004 -66.890087890625 L 21.9300001 -67.1076171875 L 21.9300001 -70.990185546875 L 22.050849709375 -71.23408203125 L 22.23322275625 -71.302197265625 L 22.376045021875 -71.26484375 Q 22.549431583023384 -71.18132047060732 22.54962900625 -70.990185546875 L 22.54962900625 -69.443310546875 L 23.0989454125 -69.443310546875 L 24.182197365625 -71.15498046875 L 24.3821485375 -71.2912109375 L 24.44806650625 -71.297802734375 L 24.626045021875 -71.240673828125 L 24.760078225 -71.00556640625 L 24.705146584375 -70.823193359375 L 23.821845803125 -69.425732421875 " stroke="#191919" stroke-width="0.7 px" style="stroke-width:0.7;stroke-miterlimit:4;stroke-dasharray:none;stroke-linecap:square;fill:none;fill-opacity:1;fill-rule: evenodd"/>
<path id="Slice_child1_cs_w0016"  d="M 25.511250099999998 -67.1076171875 L 25.511250099999998 -70.990185546875 Q 25.546420904568627 -71.29622947369452 25.821064553125 -71.3 Q 26.09575881116858 -71.2962177535845 26.133076271874998 -70.990185546875 L 26.133076271874998 -69.38837890625 L 27.200947365624998 -69.38837890625 L 27.2426954125 -69.386181640625 Q 27.62990971394673 -69.36317522713782 27.939228615625 -69.15444335937498 Q 28.247867286214003 -68.94246711882337 28.400654396875 -68.57978515625 L 28.49953135 -68.10517578125 L 28.405048928125 -67.628369140625 Q 28.219102447012347 -67.14486936844929 27.761250099999994 -66.92744140625 L 27.242695412499998 -66.8 L 25.8012891625 -66.8 Q 25.543730623546807 -66.83665849206037 25.5112501 -67.1076171875 " stroke="#191919" stroke-width="0.7 px" style="stroke-width:0.7;stroke-miterlimit:4;stroke-dasharray:none;stroke-linecap:square;fill:none;fill-opacity:1;fill-rule: evenodd"/>
<path id="Slice_child1_cs_w0017"  d="M 30.476337990625 -71.3 Q 30.74497660502653 -71.2959019721209 30.792744240625 -70.9923828125 L 30.792744240625 -67.41962890625 L 31.596943459375 -67.41962890625 Q 31.899917352743472 -67.39832957483202 31.90236338125 -67.11201171875 Q 31.900063662292183 -66.82362051179106 31.596943459375 -66.8 L 29.36671885 -66.8 Q 29.061743339262627 -66.82546238820646 29.0591016625 -67.11201171875 Q 29.061888948187814 -67.39648125547242 29.36671885 -67.41962890625 L 30.173115334374998 -67.41962890625 L 30.173115334374998 -70.9923828125 Q 30.195826915493996 -71.29246403333113 30.46974619375 -71.3 L 30.476337990625 -71.3 " stroke="#191919" stroke-width="0.7 px" style="stroke-width:0.7;stroke-miterlimit:4;stroke-dasharray:none;stroke-linecap:square;fill:none;fill-opacity:1;fill-rule: evenodd"/>
<path id="Slice_child1_cs_w0018"  d="M 28.108095803125 -54.81027343750001 Q 28.200731082627982 -55.028267522392014 28.406923928125 -55.03000000000001 L 28.40912119375 -55.03000000000001 Q 28.617682237503892 -55.027996151887265 28.7035547875 -54.80148437500001 L 29.749453225 -50.91891601562501 L 29.760439553125 -50.81564453125001 Q 29.759068354660016 -50.6080116949649 29.538515725 -50.54318359375001 L 29.42865244375 -50.52560546875001 Q 29.236683535120818 -50.528559162098404 29.151796975 -50.75851562500001 L 28.406923928125 -53.52707031250001 L 27.6664454125 -50.78488281250001 Q 27.579552583848074 -50.55289759380196 27.387392678125003 -50.54977539062501 L 27.290712990625 -50.56295898437501 Q 27.062323995832415 -50.6229411745761 27.0600001 -50.86398437500001 L 27.066591896875 -50.94528320312501 L 28.108095803125 -54.81027343750001 " stroke="#191919" stroke-width="0.7 px" style="stroke-width:0.7;stroke-miterlimit:4;stroke-dasharray:none;stroke-linecap:square;fill:none;fill-opacity:1;fill-rule: evenodd"/>
<path id="Slice_child1_cs_w0019"  d="M 17.763212990625 -37.21000000000001 Q 18.03185160502656 -37.20590197212087 18.079619240625 -36.90238281250001 L 18.079619240625 -33.32962890625001 L 18.883818459375 -33.32962890625001 Q 19.186792352743467 -33.30832957483203 19.18923838125 -33.02201171875001 Q 19.186938662292185 -32.73362051179109 18.883818459375 -32.71000000000001 L 16.65359385 -32.71000000000001 Q 16.348618339262615 -32.7354623882065 16.3459766625 -33.02201171875001 Q 16.348763948187788 -33.30648125547242 16.65359385 -33.32962890625001 L 17.459990334375 -33.32962890625001 L 17.459990334375 -36.90238281250001 Q 17.48270191549397 -37.202464033331125 17.75662119375 -37.21000000000001 L 17.763212990625 -37.21000000000001 " stroke="#191919" stroke-width="0.7 px" style="stroke-width:0.7;stroke-miterlimit:4;stroke-dasharray:none;stroke-linecap:square;fill:none;fill-opacity:1;fill-rule: evenodd"/>
<path id="Slice_child1_cs_w0020"  d="M 28.421132912500003 -49.33014648437501 L 28.262929787500003 -49.30597656250001 Q 27.837757274640325 -49.153652400793064 27.597158303125003 -48.67755859375001 Q 27.371123493980456 -48.24694599154121 27.373037209375003 -47.74152343750001 L 27.373037209375003 -47.64923828125001 L 27.398232521875002 -47.35260742187501 L 27.566396584375 -46.80548828125001 L 27.924550881250003 -46.26496093750001 Q 28.136856133706367 -46.05558836505415 28.412343850000003 -46.04083984375001 L 28.432119240625003 -46.04083984375001 Q 28.718406695362063 -46.055062247123516 28.979238381250003 -46.37042968750001 L 29.214345803125003 -46.48249023437501 L 29.291250100000003 -46.47150390625001 L 29.508779396875003 -46.27375000000001 L 29.530752053125003 -46.143085937500004 L 29.467031350000003 -45.98590820312501 L 29.456045021875003 -45.97052734375001 L 28.849599709375003 -45.53107421875001 L 28.372793068750003 -45.42780273437501 L 28.117910256250003 -45.45856445312501 Q 27.471163463051937 -45.61585262433151 27.137929787500003 -46.20343750000001 Q 26.756300423778498 -46.88334249677524 26.760000100000003 -47.67780273437501 Q 26.762496988444646 -48.293999664684165 26.988515725000003 -48.86872070312501 Q 27.229584868585675 -49.50319041152454 27.797109475000003 -49.80036132812501 L 28.311269631250003 -49.93659179687501 L 28.759511818750003 -49.86408203125001 Q 29.245456764828212 -49.693647490866255 29.550527443750003 -49.28400390625001 L 29.570302834375003 -49.25543945312501 L 29.660390725000003 -49.02472656250001 L 29.541738381250003 -48.83136718750001 L 29.319814553125003 -48.74127929687501 L 29.086904396875003 -48.86432617187501 Q 28.804595094752393 -49.301678918473684 28.421132912500003 -49.33014648437501 " stroke="#191919" stroke-width="0.7 px" style="stroke-width:0.7;stroke-miterlimit:4;stroke-dasharray:none;stroke-linecap:square;fill:none;fill-opacity:1;fill-rule: evenodd"/>
<path id="Slice_child1_cs_w0021"  d="M 28.651845803125003 -42.80573242187501 L 28.693593850000003 -42.79914062500001 Q 29.21231767723517 -42.69851466430215 29.519765725000003 -42.25421875000001 Q 29.756813663804678 -41.91602930567167 29.759267678125003 -41.52692382812501 L 29.759267678125003 -41.52033203125001 L 29.737295021875003 -41.28742187500001 Q 29.650221113625364 -40.80852459751036 29.286855568750003 -40.493183593750004 Q 28.92122111384687 -40.1793989115912 28.432119240625003 -40.18000000000001 L 27.067617287500003 -40.18000000000001 L 26.848916115625002 -40.27008789062501 L 26.7600001 -40.48761718750001 L 26.760000100000003 -44.37018554687501 L 26.880849709375003 -44.61408203125001 L 27.063222756250003 -44.68219726562501 L 27.206045021875003 -44.64484375000001 Q 27.379431583023404 -44.56132047060733 27.379629006250003 -44.37018554687501 L 27.379629006250003 -42.82331054687501 L 27.928945412500003 -42.82331054687501 L 29.012197365625003 -44.53498046875001 L 29.212148537500003 -44.67121093750001 L 29.278066506250003 -44.67780273437501 L 29.456045021875003 -44.62067382812501 L 29.590078225000003 -44.38556640625001 L 29.535146584375003 -44.20319335937501 L 28.651845803125003 -42.80573242187501 " stroke="#191919" stroke-width="0.7 px" style="stroke-width:0.7;stroke-miterlimit:4;stroke-dasharray:none;stroke-linecap:square;fill:none;fill-opacity:1;fill-rule: evenodd"/>
<path id="Slice_child1_cs_w0022"  d="M 18.61520532689629 21.321785 A 2 2 0 0 1 22.5517 21.8218A 2 2 0 0 1 18.6152 22.3218L -4.5070000000000014 22.321785 L -4.507 69.256 A 1 1 0 0 0 -3.507 70.256L 18.877900000000004 70.256 C 23.361451684627532 53.88037566868871 26.747826684627547 37.281084002022084 29.037025000000007 20.45812499999999 C 31.256729872709577 4.658392345507173 32.31747919471091 -11.272617458738221 33.46219244648396 -27.178215000052305 L -4.506999999999998 -27.178215 L -4.507 21.321785000000002 L 18.615205326896294 21.321785 " stroke="#191919" stroke-width="0.7 px" style="stroke-width:0.7;stroke-miterlimit:4;stroke-dasharray:none;stroke-linecap:square;fill:none;fill-opacity:1;fill-rule: evenodd"/>
<path id="Slice_child1_cs_w0023"  d="M 1.6016114281249996 -21.897666015625 Q 1.2564972840855804 -21.490133694591233 0.7183106468749996 -21.490000000000002 L 0.17558603749999968 -21.6394140625 Q -0.3752673440144219 -21.970479034219494 -0.5978514625000003 -22.617197265625 Q -0.7994415222087898 -23.168267656709837 -0.7999999000000003 -23.750986328125 L -0.7912108375000003 -23.99927734375 Q -0.7413472344246737 -24.696744530738204 -0.3847166968750003 -25.284677734375002 Q -0.030513959591786766 -25.860957181244892 0.6348145531249995 -25.979013671875 L 0.8193848656249995 -25.99439453125 L 1.3818848656249996 -25.81421875 L 1.9158204124999996 -25.2429296875 Q 2.2305168789286753 -24.69274043695495 2.2761719749999996 -24.0476171875 L 2.2849610374999996 -23.792734375 L 2.1223633812499996 -22.784189453125 L 1.6016114281249996 -21.897666015625 " stroke="#191919" stroke-width="0.7 px" style="stroke-width:0.7;stroke-miterlimit:4;stroke-dasharray:none;stroke-linecap:square;fill:none;fill-opacity:1;fill-rule: evenodd"/>
<path id="Slice_child1_cs_w0024"  d="M 3.1864258812499986 -25.98560546875 Q 3.464379348577288 -25.97837014712369 3.483056740624999 -25.67798828125 L 3.483056740624998 -23.926767578125 L 4.900293068749998 -23.926767578125 Q 5.203990757139936 -23.883140976029672 5.207910256249999 -23.61255859375 Q 5.204976865523985 -23.330172416212818 4.900293068749999 -23.3093359375 L 3.483056740624998 -23.3093359375 L 3.483056740624998 -22.107431640625 L 5.300195412499998 -22.107431640625 Q 5.607259434905123 -22.088536007038275 5.610009865624999 -21.800986328125 Q 5.607640054654345 -21.5135457436296 5.304589943749999 -21.49 L 3.1776368187499995 -21.49 Q 2.9043650072169207 -21.514003836607372 2.8656250999999986 -21.80201171875 L 2.8656250999999986 -25.67798828125 Q 2.9071094339586674 -25.981701357266225 3.177636818749999 -25.98560546875 L 3.186425881249999 -25.98560546875 " stroke="#191919" stroke-width="0.7 px" style="stroke-width:0.7;stroke-miterlimit:4;stroke-dasharray:none;stroke-linecap:square;fill:none;fill-opacity:1;fill-rule: evenodd"/>
<path id="Slice_child1_cs_w0025"  d="M 6.542675881249999 -25.98560546875 Q 6.820629348577286 -25.97837014712369 6.839306740625001 -25.67798828125 L 6.839306740625001 -23.926767578125 L 8.25654306875 -23.926767578125 Q 8.560240757139951 -23.883140976029658 8.56416025625 -23.61255859375 Q 8.56122686552401 -23.330172416212847 8.25654306875 -23.3093359375 L 6.839306740625001 -23.3093359375 L 6.839306740625001 -22.107431640625 L 8.6564454125 -22.107431640625 Q 8.963509434905117 -22.08853600703828 8.966259865625 -21.800986328125003 Q 8.963890054654371 -21.513545743629617 8.66083994375 -21.490000000000002 L 6.533886818750001 -21.49 Q 6.260615007216919 -21.514003836607372 6.2218751 -21.80201171875 L 6.221875100000001 -25.67798828125 Q 6.263359433958676 -25.98170135726624 6.53388681875 -25.98560546875 L 6.54267588125 -25.98560546875 " stroke="#191919" stroke-width="0.7 px" style="stroke-width:0.7;stroke-miterlimit:4;stroke-dasharray:none;stroke-linecap:square;fill:none;fill-opacity:1;fill-rule: evenodd"/>
<path id="Slice_child1_cs_w0026"  d="M 22.771845803125 -24.175732421875 L 22.81359385 -24.169140625 Q 23.332317677235174 -24.068514664302143 23.639765725 -23.62421875 Q 23.87681366380467 -23.286029305671676 23.879267678125 -22.896923828125 L 23.879267678125 -22.89033203125 L 23.857295021875 -22.657421875 Q 23.770221113625354 -22.17852459751035 23.40685556875 -21.86318359375 Q 23.041221113846866 -21.549398911591187 22.552119240625 -21.550000000000004 L 21.1876172875 -21.55 L 20.968916115625 -21.640087890625 L 20.880000099999997 -21.8576171875 L 20.8800001 -25.740185546875 L 21.000849709375 -25.98408203125 L 21.18322275625 -26.052197265625 L 21.326045021875 -26.01484375 Q 21.499431583023387 -25.931320470607325 21.49962900625 -25.740185546875 L 21.49962900625 -24.193310546875 L 22.0489454125 -24.193310546875 L 23.132197365625 -25.90498046875 L 23.3321485375 -26.0412109375 L 23.39806650625 -26.047802734375 L 23.576045021875 -25.990673828125 L 23.710078225 -25.75556640625 L 23.655146584375 -25.573193359375 L 22.771845803125 -24.175732421875 " stroke="#191919" stroke-width="0.7 px" style="stroke-width:0.7;stroke-miterlimit:4;stroke-dasharray:none;stroke-linecap:square;fill:none;fill-opacity:1;fill-rule: evenodd"/>
<path id="Slice_child1_cs_w0027"  d="M 26.65412119375 -21.5763671875 Q 26.445960949360398 -21.584508879972482 26.353095803125 -21.80048828125 L 25.584052834375 -24.4328125 L 25.076484475 -21.80048828125 Q 24.983681866720026 -21.553780500692596 24.779853615625 -21.55 L 24.762275490625 -21.55 L 24.71173838125 -21.55439453125 Q 24.458515819534597 -21.608315152582243 24.4612501 -21.916943359375 L 25.22150400625 -25.797314453125 Q 25.304878585277358 -26.032198707844827 25.5159376 -26.05 L 25.540107521875 -26.05 Q 25.73382509809894 -26.047652304675374 25.825752053125 -25.828076171875 L 26.6497266625 -22.993603515625 L 27.48029306875 -25.828076171875 Q 27.57068082482077 -26.048190433660814 27.776923928125 -26.05 L 27.7923047875 -26.05 Q 28.0096505242251 -26.03888678700153 28.080146584375 -25.797314453125 L 28.840400490625 -21.916943359375 L 28.84259775625 -21.872998046875 Q 28.84043349374563 -21.610470426933972 28.592109475 -21.5587890625 L 28.5130079125 -21.55 Q 28.305648604907475 -21.553273669131862 28.2317579125 -21.80048828125 L 27.71759775625 -24.42841796875 L 26.9485547875 -21.80048828125 Q 26.867109030072676 -21.57841558585175 26.6673047875 -21.5763671875 L 26.65412119375 -21.5763671875 " stroke="#191919" stroke-width="0.7 px" style="stroke-width:0.7;stroke-miterlimit:4;stroke-dasharray:none;stroke-linecap:square;fill:none;fill-opacity:1;fill-rule: evenodd"/>
<path id="Slice_child1_cs_w0028"  d="M 31.162470803125 -24.175732421875 L 31.20421885 -24.169140625 Q 31.72294267723516 -24.068514664302157 32.030390725000004 -23.62421875 Q 32.26743866380467 -23.286029305671676 32.269892678125004 -22.896923828125 L 32.269892678125004 -22.89033203125 L 32.247920021875004 -22.657421875 Q 32.16084611362534 -22.178524597510314 31.797480568750004 -21.86318359375 Q 31.431846113846866 -21.549398911591187 30.942744240625 -21.550000000000004 L 29.5782422875 -21.55 L 29.359541115625 -21.640087890625 L 29.270625099999997 -21.8576171875 L 29.2706251 -25.740185546875 L 29.391474709375 -25.98408203125 L 29.573847756249997 -26.052197265625 L 29.716670021874997 -26.01484375 Q 29.890056583023416 -25.93132047060729 29.89025400625 -25.740185546874997 L 29.89025400625 -24.193310546875 L 30.4395704125 -24.193310546875 L 31.522822365625 -25.90498046875 L 31.7227735375 -26.0412109375 L 31.78869150625 -26.047802734375 L 31.966670021875 -25.990673828125 L 32.100703225000004 -25.75556640625 L 32.045771584375004 -25.573193359375 L 31.162470803125 -24.175732421875 " stroke="#191919" stroke-width="0.7 px" style="stroke-width:0.7;stroke-miterlimit:4;stroke-dasharray:none;stroke-linecap:square;fill:none;fill-opacity:1;fill-rule: evenodd"/>
<path id="Slice_child1_cs_w0029"  d="M -1.362763571875 -8.51 Q -1.0941249574734582 -8.505901972120885 -1.046357321875 -8.2023828125 L -1.046357321875 -4.62962890625 L -0.24215810312499997 -4.62962890625 Q 0.06081579024348491 -4.608329574832 0.06326181875000003 -4.32201171875 Q 0.06096209979218317 -4.03362051179108 -0.24215810312499997 -4.01 L -2.4723827125 -4.01 Q -2.777358223237381 -4.0354623882064775 -2.7799999 -4.32201171875 Q -2.777212614312222 -4.606481255472408 -2.4723827125 -4.62962890625 L -1.665986228125 -4.62962890625 L -1.665986228125 -8.2023828125 Q -1.643274647006041 -8.502464033331101 -1.36935536875 -8.51 L -1.362763571875 -8.51 " stroke="#191919" stroke-width="0.7 px" style="stroke-width:0.7;stroke-miterlimit:4;stroke-dasharray:none;stroke-linecap:square;fill:none;fill-opacity:1;fill-rule: evenodd"/>
<path id="Slice_child1_cs_w0030"  d="M -0.09933583749999997 1.09560546875 L -0.14767568124999997 1.097802734375 Q -0.3853678025759739 1.0966525413026957 -0.43112294687499997 0.8517089843750001 L -0.43551747812499997 0.7923828125000001 L -0.43551747812499997 -1.916845703125 L -0.5487499000000002 -2.338720703125 L -0.848603415625 -2.650732421875 L -1.310029196875 -2.7935546875 L -1.7165233375 -2.672705078125 Q -2.131316682901164 -2.4168220729525745 -2.16037099375 -1.9168457031249997 L -2.16037099375 0.7923828125000001 Q -2.160779812858184 1.0445275221439931 -2.40646474375 1.093408203125 L -2.48556630625 1.102197265625 Q -2.6691651840407777 1.1010812408742892 -2.755829978125 0.9110351562500001 L -2.7799999 0.7923828125000001 L -2.7799999 -1.960791015625 Q -2.7569364611851386 -2.6113339641241833 -2.3109569312500007 -3.0034667968749997 Q -1.8885738946205635 -3.3561790950278985 -1.358369040625 -3.382421875 L -1.2946483375 -3.384619140625 Q -0.7997465583890273 -3.3811966216449596 -0.37838857187499997 -3.08359375 Q 0.09651546011559697 -2.7319676745249732 0.17312510000000003 -2.0926269531249995 L 0.18191416250000003 -1.960791015625 L 0.18191416250000003 0.7923828125000001 Q 0.18076681053146776 1.0689352271056682 -0.09933583749999997 1.09560546875 " stroke="#191919" stroke-width="0.7 px" style="stroke-width:0.7;stroke-miterlimit:4;stroke-dasharray:none;stroke-linecap:square;fill:none;fill-opacity:1;fill-rule: evenodd"/>
<path id="Slice_child1_cs_w0031"  d="M -2.7674022437500003 1.69076171875 L -2.6421581031250003 1.666591796875 Q -2.4512644534053374 1.6681897597606206 -2.3499217750000003 1.868740234375 L -2.1301952125000003 2.48177734375 L -0.3570018531250003 2.486171875 L -0.13068349375000032 1.864345703125 Q -0.0044565914835214965 1.6580953182035487 0.18572275624999968 1.6556054687499995 L 0.19011728749999923 1.65560546875 L 0.2626270531249997 1.679775390625 Q 0.464775257047348 1.7375107573837894 0.4647754906249997 1.95443359375 L 0.4515918968749997 2.0730859375 L -0.9568553687500003 5.9578515625 Q -1.0292216083102135 6.159523883118581 -1.2381053687500005 6.16 L -1.2490916968750003 6.16 Q -1.4538050094734247 6.159367088637584 -1.525947165625 5.9578515625 L -2.9256053687500003 2.044521484375 L -2.9299999000000003 1.9742089843750001 L -2.7674022437500003 1.69076171875 " stroke="#191919" stroke-width="0.7 px" style="stroke-width:0.7;stroke-miterlimit:4;stroke-dasharray:none;stroke-linecap:square;fill:none;fill-opacity:1;fill-rule: evenodd"/>
<path id="Slice_child1_cs_w0032"  d="M -0.4200389624999996 19.72 L -2.7833202125 19.72 Q -3.084944470778516 19.69755474263816 -3.1299999 19.378203125 L -3.1299999 15.066679687499999 Q -3.088034947164288 14.759999795735467 -2.7833202125 14.719999999999999 L -0.4200389624999996 14.719999999999999 Q -0.08156231613718984 14.765040283370354 -0.07580068124999961 15.061796874999999 Q -0.08158148795768738 15.358628191869453 -0.4200389624999996 15.406035156249999 L -2.44396474375 15.406035156249999 L -2.44396474375 17.0100390625 L -0.9009959937499996 17.0100390625 Q -0.559957407712051 17.055226075596522 -0.5543163062499996 17.35671875 Q -0.5601699495947425 17.656023416392365 -0.9009959937499996 17.7033984375 L -2.44396474375 17.7033984375 L -2.44396474375 19.03884765625 L -0.4200389624999996 19.03884765625 Q -0.07949263453084277 19.059582672475827 -0.07580068124999961 19.378203125 Q -0.07969871535058659 19.69468126662644 -0.4200389624999996 19.72 " stroke="#191919" stroke-width="0.7 px" style="stroke-width:0.7;stroke-miterlimit:4;stroke-dasharray:none;stroke-linecap:square;fill:none;fill-opacity:1;fill-rule: evenodd"/>
<path id="Slice_child1_cs_w0033"  d="M 0.5918425479166669 15.032499999999999 L 0.7651823916666673 14.766386718749999 L 0.9385222354166669 14.717558593749999 L 1.2412566104166678 14.900664062499999 L 2.347213641666667 16.8928515625 L 3.465377704166667 14.900664062499999 L 3.753463641666668 14.712675781249999 L 3.9268034854166687 14.763945312499999 L 4.1074675479166665 15.039824218749999 L 4.063522235416668 15.232695312499999 L 2.745162860416668 17.5959765625 L 3.643600360416668 19.2073046875 L 3.682662860416668 19.397734375 L 3.506881610416668 19.67849609375 L 3.333541766666668 19.729765625 L 3.040573016666668 19.54421875 L 2.347213641666667 18.30154296875 L 1.6587370791666678 19.54421875 L 1.365768329166667 19.72732421875 L 1.1899870791666678 19.6760546875 L 1.014205829166667 19.4026171875 L 1.0557097354166678 19.20974609375 L 1.9565886416666678 17.5959765625 L 0.6357878604166673 15.232695312499999 L 0.5918425479166669 15.037382812499999 L 0.5918425479166669 15.032499999999999 " stroke="#191919" stroke-width="0.7 px" style="stroke-width:0.7;stroke-miterlimit:4;stroke-dasharray:none;stroke-linecap:square;fill:none;fill-opacity:1;fill-rule: evenodd"/>
<path id="Slice_child1_cs_w0034"  d="M 1.7116114305091856 27.41233940124512 Q 1.3664972864697615 27.819871722278886 0.8283106492591856 27.820005416870124 L 0.28558603988418574 27.670591354370124 Q -0.26526734163024507 27.339526382650618 -0.48785146011581426 26.69280815124512 Q -0.6894415198246036 26.14173776016029 -0.6899998976158143 25.55901908874512 L -0.6812108351158143 25.31072807312012 Q -0.6313472320404896 24.613260886131926 -0.27471669449081426 24.02532768249512 Q 0.07948604279246324 23.4490482356252 0.7448145555091855 23.33099174499512 L 0.9293848680091855 23.31561088562012 L 1.4918848680091856 23.49578666687012 L 2.0258204148841856 24.06707572937012 Q 2.3405168813128645 24.617264979915184 2.3861719773841856 25.26238822937012 L 2.3949610398841856 25.51727104187012 L 2.2323633836341856 26.52581596374512 L 1.7116114305091856 27.41233940124512 " stroke="#191919" stroke-width="0.7 px" style="stroke-width:0.7;stroke-miterlimit:4;stroke-dasharray:none;stroke-linecap:square;fill:none;fill-opacity:1;fill-rule: evenodd"/>
<path id="Slice_child1_cs_w0035"  d="M 3.2964258836341847 23.32439994812012 Q 3.574379350961469 23.331635269746428 3.593056743009184 23.63201713562012 L 3.593056743009184 25.38323783874512 L 5.010293071134185 25.38323783874512 Q 5.313990759524122 25.426864440840454 5.3179102586341855 25.69744682312012 Q 5.314976867908172 25.979833000657308 5.0102930711341855 26.00066947937012 L 3.593056743009184 26.00066947937012 L 3.593056743009184 27.20257377624512 L 5.410195414884185 27.20257377624512 Q 5.717259437289309 27.221469409831833 5.7200098680091855 27.50901908874512 Q 5.7176400570385315 27.79645967324051 5.4145899461341855 27.820005416870124 L 3.2876368211341855 27.82000541687012 Q 3.014365009601099 27.796001580262743 2.975625102384185 27.507993698120124 L 2.9756251023841847 23.63201713562012 Q 3.0171094363428637 23.32830405960388 3.2876368211341855 23.32439994812012 L 3.2964258836341855 23.32439994812012 " stroke="#191919" stroke-width="0.7 px" style="stroke-width:0.7;stroke-miterlimit:4;stroke-dasharray:none;stroke-linecap:square;fill:none;fill-opacity:1;fill-rule: evenodd"/>
<path id="Slice_child1_cs_w0036"  d="M 15.833893 4.092789056766581 L 14.833893 4.092789056766581 L 14.833893 -2.9188399953691473 A 5.99962 5.99962 0 0 1 10.4061 -5.4752L 3.624157792064866 -1.5596229563697788 L 3.1241577920648655 -2.4256483601542174 L 9.906141881062545 -6.341228699576789 A 5.99962 5.99962 0 0 1 9.90614 -11.454L 3.8338929999999936 -14.959769826491064 L 3.833892999999994 -18.959769826491062 L 4.8338929999999944 -18.959769826491062 L 4.833892999999994 -15.537120095680688 L 10.406141881062542 -12.31998070420764 A 5.99962 5.99962 0 0 1 20.2616 -12.32L 25.833893000000003 -15.537120095680692 L 25.833893000000003 -18.959769826491062 L 26.833893000000003 -18.959769826491062 L 26.833893000000003 -14.959769826491065 L 20.761644118937454 -11.453955300423203 A 5.99962 5.99962 0 0 1 20.7616 -6.34123L 25.84394790558479 -3.406959240252497 L 25.34394790558479 -2.5409338364680583 L 20.261644118937454 -5.475203295792355 A 5.99962 5.99962 0 0 1 15.8339 -2.91884L 15.833893 4.092789056766581 " stroke="#191919" stroke-width="0.7 px" style="stroke-width:0.7;stroke-miterlimit:4;stroke-dasharray:none;stroke-linecap:square;fill:none;fill-opacity:1;fill-rule: evenodd"/>
<path id="Slice_child1_cs_w0037"  d="M 15.8906641625 10.49560546875 L 15.84232431875 10.497802734375 Q 15.604632197424035 10.496652541302701 15.558877053125 10.251708984375 L 15.554482521875 10.1923828125 L 15.554482521875 7.483154296875 L 15.4412501 7.061279296875 L 15.141396584375 6.749267578125 L 14.679970803125 6.6064453125 L 14.273476662499998 6.727294921875 Q 13.858683317098825 6.983177927047446 13.829629006249998 7.483154296875 L 13.82962900625 10.1923828125 Q 13.8292201871418 10.44452752214401 13.58353525625 10.493408203125 L 13.50443369375 10.502197265625 Q 13.320834815959238 10.501081240874303 13.234170021875 10.31103515625 L 13.2100001 10.1923828125 L 13.2100001 7.439208984375 Q 13.233063538814989 6.7886660358755115 13.67904306875 6.396533203125 Q 14.101426105379492 6.043820904972083 14.631630959375 6.017578124999999 L 14.6953516625 6.015380859375 Q 15.190253441610984 6.018803378355043 15.611611428125 6.31640625 Q 16.086515460115617 6.668032325475071 16.163125100000002 7.307373046875 L 16.171914162500002 7.439208984375 L 16.171914162500002 10.1923828125 Q 16.170766810531447 10.468935227105693 15.890664162499998 10.49560546875 " stroke="#191919" stroke-width="0.7 px" style="stroke-width:0.7;stroke-miterlimit:4;stroke-dasharray:none;stroke-linecap:square;fill:none;fill-opacity:1;fill-rule: evenodd"/>
<path id="Slice_child1_cs_w0038"  d="M 4.640833433333334 19.378203125 L 4.640833433333334 15.064238281249999 Q 4.679479146619251 14.724943087533461 4.985071714583334 14.719999999999999 Q 5.290730244934989 14.72495773884842 5.331751402083336 15.064238281249999 L 5.331751402083336 16.8440234375 L 6.518274839583334 16.8440234375 L 6.564661558333334 16.84646484375 Q 6.994297041313574 16.87184782460833 7.338587339583334 17.10395182291667 Q 7.682014109211885 17.340136525130795 7.851282652083336 17.7424609375 L 7.961145933333336 18.2698046875 L 7.856165464583336 18.79958984375 Q 7.649917517981801 19.33629984282473 7.140833433333336 19.5783984375 L 6.564661558333334 19.72 L 4.963099058333334 19.72 Q 4.676819972948351 19.678953059465982 4.640833433333334 19.378203125 " stroke="#191919" stroke-width="0.7 px" style="stroke-width:0.7;stroke-miterlimit:4;stroke-dasharray:none;stroke-linecap:square;fill:none;fill-opacity:1;fill-rule: evenodd"/>
<path id="Slice_child1_cs_w0039"  d="M 6.652675883634186 23.32439994812012 Q 6.930629350961474 23.331635269746435 6.949306743009187 23.63201713562012 L 6.9493067430091875 25.38323783874512 L 8.366543071134185 25.38323783874512 Q 8.67024075952412 25.426864440840447 8.674160258634185 25.69744682312012 Q 8.671226867908153 25.979833000657322 8.366543071134185 26.00066947937012 L 6.9493067430091875 26.00066947937012 L 6.9493067430091875 27.20257377624512 L 8.766445414884185 27.20257377624512 Q 9.073509437289303 27.221469409831833 9.076259868009185 27.50901908874512 Q 9.073890057038557 27.796459673240488 8.770839946134185 27.820005416870124 L 6.6438868211341875 27.82000541687012 Q 6.370615009601104 27.796001580262747 6.331875102384187 27.507993698120128 L 6.3318751023841875 23.63201713562012 Q 6.37335943634286 23.328304059603887 6.643886821134187 23.32439994812012 L 6.652675883634187 23.32439994812012 " stroke="#191919" stroke-width="0.7 px" style="stroke-width:0.7;stroke-miterlimit:4;stroke-dasharray:none;stroke-linecap:square;fill:none;fill-opacity:1;fill-rule: evenodd"/>
<path id="Slice_child1_cs_w0040"  d="M -1.0283885718750003 47.902333984375005 Q -1.3735027159143693 48.30986630540875 -1.9116893531250003 48.31 L -2.4544139625000003 48.1605859375 Q -3.00526734401447 47.829520965780446 -3.2278514625000003 47.182802734375 Q -3.4294415222087817 46.63173234329021 -3.4299999 46.049013671875 L -3.4212108375000003 45.80072265625 Q -3.371347234424687 45.103255469261825 -3.0147166968750003 44.515322265625 Q -2.6605139595917553 43.9390428187551 -1.9951854468750003 43.820986328125 L -1.8106151343750005 43.80560546875 L -1.2481151343750003 43.98578125 L -0.7141795875000003 44.5570703125 Q -0.3994831210713159 45.10725956304506 -0.3538280250000003 45.7523828125 L -0.3450389625000003 46.007265625 L -0.5076366187500003 47.015810546875 L -1.0283885718750003 47.902333984375005 " stroke="#191919" stroke-width="0.7 px" style="stroke-width:0.7;stroke-miterlimit:4;stroke-dasharray:none;stroke-linecap:square;fill:none;fill-opacity:1;fill-rule: evenodd"/>
<path id="Slice_child1_cs_w0041"  d="M -0.59099599375 43.61560546875 Q -0.8659035055249329 43.61161090884774 -0.905204978125 43.30359375 L -0.905204978125 40.50427734375 L -2.750908103125 43.468388671875 L -2.986015525 43.62439453125 L -3.08708974375 43.604619140625 Q -3.289751514318144 43.53103003858362 -3.3199999 43.30359375 L -3.3199999 39.42322265625 Q -3.2767176424399143 39.11988914576199 -3.011357321875 39.11560546875 Q -2.7458013648565474 39.119896106549774 -2.70037099375 39.42322265625 L -2.70037099375 42.220341796875 L -0.85466786875 39.260625 L -0.610771384375 39.11560546875 L -0.580009665625 39.11560546875 L -0.5074999 39.1287890625 Q -0.2860058704842484 39.19047611007419 -0.285576071875 39.418828125 L -0.285576071875 43.30359375 Q -0.3082678584206744 43.60798022968342 -0.5866014625 43.61560546875 L -0.59099599375 43.61560546875 " stroke="#191919" stroke-width="0.7 px" style="stroke-width:0.7;stroke-miterlimit:4;stroke-dasharray:none;stroke-linecap:square;fill:none;fill-opacity:1;fill-rule: evenodd"/>
<path id="Slice_child1_cs_w0042"  d="M -1.0379491187500003 64.52251953125 L -0.9915624000000003 64.52984375 Q -0.4146828596259985 64.64210065677949 -0.07359364999999984 65.1353125 Q 0.18942773284333914 65.51007018441891 0.19251963125000016 65.94341796875 L 0.19251963125000016 65.9507421875 L 0.16810556875000016 66.20953125 Q 0.07145880156088022 66.74135058858849 -0.33238271249999984 67.09201822916668 Q -0.739030156496159 67.44074284896118 -1.2820897437499998 67.44 L -2.7982030250000003 67.44 L -3.041204327083334 67.33990234375 L -3.1399999000000003 67.098203125 L -3.1399999000000003 62.78423828125 L -3.0057225562500003 62.5132421875 L -2.8030858375000003 62.43755859375 L -2.6443944312500003 62.4790625 Q -2.4517875396070368 62.57187239920225 -2.4515233375000003 62.78423828125 L -2.4515233375000003 64.50298828125 L -1.8411717750000003 64.50298828125 L -0.6375584937500003 62.6011328125 L -0.41539052499999984 62.449765625 L -0.34214833749999984 62.44244140625 L -0.14439443124999984 62.50591796875 L 0.004531349999999712 62.7671484375 L -0.056503806249999844 62.96978515625 L -1.0379491187500003 64.52251953125 " stroke="#191919" stroke-width="0.7 px" style="stroke-width:0.7;stroke-miterlimit:4;stroke-dasharray:none;stroke-linecap:square;fill:none;fill-opacity:1;fill-rule: evenodd"/>
<path id="Slice_child1_cs_w0043"  d="M 3.2756902041666667 67.410703125 Q 3.044050591640356 67.40132037142266 2.9412175479166676 67.1616796875 L 2.0867253604166667 64.236875 L 1.5227605166666667 67.1616796875 Q 1.4204746340132957 67.43499081266796 1.1931706729166667 67.44 L 1.1736394229166667 67.44 L 1.1174870791666667 67.4351171875 Q 0.835583251108037 67.37408632563998 0.8391667666666667 67.03228515625 L 1.6838933291666667 62.72076171875 Q 1.7760353718621413 62.46029816816629 2.0110417666666667 62.44 L 2.0378972354166667 62.44 Q 2.2536986642725605 62.44312343183289 2.3552800479166667 62.68658203125 L 3.2708073916666667 65.83599609375 L 4.193658954166667 62.68658203125 Q 4.29367777190506 62.442404274012205 4.523248797916668 62.44 L 4.540338641666666 62.44 Q 4.782264785995519 62.45284636848933 4.860162860416668 62.72076171875 L 5.704889422916666 67.03228515625 L 5.707330829166668 67.08111328125 Q 5.704936726987043 67.37256487139004 5.429010516666668 67.430234375 L 5.341119891666668 67.44 Q 5.11007285229681 67.43565763949636 5.028619891666668 67.1616796875 L 4.457330829166667 64.2417578125 L 3.6028386416666667 67.1616796875 Q 3.512792077240948 67.40797804821213 3.2903386416666667 67.410703125 L 3.2756902041666667 67.410703125 " stroke="#191919" stroke-width="0.7 px" style="stroke-width:0.7;stroke-miterlimit:4;stroke-dasharray:none;stroke-linecap:square;fill:none;fill-opacity:1;fill-rule: evenodd"/>
<path id="Slice_child1_cs_w0044"  d="M 10.521484000000001 52.560863 L 9.521484000000001 52.560863 L 9.521484000000001 43.0501691855331 A 5 5 0 0 1 5.04655 38.5752L -2.483443999999999 38.575232 L -2.483444 37.575232 L 5.046546814466899 37.575232 A 5 5 0 0 1 7.101 34.0168L 4.086700470932924 28.795885395732913 L 4.952725874717363 28.295885395732913 L 7.967028109125666 33.51681001509648 A 5 5 0 1 1 10.5215 43.0502L 10.521484000000001 52.560863 " stroke="#191919" stroke-width="0.7 px" style="stroke-width:0.7;stroke-miterlimit:4;stroke-dasharray:none;stroke-linecap:square;fill:none;fill-opacity:1;fill-rule: evenodd"/>
<path id="Slice_child1_cs_w0045"  d="M 6.4980958031250005 55.86972656250001 Q 6.590731082627983 55.651732477608036 6.7969239281250005 55.65000000000001 L 6.7991211937500005 55.65000000000001 Q 7.007682237503932 55.652003848112784 7.0935547875000005 55.87851562500001 L 8.139453225 59.76108398437501 L 8.150439553125 59.86435546875001 Q 8.14906835466002 60.071988305035134 7.928515725000001 60.13681640625001 L 7.8186524437500005 60.15439453125001 Q 7.6266835351208275 60.151440837901646 7.541796975000001 59.92148437500001 L 6.7969239281250005 57.15292968750001 L 6.0564454125000005 59.89511718750001 Q 5.969552583848078 60.12710240619808 5.7773926781250005 60.13022460937501 L 5.6807129906250005 60.11704101562501 Q 5.452323995832401 60.05705882542392 5.4500001000000005 59.81601562500001 L 5.4565918968750005 59.73471679687501 L 6.4980958031250005 55.86972656250001 " stroke="#191919" stroke-width="0.7 px" style="stroke-width:0.7;stroke-miterlimit:4;stroke-dasharray:none;stroke-linecap:square;fill:none;fill-opacity:1;fill-rule: evenodd"/>
<path id="Slice_child1_cs_w0046"  d="M 11.16318369375 59.742333984375016 Q 10.818069549710703 60.14986630540872 10.2798829125 60.15000000000001 L 9.737158303125 60.00058593750001 Q 9.18630492161056 59.66952096578049 8.963720803125 59.02280273437501 Q 8.762130743416218 58.47173234329024 8.761572365625 57.88901367187501 L 8.770361428125 57.64072265625001 Q 8.820225031200309 56.94325546926186 9.17685556875 56.35532226562501 Q 9.531058306033234 55.779042818755116 10.19638681875 55.66098632812501 L 10.38095713125 55.64560546875001 L 10.94345713125 55.82578125000001 L 11.477392678125 56.39707031250001 Q 11.792089144553682 56.947259563045066 11.837744240625002 57.59238281250001 L 11.846533303125 57.84726562500001 L 11.683935646875 58.85581054687501 L 11.16318369375 59.742333984375016 " stroke="#191919" stroke-width="0.7 px" style="stroke-width:0.7;stroke-miterlimit:4;stroke-dasharray:none;stroke-linecap:square;fill:none;fill-opacity:1;fill-rule: evenodd"/>
<path id="Slice_child1_cs_w0047"  d="M 8.284967547916668 64.52251953125 L 8.331354266666668 64.52984375 Q 8.908233807040668 64.64210065677949 9.249323016666668 65.1353125 Q 9.512344399510006 65.51007018441888 9.515436297916668 65.94341796875 L 9.515436297916668 65.9507421875 L 9.491022235416668 66.20953125 Q 9.394375468227562 66.74135058858846 8.990533954166668 67.09201822916668 Q 8.583886510170505 67.44074284896118 8.040826922916668 67.44 L 6.524713641666668 67.44 L 6.281712339583335 67.33990234375 L 6.182916766666668 67.098203125 L 6.182916766666668 62.78423828125 L 6.317194110416669 62.5132421875 L 6.519830829166668 62.43755859375 L 6.678522235416668 62.4790625 Q 6.871129127059618 62.571872399202235 6.871393329166668 62.78423828125 L 6.871393329166668 64.50298828125 L 7.481744891666669 64.50298828125 L 8.685358172916668 62.6011328125 L 8.907526141666668 62.449765625 L 8.980768329166668 62.44244140625 L 9.178522235416668 62.50591796875 L 9.327448016666668 62.7671484375 L 9.266412860416668 62.96978515625 L 8.284967547916668 64.52251953125 " stroke="#191919" stroke-width="0.7 px" style="stroke-width:0.7;stroke-miterlimit:4;stroke-dasharray:none;stroke-linecap:square;fill:none;fill-opacity:1;fill-rule: evenodd"/>
<path id="Slice_child1_cs_w0048"  d="M 15.072705178125 55.64780273437501 Q 15.381701922158083 55.666468833199744 15.384716896875 55.95322265625001 Q 15.381104715166199 56.22987149602214 15.07490244375 56.26303710937501 L 13.046826271875002 56.26083984375001 L 13.046826271875002 59.83798828125001 Q 13.024277079369451 60.14222527845507 12.747998146875 60.15000000000001 L 12.739209084375002 60.15000000000001 Q 12.47036634466548 60.14553438602317 12.427197365625002 59.83798828125001 L 12.427197365625002 55.95322265625001 Q 12.46808253559354 55.66742486412801 12.739209084375002 55.64780273437501 L 15.072705178125 55.64780273437501 " stroke="#191919" stroke-width="0.7 px" style="stroke-width:0.7;stroke-miterlimit:4;stroke-dasharray:none;stroke-linecap:square;fill:none;fill-opacity:1;fill-rule: evenodd"/>
<path id="Slice_child1_cs_w0049"  d="M 16.7068751 10.1923828125 L 16.7068751 6.309814453125 Q 16.74204590456862 6.00377052630545 17.016689553125 6.0 Q 17.29138381116858 6.0037822464154935 17.328701271874994 6.309814453125 L 17.328701271874998 7.91162109375 L 18.396572365625 7.91162109375 L 18.438320412499998 7.913818359375 Q 18.825534713946716 7.936824772862183 19.134853615624998 8.145556640625 Q 19.443492286214003 8.35753288117664 19.596279396874998 8.72021484375 L 19.695156349999998 9.19482421875 L 19.600673928124998 9.671630859375 Q 19.414727447012314 10.155130631550715 18.956875099999998 10.37255859375 L 18.438320412499998 10.5 L 16.9969141625 10.5 Q 16.73935562354677 10.463341507939592 16.7068751 10.1923828125 " stroke="#191919" stroke-width="0.7 px" style="stroke-width:0.7;stroke-miterlimit:4;stroke-dasharray:none;stroke-linecap:square;fill:none;fill-opacity:1;fill-rule: evenodd"/>
<path id="Slice_child1_cs_w0050"  d="M 29.489004006250003 -6.15439453125 Q 29.2140964944751 -6.158389091152229 29.174795021875003 -6.46640625 L 29.174795021875003 -9.26572265625 L 27.329091896875003 -6.301611328125 L 27.093984475000003 -6.14560546875 L 26.992910256250003 -6.165380859375 Q 26.790248485681865 -6.238969961416362 26.760000100000003 -6.46640625 L 26.760000100000003 -10.34677734375 Q 26.80328235756012 -10.650110854238044 27.068642678125002 -10.654394531249999 Q 27.3341986351435 -10.650103893450172 27.37962900625 -10.34677734375 L 27.379629006250003 -7.549658203125 L 29.225332131250003 -10.509375 L 29.469228615625003 -10.65439453125 L 29.499990334375003 -10.65439453125 L 29.572500100000003 -10.6412109375 Q 29.793994129515774 -10.579523889925785 29.794423928125003 -10.351171875 L 29.794423928125003 -6.46640625 Q 29.771732141579342 -6.162019770316564 29.493398537500003 -6.15439453125 L 29.489004006250003 -6.15439453125 " stroke="#191919" stroke-width="0.7 px" style="stroke-width:0.7;stroke-miterlimit:4;stroke-dasharray:none;stroke-linecap:square;fill:none;fill-opacity:1;fill-rule: evenodd"/>
<path id="Slice_child1_cs_w0051"  d="M 28.33287119375 -0.8563671875000001 Q 28.124710949360367 -0.8645088799725025 28.031845803125 -1.08048828125 L 27.262802834375 -3.7128125 L 26.755234475 -1.08048828125 Q 26.66243186672001 -0.8337805006925789 26.458603615625 -0.8300000000000001 L 26.441025490625 -0.8300000000000001 L 26.39048838125 -0.8343945312500001 Q 26.13726581953461 -0.8883151525822295 26.1400001 -1.196943359375 L 26.90025400625 -5.077314453125 Q 26.983628585277376 -5.3121987078448285 27.1946876 -5.33 L 27.218857521875 -5.33 Q 27.412575098098944 -5.327652304675372 27.504502053125 -5.108076171875 L 28.3284766625 -2.273603515625 L 29.15904306875 -5.108076171875 Q 29.249430824820767 -5.32819043366081 29.455673928125 -5.33 L 29.4710547875 -5.33 Q 29.68840052422509 -5.318886787001537 29.758896584375 -5.077314453125 L 30.519150490625 -1.196943359375 L 30.52134775625 -1.152998046875 Q 30.519183493745604 -0.8904704269339505 30.270859475 -0.8387890625000001 L 30.1917579125 -0.8300000000000001 Q 29.984398604907494 -0.8332736691318461 29.9105079125 -1.08048828125 L 29.39634775625 -3.70841796875 L 28.6273047875 -1.08048828125 Q 28.54585903007268 -0.8584155858517508 28.3460547875 -0.8563671875000001 L 28.33287119375 -0.8563671875000001 " stroke="#191919" stroke-width="0.7 px" style="stroke-width:0.7;stroke-miterlimit:4;stroke-dasharray:none;stroke-linecap:square;fill:none;fill-opacity:1;fill-rule: evenodd"/>
<path id="Slice_child1_cs_w0052"  d="M 27.3976172875 0.1200000000000006 L 28.4347266625 0.1200000000000006 Q 29.211349878527216 0.12937436077461295 29.588291115625 0.8231250000000006 Q 29.976091707340547 1.5413258476860616 29.972812600000005 2.3700000000000006 Q 29.976127789623277 3.198501391768322 29.589316506249997 3.9168749999999997 Q 29.212718884355134 4.611111080477841 28.4347266625 4.620000000000002 L 27.40201181875 4.620000000000001 Q 27.156953011702846 4.615916367504942 27.0900001 4.332158203125001 L 27.0900001 0.4320117187500006 Q 27.089997652063005 0.18899231340712094 27.318515725 0.1331835937500006 L 27.3976172875 0.1200000000000006 " stroke="#191919" stroke-width="0.7 px" style="stroke-width:0.7;stroke-miterlimit:4;stroke-dasharray:none;stroke-linecap:square;fill:none;fill-opacity:1;fill-rule: evenodd"/>
<path id="Slice_child1_cs_w0053"  d="M -1.468173728125 -53.428173828125 L -1.468173728125 -51.87470703125 L -0.58267568125 -51.87470703125 Q -0.20986073962757268 -51.9196122276019 -0.013583884375000022 -52.166943359375004 L 0.16439463124999998 -52.661328125 L 0.16439463124999998 -52.68330078125 L -0.03995107187500002 -53.186474609375 Q -0.24586926724642288 -53.41681925899955 -0.60904286875 -53.42817382812499 L -1.468173728125 -53.428173828125 " stroke="#191919" stroke-width="0.7 px" style="stroke-width:0.7;stroke-miterlimit:4;stroke-dasharray:none;stroke-linecap:square;fill:none;fill-opacity:1;fill-rule: evenodd"/>
<path id="Slice_child1_cs_w0054"  d="M -0.011386618750000022 -50.3498046875 L 0.12923838124999998 -50.71015625 L -0.0025975562500000215 -51.06171875 L -0.40689443125 -51.257275390625 L -1.468173728125 -51.257275390625 L -1.468173728125 -50.1740234375 L -0.413486228125 -50.1740234375 L -0.011386618750000022 -50.3498046875 " stroke="#191919" stroke-width="0.7 px" style="stroke-width:0.7;stroke-miterlimit:4;stroke-dasharray:none;stroke-linecap:square;fill:none;fill-opacity:1;fill-rule: evenodd"/>
<path id="Slice_child1_cs_w0055"  d="M 1.136962692601776 -67.35721588134766 Q 1.4764642118156635 -67.45045840971747 1.655517380101776 -67.77586822509765 L 1.899413864476776 -68.51297760009766 L 1.936767380101776 -69.00077056884766 L 1.936767380101776 -69.03812408447266 L 1.921386520726776 -69.33475494384766 L 1.760986130101776 -69.99832916259766 L 1.424804489476776 -70.46414947509766 L 1.073241989476776 -70.61356353759766 L 0.893066208226776 -70.58499908447266 L 0.46679667697677607 -70.25438385009767 L 0.22290019260177607 -69.69408111572265 L 0.13061503635177607 -69.06449127197266 L 0.12841777072677607 -68.93485260009766 L 0.16137675510177607 -68.52176666259766 L 0.423876755101776 -67.77909088134766 Q 0.6194751234686617 -67.35456971807511 1.035888473851776 -67.34403228759766 L 1.136962692601776 -67.35721588134766 " stroke="#191919" stroke-width="0.7 px" style="stroke-width:0.7;stroke-miterlimit:4;stroke-dasharray:none;stroke-linecap:square;fill:none;fill-opacity:1;fill-rule: evenodd"/>
<path id="Slice_child1_cs_w0056"  d="M 12.341826271875 -36.58817382812501 L 12.341826271875 -35.03470703125001 L 13.22732431875 -35.03470703125001 Q 13.600139260372405 -35.079612227601885 13.796416115624998 -35.32694335937501 L 13.97439463125 -35.82132812500001 L 13.97439463125 -35.84330078125001 L 13.770048928125 -36.34647460937501 Q 13.564130732753576 -36.57681925899955 13.20095713125 -36.58817382812501 L 12.341826271875 -36.58817382812501 " stroke="#191919" stroke-width="0.7 px" style="stroke-width:0.7;stroke-miterlimit:4;stroke-dasharray:none;stroke-linecap:square;fill:none;fill-opacity:1;fill-rule: evenodd"/>
<path id="Slice_child1_cs_w0057"  d="M 13.79861338125 -33.50980468750001 L 13.93923838125 -33.87015625000001 L 13.80740244375 -34.22171875000001 L 13.40310556875 -34.41727539062501 L 12.341826271875 -34.41727539062501 L 12.341826271875 -33.33402343750001 L 13.396513771875 -33.33402343750001 L 13.79861338125 -33.50980468750001 " stroke="#191919" stroke-width="0.7 px" style="stroke-width:0.7;stroke-miterlimit:4;stroke-dasharray:none;stroke-linecap:square;fill:none;fill-opacity:1;fill-rule: evenodd"/>
<path id="Slice_child1_cs_w0058"  d="M 22.54962900625 -68.82587890625 L 22.54962900625 -67.41962890625 L 23.632880959375 -67.41962890625 Q 23.978289741252638 -67.44985357527318 24.177802834375 -67.7228515625 L 24.30744150625 -68.1095703125 L 24.27228525625 -68.33369140625 L 24.016230568750004 -68.6896484375 L 23.602119240625 -68.82587890625 L 22.54962900625 -68.82587890625 " stroke="#191919" stroke-width="0.7 px" style="stroke-width:0.7;stroke-miterlimit:4;stroke-dasharray:none;stroke-linecap:square;fill:none;fill-opacity:1;fill-rule: evenodd"/>
<path id="Slice_child1_cs_w0059"  d="M 27.706318459375 -67.64814453125 L 27.8755079125 -68.085400390625 L 27.868916115625 -68.182080078125 L 27.643623146875 -68.599560546875 L 27.200947365624998 -68.766552734375 L 26.133076271874998 -68.766552734375 L 26.133076271874998 -67.41962890625 L 27.200947365624998 -67.41962890625 Q 27.50427242813656 -67.41998241129156 27.706318459375 -67.64814453125 " stroke="#191919" stroke-width="0.7 px" style="stroke-width:0.7;stroke-miterlimit:4;stroke-dasharray:none;stroke-linecap:square;fill:none;fill-opacity:1;fill-rule: evenodd"/>
<path id="Slice_child1_cs_w0060"  d="M 27.379629006250003 -42.20587890625001 L 27.379629006250003 -40.79962890625001 L 28.462880959375003 -40.79962890625001 Q 28.80828974125268 -40.82985357527322 29.007802834375003 -41.10285156250001 L 29.137441506250003 -41.48957031250001 L 29.102285256250003 -41.71369140625001 L 28.846230568750002 -42.06964843750001 L 28.432119240625 -42.20587890625001 L 27.379629006250003 -42.20587890625001 " stroke="#191919" stroke-width="0.7 px" style="stroke-width:0.7;stroke-miterlimit:4;stroke-dasharray:none;stroke-linecap:square;fill:none;fill-opacity:1;fill-rule: evenodd"/>
<path id="Slice_child1_cs_w0061"  d="M 0.8369629906249997 -22.12720703125 Q 1.1764645098388917 -22.22044955961983 1.3555176781249996 -22.545859375000003 L 1.5994141624999996 -23.282968750000002 L 1.6367676781249996 -23.77076171875 L 1.6367676781249996 -23.808115234375 L 1.6213868187499996 -24.10474609375 L 1.4609864281249996 -24.7683203125 L 1.1248047874999996 -25.234140625 L 0.7732422874999996 -25.3835546875 L 0.5930665062499997 -25.354990234375 L 0.16679697499999968 -25.024375 L -0.07709950937500032 -24.464072265625 L -0.16938466562500032 -23.834482421875002 L -0.17158193125000032 -23.70484375 L -0.13862294687500032 -23.2917578125 L 0.12387705312499964 -22.54908203125 Q 0.3194754214919246 -22.124560867977422 0.7358887718749997 -22.1140234375 L 0.8369629906249997 -22.12720703125 " stroke="#191919" stroke-width="0.7 px" style="stroke-width:0.7;stroke-miterlimit:4;stroke-dasharray:none;stroke-linecap:square;fill:none;fill-opacity:1;fill-rule: evenodd"/>
<path id="Slice_child1_cs_w0062"  d="M 21.49962900625 -23.57587890625 L 21.49962900625 -22.16962890625 L 22.582880959375 -22.16962890625 Q 22.928289741252627 -22.19985357527319 23.127802834375 -22.4728515625 L 23.25744150625 -22.8595703125 L 23.22228525625 -23.08369140625 L 22.96623056875 -23.4396484375 L 22.552119240624997 -23.57587890625 L 21.49962900625 -23.57587890625 " stroke="#191919" stroke-width="0.7 px" style="stroke-width:0.7;stroke-miterlimit:4;stroke-dasharray:none;stroke-linecap:square;fill:none;fill-opacity:1;fill-rule: evenodd"/>
<path id="Slice_child1_cs_w0063"  d="M 29.89025400625 -23.57587890625 L 29.89025400625 -22.16962890625 L 30.973505959375 -22.16962890625 Q 31.318914741252684 -22.199853575273224 31.518427834375 -22.4728515625 L 31.64806650625 -22.8595703125 L 31.612910256249997 -23.08369140625 L 31.35685556875 -23.4396484375 L 30.942744240624997 -23.57587890625 L 29.89025400625 -23.57587890625 " stroke="#191919" stroke-width="0.7 px" style="stroke-width:0.7;stroke-miterlimit:4;stroke-dasharray:none;stroke-linecap:square;fill:none;fill-opacity:1;fill-rule: evenodd"/>
<path id="Slice_child1_cs_w0064"  d="M -1.9214549781250003 3.103603515625 L -1.2490916968750003 4.949306640625 L -0.5811229468750003 3.103603515625 L -1.9214549781250003 3.103603515625 " stroke="#191919" stroke-width="0.7 px" style="stroke-width:0.7;stroke-miterlimit:4;stroke-dasharray:none;stroke-linecap:square;fill:none;fill-opacity:1;fill-rule: evenodd"/>
<path id="Slice_child1_cs_w0065"  d="M 0.9469629930091857 27.18279838562012 Q 1.2864645122230935 27.089555857250275 1.4655176805091856 26.76414604187012 L 1.7094141648841856 26.027036666870117 L 1.7467676805091856 25.53924369812012 L 1.7467676805091856 25.50189018249512 L 1.7313868211341856 25.20525932312012 L 1.5709864305091856 24.54168510437012 L 1.2348047898841856 24.07586479187012 L 0.8832422898841856 23.92645072937012 L 0.7030665086341857 23.95501518249512 L 0.27679697738418574 24.28563041687012 L 0.03290049300918574 24.84593315124512 L -0.05938466324081426 25.475522994995117 L -0.06158192886581426 25.60516166687012 L -0.02862294449081426 26.01824760437012 L 0.2338770555091857 26.76092338562012 Q 0.4294754238761111 27.185444548892704 0.8458887742591857 27.19598197937012 L 0.9469629930091857 27.18279838562012 " stroke="#191919" stroke-width="0.7 px" style="stroke-width:0.7;stroke-miterlimit:4;stroke-dasharray:none;stroke-linecap:square;fill:none;fill-opacity:1;fill-rule: evenodd"/>
<path id="Slice_child1_cs_w0066"  d="M 7.079798277083336 18.7776171875 L 7.267786558333334 18.29177734375 L 7.260462339583336 18.18435546875 Q 7.223585641986764 17.905871943826888 7.010136818750002 17.72048828125 L 6.518274839583334 17.53494140625 L 5.331751402083336 17.53494140625 L 5.331751402083336 19.0315234375 L 6.518274839583334 19.0315234375 Q 6.855321474067003 19.031065113454574 7.079798277083336 18.7776171875 " stroke="#191919" stroke-width="0.7 px" style="stroke-width:0.7;stroke-miterlimit:4;stroke-dasharray:none;stroke-linecap:square;fill:none;fill-opacity:1;fill-rule: evenodd"/>
<path id="Slice_child1_cs_w0067"  d="M -1.7930370093750003 47.67279296875 Q -1.4535354901610984 47.57955044038015 -1.2744823218750003 47.254140625000005 L -1.0305858375000003 46.51703125 L -0.9932323218750003 46.02923828125 L -0.9932323218750003 45.991884765625 L -1.0086131812500003 45.69525390625 L -1.1690135718750003 45.0316796875 L -1.5051952125000003 44.565859375 L -1.8567577125000003 44.4164453125 L -2.0369334937500003 44.445009765625 L -2.4632030250000003 44.775625000000005 L -2.7070995093750003 45.335927734375005 L -2.7993846656250003 45.965517578125 L -2.8015819312500003 46.09515625 L -2.7686229468750003 46.5082421875 L -2.506122946875 47.25091796875 Q -2.3105245785081228 47.67543913202255 -1.8941112281250005 47.6859765625 L -1.7930370093750003 47.67279296875 " stroke="#191919" stroke-width="0.7 px" style="stroke-width:0.7;stroke-miterlimit:4;stroke-dasharray:none;stroke-linecap:square;fill:none;fill-opacity:1;fill-rule: evenodd"/>
<path id="Slice_child1_cs_w0068"  d="M -2.4515233375000003 65.1890234375 L -2.4515233375000003 66.7515234375 L -1.2479100562500003 66.7515234375 Q -0.8644244074047307 66.71803220652563 -0.6424413062499998 66.414609375 L -0.49839833749999984 65.984921875 L -0.5374608375000003 65.7358984375 L -0.8219660458333333 65.340390625 L -1.2820897437499998 65.1890234375 L -2.4515233375000003 65.1890234375 " stroke="#191919" stroke-width="0.7 px" style="stroke-width:0.7;stroke-miterlimit:4;stroke-dasharray:none;stroke-linecap:square;fill:none;fill-opacity:1;fill-rule: evenodd"/>
<path id="Slice_child1_cs_w0069"  d="M 10.39853525625 59.51279296875001 Q 10.738036775463915 59.41955044038016 10.91708994375 59.094140625000016 L 11.160986428125 58.35703125000001 L 11.19833994375 57.86923828125001 L 11.19833994375 57.83188476562501 L 11.182959084375 57.53525390625001 L 11.02255869375 56.87167968750001 L 10.686377053125 56.40585937500001 L 10.334814553125 56.25644531250001 L 10.154638771875 56.28500976562501 L 9.728369240625 56.615625000000016 L 9.48447275625 57.175927734375016 L 9.3921876 57.80551757812501 L 9.389990334375 57.93515625000001 L 9.42294931875 58.34824218750001 L 9.685449318749999 59.09091796875001 Q 9.881047687116917 59.51543913202261 10.2974610375 59.52597656250001 L 10.39853525625 59.51279296875001 " stroke="#191919" stroke-width="0.7 px" style="stroke-width:0.7;stroke-miterlimit:4;stroke-dasharray:none;stroke-linecap:square;fill:none;fill-opacity:1;fill-rule: evenodd"/>
<path id="Slice_child1_cs_w0070"  d="M 6.871393329166668 65.1890234375 L 6.871393329166668 66.7515234375 L 8.075006610416668 66.7515234375 Q 8.458492259261941 66.71803220652563 8.680475360416668 66.414609375 L 8.824518329166668 65.984921875 L 8.785455829166668 65.7358984375 L 8.500950620833333 65.340390625 L 8.040826922916668 65.1890234375 L 6.871393329166668 65.1890234375 " stroke="#191919" stroke-width="0.7 px" style="stroke-width:0.7;stroke-miterlimit:4;stroke-dasharray:none;stroke-linecap:square;fill:none;fill-opacity:1;fill-rule: evenodd"/>
<path id="Slice_child1_cs_w0071"  d="M 18.901943459374998 9.65185546875 L 19.071132912499998 9.214599609375 L 19.064541115624998 9.117919921875 L 18.839248146875 8.700439453125 L 18.396572365624998 8.533447265625 L 17.328701271874998 8.533447265625 L 17.328701271874998 9.88037109375 L 18.396572365625 9.88037109375 Q 18.69989742813652 9.880017588708437 18.901943459374998 9.65185546875 " stroke="#191919" stroke-width="0.7 px" style="stroke-width:0.7;stroke-miterlimit:4;stroke-dasharray:none;stroke-linecap:square;fill:none;fill-opacity:1;fill-rule: evenodd"/>
<path id="Slice_child1_cs_w0072"  d="M 29.11587900625 3.4488574218750006 Q 29.354790159605244 3.003914344887967 29.3400001 2.3743945312500006 L 29.3400001 2.3568164062500006 Q 29.354559514881885 1.7020718832637522 29.146640725 1.2274218750000006 Q 28.925756221127664 0.7601456223853202 28.46548838125 0.7462207031250006 L 27.70962900625 0.7462207031250006 L 27.70962900625 4.000371093750001 L 28.4347266625 4.000371093750001 Q 28.835659097135235 3.954463623864151 29.11587900625 3.448857421875001 " stroke="#191919" stroke-width="0.7 px" style="stroke-width:0.7;stroke-miterlimit:4;stroke-dasharray:none;stroke-linecap:square;fill:none;fill-opacity:1;fill-rule: evenodd"/>
<title>b'Panel Slice Top'</title>
</g>
</svg>