<?xml version="1.0"?>
<!DOCTYPE svg PUBLIC "-//W3C//DTD SVG 1.1//EN" "http://www.w3.org/Graphics/SVG/1.1/DTD/svg11.dtd">
<svg width="129.03mm" height="123.53mm" viewBox="0 0 129.03 123.53" xmlns="http://www.w3.org/2000/svg" version="1.1">
<g id="Body001_cs" transform="translate(78.971902,53.765000) scale(1,-1)">
<path id="Body001_cs_w0000"  d="M 15.092612964043022 52.0 A 0.5 0.5 0 0 1 14.5926 52.5L -8.706902359873883 52.5 A 0.5 0.5 0 0 1 -9.2069 52L -9.206902359873883 -0.5000000000000001 A 0.5 0.5 0 0 0 -9.7069 -1L -66.40949767047617 -1.0 A 0.5 0.5 0 0 1 -66.9095 -1.5L -66.90949767047617 -3.6059975302604963 A 6 6 0 0 0 -72.9095 -9.606L -77.20690235987388 -9.605997530260495 A 0.5 0.5 0 0 1 -77.7069 -10.106L -77.70690235987388 -59.39400246973936 A 0.5 0.5 0 0 1 -77.2069 -59.894L -72.90949767047624 -59.89400246973936 A 6 6 0 0 0 -66.9095 -65.894L -66.90949767047624 -68.0 A 0.5 0.5 0 0 1 -66.4095 -68.5L 37.4956929507284 -68.5 A 0.5 0.5 0 0 1 37.9957 -68L 37.9956929507284 -65.89400246973953 A 6 6 0 0 0 43.9957 -59.894L 48.29309764012611 -59.89400246973953 A 0.5 0.5 0 0 1 48.7931 -59.394L 48.79309764012611 52.0 A 0.5 0.5 0 0 1 48.2931 52.5L 24.993582316209206 52.5 A 0.5 0.5 0 0 1 24.4936 52L 24.493582316209206 46.345604 A 4.70048 4.70048 0 0 0 15.0926 46.3456L 15.092612964043022 52.0 " stroke="#191919" stroke-width="0.7 px" style="stroke-width:0.7;stroke-miterlimit:4;stroke-dasharray:none;stroke-linecap:square;fill:none;fill-opacity:1;fill-rule: evenodd"/>
<circle cx="-54.383209" cy="-48.70314" r="1.6" stroke="#191919" stroke-width="0.7 px" style="stroke-width:0.7;stroke-miterlimit:4;stroke-dasharray:none;stroke-linecap:square;fill:none"/>
<circle cx="-39.967468" cy="-52.987255" r="1.6" stroke="#191919" stroke-width="0.7 px" style="stroke-width:0.7;stroke-miterlimit:4;stroke-dasharray:none;stroke-linecap:square;fill:none"/>
<circle cx="-26.863089" cy="-48.031384" r="1.6" stroke="#191919" stroke-width="0.7 px" style="stroke-width:0.7;stroke-miterlimit:4;stroke-dasharray:none;stroke-linecap:square;fill:none"/>
<circle cx="-58.738853" cy="-34.876602" r="1.6" stroke="#191919" stroke-width="0.7 px" style="stroke-width:0.7;stroke-miterlimit:4;stroke-dasharray:none;stroke-linecap:square;fill:none"/>
<circle cx="-54.252792" cy="-21.993002" r="1.6" stroke="#191919" stroke-width="0.7 px" style="stroke-width:0.7;stroke-miterlimit:4;stroke-dasharray:none;stroke-linecap:square;fill:none"/>
<circle cx="-61.838886" cy="-10.408254" r="1.0" stroke="#191919" stroke-width="0.7 px" style="stroke-width:0.7;stroke-miterlimit:4;stroke-dasharray:none;stroke-linecap:square;fill:none"/>
<circle cx="-53.710495" cy="-14.143214" r="1.6" stroke="#191919" stroke-width="0.7 px" style="stroke-width:0.7;stroke-miterlimit:4;stroke-dasharray:none;stroke-linecap:square;fill:none"/>
<circle cx="-39.957333" cy="-34.7621" r="10.0" stroke="#191919" stroke-width="0.7 px" style="stroke-width:0.7;stroke-miterlimit:4;stroke-dasharray:none;stroke-linecap:square;fill:none"/>
<circle cx="-19.703154" cy="-34.530338" r="1.6" stroke="#191919" stroke-width="0.7 px" style="stroke-width:0.7;stroke-miterlimit:4;stroke-dasharray:none;stroke-linecap:square;fill:none"/>
<circle cx="-39.990417" cy="-13.311337" r="1.6" stroke="#191919" stroke-width="0.7 px" style="stroke-width:0.7;stroke-miterlimit:4;stroke-dasharray:none;stroke-linecap:square;fill:none"/>
<circle cx="-25.389126" cy="-20.97249" r="1.6" stroke="#191919" stroke-width="0.7 px" style="stroke-width:0.7;stroke-miterlimit:4;stroke-dasharray:none;stroke-linecap:square;fill:none"/>
<path id="Body001_cs_w0012"  d="M 4.427952 -66.833496 L 2.405619 -66.833496 L 2.405619 -61.32389973449926 A 1.6 1.6 0 1 0 4.42795 -61.395L 4.427952 -66.833496 " stroke="#191919" stroke-width="0.7 px" style="stroke-width:0.7;stroke-miterlimit:4;stroke-dasharray:none;stroke-linecap:square;fill:none;fill-opacity:1;fill-rule: evenodd"/>
<circle cx="-8.987108" cy="-48.527733" r="1.6" stroke="#191919" stroke-width="0.7 px" style="stroke-width:0.7;stroke-miterlimit:4;stroke-dasharray:none;stroke-linecap:square;fill:none"/>
<circle cx="4.026858" cy="-48.042931" r="10.0" stroke="#191919" stroke-width="0.7 px" style="stroke-width:0.7;stroke-miterlimit:4;stroke-dasharray:none;stroke-linecap:square;fill:none"/>
<path id="Body001_cs_w0015"  d="M 33.010277 -66.698669 L 31.122766 -66.698669 L 31.122766 -61.815287716913936 A 1.6 1.6 0 1 0 33.0103 -61.7995L 33.010277 -66.698669 " stroke="#191919" stroke-width="0.7 px" style="stroke-width:0.7;stroke-miterlimit:4;stroke-dasharray:none;stroke-linecap:square;fill:none;fill-opacity:1;fill-rule: evenodd"/>
<circle cx="19.793097640126113" cy="-59.244587" r="1.0" stroke="#191919" stroke-width="0.7 px" style="stroke-width:0.7;stroke-miterlimit:4;stroke-dasharray:none;stroke-linecap:square;fill:none"/>
<circle cx="17.707388" cy="-47.701443" r="1.6" stroke="#191919" stroke-width="0.7 px" style="stroke-width:0.7;stroke-miterlimit:4;stroke-dasharray:none;stroke-linecap:square;fill:none"/>
<circle cx="32.211975" cy="-48.042931" r="10.0" stroke="#191919" stroke-width="0.7 px" style="stroke-width:0.7;stroke-miterlimit:4;stroke-dasharray:none;stroke-linecap:square;fill:none"/>
<circle cx="43.874527" cy="-48.902828" r="1.6" stroke="#191919" stroke-width="0.7 px" style="stroke-width:0.7;stroke-miterlimit:4;stroke-dasharray:none;stroke-linecap:square;fill:none"/>
<path id="Body001_cs_w0020"  d="M 2.7110559999999992 -20.72795094210458 L 2.7110559999999992 -32.1493604889662 A 1.6 1.6 0 1 1 4.73339 -32.4237L 4.733389 -21.016517993638377 A 1.6 1.6 0 1 1 2.71106 -20.728" stroke="#191919" stroke-width="0.7 px" style="stroke-width:0.7;stroke-miterlimit:4;stroke-dasharray:none;stroke-linecap:square;fill:none;fill-opacity:1;fill-rule: evenodd"/>
<circle cx="-9.140848" cy="-8.283748" r="1.6" stroke="#191919" stroke-width="0.7 px" style="stroke-width:0.7;stroke-miterlimit:4;stroke-dasharray:none;stroke-linecap:square;fill:none"/>
<path id="Body001_cs_w0022"  d="M 30.888912 -21.40906236864411 L 30.888912 -32.34911695996411 A 1.6 1.6 0 1 1 32.7764 -32.6631L 32.776424 -21.581760625181868 A 1.6 1.6 0 1 1 30.8889 -21.4091" stroke="#191919" stroke-width="0.7 px" style="stroke-width:0.7;stroke-miterlimit:4;stroke-dasharray:none;stroke-linecap:square;fill:none;fill-opacity:1;fill-rule: evenodd"/>
<circle cx="44.454826" cy="-8.557851" r="1.6" stroke="#191919" stroke-width="0.7 px" style="stroke-width:0.7;stroke-miterlimit:4;stroke-dasharray:none;stroke-linecap:square;fill:none"/>
<circle cx="4.026858" cy="-7.966252" r="10.0" stroke="#191919" stroke-width="0.7 px" style="stroke-width:0.7;stroke-miterlimit:4;stroke-dasharray:none;stroke-linecap:square;fill:none"/>
<path id="Body001_cs_w0025"  d="M 2.749945 10.862958 L 2.749945 5.6404594089761195 A 1.6 1.6 0 1 1 4.64204 5.60307L 4.642042 10.862958 L 2.749945 10.862958 " stroke="#191919" stroke-width="0.7 px" style="stroke-width:0.7;stroke-miterlimit:4;stroke-dasharray:none;stroke-linecap:square;fill:none;fill-opacity:1;fill-rule: evenodd"/>
<path id="Body001_cs_w0026"  d="M 4.957611 13.339841999999999 L 4.957611 18.72860590674637 A 1.6 1.6 0 1 1 2.74994 19.1769L 2.749945 13.339841999999999 L 4.957611 13.339841999999999 " stroke="#191919" stroke-width="0.7 px" style="stroke-width:0.7;stroke-miterlimit:4;stroke-dasharray:none;stroke-linecap:square;fill:none;fill-opacity:1;fill-rule: evenodd"/>
<circle cx="18.467859" cy="-7.940415" r="1.6" stroke="#191919" stroke-width="0.7 px" style="stroke-width:0.7;stroke-miterlimit:4;stroke-dasharray:none;stroke-linecap:square;fill:none"/>
<circle cx="32.211975" cy="-7.966252" r="10.0" stroke="#191919" stroke-width="0.7 px" style="stroke-width:0.7;stroke-miterlimit:4;stroke-dasharray:none;stroke-linecap:square;fill:none"/>
<path id="Body001_cs_w0029"  d="M 31.408117 10.862958 L 33.267868 10.862958 L 33.267868 7.396881311080353 A 1.6 1.6 0 1 0 31.4081 7.43586L 31.408117 10.862958 " stroke="#191919" stroke-width="0.7 px" style="stroke-width:0.7;stroke-miterlimit:4;stroke-dasharray:none;stroke-linecap:square;fill:none;fill-opacity:1;fill-rule: evenodd"/>
<path id="Body001_cs_w0030"  d="M 33.407238 13.339841999999999 L 33.407238 18.907767362594008 A 1.6 1.6 0 1 1 31.2567 18.929L 31.256668 13.339841999999999 L 33.407238 13.339841999999999 " stroke="#191919" stroke-width="0.7 px" style="stroke-width:0.7;stroke-miterlimit:4;stroke-dasharray:none;stroke-linecap:square;fill:none;fill-opacity:1;fill-rule: evenodd"/>
<circle cx="-6.479668" cy="25.273937" r="1.6" stroke="#191919" stroke-width="0.7 px" style="stroke-width:0.7;stroke-miterlimit:4;stroke-dasharray:none;stroke-linecap:square;fill:none"/>
<circle cx="4.026858" cy="31.990425" r="10.0" stroke="#191919" stroke-width="0.7 px" style="stroke-width:0.7;stroke-miterlimit:4;stroke-dasharray:none;stroke-linecap:square;fill:none"/>
<path id="Body001_cs_w0033"  d="M 3.373207 50.126442 L 5.52568 50.126442 L 5.52568 47.03175636816273 A 1.6 1.6 0 1 0 3.37321 47.2008L 3.373207 50.126442 " stroke="#191919" stroke-width="0.7 px" style="stroke-width:0.7;stroke-miterlimit:4;stroke-dasharray:none;stroke-linecap:square;fill:none;fill-opacity:1;fill-rule: evenodd"/>
<circle cx="19.793097640126113" cy="23.950845576402603" r="1.0" stroke="#191919" stroke-width="0.7 px" style="stroke-width:0.7;stroke-miterlimit:4;stroke-dasharray:none;stroke-linecap:square;fill:none"/>
<circle cx="18.12071" cy="32.046814" r="1.6" stroke="#191919" stroke-width="0.7 px" style="stroke-width:0.7;stroke-miterlimit:4;stroke-dasharray:none;stroke-linecap:square;fill:none"/>
<circle cx="32.211975" cy="31.990425" r="10.0" stroke="#191919" stroke-width="0.7 px" style="stroke-width:0.7;stroke-miterlimit:4;stroke-dasharray:none;stroke-linecap:square;fill:none"/>
<circle cx="44.331188" cy="32.394405" r="1.6" stroke="#191919" stroke-width="0.7 px" style="stroke-width:0.7;stroke-miterlimit:4;stroke-dasharray:none;stroke-linecap:square;fill:none"/>
<path id="Body001_cs_w0038"  d="M 31.465717 50.071251 L 33.783768 50.071251 L 33.783768 44.97236645036306 A 1.6 1.6 0 1 0 31.4657 45.2946L 31.465717 50.071251 " stroke="#191919" stroke-width="0.7 px" style="stroke-width:0.7;stroke-miterlimit:4;stroke-dasharray:none;stroke-linecap:square;fill:none;fill-opacity:1;fill-rule: evenodd"/>
<title>b'Panel CS Middle Cut'</title>
</g>
</svg>