<?xml version="1.0" encoding="UTF-8" standalone="no"?>
<!-- Created with Inkscape (http://www.inkscape.org/) -->

<svg
   width="12in"
   height="12in"
   viewBox="0 0 304.8 304.8"
   version="1.1"
   id="svg1"
   inkscape:version="1.3.2 (091e20e, 2023-11-25, custom)"
   sodipodi:docname="Engine-Panels-Lasercut&amp;Engrave.svg"
   xml:space="preserve"
   xmlns:inkscape="http://www.inkscape.org/namespaces/inkscape"
   xmlns:sodipodi="http://sodipodi.sourceforge.net/DTD/sodipodi-0.dtd"
   xmlns="http://www.w3.org/2000/svg"
   xmlns:svg="http://www.w3.org/2000/svg"><sodipodi:namedview
     id="namedview1"
     pagecolor="#ffffff"
     bordercolor="#000000"
     borderopacity="0.25"
     inkscape:showpageshadow="2"
     inkscape:pageopacity="0.0"
     inkscape:pagecheckerboard="0"
     inkscape:deskcolor="#d1d1d1"
     inkscape:document-units="mm"
     inkscape:zoom="1.1575153"
     inkscape:cx="507.55267"
     inkscape:cy="187.90248"
     inkscape:window-width="1920"
     inkscape:window-height="1009"
     inkscape:window-x="-8"
     inkscape:window-y="-8"
     inkscape:window-maximized="1"
     inkscape:current-layer="layer1" /><defs
     id="defs1" /><g
     inkscape:label="Layer 1"
     inkscape:groupmode="layer"
     id="layer1"><g
       id="Slice_child0_cs"
       transform="matrix(-1,0,0,1,99.349634,148.66782)"
       inkscape:label="Panel Middle"><path
         id="Slice_child0_cs_w0000"
         d="M -90.4592,42.531748 H 78.159405 A 7,7 0 0 0 85.1594,35.5317 l 5e-6,-71.443969 A 7,7 0 0 0 78.1594,-42.9123 l -71.58451,3.1e-5 c -7.4946494,0.303422 -14.9379982,1.075384 -22.330046,2.315887 -4.690111,0.902231 -8.260539,1.789255 -12.337071,2.972021 -1.592881,0.508289 -3.185762,1.016577 -4.778643,1.524866 -6.43602,2.138012 -12.607356,5.007366 -18.485685,8.985008 -4.625141,3.129397 -9.00477,6.720121 -13.138888,10.772172 -4.985801,4.846669 -9.921291,10.3512946 -14.352464,16.08453383 -4.074191,5.25307287 -7.589281,10.78971417 -10.545271,16.60992517 -2.450091,4.815516 -4.504768,9.772705 -6.164031,14.871567 -0.713158,2.345599 -1.411575,4.692121 -0.576108,7.006063 0.45212,1.17382 1.178262,2.151659 2.178425,2.93352 1.036561,0.732259 2.201792,1.18841 3.495692,1.368454"
         stroke="#191919"
         stroke-width="0.7 px"
         style="fill:none;fill-opacity:1;fill-rule:evenodd;stroke-width:0.1;stroke-linecap:square;stroke-miterlimit:4;stroke-dasharray:none;stroke:#000000;stroke-opacity:1" /><circle
         cx="71.896545"
         cy="-30.166836"
         r="5.75"
         stroke="#191919"
         stroke-width="0.7 px"
         style="fill:none;stroke-width:0.1;stroke-linecap:square;stroke-miterlimit:4;stroke-dasharray:none;stroke:#000000;stroke-opacity:1"
         id="circle1-4" /><path
         id="Slice_child0_cs_w0002"
         d="M 56.175708,-29.308919 V 28.853496 A 3,3 0 0 1 53.1757,31.8535 l -95.97626,-4e-6 c -1.2803,-0.01819 -2.047333,-1.223872 -2.802256,-2.126774 -0.501478,-0.762729 -1.002956,-1.525459 -1.504434,-2.288189 L -58.2253,4.67572 q -0.76251,-1.9044163 0.198007,-3.75735544 1.44897,-2.43601286 3.388725,-4.52262016 3.280183,-3.8323871 6.787021,-7.4582664 7.474223,-7.963212 17.228107,-12.855718 4.805705,-2.436963 9.965433,-3.997759 4.883433,-1.549876 9.647561,-2.546858 3.0739962,-0.596207 6.1942487,-0.868231 2.6286933,-0.25759 5.68962897,-0.45916 Q 5.8580158,-32.049584 10.8426,-32.308919 H 53.175708 A 3,3 0 0 1 56.1757,-29.3089"
         stroke="#191919"
         stroke-width="0.7 px"
         style="fill:none;fill-opacity:1;fill-rule:evenodd;stroke-width:0.1;stroke-linecap:square;stroke-miterlimit:4;stroke-dasharray:none;stroke:#000000;stroke-opacity:1" /><circle
         cx="-63.864422"
         cy="22.168289"
         r="6.5"
         stroke="#191919"
         stroke-width="0.7 px"
         style="fill:none;stroke-width:0.1;stroke-linecap:square;stroke-miterlimit:4;stroke-dasharray:none;stroke:#000000;stroke-opacity:1"
         id="circle2-4" /><circle
         cx="-89.77919"
         cy="36.087128"
         r="2"
         stroke="#191919"
         stroke-width="0.7 px"
         style="fill:none;stroke-width:0.1;stroke-linecap:square;stroke-miterlimit:4;stroke-dasharray:none;stroke:#000000;stroke-opacity:1"
         id="circle3-0" /><circle
         cx="78.93644"
         cy="36.087128"
         r="2"
         stroke="#191919"
         stroke-width="0.7 px"
         style="fill:none;stroke-width:0.1;stroke-linecap:square;stroke-miterlimit:4;stroke-dasharray:none;stroke:#000000;stroke-opacity:1"
         id="circle4-1" /><title
         id="title4">b'CrossSection Panel Middle'</title></g><g
       id="Cut003_cs"
       transform="matrix(-1,0,0,1,99.349634,240.72686)"
       inkscape:label="Panel Top"><path
         id="Cut003_cs_w0000"
         d="M -90.4592,42.531748 H 78.159405 A 7,7 0 0 0 85.1594,35.5317 l 5e-6,-71.443969 A 7,7 0 0 0 78.1594,-42.9123 l -71.58451,3.1e-5 c -7.4946494,0.303422 -14.9379982,1.075384 -22.330046,2.315887 -4.690111,0.902231 -8.260539,1.789255 -12.337071,2.972021 -1.592881,0.508289 -3.185762,1.016577 -4.778643,1.524866 -6.43602,2.138012 -12.607356,5.007366 -18.485685,8.985008 -4.625141,3.129397 -9.00477,6.720121 -13.138888,10.772172 -4.985801,4.846669 -9.921291,10.3512946 -14.352464,16.08453383 -4.074191,5.25307287 -7.589281,10.78971417 -10.545271,16.60992517 -2.450091,4.815516 -4.504768,9.772705 -6.164031,14.871567 -0.713158,2.345599 -1.411575,4.692121 -0.576108,7.006063 0.45212,1.17382 1.178262,2.151659 2.178425,2.93352 1.036561,0.732259 2.201792,1.18841 3.495692,1.368454"
         stroke="#191919"
         stroke-width="0.7 px"
         style="fill:none;fill-opacity:1;fill-rule:evenodd;stroke-width:0.1;stroke-linecap:square;stroke-miterlimit:4;stroke-dasharray:none" /><circle
         cx="71.896545"
         cy="-30.166836"
         r="4"
         stroke="#191919"
         stroke-width="0.7 px"
         style="fill:none;stroke-width:0.1;stroke-linecap:square;stroke-miterlimit:4;stroke-dasharray:none"
         id="circle1-47" /><path
         id="Cut003_cs_w0011"
         d="M 57.175708,28.853496 A 4,4 0 0 1 53.1757,32.8535 l -95.97626,-4e-6 c -2.602677,-0.265083 -4.088879,-2.879508 -5.205966,-4.977583 L -59.107968,5.0507833 c -1.036469,-1.7900982 -0.521945,-3.9993398 0.669295,-5.57342772 0.916367,-1.29592968 1.896522,-2.54272748 2.940466,-3.74039348 2.013166,-2.3843242 4.105836,-4.6966849 6.27801,-6.9370821 5.229024,-5.546479 11.213075,-10.093198 17.952154,-13.640157 6.424711,-3.330708 13.48711,-5.218576 20.560029,-6.589681 7.1158343,-1.232663 14.3494131,-1.533194 21.550614,-1.878961 H 53.175708 A 4,4 0 0 1 57.1757,-29.3089 l 8e-6,58.162396"
         stroke="#191919"
         stroke-width="0.7 px"
         style="fill:none;fill-opacity:1;fill-rule:evenodd;stroke-width:0.1;stroke-linecap:square;stroke-miterlimit:4;stroke-dasharray:none" /><circle
         cx="-63.864422"
         cy="22.168289"
         r="4"
         stroke="#191919"
         stroke-width="0.7 px"
         style="fill:none;stroke-width:0.1;stroke-linecap:square;stroke-miterlimit:4;stroke-dasharray:none"
         id="circle2-5" /><circle
         cx="-89.77919"
         cy="36.087128"
         r="2"
         stroke="#191919"
         stroke-width="0.7 px"
         style="fill:none;stroke-width:0.1;stroke-linecap:square;stroke-miterlimit:4;stroke-dasharray:none"
         id="circle3-2" /><circle
         cx="78.93644"
         cy="36.087128"
         r="2"
         stroke="#191919"
         stroke-width="0.7 px"
         style="fill:none;stroke-width:0.1;stroke-linecap:square;stroke-miterlimit:4;stroke-dasharray:none"
         id="circle4-6" /><title
         id="title4-6">b'CrossSection Panel Top'</title><g
         inkscape:groupmode="layer"
         id="layer2"
         inkscape:label="Panel Top Engrave"
         transform="matrix(-1,0,0,1,99.349634,-240.72686)"
         style="display:inline;stroke-width:0.1;stroke-dasharray:none"><path
           id="Cut003_cs_w0001"
           d="m 16.723899,-40.047296 h 2.438119 q 0.311264,0.02331 0.357683,0.352645 v 4.448699 q -0.04327,0.316978 -0.357683,0.358522 h -2.438119 q -0.34718,-0.04666 -0.353149,-0.353317 0.006,-0.306893 0.353149,-0.356003 h 2.087993 v -1.65508 h -1.591604 q -0.349232,-0.04656 -0.355163,-0.356339 0.0059,-0.310007 0.355163,-0.358858 h 1.591604 v -1.377666 h -2.088497 q -0.348804,-0.02144 -0.352645,-0.348783 0.0039,-0.327493 0.353149,-0.35382"
           stroke="#191919"
           stroke-width="0.7 px"
           style="fill:#ff0000;fill-opacity:1;fill-rule:evenodd;stroke-width:0.025;stroke-linecap:square;stroke-miterlimit:4;stroke-dasharray:none;stroke:#ff0000;stroke-opacity:1"
           transform="matrix(-1,0,0,1,99.349634,240.72686)" /><path
           id="Cut003_cs_w0002"
           d="m 20.239768,-39.675004 q 0.02308,-0.350271 0.343913,-0.354995 0.321253,0.0048 0.366414,0.354995 v 3.207221 l 2.118556,-3.396138 q 0.150718,-0.237266 0.384719,-0.156171 0.231557,0.08477 0.268514,0.345088 v 4.445844 q -0.04885,0.346413 -0.353821,0.352477 -0.305202,-0.0061 -0.356507,-0.352477 v -3.204702 L 20.893,-35.041586 q -0.141702,0.221185 -0.397145,0.149958 -0.255487,-0.07215 -0.256087,-0.336356 v -4.44702"
           stroke="#191919"
           stroke-width="0.7 px"
           style="fill:#ff0000;fill-opacity:1;fill-rule:evenodd;stroke-width:0.025;stroke-linecap:square;stroke-miterlimit:4;stroke-dasharray:none;stroke:#ff0000;stroke-opacity:1"
           transform="matrix(-1,0,0,1,99.349634,240.72686)" /><path
           id="Cut003_cs_w0003"
           d="m 24.435906,-39.690621 q 0.05123,-0.349294 0.359026,-0.355499 0.307562,0.0062 0.356339,0.355499 v 4.458438 q -0.04878,0.349303 -0.356339,0.3555 -0.3078,-0.0062 -0.359026,-0.3555 v -4.458438"
           stroke="#191919"
           stroke-width="0.7 px"
           style="fill:#ff0000;fill-opacity:1;fill-rule:evenodd;stroke-width:0.025;stroke-linecap:square;stroke-miterlimit:4;stroke-dasharray:none;stroke:#ff0000;stroke-opacity:1"
           transform="matrix(-1,0,0,1,99.349634,240.72686)" /><path
           id="Cut003_cs_w0004"
           d="m 26.677383,-36.961654 h 0.599664 l 0.02267,-0.0025 q 0.30657,-0.03911 0.307305,-0.350798 -7.23e-4,-0.311844 -0.307305,-0.350966 l -0.02267,-0.005 h -0.952309 l -0.250545,0.104618 -0.104618,0.250881 v 1.278086 l 0.03023,0.06549 0.01763,0.0403 0.01763,0.03778 0.0403,0.07557 0.01763,0.03778 0.02015,0.03778 0.02267,0.03778 q 0.418602,0.778469 1.214105,0.812259 0.788422,-0.06588 1.219144,-0.819815 l 0.347607,-0.953149 0.06801,-1.171117 -0.278253,-1.138371 q -0.228608,-0.534158 -0.696558,-0.85743 -0.556814,-0.387823 -1.128463,-0.09202 -0.545049,0.297439 -0.821159,0.845004 l -0.02015,0.0403 -0.01511,0.03526 -0.02015,0.03778 q -0.08586,0.235909 0.06549,0.390261 l 0.317381,0.107137 0.264483,-0.202855 q 0.228942,-0.667335 0.75953,-0.637112 0.506979,0.143061 0.69639,0.760538 0.22907,0.664568 0.178841,1.386398 -0.04371,0.728783 -0.483627,1.293198 -0.275374,0.373201 -0.609572,0.246852 -0.319154,-0.148844 -0.488665,-0.516373 l -0.02771,-0.05525 v -0.768262"
           stroke="#191919"
           stroke-width="0.7 px"
           style="fill:#ff0000;fill-opacity:1;fill-rule:evenodd;stroke-width:0.025;stroke-linecap:square;stroke-miterlimit:4;stroke-dasharray:none;stroke:#ff0000;stroke-opacity:1"
           transform="matrix(-1,0,0,1,99.349634,240.72686)" /><path
           id="Cut003_cs_w0005"
           d="m 29.718861,-39.675004 q 0.02308,-0.350271 0.343913,-0.354995 0.321253,0.0048 0.366414,0.354995 v 3.207221 l 2.118556,-3.396138 q 0.150719,-0.237266 0.384719,-0.156171 0.231557,0.08477 0.268514,0.345088 v 4.445844 q -0.04886,0.346413 -0.35382,0.352477 -0.305203,-0.0061 -0.356508,-0.352477 v -3.204702 l -2.118555,3.392276 q -0.141703,0.221185 -0.397146,0.149958 -0.255486,-0.07215 -0.256087,-0.336356 v -4.44702"
           stroke="#191919"
           stroke-width="0.7 px"
           style="fill:#ff0000;fill-opacity:1;fill-rule:evenodd;stroke-width:0.025;stroke-linecap:square;stroke-miterlimit:4;stroke-dasharray:none;stroke:#ff0000;stroke-opacity:1"
           transform="matrix(-1,0,0,1,99.349634,240.72686)" /><path
           id="Cut003_cs_w0006"
           d="m 34.252698,-40.047296 h 2.438119 q 0.311264,0.02331 0.357683,0.352645 v 4.448699 q -0.04327,0.316978 -0.357683,0.358522 h -2.438119 q -0.347179,-0.04666 -0.353148,-0.353317 0.006,-0.306893 0.353148,-0.356003 h 2.087993 v -1.65508 h -1.591603 q -0.349233,-0.04656 -0.355164,-0.356339 0.0059,-0.310007 0.355164,-0.358858 h 1.591603 v -1.377666 h -2.088497 q -0.348804,-0.02144 -0.352644,-0.348783 0.0039,-0.327493 0.353148,-0.35382"
           stroke="#191919"
           stroke-width="0.7 px"
           style="fill:#ff0000;fill-opacity:1;fill-rule:evenodd;stroke-width:0.025;stroke-linecap:square;stroke-miterlimit:4;stroke-dasharray:none;stroke:#ff0000;stroke-opacity:1"
           transform="matrix(-1,0,0,1,99.349634,240.72686)" /><path
           id="Cut003_cs_w0007"
           d="m 69.647325,-35.10416 v -2.560453 h -0.575777 q -0.216322,-0.01573 -0.21715,-0.222712 8.3e-4,-0.206993 0.21715,-0.224287 h 1.597922 q 0.219454,0.01865 0.220508,0.224287 -0.0011,0.205622 -0.220508,0.222712 h -0.578191 v 2.560453 q -0.01507,0.219003 -0.211692,0.220403 -0.196975,-0.0015 -0.232262,-0.220403"
           stroke="#191919"
           stroke-width="0.7 px"
           style="fill:#ff0000;fill-opacity:1;fill-rule:evenodd;stroke-width:0.025;stroke-linecap:square;stroke-miterlimit:4;stroke-dasharray:none;stroke:#ff0000;stroke-opacity:1"
           transform="matrix(-1,0,0,1,99.349634,240.72686)" /><path
           id="Cut003_cs_w0008"
           d="m 71.336241,-37.889424 q 0.03343,-0.220411 0.224392,-0.222188 0.190833,0.0018 0.222712,0.222188 v 2.786524 q -0.03188,0.220413 -0.222712,0.222187 -0.190959,-0.0018 -0.224392,-0.222187 v -2.786524"
           stroke="#191919"
           stroke-width="0.7 px"
           style="fill:#ff0000;fill-opacity:1;fill-rule:evenodd;stroke-width:0.025;stroke-linecap:square;stroke-miterlimit:4;stroke-dasharray:none;stroke:#ff0000;stroke-opacity:1"
           transform="matrix(-1,0,0,1,99.349634,240.72686)" /><path
           id="Cut003_cs_w0009"
           d="m 74.024948,-38.111612 q 0.196509,0.02847 0.223552,0.223447 v 2.781801 q -0.03014,0.191916 -0.223552,0.218829 h -0.842359 l -0.593514,-0.203086 -0.336062,-0.436818 -0.03705,-0.553421 0.302267,-0.551113 -0.277812,-0.455604 0.0212,-0.467569 0.282641,-0.37542 0.502939,-0.181046 h 0.977749"
           stroke="#191919"
           stroke-width="0.7 px"
           style="fill:#ff0000;fill-opacity:1;fill-rule:evenodd;stroke-width:0.025;stroke-linecap:square;stroke-miterlimit:4;stroke-dasharray:none;stroke:#ff0000;stroke-opacity:1"
           transform="matrix(-1,0,0,1,99.349634,240.72686)" /><path
           id="Cut003_cs_w0012"
           d="m -66.62522,15.09584 v -2.560453 h -0.575776 q -0.216322,-0.01573 -0.21715,-0.222712 8.3e-4,-0.206993 0.21715,-0.224287 h 1.597922 q 0.219454,0.01865 0.220508,0.224287 -0.0011,0.205622 -0.220508,0.222712 h -0.578191 v 2.560453 q -0.01508,0.219003 -0.211692,0.220403 -0.196975,-0.0015 -0.232263,-0.220403"
           stroke="#191919"
           stroke-width="0.7 px"
           style="fill:#ff0000;fill-opacity:1;fill-rule:evenodd;stroke-width:0.025;stroke-linecap:square;stroke-miterlimit:4;stroke-dasharray:none;stroke:#ff0000;stroke-opacity:1"
           transform="matrix(-1,0,0,1,99.349634,240.72686)" /><path
           id="Cut003_cs_w0013"
           d="m -64.172134,13.970001 -0.02991,-0.0047 q -0.37065,-0.07113 -0.5911,-0.391163 -0.221817,-0.319455 -0.156696,-0.692171 0.06259,-0.343686 0.322733,-0.569164 0.261229,-0.224678 0.612406,-0.224392 h 0.977645 l 0.156696,0.06465 0.06371,0.155856 v 2.781801 l -0.08659,0.174749 -0.232998,0.02288 -0.12437,-0.197628 v -1.108102 h -0.393577 l -0.776133,1.226175 -0.143997,0.09761 -0.174013,-0.03621 q -0.157103,-0.12161 -0.05667,-0.299013 l 0.632871,-1.001154"
           stroke="#191919"
           stroke-width="0.7 px"
           style="fill:#ff0000;fill-opacity:1;fill-rule:evenodd;stroke-width:0.025;stroke-linecap:square;stroke-miterlimit:4;stroke-dasharray:none;stroke:#ff0000;stroke-opacity:1"
           transform="matrix(-1,0,0,1,99.349634,240.72686)" /><path
           id="Cut003_cs_w0014"
           d="m -60.575052,12.088388 q 0.196509,0.02847 0.223552,0.223447 v 2.781801 q -0.03014,0.191916 -0.223552,0.218829 h -0.842359 l -0.593514,-0.203086 -0.336062,-0.436818 -0.03705,-0.553421 0.302267,-0.551113 -0.277812,-0.455604 0.0212,-0.467569 0.282641,-0.37542 0.502939,-0.181046 h 0.977749"
           stroke="#191919"
           stroke-width="0.7 px"
           style="fill:#ff0000;fill-opacity:1;fill-rule:evenodd;stroke-width:0.025;stroke-linecap:square;stroke-miterlimit:4;stroke-dasharray:none;stroke:#ff0000;stroke-opacity:1"
           transform="matrix(-1,0,0,1,99.349634,240.72686)" /><path
           id="Cut003_cs_w0018"
           d="m 73.802971,-35.332959 v -1.112826 H 73.16842 l -0.407745,0.209383 -0.12668,0.370592 0.145571,0.359677 0.407746,0.173174 h 0.615659"
           stroke="#191919"
           stroke-width="0.7 px"
           style="fill:#ffffff;fill-opacity:1;fill-rule:evenodd;stroke-width:0.025;stroke-linecap:square;stroke-miterlimit:4;stroke-dasharray:none;stroke:#ff0000;stroke-opacity:1"
           transform="matrix(-1,0,0,1,99.349634,240.72686)" /><path
           id="Cut003_cs_w0019"
           d="m 72.659919,-37.287934 0.09446,0.257976 0.288099,0.140849 h 0.760495 v -0.775714 h -0.756822 l -0.288413,0.125105 -0.09782,0.251784"
           stroke="#191919"
           stroke-width="0.7 px"
           style="fill:#ffffff;fill-opacity:1;fill-rule:evenodd;stroke-width:0.025;stroke-linecap:square;stroke-miterlimit:4;stroke-dasharray:none;stroke:#ff0000;stroke-opacity:1"
           transform="matrix(-1,0,0,1,99.349634,240.72686)" /><path
           id="Cut003_cs_w0020"
           d="m -63.26061,13.53927 v -1.003883 h -0.776133 q -0.248001,0.02015 -0.390429,0.21568 -0.14164,0.196284 -0.0677,0.436923 l 0.183459,0.254093 0.296705,0.09719 h 0.754093"
           stroke="#191919"
           stroke-width="0.7 px"
           style="fill:#ffffff;fill-opacity:1;fill-rule:evenodd;stroke-width:0.025;stroke-linecap:square;stroke-miterlimit:4;stroke-dasharray:none;stroke:#ff0000;stroke-opacity:1"
           transform="matrix(-1,0,0,1,99.349634,240.72686)" /><path
           id="Cut003_cs_w0021"
           d="m -60.797029,14.867041 v -1.112826 h -0.634551 l -0.407745,0.209383 -0.12668,0.370592 0.145571,0.359677 0.407746,0.173174 h 0.615659"
           stroke="#191919"
           stroke-width="0.7 px"
           style="fill:#ffffff;fill-opacity:1;fill-rule:evenodd;stroke-width:0.025;stroke-linecap:square;stroke-miterlimit:4;stroke-dasharray:none;stroke:#ff0000;stroke-opacity:1"
           transform="matrix(-1,0,0,1,99.349634,240.72686)" /><path
           id="Cut003_cs_w0022"
           d="m -61.940081,12.912066 0.09446,0.257976 0.288099,0.140849 h 0.760495 v -0.775714 h -0.756822 l -0.288413,0.125105 -0.09782,0.251784"
           stroke="#191919"
           stroke-width="0.7 px"
           style="display:inline;fill:#ffffff;fill-opacity:1;fill-rule:evenodd;stroke-width:0.025;stroke-linecap:square;stroke-miterlimit:4;stroke-dasharray:none;stroke:#ff0000;stroke-opacity:1"
           transform="matrix(-1,0,0,1,99.349634,240.72686)" /></g></g><g
       id="Cut_cs"
       transform="matrix(-1,0,0,1,230.53901,50.82365)"
       inkscape:label="Window Glass"><path
         id="Cut_cs_w0000"
         d="m -13.287838,-30.402447 2.693408,-0.539936 c 7.0824113,-1.223416 14.2809542,-1.522239 21.447633,-1.866536 H 53.175708 A 3.5,3.5 0 0 1 56.6757,-29.3089 l 8e-6,58.162396 A 3.5,3.5 0 0 1 53.1757,32.3535 l -95.97626,-4e-6 c -2.243755,-0.267302 -3.531858,-2.508484 -4.556638,-4.299862 L -47.556888,27.657223 -58.65833,4.8320931 q -0.508275,-0.977039 -0.522259,-2.0731101 c 0.104907,-1.97670646 1.526683,-3.52241245 2.670363,-5.0176494 1.13313,-1.3340152 2.266259,-2.6680304 3.399389,-4.0020456 q 4.2568,-4.87744 9.063261,-9.210745 l 0.112549,-0.09906 0.79587,-0.687643 0.08078,-0.06855 q 2.478551,-2.100298 5.154347,-3.942723 l 0.0058,-0.004 q 4.824883,-3.336319 10.187246,-5.709655 3.427401,-1.4517 6.996179,-2.513484 3.674523,-1.104116 7.426984,-1.905888"
         stroke="#191919"
         stroke-width="0.7 px"
         style="fill:none;fill-opacity:1;fill-rule:evenodd;stroke-width:0.1;stroke-linecap:square;stroke-miterlimit:4;stroke-dasharray:none" /><title
         id="title1">b'CrossSection Window Acrylic'</title></g><g
       id="Connect"
       transform="matrix(-1,0,0,1,89.045727,57.194151)"
       style="display:inline"
       inkscape:label="Panel Bottom"><path
         id="Connect_w0001"
         d="m 1.7726189,-25.955535 q 0.2085393,-0.262827 0.1972187,-0.666858 0.0034,-0.34054 -0.1761147,-0.597452 -0.1838934,-0.247491 -0.5127388,-0.244628 -0.30559949,-3.84e-4 -0.50932062,0.220106 -0.21187613,0.254185 -0.2018259,0.646645 -0.008845,0.385811 0.2040552,0.639958 0.20363628,0.22379 0.50486202,0.224416 0.2964441,-4.82e-4 0.4938641,-0.222187"
         stroke="#191919"
         stroke-width="0.7 px"
         style="fill:#ff0000;fill-opacity:1;fill-rule:evenodd;stroke-width:0.025;stroke-linecap:square;stroke-miterlimit:4;stroke-dasharray:none" /><path
         id="Connect_w0003"
         d="m -26.513465,-7.5104109 v -0.384131 h 0.299832 l 0.01134,-0.00126 q 0.15344,-0.019307 0.153653,-0.1753989 -2.1e-4,-0.1561714 -0.153653,-0.1754828 l -0.01134,-0.00252 h -0.476154 l -0.125273,0.052309 -0.05231,0.1254408 v 0.6390429 l 0.01511,0.032746 0.0088,0.020151 0.0088,0.018892 0.02015,0.037783 0.0088,0.018892 0.01008,0.018892 0.01133,0.018892 q 0.214068,0.3928256 0.607053,0.4061293 0.389901,-0.02972 0.609572,-0.4099076 l 0.173804,-0.4765743 0.034,-0.5855584 -0.139127,-0.5691855 -0.348279,-0.4287154 q -0.280889,-0.1944828 -0.564232,-0.046012 l -0.410579,0.4225021 -0.01008,0.020151 -0.0076,0.017632 -0.01008,0.018892 0.03275,0.1951301 0.15869,0.053568 0.132242,-0.1014274 q 0.122649,-0.3415444 0.379765,-0.3185558 0.248173,0.065239 0.348195,0.3802686 l 0.08942,0.693199 q -0.0222,0.3654847 -0.241813,0.6465995 -0.142123,0.188827 -0.304786,0.1234257 l -0.244333,-0.2581864 -0.01385,-0.027624"
         stroke="#191919"
         stroke-width="0.7 px"
         style="fill:#ff0000;fill-opacity:1;fill-rule:evenodd;stroke-width:0.025;stroke-linecap:square;stroke-miterlimit:4;stroke-dasharray:none;stroke:#ff0000;stroke-opacity:1" /><path
         id="Connect_w0004"
         d="m -24.826899,-9.4373631 q -0.175426,0.013445 -0.176574,0.1769102 0.0011,0.1634215 0.176322,0.1743913 h 1.044249 v 0.6888329 h -0.795802 q -0.175837,0.025222 -0.177582,0.179429 0.0017,0.1541043 0.177582,0.1781696 h 0.795802 v 0.8275399 h -1.043997 q -0.17482,0.02537 -0.176574,0.1780017 0.0018,0.1525276 0.176574,0.1766583 h 1.21906 l 0.178841,-0.1792612 v -2.2243492 q -0.02351,-0.1653246 -0.178841,-0.1763225 h -1.21906"
         stroke="#191919"
         stroke-width="0.7 px"
         style="fill:#ff0000;fill-opacity:1;fill-rule:evenodd;stroke-width:0.025;stroke-linecap:square;stroke-miterlimit:4;stroke-dasharray:none;stroke:#ff0000;stroke-opacity:1" /><path
         id="Connect_w0005"
         d="m -21.456874,-9.2702766 -0.05105,-0.1178841 -0.123006,-0.048615 h -0.592779 q -0.446462,0.00493 -0.663308,0.4035264 -0.222591,0.4119543 -0.220739,0.8876575 -0.0018,0.4757157 0.220991,0.8876574 0.21661,0.3981709 0.661712,0.4034425 h 0.593115 l 0.045,-0.00756 0.130058,-0.1715365 v -2.2266163 -0.010076"
         stroke="#191919"
         stroke-width="0.7 px"
         style="fill:#ff0000;fill-opacity:1;fill-rule:evenodd;stroke-width:0.025;stroke-linecap:square;stroke-miterlimit:4;stroke-dasharray:none;stroke:#ff0000;stroke-opacity:1" /><path
         id="Connect_w0006"
         d="m -17.309623,-5.0018573 q 0.403018,-0.068816 0.271095,-0.4650503 l -1.841247,-3.4281487 h 1.563539 q 0.304359,-0.02115 0.310916,-0.2996011 -0.0068,-0.2795246 -0.310916,-0.3261965 h -2.077225 l -0.26992,0.1534005 -0.0034,0.3056255 1.830079,3.434173 h -1.697984 q -0.306964,0.040724 -0.315324,0.3140008 0.0083,0.2731724 0.315324,0.3117968 h 2.225042"
         stroke="#191919"
         stroke-width="0.7 px"
         style="fill:#ff0000;fill-opacity:1;fill-rule:evenodd;stroke-width:0.025;stroke-linecap:square;stroke-miterlimit:4;stroke-dasharray:none;stroke:#ff0000;stroke-opacity:1" /><path
         id="Connect_w0007"
         d="m 0.81606927,-8.8467501 -0.2238665,0.3810453 -0.0656171,0.5430731 0.15440806,0.5137279 0.22953401,0.245592 0.32115866,0.070781 q 0.2860751,-0.05051 0.4382872,-0.2984257 L 1.8442809,-7.9438534 1.762102,-8.5374302 Q 1.6631588,-8.8191599 1.4291045,-8.9577073 L 1.1957922,-9.021939 0.81606927,-8.8467501"
         stroke="#191919"
         stroke-width="0.7 px"
         style="fill:#ff0000;fill-opacity:1;fill-rule:evenodd;stroke-width:0.025;stroke-linecap:square;stroke-miterlimit:4;stroke-dasharray:none;stroke:#ff0000;stroke-opacity:1" /><path
         id="Connect_w0008"
         d="m -15.737415,-9.1120798 -0.522355,0.8891058 q -0.203365,0.617028 -0.153107,1.2671705 0.04564,0.6427383 0.360285,1.1986985 l 0.53558,0.5730479 q 0.340431,0.2351511 0.74937,0.1651553 0.667159,-0.1190045 1.02267,-0.6963266 0.358846,-0.5935329 0.406717,-1.2900923 0.05118,-0.712584 -0.19175,-1.3850126 -0.216979,-0.6387536 -0.776995,-0.9806465 l -0.544395,-0.1498741 q -0.53864,1.887e-4 -0.88602,0.4087741"
         stroke="#191919"
         stroke-width="0.7 px"
         style="fill:#ff0000;fill-opacity:1;fill-rule:evenodd;stroke-width:0.025;stroke-linecap:square;stroke-miterlimit:4;stroke-dasharray:none;stroke:#ff0000;stroke-opacity:1" /><path
         id="Connect_w0009"
         d="m -12.698351,-9.1961268 v 3.8911419 q 7.81e-4,0.2310591 0.224076,0.2943115 0.22331,0.062121 0.347502,-0.1312132 l 1.853736,-2.968241 v 2.8041142 q 0.04324,0.3006482 0.3119442,0.3084173 0.2684665,-0.00776 0.3095928,-0.3084173 v -3.8901134 q -0.031989,-0.227087 -0.2349496,-0.3019521 -0.2060604,-0.070098 -0.3366294,0.1366498 l -1.853736,2.9716205 v -2.8063182 q -0.03844,-0.3044395 -0.320613,-0.3106213 -0.281575,0.00605 -0.300923,0.3106213"
         stroke="#191919"
         stroke-width="0.7 px"
         style="fill:#ff0000;fill-opacity:1;fill-rule:evenodd;stroke-width:0.025;stroke-linecap:square;stroke-miterlimit:4;stroke-dasharray:none;stroke:#ff0000;stroke-opacity:1" /><path
         id="Connect_w0010"
         d="m -0.88525315,-5.6177473 q -0.11774555,-0.1302743 -0.24995805,-0.027036 -0.1310807,0.1034445 -0.038455,0.2348447 l 0.011335,0.016373 0.0063,0.00882 0.00504,0.00756 0.45281274,0.331822 q 0.28158693,0.098329 0.55222502,-0.035936 0.32554045,-0.1690043 0.46414778,-0.5338371 l 0.12720403,-0.7826197 -0.2141058,-0.7460957 q -0.19066516,-0.3369661 -0.5611251,-0.4256087 l -0.42191436,0.040974 -0.34508821,0.2523929 -0.0063,0.00882 -0.023929,0.1656591 0.1246852,0.1126785 0.1788413,-0.057935 0.32493703,-0.1889168 0.27959697,0.1284634 0.20528968,0.3098237 0.10075566,0.3537364 -0.0043661,0.3696054 -0.11402183,0.3494542 q -0.13896515,0.2750761 -0.38094038,0.3595298 -0.25283224,0.059481 -0.44903443,-0.2198153 l -0.0239295,-0.032746"
         stroke="#191919"
         stroke-width="0.7 px"
         style="fill:#ff0000;fill-opacity:1;fill-rule:evenodd;stroke-width:0.025;stroke-linecap:square;stroke-miterlimit:4;stroke-dasharray:none;stroke:#ff0000;stroke-opacity:1" /><path
         id="Connect_w0012"
         d="m 3.8859947,-27.676108 q 0.2087823,-0.262572 0.1972187,-0.667898 0.00317,-0.338995 -0.1761147,-0.596264 -0.1831889,-0.248373 -0.5105095,-0.245817 -0.3055995,-3.83e-4 -0.5093206,0.220106 -0.2118762,0.254185 -0.2018259,0.646646 -0.00885,0.38581 0.2040552,0.639957 0.2031893,0.223595 0.5026327,0.224416 0.2962937,-4.08e-4 0.4938641,-0.221146"
         stroke="#191919"
         stroke-width="0.7 px"
         style="fill:#ff0000;fill-opacity:1;fill-rule:evenodd;stroke-width:0.025;stroke-linecap:square;stroke-miterlimit:4;stroke-dasharray:none;stroke:#ff0000;stroke-opacity:1" /><path
         id="Connect_w0013"
         d="m 1.2698376,-29.186087 1.7812102,3.452739 H 3.3832134 L 1.5953153,-29.186087 H 1.2698376"
         stroke="#191919"
         stroke-width="0.7 px"
         style="fill:#ff0000;fill-opacity:1;fill-rule:evenodd;stroke-width:0.025;stroke-linecap:square;stroke-miterlimit:4;stroke-dasharray:none;stroke:#ff0000;stroke-opacity:1" /><path
         id="Connect_w0014"
         d="m 5.5495285,-30.057882 v 3.892318 q 0.042392,0.299844 0.3041562,0.308564 h 0.00661 q 0.2695303,-0.0076 0.3107683,-0.308564 v -2.752834 l 0.7559823,1.293766 0.2688917,0.152078 h 0.013224 l 0.2534635,-0.152078 0.7515743,-1.287154 -0.0022,2.746222 q 0.03336,0.299445 0.3173803,0.304156 h 0.00441 q 0.2816682,-0.0049 0.3019521,-0.304156 v -3.892318 q -0.015113,-0.244364 -0.222607,-0.304156 l -0.070529,-0.0088 h -0.013224 l -0.2732997,0.149874 -1.0601386,1.822733 -1.0711587,-1.822733 -0.2710957,-0.149874 -0.081549,0.01102 q -0.2057475,0.05599 -0.2226071,0.301952"
         stroke="#191919"
         stroke-width="0.7 px"
         style="fill:#ff0000;fill-opacity:1;fill-rule:evenodd;stroke-width:0.025;stroke-linecap:square;stroke-miterlimit:4;stroke-dasharray:none;stroke:#ff0000;stroke-opacity:1" /><path
         id="Connect_w0015"
         d="m 12.456225,-26.167768 v -3.894522 q -0.03219,-0.270542 -0.290932,-0.308564 h -1.445844 l -0.520151,0.127834 q -0.4608105,0.220305 -0.6457812,0.703085 l -0.094773,0.478275 0.099181,0.476071 q 0.151178,0.361043 0.4628462,0.576427 0.312802,0.210129 0.698678,0.232452 l 0.04188,0.0022 h 1.071159 v 1.606738 q 0.03565,0.303912 0.312972,0.310768 0.277237,-0.0068 0.310769,-0.310768"
         stroke="#191919"
         stroke-width="0.7 px"
         style="fill:#ff0000;fill-opacity:1;fill-rule:evenodd;stroke-width:0.025;stroke-linecap:square;stroke-miterlimit:4;stroke-dasharray:none;stroke:#ff0000;stroke-opacity:1" /><path
         id="Connect_w0016"
         d="m 14.15083,-27.737038 -0.88602,1.401763 -0.0551,0.182935 0.134446,0.235831 0.178526,0.05731 0.06612,-0.0066 0.200567,-0.13665 1.086587,-1.71694 h 0.551007 v 1.551638 q 3.77e-4,0.191698 0.174119,0.275504 l 0.143262,0.03747 0.182934,-0.06832 0.121222,-0.244647 v -3.894522 l -0.08919,-0.218199 -0.219374,-0.09037 h -1.368703 q -0.488947,-9.24e-4 -0.857368,0.314148 -0.364922,0.317551 -0.451826,0.796683 l -0.02204,0.233628 v 0.0066 q 0.004,0.394556 0.240239,0.729534 0.306144,0.443713 0.828715,0.546599 l 0.04188,0.0066"
         stroke="#191919"
         stroke-width="0.7 px"
         style="fill:#ff0000;fill-opacity:1;fill-rule:evenodd;stroke-width:0.025;stroke-linecap:square;stroke-miterlimit:4;stroke-dasharray:none;stroke:#ff0000;stroke-opacity:1" /><path
         id="Connect_w0017"
         d="m 32.817602,-28.258595 v 2.229219 q 0.02647,0.175926 0.179513,0.17775 0.152933,-0.0018 0.178169,-0.17775 v -2.229219 q -0.02524,-0.17593 -0.178169,-0.17775 -0.153039,0.0018 -0.179513,0.17775"
         stroke="#191919"
         stroke-width="0.7 px"
         style="fill:#ff0000;fill-opacity:1;fill-rule:evenodd;stroke-width:0.025;stroke-linecap:square;stroke-miterlimit:4;stroke-dasharray:none;stroke:#ff0000;stroke-opacity:1" /><path
         id="Connect_w0018"
         d="m 34.509625,-27.493776 -0.01511,0.0063 -0.581864,0.256759 -0.02015,0.0088 -0.02267,0.01134 -0.02015,0.01133 -0.01948,0.01201 -0.02082,0.01192 q -0.248718,0.163357 -0.308564,0.453149 l -0.01008,0.232829 0.120319,0.316709 0.251218,0.224601 0.336272,0.08564 0.557934,-0.07506 q 0.275978,-0.08703 0.379094,-0.401427 l 0.02267,-0.08564 0.01763,-0.08808 -0.04467,-0.159949 -0.158103,-0.0529 -0.138539,0.123426 -0.0038,0.01134 q -0.05185,0.259107 -0.210915,0.326112 l -0.418808,0.0529 q -0.246764,-9.07e-4 -0.338791,-0.232074 l -0.0126,-0.214945 0.109572,-0.186146 0.09572,-0.05928 0.583124,-0.256004 0.01889,-0.01008 q 0.280317,-0.145407 0.355164,-0.430059 0.08398,-0.32099 -0.117716,-0.579429 -0.202922,-0.256252 -0.530899,-0.256675 H 34.22499 l -0.130982,0.02477 -0.127204,0.04114 -0.243073,0.205038 -0.152393,0.281444 -0.01133,0.03275 0.01259,0.112007 0.03149,0.04786 0.02645,0.02267 0.143577,0.02771 0.119647,-0.100756 0.06994,-0.149118 0.103863,-0.126616 0.05357,-0.02956 0.05726,-0.02082 0.08186,-0.01385 h 0.115869 l 0.258186,0.143577 0.04534,0.205121 -0.130982,0.216541 -0.01134,0.0082 -0.01385,0.0081 -0.01385,0.0063"
         stroke="#191919"
         stroke-width="0.7 px"
         style="fill:#ff0000;fill-opacity:1;fill-rule:evenodd;stroke-width:0.025;stroke-linecap:square;stroke-miterlimit:4;stroke-dasharray:none;stroke:#ff0000;stroke-opacity:1" /><path
         id="Connect_w0019"
         d="m 37.2485,-26.034414 v -2.226028 l -0.166247,-0.176323 h -0.826196 l -0.29723,0.07313 q -0.262224,0.124404 -0.369017,0.402099 -0.107986,0.277279 0.0025,0.545844 l 0.264483,0.329639 0.399245,0.132997 0.02393,0.0013 h 0.612091 v 0.91738 q 0.02175,0.175847 0.178841,0.177414 0.157073,-0.0016 0.177582,-0.177414"
         stroke="#191919"
         stroke-width="0.7 px"
         style="fill:#ff0000;fill-opacity:1;fill-rule:evenodd;stroke-width:0.025;stroke-linecap:square;stroke-miterlimit:4;stroke-dasharray:none;stroke:#ff0000;stroke-opacity:1" /><path
         id="Connect_w0021"
         d="m 39.489306,-26.160852 q 0.04662,0.302076 0.325168,0.308565 0.277299,-0.0063 0.296369,-0.308565 v -3.584634 h 0.809466 q 0.304022,-0.02293 0.308712,-0.311797 -0.0047,-0.288932 -0.308712,-0.314001 h -2.23709 q -0.300302,0.02384 -0.30401,0.314001 0.0037,0.290104 0.30401,0.311797 h 0.806087 v 3.584634"
         stroke="#191919"
         stroke-width="0.7 px"
         style="fill:#ff0000;fill-opacity:1;fill-rule:evenodd;stroke-width:0.025;stroke-linecap:square;stroke-miterlimit:4;stroke-dasharray:none;stroke:#ff0000;stroke-opacity:1" /><path
         id="Connect_w0022"
         d="m 42.34617,-26.926238 q -0.204406,-0.226354 -0.437427,-0.04731 -0.227854,0.179924 -0.0673,0.410978 l 0.01984,0.02865 0.01102,0.01543 0.0088,0.01322 q 0.306172,0.410085 0.792422,0.580688 0.494585,0.171432 0.966394,-0.06289 0.577839,-0.305852 0.812258,-0.934215 0.258861,-0.660575 0.222607,-1.369584 -0.03347,-0.699011 -0.374685,-1.305668 -0.331328,-0.587091 -0.981969,-0.744815 -0.376336,-0.08501 -0.73835,0.0717 l -0.603904,0.441688 -0.01102,0.01543 -0.04188,0.289904 0.218199,0.197187 0.312973,-0.101386 q 0.25309,-0.317971 0.568639,-0.330604 0.27868,0.01601 0.489295,0.224811 l 0.359257,0.542191 0.176322,0.619039 -0.0076,0.646809 -0.199538,0.611545 q -0.226208,0.464603 -0.666646,0.629178 -0.474189,0.0861 -0.78581,-0.384677 l -0.04188,-0.05731"
         stroke="#191919"
         stroke-width="0.7 px"
         style="fill:#ff0000;fill-opacity:1;fill-rule:evenodd;stroke-width:0.025;stroke-linecap:square;stroke-miterlimit:4;stroke-dasharray:none;stroke:#ff0000;stroke-opacity:1" /><path
         id="Connect_w0023"
         d="m 45.832505,-30.121347 q -0.05218,-0.270153 -0.330311,-0.244647 -0.278347,0.02725 -0.280205,0.304156 v 2.761062 l 0.0022,0.132242 q 0.0701,0.629559 0.554534,0.994899 0.447024,0.315464 0.983879,0.299748 0.536632,-0.02746 0.95552,-0.380122 0.45319,-0.408771 0.470487,-1.046767 v -2.761062 l -0.02424,-0.119018 q -0.10575,-0.230123 -0.351469,-0.182934 -0.245164,0.04961 -0.245823,0.301952 v 2.716981 q -0.03021,0.49814 -0.446243,0.75804 -0.431063,0.247899 -0.869563,-0.02204 l -0.300777,-0.312825 -0.113581,-0.423174 v -2.716981 l -0.0044,-0.05951"
         stroke="#191919"
         stroke-width="0.7 px"
         style="fill:#ff0000;fill-opacity:1;fill-rule:evenodd;stroke-width:0.025;stroke-linecap:square;stroke-miterlimit:4;stroke-dasharray:none;stroke:#ff0000;stroke-opacity:1" /><path
         id="Connect_w0024"
         d="m 51.639096,-30.079911 -0.08934,-0.206298 -0.21526,-0.08507 h -1.037363 q -0.783832,0.01197 -1.16079,0.706171 -0.390508,0.725403 -0.386293,1.553401 -0.0042,0.828071 0.386734,1.5534 0.376149,0.693215 1.157998,0.706025 h 1.037951 l 0.07876,-0.01322 q 0.227764,-0.05709 0.227603,-0.300189 v -3.896578 -0.01763"
         stroke="#191919"
         stroke-width="0.7 px"
         style="fill:#ff0000;fill-opacity:1;fill-rule:evenodd;stroke-width:0.025;stroke-linecap:square;stroke-miterlimit:4;stroke-dasharray:none;stroke:#ff0000;stroke-opacity:1" /><path
         id="Connect_w0027"
         d="m 4.478139,-5.3104215 q 0.046617,0.3020759 0.3251679,0.3085642 0.2772994,-0.00629 0.2963686,-0.3085642 v -3.5846348 h 0.8094668 q 0.3040217,-0.022933 0.3087112,-0.3117968 -0.0047,-0.2889314 -0.3087112,-0.3140008 H 3.6720516 q -0.3003014,0.023836 -0.3040092,0.3140008 0.0037,0.2901039 0.3040092,0.3117968 H 4.478139 v 3.5846348"
         stroke="#191919"
         stroke-width="0.7 px"
         style="fill:#ff0000;fill-opacity:1;fill-rule:evenodd;stroke-width:0.025;stroke-linecap:square;stroke-miterlimit:4;stroke-dasharray:none;stroke:#ff0000;stroke-opacity:1" /><path
         id="Connect_w0028"
         d="M 9.8383405,-5.3174744 V -9.2130243 Q 9.8061525,-9.4835667 9.5474085,-9.5215886 H 8.1015647 l -0.5201512,0.1279807 q -0.4608977,0.2205539 -0.6457808,0.7036734 -0.1885408,0.4818442 0.00441,0.9552267 0.1511432,0.3612885 0.4628464,0.5768682 0.3127563,0.2104094 0.6986776,0.2327456 l 0.041876,0.0022 h 1.0711587 v 1.6054156 q 0.035683,0.3036657 0.3129723,0.3104744 0.2771986,-0.00679 0.3107683,-0.3104744"
         stroke="#191919"
         stroke-width="0.7 px"
         style="fill:#ff0000;fill-opacity:1;fill-rule:evenodd;stroke-width:0.025;stroke-linecap:square;stroke-miterlimit:4;stroke-dasharray:none;stroke:#ff0000;stroke-opacity:1" /><path
         id="Connect_w0029"
         d="m 12.820099,-7.0034106 -0.206003,0.098006 -0.08493,0.2104114 v 0.037469 l -0.08258,0.4440387 -0.231129,0.3967254 -0.352204,0.2170235 q -0.215879,0.049936 -0.445802,-0.096977 L 11.06863,-6.1153333 10.9574,-6.6575248 v -2.5538833 l -0.09037,-0.218199 -0.297544,-0.07817 -0.218199,0.2170236 -0.01102,0.079345 v 2.5538833 l 0.196011,0.8561923 q 0.177706,0.4164846 0.594648,0.6268262 0.383881,0.2070449 0.780814,0.1630982 0.363379,-0.049457 0.642108,-0.2787363 l 0.434928,-0.5915617 0.159719,-0.7758187 v -0.037469 l -0.09698,-0.2236356 -0.231424,-0.084782"
         stroke="#191919"
         stroke-width="0.7 px"
         style="fill:#ff0000;fill-opacity:1;fill-rule:evenodd;stroke-width:0.025;stroke-linecap:square;stroke-miterlimit:4;stroke-dasharray:none;stroke:#ff0000;stroke-opacity:1" /><path
         id="Connect_w0030"
         d="m 35.129524,-7.4057406 v 2.2236776 q 0.02656,0.1733596 0.178254,0.175063 0.151587,-0.0017 0.17691,-0.175063 v -1.572712 l 0.432494,0.7391268 0.154408,0.086902 0.151889,-0.086902 0.429975,-0.7353484 v 1.5689336 q 0.01956,0.1739065 0.18136,0.175063 0.161696,-0.00114 0.173804,-0.175063 v -2.2236776 l -0.127288,-0.1731318 -0.204115,0.079933 -0.606213,1.0413098 -0.61251,-1.0413098 -0.202267,-0.079345 -0.126701,0.172544"
         stroke="#191919"
         stroke-width="0.7 px"
         style="fill:#ff0000;fill-opacity:1;fill-rule:evenodd;stroke-width:0.025;stroke-linecap:square;stroke-miterlimit:4;stroke-dasharray:none;stroke:#ff0000;stroke-opacity:1" /><path
         id="Connect_w0031"
         d="m 39.07965,-5.1844139 v -2.2260286 l -0.166247,-0.1763224 h -0.826196 l -0.297229,0.073132 q -0.262225,0.1244037 -0.369018,0.4020991 -0.107986,0.2772788 0.0025,0.5458438 l 0.264484,0.329639 0.399244,0.1329975 0.02393,0.00126 h 0.612091 v 0.9173804 q 0.02175,0.1758473 0.178841,0.1774139 0.157074,-0.00156 0.177582,-0.1774139"
         stroke="#191919"
         stroke-width="0.7 px"
         style="fill:#ff0000;fill-opacity:1;fill-rule:evenodd;stroke-width:0.025;stroke-linecap:square;stroke-miterlimit:4;stroke-dasharray:none;stroke:#ff0000;stroke-opacity:1" /><path
         id="Connect_w0033"
         d="m 43.862585,-5.3205495 q 0.01936,0.3024446 0.298719,0.3084173 0.280044,-0.00613 0.320613,-0.3084173 v -3.8879093 q -0.03823,-0.2871137 -0.312972,-0.3128253 h -2.134089 q -0.299672,0.023476 -0.303568,0.3117968 0.0049,0.2890846 0.310474,0.3073887 h 1.820823 v 1.2051638 H 42.43981 q -0.302743,0.019238 -0.308858,0.2981318 0.0063,0.2798168 0.308858,0.3225231 h 1.422775 v 1.7557304"
         stroke="#191919"
         stroke-width="0.7 px"
         style="fill:#ff0000;fill-opacity:1;fill-rule:evenodd;stroke-width:0.025;stroke-linecap:square;stroke-miterlimit:4;stroke-dasharray:none;stroke:#ff0000;stroke-opacity:1" /><path
         id="Connect_w0034"
         d="m 41.1485,-5.1844139 v -2.2260286 l -0.166247,-0.1763224 h -0.826196 l -0.29723,0.073132 q -0.262224,0.1244037 -0.369017,0.4020991 -0.107986,0.2772788 0.0025,0.5458438 l 0.264483,0.329639 0.399245,0.1329975 0.02393,0.00126 h 0.612091 v 0.9173804 q 0.02175,0.1758473 0.178841,0.1774139 0.157074,-0.00156 0.177582,-0.1774139"
         stroke="#191919"
         stroke-width="0.7 px"
         style="fill:#ff0000;fill-opacity:1;fill-rule:evenodd;stroke-width:0.025;stroke-linecap:square;stroke-miterlimit:4;stroke-dasharray:none;stroke:#ff0000;stroke-opacity:1" /><path
         id="Connect_w0035"
         d="m 47.229168,-5.3205495 q 0.01936,0.3024446 0.298719,0.3084173 0.280044,-0.00613 0.320613,-0.3084173 v -3.8879093 q -0.03823,-0.2871137 -0.312972,-0.3128253 h -2.134089 q -0.299672,0.023476 -0.303569,0.3117968 0.0049,0.2890846 0.310475,0.3073887 h 1.820823 v 1.2051638 h -1.422775 q -0.302744,0.019238 -0.308859,0.2981318 0.0063,0.2798168 0.308859,0.3225231 h 1.422775 v 1.7557304"
         stroke="#191919"
         stroke-width="0.7 px"
         style="fill:#ff0000;fill-opacity:1;fill-rule:evenodd;stroke-width:0.025;stroke-linecap:square;stroke-miterlimit:4;stroke-dasharray:none;stroke:#ff0000;stroke-opacity:1" /><path
         id="Connect_w0036"
         d="m -47.033868,-1.3519139 q -0.25386,-0.5786827 -0.85869,-0.604534 -0.428093,0.00398 -0.691436,0.3513854 l -0.372166,0.71410583 -0.07557,0.3324937 -8.81e-4,1.12972292 q 0.08224,0.58310355 0.452393,1.01813605 0.272403,0.314979 0.664987,0.3231738 0.609068,-0.025703 0.871914,-0.604534 0.296616,-0.62805094 0.291814,-1.32997484 0.005,-0.70015269 -0.282368,-1.32997486"
         stroke="#191919"
         stroke-width="0.7 px"
         style="fill:#ff0000;fill-opacity:1;fill-rule:evenodd;stroke-width:0.025;stroke-linecap:square;stroke-miterlimit:4;stroke-dasharray:none;stroke:#ff0000;stroke-opacity:1" /><path
         id="Connect_w0037"
         d="m -46.085116,0.650896 h 7 v -1.301792 h -7 v 1.301792"
         stroke="#191919"
         stroke-width="0.7 px"
         style="fill:#ff0000;fill-opacity:1;fill-rule:evenodd;stroke-width:0.025;stroke-linecap:square;stroke-miterlimit:4;stroke-dasharray:none;stroke:#ff0000;stroke-opacity:1" /><path
         id="Connect_w0038"
         d="m -39.099665,1.7272325 -4.924039,0.8682408 0.169104,0.9590393 4.924039,-0.8682409 -0.169104,-0.9590392"
         stroke="#191919"
         stroke-width="0.7 px"
         style="fill:#ff0000;fill-opacity:1;fill-rule:evenodd;stroke-width:0.025;stroke-linecap:square;stroke-miterlimit:4;stroke-dasharray:none;stroke:#ff0000;stroke-opacity:1" /><path
         id="Connect_w0039"
         d="m -44.3452,8.0962488 6.467156,-2.678784 -0.498174,-1.202699 -6.467157,2.678784 0.498175,1.202699"
         stroke="#191919"
         stroke-width="0.7 px"
         style="fill:#ff0000;fill-opacity:1;fill-rule:evenodd;stroke-width:0.025;stroke-linecap:square;stroke-miterlimit:4;stroke-dasharray:none;stroke:#ff0000;stroke-opacity:1" /><path
         id="Connect_w0041"
         d="m -47.798603,7.7480861 q -0.25386,-0.5786827 -0.85869,-0.604534 -0.428093,0.00398 -0.691436,0.3513854 l -0.372166,0.7141058 -0.07557,0.3324937 -8.82e-4,1.129723 q 0.08224,0.583103 0.452393,1.018136 0.272403,0.314979 0.664988,0.323174 0.609067,-0.0257 0.871914,-0.604534 0.296615,-0.6280511 0.291813,-1.329975 0.005,-0.7001527 -0.282367,-1.3299749"
         stroke="#191919"
         stroke-width="0.7 px"
         style="fill:#ff0000;fill-opacity:1;fill-rule:evenodd;stroke-width:0.025;stroke-linecap:square;stroke-miterlimit:4;stroke-dasharray:none;stroke:#ff0000;stroke-opacity:1" /><path
         id="Connect_w0042"
         d="m -46.735757,11.01257 h 1.722922 l 0.18539,-0.07746 0.07594,-0.190806 -0.01977,-0.119899 -0.02355,-0.133124 -0.374433,-0.8801006 -0.672922,-0.6838791 -0.25403,-0.1973552 -0.233376,-0.2313602 -0.133123,-0.3947103 q 0.0213,-0.2228816 0.220025,-0.3494962 0.246136,-0.1521446 0.498741,-0.00756 0.252075,0.1454053 0.241813,0.4343829 l -8.81e-4,0.012342 -10e-4,0.012217 0.04181,0.1691435 0.134509,0.1066751 0.232241,-0.024559 0.122293,-0.1889169 V 8.1284388 l -0.0057,-0.1435768 q -0.08492,-0.4623855 -0.488287,-0.6998741 -0.405706,-0.2341072 -0.851134,-0.082116 -0.52577,0.1836797 -0.647985,0.7234257 -0.115359,0.5361086 0.253149,0.9405542 l 0.152141,0.1596977 0.16335,0.150126 0.286272,0.2096977 0.269144,0.2265743 0.256045,0.3324937 0.189799,0.3720408 0.02934,0.08312 0.02355,0.07746 h -1.401763 q -0.259158,0.01792 -0.253148,0.275819 0.0084,0.257052 0.262594,0.25869"
         stroke="#191919"
         stroke-width="0.7 px"
         style="fill:#ff0000;fill-opacity:1;fill-rule:evenodd;stroke-width:0.025;stroke-linecap:square;stroke-miterlimit:4;stroke-dasharray:none;stroke:#ff0000;stroke-opacity:1" /><path
         id="Connect_w0043"
         d="m -37.42317,6.5130073 -4.193352,2.7231952 0.530388,0.8167255 4.193352,-2.7231948 -0.530388,-0.8167259"
         stroke="#191919"
         stroke-width="0.7 px"
         style="fill:#ff0000;fill-opacity:1;fill-rule:evenodd;stroke-width:0.025;stroke-linecap:square;stroke-miterlimit:4;stroke-dasharray:none;stroke:#ff0000;stroke-opacity:1" /><path
         id="Connect_w0044"
         d="m -39.888515,14.309021 4.949747,-4.9497473 -0.920506,-0.920506 -4.949747,4.9497473 0.920506,0.920506"
         stroke="#191919"
         stroke-width="0.7 px"
         style="fill:#ff0000;fill-opacity:1;fill-rule:evenodd;stroke-width:0.025;stroke-linecap:square;stroke-miterlimit:4;stroke-dasharray:none;stroke:#ff0000;stroke-opacity:1" /><path
         id="Connect_w0045"
         d="m -44.054775,13.848086 q -0.25386,-0.578683 -0.85869,-0.604534 -0.428092,0.004 -0.691436,0.351386 l -0.372166,0.714105 -0.07557,0.332494 -8.81e-4,1.129723 q 0.08224,0.583103 0.452393,1.018136 0.272403,0.314979 0.664987,0.323174 0.609068,-0.0257 0.871915,-0.604534 0.296615,-0.628051 0.291813,-1.329975 0.005,-0.700153 -0.282368,-1.329975"
         stroke="#191919"
         stroke-width="0.7 px"
         style="fill:#ff0000;fill-opacity:1;fill-rule:evenodd;stroke-width:0.025;stroke-linecap:square;stroke-miterlimit:4;stroke-dasharray:none;stroke:#ff0000;stroke-opacity:1" /><path
         id="Connect_w0046"
         d="m -42.007168,16.419371 h 1.290303 l 0.214483,-0.10995 0.03866,-0.24068 -0.848236,-2.641184 -8.82e-4,-0.0057 -0.0029,-0.0076 -0.164357,-0.15869 -0.230479,0.02834 q -0.175125,0.11001 -0.109572,0.307809 l 0.736776,2.291184 h -0.923804 v -0.783879 l -0.153022,-0.241688 -0.283375,0.03199 -0.09824,0.209698 V 15.8829 h -0.488665 l -0.196222,0.08438 -0.06612,0.18476 0.06612,0.183879 0.196222,0.08338 h 0.488665 v 0.224811 0.202015 l 0.139798,0.234257 0.265491,-0.0076 0.129345,-0.2267 v -0.207683 -0.219143"
         stroke="#191919"
         stroke-width="0.7 px"
         style="fill:#ff0000;fill-opacity:1;fill-rule:evenodd;stroke-width:0.025;stroke-linecap:square;stroke-miterlimit:4;stroke-dasharray:none;stroke:#ff0000;stroke-opacity:1" /><path
         id="Connect_w0048"
         d="m -34.009996,10.263277 -2.795964,4.145188 0.807345,0.544561 2.795964,-4.145188 -0.807345,-0.544561"
         stroke="#191919"
         stroke-width="0.7 px"
         style="fill:#ff0000;fill-opacity:1;fill-rule:evenodd;stroke-width:0.025;stroke-linecap:square;stroke-miterlimit:4;stroke-dasharray:none;stroke:#ff0000;stroke-opacity:1" /><path
         id="Connect_w0049"
         d="m -33.39355,18.343375 2.678784,-6.467157 -1.202699,-0.498174 -2.678784,6.467156 1.202699,0.498175"
         stroke="#191919"
         stroke-width="0.7 px"
         style="fill:#ff0000;fill-opacity:1;fill-rule:evenodd;stroke-width:0.025;stroke-linecap:square;stroke-miterlimit:4;stroke-dasharray:none;stroke:#ff0000;stroke-opacity:1" /><path
         id="Connect_w0050"
         d="m -29.402806,12.381786 -0.954045,4.908136 0.955942,0.185816 0.954045,-4.908136 -0.955942,-0.185816"
         stroke="#191919"
         stroke-width="0.7 px"
         style="fill:#ff0000;fill-opacity:1;fill-rule:evenodd;stroke-width:0.025;stroke-linecap:square;stroke-miterlimit:4;stroke-dasharray:none;stroke:#ff0000;stroke-opacity:1" /><path
         id="Connect_w0051"
         d="m -24.334098,12.53171 1.039559,4.890738 0.952553,-0.202471 -1.039558,-4.890738 -0.952554,0.202471"
         stroke="#191919"
         stroke-width="0.7 px"
         style="fill:#ff0000;fill-opacity:1;fill-rule:evenodd;stroke-width:0.025;stroke-linecap:square;stroke-miterlimit:4;stroke-dasharray:none;stroke:#ff0000;stroke-opacity:1" /><path
         id="Connect_w0052"
         d="m -25.849104,19.585116 v -7 h -1.301792 v 7 h 1.301792"
         stroke="#191919"
         stroke-width="0.7 px"
         style="fill:#ff0000;fill-opacity:1;fill-rule:evenodd;stroke-width:0.025;stroke-linecap:square;stroke-miterlimit:4;stroke-dasharray:none;stroke:#ff0000;stroke-opacity:1" /><path
         id="Connect_w0053"
         d="m -18.403751,17.8452 -2.678784,-6.467156 -1.202699,0.498174 2.678784,6.467157 1.202699,-0.498175"
         stroke="#191919"
         stroke-width="0.7 px"
         style="fill:#ff0000;fill-opacity:1;fill-rule:evenodd;stroke-width:0.025;stroke-linecap:square;stroke-miterlimit:4;stroke-dasharray:none;stroke:#ff0000;stroke-opacity:1" /><path
         id="Connect_w0054"
         d="m -12.190979,13.388515 -4.949747,-4.9497473 -0.920506,0.920506 4.949747,4.9497473 0.920506,-0.920506"
         stroke="#191919"
         stroke-width="0.7 px"
         style="fill:#ff0000;fill-opacity:1;fill-rule:evenodd;stroke-width:0.025;stroke-linecap:square;stroke-miterlimit:4;stroke-dasharray:none;stroke:#ff0000;stroke-opacity:1" /><path
         id="Connect_w0055"
         d="m -19.609747,10.689215 2.867882,4.09576 0.797718,-0.558568 -2.867882,-4.09576 -0.797718,0.558568"
         stroke="#191919"
         stroke-width="0.7 px"
         style="fill:#ff0000;fill-opacity:1;fill-rule:evenodd;stroke-width:0.025;stroke-linecap:square;stroke-miterlimit:4;stroke-dasharray:none;stroke:#ff0000;stroke-opacity:1" /><path
         id="Connect_w0056"
         d="m -9.5431877,13.248086 q -0.25386,-0.578683 -0.8586903,-0.604534 -0.428092,0.004 -0.691436,0.351386 l -0.372166,0.714105 -0.07557,0.332494 -8.81e-4,1.129723 q 0.08224,0.583103 0.452393,1.018136 0.272403,0.314979 0.664987,0.323174 0.609068,-0.0257 0.8719145,-0.604534 0.2966154,-0.628051 0.2918136,-1.329975 0.00504,-0.700153 -0.2823678,-1.329975"
         stroke="#191919"
         stroke-width="0.7 px"
         style="fill:#ff0000;fill-opacity:1;fill-rule:evenodd;stroke-width:0.025;stroke-linecap:square;stroke-miterlimit:4;stroke-dasharray:none;stroke:#ff0000;stroke-opacity:1" /><path
         id="Connect_w0057"
         d="m -8.4803413,16.51257 h 1.7229219 L -6.572029,16.43511 -6.496084,16.244304 -6.515857,16.124405 -6.539409,15.991281 -6.9138426,15.111184 -7.5867645,14.427305 -7.8407947,14.22995 -8.07417,13.99859 -8.2072935,13.60388 q 0.021303,-0.222882 0.2200252,-0.349497 0.2461357,-0.152144 0.4987406,-0.0076 0.2520755,0.145405 0.2418136,0.434383 l -8.816e-4,0.01234 -0.00101,0.01222 0.041814,0.169143 0.1345088,0.106675 0.2322419,-0.02456 0.1222921,-0.188917 v -0.139672 l -0.00567,-0.143577 q -0.084918,-0.462386 -0.4882871,-0.699874 -0.4057063,-0.234107 -0.8511335,-0.08212 -0.52577,0.18368 -0.6479849,0.723426 -0.1153598,0.536108 0.2531486,0.940554 l 0.1521411,0.159698 0.1633501,0.150126 0.286272,0.209697 0.2691436,0.226575 0.2560454,0.332493 0.1897984,0.372041 0.029345,0.08312 0.023552,0.07746 h -1.4017633 q -0.2591582,0.01792 -0.2531486,0.275819 0.00835,0.257052 0.2625945,0.25869"
         stroke="#191919"
         stroke-width="0.7 px"
         style="fill:#ff0000;fill-opacity:1;fill-rule:evenodd;stroke-width:0.025;stroke-linecap:square;stroke-miterlimit:4;stroke-dasharray:none;stroke:#ff0000;stroke-opacity:1" /><path
         id="Connect_w0058"
         d="m -5.8880239,12.914459 v 3.331738 l 0.00567,0.0529 q 0.045943,0.212909 0.2644836,0.213476 L -5.379835,16.363328 -5.351497,16.2462 v -3.331738 l -0.014106,-0.08589 -0.04068,-0.07846 -0.1945844,-0.101007 -0.2059194,0.07645 -0.058564,0.0869 -0.02267,0.102015"
         stroke="#191919"
         stroke-width="0.7 px"
         style="fill:#ff0000;fill-opacity:1;fill-rule:evenodd;stroke-width:0.025;stroke-linecap:square;stroke-miterlimit:4;stroke-dasharray:none;stroke:#ff0000;stroke-opacity:1" /><path
         id="Connect_w0060"
         d="m -36.164598,19.348086 q -0.25386,-0.578683 -0.85869,-0.604534 -0.428093,0.004 -0.691436,0.351386 l -0.372166,0.714105 -0.07557,0.332494 -8.82e-4,1.129723 q 0.08224,0.583103 0.452393,1.018136 0.272403,0.314979 0.664988,0.323174 0.609067,-0.0257 0.871914,-0.604534 0.296615,-0.628051 0.291814,-1.329975 0.005,-0.700153 -0.282368,-1.329975"
         stroke="#191919"
         stroke-width="0.7 px"
         style="fill:#ff0000;fill-opacity:1;fill-rule:evenodd;stroke-width:0.025;stroke-linecap:square;stroke-miterlimit:4;stroke-dasharray:none;stroke:#ff0000;stroke-opacity:1" /><path
         id="Connect_w0061"
         d="m -33.881349,22.5899 q 0.525662,-0.08592 0.809572,-0.529723 0.27359,-0.430621 0.199244,-0.926574 l -0.0038,-0.02267 -0.05189,-0.254911 -0.07091,-0.25126 -0.139799,-0.360705 -0.496851,-0.801889 -0.68199,-0.635517 -0.01889,-0.01322 q -0.192182,-0.12748 -0.347607,0.03967 -0.153896,0.168167 -0.01322,0.347481 l 0.05479,0.04912 0.418514,0.357053 0.348489,0.423048 0.04723,0.07179 0.0094,0.017 0.01134,0.01889 -0.01322,-0.0038 -0.01322,-0.0019 -0.429723,-0.01977 -0.418513,0.11801 q -0.34147,0.160018 -0.533628,0.501385 -0.196469,0.3377 -0.171032,0.711209 l 0.0057,0.05485 0.09547,0.362534 0.193577,0.319269 q 0.490763,0.540847 1.210957,0.430605"
         stroke="#191919"
         stroke-width="0.7 px"
         style="fill:#ff0000;fill-opacity:1;fill-rule:evenodd;stroke-width:0.025;stroke-linecap:square;stroke-miterlimit:4;stroke-dasharray:none;stroke:#ff0000;stroke-opacity:1" /><path
         id="Connect_w0062"
         d="m -17.423792,19.148086 q -0.25386,-0.578683 -0.85869,-0.604534 -0.428093,0.004 -0.691436,0.351386 l -0.372166,0.714105 -0.07557,0.332494 -8.82e-4,1.129723 q 0.08224,0.583103 0.452393,1.018136 0.272404,0.314979 0.664988,0.323174 0.609068,-0.0257 0.871914,-0.604534 0.296615,-0.628051 0.291814,-1.329975 0.005,-0.700153 -0.282368,-1.329975"
         stroke="#191919"
         stroke-width="0.7 px"
         style="fill:#ff0000;fill-opacity:1;fill-rule:evenodd;stroke-width:0.025;stroke-linecap:square;stroke-miterlimit:4;stroke-dasharray:none;stroke:#ff0000;stroke-opacity:1" /><path
         id="Connect_w0063"
         d="m -27.182482,20.748086 q -0.25386,-0.578683 -0.858691,-0.604534 -0.428092,0.004 -0.691435,0.351386 l -0.372167,0.714105 -0.07557,0.332494 -8.82e-4,1.129723 q 0.08224,0.583103 0.452393,1.018136 0.272403,0.314979 0.664987,0.323174 0.609068,-0.0257 0.871915,-0.604534 0.296615,-0.628051 0.291813,-1.329975 0.005,-0.700153 -0.282367,-1.329975"
         stroke="#191919"
         stroke-width="0.7 px"
         style="fill:#ff0000;fill-opacity:1;fill-rule:evenodd;stroke-width:0.025;stroke-linecap:square;stroke-miterlimit:4;stroke-dasharray:none;stroke:#ff0000;stroke-opacity:1" /><path
         id="Connect_w0064"
         d="m -26.352759,21.281084 q 0.01223,0.439301 0.323047,0.750755 l 0.04723,0.04156 -0.02834,0.04345 -0.0084,0.0094 -0.01045,0.0076 q -0.324528,0.326262 -0.324937,0.787658 0.0019,0.524942 0.411839,0.853652 l 0.334383,0.18325 0.625315,0.02456 0.479849,-0.261587 0.29471,-0.461839 q 0.12982,-0.405867 -0.04156,-0.793325 l -0.03211,-0.06801 -0.153023,-0.219018 -0.04811,-0.04811 -0.05201,-0.04824 0.0728,-0.07078 0.06889,-0.07657 0.202141,-0.406046 0.0038,-0.551511 -0.227582,-0.44194 -0.399622,-0.298488 q -0.321446,-0.143641 -0.671537,-0.06322 -0.350172,0.07817 -0.58476,0.338916 -0.292009,0.328689 -0.281486,0.767885"
         stroke="#191919"
         stroke-width="0.7 px"
         style="fill:#ff0000;fill-opacity:1;fill-rule:evenodd;stroke-width:0.025;stroke-linecap:square;stroke-miterlimit:4;stroke-dasharray:none;stroke:#ff0000;stroke-opacity:1" /><path
         id="Connect_w0065"
         d="m -14.578452,19.148086 q -0.25386,-0.578683 -0.85869,-0.604534 -0.428093,0.004 -0.691436,0.351386 l -0.372166,0.714105 -0.07557,0.332494 -8.82e-4,1.129723 q 0.08224,0.583103 0.452393,1.018136 0.272404,0.314979 0.664988,0.323174 0.609068,-0.0257 0.871914,-0.604534 0.296615,-0.628051 0.291814,-1.329975 0.005,-0.700153 -0.282368,-1.329975"
         stroke="#191919"
         stroke-width="0.7 px"
         style="fill:#ff0000;fill-opacity:1;fill-rule:evenodd;stroke-width:0.025;stroke-linecap:square;stroke-miterlimit:4;stroke-dasharray:none;stroke:#ff0000;stroke-opacity:1" /><path
         id="Connect_w0066"
         d="m -13.688024,18.814459 v 3.331738 l 0.0057,0.0529 q 0.04594,0.212909 0.264483,0.213476 l 0.238035,-0.149245 0.02834,-0.117128 v -3.331738 l -0.01411,-0.08589 -0.04068,-0.07846 -0.194584,-0.101007 -0.20592,0.07645 -0.05856,0.0869 -0.02267,0.102015"
         stroke="#191919"
         stroke-width="0.7 px"
         style="fill:#ff0000;fill-opacity:1;fill-rule:evenodd;stroke-width:0.025;stroke-linecap:square;stroke-miterlimit:4;stroke-dasharray:none;stroke:#ff0000;stroke-opacity:1" /><path
         id="Connect_w0069"
         d="m 7.739495,11.91792 -0.5223552,0.889106 q -0.2033644,0.617028 -0.1531066,1.26717 0.045643,0.642739 0.3602854,1.198699 l 0.5355794,0.573048 q 0.3404311,0.235151 0.7493703,0.165155 0.6671591,-0.119004 1.02267,-0.696326 0.3588457,-0.593533 0.4067167,-1.290093 0.05118,-0.712584 -0.1917503,-1.385012 Q 9.7299259,12.000913 9.1699106,11.65902 L 8.6255151,11.509146 Q 8.086875,11.509335 7.739495,11.91792"
         stroke="#191919"
         stroke-width="0.7 px"
         style="fill:#ff0000;fill-opacity:1;fill-rule:evenodd;stroke-width:0.025;stroke-linecap:square;stroke-miterlimit:4;stroke-dasharray:none;stroke:#ff0000;stroke-opacity:1" /><path
         id="Connect_w0070"
         d="M 3.0169299,13.443655 H 2.2347301 l -0.402351,0.144836 -0.2261125,0.300336 -0.016961,0.374055 0.2222503,0.364484 -0.2418136,0.44089 0.029639,0.442737 0.2688497,0.349455 0.4748111,0.162468 H 3.0169296 L 3.1957709,15.847853 V 13.622412 L 3.0169296,13.443655"
         stroke="#191919"
         stroke-width="0.7 px"
         style="fill:#ff0000;fill-opacity:1;fill-rule:evenodd;stroke-width:0.025;stroke-linecap:square;stroke-miterlimit:4;stroke-dasharray:none;stroke:#ff0000;stroke-opacity:1" /><path
         id="Connect_w0071"
         d="M 3.7321272,16.022328 H 5.0696587 Q 5.2249283,16.011404 5.2485,15.847265 v -2.226112 q -0.025514,-0.175967 -0.1838791,-0.177498 -0.1581618,0.0015 -0.1712846,0.177498 v 2.049874 h -1.161377 q -0.1748679,0.01936 -0.1761545,0.180017 0.00128,0.160468 0.1763224,0.171284"
         stroke="#191919"
         stroke-width="0.7 px"
         style="fill:#ff0000;fill-opacity:1;fill-rule:evenodd;stroke-width:0.025;stroke-linecap:square;stroke-miterlimit:4;stroke-dasharray:none;stroke:#ff0000;stroke-opacity:1" /><path
         id="Connect_w0072"
         d="m 14.926963,15.723399 q 0.02128,0.30279 0.299749,0.309005 0.279314,-0.0064 0.321788,-0.309005 v -3.90275 q -0.04214,-0.304732 -0.321788,-0.311503 -0.278779,0.0066 -0.299749,0.311503 v 1.460684 h -1.776448 v -1.460684 q -0.04097,-0.303506 -0.311797,-0.311503 -0.271058,0.008 -0.314147,0.311503 v 3.90275 q 0.04341,0.301406 0.314147,0.309005 0.2705,-0.0076 0.311797,-0.309005 v -1.816268 h 1.776448 v 1.816268"
         stroke="#191919"
         stroke-width="0.7 px"
         style="fill:#ff0000;fill-opacity:1;fill-rule:evenodd;stroke-width:0.025;stroke-linecap:square;stroke-miterlimit:4;stroke-dasharray:none;stroke:#ff0000;stroke-opacity:1" /><path
         id="Connect_w0073"
         d="m 10.825662,16.023 h 1.148615 l 0.123593,-0.05164 0.05063,-0.127204 -0.01318,-0.07993 -0.0157,-0.08875 -0.249622,-0.586734 -0.448615,-0.455919 -0.169354,-0.13157 -0.155583,-0.154241 -0.08875,-0.26314 0.146683,-0.232997 0.332494,-0.005 q 0.168383,0.09695 0.161209,0.289589 l -5.88e-4,0.0082 -6.71e-4,0.0081 0.02788,0.112763 0.08967,0.07112 0.154828,-0.01637 0.08153,-0.125945 v -0.09311 l -0.0038,-0.09572 q -0.05663,-0.308796 -0.325525,-0.466583 -0.269944,-0.156309 -0.567422,-0.05474 -0.351527,0.122737 -0.43199,0.482283 -0.07726,0.357849 0.168765,0.627036 l 0.101428,0.106466 0.1089,0.100084 0.190848,0.139798 0.179429,0.15105 0.170697,0.221662 0.126532,0.248027 0.01956,0.05542 0.0157,0.05164 h -0.934509 q -0.173283,0.01164 -0.168766,0.183879 0.0053,0.17191 0.175063,0.17246"
         stroke="#191919"
         stroke-width="0.7 px"
         style="fill:#ff0000;fill-opacity:1;fill-rule:evenodd;stroke-width:0.025;stroke-linecap:square;stroke-miterlimit:4;stroke-dasharray:none;stroke:#ff0000;stroke-opacity:1" /><path
         id="Connect_w0074"
         d="m 21.115062,11.761287 q -0.09184,-0.215372 -0.302981,-0.224811 -0.21211,-0.0028 -0.294311,0.224811 l -0.771411,2.635433 -0.515743,-2.635433 q -0.08801,-0.291932 -0.36249,-0.242443 -0.271589,0.06077 -0.248027,0.35911 l 0.762595,3.891583 q 0.06699,0.240467 0.287699,0.253463 0.220581,0.0054 0.314001,-0.222607 l 0.833124,-2.842611 0.826511,2.842611 q 0.09612,0.23331 0.310768,0.222607 0.213702,-0.01994 0.29534,-0.253463 l 0.762595,-3.891583 q 0.0049,-0.304906 -0.25126,-0.362343 -0.259504,-0.03988 -0.365869,0.245676 l -0.509131,2.639841 -0.77141,-2.639841"
         stroke="#191919"
         stroke-width="0.7 px"
         style="fill:#ff0000;fill-opacity:1;fill-rule:evenodd;stroke-width:0.025;stroke-linecap:square;stroke-miterlimit:4;stroke-dasharray:none;stroke:#ff0000;stroke-opacity:1" /><path
         id="Connect_w0075"
         d="m 24.280637,11.91792 -0.522355,0.889106 q -0.203365,0.617028 -0.153107,1.26717 0.04564,0.642739 0.360286,1.198699 l 0.535579,0.573048 q 0.340431,0.235151 0.74937,0.165155 0.667159,-0.119004 1.02267,-0.696326 0.358846,-0.593533 0.406717,-1.290093 0.05118,-0.712584 -0.19175,-1.385012 -0.216979,-0.638754 -0.776995,-0.980647 l -0.544395,-0.149874 q -0.53864,1.89e-4 -0.88602,0.408774"
         stroke="#191919"
         stroke-width="0.7 px"
         style="fill:#ff0000;fill-opacity:1;fill-rule:evenodd;stroke-width:0.025;stroke-linecap:square;stroke-miterlimit:4;stroke-dasharray:none;stroke:#ff0000;stroke-opacity:1" /><path
         id="Connect_w0076"
         d="m 27.628265,16.021825 h 2.34068 q 0.272655,-0.02135 0.312972,-0.306361 v -3.895697 q -0.04226,-0.303991 -0.321788,-0.310621 -0.278669,0.0065 -0.299748,0.310621 v 3.58728 h -2.03241 q -0.302681,0.03228 -0.30827,0.315029 0.0056,0.282154 0.308564,0.299749"
         stroke="#191919"
         stroke-width="0.7 px"
         style="fill:#ff0000;fill-opacity:1;fill-rule:evenodd;stroke-width:0.025;stroke-linecap:square;stroke-miterlimit:4;stroke-dasharray:none;stroke:#ff0000;stroke-opacity:1" /><path
         id="Connect_w0077"
         d="m 33.029168,15.709881 q 0.01936,0.302444 0.298719,0.308417 0.280044,-0.0061 0.320613,-0.308417 v -3.88791 q -0.03823,-0.287113 -0.312972,-0.312825 h -2.134089 q -0.299672,0.02348 -0.303569,0.311797 0.0049,0.289084 0.310475,0.307389 h 1.820823 v 1.205163 h -1.422775 q -0.302744,0.01924 -0.308859,0.298132 0.0063,0.279817 0.308859,0.322523 h 1.422775 v 1.755731"
         stroke="#191919"
         stroke-width="0.7 px"
         style="fill:#ff0000;fill-opacity:1;fill-rule:evenodd;stroke-width:0.025;stroke-linecap:square;stroke-miterlimit:4;stroke-dasharray:none;stroke:#ff0000;stroke-opacity:1" /><path
         id="Connect_w0078"
         d="m 40.370624,11.508716 h -1.368703 q -0.401282,0.02927 -0.704114,0.253463 l -0.395697,0.526764 -0.06392,0.368073 v 0.01543 l 0.03306,0.268892 q 0.09047,0.365835 0.390113,0.639168 -0.327352,0.335816 -0.423173,0.771411 l -0.03306,0.308564 0.08375,0.467255 q 0.142911,0.369121 0.471663,0.611691 0.361234,0.258596 0.830919,0.283145 h 1.179156 q 0.270043,-0.03815 0.312973,-0.30636 V 11.82169 q -0.03871,-0.272701 -0.312973,-0.312972"
         stroke="#191919"
         stroke-width="0.7 px"
         style="fill:#ff0000;fill-opacity:1;fill-rule:evenodd;stroke-width:0.025;stroke-linecap:square;stroke-miterlimit:4;stroke-dasharray:none;stroke:#ff0000;stroke-opacity:1" /><path
         id="Connect_w0080"
         d="m 44.43515,15.991713 0.163098,-0.28432 -0.0044,-0.07053 -1.403967,-3.925377 q -0.07204,-0.201573 -0.277708,-0.202771 h -0.01102 q -0.209653,9e-4 -0.282116,0.202771 l -1.412783,3.896725 -0.01322,0.119018 q 3e-6,0.217052 0.202771,0.275504 l 0.07273,0.02424 h 0.0044 q 0.193737,-0.0047 0.317381,-0.209383 l 0.227015,-0.623741 1.778652,0.0044 0.220403,0.614925 q 0.09995,0.199754 0.293136,0.202771 l 0.12563,-0.02425"
         stroke="#191919"
         stroke-width="0.7 px"
         style="fill:#ff0000;fill-opacity:1;fill-rule:evenodd;stroke-width:0.025;stroke-linecap:square;stroke-miterlimit:4;stroke-dasharray:none;stroke:#ff0000;stroke-opacity:1" /><path
         id="Connect_w0081"
         d="m 46.790377,16.02257 h 0.0066 q 0.275933,-0.01012 0.297544,-0.308564 V 12.130252 H 47.9034 q 0.303511,-0.02241 0.308564,-0.308564 -0.0048,-0.288141 -0.308564,-0.312972 h -2.237091 q -0.302193,0.02327 -0.30636,0.312972 0.0044,0.287724 0.30636,0.308564 h 0.806675 v 3.583754 q 0.04569,0.30113 0.317381,0.308564"
         stroke="#191919"
         stroke-width="0.7 px"
         style="fill:#ff0000;fill-opacity:1;fill-rule:evenodd;stroke-width:0.025;stroke-linecap:square;stroke-miterlimit:4;stroke-dasharray:none;stroke:#ff0000;stroke-opacity:1" /><path
         id="Connect_w0082"
         d="m 50.475956,13.159535 -0.02645,0.01102 -1.018262,0.449622 -0.03527,0.01543 -0.03967,0.01984 -0.03527,0.01984 -0.03409,0.02101 -0.03644,0.02087 q -0.434444,0.285714 -0.539987,0.793451 l -0.02645,0.260076 0.0088,0.14767 0.210559,0.554387 0.43963,0.393346 0.588476,0.149874 0.976386,-0.131067 q 0.495794,-0.167214 0.663413,-0.702057 l 0.03967,-0.149874 0.03086,-0.154282 0.0066,-0.07053 -0.08375,-0.209383 -0.215995,-0.09698 -0.06171,0.0044 -0.242443,0.215995 -0.0066,0.01984 q -0.07215,0.426364 -0.368073,0.570844 l -0.654597,0.08375 h -0.07934 q -0.431525,-0.0031 -0.592885,-0.405541 l -0.04188,-0.218199 0.01984,-0.156487 0.191751,-0.326196 0.167506,-0.103589 1.020466,-0.447419 0.03306,-0.01763 q 0.483366,-0.246341 0.621537,-0.751574 l 0.04408,-0.321789 v -0.0066 q -0.0038,-0.377315 -0.249056,-0.683249 -0.355762,-0.44883 -0.930101,-0.449622 l -0.242443,0.0066 -0.229219,0.04305 -0.222607,0.07156 -0.425378,0.357052 -0.266688,0.491499 -0.01984,0.0573 -0.0088,0.07273 0.03086,0.123426 0.0551,0.08375 0.04628,0.03967 0.174118,0.0573 0.07714,-0.0088 0.209383,-0.176322 0.122397,-0.261105 0.181759,-0.221578 0.09375,-0.05172 0.10021,-0.03644 0.143262,-0.02425 0.202771,-0.0066 q 0.295091,0.0051 0.451826,0.255668 l 0.08375,0.282116 -0.0044,0.07714 q -0.03052,0.243525 -0.229219,0.379093 l -0.01984,0.0144 -0.02425,0.01425 -0.02424,0.01102"
         stroke="#191919"
         stroke-width="0.7 px"
         style="fill:#ff0000;fill-opacity:1;fill-rule:evenodd;stroke-width:0.025;stroke-linecap:square;stroke-miterlimit:4;stroke-dasharray:none;stroke:#ff0000;stroke-opacity:1" /><path
         id="Connect_w0083"
         d="M 2.5720097,19.059925 Q 2.2382485,18.29265 1.4270894,18.25388 0.85471482,18.260463 0.50517506,18.722393 0.16342872,19.160688 0.0089534,19.674535 l -0.10075567,0.443324 q -0.12829159,0.746415 -0.0011755,1.506298 0.10750755,0.772413 0.6031906,1.357514 Q 0.86827,23.398774 1.3968627,23.41257 2.2136555,23.374105 2.5594152,22.606524 2.9553903,21.766731 2.9485,20.833225 2.95573,19.902274 2.5720097,19.059925"
         stroke="#191919"
         stroke-width="0.7 px"
         style="fill:#ff0000;fill-opacity:1;fill-rule:evenodd;stroke-width:0.025;stroke-linecap:square;stroke-miterlimit:4;stroke-dasharray:none;stroke:#ff0000;stroke-opacity:1" /><path
         id="Connect_w0087"
         d="m 1.3906495,18.967566 h 0.01377 q 0.304524,0.06451 0.474895,0.342569 l 0.2581025,0.642149 0.09068,0.72796 -0.027708,0.596641 -0.1435769,0.557851 -0.2858102,0.586902 q -0.1615084,0.237157 -0.3942905,0.282116 -0.269219,-0.002 -0.47103276,-0.356507 L 0.62356297,21.57932 0.55807179,20.627347 0.74329429,19.710639 Q 0.88742012,19.299415 1.2079458,19.045651 l 0.1763225,-0.07808 h 0.00638"
         stroke="#191919"
         stroke-width="0.7 px"
         style="fill:#ffffff;fill-opacity:1;fill-rule:evenodd;stroke-width:0.025;stroke-linecap:square;stroke-miterlimit:4;stroke-dasharray:none;stroke:#ff0000;stroke-opacity:1" /><path
         id="Connect_w0088"
         d="m 25.047639,12.148168 0.101386,-0.01322 q 0.425083,0.01703 0.613896,0.436398 l 0.263308,0.744815 0.03086,0.544249 -0.09257,0.631381 -0.244647,0.561881 -0.427582,0.331633 q -0.306017,0.09643 -0.5322,-0.122251 l -0.338392,-0.466079 -0.159719,-0.66547 0.01984,-0.823132 0.245676,-0.740407 q 0.177363,-0.324129 0.520151,-0.419794"
         stroke="#191919"
         stroke-width="0.7 px"
         style="fill:#ffffff;fill-opacity:1;fill-rule:evenodd;stroke-width:0.025;stroke-linecap:square;stroke-miterlimit:4;stroke-dasharray:none;stroke:#ff0000;stroke-opacity:1" /><path
         id="Connect_w0089"
         d="m -14.970413,-8.8818321 0.101386,-0.013224 q 0.425083,0.017029 0.613896,0.436398 l 0.263308,0.7448153 0.03086,0.5442485 -0.09257,0.6313812 -0.244647,0.5618808 -0.427582,0.3316331 q -0.306017,0.096434 -0.5322,-0.1222502 l -0.338392,-0.4660789 -0.159719,-0.6654702 0.01984,-0.8231319 0.245676,-0.7404072 q 0.177362,-0.3241293 0.520151,-0.4197943"
         stroke="#191919"
         stroke-width="0.7 px"
         style="fill:#ffffff;fill-opacity:1;fill-rule:evenodd;stroke-width:0.025;stroke-linecap:square;stroke-miterlimit:4;stroke-dasharray:none;stroke:#ff0000;stroke-opacity:1" /><path
         id="Connect_w0090"
         d="m 8.5064975,12.148168 0.1013854,-0.01322 q 0.4250832,0.01703 0.6138959,0.436398 l 0.2633081,0.744815 0.030856,0.544249 -0.092569,0.631381 -0.2446474,0.561881 -0.4275819,0.331633 Q 8.4451278,15.481735 8.218945,15.26305 l -0.3383921,-0.466079 -0.1597187,-0.66547 0.019836,-0.823132 0.2456759,-0.740407 q 0.1773623,-0.324129 0.5201512,-0.419794"
         stroke="#191919"
         stroke-width="0.7 px"
         style="fill:#ffffff;fill-opacity:1;fill-rule:evenodd;stroke-width:0.025;stroke-linecap:square;stroke-miterlimit:4;stroke-dasharray:none;stroke:#ff0000;stroke-opacity:1" /><path
         id="Connect_w0091"
         d="m 51.021968,-26.478085 h -0.728065 -0.0088 -0.01102 -0.0078 -0.01 l -0.0098,-0.001 -0.0122,-0.0012 -0.0088,-0.001 -0.01102,-0.0012 -0.0088,-0.001 -0.01102,-0.0012 -0.01763,-0.0044 -0.0088,-0.0032 -0.01102,-0.0056 -0.0098,-0.001 -0.0122,-0.0034 -0.0088,-0.0022 -0.01117,-0.0044 -0.01984,-0.0088 -0.02718,-0.01 -0.0037,-0.0022 -0.01102,-0.0056 -0.01763,-0.01102 -0.02204,-0.01102 -0.0088,-0.0054 -0.01102,-0.0078 -0.01998,-0.01323 -0.0098,-0.0054 -0.01219,-0.0078 -0.0088,-0.0066 -0.01102,-0.0088 -0.0088,-0.0054 -0.01102,-0.0079 -0.02204,-0.01763 -0.01763,-0.01763 -0.0088,-0.0088 -0.01102,-0.01102 -0.009,-0.0088 -0.01102,-0.01102 -0.01984,-0.01763 -0.0088,-0.0088 -0.01102,-0.01117 -0.0088,-0.0098 -0.01102,-0.0122 -0.01763,-0.02204 -0.01984,-0.02424 -0.01763,-0.02439 -0.009,-0.01205 -0.01102,-0.0122 -0.0076,-0.01322 -0.01,-0.01322 -0.0076,-0.01425 -0.01,-0.0144 -0.01763,-0.0266 -0.0076,-0.01425 -0.01,-0.0144 -0.0076,-0.01425 -0.01,-0.0144 -0.01322,-0.02865 -0.0076,-0.01543 -0.01,-0.01763 -0.0078,-0.01425 -0.01,-0.0166 -0.0054,-0.01543 -0.0078,-0.01778 -0.01543,-0.03306 -0.01543,-0.03526 -0.0054,-0.01646 -0.0078,-0.01896 -0.0054,-0.01763 -0.0078,-0.01984 -0.01102,-0.03526 -0.0054,-0.01763 -0.0078,-0.01998 -0.01102,-0.03747 -0.01322,-0.03747 -0.0034,-0.01881 -0.0056,-0.02101 -0.0044,-0.01866 -0.0066,-0.02101 -0.0032,-0.0166 -0.0056,-0.02101 -0.0066,-0.04188 -0.0032,-0.01866 -0.0056,-0.02101 -0.0022,-0.01881 -0.0044,-0.02101 -0.0066,-0.04188 -0.0032,-0.01984 -0.0056,-0.02219 -0.0044,-0.04173 -0.001,-0.01866 -0.0034,-0.02336 -0.0044,-0.04188 v -0.04188 -0.04393 -0.04188 l -0.0022,-0.02086 -0.0066,-0.02322 v -0.01866 -0.02322 -0.01984 -0.02204 -0.02086 -0.02101 -0.02087 -0.02322 -0.01984 -0.02204 l 0.0066,-0.04408 v -0.03967 l 0.0044,-0.04628 0.0022,-0.03967 0.0044,-0.04188 0.0034,-0.01984 10e-4,-0.02204 0.0088,-0.04173 0.0044,-0.01866 0.0022,-0.02101 0.0066,-0.04188 0.0066,-0.04173 0.01102,-0.03967 0.0066,-0.03747 0.0066,-0.01866 0.0044,-0.02101 0.0066,-0.01866 0.0044,-0.02101 0.01102,-0.03747 0.01102,-0.03747 0.0078,-0.01646 0.0054,-0.01881 0.01322,-0.03747 0.01322,-0.03526 0.0078,-0.01646 0.0054,-0.01881 0.0088,-0.01543 0.0066,-0.01763 0.01543,-0.03306 0.01322,-0.03086 0.01543,-0.03306 0.0088,-0.01425 0.0066,-0.0144 0.01749,-0.03086 0.01763,-0.02865 0.01,-0.01425 0.0076,-0.01425 0.01763,-0.02645 0.0088,-0.01323 0.0066,-0.01322 0.03747,-0.05069 0.03526,-0.04834 0.03967,-0.04408 0.03967,-0.04188 0.03747,-0.03747 0.04188,-0.03306 0.04188,-0.03306 0.04188,-0.02865 0.03967,-0.02425 0.03967,-0.01984 0.04188,-0.01543 0.04188,-0.01543 0.01984,-0.0054 0.01749,-0.0078 0.03967,-0.0066 h 0.03967 0.01102 0.0088 0.727183 v 3.267401"
         stroke="#191919"
         stroke-width="0.7 px"
         style="fill:#ffffff;fill-opacity:1;fill-rule:evenodd;stroke-width:0.025;stroke-linecap:square;stroke-miterlimit:4;stroke-dasharray:none;stroke:#ff0000;stroke-opacity:1" /><path
         id="Connect_w0092"
         d="m -18.309812,19.078817 h 0.01033 l 0.356171,0.256927 0.193577,0.481612 0.06801,0.545969 -0.02078,0.447482 -0.107682,0.418387 -0.214358,0.440177 -0.295718,0.211587 q -0.190556,0.0077 -0.353274,-0.267381 l -0.211587,-0.575944 -0.04912,-0.71398 0.138917,-0.687532 0.348489,-0.49874 0.132242,-0.05856 h 0.0048"
         stroke="#191919"
         stroke-width="0.7 px"
         style="fill:#ffffff;fill-opacity:1;fill-rule:evenodd;stroke-width:0.025;stroke-linecap:square;stroke-miterlimit:4;stroke-dasharray:none;stroke:#ff0000;stroke-opacity:1" /><path
         id="Connect_w0093"
         d="m -48.684623,7.6788166 h 0.01033 l 0.356171,0.256927 0.193577,0.4816121 0.06801,0.5459697 -0.02078,0.4474812 -0.107682,0.4183879 -0.214358,0.4401765 -0.295718,0.211587 q -0.190556,0.0077 -0.353274,-0.267381 l -0.211587,-0.5759443 -0.04912,-0.7139798 0.138917,-0.6875315 0.348489,-0.4987405 0.132242,-0.058564 h 0.0048"
         stroke="#191919"
         stroke-width="0.7 px"
         style="fill:#ffffff;fill-opacity:1;fill-rule:evenodd;stroke-width:0.025;stroke-linecap:square;stroke-miterlimit:4;stroke-dasharray:none;stroke:#ff0000;stroke-opacity:1" /><path
         id="Connect_w0094"
         d="m -47.919888,-1.4211834 h 0.01033 l 0.356171,0.256927 0.193577,0.48161207 0.06801,0.54596977 -0.02078,0.44748111 -0.107683,0.41838791 -0.214357,0.44017634 -0.295718,0.2115869 q -0.190557,0.00774 -0.353275,-0.2673804 l -0.211587,-0.57594455 -0.04912,-0.71397985 0.138917,-0.68753149 0.348488,-0.49874051 0.132242,-0.058564 h 0.0048"
         stroke="#191919"
         stroke-width="0.7 px"
         style="fill:#ffffff;fill-opacity:1;fill-rule:evenodd;stroke-width:0.025;stroke-linecap:square;stroke-miterlimit:4;stroke-dasharray:none;stroke:#ff0000;stroke-opacity:1" /><path
         id="Connect_w0095"
         d="m -28.068503,20.678817 h 0.01033 l 0.356171,0.256927 0.193577,0.481612 0.06801,0.545969 -0.02078,0.447482 -0.107682,0.418387 -0.214358,0.440177 -0.295718,0.211587 q -0.190556,0.0077 -0.353274,-0.267381 l -0.211587,-0.575944 -0.04912,-0.71398 0.138917,-0.687532 0.348489,-0.49874 0.132242,-0.05856 h 0.0048"
         stroke="#191919"
         stroke-width="0.7 px"
         style="fill:#ffffff;fill-opacity:1;fill-rule:evenodd;stroke-width:0.025;stroke-linecap:square;stroke-miterlimit:4;stroke-dasharray:none;stroke:#ff0000;stroke-opacity:1" /><path
         id="Connect_w0096"
         d="m -10.429208,13.178817 h 0.01033 l 0.356171,0.256927 0.1935768,0.481612 0.06801,0.545969 -0.020781,0.447482 -0.1076826,0.418387 -0.2143572,0.440177 -0.295718,0.211587 q -0.190557,0.0077 -0.353275,-0.267381 l -0.211587,-0.575944 -0.04912,-0.71398 0.138917,-0.687532 0.348488,-0.49874 0.132242,-0.05856 h 0.0048"
         stroke="#191919"
         stroke-width="0.7 px"
         style="fill:#ffffff;fill-opacity:1;fill-rule:evenodd;stroke-width:0.025;stroke-linecap:square;stroke-miterlimit:4;stroke-dasharray:none;stroke:#ff0000;stroke-opacity:1" /><path
         id="Connect_w0097"
         d="m -15.464472,19.078817 h 0.01033 l 0.356171,0.256927 0.193577,0.481612 0.06801,0.545969 -0.02078,0.447482 -0.107682,0.418387 -0.214358,0.440177 -0.295718,0.211587 q -0.190556,0.0077 -0.353274,-0.267381 l -0.211587,-0.575944 -0.04912,-0.71398 0.138917,-0.687532 0.348489,-0.49874 0.132242,-0.05856 h 0.0048"
         stroke="#191919"
         stroke-width="0.7 px"
         style="fill:#ffffff;fill-opacity:1;fill-rule:evenodd;stroke-width:0.025;stroke-linecap:square;stroke-miterlimit:4;stroke-dasharray:none;stroke:#ff0000;stroke-opacity:1" /><path
         id="Connect_w0098"
         d="m -37.050618,19.278817 h 0.01033 l 0.356171,0.256927 0.193577,0.481612 0.06801,0.545969 -0.02078,0.447482 -0.107682,0.418387 -0.214358,0.440177 -0.295718,0.211587 q -0.190556,0.0077 -0.353274,-0.267381 l -0.211587,-0.575944 -0.04912,-0.71398 0.138917,-0.687532 0.348489,-0.49874 0.132242,-0.05856 h 0.0048"
         stroke="#191919"
         stroke-width="0.7 px"
         style="fill:#ffffff;fill-opacity:1;fill-rule:evenodd;stroke-width:0.025;stroke-linecap:square;stroke-miterlimit:4;stroke-dasharray:none;stroke:#ff0000;stroke-opacity:1" /><path
         id="Connect_w0099"
         d="m -44.940795,13.778817 h 0.01033 l 0.356171,0.256927 0.193577,0.481612 0.06801,0.545969 -0.02078,0.447482 -0.107683,0.418387 -0.214357,0.440177 -0.295718,0.211587 q -0.190556,0.0077 -0.353275,-0.267381 l -0.211587,-0.575944 -0.04912,-0.71398 0.138917,-0.687532 0.348489,-0.49874 0.132241,-0.05856 h 0.0048"
         stroke="#191919"
         stroke-width="0.7 px"
         style="fill:#ffffff;fill-opacity:1;fill-rule:evenodd;stroke-width:0.025;stroke-linecap:square;stroke-miterlimit:4;stroke-dasharray:none;stroke:#ff0000;stroke-opacity:1" /><path
         id="Connect_w0100"
         d="m 42.912165,12.723137 0.674433,1.851385 H 42.24214 l 0.670025,-1.851385"
         stroke="#191919"
         stroke-width="0.7 px"
         style="fill:#ffffff;fill-opacity:1;fill-rule:evenodd;stroke-width:0.025;stroke-linecap:square;stroke-miterlimit:4;stroke-dasharray:none;stroke:#ff0000;stroke-opacity:1" /><path
         id="Connect_w0101"
         d="M 40.059856,15.398829 H 39.19808 q -0.356861,-0.0085 -0.570844,-0.242443 l -0.204974,-0.504723 v -0.02204 l 0.178526,-0.495907 q 0.205121,-0.25205 0.570844,-0.293136 h 0.888224 v 1.558249"
         stroke="#191919"
         stroke-width="0.7 px"
         style="fill:#ffffff;fill-opacity:1;fill-rule:evenodd;stroke-width:0.025;stroke-linecap:square;stroke-miterlimit:4;stroke-dasharray:none;stroke:#ff0000;stroke-opacity:1" /><path
         id="Connect_w0102"
         d="m 15.426963,-28.338738 h -1.05573 l -0.415386,-0.13665 -0.256843,-0.357053 -0.03527,-0.224811 0.130038,-0.387909 q 0.201379,-0.274218 0.5466,-0.304156 h 1.086586 v 1.410579"
         stroke="#191919"
         stroke-width="0.7 px"
         style="fill:#ffffff;fill-opacity:1;fill-rule:evenodd;stroke-width:0.025;stroke-linecap:square;stroke-miterlimit:4;stroke-dasharray:none;stroke:#ff0000;stroke-opacity:1" /><path
         id="Connect_w0103"
         d="m 7.473416,-8.1336373 q -0.03919,-0.304581 0.1630983,-0.5355793 0.2023252,-0.230226 0.5069269,-0.2309824 h 1.0711587 v 1.3541562 H 8.1434412 L 7.6994026,-7.713843 7.473416,-8.1336373"
         stroke="#191919"
         stroke-width="0.7 px"
         style="fill:#ffffff;fill-opacity:1;fill-rule:evenodd;stroke-width:0.025;stroke-linecap:square;stroke-miterlimit:4;stroke-dasharray:none;stroke:#ff0000;stroke-opacity:1" /><path
         id="Connect_w0104"
         d="m 10.084688,-29.081496 0.16971,-0.438602 q 0.202591,-0.228595 0.506927,-0.229219 h 1.071159 v 1.35107 h -1.071159 l -0.444038,-0.167506 -0.225987,-0.418766 -0.0066,-0.09698"
         stroke="#191919"
         stroke-width="0.7 px"
         style="fill:#ffffff;fill-opacity:1;fill-rule:evenodd;stroke-width:0.025;stroke-linecap:square;stroke-miterlimit:4;stroke-dasharray:none;stroke:#ff0000;stroke-opacity:1" /><path
         id="Connect_w0105"
         d="m -21.809518,-7.2120902 h -0.416037 -0.005 -0.0063 -0.0045 -0.0057 l -0.0056,-5.877e-4 -0.007,-6.717e-4 -0.005,-5.878e-4 -0.0063,-6.717e-4 -0.005,-5.877e-4 -0.0063,-6.717e-4 -0.01008,-0.00252 -0.005,-0.00185 -0.0063,-0.00319 -0.0056,-5.877e-4 -0.007,-0.00193 -0.005,-0.00126 -0.0064,-0.00252 -0.01133,-0.00504 -0.01553,-0.0057 -0.0021,-0.00127 -0.0063,-0.00319 -0.01008,-0.0063 -0.01259,-0.0063 -0.005,-0.00311 -0.0063,-0.00445 -0.01142,-0.00756 -0.0056,-0.00311 -0.007,-0.00445 -0.005,-0.00378 -0.0063,-0.00504 -0.005,-0.00311 -0.0063,-0.00453 -0.01259,-0.010076 -0.01008,-0.010076 -0.005,-0.00504 -0.0063,-0.0063 -0.0051,-0.00504 -0.0063,-0.0063 -0.01133,-0.010076 -0.005,-0.00504 -0.0063,-0.00638 -0.005,-0.00563 -0.0063,-0.00697 -0.01008,-0.012594 -0.01133,-0.013854 -0.01008,-0.013938 -0.0051,-0.00688 -0.0063,-0.00697 -0.0044,-0.00756 -0.0057,-0.00756 -0.0044,-0.00814 -0.0057,-0.00823 -0.01008,-0.015197 -0.0044,-0.00814 -0.0057,-0.00823 -0.0044,-0.00814 -0.0057,-0.00823 -0.0076,-0.016373 -0.0044,-0.00882 -0.0057,-0.010076 -0.0045,-0.00814 -0.0057,-0.00949 -0.0031,-0.00882 -0.0044,-0.01016 -0.0088,-0.018892 -0.0088,-0.020151 -0.0031,-0.0094 -0.0044,-0.010831 -0.0031,-0.010076 -0.0045,-0.011335 -0.0063,-0.020151 -0.0031,-0.010076 -0.0044,-0.011419 -0.0063,-0.02141 -0.0076,-0.021411 -0.0019,-0.010747 -0.0032,-0.012007 -0.0025,-0.010663 -0.0038,-0.012007 -0.0018,-0.00949 -0.0032,-0.012007 -0.0038,-0.02393 -0.0018,-0.010663 -0.0032,-0.012007 -0.0013,-0.010747 -0.0025,-0.012007 -0.0038,-0.023929 -0.0018,-0.011335 -0.0032,-0.012678 -0.0025,-0.023846 -5.87e-4,-0.010663 -0.0019,-0.01335 -0.0025,-0.023929 v -0.023929 -0.025105 -0.023929 l -0.0013,-0.011923 -0.0038,-0.013266 v -0.010663 -0.013266 -0.011335 -0.012594 -0.011923 -0.012007 -0.011923 -0.013266 -0.011335 -0.012594 l 0.0038,-0.025189 v -0.02267 l 0.0025,-0.026448 0.0013,-0.02267 0.0025,-0.023929 0.0019,-0.011335 5.87e-4,-0.012595 0.005,-0.023845 0.0025,-0.010663 0.0013,-0.012007 0.0038,-0.023929 0.0038,-0.023846 0.0063,-0.02267 0.0038,-0.021411 0.0038,-0.010663 0.0025,-0.012007 0.0038,-0.010663 0.0025,-0.012007 0.0063,-0.021411 0.0063,-0.021411 0.0044,-0.0094 0.0031,-0.010747 0.0076,-0.021411 0.0076,-0.020151 0.0044,-0.0094 0.0031,-0.010747 0.005,-0.00882 0.0038,-0.010076 0.0088,-0.018892 0.0076,-0.017632 0.0088,-0.018892 0.005,-0.00814 0.0038,-0.00823 0.01,-0.017632 0.01008,-0.016373 0.0057,-0.00814 0.0044,-0.00814 0.01008,-0.015113 0.005,-0.00756 0.0038,-0.00756 0.02141,-0.028967 0.02015,-0.027624 0.02267,-0.025189 0.02267,-0.023929 0.02141,-0.021411 0.02393,-0.018892 0.02393,-0.018892 0.02393,-0.016373 0.02267,-0.013854 0.02267,-0.011335 0.02393,-0.00882 0.02393,-0.00882 0.01133,-0.00311 0.01,-0.00445 0.02267,-0.00378 0.02267,-10e-8 h 0.0063 0.005 0.415534 v 1.8670865"
         stroke="#191919"
         stroke-width="0.7 px"
         style="fill:#ffffff;fill-opacity:1;fill-rule:evenodd;stroke-width:0.025;stroke-linecap:square;stroke-miterlimit:4;stroke-dasharray:none;stroke:#ff0000;stroke-opacity:1" /><path
         id="Connect_w0106"
         d="m -33.432608,21.095945 q 0.106158,0.295352 -0.03501,0.577834 l -0.221914,0.263602 -0.320277,0.133123 -0.504408,-0.105793 q -0.336497,-0.215151 -0.336272,-0.619522 -2.25e-4,-0.404371 0.336272,-0.619521 0.331716,-0.204497 0.685768,-0.0529 0.288254,0.128292 0.395844,0.423174"
         stroke="#191919"
         stroke-width="0.7 px"
         style="fill:#ffffff;fill-opacity:1;fill-rule:evenodd;stroke-width:0.025;stroke-linecap:square;stroke-miterlimit:4;stroke-dasharray:none;stroke:#ff0000;stroke-opacity:1" /><path
         id="Connect_w0107"
         d="m 38.457526,12.672444 0.141058,-0.361461 0.403337,-0.176323 h 1.057935 v 1.086587 h -1.064547 l -0.405541,-0.196158 -0.132242,-0.352645"
         stroke="#191919"
         stroke-width="0.7 px"
         style="fill:#ffffff;fill-opacity:1;fill-rule:evenodd;stroke-width:0.025;stroke-linecap:square;stroke-miterlimit:4;stroke-dasharray:none;stroke:#ff0000;stroke-opacity:1" /><path
         id="Connect_w0108"
         d="m -25.679208,21.625164 -0.140806,-0.377834 q 0.0046,-0.344478 0.323048,-0.50806 0.31912,-0.166664 0.589421,0.05856 l 0.197481,0.292821 -0.01234,0.35126 -0.263476,0.306045 -0.367506,0.05189 -0.325819,-0.174685"
         stroke="#191919"
         stroke-width="0.7 px"
         style="fill:#ffffff;fill-opacity:1;fill-rule:evenodd;stroke-width:0.025;stroke-linecap:square;stroke-miterlimit:4;stroke-dasharray:none;stroke:#ff0000;stroke-opacity:1" /><path
         id="Connect_w0109"
         d="m 1.1447846,-8.7480725 0.043451,-0.00567 q 0.1764826,0.00233 0.2630983,0.1870277 l 0.1128463,0.3192065 0.013224,0.2332494 L 1.5377312,-7.743667 1.4328829,-7.5028584 1.2496335,-7.36073 1.0215479,-7.4131229 0.87652267,-7.612871 0.80807179,-7.8980725 0.81657305,-8.2508433 0.92186272,-8.5681607 1.1447846,-8.7480725"
         stroke="#191919"
         stroke-width="0.7 px"
         style="fill:#ffffff;fill-opacity:1;fill-rule:evenodd;stroke-width:0.025;stroke-linecap:square;stroke-miterlimit:4;stroke-dasharray:none;stroke:#ff0000;stroke-opacity:1" /><path
         id="Connect_w0110"
         d="m -25.653767,23.316222 -0.166247,-0.400378 0.118136,-0.345718 0.305038,-0.202015 q 0.337746,-0.08426 0.565869,0.172796 0.224426,0.257977 0.106675,0.578842 l -0.206801,0.261712 -0.322166,0.09912 -0.400504,-0.164358"
         stroke="#191919"
         stroke-width="0.7 px"
         style="fill:#ffffff;fill-opacity:1;fill-rule:evenodd;stroke-width:0.025;stroke-linecap:square;stroke-miterlimit:4;stroke-dasharray:none;stroke:#ff0000;stroke-opacity:1" /><path
         id="Connect_w0111"
         d="m 1.0201561,-27.059484 0.2496815,-0.128556 0.2508705,0.129745 q 0.1055426,0.161901 0.09913,0.476178 l -0.1003185,0.442739 -0.2474522,0.129597 -0.2529512,-0.129597 Q 0.91350932,-26.30081 0.9198381,-26.613476 l 0.1003185,-0.446008"
         stroke="#191919"
         stroke-width="0.7 px"
         style="fill:#ffffff;fill-opacity:1;fill-rule:evenodd;stroke-width:0.025;stroke-linecap:square;stroke-miterlimit:4;stroke-dasharray:none;stroke:#ff0000;stroke-opacity:1" /><path
         id="Connect_w0112"
         d="m 3.1357611,-28.781098 0.2496816,-0.128556 0.2486412,0.129745 q 0.1055426,0.161901 0.09913,0.476179 l -0.1003185,0.443779 -0.2474522,0.128556 -0.2507219,-0.129597 q -0.1056069,-0.161431 -0.099278,-0.474097 l 0.1003184,-0.446009"
         stroke="#191919"
         stroke-width="0.7 px"
         style="fill:#ffffff;fill-opacity:1;fill-rule:evenodd;stroke-width:0.025;stroke-linecap:square;stroke-miterlimit:4;stroke-dasharray:none;stroke:#ff0000;stroke-opacity:1" /><path
         id="Connect_w0113"
         d="M 2.839348,15.666577 H 2.3468207 L 2.0206243,15.528038 1.9041675,15.240296 2.0055109,14.943823 2.3317074,14.776317 H 2.839348 v 0.89026"
         stroke="#191919"
         stroke-width="0.7 px"
         style="fill:#ffffff;fill-opacity:1;fill-rule:evenodd;stroke-width:0.025;stroke-linecap:square;stroke-miterlimit:4;stroke-dasharray:none;stroke:#ff0000;stroke-opacity:1" /><path
         id="Connect_w0114"
         d="m 35.897115,-27.64365 0.0932,-0.306045 0.289672,-0.13199 h 0.612091 v 0.773803 h -0.612091 l -0.253736,-0.09588 -0.129135,-0.239883"
         stroke="#191919"
         stroke-width="0.7 px"
         style="fill:#ffffff;fill-opacity:1;fill-rule:evenodd;stroke-width:0.025;stroke-linecap:square;stroke-miterlimit:4;stroke-dasharray:none;stroke:#ff0000;stroke-opacity:1" /><path
         id="Connect_w0115"
         d="m 39.797115,-6.7936499 0.0932,-0.3060453 0.289672,-0.1319899 h 0.612091 v 0.7738035 h -0.612091 l -0.253736,-0.095886 -0.129135,-0.2398825"
         stroke="#191919"
         stroke-width="0.7 px"
         style="fill:#ffffff;fill-opacity:1;fill-rule:evenodd;stroke-width:0.025;stroke-linecap:square;stroke-miterlimit:4;stroke-dasharray:none;stroke:#ff0000;stroke-opacity:1" /><path
         id="Connect_w0116"
         d="m 37.728265,-6.7936499 0.0932,-0.3060453 0.289672,-0.1319899 h 0.612091 v 0.7738035 H 38.111136 L 37.8574,-6.5537674 37.728265,-6.7936499"
         stroke="#191919"
         stroke-width="0.7 px"
         style="fill:#ffffff;fill-opacity:1;fill-rule:evenodd;stroke-width:0.025;stroke-linecap:square;stroke-miterlimit:4;stroke-dasharray:none;stroke:#ff0000;stroke-opacity:1" /><path
         id="Connect_w0117"
         d="m 1.9249064,14.102597 0.078253,-0.201427 0.2307305,-0.100084 h 0.6054576 v 0.620571 H 2.2309517 L 2.0004731,14.308978 1.9249064,14.102597"
         stroke="#191919"
         stroke-width="0.7 px"
         style="fill:#ffffff;fill-opacity:1;fill-rule:evenodd;stroke-width:0.025;stroke-linecap:square;stroke-miterlimit:4;stroke-dasharray:none;stroke:#ff0000;stroke-opacity:1" /><title
         id="title9">b'Connect'</title></g><g
       inkscape:groupmode="layer"
       id="layer3"
       inkscape:label="Panel Bottom Cut"><path
         id="Connect_w0000"
         d="m 70.122254,35.618132 v -55.449565 h 7.956367 V -41.150829 H 8.502947 q -12.3567862,2.146756 -24.462254,5.40968 -14.030832,3.945599 -26.424306,11.625839 -9.421054,5.946424 -17.273829,13.846886 Q -68.883643,-0.66499067 -75.3148,11.0124 V 35.618132 H 70.122254"
         stroke="#191919"
         stroke-width="0.7 px"
         style="display:inline;fill:none;fill-opacity:1;fill-rule:evenodd;stroke-width:0.1;stroke-linecap:square;stroke-miterlimit:4;stroke-dasharray:none"
         inkscape:label="Outline"
         transform="matrix(-1,0,0,1,89.045727,57.194151)" /><circle
         cx="-21.024893"
         cy="-17.770452"
         r="1.5"
         stroke="#191919"
         stroke-width="0.7 px"
         style="display:inline;fill:none;stroke-width:0.1;stroke-linecap:square;stroke-miterlimit:4;stroke-dasharray:none"
         id="circle1"
         transform="matrix(-1,0,0,1,89.045727,57.194151)" /><circle
         cx="26.845552"
         cy="-37.158554"
         r="1.5"
         stroke="#191919"
         stroke-width="0.7 px"
         style="display:inline;fill:none;stroke-width:0.1;stroke-linecap:square;stroke-miterlimit:4;stroke-dasharray:none"
         id="circle2"
         transform="matrix(-1,0,0,1,89.045727,57.194151)" /><circle
         cx="71.440971"
         cy="-37.964565"
         r="1.5"
         stroke="#191919"
         stroke-width="0.7 px"
         style="display:inline;fill:none;stroke-width:0.1;stroke-linecap:square;stroke-miterlimit:4;stroke-dasharray:none"
         id="circle3"
         transform="matrix(-1,0,0,1,89.045727,57.194151)" /><circle
         cx="71.896545"
         cy="-30.166836"
         r="4"
         stroke="#191919"
         stroke-width="0.7 px"
         style="display:inline;fill:none;stroke-width:0.1;stroke-linecap:square;stroke-miterlimit:4;stroke-dasharray:none"
         id="circle4"
         transform="matrix(-1,0,0,1,89.045727,57.194151)" /><path
         id="Connect_w0026"
         d="m 22.131744,-24.112906 h -24 v 8 h 24 v -8"
         stroke="#191919"
         stroke-width="0.7 px"
         style="display:inline;fill:none;fill-opacity:1;fill-rule:evenodd;stroke-width:0.1;stroke-linecap:square;stroke-miterlimit:4;stroke-dasharray:none"
         inkscape:label="Box RPM"
         transform="matrix(-1,0,0,1,89.045727,57.194151)" /><path
         id="Connect_w0032"
         d="m 53.19176,-24.112906 h -18 v 8 h 18 v -8"
         stroke="#191919"
         stroke-width="0.7 px"
         style="display:inline;fill:none;fill-opacity:1;fill-rule:evenodd;stroke-width:0.1;stroke-linecap:square;stroke-miterlimit:4;stroke-dasharray:none"
         inkscape:label="Box DUCT"
         transform="matrix(-1,0,0,1,89.045727,57.194151)" /><circle
         cx="-63.987091"
         cy="13.260443"
         r="1.5"
         stroke="#191919"
         stroke-width="0.7 px"
         style="display:inline;fill:none;stroke-width:0.1;stroke-linecap:square;stroke-miterlimit:4;stroke-dasharray:none"
         id="circle5"
         transform="matrix(-1,0,0,1,89.045727,57.194151)" /><circle
         cx="-26.672939"
         cy="0"
         r="4"
         stroke="#191919"
         stroke-width="0.7 px"
         style="display:inline;fill:none;stroke-width:0.1;stroke-linecap:square;stroke-miterlimit:4;stroke-dasharray:none"
         id="circle6"
         transform="matrix(-1,0,0,1,89.045727,57.194151)" /><circle
         cx="-63.864422"
         cy="22.168289"
         r="4"
         stroke="#191919"
         stroke-width="0.7 px"
         style="display:inline;fill:none;stroke-width:0.1;stroke-linecap:square;stroke-miterlimit:4;stroke-dasharray:none"
         id="circle7"
         transform="matrix(-1,0,0,1,89.045727,57.194151)" /><circle
         cx="-21.024893"
         cy="28.387508"
         r="1.5"
         stroke="#191919"
         stroke-width="0.7 px"
         style="display:inline;fill:none;stroke-width:0.1;stroke-linecap:square;stroke-miterlimit:4;stroke-dasharray:none"
         id="circle8"
         transform="matrix(-1,0,0,1,89.045727,57.194151)" /><path
         id="Connect_w0068"
         d="m 16.131744,-3.1129058 h -18 v 8 h 18 v -8"
         stroke="#191919"
         stroke-width="0.7 px"
         style="display:inline;fill:none;fill-opacity:1;fill-rule:evenodd;stroke-width:0.1;stroke-linecap:square;stroke-miterlimit:4;stroke-dasharray:none"
         inkscape:label="Box JPT"
         transform="matrix(-1,0,0,1,89.045727,57.194151)" /><path
         id="Connect_w0079"
         d="m 53.19176,-3.1129058 h -18 v 8 h 18 v -8"
         stroke="#191919"
         stroke-width="0.7 px"
         style="display:inline;fill:none;fill-opacity:1;fill-rule:evenodd;stroke-width:0.1;stroke-linecap:square;stroke-miterlimit:4;stroke-dasharray:none"
         inkscape:label="Box FF"
         transform="matrix(-1,0,0,1,89.045727,57.194151)" /><path
         id="Connect_w0084"
         d="m 16.131744,17.887094 h -12 v 8 h 12 v -8"
         stroke="#191919"
         stroke-width="0.7 px"
         style="display:inline;fill:none;fill-opacity:1;fill-rule:evenodd;stroke-width:0.1;stroke-linecap:square;stroke-miterlimit:4;stroke-dasharray:none"
         inkscape:label="Box H20"
         transform="matrix(-1,0,0,1,89.045727,57.194151)" /><circle
         cx="26.29822"
         cy="21.887094"
         r="3.5172739"
         stroke="#191919"
         stroke-width="0.7 px"
         style="display:inline;fill:none;stroke-width:0.1;stroke-linecap:square;stroke-miterlimit:4;stroke-dasharray:none"
         id="circle9"
         transform="matrix(-1,0,0,1,89.045727,57.194151)" /><path
         id="Connect_w0086"
         d="m 53.19176,17.887094 h -18 v 8 h 18 v -8"
         stroke="#191919"
         stroke-width="0.7 px"
         style="display:inline;fill:none;fill-opacity:1;fill-rule:evenodd;stroke-width:0.1;stroke-linecap:square;stroke-miterlimit:4;stroke-dasharray:none"
         inkscape:label="Box Stab"
         transform="matrix(-1,0,0,1,89.045727,57.194151)" /></g><g
       id="Cut001_cs"
       transform="matrix(-1,0,0,1,182.05567,9.6925315)"
       inkscape:label="Water Light"><circle
         cx="26.290001"
         cy="21.860001"
         r="3.45"
         stroke="#191919"
         stroke-width="0.7 px"
         style="fill:none;stroke-width:0.1;stroke-linecap:square;stroke-miterlimit:4;stroke-dasharray:none"
         id="circle1-48" /><path
         id="Cut001_cs_w0001"
         d="m 26.51033,20.021287 0.771411,2.639841 0.509131,-2.639841 q 0.110023,-0.28893 0.365869,-0.245676 0.254016,0.05293 0.251259,0.362343 l -0.762594,3.891583 q -0.08362,0.235594 -0.295341,0.253463 -0.21223,0.01287 -0.310768,-0.222607 l -0.826511,-2.842611 -0.833124,2.842611 q -0.09505,0.22958 -0.314,0.222607 -0.219085,-0.01108 -0.2877,-0.253463 l -0.762594,-3.891583 q -0.02289,-0.300863 0.248027,-0.35911 0.272463,-0.05199 0.362489,0.242443 l 0.515743,2.635433 0.771411,-2.635433 q 0.08393,-0.229388 0.294311,-0.224811 0.209786,0.0081 0.302981,0.224811"
         stroke="#191919"
         stroke-width="0.7 px"
         style="fill:#ff0000;fill-opacity:1;fill-rule:evenodd;stroke-width:0.025;stroke-linecap:square;stroke-miterlimit:4;stroke-dasharray:none;stroke:#ff0000;stroke-opacity:1" /><title
         id="title1-5">b'Cut001_cs'</title></g></g></svg>
