<?xml version="1.0"?>
<!DOCTYPE svg PUBLIC "-//W3C//DTD SVG 1.1//EN" "http://www.w3.org/Graphics/SVG/1.1/DTD/svg11.dtd">
<svg width="27.17303868mm" height="60.94446068mm" viewBox="0 0 27.17303868 60.94446068" xmlns="http://www.w3.org/2000/svg" version="1.1">
<g id="Part_cs" transform="translate(13.586519,30.472230) scale(1,-1)">
<path id="Part_cs_w0000"  d="M -12.820117 30.205828 A 0.5 0.5 0 0 1 -13.3201 29.7058L -13.320117 -29.705828 A 0.5 0.5 0 0 1 -12.8201 -30.2058L 12.820117 -30.205828 A 0.5 0.5 0 0 1 13.3201 -29.7058L 13.320117 29.705828 A 0.5 0.5 0 0 1 12.8201 30.2058L -12.820117 30.205828 " stroke="#191919" stroke-width="0.7 px" style="stroke-width:0.7;stroke-miterlimit:4;stroke-dasharray:none;stroke-linecap:square;fill:none;fill-opacity:1;fill-rule: evenodd"/>
<path id="Part_cs_w0001"  d="M -8.40234365 -1.693359375 L -8.470458884375 -1.59228515625 L -8.685790915625 -1.502197265625 L -8.7099608375 -1.50439453125 L -8.936279196875 -1.620849609375 L -8.983593650000001 -1.7121093749999998 L -8.9999999 -1.81201171875 L -8.9999999 -5.68798828125 L -8.967040915625 -5.82421875 Q -8.877286152973262 -5.997397109113296 -8.690185446875 -5.997802734375 Q -8.435786757624886 -5.997348111678358 -8.382568259375 -5.74951171875 L -8.3759764625 -5.68798828125 L -8.3759764625 -1.81201171875 L -8.40234365 -1.693359375 " stroke="#191919" stroke-width="0.7 px" style="stroke-width:0.7;stroke-miterlimit:4;stroke-dasharray:none;stroke-linecap:square;fill:none;fill-opacity:1;fill-rule: evenodd"/>
<path id="Part_cs_w0002"  d="M -7.418261618750001 -5.3583984375 Q -7.090764014046828 -5.875312269337504 -6.475634665624999 -5.9736328125 L -6.192187400000001 -5.997802734375 Q -5.5257916925615564 -5.988641426231434 -5.067187400000002 -5.47265625 L -4.843066306250002 -5.101318359375 L -4.731005759375001 -4.679443359375 L -4.698046775000001 -4.6640625 L -4.724413962500001 -4.61572265625 L -4.720019431250001 -4.51025390625 L -4.922167868750001 -3.78955078125 Q -5.158924650794011 -3.385492246976943 -5.543994040625001 -3.205078125 L -6.029589743750001 -3.06884765625 L -6.163622946875001 -3.062255859375 L -6.196581931250001 -3.062255859375 L -6.53056630625 -3.0908203125 L -6.545947165625001 -3.093017578125 L -6.561328025000001 -3.097412109375 L -6.548144431250001 -3.075439453125 L -6.537158103125001 -3.0556640625 L -6.4822264625 -2.97216796875 L -6.0779295875 -2.47998046875 L -5.590136618750001 -2.064697265625 L -5.526415915625002 -2.007568359375 L -5.447314353125002 -1.81201171875 L -5.541796775000001 -1.603271484375 L -5.759326071875001 -1.493408203125 L -5.946093650000001 -1.55712890625 L -5.968066306250001 -1.572509765625 L -6.761279196875001 -2.3119628906250003 L -7.339160056250001 -3.24462890625 L -7.501757712500001 -3.664306640625 L -7.585253806250001 -3.95654296875 L -7.644579978125001 -4.253173828125 L -7.648974509375001 -4.279541015625 L -7.668749900000001 -4.5234375 Q -7.666194206332627 -4.966265608484804 -7.41826161875 -5.3583984375 " stroke="#191919" stroke-width="0.7 px" style="stroke-width:0.7;stroke-miterlimit:4;stroke-dasharray:none;stroke-linecap:square;fill:none;fill-opacity:1;fill-rule: evenodd"/>
<path id="Part_cs_w0003"  d="M -3.6691405250000004 -5.771484375 Q -3.298291885389147 -5.995580609353155 -2.8869139625000004 -5.997802734375 L -2.7199217750000004 -5.989013671875 Q -2.2025440981389814 -5.937308079237013 -1.8388182593749995 -5.575927734375 L -1.4762694312500013 -4.998046875 L -1.3883788062500004 -4.52783203125 L -1.4059569312499995 -4.319091796875 L -1.4696776343750004 -4.046630859375 Q -1.6533902987998692 -3.474673944595115 -2.1991698218750004 -3.1962890625 L -2.8693358375000004 -3.02490234375 L -3.3131834937500004 -3.09521484375 L -3.3461424781250004 -3.1062011718750004 L -3.3461424781250004 -2.108642578125 L -2.2167479468750004 -2.108642578125 Q -2.0167804961128604 -2.1083521266660075 -1.9376952124999993 -1.9218750000000002 L -1.9091307593750004 -1.801025390625 L -1.9091307593750004 -1.792236328125 L -1.9970213843750004 -1.587890625 L -2.2409178687500004 -1.49560546875 L -3.6449706031250004 -1.49560546875 Q -3.8829001668421586 -1.4950369237969756 -3.9372069312500004 -1.70654296875 L -3.9459959937500004 -1.7472656249999998 L -3.9525877906250004 -1.80322265625 L -3.9525877906250004 -3.620361328125 L -3.8449217750000004 -3.85546875 L -3.6537596656250004 -3.92578125 L -3.5966307593750004 -3.92138671875 L -3.4560057593750004 -3.85546875 L -3.3439452125000004 -3.774169921875 L -2.8737303687500004 -3.637939453125 L -2.3749510718749995 -3.79833984375 L -2.0519530250000004 -4.22900390625 L -2.0036131812500004 -4.5234375 L -2.0387694312500013 -4.767333984375 Q -2.1957187915512972 -5.296817472405843 -2.7331053687500004 -5.38037109375 L -2.8715331031250004 -5.391357421875 L -2.8935057593750004 -5.391357421875 Q -3.332386196358843 -5.377552753683283 -3.5922362281250004 -5.0244140625 L -3.7899901343750004 -4.9013671875 L -3.8515135718750004 -4.89697265625 L -4.01630849375 -4.951904296875 L -4.097607321875 -5.0419921875 L -4.141552634375 -5.20458984375 L -4.128369040625 -5.30126953125 L -4.109765525 -5.339794921875001 L -4.0866209937499995 -5.3759765625 L -3.9020506812500004 -5.595703125 L -3.6691405250000004 -5.771484375 " stroke="#191919" stroke-width="0.7 px" style="stroke-width:0.7;stroke-miterlimit:4;stroke-dasharray:none;stroke-linecap:square;fill:none;fill-opacity:1;fill-rule: evenodd"/>
<circle cx="0.0" cy="-22.985674" r="2.0" stroke="#191919" stroke-width="0.7 px" style="stroke-width:0.7;stroke-miterlimit:4;stroke-dasharray:none;stroke-linecap:square;fill:none"/>
<path id="Part_cs_w0005"  d="M -0.28476552500000096 -5.771484375 Q 0.08608311461084883 -5.995580609353155 0.49746103749999904 -5.997802734375 L 0.664453224999999 -5.989013671875 Q 1.181830901861069 -5.937308079236988 1.545556740624999 -5.575927734375 L 1.908105568749999 -4.998046875 L 1.995996193749999 -4.52783203125 L 1.978418068749999 -4.319091796875 L 1.914697365624999 -4.046630859375 Q 1.7309847012001112 -3.474673944595092 1.185205178124999 -3.1962890625 L 0.515039162499999 -3.02490234375 L 0.07119150624999904 -3.09521484375 L 0.03823252187499904 -3.1062011718750004 L 0.03823252187499904 -2.108642578125 L 1.1676270531250008 -2.108642578125 Q 1.3675945038871546 -2.1083521266659977 1.446679787499999 -1.921875 L 1.475244240624999 -1.801025390625 L 1.475244240624999 -1.792236328125 L 1.387353615624999 -1.587890625 L 1.143457131249999 -1.49560546875 L -0.26059560312500096 -1.49560546875 Q -0.4985251668421704 -1.4950369237969854 -0.5528319312499992 -1.70654296875 L -0.561620993750001 -1.7472656249999998 L -0.568212790625001 -1.80322265625 L -0.568212790625001 -3.620361328125 L -0.46054677500000096 -3.85546875 L -0.26938466562500096 -3.92578125 L -0.21225575937500096 -3.92138671875 L -0.07163075937500096 -3.85546875 L 0.04042978749999904 -3.774169921875 L 0.510644631249999 -3.637939453125 L 1.009423928124999 -3.79833984375 L 1.332421974999999 -4.22900390625 L 1.380761818749999 -4.5234375 L 1.345605568749999 -4.767333984375 Q 1.1886562084487342 -5.296817472405827 0.651269631249999 -5.38037109375 L 0.512841896874999 -5.391357421875 L 0.49086924062499904 -5.391357421875 Q 0.05198880364116705 -5.377552753683288 -0.207861228125001 -5.0244140625 L -0.40561513437500096 -4.9013671875 L -0.46713857187500096 -4.89697265625 L -0.631933493750001 -4.951904296875 L -0.713232321875001 -5.0419921875 L -0.757177634375001 -5.20458984375 L -0.743994040625001 -5.30126953125 L -0.7253905250000017 -5.339794921875001 L -0.702245993750001 -5.3759765625 L -0.517675681250001 -5.595703125 L -0.28476552500000096 -5.771484375 " stroke="#191919" stroke-width="0.7 px" style="stroke-width:0.7;stroke-miterlimit:4;stroke-dasharray:none;stroke-linecap:square;fill:none;fill-opacity:1;fill-rule: evenodd"/>
<path id="Part_cs_w0006"  d="M 4.602539162499999 -5.0771484375 L 5.110107521874999 -4.342236328125001 L 5.479248146874999 -3.53466796875 L 5.580322365624999 -2.930419921875 L 5.578125099999999 -2.8666992187500004 L 5.373779396875001 -2.218505859375 Q 5.0038530169498205 -1.6161681428923305 4.294921974999998 -1.515380859375 L 4.057617287500001 -1.497802734375 Q 3.4874733846279335 -1.5011239079611602 3.0776368187499994 -1.9130859375 Q 2.655193290171538 -2.3377247357405606 2.6271973656249994 -2.9326171875 L 2.6250000999999994 -3.0029296875 Q 2.627833428539482 -3.5574826034758313 3.0073243187499994 -3.976318359375 L 3.6005860374999994 -4.3740234375 L 4.081787209374999 -4.464111328125 L 4.092773537499999 -4.464111328125 L 4.310302834375001 -4.446533203125 L 3.9104004906249976 -4.885986328125 L 3.5203125999999987 -5.173828125 L 3.1040040062499994 -5.417724609375 L 3.051269631250001 -5.455078125 L 2.9589844749999994 -5.60888671875 L 2.9501954124999994 -5.698974609375 L 2.9655762718749994 -5.79345703125 L 3.147949318750001 -5.980224609375 L 3.2534180687499994 -6.0 L 3.4094239281249994 -5.96044921875 L 4.042236428124999 -5.568310546875001 L 4.602539162499999 -5.0771484375 " stroke="#191919" stroke-width="0.7 px" style="stroke-width:0.7;stroke-miterlimit:4;stroke-dasharray:none;stroke-linecap:square;fill:none;fill-opacity:1;fill-rule: evenodd"/>
<path id="Part_cs_w0007"  d="M 8.496240334375 -4.7958984375 L 8.270947365625 -5.136474609375 L 7.918359475000001 -5.343017578125 L 7.639306740624997 -5.38037109375 Q 7.177928232403298 -5.372566799430373 6.907617287499999 -4.956298828125 L 6.825146584374998 -4.780517578125 L 6.793359474999999 -4.653076171875 L 6.746045021875 -4.539990234375001 L 6.659326271874999 -4.450927734375 L 6.492334084374997 -4.400390625 Q 6.232819404261692 -4.401548608580875 6.178125099999999 -4.6640625 L 6.179150490624998 -4.718994140625 L 6.182519631249999 -4.76513671875 Q 6.288431590852944 -5.305972232382258 6.704296975 -5.655029296875 Q 7.12412581853394 -6.001343783520026 7.678857521874997 -6.0 Q 8.232431802439823 -5.99850303926063 8.652246193749997 -5.630859375 L 9.056543068749997 -5.068359375 L 9.172998146875 -4.51904296875 L 9.16640635 -4.380615234375 Q 9.121839101683388 -3.9172298580623686 8.84443369375 -3.558837890625 Q 8.564037595041192 -3.202090407248779 8.120507912499997 -3.053466796875 L 8.096337990625 -3.046875 L 8.029248146874997 -3.0304687500000007 L 7.962304787500001 -3.013916015625 L 8.7796876 -2.00537109375 L 8.850000099999997 -1.8251953125 L 8.845605568749997 -1.76806640625 Q 8.79967500309509 -1.5012515663615371 8.53798838125 -1.5 L 6.843896584374999 -1.5 Q 6.580813830373179 -1.500537820049669 6.538476662499998 -1.75927734375 L 6.531884865624997 -1.82080078125 L 6.606591896874999 -2.01416015625 L 6.839502053124999 -2.121826171875 L 6.846093849999999 -2.121826171875 L 7.885400490624997 -2.121826171875 L 7.043847756250001 -3.1611328125 L 6.971337990624997 -3.334716796875 L 6.977929787500001 -3.396240234375 L 6.993310646874999 -3.4599609375 L 7.147119240624997 -3.6357421875 L 7.281152443750001 -3.668701171875 L 7.344873146874997 -3.662109375 L 7.386621193749997 -3.64892578125 L 7.399804787499997 -3.64453125 L 7.670068459375001 -3.60498046875 L 8.0501954125 -3.695068359375 Q 8.351528863913469 -3.847528136748598 8.491845803125 -4.174072265625 L 8.5423829125 -4.393798828125 L 8.5423829125 -4.42236328125 L 8.535791115625 -4.60693359375 L 8.535791115625 -4.666259765625 L 8.517041115624997 -4.727783203125 L 8.496240334375 -4.7958984375 " stroke="#191919" stroke-width="0.7 px" style="stroke-width:0.7;stroke-miterlimit:4;stroke-dasharray:none;stroke-linecap:square;fill:none;fill-opacity:1;fill-rule: evenodd"/>
<path id="Part_cs_w0008"  d="M -5.9999999 5.18798828125 L -5.9999999 1.305419921875 Q -5.957677294296598 1.0377237648106172 -5.68798818125 1.0 L -4.512451071875 1.0 Q -4.034804719076164 1.0275221852359668 -3.68408193125 1.282275390625 Q -3.3539410608120135 1.5270345866145045 -3.2138670874999997 1.8920898437500002 L -3.1303709937499997 2.35791015625 L -3.1633299781249997 2.66552734375 Q -3.254531356426717 3.092178033927807 -3.5852049781249997 3.4345703125 Q -3.2821579678533968 3.713899132255161 -3.1962889624999997 4.07177734375 L -3.1633299781249997 4.33984375 L -3.1633299781249997 4.355224609375 L -3.2270506812499997 4.72216796875 L -3.6215331031250004 5.247314453125 Q -3.916636964674282 5.468490558455985 -4.323486228125 5.5 L -5.68798818125 5.5 Q -5.961965621822067 5.460122695019846 -5.9999999 5.18798828125 " stroke="#191919" stroke-width="0.7 px" style="stroke-width:0.7;stroke-miterlimit:4;stroke-dasharray:none;stroke-linecap:square;fill:none;fill-opacity:1;fill-rule: evenodd"/>
<path id="Part_cs_w0009"  d="M 0.0729493187500001 5.497802734375 Q -0.1647428025759839 5.496652541302687 -0.2104979468749999 5.251708984375 L -0.214892478124999 5.1923828125 L -0.214892478124999 2.483154296875 L -0.3281248999999997 2.061279296875 L -0.627978415624999 1.749267578125 L -1.089404196875 1.6064453125 L -1.4958983375 1.727294921875 Q -1.910691682901183 1.9831779270474579 -1.93974599375 2.483154296875 L -1.93974599375 5.1923828125 Q -1.940154812858209 5.444527522144023 -2.18583974375 5.493408203125 L -2.26494130625 5.502197265625 Q -2.4485401840407715 5.501081240874292 -2.535204978125 5.31103515625 L -2.5593749 5.1923828125 L -2.5593749 2.439208984375 Q -2.5363114611851305 1.7886660358757909 -2.0903319312499993 1.3965332031250002 Q -1.6679488946205034 1.0438209049720801 -1.137744040625 1.017578125 L -1.0740233375 1.015380859375 Q -0.5791215583890292 1.0188033783550394 -0.1577635718749999 1.31640625 Q 0.31714046011555397 1.6680323254749467 0.3937501000000001 2.307373046875 L 0.4025391625000001 2.439208984375 L 0.4025391625000001 5.1923828125 Q 0.40139181053146755 5.468935227105668 0.1212891625000001 5.49560546875 L 0.0729493187500001 5.497802734375 " stroke="#191919" stroke-width="0.7 px" style="stroke-width:0.7;stroke-miterlimit:4;stroke-dasharray:none;stroke-linecap:square;fill:none;fill-opacity:1;fill-rule: evenodd"/>
<path id="Part_cs_w0010"  d="M 3.6665040062499985 5.49560546875 Q 3.391596494475087 5.491610908847765 3.3522950218750003 5.18359375 L 3.3522950218750003 2.38427734375 L 1.5065918968750003 5.348388671875 L 1.2714844750000003 5.50439453125 L 1.1704102562500003 5.484619140625 Q 0.9677484856818648 5.411030038583643 0.9375001000000003 5.18359375 L 0.9375001000000003 1.30322265625 Q 0.9807823575601229 0.9998891457619559 1.2461426781250005 0.9956054687500001 Q 1.5116986351434685 0.999896106549802 1.5571290062500003 1.30322265625 L 1.5571290062500003 4.100341796875 L 3.4028321312500003 1.140625 L 3.6467286156250003 0.99560546875 L 3.6774903343750003 0.99560546875 L 3.7500001000000003 1.0087890625 Q 3.9714941295157566 1.0704761100742068 3.9719239281250003 1.298828125 L 3.9719239281250003 5.18359375 Q 3.9492321415793143 5.487980229683451 3.6708985375000003 5.49560546875 L 3.6665040062499985 5.49560546875 " stroke="#191919" stroke-width="0.7 px" style="stroke-width:0.7;stroke-miterlimit:4;stroke-dasharray:none;stroke-linecap:square;fill:none;fill-opacity:1;fill-rule: evenodd"/>
<path id="Part_cs_w0011"  d="M 6.121435646875001 5.5 L 5.578711037499999 5.3505859375 Q 5.0278576559855335 5.019520965780455 4.805273537499999 4.372802734375 Q 4.603683477791208 3.8217323432901624 4.603125099999999 3.239013671875 L 4.611914162499999 2.99072265625 Q 4.66177776557533 2.2932554692617853 5.018408303124999 1.7053222656250002 Q 5.37261104040825 1.1290428187550914 6.037939553125 1.010986328125 L 6.222509865624999 0.99560546875 L 6.785009865625001 1.17578125 L 7.318945412499998 1.7470703125 Q 7.63364187892869 2.2972595630450856 7.679296974999998 2.9423828125 L 7.688086037499999 3.197265625 L 7.525488381250001 4.205810546875 L 7.004736428124998 5.092333984374999 Q 6.659622284085595 5.499866305408759 6.121435646875001 5.499999999999999 " stroke="#191919" stroke-width="0.7 px" style="stroke-width:0.7;stroke-miterlimit:4;stroke-dasharray:none;stroke-linecap:square;fill:none;fill-opacity:1;fill-rule: evenodd"/>
<circle cx="0.0" cy="22.985674" r="2.0" stroke="#191919" stroke-width="0.7 px" style="stroke-width:0.7;stroke-miterlimit:4;stroke-dasharray:none;stroke-linecap:square;fill:none"/>
<path id="Part_cs_w0013"  d="M -7.051318259375001 -4.52783203125 L -6.996386618750001 -4.235595703125 Q -6.872637843097952 -3.892632412276509 -6.537158103125001 -3.743408203125 L -6.192187400000001 -3.66650390625 L -5.739550681250001 -3.804931640625 Q -5.346457952331885 -4.053299540334983 -5.346240134375001 -4.5234375 Q -5.346002187241055 -4.997094042767488 -5.739550681250001 -5.246337890625 L -6.207568259375001 -5.3759765625 L -6.326220603125001 -5.369384765625 L -6.698730368750001 -5.214550781250001 L -6.9568358375 -4.907958984375 L -7.051318259375001 -4.52783203125 " stroke="#191919" stroke-width="0.7 px" style="stroke-width:0.7;stroke-miterlimit:4;stroke-dasharray:none;stroke-linecap:square;fill:none;fill-opacity:1;fill-rule: evenodd"/>
<path id="Part_cs_w0014"  d="M 4.828857521875001 -3.4423828125 L 4.466308693749999 -3.760986328125 L 4.092773537499999 -3.840087890625 L 3.6367676781250005 -3.70166015625 L 3.3259278343749994 -3.34130859375 L 3.242431740625001 -2.996337890625 L 3.2666016624999994 -2.80078125 L 3.5412598656249994 -2.33056640625 L 3.9960938499999994 -2.12841796875 L 4.092773537499999 -2.1240234375 L 4.459716896874999 -2.203125 L 4.818896584374999 -2.5031250000000003 L 4.965087990624999 -2.98095703125 L 4.828857521875001 -3.4423828125 " stroke="#191919" stroke-width="0.7 px" style="stroke-width:0.7;stroke-miterlimit:4;stroke-dasharray:none;stroke-linecap:square;fill:none;fill-opacity:1;fill-rule: evenodd"/>
<path id="Part_cs_w0015"  d="M -5.378173728125 1.621826171875 L -5.378173728125 3.17529296875 L -4.49267568125 3.17529296875 Q -4.119860739627578 3.1303877723981053 -3.9235838843749993 2.883056640625 L -3.7456053687499997 2.388671875 L -3.7456053687499997 2.36669921875 L -3.9499510718749997 1.863525390625 Q -4.1558692672464295 1.6331807410004395 -4.519042868750001 1.621826171875 L -5.378173728125 1.621826171875 " stroke="#191919" stroke-width="0.7 px" style="stroke-width:0.7;stroke-miterlimit:4;stroke-dasharray:none;stroke-linecap:square;fill:none;fill-opacity:1;fill-rule: evenodd"/>
<path id="Part_cs_w0016"  d="M -3.9213866187499997 4.7001953125 L -3.7807616187499997 4.33984375 L -3.9125975562499997 3.98828125 L -4.31689443125 3.792724609375 L -5.378173728125 3.792724609375 L -5.378173728125 4.8759765625 L -4.323486228125 4.8759765625 L -3.9213866187499997 4.7001953125 " stroke="#191919" stroke-width="0.7 px" style="stroke-width:0.7;stroke-miterlimit:4;stroke-dasharray:none;stroke-linecap:square;fill:none;fill-opacity:1;fill-rule: evenodd"/>
<path id="Part_cs_w0017"  d="M 6.240087990624999 4.86279296875 Q 6.579589509838884 4.769550440380165 6.758642678124999 4.444140624999999 L 7.002539162499999 3.70703125 L 7.039892678125001 3.21923828125 L 7.039892678125001 3.181884765625 L 7.024511818749999 2.88525390625 L 6.864111428124999 2.2216796875 L 6.527929787499999 1.755859375 L 6.176367287499999 1.6064453125 L 5.996191506249999 1.635009765625 L 5.569921974999999 1.9656250000000002 L 5.326025490624999 2.525927734375 L 5.233740334374999 3.155517578125 L 5.231543068749999 3.28515625 L 5.264502053124999 3.6982421875 L 5.527002053125 4.44091796875 Q 5.722600421491936 4.865439132022589 6.139013771874999 4.8759765625 L 6.240087990624999 4.86279296875 " stroke="#191919" stroke-width="0.7 px" style="stroke-width:0.7;stroke-miterlimit:4;stroke-dasharray:none;stroke-linecap:square;fill:none;fill-opacity:1;fill-rule: evenodd"/>
<circle cx="0.0" cy="22.91" r="1.1" stroke="#191919" stroke-width="0.7 px" style="stroke-width:0.7;stroke-miterlimit:4;stroke-dasharray:none;stroke-linecap:square;fill:none"/>
<circle cx="0.0" cy="-23.009998321533203" r="1.1" stroke="#191919" stroke-width="0.7 px" style="stroke-width:0.7;stroke-miterlimit:4;stroke-dasharray:none;stroke-linecap:square;fill:none"/>
<title>b'Panel CS Top Engrave'</title>
</g>
</svg>