<?xml version="1.0"?>
<!DOCTYPE svg PUBLIC "-//W3C//DTD SVG 1.1//EN" "http://www.w3.org/Graphics/SVG/1.1/DTD/svg11.dtd">
<svg width="46.703645670651355mm" height="62.80494675824807mm" viewBox="0 0 46.703645670651355 62.80494675824807" xmlns="http://www.w3.org/2000/svg" version="1.1">
<g id="Cut009_cs" transform="translate(24.017098,101.466832) scale(1,-1)">
<path id="Cut009_cs_w0000"  d="M 22.228668999999996 101.00895299999999 L -7.689018432480488 101.00895299999999 Q -19.05807484833826 70.94142994846386 -23.559218912286216 39.11976399998349 L 22.228669 39.11976399999999 L 22.228668999999996 101.00895299999999 " stroke="#191919" stroke-width="0.7 px" style="stroke-width:0.7;stroke-miterlimit:4;stroke-dasharray:none;stroke-linecap:square;fill:none;fill-opacity:1;fill-rule: evenodd"/>
<path id="Cut009_cs_w0001"  d="M -14.461484274999997 45.160921875 Q -14.779854941176499 45.155150630380476 -14.824570212499998 44.800375 L -14.824570212499998 41.565609375 L -16.957382712499996 44.9908046875 L -17.229062399999997 45.17107812500001 L -17.345859275000002 45.1482265625 Q -17.58020851493029 45.062847858188476 -17.614999899999997 44.800375 L -17.614999899999997 40.316390625000004 Q -17.56581860164477 39.967127918967364 -17.258346254166664 39.960921875000004 Q -16.95063436048944 39.96713656152633 -16.898984274999993 40.316390625000004 L -16.898984274999997 43.5486171875 L -14.766171774999997 40.1285 L -14.484335837499998 39.960921875 L -14.448788962499997 39.960921875000004 L -14.364999899999997 39.97615625 Q -14.109188728749182 40.0474916951679 -14.108554587499997 40.3113125 L -14.108554587499997 44.800375 Q -14.134355361685532 45.15117170622715 -14.456406149999998 45.160921875 L -14.461484274999997 45.160921875 " stroke="#191919" stroke-width="0.7 px" style="stroke-width:0.7;stroke-miterlimit:4;stroke-dasharray:none;stroke-linecap:square;fill:none;fill-opacity:1;fill-rule: evenodd"/>
<path id="Cut009_cs_w0002"  d="M -13.064322816666664 40.001546875 L -12.919596254166663 39.9736171875 Q -12.698382483178156 39.97598266771746 -12.581900941666664 40.2072109375 L -12.327994691666664 40.915609375 L -10.278971254166663 40.92068750000001 L -10.017447816666666 40.20213281250001 Q -9.872672104663009 39.964592821884125 -9.651822816666662 39.960921875000004 L -9.646744691666665 39.960921875000004 L -9.562955629166662 39.9888515625 Q -9.329362841883457 40.05576585807526 -9.329361879166665 40.306234375 L -9.344596254166664 40.44334375 L -10.972135316666666 44.93240625 Q -11.055712232573953 45.16529455213731 -11.297135316666663 45.166000000000004 L -11.309830629166665 45.166000000000004 Q -11.546507765650189 45.165061737457975 -11.629752504166664 44.93240625000001 L -13.247135316666665 40.4103359375 L -13.252213441666665 40.329085937500004 Q -13.252067863325562 40.110897097664676 -13.064322816666664 40.001546874999995 " stroke="#191919" stroke-width="0.7 px" style="stroke-width:0.7;stroke-miterlimit:4;stroke-dasharray:none;stroke-linecap:square;fill:none;fill-opacity:1;fill-rule: evenodd"/>
<path id="Cut009_cs_w0003"  d="M -7.533906149999998 40.21990625 Q -7.427449433036373 39.968554944459086 -7.18859365 39.966 L -7.186054587499999 39.966 Q -6.94441012713173 39.968952855288606 -6.8458202125 40.23006250000001 L -5.637226462499998 44.7165859375 L -5.624531149999999 44.835921875 Q -5.62655880378191 45.07620430439614 -5.880976462499998 45.150765625 L -6.007929587499998 45.171078125 Q -6.230723886093121 45.166716172816166 -6.327851462499998 44.9019375 L -7.1885936500000005 41.70271875 L -8.044257712499999 44.87146875 Q -8.143645021930915 45.13854024851241 -8.366718649999996 45.1431484375 L -8.478437399999999 45.1279140625 Q -8.742312988078059 45.05839484988238 -8.745038962499999 44.7800625 L -8.737421775 44.6861171875 L -7.533906149999998 40.21990625000001 " stroke="#191919" stroke-width="0.7 px" style="stroke-width:0.7;stroke-miterlimit:4;stroke-dasharray:none;stroke-linecap:square;fill:none;fill-opacity:1;fill-rule: evenodd"/>
<circle cx="-2.037721" cy="52.608875" r="1.7" stroke="#191919" stroke-width="0.7 px" style="stroke-width:0.7;stroke-miterlimit:4;stroke-dasharray:none;stroke-linecap:square;fill:none"/>
<path id="Cut009_cs_w0005"  d="M 1.4902605166666696 40.21990625 Q 1.596717233630295 39.968554944459086 1.8355730166666682 39.966 L 1.8381120791666667 39.966 Q 2.0797565395349498 39.968952855288606 2.178346454166668 40.2300625 L 3.3869402041666667 44.7165859375 L 3.3996355166666667 44.835921875 Q 3.3976078628847493 45.07620430439614 3.143190204166668 45.150765625 L 3.016237079166668 45.171078125 Q 2.7934427805735895 45.166716172816194 2.6963152041666696 44.9019375 L 1.8355730166666673 41.70271875 L 0.9799089541666675 44.87146875 Q 0.8805216447357631 45.1385402485124 0.6574480166666703 45.143148437499995 L 0.5457292666666653 45.1279140625 Q 0.28185367858860655 45.05839484988237 0.2791277041666689 44.7800625 L 0.28674489166666817 44.6861171875 L 1.4902605166666696 40.21990625000001 " stroke="#191919" stroke-width="0.7 px" style="stroke-width:0.7;stroke-miterlimit:4;stroke-dasharray:none;stroke-linecap:square;fill:none;fill-opacity:1;fill-rule: evenodd"/>
<path id="Cut009_cs_w0006"  d="M 5.487083433333336 43.251546875 L 6.660130308333336 42.733578125 L 6.700755308333338 42.715804687500004 L 6.746458433333334 42.692953125 L 6.787083433333336 42.6701015625 L 6.8263542666666694 42.645895833333334 L 6.868333433333337 42.621859375 Q 7.3693605941354825 42.292491114225285 7.490403745833337 41.707796875 L 7.520872495833334 41.40818750000001 L 7.510716245833336 41.2380703125 L 7.268151141666667 40.599411458333336 L 6.761692808333336 40.1462734375 L 6.083763120833336 39.97361718750001 L 4.958958433333336 40.12460677083333 Q 4.396186690224715 40.30738763774783 4.194700620833338 40.9333828125 L 4.148997495833335 41.1060390625 L 4.1134506208333335 41.2837734375 L 4.105833433333334 41.3650234375 L 4.202317808333337 41.606234375 L 4.451145933333336 41.717953124999994 L 4.522239683333336 41.712875000000004 Q 4.723640442863891 41.67127906131219 4.801536558333336 41.464046875 L 4.809153745833335 41.4411953125 Q 4.902365610877682 40.93328911544585 5.233177183333336 40.783578125000005 L 5.987278745833336 40.68709375 L 6.078684995833335 40.68709375 Q 6.575957801221033 40.68970772620878 6.761692808333336 41.15428125 L 6.809934995833338 41.4056484375 L 6.787083433333336 41.585921875000004 L 6.566184995833336 41.961703125 L 6.373216245833337 42.08103906250001 L 5.197630308333334 42.59646875 L 5.159544370833338 42.61678125 Q 4.598069724759339 42.90552417188218 4.443528745833337 43.48260156250001 L 4.392747495833337 43.8533046875 L 4.392747495833337 43.860921875 Q 4.395924310776227 44.292650369827726 4.679661558333336 44.64803125 Q 5.088666321006681 45.16529218064231 5.751145933333337 45.166 L 6.030442808333337 45.1583828125 L 6.294505308333335 45.108786458333334 L 6.5509506208333335 45.0263515625 L 7.040989683333333 44.6150234375 L 7.348216245833331 44.04881250000001 L 7.371067808333336 43.982796875 L 7.381224058333338 43.8990078125 L 7.345677183333333 43.7568203125 L 7.282200620833336 43.66033593750001 L 7.228880308333334 43.6146328125 L 7.028294370833336 43.5486171875 L 6.939427183333333 43.558773437499994 L 6.698216245833333 43.7618984375 L 6.557213641666667 44.06269270833334 L 6.3478256208333335 44.317953125 L 6.239830829166671 44.37753645833334 L 6.124388120833338 44.419515625 L 5.959349058333334 44.4474453125 L 5.7257553083333335 44.4550625 Q 5.385720359116853 44.44941389673491 5.205247495833337 44.16053125 L 5.108763120833338 43.83553125 L 5.113841245833335 43.7466640625 Q 5.149118691402473 43.46571757770164 5.377903745833336 43.3099453125 L 5.400755308333338 43.293356770833334 L 5.428684995833336 43.2769375 L 5.456614683333335 43.2642421875 L 5.487083433333336 43.251546875 " stroke="#191919" stroke-width="0.7 px" style="stroke-width:0.7;stroke-miterlimit:4;stroke-dasharray:none;stroke-linecap:square;fill:none;fill-opacity:1;fill-rule: evenodd"/>
<path id="Cut009_cs_w0007"  d="M 9.702434995833332 39.966 Q 10.013665271959308 39.971931405050796 10.068059995833334 40.32146875 L 10.068059995833334 44.449984375 L 10.997356870833332 44.449984375 Q 11.346752181029958 44.474412334626 11.350286558333334 44.805453125 Q 11.346965743048235 45.138853173174 10.997356870833332 45.166000000000004 L 8.420208433333336 45.166000000000004 Q 8.068554146654245 45.13682776956192 8.064739683333332 44.80545312500001 Q 8.068766945050493 44.47644680445247 8.420208433333336 44.449984375 L 9.352044370833337 44.449984375 L 9.352044370833337 40.32146875 Q 9.37787034317194 39.97562761746924 9.694817808333333 39.966 L 9.702434995833332 39.966 " stroke="#191919" stroke-width="0.7 px" style="stroke-width:0.7;stroke-miterlimit:4;stroke-dasharray:none;stroke-linecap:square;fill:none;fill-opacity:1;fill-rule: evenodd"/>
<path id="Cut009_cs_w0008"  d="M 14.876028745833342 44.69491927083333 Q 14.476848889143506 45.16582091372108 13.855325620833337 45.166000000000004 L 13.228177183333337 44.99334375 Q 12.589305797983656 44.60764827732244 12.334427183333332 43.8634609375 Q 12.10155610868707 43.22703448580246 12.100833433333335 42.5533046875 L 12.110989683333337 42.266390625 Q 12.168290900930643 41.46154629049896 12.580716245833337 40.7810390625 Q 12.99007196368128 40.1153124691549 13.758841245833334 39.9786953125 L 13.972122495833336 39.960921875000004 Q 14.32292432348458 39.96203010808233 14.622122495833334 40.169125 Q 15.00889139287918 40.43641782159763 15.239114683333337 40.82928125 Q 15.603096507921697 41.46625320598501 15.655520933333339 42.21053125 L 15.66567718333334 42.50506250000001 L 15.477786558333339 43.6704921875 Q 15.268330651268846 44.23028996693233 14.876028745833342 44.69491927083333 " stroke="#191919" stroke-width="0.7 px" style="stroke-width:0.7;stroke-miterlimit:4;stroke-dasharray:none;stroke-linecap:square;fill:none;fill-opacity:1;fill-rule: evenodd"/>
<path id="Cut009_cs_w0009"  d="M 19.393698016666665 39.9634609375 Q 19.749891396487307 39.98472097428767 19.754244891666662 40.316390625000004 Q 19.749023413007365 40.63664272628064 19.396237079166664 40.674398437499995 L 17.05268239166667 40.67185937500001 L 17.052682391666668 44.805453125 Q 17.027089033200227 45.156031542629535 16.70736989166667 45.166000000000004 L 16.697213641666668 45.166000000000004 Q 16.385689726055595 45.159538628609724 16.336666766666664 44.80545312500001 L 16.336666766666664 40.316390625000004 Q 16.38366021064885 39.986738070264764 16.697213641666668 39.963460937499995 L 19.393698016666665 39.9634609375 " stroke="#191919" stroke-width="0.7 px" style="stroke-width:0.7;stroke-miterlimit:4;stroke-dasharray:none;stroke-linecap:square;fill:none;fill-opacity:1;fill-rule: evenodd"/>
<circle cx="-2.138672" cy="93.863413" r="1.7" stroke="#191919" stroke-width="0.7 px" style="stroke-width:0.7;stroke-miterlimit:4;stroke-dasharray:none;stroke-linecap:square;fill:none"/>
<path id="Cut009_cs_w0011"  d="M 19.193333 67.292496 L -1.0771310000000014 67.292496 L -1.0771310000000014 80.527695 L 19.193333 80.527695 L 19.193333 67.292496 " stroke="#191919" stroke-width="0.7 px" style="stroke-width:0.7;stroke-miterlimit:4;stroke-dasharray:none;stroke-linecap:square;fill:none;fill-opacity:1;fill-rule: evenodd"/>
<path id="Cut009_cs_w0012"  d="M 3.9828907250000025 81.34154687499999 L 4.127617287500003 81.3136171875 Q 4.3488310584884875 81.3159826677174 4.465312600000003 81.5472109375 L 4.719218850000001 82.255609375 L 6.768242287500003 82.26068750000002 L 7.0297657250000025 81.5421328125 Q 7.174541437003643 81.30459282188411 7.395390725 81.30092187499999 L 7.400468850000003 81.300921875 L 7.484257912499999 81.3288515625 Q 7.7178506997831775 81.39576585807521 7.717851662500003 81.64623437499999 L 7.7026172875000025 81.78334375 L 6.075078225000002 86.27240625 Q 5.991501309092712 86.50529455213733 5.750078225000003 86.506 L 5.737382912500003 86.506 Q 5.500705776016457 86.50506173745799 5.4174610375000025 86.27240625 L 3.800078225 81.75033593749998 L 3.7950001000000024 81.6690859375 Q 3.79514567834111 81.45089709766468 3.9828907250000025 81.34154687499998 " stroke="#191919" stroke-width="0.7 px" style="stroke-width:0.7;stroke-miterlimit:4;stroke-dasharray:none;stroke-linecap:square;fill:none;fill-opacity:1;fill-rule: evenodd"/>
<path id="Cut009_cs_w0013"  d="M 8.342799579166668 81.8417421875 L 8.304713641666668 81.65892968749999 L 8.36565114166667 81.463421875 L 8.655104266666669 81.30599999999998 L 8.863307391666666 81.36812239583332 L 8.972487079166669 81.4888125 L 11.369362079166667 85.977875 L 11.420143329166669 86.16576562499999 L 11.356666766666669 86.348578125 L 11.054518329166669 86.506 L 10.933828225 86.48179427083332 L 10.749830829166667 86.3206484375 L 8.342799579166666 81.8417421875 " stroke="#191919" stroke-width="0.7 px" style="stroke-width:0.7;stroke-miterlimit:4;stroke-dasharray:none;stroke-linecap:square;fill:none;fill-opacity:1;fill-rule: evenodd"/>
<path id="Cut009_cs_w0014"  d="M 14.556562600000003 83.4007265625 L 13.952265725000002 83.4007265625 L 13.929414162500002 83.403265625 Q 13.620435589702087 83.4424868629352 13.619648537499998 83.7561953125 Q 13.620435589701945 84.06990376206463 13.929414162500002 84.10912499999999 L 13.952265725000002 84.114203125 L 14.912031350000003 84.114203125 L 15.164583433333336 84.00874739583332 L 15.270039162500002 83.75619531249998 L 15.270039162500002 82.468890625 L 15.239570412500003 82.402875 L 15.221796975000002 82.36225 L 15.204023537500001 82.3241640625 L 15.163398537500008 82.2479921875 L 15.145625100000002 82.20990625 L 15.125312600000003 82.1718203125 L 15.102461037500001 82.133734375 Q 14.690322016479254 81.36728000603355 13.911640725 81.31361718749999 L 13.878632912500002 81.31615624999998 Q 13.084209032106685 81.3834449487129 12.649726662500003 82.14135156249999 Q 12.40134713524178 82.55874011733879 12.299336037500002 83.10365625 L 12.218086037500004 83.941546875 L 12.230781350000003 84.28178125 L 12.511263120833336 85.43062239583332 Q 12.741658472171066 85.96916925072992 13.213398537500002 86.2952578125 Q 13.531489160633942 86.5144108210245 13.865937600000002 86.5186953125 L 13.876093850000004 86.5186953125 L 14.350898537500004 86.389203125 Q 14.900151804666084 86.08819961937564 15.178632912500001 85.53607812500002 L 15.198945412500002 85.495453125 L 15.2141797875 85.45990624999999 L 15.234492287500002 85.42182031249999 L 15.264961037500003 85.2593203125 L 15.168476662500002 85.02826562500002 L 14.917109475 84.9140078125 L 14.848554787500003 84.92162499999999 L 14.581953225000003 85.12474999999999 Q 14.372307632733499 85.7192762772055 13.9192579125 85.7772890625 L 13.815156350000002 85.7671328125 Q 13.304818488782388 85.62228160806194 13.114375100000002 85.0003359375 L 12.926484475000002 83.860296875 L 12.934101662500005 83.60131249999999 Q 12.978290651694767 82.8675232053555 13.4216016625 82.2987734375 Q 13.631169203437889 82.02115947013655 13.871015725 82.01185937499999 L 14.036054787500001 82.0499453125 Q 14.357862707437803 82.20008906059468 14.528632912499999 82.570453125 L 14.556562600000003 82.6263125 L 14.556562600000003 83.4007265625 " stroke="#191919" stroke-width="0.7 px" style="stroke-width:0.7;stroke-miterlimit:4;stroke-dasharray:none;stroke-linecap:square;fill:none;fill-opacity:1;fill-rule: evenodd"/>
<path id="Cut009_cs_w0015"  d="M -12.086783754166664 41.6341640625 L -10.537955629166664 41.6341640625 L -11.309830629166665 43.7669765625 L -12.086783754166664 41.6341640625 " stroke="#191919" stroke-width="0.7 px" style="stroke-width:0.7;stroke-miterlimit:4;stroke-dasharray:none;stroke-linecap:square;fill:none;fill-opacity:1;fill-rule: evenodd"/>
<path id="Cut009_cs_w0016"  d="M 13.992434995833332 44.429671875 Q 14.38553406559806 44.32117697259653 14.591653745833337 43.94589583333333 L 14.873489683333336 43.094125 L 14.916653745833333 42.530453125 L 14.916653745833333 42.487289062500004 L 14.898880308333336 42.144515625000004 L 14.713528745833333 41.37771875 L 14.325052183333337 40.8394375 L 13.918802183333337 40.66678125 L 13.710599058333337 40.6997890625 Q 13.403108325463867 40.79615703804148 13.218020933333332 41.081833333333336 L 12.936184995833337 41.729294270833336 L 12.82954437083334 42.4568203125 L 12.827005308333334 42.606624999999994 L 12.865091245833337 43.083968750000004 L 13.168424579166668 43.942171875 Q 13.391947489883139 44.43054733166839 13.875638120833333 44.44490625 L 13.992434995833332 44.429671875 " stroke="#191919" stroke-width="0.7 px" style="stroke-width:0.7;stroke-miterlimit:4;stroke-dasharray:none;stroke-linecap:square;fill:none;fill-opacity:1;fill-rule: evenodd"/>
<path id="Cut009_cs_w0017"  d="M 4.9604297875000025 82.9741640625 L 6.5092579125000025 82.9741640625 L 5.737382912500003 85.1069765625 L 4.9604297875000025 82.9741640625 " stroke="#191919" stroke-width="0.7 px" style="stroke-width:0.7;stroke-miterlimit:4;stroke-dasharray:none;stroke-linecap:square;fill:none;fill-opacity:1;fill-rule: evenodd"/>
<title>b'Engraving Panel-MasterArm-TopA'</title>
</g>
</svg>