<?xml version="1.0"?>
<!DOCTYPE svg PUBLIC "-//W3C//DTD SVG 1.1//EN" "http://www.w3.org/Graphics/SVG/1.1/DTD/svg11.dtd">
<svg width="15.145633199999999mm" height="7.996973199999999mm" viewBox="0 0 15.145633199999999 7.996973199999999" xmlns="http://www.w3.org/2000/svg" version="1.1">
<g id="Part007_cs" transform="translate(-1.667183,35.864246) scale(1,-1)">
<path id="Part007_cs_w0000"  d="M 16.66433 35.71575965916016 L 1.81567 35.71575965916016 L 1.81567 28.01575965916016 L 16.66433 28.01575965916016 L 16.66433 35.71575965916016 " stroke="#191919" stroke-width="0.7 px" style="stroke-width:0.7;stroke-miterlimit:4;stroke-dasharray:none;stroke-linecap:square;fill:none;fill-opacity:1;fill-rule: evenodd"/>
<path id="Part007_cs_w0001"  d="M 3.784316506250001 30.24621530021876 Q 3.9459674023114015 30.247213914860566 4.013320412500001 30.423949675218765 L 4.826796975 33.443725065843765 L 4.835341896875001 33.524047331468765 Q 4.834661632133507 33.68523315765431 4.662734475000001 33.735961393968765 L 4.577285256250001 33.749633268968765 L 4.361953225000001 33.568480925218765 L 3.7826075218750006 31.41516061271876 L 3.2066797874999997 33.547973112718765 L 2.9896387718750006 33.730834440843765 L 2.9144434593750006 33.720580534593765 Q 2.7367719680758 33.67411009617457 2.7350001000000006 33.486449675218765 L 2.7401270531250006 33.423217253343765 L 3.5501856468750015 30.41711373771876 L 3.7826075218750006 30.24621530021876 L 3.7843165062500006 30.24621530021876 " stroke="#191919" stroke-width="0.7 px" style="stroke-width:0.7;stroke-miterlimit:4;stroke-dasharray:none;stroke-linecap:square;fill:none;fill-opacity:1;fill-rule: evenodd"/>
<path id="Part007_cs_w0002"  d="M 6.219847105208334 32.466186003343765 L 6.240354917708334 32.457641081468765 L 7.029905698958333 32.109008268968765 L 7.057249448958333 32.097045378343765 L 7.088011167708334 32.081664518968765 L 7.115354917708334 32.066283659593765 L 7.141787209375 32.04999134188543 L 7.170042417708334 32.033812956468765 Q 7.50766822798872 31.811959177622136 7.588743589583333 31.41857858146876 L 7.609251402083334 31.21691842521876 L 7.602415464583334 31.10241647209376 L 7.439150490625 30.67254993563543 L 7.098265073958333 30.367553190843765 L 6.641966245833334 30.25134225334376 L 5.884886167708334 30.35296985751043 Q 5.512226825858212 30.46881286843586 5.370481870833334 30.897338347093765 L 5.339720152083334 31.01354928459376 L 5.315794370833334 31.13317819084376 L 5.310667417708334 31.18786569084376 L 5.375608823958334 31.35021920646876 L 5.543089292708334 31.42541451896876 L 5.590940855208334 31.42199655021876 L 5.778929136458334 31.25451608146876 L 5.784056089583334 31.23913522209376 Q 5.854132035413787 30.88514984958642 6.069456480208334 30.79650826896876 L 6.577024839583334 30.73156686271876 L 6.638548277083334 30.73156686271876 Q 6.973364795266313 30.732620982070635 7.098265073958333 31.04601998771876 L 7.130735777083334 31.21520944084376 L 7.115354917708334 31.33654733146876 L 6.966673277083334 31.58947701896876 L 6.836790464583334 31.66979928459376 L 6.045530698958334 32.016723112718765 L 6.019895933333334 32.030394987718765 Q 5.638574220883907 32.22838420545814 5.537962339583334 32.61315865959376 L 5.503782652083334 32.862670378343765 L 5.503782652083334 32.867797331468765 L 5.696897886458334 33.397582487718765 Q 5.971590845184522 33.74589477828566 6.418089292708334 33.746215300218765 L 6.606077573958334 33.741088347093765 L 6.783811948958334 33.70770618563543 L 6.956419370833334 33.652221159593765 L 7.286253355208334 33.375365690843765 L 7.493040464583334 32.994262175218765 L 7.508421323958334 32.949828581468765 L 7.515257261458334 32.893432097093765 L 7.491331480208333 32.797728972093765 L 7.448606870833334 32.732787565843765 L 7.412718198958334 32.702025847093765 L 7.277708433333334 32.657592253343765 L 7.217893980208334 32.664428190843765 L 7.055540464583333 32.801146940843765 L 6.960634865625 33.00360462313543 L 6.819700620833334 33.175414518968765 L 6.74701181875 33.21551868563543 L 6.669309995833334 33.243773893968765 L 6.558226011458334 33.262572722093765 L 6.400999448958334 33.267699675218765 Q 6.1720672809388155 33.26407612439685 6.050657652083334 33.069457487718765 L 5.985716245833334 32.850707487718765 L 5.989134214583334 32.790893034593765 L 6.166868589583334 32.496947722093765 L 6.182249448958334 32.48578235751043 L 6.201048277083334 32.474730925218765 L 6.219847105208334 32.466186003343765 " stroke="#191919" stroke-width="0.7 px" style="stroke-width:0.7;stroke-miterlimit:4;stroke-dasharray:none;stroke-linecap:square;fill:none;fill-opacity:1;fill-rule: evenodd"/>
<path id="Part007_cs_w0003"  d="M 9.077610777083335 30.24621530021876 Q 9.28580965437937 30.248302671166627 9.323704527083335 30.48547311271876 L 9.323704527083335 33.264281706468765 L 9.949192808333335 33.264281706468765 Q 10.185497408289383 33.28102933536549 10.186741636458331 33.503539518968765 Q 10.185571183884951 33.727695583896704 9.949192808333333 33.746215300218765 L 8.214573667708333 33.746215300218765 Q 7.976661356987549 33.72616830511731 7.975315855208333 33.503539518968765 Q 7.9767346631197 33.282560029474865 8.214573667708333 33.264281706468765 L 8.841770933333333 33.264281706468765 L 8.841770933333333 30.48547311271876 Q 8.85982869136452 30.251228515382664 9.072483823958333 30.24621530021876 L 9.077610777083333 30.24621530021876 " stroke="#191919" stroke-width="0.7 px" style="stroke-width:0.7;stroke-miterlimit:4;stroke-dasharray:none;stroke-linecap:square;fill:none;fill-opacity:1;fill-rule: evenodd"/>
<path id="Part007_cs_w0004"  d="M 11.872825620833334 33.746215300218765 L 11.450706480208334 33.630004362718765 Q 11.025220662344275 33.376477355733044 10.849143980208332 32.86950631584377 L 10.691917417708332 31.987670378343765 L 10.698753355208332 31.79455514396876 Q 10.737950792562565 31.250627830495816 11.014915464583332 30.79479928459376 Q 11.290336675142711 30.346333283627878 11.807884214583334 30.25476022209376 L 11.951438902083334 30.24279733146876 L 12.388938902083334 30.38293405021876 L 12.804222105208334 30.82726998771876 Q 13.048566073766036 31.25368283268967 13.084495542708334 31.75695748771876 L 13.091331480208334 31.95519967521876 L 12.964866636458334 32.739623503343765 L 12.559837339583334 33.42914173251043 Q 12.29186834429262 33.74613403305559 11.872825620833334 33.746215300218765 " stroke="#191919" stroke-width="0.7 px" style="stroke-width:0.7;stroke-miterlimit:4;stroke-dasharray:none;stroke-linecap:square;fill:none;fill-opacity:1;fill-rule: evenodd"/>
<path id="Part007_cs_w0005"  d="M 15.602285256250003 30.72302194084376 L 14.024892678125003 30.72131295646876 L 14.024892678125001 33.503539518968765 Q 14.006918864822143 33.741078110877126 13.792470803125001 33.746215300218765 L 13.785634865625001 33.746215300218765 Q 13.577330991656446 33.74393952786811 13.542959084375001 33.503539518968765 L 13.542959084375001 30.48205514396876 Q 13.574992281292051 30.259215335028067 13.785634865625001 30.24450631584376 L 15.600576271875003 30.24450631584376 Q 15.841715648515304 30.25932151363144 15.843252053125 30.48205514396876 Q 15.841412096767131 30.696693029202223 15.602285256250003 30.72302194084376 " stroke="#191919" stroke-width="0.7 px" style="stroke-width:0.7;stroke-miterlimit:4;stroke-dasharray:none;stroke-linecap:square;fill:none;fill-opacity:1;fill-rule: evenodd"/>
<path id="Part007_cs_w0006"  d="M 11.965110777083332 33.250609831468765 Q 12.228376080698784 33.17884051016754 12.368431089583334 32.92499134188543 L 12.558128355208334 32.351684050218765 L 12.587181089583334 31.972289518968765 L 12.587181089583334 31.94323678459376 L 12.575218198958334 31.71252389396876 L 12.450462339583332 31.19641061271876 L 12.188987730208332 30.83410592521876 L 11.915550230208332 30.71789498771876 L 11.775413511458332 30.74011178459376 L 11.443870542708334 30.99725696688543 L 11.254173277083334 31.43304798251043 L 11.182395933333334 31.922728972093765 L 11.180686948958334 32.023559050218765 L 11.206321714583334 32.344848112718765 L 11.410488381250001 32.922484831468765 Q 11.56529140309495 33.25499645440196 11.886497495833334 33.260863737718765 L 11.965110777083332 33.250609831468765 " stroke="#191919" stroke-width="0.7 px" style="stroke-width:0.7;stroke-miterlimit:4;stroke-dasharray:none;stroke-linecap:square;fill:none;fill-opacity:1;fill-rule: evenodd"/>
<title>b'CrossSection-Lens-VSTOL'</title>
</g>
</svg>