<?xml version="1.0" encoding="UTF-8" standalone="no"?>
<!-- Created with Inkscape (http://www.inkscape.org/) -->

<svg
   width="12in"
   height="12in"
   viewBox="0 0 304.8 304.8"
   version="1.1"
   id="svg1"
   xml:space="preserve"
   inkscape:version="1.3.2 (091e20e, 2023-11-25, custom)"
   sodipodi:docname="PanelMasterArm-Laser-Master.svg"
   inkscape:export-filename="UFC Panel Engrave.pdf"
   inkscape:export-xdpi="96"
   inkscape:export-ydpi="96"
   xmlns:inkscape="http://www.inkscape.org/namespaces/inkscape"
   xmlns:sodipodi="http://sodipodi.sourceforge.net/DTD/sodipodi-0.dtd"
   xmlns="http://www.w3.org/2000/svg"
   xmlns:svg="http://www.w3.org/2000/svg"><sodipodi:namedview
     id="namedview1"
     pagecolor="#ffffff"
     bordercolor="#000000"
     borderopacity="0.25"
     inkscape:showpageshadow="2"
     inkscape:pageopacity="0.0"
     inkscape:pagecheckerboard="0"
     inkscape:deskcolor="#d1d1d1"
     inkscape:document-units="mm"
     inkscape:zoom="0.86772068"
     inkscape:cx="523.78606"
     inkscape:cy="460.40161"
     inkscape:window-width="1920"
     inkscape:window-height="1009"
     inkscape:window-x="-8"
     inkscape:window-y="-8"
     inkscape:window-maximized="1"
     inkscape:current-layer="g35" /><defs
     id="defs1" /><g
     inkscape:groupmode="layer"
     id="layer4"
     inkscape:label="Panel Middle"
     style="display:inline"><g
       id="Body005_cs"
       transform="matrix(1,0,0,-1,100.77469,115.36446)"
       inkscape:label="LaserCut Middle"><path
         id="Body005_cs_w0000"
         d="M -7.6890184,101.00895 C -13.667902,85.177063 -18.23466,68.950027 -21.389293,52.327844 -26.127941,27.226888 -27.281433,1.6113379 -27.2897,-23.8825 l -2e-6,-56.202903 H 22.228669 V 101.00895 H -7.6890184"
         stroke="#191919"
         stroke-width="0.7 px"
         style="fill:none;fill-opacity:1;fill-rule:evenodd;stroke-width:0.1;stroke-linecap:square;stroke-miterlimit:4;stroke-dasharray:none" /><circle
         cx="-12.031741"
         cy="-65.797768"
         r="1.7"
         stroke="#191919"
         stroke-width="0.7 px"
         style="fill:none;stroke-width:0.1;stroke-linecap:square;stroke-miterlimit:4;stroke-dasharray:none"
         id="circle1-93" /><circle
         cx="-5.9352489"
         cy="7.9844718"
         r="2.25"
         stroke="#191919"
         stroke-width="0.7 px"
         style="fill:none;stroke-width:0.1;stroke-linecap:square;stroke-miterlimit:4;stroke-dasharray:none"
         id="circle2-4" /><circle
         cx="4.187192"
         cy="-58.424969"
         r="10"
         stroke="#191919"
         stroke-width="0.7 px"
         style="fill:none;stroke-width:0.1;stroke-linecap:square;stroke-miterlimit:4;stroke-dasharray:none"
         id="circle3-2" /><circle
         cx="-0.32895201"
         cy="-36.214066"
         r="2.25"
         stroke="#191919"
         stroke-width="0.7 px"
         style="fill:none;stroke-width:0.1;stroke-linecap:square;stroke-miterlimit:4;stroke-dasharray:none"
         id="circle4-7" /><circle
         cx="7.6351228"
         cy="-39.231182"
         r="2.25"
         stroke="#191919"
         stroke-width="0.7 px"
         style="fill:none;stroke-width:0.1;stroke-linecap:square;stroke-miterlimit:4;stroke-dasharray:none"
         id="circle5-0" /><circle
         cx="15.323892"
         cy="-36.194851"
         r="2.25"
         stroke="#191919"
         stroke-width="0.7 px"
         style="fill:none;stroke-width:0.1;stroke-linecap:square;stroke-miterlimit:4;stroke-dasharray:none"
         id="circle6-1" /><path
         id="Body005_cs_w0007"
         d="M 12.267029,-15.316411 A 1.5,1.5 0 0 1 13.767,-13.8164 l 2.9e-5,15.799989 A 1.5,1.5 0 0 1 12.267,3.48359 l -15.799971,-1e-6 A 1.5,1.5 0 0 1 -5.03297,1.98359 l -1e-6,-15.800001 A 1.5,1.5 0 0 1 -3.53297,-15.3164 l 15.799999,-1.1e-5"
         stroke="#191919"
         stroke-width="0.7 px"
         style="fill:none;fill-opacity:1;fill-rule:evenodd;stroke-width:0.1;stroke-linecap:square;stroke-miterlimit:4;stroke-dasharray:none" /><circle
         cx="11.381468"
         cy="7.9652052"
         r="2.25"
         stroke="#191919"
         stroke-width="0.7 px"
         style="fill:none;stroke-width:0.1;stroke-linecap:square;stroke-miterlimit:4;stroke-dasharray:none"
         id="circle7-4" /><path
         id="Body005_cs_w0009"
         d="m -2.4915595,36.094537 v -9 H -19.99156 v 9 h 17.5000005"
         stroke="#191919"
         stroke-width="0.7 px"
         style="fill:none;fill-opacity:1;fill-rule:evenodd;stroke-width:0.1;stroke-linecap:square;stroke-miterlimit:4;stroke-dasharray:none" /><circle
         cx="-11.422819"
         cy="42.49509"
         r="2.25"
         stroke="#191919"
         stroke-width="0.7 px"
         style="fill:none;stroke-width:0.1;stroke-linecap:square;stroke-miterlimit:4;stroke-dasharray:none"
         id="circle8-3" /><path
         id="Body005_cs_w0011"
         d="m 18.060829,36.094537 v -9 H 0.56082861 v 9 H 18.060829"
         stroke="#191919"
         stroke-width="0.7 px"
         style="fill:none;fill-opacity:1;fill-rule:evenodd;stroke-width:0.1;stroke-linecap:square;stroke-miterlimit:4;stroke-dasharray:none" /><circle
         cx="-2.0377209"
         cy="52.608875"
         r="1.7"
         stroke="#191919"
         stroke-width="0.7 px"
         style="fill:none;stroke-width:0.1;stroke-linecap:square;stroke-miterlimit:4;stroke-dasharray:none"
         id="circle9-8" /><circle
         cx="13.872832"
         cy="16.360987"
         r="1.7"
         stroke="#191919"
         stroke-width="0.7 px"
         style="fill:none;stroke-width:0.1;stroke-linecap:square;stroke-miterlimit:4;stroke-dasharray:none"
         id="circle10-5" /><circle
         cx="10.299548"
         cy="42.511875"
         r="2.25"
         stroke="#191919"
         stroke-width="0.7 px"
         style="fill:none;stroke-width:0.1;stroke-linecap:square;stroke-miterlimit:4;stroke-dasharray:none"
         id="circle11" /><path
         id="Body005_cs_w0015"
         d="m 17.79354,78.465759 v -9 h -17.5 v 9 h 17.5"
         stroke="#191919"
         stroke-width="0.7 px"
         style="fill:none;fill-opacity:1;fill-rule:evenodd;stroke-width:0.1;stroke-linecap:square;stroke-miterlimit:4;stroke-dasharray:none" /><circle
         cx="-2.1386721"
         cy="93.863411"
         r="1.7"
         stroke="#191919"
         stroke-width="0.7 px"
         style="fill:none;stroke-width:0.1;stroke-linecap:square;stroke-miterlimit:4;stroke-dasharray:none"
         id="circle12" /><circle
         cx="9.8770409"
         cy="83.811241"
         r="2.25"
         stroke="#191919"
         stroke-width="0.7 px"
         style="fill:none;stroke-width:0.1;stroke-linecap:square;stroke-miterlimit:4;stroke-dasharray:none"
         id="circle13" /><title
         id="title13">b'CrossSection-Panel-MasterArm-Middle'</title></g></g><g
     inkscape:groupmode="layer"
     id="layer9"
     inkscape:label="Panel Bottom"
     style="display:inline"><g
       id="Hole011_cs"
       transform="matrix(1,0,0,-1,82.548102,82.729491)"><path
         id="Hole011_cs_w0000"
         d="M 73.936184,68.430433 C 64.348245,45.694833 56.006737,22.283364 51.598029,-2.0586774 46.864832,-27.148534 45.71248,-52.752043 45.704192,-78.234067 l -2e-6,-67.852523 h 12.896023 l 9.488725,11.64962 H 95.222561 V 68.430433 H 73.936184"
         stroke="#191919"
         stroke-width="0.7 px"
         style="fill:none;fill-opacity:1;fill-rule:evenodd;stroke-width:0.1;stroke-linecap:square;stroke-miterlimit:4;stroke-dasharray:none" /><circle
         cx="53.941555"
         cy="-140.2868"
         r="1.45"
         stroke="#191919"
         stroke-width="0.7 px"
         style="fill:none;stroke-width:0.1;stroke-linecap:square;stroke-miterlimit:4;stroke-dasharray:none"
         id="circle1-3" /><circle
         cx="60.962154"
         cy="-120.14934"
         r="1.7"
         stroke="#191919"
         stroke-width="0.7 px"
         style="fill:none;stroke-width:0.1;stroke-linecap:square;stroke-miterlimit:4;stroke-dasharray:none"
         id="circle2-9" /><circle
         cx="65.735153"
         cy="-60.242256"
         r="1.2"
         stroke="#191919"
         stroke-width="0.7 px"
         style="fill:none;stroke-width:0.1;stroke-linecap:square;stroke-miterlimit:4;stroke-dasharray:none"
         id="circle3-0" /><circle
         cx="67.069305"
         cy="-46.385017"
         r="2.25"
         stroke="#191919"
         stroke-width="0.7 px"
         style="fill:none;stroke-width:0.1;stroke-linecap:square;stroke-miterlimit:4;stroke-dasharray:none"
         id="circle4" /><circle
         cx="77.181084"
         cy="-112.77654"
         r="6.5"
         stroke="#191919"
         stroke-width="0.7 px"
         style="fill:none;stroke-width:0.1;stroke-linecap:square;stroke-miterlimit:4;stroke-dasharray:none"
         id="circle5" /><circle
         cx="80.642532"
         cy="-93.570953"
         r="2.25"
         stroke="#191919"
         stroke-width="0.7 px"
         style="fill:none;stroke-width:0.1;stroke-linecap:square;stroke-miterlimit:4;stroke-dasharray:none"
         id="circle6" /><circle
         cx="72.645935"
         cy="-90.551254"
         r="2.25"
         stroke="#191919"
         stroke-width="0.7 px"
         style="fill:none;stroke-width:0.1;stroke-linecap:square;stroke-miterlimit:4;stroke-dasharray:none"
         id="circle7" /><path
         id="Hole011_cs_w0008"
         d="m 85.260921,-69.667978 a 1.5,1.5 0 0 1 1.499971,1.500011 l 2.9e-5,15.799989 a 1.5,1.5 0 0 1 -1.500029,1.500001 l -15.799971,-10e-7 a 1.5,1.5 0 0 1 -1.499999,-1.499999 l -10e-7,-15.800001 a 1.5,1.5 0 0 1 1.500001,-1.499989 l 15.799999,-1.1e-5"
         stroke="#191919"
         stroke-width="0.7 px"
         style="fill:none;fill-opacity:1;fill-rule:evenodd;stroke-width:0.1;stroke-linecap:square;stroke-miterlimit:4;stroke-dasharray:none" /><circle
         cx="88.303612"
         cy="-90.551254"
         r="2.25"
         stroke="#191919"
         stroke-width="0.7 px"
         style="fill:none;stroke-width:0.1;stroke-linecap:square;stroke-miterlimit:4;stroke-dasharray:none"
         id="circle8" /><circle
         cx="88.990402"
         cy="-60.257645"
         r="1.2"
         stroke="#191919"
         stroke-width="0.7 px"
         style="fill:none;stroke-width:0.1;stroke-linecap:square;stroke-miterlimit:4;stroke-dasharray:none"
         id="circle9" /><circle
         cx="84.367218"
         cy="-46.385017"
         r="2.25"
         stroke="#191919"
         stroke-width="0.7 px"
         style="fill:none;stroke-width:0.1;stroke-linecap:square;stroke-miterlimit:4;stroke-dasharray:none"
         id="circle10" /><circle
         cx="54.734119"
         cy="-28.703238"
         r="0.69999999"
         stroke="#191919"
         stroke-width="0.7 px"
         style="fill:none;stroke-width:0.1;stroke-linecap:square;stroke-miterlimit:4;stroke-dasharray:none"
         id="circle11-0" /><path
         id="Hole011_cs_w0013"
         d="M 70.502333,-27.25703 H 53.002332 v 9 h 17.500001 v -9"
         stroke="#191919"
         stroke-width="0.7 px"
         style="fill:none;fill-opacity:1;fill-rule:evenodd;stroke-width:0.1;stroke-linecap:square;stroke-miterlimit:4;stroke-dasharray:none" /><circle
         cx="68.745888"
         cy="-16.712568"
         r="0.69999999"
         stroke="#191919"
         stroke-width="0.7 px"
         style="fill:none;stroke-width:0.1;stroke-linecap:square;stroke-miterlimit:4;stroke-dasharray:none"
         id="circle12-5" /><circle
         cx="61.568501"
         cy="-11.849393"
         r="2.25"
         stroke="#191919"
         stroke-width="0.7 px"
         style="fill:none;stroke-width:0.1;stroke-linecap:square;stroke-miterlimit:4;stroke-dasharray:none"
         id="circle13-7" /><circle
         cx="75.236671"
         cy="-28.727398"
         r="0.69999999"
         stroke="#191919"
         stroke-width="0.7 px"
         style="fill:none;stroke-width:0.1;stroke-linecap:square;stroke-miterlimit:4;stroke-dasharray:none"
         id="circle14" /><path
         id="Hole011_cs_w0017"
         d="m 91.054721,-27.25703 h -17.5 v 9 h 17.5 v -9"
         stroke="#191919"
         stroke-width="0.7 px"
         style="fill:none;fill-opacity:1;fill-rule:evenodd;stroke-width:0.1;stroke-linecap:square;stroke-miterlimit:4;stroke-dasharray:none" /><circle
         cx="70.956169"
         cy="-1.7426921"
         r="1.7"
         stroke="#191919"
         stroke-width="0.7 px"
         style="fill:none;stroke-width:0.1;stroke-linecap:square;stroke-miterlimit:4;stroke-dasharray:none"
         id="circle15" /><circle
         cx="75.047256"
         cy="13.552676"
         r="0.69999999"
         stroke="#191919"
         stroke-width="0.7 px"
         style="fill:none;stroke-width:0.1;stroke-linecap:square;stroke-miterlimit:4;stroke-dasharray:none"
         id="circle16" /><circle
         cx="86.866722"
         cy="-37.990582"
         r="1.7"
         stroke="#191919"
         stroke-width="0.7 px"
         style="fill:none;stroke-width:0.1;stroke-linecap:square;stroke-miterlimit:4;stroke-dasharray:none"
         id="circle17" /><circle
         cx="89.238174"
         cy="-16.732729"
         r="0.69999999"
         stroke="#191919"
         stroke-width="0.7 px"
         style="fill:none;stroke-width:0.1;stroke-linecap:square;stroke-miterlimit:4;stroke-dasharray:none"
         id="circle18" /><circle
         cx="83.285515"
         cy="-11.849393"
         r="2.25"
         stroke="#191919"
         stroke-width="0.7 px"
         style="fill:none;stroke-width:0.1;stroke-linecap:square;stroke-miterlimit:4;stroke-dasharray:none"
         id="circle19" /><circle
         cx="70.855217"
         cy="39.511845"
         r="1.7"
         stroke="#191919"
         stroke-width="0.7 px"
         style="fill:none;stroke-width:0.1;stroke-linecap:square;stroke-miterlimit:4;stroke-dasharray:none"
         id="circle20" /><path
         id="Hole011_cs_w0024"
         d="m 90.787432,15.114192 h -17.5 v 9 h 17.5 v -9"
         stroke="#191919"
         stroke-width="0.7 px"
         style="fill:none;fill-opacity:1;fill-rule:evenodd;stroke-width:0.1;stroke-linecap:square;stroke-miterlimit:4;stroke-dasharray:none" /><circle
         cx="79.122917"
         cy="55.971317"
         r="1.45"
         stroke="#191919"
         stroke-width="0.7 px"
         style="fill:none;stroke-width:0.1;stroke-linecap:square;stroke-miterlimit:4;stroke-dasharray:none"
         id="circle21" /><circle
         cx="82.874146"
         cy="29.464586"
         r="2.25"
         stroke="#191919"
         stroke-width="0.7 px"
         style="fill:none;stroke-width:0.1;stroke-linecap:square;stroke-miterlimit:4;stroke-dasharray:none"
         id="circle22" /><circle
         cx="89.042267"
         cy="25.55475"
         r="0.69999999"
         stroke="#191919"
         stroke-width="0.7 px"
         style="fill:none;stroke-width:0.1;stroke-linecap:square;stroke-miterlimit:4;stroke-dasharray:none"
         id="circle23" /><title
         id="title23">b'CrossSection-Panel-MasterArm-Bottom'</title></g></g><g
     inkscape:groupmode="layer"
     id="layer5"
     inkscape:label="Panel Top"
     style="display:inline"><g
       inkscape:groupmode="layer"
       id="layer6"
       inkscape:label="Panel Top LaserCut"
       style="display:inline"><g
         inkscape:groupmode="layer"
         id="layer11"
         inkscape:label="Panel TopB"
         style="display:inline"><path
           id="Slice_child2_cs_w0000"
           d="M -65.541343,32.328087 Q -67.676249,8.2765862 -67.53273,-15.874177 l -2e-6,-56.202903 h 49.518371 V 32.328087 h -47.526982"
           stroke="#191919"
           stroke-width="0.7 px"
           style="display:inline;fill:none;fill-opacity:1;fill-rule:evenodd;stroke-width:0.1;stroke-linecap:square;stroke-miterlimit:4;stroke-dasharray:none"
           transform="matrix(1,0,0,-1,86.491141,123.43675)" /><circle
           cx="-52.274773"
           cy="-57.789444"
           r="1.7"
           stroke="#191919"
           stroke-width="0.7 px"
           style="display:inline;fill:none;stroke-width:0.1;stroke-linecap:square;stroke-miterlimit:4;stroke-dasharray:none"
           id="circle1-1"
           transform="matrix(1,0,0,-1,86.491141,123.43675)" /><circle
           cx="-36.05584"
           cy="-50.416645"
           r="6.5"
           stroke="#191919"
           stroke-width="0.7 px"
           style="display:inline;fill:none;stroke-width:0.1;stroke-linecap:square;stroke-miterlimit:4;stroke-dasharray:none"
           id="circle2-7"
           transform="matrix(1,0,0,-1,86.491141,123.43675)" /><path
           id="Slice_child2_cs_w0003"
           d="m -27.976001,-7.3080883 a 1.5,1.5 0 0 1 1.499971,1.500011 l 2.9e-5,15.7999892 a 1.5,1.5 0 0 1 -1.500029,1.5000011 l -15.799971,-1e-6 A 1.5,1.5 0 0 1 -45.276,9.9919129 l -10e-7,-15.8000012 a 1.5,1.5 0 0 1 1.500001,-1.499989 l 15.799999,-1.1e-5"
           stroke="#191919"
           stroke-width="0.7 px"
           style="display:inline;fill:none;fill-opacity:1;fill-rule:evenodd;stroke-width:0.1;stroke-linecap:square;stroke-miterlimit:4;stroke-dasharray:none"
           transform="matrix(1,0,0,-1,86.491141,123.43675)" /><circle
           cx="-26.370197"
           cy="24.36931"
           r="1.7"
           stroke="#191919"
           stroke-width="0.7 px"
           style="display:inline;fill:none;stroke-width:0.1;stroke-linecap:square;stroke-miterlimit:4;stroke-dasharray:none"
           id="circle3-8"
           transform="matrix(1,0,0,-1,86.491141,123.43675)" /></g><g
         inkscape:groupmode="layer"
         id="layer10"
         inkscape:label="Panel TopA"><path
           id="Cut009_cs_w0000"
           d="M 22.228669,101.00895 H -7.6890184 Q -19.058075,70.94143 -23.559219,39.119764 h 45.787888 v 61.889186"
           stroke="#191919"
           stroke-width="0.7 px"
           style="display:inline;fill:none;fill-opacity:1;fill-rule:evenodd;stroke:#000000;stroke-width:0.1;stroke-linecap:square;stroke-miterlimit:4;stroke-dasharray:none;stroke-opacity:1"
           inkscape:label="Outline"
           transform="matrix(1,0,0,-1,46.293217,115.2658)" /><circle
           cx="-2.0377209"
           cy="52.608875"
           r="1.7"
           stroke="#191919"
           stroke-width="0.7 px"
           style="display:inline;fill:none;stroke-width:0.1;stroke-linecap:square;stroke-miterlimit:4;stroke-dasharray:none"
           id="circle1-0"
           transform="matrix(1,0,0,-1,46.293217,115.2658)" /><circle
           cx="-2.1386721"
           cy="93.863411"
           r="1.7"
           stroke="#191919"
           stroke-width="0.7 px"
           style="display:inline;fill:none;stroke-width:0.1;stroke-linecap:square;stroke-miterlimit:4;stroke-dasharray:none"
           id="circle2-8"
           transform="matrix(1,0,0,-1,46.293217,115.2658)" /><path
           id="Cut009_cs_w0011"
           d="M 19.193333,67.292496 H -1.077131 V 80.527695 H 19.193333 V 67.292496"
           stroke="#191919"
           stroke-width="0.7 px"
           style="display:inline;fill:none;fill-opacity:1;fill-rule:evenodd;stroke-width:0.1;stroke-linecap:square;stroke-miterlimit:4;stroke-dasharray:none"
           inkscape:label="AG Cutout"
           transform="matrix(1,0,0,-1,46.293217,115.2658)" /></g></g><g
       inkscape:groupmode="layer"
       id="layer7"
       inkscape:label="Panel Top Engrave" /><g
       inkscape:groupmode="layer"
       id="layer8"
       inkscape:label="References"><g
         inkscape:groupmode="layer"
         id="layer13"
         inkscape:label="ZigZag"
         style="display:none"><path
           id="Cut007_cs_w0000"
           d="M -25.298313,24.319764 Q -27.433219,0.26826349 -27.2897,-23.8825 l -2e-6,-56.202903 h 49.518371 v 0.0054 h -6.481558 l 6.481558,6.481558 v 0.98995 L 14.757161,-80.08 H 7.6860937 l 14.5425753,14.542575 v 0.98995 L 6.6961442,-80.08 H -0.37492362 L 22.228669,-57.476407 v 0.989949 L -1.3648731,-80.08 h -7.0710678 l 14.483776,14.483776 A 7.5,7.5 0 0 1 11.43,-60.2141 l 10.798669,10.79871 v 0.989949 L 11.638136,-59.015974 A 7.5,7.5 0 0 1 9.9842,-53.5988 l 12.244469,12.244427 v 0.98995 L 9.5165282,-53.076564 A 7.5,7.5 0 0 1 4.66993,-50.8521 l 5.0196205,5.019626 h 4.1676115 v 4.167612 l 1.649577,1.649577 h 4.151123 v 4.151123 l 2.570807,2.570807 v 0.989949 l -2.570807,-2.570807 v 2.073805 h -4.997263 l 5.95852,5.95852 h 1.60955 v 3.516784 h -6.153783 l 6.153783,6.153783 v 0.98995 l -7.143733,-7.143733 H 8.0138685 L 22.228669,-9.1103035 v 0.9899495 l -15.20475,-15.20475 h -7.07106776 l 7.67756696,7.677567 H 12.124919 A 2,2 0 0 1 14.1249,-13.6475 l 1.9e-5,4.4944638 8.10375,8.10375 v 0.98994946 l -8.10375,-8.10374996 v 7.0710678 l 8.10375,8.10375 v 0.9899495 l -8.10375,-8.10375004 V 1.783974 A 2,2 0 0 1 12.1249,3.78397 l -1.185005,4e-6 1.044054,1.044054 h 6.113001 v 6.113001 l 4.131719,4.131719 v 0.98995 L 17.995958,11.829987 H 10.92489 l 0.922437,0.922437 A 4,4 0 0 1 17.8201,16.3166 l 4.408569,3e-6 v 8.003161 h -47.526982"
           stroke="#191919"
           stroke-width="0.7 px"
           style="display:inline;fill:none;fill-opacity:1;fill-rule:evenodd;stroke-width:0.1;stroke-linecap:square;stroke-miterlimit:4;stroke-dasharray:none"
           transform="matrix(1,0,0,-1,46.274315,115.37673)" /><path
           id="Cut007_cs_w0001"
           d="m -14.401425,-68.9335 a 4,4 0 0 0 -0.949575,0.9109 v -1.860475 l 0.949575,0.949575"
           stroke="#191919"
           stroke-width="0.7 px"
           style="display:inline;fill:none;fill-opacity:1;fill-rule:evenodd;stroke-width:0.1;stroke-linecap:square;stroke-miterlimit:4;stroke-dasharray:none"
           transform="matrix(1,0,0,-1,46.274315,115.37673)" /><path
           id="Cut007_cs_w0002"
           d="m -15.351,-77.944092 14.2612971,14.261297 A 7.5,7.5 0 0 0 -3.31417,-58.8362 l -5.1737694,-5.173764 A 4,4 0 0 0 -13.7657,-69.2877 l -1.5853,-1.585324 v -7.071068"
           stroke="#191919"
           stroke-width="0.7 px"
           style="display:inline;fill:none;fill-opacity:1;fill-rule:evenodd;stroke-width:0.1;stroke-linecap:square;stroke-miterlimit:4;stroke-dasharray:none"
           transform="matrix(1,0,0,-1,46.274315,115.37673)" /><path
           id="Cut007_cs_w0003"
           d="M -0.56742069,-64.150462 -15.351,-78.934042 V -80.08 h 5.9251096 L 4.8497067,-65.804403 A 7.5,7.5 0 0 0 -0.567421,-64.1505"
           stroke="#191919"
           stroke-width="0.7 px"
           style="display:inline;fill:none;fill-opacity:1;fill-rule:evenodd;stroke-width:0.1;stroke-linecap:square;stroke-miterlimit:4;stroke-dasharray:none"
           transform="matrix(1,0,0,-1,46.274315,115.37673)" /><path
           id="Cut007_cs_w0005"
           d="m 3.6808143,-50.851261 5.0187867,5.018787 H 1.6285332 L -15.351,-62.812007 v -0.427044 a 4,4 0 0 0 6.50886,-0.135149 l 5.5271336,5.527119 A 7.5,7.5 0 0 0 3.68081,-50.8513"
           stroke="#191919"
           stroke-width="0.7 px"
           style="display:inline;fill:none;fill-opacity:1;fill-rule:evenodd;stroke-width:0.1;stroke-linecap:square;stroke-miterlimit:4;stroke-dasharray:none"
           transform="matrix(1,0,0,-1,46.274315,115.37673)" /><path
           id="Cut007_cs_w0006"
           d="m 0.487906,-45.832474 v 5.817189 H -0.61529515 L -15.351,-54.75099 v -7.071068 L 0.63858366,-45.832474 H 0.487906"
           stroke="#191919"
           stroke-width="0.7 px"
           style="display:inline;fill:none;fill-opacity:1;fill-rule:evenodd;stroke-width:0.1;stroke-linecap:square;stroke-miterlimit:4;stroke-dasharray:none"
           transform="matrix(1,0,0,-1,46.274315,115.37673)" /><path
           id="Cut007_cs_w0007"
           d="m -5.947121,-40.015285 v 2.729191 L -15.351,-46.689973 v -7.071067 l 13.7457554,13.745755 H -5.947121"
           stroke="#191919"
           stroke-width="0.7 px"
           style="display:inline;fill:none;fill-opacity:1;fill-rule:evenodd;stroke-width:0.1;stroke-linecap:square;stroke-miterlimit:4;stroke-dasharray:none"
           transform="matrix(1,0,0,-1,46.274315,115.37673)" /><path
           id="Cut007_cs_w0008"
           d="m -15.351,-26.841888 v -2.7361 l 2.7361,2.7361 h -2.7361"
           stroke="#191919"
           stroke-width="0.7 px"
           style="display:inline;fill:none;fill-opacity:1;fill-rule:evenodd;stroke-width:0.1;stroke-linecap:square;stroke-miterlimit:4;stroke-dasharray:none"
           transform="matrix(1,0,0,-1,46.274315,115.37673)" /><path
           id="Cut007_cs_w0009"
           d="m -11.62495,-26.841888 -3.72605,-3.72605 v -7.071068 l 10.7971177,10.797118 H -11.62495"
           stroke="#191919"
           stroke-width="0.7 px"
           style="display:inline;fill:none;fill-opacity:1;fill-rule:evenodd;stroke-width:0.1;stroke-linecap:square;stroke-miterlimit:4;stroke-dasharray:none"
           transform="matrix(1,0,0,-1,46.274315,115.37673)" /><path
           id="Cut007_cs_w0010"
           d="m -5.947121,-32.800408 h 3.495736 l 5.95852,5.95852 H -3.5639328 L -15.351,-38.628955 v -7.071068 l 9.403879,9.403879 v 3.495736"
           stroke="#191919"
           stroke-width="0.7 px"
           style="display:inline;fill:none;fill-opacity:1;fill-rule:evenodd;stroke-width:0.1;stroke-linecap:square;stroke-miterlimit:4;stroke-dasharray:none"
           transform="matrix(1,0,0,-1,46.274315,115.37673)" /><path
           id="Cut007_cs_w0020"
           d="m 13.857162,-40.015285 v -0.659628 l 0.659628,0.659628 h -0.659628"
           stroke="#191919"
           stroke-width="0.7 px"
           style="display:inline;fill:none;fill-opacity:1;fill-rule:evenodd;stroke-width:0.1;stroke-linecap:square;stroke-miterlimit:4;stroke-dasharray:none"
           transform="matrix(1,0,0,-1,46.274315,115.37673)" /><path
           id="Cut007_cs_w0018"
           d="m 5.6096324,-32.800408 5.9585196,5.95852 H 4.4970845 l -5.95852,-5.95852 h 7.0710679"
           stroke="#191919"
           stroke-width="0.7 px"
           style="display:inline;fill:none;fill-opacity:1;fill-rule:evenodd;stroke-width:0.1;stroke-linecap:square;stroke-miterlimit:4;stroke-dasharray:none"
           transform="matrix(1,0,0,-1,46.274315,115.37673)" /><path
           id="Cut007_cs_w0022"
           d="m 13.67065,-32.800408 5.95852,5.95852 h -7.071068 l -5.9585202,-5.95852 H 13.67065"
           stroke="#191919"
           stroke-width="0.7 px"
           style="display:inline;fill:none;fill-opacity:1;fill-rule:evenodd;stroke-width:0.1;stroke-linecap:square;stroke-miterlimit:4;stroke-dasharray:none"
           transform="matrix(1,0,0,-1,46.274315,115.37673)" /><path
           id="Cut007_cs_w0024"
           d="M -1.4205486,-15.647537 H -3.416164 A 2,2 0 0 0 -5.41616,-13.6475 l -4e-6,1.075415 -9.934836,-9.934836 v -0.818183 h 6.2528844 l 7.677567,7.677567"
           stroke="#191919"
           stroke-width="0.7 px"
           style="display:inline;fill:none;fill-opacity:1;fill-rule:evenodd;stroke-width:0.1;stroke-linecap:square;stroke-miterlimit:4;stroke-dasharray:none"
           transform="matrix(1,0,0,-1,46.274315,115.37673)" /><path
           id="Cut007_cs_w0025"
           d="M -5.416164,-4.5110673 -15.351,-14.445903 v -7.071068 l 9.934836,9.934836 v 7.0710677"
           stroke="#191919"
           stroke-width="0.7 px"
           style="display:inline;fill:none;fill-opacity:1;fill-rule:evenodd;stroke-width:0.1;stroke-linecap:square;stroke-miterlimit:4;stroke-dasharray:none"
           transform="matrix(1,0,0,-1,46.274315,115.37673)" /><path
           id="Cut007_cs_w0026"
           d="M -5.416164,1.783974 A 2,2 0 0 0 -3.41616,3.78397 l 5.3050878,4e-6 1.044054,1.044054 H -4.138086 L -15.351,-6.384886 v -7.071068 l 9.934836,9.9348362 V 1.783974"
           stroke="#191919"
           stroke-width="0.7 px"
           style="display:inline;fill:none;fill-opacity:1;fill-rule:evenodd;stroke-width:0.1;stroke-linecap:square;stroke-miterlimit:4;stroke-dasharray:none"
           transform="matrix(1,0,0,-1,46.274315,115.37673)" /><path
           id="Cut007_cs_w0027"
           d="M -11.920105,4.828028 V 5.1070263 L -15.351,1.6761313 V -5.3949365 L -5.1280355,4.828028 h -6.7920695"
           stroke="#191919"
           stroke-width="0.7 px"
           style="display:inline;fill:none;fill-opacity:1;fill-rule:evenodd;stroke-width:0.1;stroke-linecap:square;stroke-miterlimit:4;stroke-dasharray:none"
           transform="matrix(1,0,0,-1,46.274315,115.37673)" /><path
           id="Cut007_cs_w0029"
           d="m -11.920105,11.829987 h 5.7330112 l 4.486616,4.486616 H -8.7715456 L -15.351,9.7371486 V 2.6660808 l 3.430895,3.430895 v 5.7330112"
           stroke="#191919"
           stroke-width="0.7 px"
           style="display:inline;fill:none;fill-opacity:1;fill-rule:evenodd;stroke-width:0.1;stroke-linecap:square;stroke-miterlimit:4;stroke-dasharray:none"
           transform="matrix(1,0,0,-1,46.274315,115.37673)" /><path
           id="Cut007_cs_w0031"
           d="m -15.351,16.316603 v -5.589505 l 5.5895049,5.589505 H -15.351"
           stroke="#191919"
           stroke-width="0.7 px"
           style="display:inline;fill:none;fill-opacity:1;fill-rule:evenodd;stroke-width:0.1;stroke-linecap:square;stroke-miterlimit:4;stroke-dasharray:none"
           transform="matrix(1,0,0,-1,46.274315,115.37673)" /><path
           id="Cut007_cs_w0032"
           d="m -0.43059907,-15.647537 -7.67756703,-7.677567 h 7.0710678 l 7.677567,7.677567 h -7.07106777"
           stroke="#191919"
           stroke-width="0.7 px"
           style="display:inline;fill:none;fill-opacity:1;fill-rule:evenodd;stroke-width:0.1;stroke-linecap:square;stroke-miterlimit:4;stroke-dasharray:none"
           transform="matrix(1,0,0,-1,46.274315,115.37673)" /><path
           id="Cut007_cs_w0033"
           d="M 12.267029,-15.316411 A 1.5,1.5 0 0 1 13.767,-13.8164 l 2.9e-5,15.799989 A 1.5,1.5 0 0 1 12.267,3.48359 l -15.799971,-1e-6 A 1.5,1.5 0 0 1 -5.03297,1.98359 l -1e-6,-15.800001 A 1.5,1.5 0 0 1 -3.53297,-15.3164 l 15.799999,-1.1e-5"
           stroke="#191919"
           stroke-width="0.7 px"
           style="display:inline;fill:none;fill-opacity:1;fill-rule:evenodd;stroke-width:0.1;stroke-linecap:square;stroke-miterlimit:4;stroke-dasharray:none"
           transform="matrix(1,0,0,-1,46.274315,115.37673)" /><path
           id="Cut007_cs_w0035"
           d="M 3.9229313,4.828028 2.8788773,3.783974 H 9.9499451 L 10.993999,4.828028 H 3.9229313"
           stroke="#191919"
           stroke-width="0.7 px"
           style="display:inline;fill:none;fill-opacity:1;fill-rule:evenodd;stroke-width:0.1;stroke-linecap:square;stroke-miterlimit:4;stroke-dasharray:none"
           transform="matrix(1,0,0,-1,46.274315,115.37673)" /><path
           id="Cut007_cs_w0037"
           d="m 1.8739235,11.829987 4.486616,4.486616 H -0.71052829 L -5.1971443,11.829987 h 7.0710678"
           stroke="#191919"
           stroke-width="0.7 px"
           style="display:inline;fill:none;fill-opacity:1;fill-rule:evenodd;stroke-width:0.1;stroke-linecap:square;stroke-miterlimit:4;stroke-dasharray:none"
           transform="matrix(1,0,0,-1,46.274315,115.37673)" /><path
           id="Cut007_cs_w0038"
           d="m 9.9349408,11.829987 1.3271822,1.327182 A 4,4 0 0 0 9.82195,16.3166 l -2.471461,3e-6 -4.486616,-4.486616 h 7.0710678"
           stroke="#191919"
           stroke-width="0.7 px"
           style="display:inline;fill:none;fill-opacity:1;fill-rule:evenodd;stroke-width:0.1;stroke-linecap:square;stroke-miterlimit:4;stroke-dasharray:none"
           transform="matrix(1,0,0,-1,46.274315,115.37673)" /></g><g
         inkscape:groupmode="layer"
         id="layer12"
         inkscape:label="Engrave TopB"
         style="display:inline"><path
           id="Cut007_cs_w0042"
           d="m -1.4191015,-38.464 q -0.2929687,0 -0.3442382,0.341797 v 3.049316 l -0.8374024,-1.433105 q -0.1367187,-0.168457 -0.2978515,-0.168457 -0.00732,0 -0.014649,0 -0.15625,0 -0.2807617,0.168457 l -0.8325195,1.425781 0.00244,-3.041992 q -0.039063,-0.336914 -0.3515625,-0.336914 h -0.00488 q -0.3100586,0 -0.3344727,0.336914 v 4.311523 q 0.019531,0.275879 0.246582,0.336914 0.039063,0.0098 0.078125,0.0098 h 0.014649 q 0.1708984,0 0.3027343,-0.166016 l 1.1743165,-2.019043 1.1865234,2.019043 q 0.1318359,0.166016 0.300293,0.166016 0.041504,0 0.090332,-0.01221 0.2246094,-0.05615 0.246582,-0.334473 v -4.311523 Q -1.1285741,-38.464 -1.4117772,-38.464 h -0.00732"
           stroke="#191919"
           stroke-width="0.7 px"
           style="display:inline;fill:#ff0000;fill-opacity:1;fill-rule:evenodd;stroke:#ff0101;stroke-width:0.1;stroke-linecap:square;stroke-miterlimit:4;stroke-dasharray:none;stroke-opacity:1"
           transform="matrix(1,0,0,-1,46.274315,115.37673)" /><path
           id="Cut007_cs_w0043"
           d="m 3.0426759,-40.534 h 0.012207 q 0.2319336,0 0.3125,-0.224609 l 1.5649414,-4.316407 q 0.014648,-0.0708 0.014648,-0.131836 0,-0.241699 -0.2246094,-0.305175 l -0.080566,-0.02686 q -0.00244,0 -0.00488,0 -0.2075196,0 -0.3515625,0.231934 l -0.2514649,0.690918 -1.9702148,-0.0049 -0.2441406,-0.681152 q -0.1147461,-0.22461 -0.3247071,-0.22461 -0.092773,0 -0.1391601,0.02686 -0.1806641,0.10498 -0.1806641,0.314941 0,0.03662 0.00488,0.07813 l 1.5551758,4.348145 Q 2.8156251,-40.534 3.0426759,-40.534"
           stroke="#191919"
           stroke-width="0.7 px"
           style="display:inline;fill:#ff0000;fill-opacity:1;fill-rule:evenodd;stroke:#ff0101;stroke-width:0.1;stroke-linecap:square;stroke-miterlimit:4;stroke-dasharray:none;stroke-opacity:1"
           transform="matrix(1,0,0,-1,46.274315,115.37673)" /><path
           id="Cut007_cs_w0045"
           d="m 8.5068686,-45.468082 q -0.087891,-0.06348 -0.1977539,-0.06348 -0.03418,0 -0.073242,0.0073 -0.1513672,0.02685 -0.222168,0.151367 L 6.8100914,-43.47104 H 6.1997397 v -1.71875 q 0,-0.212402 -0.1928711,-0.305175 -0.080566,-0.03906 -0.1586914,-0.0415 -0.1049805,0 -0.2026367,0.07568 -0.1342774,0.100098 -0.1342774,0.270996 v 4.313965 q 0,0.141602 0.098796,0.241699 Q 5.709017,-40.534 5.85306,-40.534 h 1.5161133 q 0.546875,0 0.949707,-0.347982 0.402832,-0.347819 0.5004883,-0.882487 0.024414,-0.131836 0.024414,-0.258789 0,-0.0049 0,-0.0073 0,-0.424805 -0.2661133,-0.808105 -0.3466797,-0.498047 -0.9179688,-0.605469 l -0.046387,-0.0073 0.9814453,-1.552735 q 0.061035,-0.107422 0.061035,-0.202637 0,-0.146484 -0.1489258,-0.26123"
           stroke="#191919"
           stroke-width="0.7 px"
           style="display:inline;fill:#ff0000;fill-opacity:1;fill-rule:evenodd;stroke:#ff0101;stroke-width:0.1;stroke-linecap:square;stroke-miterlimit:4;stroke-dasharray:none;stroke-opacity:1"
           transform="matrix(1,0,0,-1,46.274315,115.37673)" /><path
           id="Cut007_cs_w0047"
           d="m 1.5039129,-33.464 h 0.012207 q 0.2319336,0 0.3125,-0.224609 l 1.5649414,-4.316407 q 0.014648,-0.0708 0.014648,-0.131836 0,-0.241699 -0.2246093,-0.305175 l -0.080566,-0.02686 q -0.00244,0 -0.00488,0 -0.2075195,0 -0.3515625,0.231934 l -0.2514648,0.690918 -1.97021485,-0.0049 -0.24414062,-0.681152 q -0.11474609,-0.22461 -0.32470703,-0.22461 -0.09277344,0 -0.13916016,0.02686 -0.18066406,0.10498 -0.18066406,0.314941 0,0.03662 0.004883,0.07813 l 1.55517582,4.348145 Q 1.2768621,-33.464 1.5039129,-33.464"
           stroke="#191919"
           stroke-width="0.7 px"
           style="display:inline;fill:#ff0000;fill-opacity:1;fill-rule:evenodd;stroke:#ff0101;stroke-width:0.1;stroke-linecap:square;stroke-miterlimit:4;stroke-dasharray:none;stroke-opacity:1"
           transform="matrix(1,0,0,-1,46.274315,115.37673)" /><path
           id="Cut007_cs_w0049"
           d="m 6.5115626,-35.84193 0.039063,-0.02197 q 0.01709,-0.01221 0.03776,-0.02327 0.020833,-0.01091 0.040365,-0.02311 0.4833984,-0.317383 0.5981445,-0.878906 0.029297,-0.141602 0.029297,-0.288086 0,-0.08057 -0.00977,-0.163574 -0.039063,-0.332032 -0.2332357,-0.614096 -0.1940104,-0.281901 -0.4869792,-0.435709 -0.3149414,-0.166016 -0.6518554,-0.166016 -0.5664063,0 -1.081543,0.145183 -0.5151367,0.145345 -0.7348633,0.777669 -0.029297,0.08057 -0.043945,0.166015 -0.014648,0.08545 -0.03418,0.170899 -0.00732,0.03906 -0.00732,0.07813 0,0.129394 0.092773,0.231933 0.1000977,0.107422 0.2392579,0.107422 0.031738,0 0.068359,-0.0049 0.1928711,-0.03906 0.2685547,-0.239258 l 0.00732,-0.02197 q 0.1147461,-0.529785 0.4077149,-0.632324 0.2661133,-0.09277 0.7250976,-0.09277 0.043945,0 0.087891,0 0.4785156,0 0.6567382,0.449219 0.046387,0.119629 0.046387,0.241699 0,0.08545 -0.021973,0.17334 -0.053711,0.214844 -0.2124023,0.361328 -0.070801,0.06103 -0.1855469,0.114746 l -1.1303711,0.495606 -0.036621,0.01953 q -0.5541992,0.292969 -0.6884766,0.83252 -0.048828,0.183105 -0.048828,0.356445 0,0.0024 0,0.0073 0,0.407715 0.2758789,0.756836 0.390625,0.498047 1.0302735,0.498047 l 0.2685546,-0.0073 q 0.131836,-0.02441 0.2539063,-0.04769 0.1220703,-0.02311 0.246582,-0.07926 0.3076172,-0.144043 0.4711914,-0.395508 0.1635742,-0.251465 0.2954102,-0.544434 0.012207,-0.02686 0.021973,-0.06348 0.00977,-0.0415 0.00977,-0.08057 0,-0.07324 -0.03418,-0.136718 -0.029297,-0.06104 -0.061035,-0.09277 -0.031738,-0.03174 -0.05127,-0.04395 -0.090332,-0.06348 -0.1928711,-0.06348 -0.041504,0 -0.085449,0.0098 -0.1513672,0.03418 -0.2319336,0.195312 -0.063477,0.141602 -0.1355794,0.289226 -0.07194,0.147786 -0.2013347,0.245442 -0.053711,0.03906 -0.1038411,0.05729 -0.049968,0.01839 -0.1110026,0.04037 l -0.1586914,0.02685 -0.2246094,0.0073 q -0.3271484,-0.0049 -0.5004883,-0.283203 -0.092773,-0.141601 -0.092773,-0.3125 0,-0.0415 0.00488,-0.08545 0.03418,-0.270996 0.2539062,-0.419922 0.00977,-0.0073 0.021973,-0.01595 0.012207,-0.0085 0.026855,-0.01579 l 0.026855,-0.01221 0.029297,-0.01221 1.1279297,-0.498047 0.039063,-0.01709 0.043945,-0.02197"
           stroke="#191919"
           stroke-width="0.7 px"
           style="display:inline;fill:#ff0000;fill-opacity:1;fill-rule:evenodd;stroke:#ff0101;stroke-width:0.1;stroke-linecap:square;stroke-miterlimit:4;stroke-dasharray:none;stroke-opacity:1"
           transform="matrix(1,0,0,-1,46.274315,115.37673)" /><path
           id="Cut007_cs_w0050"
           d="m 8.1209376,-34.152477 q -0.3417969,0.02686 -0.3417969,0.341797 0,0.317383 0.3417969,0.34668 h 2.4780274 q 0.339355,-0.02686 0.339355,-0.34668 0,-0.317382 -0.339355,-0.341797 H 9.7054103 v -3.969726 Q 9.6492579,-38.464 9.3538478,-38.464 q -0.00244,0 -0.00732,0 -0.3027343,0.0049 -0.3295898,0.341797 v 3.969726 H 8.1209376"
           stroke="#191919"
           stroke-width="0.7 px"
           style="display:inline;fill:#ff0000;fill-opacity:1;fill-rule:evenodd;stroke:#ff0101;stroke-width:0.1;stroke-linecap:square;stroke-miterlimit:4;stroke-dasharray:none;stroke-opacity:1"
           transform="matrix(1,0,0,-1,46.274315,115.37673)"
           inkscape:label="Cut007_cs_w0050" /><path
           id="Cut007_cs_w0051"
           d="m 12.786328,-45.534 q -0.292969,0 -0.344238,0.341797 v 3.049316 l -0.837402,-1.433105 q -0.136719,-0.168457 -0.297852,-0.168457 -0.0073,0 -0.01465,0 -0.15625,0 -0.280762,0.168457 l -0.83252,1.425781 0.0024,-3.041992 q -0.03906,-0.336914 -0.3515627,-0.336914 h -0.00488 q -0.3100585,0 -0.3344726,0.336914 v 4.311523 q 0.019531,0.275879 0.246582,0.336914 0.039063,0.0098 0.078125,0.0098 h 0.014648 q 0.1708983,0 0.3027343,-0.166016 l 1.174316,-2.019043 1.186523,2.019043 q 0.131836,0.166016 0.300293,0.166016 0.0415,0 0.09033,-0.01221 0.22461,-0.05615 0.246583,-0.334473 v -4.311523 Q 13.076856,-45.534 12.793652,-45.534 h -0.0073"
           stroke="#191919"
           stroke-width="0.7 px"
           style="display:inline;fill:#ff0000;fill-opacity:1;fill-rule:evenodd;stroke:#ff0101;stroke-width:0.1;stroke-linecap:square;stroke-miterlimit:4;stroke-dasharray:none;stroke-opacity:1"
           transform="matrix(1,0,0,-1,46.274315,115.37673)" /><path
           id="Cut007_cs_w0052"
           d="m 12.346035,-35.480602 h 1.542969 q 0.34668,-0.05127 0.34668,-0.346679 0,-0.297852 -0.34668,-0.34668 h -1.542969 v -1.604004 h 2.023926 q 0.344238,-0.05127 0.344238,-0.344238 0,-0.292969 -0.344238,-0.341797 H 12.00668 q -0.305176,0.03906 -0.34668,0.34668 v 4.311523 q 0.04639,0.322266 0.34668,0.341797 h 2.363281 q 0.344238,-0.02686 0.344238,-0.341797 0,-0.317383 -0.344238,-0.339355 h -2.023926 v -1.33545"
           stroke="#191919"
           stroke-width="0.7 px"
           style="display:inline;fill:#ff0000;fill-opacity:1;fill-rule:evenodd;stroke:#ff0101;stroke-width:0.1;stroke-linecap:square;stroke-miterlimit:4;stroke-dasharray:none;stroke-opacity:1"
           transform="matrix(1,0,0,-1,46.274315,115.37673)" /><path
           id="Cut007_cs_w0053"
           d="m 18.384772,-38.398082 q -0.08789,-0.06348 -0.197754,-0.06348 -0.03418,0 -0.07324,0.0073 -0.151367,0.02685 -0.222168,0.151367 l -1.203613,1.901855 h -0.610352 v -1.71875 q 0,-0.212402 -0.192871,-0.305175 -0.08057,-0.03906 -0.158691,-0.0415 -0.104981,0 -0.202637,0.07568 -0.134277,0.100098 -0.134277,0.270996 v 4.313965 q 0,0.141602 0.09879,0.241699 0.09896,0.100098 0.243002,0.100098 h 1.516113 q 0.546875,0 0.949707,-0.347982 0.402832,-0.347819 0.500488,-0.882487 0.02441,-0.131836 0.02441,-0.258789 0,-0.0049 0,-0.0073 0,-0.424805 -0.266113,-0.808105 -0.34668,-0.498047 -0.917969,-0.605469 l -0.04639,-0.0073 0.981445,-1.552735 q 0.06104,-0.107422 0.06104,-0.202637 0,-0.146484 -0.148926,-0.26123"
           stroke="#191919"
           stroke-width="0.7 px"
           style="display:inline;fill:#ff0000;fill-opacity:1;fill-rule:evenodd;stroke:#ff0101;stroke-width:0.1;stroke-linecap:square;stroke-miterlimit:4;stroke-dasharray:none;stroke-opacity:1"
           transform="matrix(1,0,0,-1,46.274315,115.37673)" /><path
           id="Cut007_cs_w0055"
           d="m -10.901387,10.636 h 2.4105473 q 0.3461425,-0.02739 0.3461425,-0.352451 0,-0.3248928 -0.351123,-0.3473049 H -10.555244 V 8.5740859 h 1.6062011 q 0.3486328,-0.024902 0.3486328,-0.3436523 0,-0.3038086 -0.3486328,-0.3561035 H -10.555244 V 5.8896133 q -0.02241,-0.3436524 -0.336182,-0.3486328 -0.005,0 -0.01,0 -0.303808,0 -0.353613,0.3486328 v 4.3927737 q 0.04482,0.328711 0.353613,0.353613"
           stroke="#191919"
           stroke-width="0.7 px"
           style="display:inline;fill:#ff0000;fill-opacity:1;fill-rule:evenodd;stroke:#ff0101;stroke-width:0.1;stroke-linecap:square;stroke-miterlimit:4;stroke-dasharray:none;stroke-opacity:1"
           transform="matrix(1,0,0,-1,46.274315,115.37673)" /><path
           id="Cut007_cs_w0056"
           d="m -7.4512499,10.282387 q 0.052295,0.353613 0.3536133,0.353613 0.00498,0 0.00996,0 0.3112793,-0.005 0.3386719,-0.353613 V 6.2282852 l 2.2984863,0.00249 q 0.3511231,-0.039844 0.3511231,-0.3511231 0,-0.3237304 -0.3536133,-0.3461425 h -2.6446289 q -0.3062988,0.019922 -0.3536133,0.3461425 v 4.4027349"
           stroke="#191919"
           stroke-width="0.7 px"
           style="display:inline;fill:#ff0000;fill-opacity:1;fill-rule:evenodd;stroke:#ff0101;stroke-width:0.1;stroke-linecap:square;stroke-miterlimit:4;stroke-dasharray:none;stroke-opacity:1"
           transform="matrix(1,0,0,-1,46.274315,115.37673)" /><path
           id="Cut007_cs_w0057"
           d="m -0.33698232,5.6032363 q -0.0896484,-0.064746 -0.20170899,-0.064746 -0.0348633,0 -0.074707,0.00747 -0.15439453,0.027393 -0.22661133,0.1543946 L -2.0676952,7.640248 H -2.6902538 V 5.887123 q 0,-0.2166503 -0.1967285,-0.3112793 -0.082178,-0.039844 -0.1618653,-0.042334 -0.10708,0 -0.2066894,0.077197 -0.1369629,0.1020996 -0.1369629,0.276416 v 4.4002443 q 0,0.144434 0.1007715,0.246533 0.1009375,0.1021 0.2478613,0.1021 h 1.5464356 q 0.55781246,0 0.96870113,-0.354941 0.41088867,-0.3547761 0.51049805,-0.9001374 0.02490234,-0.1344727 0.02490234,-0.2639649 0,-0.00498 0,-0.00747 0,-0.4333008 -0.27143555,-0.8242676 Q -0.61837881,7.7772109 -1.2010937,7.6676406 l -0.047314,-0.00747 1.00107422,-1.583789 q 0.0622559,-0.1095704 0.0622559,-0.2066895 0,-0.1494141 -0.15190429,-0.2664551"
           stroke="#191919"
           stroke-width="0.7 px"
           style="display:inline;fill:#ff0000;fill-opacity:1;fill-rule:evenodd;stroke:#ff0101;stroke-width:0.1;stroke-linecap:square;stroke-miterlimit:4;stroke-dasharray:none;stroke-opacity:1"
           transform="matrix(1,0,0,-1,46.274315,115.37673)" /><path
           id="Cut007_cs_w0059"
           d="m 8.3560938,8.2105117 0.039844,-0.022412 q 0.017432,-0.012451 0.038516,-0.02374 0.02125,-0.011123 0.041172,-0.023574 0.4930664,-0.3237305 0.6101074,-0.8964844 0.029883,-0.1444336 0.029883,-0.2938477 0,-0.082178 -0.00996,-0.1668457 Q 9.0658106,6.4449355 8.867754,6.1572305 8.6698634,5.8696914 8.3710353,5.7128066 8.049795,5.5434707 7.7061427,5.5434707 q -0.5777344,0 -1.1031739,0.1480859 -0.5254394,0.148252 -0.7495605,0.7932227 -0.029883,0.082178 -0.044824,0.1693359 -0.014941,0.087158 -0.034863,0.1743164 -0.00747,0.039844 -0.00747,0.079688 0,0.1319825 0.094629,0.2365723 0.1020996,0.1095703 0.244043,0.1095703 0.032373,0 0.069726,-0.00498 0.1967286,-0.039844 0.2739258,-0.2440429 l 0.00747,-0.022412 q 0.117041,-0.5403809 0.4158692,-0.6449707 0.2714355,-0.094629 0.7395996,-0.094629 0.044824,0 0.089648,0 0.4880859,0 0.6698731,0.4582031 0.047314,0.1220215 0.047314,0.2465332 0,0.087158 -0.022412,0.1768066 -0.054785,0.2191407 -0.2166504,0.3685547 -0.072217,0.062256 -0.1892578,0.117041 l -1.1529785,0.5055176 -0.037354,0.019922 q -0.5652832,0.2988281 -0.7022461,0.8491699 -0.049805,0.1867676 -0.049805,0.3635742 0,0.00249 0,0.00747 0,0.4158692 0.2813965,0.7719721 Q 6.7274806,10.636 7.379922,10.636 L 7.6538478,10.6285 Q 7.7883204,10.6036 7.9128321,10.57986 8.0373438,10.55629 8.1643458,10.49901 8.4781153,10.352086 8.644961,10.095592 8.8118067,9.839098 8.9462794,9.5402699 q 0.012451,-0.027393 0.022412,-0.064746 0.00996,-0.042334 0.00996,-0.082178 0,-0.074707 -0.034863,-0.1394531 -0.029883,-0.062256 -0.062256,-0.094629 -0.032373,-0.032373 -0.052295,-0.044824 -0.092139,-0.064746 -0.1967285,-0.064746 -0.042334,0 -0.087158,0.00996 -0.1543946,0.034863 -0.2365723,0.1992188 -0.064746,0.1444336 -0.138291,0.2950098 -0.073379,0.1507421 -0.2053613,0.2503515 -0.054785,0.039844 -0.105918,0.058438 -0.050967,0.01876 -0.1132227,0.041172 l -0.1618652,0.027393 -0.2291016,0.00747 q -0.3336914,-0.00498 -0.510498,-0.2888672 -0.094629,-0.1444336 -0.094629,-0.31875 0,-0.042334 0.00498,-0.087158 0.034863,-0.276416 0.2589844,-0.4283203 0.00996,-0.00747 0.022412,-0.01627 0.012451,-0.00863 0.027393,-0.016103 l 0.027393,-0.012451 0.029883,-0.012451 1.1504883,-0.5080078 0.039844,-0.017432 0.044824,-0.022412"
           stroke="#191919"
           stroke-width="0.7 px"
           style="display:inline;fill:#ff0000;fill-opacity:1;fill-rule:evenodd;stroke:#ff0101;stroke-width:0.1;stroke-linecap:square;stroke-miterlimit:4;stroke-dasharray:none;stroke-opacity:1"
           transform="matrix(1,0,0,-1,46.274315,115.37673)" /><path
           id="Cut007_cs_w0060"
           d="m 11.748291,10.636 h 0.01245 q 0.236573,0 0.31875,-0.229102 l 1.596241,-4.4027339 q 0.01494,-0.072217 0.01494,-0.1344727 0,-0.2465332 -0.229102,-0.3112793 l -0.08218,-0.027393 q -0.0025,0 -0.005,0 -0.21167,0 -0.358594,0.2365723 L 12.759302,6.4723277 10.749683,6.4673477 10.50066,5.7725723 q -0.117041,-0.2291016 -0.331201,-0.2291016 -0.09463,0 -0.141944,0.027393 -0.1842772,0.1070801 -0.1842772,0.3212402 0,0.037354 0.00498,0.079687 l 1.5862802,4.4351071 q 0.0822,0.229102 0.313793,0.229102"
           stroke="#191919"
           stroke-width="0.7 px"
           style="display:inline;fill:#ff0000;fill-opacity:1;fill-rule:evenodd;stroke:#ff0101;stroke-width:0.1;stroke-linecap:square;stroke-miterlimit:4;stroke-dasharray:none;stroke-opacity:1"
           transform="matrix(1,0,0,-1,46.274315,115.37673)" /><path
           id="Cut007_cs_w0062"
           d="m 14.26625,10.282387 q 0.0523,0.353613 0.353613,0.353613 0.005,0 0.01,0 0.31128,-0.005 0.338672,-0.353613 V 6.2282852 l 2.298487,0.00249 q 0.351123,-0.039844 0.351123,-0.3511231 0,-0.3237304 -0.353614,-0.3461425 h -2.644629 q -0.306298,0.019922 -0.353613,0.3461425 v 4.4027349"
           stroke="#191919"
           stroke-width="0.7 px"
           style="display:inline;fill:#ff0000;fill-opacity:1;fill-rule:evenodd;stroke:#ff0101;stroke-width:0.1;stroke-linecap:square;stroke-miterlimit:4;stroke-dasharray:none;stroke-opacity:1"
           transform="matrix(1,0,0,-1,46.274315,115.37673)" /><g
           inkscape:groupmode="layer"
           id="layer14"
           inkscape:label="Engrave Inside"><path
             id="Cut007_cs_w0064"
             d="m 6.1997397,-42.784977 h 1.1694336 q 0.2490234,0 0.4601237,0.151368 0.211263,0.151367 0.2845052,0.395507 0.039063,0.129395 0.039063,0.249024 0,0.229492 -0.144043,0.429687 -0.2197265,0.302735 -0.6054687,0.336914 H 6.1997397 v -1.5625"
             stroke="#191919"
             stroke-width="0.7 px"
             style="display:inline;fill:#ffffff;fill-opacity:1;fill-rule:evenodd;stroke:#ff0101;stroke-width:0.1;stroke-linecap:square;stroke-miterlimit:4;stroke-dasharray:none;stroke-opacity:1"
             transform="matrix(1,0,0,-1,46.274315,115.37673)" /><path
             id="Cut007_cs_w0066"
             d="m 16.077643,-35.714977 h 1.169434 q 0.249023,0 0.460124,0.151368 0.211263,0.151367 0.284505,0.395507 0.03906,0.129395 0.03906,0.249024 0,0.229492 -0.144043,0.429687 -0.219726,0.302735 -0.605468,0.336914 h -1.203614 v -1.5625"
             stroke="#191919"
             stroke-width="0.7 px"
             style="display:inline;fill:#ffffff;fill-opacity:1;fill-rule:evenodd;stroke:#ff0101;stroke-width:0.1;stroke-linecap:square;stroke-miterlimit:4;stroke-dasharray:none;stroke-opacity:1"
             transform="matrix(1,0,0,-1,46.274315,115.37673)" /><path
             id="Cut007_cs_w0067"
             d="m -2.6902538,8.3400039 h 1.1928223 q 0.2540039,0 0.4693261,0.1543945 0.21548831,0.1543946 0.29019534,0.403418 0.0398438,0.1319824 0.0398438,0.2540039 0,0.234082 -0.14692382,0.4382813 -0.22412102,0.308789 -0.61757812,0.3436523 h -1.2276856 v -1.59375"
             stroke="#191919"
             stroke-width="0.7 px"
             style="display:inline;fill:#ffffff;fill-opacity:1;fill-rule:evenodd;stroke:#ff0101;stroke-width:0.1;stroke-linecap:square;stroke-miterlimit:4;stroke-dasharray:none;stroke-opacity:1"
             transform="matrix(1,0,0,-1,46.274315,115.37673)" /><path
             id="Cut007_cs_w0061"
             d="m 10.986279,7.172084 h 1.519043 L 11.748291,9.2638809 10.986279,7.172084"
             stroke="#191919"
             stroke-width="0.7 px"
             style="display:inline;fill:#ffffff;fill-opacity:1;fill-rule:evenodd;stroke:#ff0101;stroke-width:0.1;stroke-linecap:square;stroke-miterlimit:4;stroke-dasharray:none;stroke-opacity:1"
             transform="matrix(1,0,0,-1,46.274315,115.37673)" /><path
             id="Cut007_cs_w0058"
             d="m -0.73791006,8.8978164 q 0.0398438,0.1319824 0.0398438,0.2540039 0,0.234082 -0.14692382,0.4382813 -0.22412112,0.308789 -0.61757822,0.3436523 h -1.2276855 v -1.59375 h 1.1928223 q 0.254004,0 0.4693261,0.1543945 0.21548836,0.1543946 0.29019539,0.403418"
             stroke="#191919"
             stroke-width="0.7 px"
             style="display:inline;fill:#ffffff;fill-opacity:1;fill-rule:evenodd;stroke:#ff0101;stroke-width:0.1;stroke-linecap:square;stroke-miterlimit:4;stroke-dasharray:none;stroke-opacity:1"
             transform="matrix(1,0,0,-1,46.274315,115.37673)" /><path
             id="Cut007_cs_w0054"
             d="m 17.991706,-35.168102 q 0.03906,0.129395 0.03906,0.249024 0,0.229492 -0.144043,0.429687 -0.219726,0.302735 -0.605468,0.336914 h -1.203614 v -1.5625 h 1.169434 q 0.249023,0 0.460124,0.151368 0.211263,0.151367 0.284505,0.395507"
             stroke="#191919"
             stroke-width="0.7 px"
             style="display:inline;fill:#ffffff;fill-opacity:1;fill-rule:evenodd;stroke:#ff0101;stroke-width:0.1;stroke-linecap:square;stroke-miterlimit:4;stroke-dasharray:none;stroke-opacity:1"
             transform="matrix(1,0,0,-1,46.274315,115.37673)" /><path
             id="Cut007_cs_w0044"
             d="m 2.2956056,-43.929996 h 1.4892578 l -0.7421875,2.050781 -0.7470703,-2.050781"
             stroke="#191919"
             stroke-width="0.7 px"
             style="display:inline;fill:#ffffff;fill-opacity:1;fill-rule:evenodd;stroke:#ff0101;stroke-width:0.1;stroke-linecap:square;stroke-miterlimit:4;stroke-dasharray:none;stroke-opacity:1"
             transform="matrix(1,0,0,-1,46.274315,115.37673)" /><path
             id="Cut007_cs_w0046"
             d="m 8.1138022,-42.238102 q 0.039063,0.129395 0.039063,0.249024 0,0.229492 -0.144043,0.429687 -0.2197265,0.302735 -0.6054687,0.336914 H 6.1997397 v -1.5625 h 1.1694336 q 0.2490234,0 0.4601237,0.151368 0.211263,0.151367 0.2845052,0.395507"
             stroke="#191919"
             stroke-width="0.7 px"
             style="display:inline;fill:#ffffff;fill-opacity:1;fill-rule:evenodd;stroke:#ff0101;stroke-width:0.1;stroke-linecap:square;stroke-miterlimit:4;stroke-dasharray:none;stroke-opacity:1"
             transform="matrix(1,0,0,-1,46.274315,115.37673)" /><path
             id="Cut007_cs_w0048"
             d="M 0.75684255,-36.859996 H 2.2461004 l -0.7421875,2.050781 -0.74707035,-2.050781"
             stroke="#191919"
             stroke-width="0.7 px"
             style="display:inline;fill:#ffffff;fill-opacity:1;fill-rule:evenodd;stroke:#ff0101;stroke-width:0.1;stroke-linecap:square;stroke-miterlimit:4;stroke-dasharray:none;stroke-opacity:1"
             transform="matrix(1,0,0,-1,46.274315,115.37673)" /></g></g><g
         id="Cut009_cs"
         transform="matrix(1,0,0,-1,46.293217,115.2658)"
         inkscape:label="Engrave TopA"
         style="display:inline"><path
           id="Cut009_cs_w0001"
           d="m -14.461484,45.160922 q -0.318371,-0.0058 -0.363086,-0.360547 v -3.234766 l -2.132813,3.425196 -0.271679,0.180273 -0.116797,-0.02285 q -0.23435,-0.08538 -0.269141,-0.347852 v -4.483984 q 0.04918,-0.349263 0.356654,-0.355469 0.307712,0.0062 0.359362,0.355469 v 3.232226 l 2.132812,-3.420117 0.281836,-0.167578 h 0.03555 l 0.08379,0.01523 q 0.255811,0.07134 0.256445,0.335156 v 4.489063 q -0.0258,0.350797 -0.347851,0.360547 h -0.0051"
           stroke="#191919"
           stroke-width="0.7 px"
           style="fill:#ff0808;fill-opacity:1;fill-rule:evenodd;stroke:#fd0000;stroke-width:0.1;stroke-linecap:square;stroke-miterlimit:4;stroke-dasharray:none;stroke-opacity:1" /><path
           id="Cut009_cs_w0002"
           d="m -13.064323,40.001547 0.144727,-0.02793 q 0.221214,0.0024 0.337695,0.233594 l 0.253906,0.708398 2.049024,0.0051 0.261523,-0.718555 q 0.1447759,-0.23754 0.3656252,-0.241211 h 0.00508 l 0.083789,0.02793 q 0.2335928,0.06691 0.2335937,0.317382 l -0.015234,0.13711 -1.6275389,4.489062 q -0.08358,0.232889 -0.325,0.233594 h -0.0127 q -0.236677,-9.38e-4 -0.319922,-0.233594 l -1.617382,-4.52207 -0.0051,-0.08125 q 1.45e-4,-0.218189 0.18789,-0.327539"
           stroke="#191919"
           stroke-width="0.7 px"
           style="fill:#ff0808;fill-opacity:1;fill-rule:evenodd;stroke:#fd0000;stroke-width:0.1;stroke-linecap:square;stroke-miterlimit:4;stroke-dasharray:none;stroke-opacity:1" /><path
           id="Cut009_cs_w0003"
           d="M -7.5339061,40.219906 Q -7.4274494,39.968555 -7.1885936,39.966 h 0.00254 q 0.2416445,0.003 0.3402344,0.264063 l 1.2085937,4.486523 0.012695,0.119336 q -0.00203,0.240282 -0.2564454,0.314844 l -0.1269531,0.02031 q -0.2227943,-0.0044 -0.3199219,-0.26914 l -0.8607422,-3.199219 -0.855664,3.16875 q -0.099387,0.267071 -0.3224609,0.271679 l -0.1117188,-0.01523 Q -8.742313,45.058395 -8.745039,44.780062 l 0.00762,-0.09394 1.2035157,-4.466211"
           stroke="#191919"
           stroke-width="0.7 px"
           style="display:inline;fill:#ff0808;fill-opacity:1;fill-rule:evenodd;stroke:#fd0000;stroke-width:0.1;stroke-linecap:square;stroke-miterlimit:4;stroke-dasharray:none;stroke-opacity:1" /><path
           id="Cut009_cs_w0005"
           d="M 1.4902605,40.219906 Q 1.5967172,39.968555 1.835573,39.966 h 0.00254 q 0.2416444,0.003 0.3402344,0.264063 l 1.2085937,4.486523 0.012695,0.119336 q -0.00203,0.240282 -0.2564453,0.314844 l -0.1269531,0.02031 q -0.2227943,-0.0044 -0.3199219,-0.26914 L 1.835573,41.702719 0.97990895,44.871469 Q 0.88052164,45.13854 0.65744802,45.143148 L 0.54572927,45.127914 Q 0.28185368,45.058395 0.2791277,44.780062 l 0.007617,-0.09394 1.2035156,-4.466211"
           stroke="#191919"
           stroke-width="0.7 px"
           style="fill:#ff0808;fill-opacity:1;fill-rule:evenodd;stroke:#fd0000;stroke-width:0.1;stroke-linecap:square;stroke-miterlimit:4;stroke-dasharray:none;stroke-opacity:1" /><path
           id="Cut009_cs_w0006"
           d="m 5.4870834,43.251547 1.1730469,-0.517969 0.040625,-0.01777 0.045703,-0.02285 0.040625,-0.02285 0.039271,-0.02421 0.041979,-0.02404 Q 7.3693606,42.292491 7.4904037,41.707797 L 7.5208725,41.408188 7.5107162,41.23807 7.2681511,40.599411 6.7616928,40.146273 6.0837631,39.973617 4.9589584,40.124607 q -0.5627717,0.182781 -0.7642578,0.808776 l -0.045703,0.172656 -0.035547,0.177734 -0.00762,0.08125 0.096484,0.241211 0.2488281,0.111719 0.071094,-0.0051 q 0.2014007,-0.0416 0.2792969,-0.248828 l 0.00762,-0.02285 q 0.093212,-0.507906 0.4240235,-0.657617 l 0.7541015,-0.09648 h 0.091406 q 0.4972728,0.0026 0.6830078,0.467187 l 0.048242,0.251367 -0.022852,0.180274 -0.2208984,0.375781 -0.1929688,0.119336 -1.1755859,0.51543 -0.038086,0.02031 q -0.5614747,0.288743 -0.7160157,0.865821 l -0.050781,0.370703 v 0.0076 q 0.00318,0.431728 0.2869141,0.787109 0.4090047,0.517261 1.0714843,0.517969 l 0.2792969,-0.0076 0.2640625,-0.0496 0.2564453,-0.08243 0.4900391,-0.411329 0.3072265,-0.56621 0.022852,-0.06602 0.010156,-0.08379 -0.035547,-0.142188 -0.063477,-0.09648 -0.05332,-0.0457 -0.2005859,-0.06602 -0.088867,0.01016 -0.241211,0.203125 -0.1410026,0.300795 -0.209388,0.25526 -0.1079948,0.05958 -0.1154427,0.04198 -0.165039,0.02793 -0.2335938,0.0076 q -0.3400349,-0.0056 -0.5205078,-0.294531 l -0.096484,-0.325 0.00508,-0.08887 q 0.035277,-0.280946 0.2640625,-0.436719 l 0.022852,-0.01659 0.02793,-0.01642 0.02793,-0.0127 0.030469,-0.0127"
           stroke="#191919"
           stroke-width="0.7 px"
           style="fill:#ff0808;fill-opacity:1;fill-rule:evenodd;stroke:#fd0000;stroke-width:0.1;stroke-linecap:square;stroke-miterlimit:4;stroke-dasharray:none;stroke-opacity:1" /><path
           id="Cut009_cs_w0007"
           d="m 9.702435,39.966 q 0.31123,0.0059 0.365625,0.355469 v 4.128515 h 0.929297 q 0.349395,0.02443 0.35293,0.355469 -0.0033,0.3334 -0.35293,0.360547 H 8.4202084 q -0.3516543,-0.02917 -0.3554687,-0.360547 0.00403,-0.329006 0.3554687,-0.355469 h 0.931836 V 40.321469 Q 9.3778703,39.975628 9.6948178,39.966 h 0.00762"
           stroke="#191919"
           stroke-width="0.7 px"
           style="fill:#ff0808;fill-opacity:1;fill-rule:evenodd;stroke:#fd0000;stroke-width:0.1;stroke-linecap:square;stroke-miterlimit:4;stroke-dasharray:none;stroke-opacity:1" /><path
           id="Cut009_cs_w0008"
           d="m 14.876029,44.694919 q -0.39918,0.470902 -1.020703,0.471081 l -0.627149,-0.172656 q -0.638871,-0.385696 -0.89375,-1.129883 -0.232871,-0.636427 -0.233594,-1.310156 l 0.01016,-0.286914 q 0.0573,-0.804845 0.469726,-1.485352 0.409356,-0.665727 1.178125,-0.802344 l 0.213281,-0.01777 q 0.350802,0.0011 0.65,0.208203 0.386769,0.267293 0.616993,0.660156 0.363982,0.636972 0.416406,1.38125 l 0.01016,0.294532 -0.18789,1.165429 q -0.209456,0.559798 -0.601758,1.024427"
           stroke="#191919"
           stroke-width="0.7 px"
           style="fill:#ff0808;fill-opacity:1;fill-rule:evenodd;stroke:#fd0000;stroke-width:0.1;stroke-linecap:square;stroke-miterlimit:4;stroke-dasharray:none;stroke-opacity:1" /><path
           id="Cut009_cs_w0009"
           d="m 19.393698,39.963461 q 0.356193,0.02126 0.360547,0.35293 -0.0052,0.320252 -0.358008,0.358007 l -2.343555,-0.0025 v 4.133594 q -0.02559,0.35054 -0.345312,0.360508 h -0.01016 q -0.311524,-0.0065 -0.360547,-0.360547 v -4.489062 q 0.04699,-0.329653 0.360547,-0.35293 h 2.696484"
           stroke="#191919"
           stroke-width="0.7 px"
           style="fill:#ff0808;fill-opacity:1;fill-rule:evenodd;stroke:#fd0000;stroke-width:0.1;stroke-linecap:square;stroke-miterlimit:4;stroke-dasharray:none;stroke-opacity:1" /><path
           id="Cut009_cs_w0012"
           d="m 3.9828907,81.341547 0.1447266,-0.02793 q 0.2212138,0.0024 0.3376953,0.233594 l 0.2539063,0.708398 2.0490234,0.0051 0.2615234,-0.718555 q 0.1447757,-0.23754 0.365625,-0.241211 h 0.00508 l 0.083789,0.02793 q 0.2335928,0.06691 0.2335938,0.317382 l -0.015234,0.13711 -1.6275391,4.489062 q -0.083577,0.232889 -0.325,0.233594 H 5.7373829 Q 5.5007058,86.505062 5.417461,86.272406 l -1.6173828,-4.52207 -0.00508,-0.08125 q 1.456e-4,-0.218189 0.1878906,-0.327539"
           stroke="#191919"
           stroke-width="0.7 px"
           style="fill:#ff0808;fill-opacity:1;fill-rule:evenodd;stroke:#fd0000;stroke-width:0.1;stroke-linecap:square;stroke-miterlimit:4;stroke-dasharray:none;stroke-opacity:1" /><path
           id="Cut009_cs_w0013"
           d="M 8.3427996,81.841742 8.3047136,81.65893 8.3656511,81.463422 8.6551043,81.306 l 0.2082031,0.06212 0.1091797,0.12069 2.3968749,4.489063 0.05078,0.187891 -0.06348,0.182812 -0.302149,0.157422 -0.12069,-0.02421 -0.183997,-0.161146 -2.4070314,-4.478906"
           stroke="#191919"
           stroke-width="0.7 px"
           style="fill:#ff0808;fill-opacity:1;fill-rule:evenodd;stroke:#fd0000;stroke-width:0.1;stroke-linecap:square;stroke-miterlimit:4;stroke-dasharray:none;stroke-opacity:1" /><path
           id="Cut009_cs_w0014"
           d="m 14.556563,83.400727 h -0.604297 l -0.02285,0.0025 q -0.308978,0.03922 -0.309765,0.352929 7.87e-4,0.313709 0.309765,0.35293 l 0.02285,0.0051 h 0.959765 l 0.252552,-0.105456 0.105456,-0.252552 v -1.287304 l -0.03047,-0.06602 -0.01777,-0.04062 -0.01777,-0.03809 -0.04063,-0.07617 -0.01777,-0.03809 -0.02031,-0.03809 -0.02285,-0.03809 Q 14.69033,81.36725 13.911649,81.313587 l -0.03301,0.0025 q -0.794424,0.06729 -1.228906,0.825196 -0.24838,0.417388 -0.350391,0.962304 l -0.08125,0.837891 0.0127,0.340234 0.280482,1.148841 q 0.230395,0.538547 0.702136,0.864636 0.31809,0.219153 0.652539,0.223437 h 0.01016 l 0.474805,-0.129492 q 0.549253,-0.301003 0.827734,-0.853125 l 0.02031,-0.04063 0.01524,-0.03555 0.02031,-0.03809 0.03047,-0.1625 -0.09648,-0.231054 -0.251368,-0.114258 -0.06855,0.0076 -0.266602,0.203125 q -0.209645,0.594526 -0.662695,0.652539 l -0.104102,-0.01016 Q 13.304843,85.62218 13.1144,85.000234 l -0.187891,-1.140039 0.0076,-0.258985 q 0.04419,-0.733789 0.4875,-1.302539 0.209567,-0.277614 0.449414,-0.286914 l 0.165039,0.03809 q 0.321808,0.150144 0.492578,0.520508 l 0.02793,0.05586 v 0.774415"
           stroke="#191919"
           stroke-width="0.7 px"
           style="fill:#ff0808;fill-opacity:1;fill-rule:evenodd;stroke:#fd0000;stroke-width:0.1;stroke-linecap:square;stroke-miterlimit:4;stroke-dasharray:none;stroke-opacity:1" /><path
           id="Cut009_cs_w0015"
           d="m -12.086784,41.634164 h 1.548828 l -0.771875,2.132813 -0.776953,-2.132813"
           stroke="#191919"
           stroke-width="0.7 px"
           style="fill:#ffffff;fill-opacity:1;fill-rule:evenodd;stroke:#ff0000;stroke-width:0.1;stroke-linecap:square;stroke-miterlimit:4;stroke-dasharray:none;stroke-opacity:1" /><path
           id="Cut009_cs_w0016"
           d="m 13.992435,44.429672 q 0.393099,-0.108495 0.599219,-0.483776 l 0.281836,-0.851771 0.04316,-0.563672 v -0.04316 l -0.01777,-0.342773 -0.185351,-0.766797 -0.388477,-0.538281 -0.40625,-0.172657 -0.208203,0.03301 q -0.307491,0.09637 -0.492578,0.382044 l -0.281836,0.647461 -0.106641,0.727526 -0.0025,0.149805 0.03809,0.477344 0.303334,0.858203 q 0.223522,0.488375 0.707213,0.502734 l 0.116797,-0.01523"
           stroke="#191919"
           stroke-width="0.7 px"
           style="fill:#ffffff;fill-opacity:1;fill-rule:evenodd;stroke:#ff0000;stroke-width:0.1;stroke-linecap:square;stroke-miterlimit:4;stroke-dasharray:none;stroke-opacity:1" /><path
           id="Cut009_cs_w0017"
           d="M 4.9604298,82.974164 H 6.5092579 L 5.7373829,85.106977 4.9604298,82.974164"
           stroke="#191919"
           stroke-width="0.7 px"
           style="fill:#ffffff;fill-opacity:1;fill-rule:evenodd;stroke:#ff0000;stroke-width:0.1;stroke-linecap:square;stroke-miterlimit:4;stroke-dasharray:none;stroke-opacity:1" /><title
           id="title2-8">b'Engraving Panel-MasterArm-TopA'</title></g></g><g
       id="Cut007_cs"
       transform="matrix(1,0,0,-1,46.274314,115.37673)"
       inkscape:label="Panel TopB"
       style="display:inline"><title
         id="title3">b'Engraving Panel-MasterArm-TopB'</title></g><g
       id="Slice_child2_cs"
       transform="matrix(1,0,0,-1,86.49114,123.43675)"
       inkscape:label="TopB LaserCut"
       style="display:inline"><title
         id="title3-4">b'CrossSection-Panel-MasterArm-TopLower'</title></g></g><g
     inkscape:groupmode="layer"
     id="layer15"
     inkscape:label="Extra"><g
       inkscape:groupmode="layer"
       id="g35"
       inkscape:label="ZigZag copy"
       style="display:inline"><rect
         style="display:inline;fill:none;fill-opacity:1;stroke:#020202;stroke-width:0.0932033;stroke-linecap:round;stroke-dasharray:none;stroke-opacity:1"
         id="rect49"
         width="37.604839"
         height="96.463715"
         x="209.2382"
         y="89.29039" /><path
         id="path12"
         d="m 199.32874,81.355771 q -2.1349,24.051499 -1.99138,48.202259 l -1e-5,56.20291 h 49.51837 v -0.005 h -6.48155 l 6.48155,-6.48156 v -0.98995 l -7.4715,7.4715 h -7.07107 l 14.54257,-14.54257 v -0.98995 l -15.53252,15.53252 h -7.07107 l 22.60359,-22.60359 v -0.98995 l -23.59354,23.59354 h -7.07107 l 14.48378,-14.48377 a 7.5,7.5 0 0 0 5.38217,-5.38213 l 10.79866,-10.79871 v -0.98994 l -10.59053,10.59053 a 7.5,7.5 0 0 0 -1.65393,-5.41718 l 12.24446,-12.24442 v -0.98995 l -12.71214,12.71214 a 7.5,7.5 0 0 0 -4.84659,-2.22447 l 5.01962,-5.01962 h 4.16761 v -4.16761 l 1.64957,-1.64958 h 4.15113 v -4.15112 l 2.5708,-2.57081 v -0.98995 l -2.5708,2.57081 v -2.07381 h -4.99727 l 5.95852,-5.95852 h 1.60955 v -3.51678 h -6.15378 l 6.15378,-6.15378 v -0.98995 l -7.14373,7.14373 h -7.07107 l 14.2148,-14.2148 v -0.98995 l -15.20475,15.20475 h -7.07106 l 7.67756,-7.67757 h 4.4945 a 2,2 0 0 0 1.99999,-2.00004 l 1e-5,-4.49446 8.10375,-8.10375 v -0.98995 l -8.10375,8.10375 v -7.07107 l 8.10375,-8.103746 v -0.98995 l -8.10375,8.103746 v -1.88604 a 2,2 0 0 0 -2.00001,-2 l -1.18501,0 1.04405,-1.04405 h 6.11301 v -6.113004 l 4.13171,-4.131719 v -0.98995 l -4.23271,4.232711 h -7.07106 l 0.92243,-0.922437 a 4,4 0 0 0 5.97278,-3.564176 l 4.40856,-3e-6 v -8.003161 h -47.52698"
         stroke="#191919"
         stroke-width="0.7 px"
         style="display:inline;fill:none;fill-opacity:1;fill-rule:evenodd;stroke-width:0.1;stroke-linecap:square;stroke-miterlimit:4;stroke-dasharray:none" /><path
         id="path13"
         d="m 210.22563,174.60903 a 4,4 0 0 1 -0.94957,-0.9109 v 1.86048 l 0.94957,-0.94958"
         stroke="#191919"
         stroke-width="0.7 px"
         style="display:inline;fill:none;fill-opacity:1;fill-rule:evenodd;stroke-width:0.1;stroke-linecap:square;stroke-miterlimit:4;stroke-dasharray:none" /><path
         id="path14"
         d="m 209.27606,183.61963 14.26129,-14.2613 a 7.5,7.5 0 0 1 -2.22446,-4.8466 l -5.17377,5.17377 a 4,4 0 0 1 -5.27776,5.27773 l -1.5853,1.58533 v 7.07107"
         stroke="#191919"
         stroke-width="0.7 px"
         style="display:inline;fill:none;fill-opacity:1;fill-rule:evenodd;stroke-width:0.1;stroke-linecap:square;stroke-miterlimit:4;stroke-dasharray:none" /><path
         id="path15"
         d="m 224.05964,169.826 -14.78358,14.78358 v 1.14595 h 5.92511 l 14.27559,-14.27559 a 7.5,7.5 0 0 1 -5.41713,-1.65391"
         stroke="#191919"
         stroke-width="0.7 px"
         style="display:inline;fill:none;fill-opacity:1;fill-rule:evenodd;stroke-width:0.1;stroke-linecap:square;stroke-miterlimit:4;stroke-dasharray:none" /><path
         id="path16"
         d="m 228.30787,156.5268 5.01879,-5.01879 h -7.07107 l -16.97953,16.97953 v 0.42705 a 4,4 0 0 1 6.50886,0.13514 l 5.52713,-5.52711 a 7.5,7.5 0 0 1 6.99582,-6.99579"
         stroke="#191919"
         stroke-width="0.7 px"
         style="display:inline;fill:none;fill-opacity:1;fill-rule:evenodd;stroke-width:0.1;stroke-linecap:square;stroke-miterlimit:4;stroke-dasharray:none" /><path
         id="path17"
         d="m 225.11496,151.50801 v -5.81719 h -1.1032 l -14.7357,14.7357 v 7.07107 l 15.98958,-15.98958 h -0.15068"
         stroke="#191919"
         stroke-width="0.7 px"
         style="display:inline;fill:none;fill-opacity:1;fill-rule:evenodd;stroke-width:0.1;stroke-linecap:square;stroke-miterlimit:4;stroke-dasharray:none" /><path
         id="path18"
         d="m 218.67993,145.69082 v -2.72919 l -9.40387,9.40388 v 7.07106 l 13.74575,-13.74575 h -4.34188"
         stroke="#191919"
         stroke-width="0.7 px"
         style="display:inline;fill:none;fill-opacity:1;fill-rule:evenodd;stroke-width:0.1;stroke-linecap:square;stroke-miterlimit:4;stroke-dasharray:none" /><path
         id="path19"
         d="m 209.27606,132.51742 v 2.7361 l 2.7361,-2.7361 h -2.7361"
         stroke="#191919"
         stroke-width="0.7 px"
         style="display:inline;fill:none;fill-opacity:1;fill-rule:evenodd;stroke-width:0.1;stroke-linecap:square;stroke-miterlimit:4;stroke-dasharray:none" /><path
         id="path20"
         d="m 213.00211,132.51742 -3.72605,3.72605 v 7.07107 l 10.79711,-10.79712 h -7.07106"
         stroke="#191919"
         stroke-width="0.7 px"
         style="display:inline;fill:none;fill-opacity:1;fill-rule:evenodd;stroke-width:0.1;stroke-linecap:square;stroke-miterlimit:4;stroke-dasharray:none" /><path
         id="path21"
         d="m 218.67993,138.47594 h 3.49574 l 5.95852,-5.95852 h -7.07107 l -11.78706,11.78707 v 7.07107 l 9.40387,-9.40388 v -3.49574"
         stroke="#191919"
         stroke-width="0.7 px"
         style="display:inline;fill:none;fill-opacity:1;fill-rule:evenodd;stroke-width:0.1;stroke-linecap:square;stroke-miterlimit:4;stroke-dasharray:none" /><path
         id="path22"
         d="m 238.48422,145.69082 v 0.65963 l 0.65963,-0.65963 h -0.65963"
         stroke="#191919"
         stroke-width="0.7 px"
         style="display:inline;fill:none;fill-opacity:1;fill-rule:evenodd;stroke-width:0.1;stroke-linecap:square;stroke-miterlimit:4;stroke-dasharray:none" /><path
         id="path23"
         d="m 230.23669,138.47594 5.95852,-5.95852 h -7.07107 l -5.95852,5.95852 h 7.07107"
         stroke="#191919"
         stroke-width="0.7 px"
         style="display:inline;fill:none;fill-opacity:1;fill-rule:evenodd;stroke-width:0.1;stroke-linecap:square;stroke-miterlimit:4;stroke-dasharray:none" /><path
         id="path24"
         d="m 238.29771,138.47594 5.95852,-5.95852 h -7.07107 l -5.95852,5.95852 h 7.07107"
         stroke="#191919"
         stroke-width="0.7 px"
         style="display:inline;fill:none;fill-opacity:1;fill-rule:evenodd;stroke-width:0.1;stroke-linecap:square;stroke-miterlimit:4;stroke-dasharray:none" /><path
         id="path25"
         d="m 223.20651,121.32307 h -1.99562 a 2,2 0 0 1 -1.99999,-2.00004 l -1e-5,-1.07541 -9.93483,9.93484 v 0.81818 h 6.25288 l 7.67757,-7.67757"
         stroke="#191919"
         stroke-width="0.7 px"
         style="display:inline;fill:none;fill-opacity:1;fill-rule:evenodd;stroke-width:0.1;stroke-linecap:square;stroke-miterlimit:4;stroke-dasharray:none" /><path
         id="path26"
         d="m 219.21089,110.1866 -9.93483,9.93484 v 7.07107 l 9.93483,-9.93484 v -7.07107"
         stroke="#191919"
         stroke-width="0.7 px"
         style="display:inline;fill:none;fill-opacity:1;fill-rule:evenodd;stroke-width:0.1;stroke-linecap:square;stroke-miterlimit:4;stroke-dasharray:none" /><path
         id="path27"
         d="m 219.21089,103.89156 a 2,2 0 0 1 2.00001,-2 l 5.30508,0 1.04406,-1.04405 h -7.07107 l -11.21291,11.21291 v 7.07107 l 9.93483,-9.93484 v -5.30509"
         stroke="#191919"
         stroke-width="0.7 px"
         style="display:inline;fill:none;fill-opacity:1;fill-rule:evenodd;stroke-width:0.1;stroke-linecap:square;stroke-miterlimit:4;stroke-dasharray:none" /><path
         id="path28"
         d="m 212.70695,100.84751 v -0.279 l -3.43089,3.43089 v 7.07107 l 10.22296,-10.22296 h -6.79207"
         stroke="#191919"
         stroke-width="0.7 px"
         style="display:inline;fill:none;fill-opacity:1;fill-rule:evenodd;stroke-width:0.1;stroke-linecap:square;stroke-miterlimit:4;stroke-dasharray:none" /><path
         id="path29"
         d="m 212.70695,93.845548 h 5.73301 l 4.48662,-4.486616 h -7.07107 l -6.57945,6.579454 v 7.071064 l 3.43089,-3.430891 v -5.733011"
         stroke="#191919"
         stroke-width="0.7 px"
         style="display:inline;fill:none;fill-opacity:1;fill-rule:evenodd;stroke-width:0.1;stroke-linecap:square;stroke-miterlimit:4;stroke-dasharray:none" /><path
         id="path30"
         d="m 209.27606,89.358932 v 5.589505 l 5.5895,-5.589505 h -5.5895"
         stroke="#191919"
         stroke-width="0.7 px"
         style="display:inline;fill:none;fill-opacity:1;fill-rule:evenodd;stroke-width:0.1;stroke-linecap:square;stroke-miterlimit:4;stroke-dasharray:none" /><path
         id="path31"
         d="m 224.19646,121.32307 -7.67757,7.67757 h 7.07107 l 7.67756,-7.67757 h -7.07106"
         stroke="#191919"
         stroke-width="0.7 px"
         style="display:inline;fill:none;fill-opacity:1;fill-rule:evenodd;stroke-width:0.1;stroke-linecap:square;stroke-miterlimit:4;stroke-dasharray:none" /><path
         id="path32"
         d="m 236.89408,120.99195 a 1.5,1.5 0 0 0 1.49998,-1.50002 l 2e-5,-15.79998 a 1.5,1.5 0 0 0 -1.50002,-1.50001 l -15.79998,1e-5 a 1.5,1.5 0 0 0 -1.49999,1.49999 l -1e-5,15.80001 a 1.5,1.5 0 0 0 1.50001,1.49998 l 15.79999,2e-5"
         stroke="#191919"
         stroke-width="0.7 px"
         style="display:inline;fill:none;fill-opacity:1;fill-rule:evenodd;stroke-width:0.1;stroke-linecap:square;stroke-miterlimit:4;stroke-dasharray:none" /><path
         id="path33"
         d="m 228.54999,100.84751 -1.04406,1.04405 h 7.07107 l 1.04405,-1.04405 h -7.07106"
         stroke="#191919"
         stroke-width="0.7 px"
         style="display:inline;fill:none;fill-opacity:1;fill-rule:evenodd;stroke-width:0.1;stroke-linecap:square;stroke-miterlimit:4;stroke-dasharray:none" /><path
         id="path34"
         d="m 226.50098,93.845548 4.48662,-4.486616 h -7.07107 l -4.48662,4.486616 h 7.07107"
         stroke="#191919"
         stroke-width="0.7 px"
         style="display:inline;fill:none;fill-opacity:1;fill-rule:evenodd;stroke-width:0.1;stroke-linecap:square;stroke-miterlimit:4;stroke-dasharray:none" /><path
         id="path35"
         d="m 234.562,93.845548 1.32718,-1.327182 a 4,4 0 0 1 -1.44017,-3.159431 l -2.47147,-3e-6 -4.48661,4.486616 h 7.07107"
         stroke="#191919"
         stroke-width="0.7 px"
         style="display:inline;fill:none;fill-opacity:1;fill-rule:evenodd;stroke-width:0.1;stroke-linecap:square;stroke-miterlimit:4;stroke-dasharray:none" /><path
         style="fill:#ffb600;fill-opacity:1;stroke:#020202;stroke-width:0.0661895;stroke-linecap:round;stroke-dasharray:none;stroke-opacity:1"
         d="m 920.98965,690.08551 c 6.4047,-6.40525 11.66484,-11.6459 11.68919,-11.6459 0.0243,0 0.0443,5.24065 0.0443,11.6459 v 11.64591 h -11.68919 -11.68919 z"
         id="path49"
         transform="scale(0.26458333)" /><path
         style="fill:#ffb600;fill-opacity:1;stroke:#020202;stroke-width:0.0661895;stroke-linecap:round;stroke-dasharray:none;stroke-opacity:1"
         d="m 890.51779,659.61336 42.11776,-42.11805 0.0449,12.82682 0.0449,12.82682 -29.29084,29.29124 -29.29084,29.29123 h -12.87185 -12.87185 z"
         id="path50"
         transform="scale(0.26458333)" /><path
         style="fill:#ffb600;fill-opacity:1;stroke:#020202;stroke-width:0.0661895;stroke-linecap:round;stroke-dasharray:none;stroke-opacity:1"
         d="m 791.221,699.8486 v -1.88281 l 27.81761,-27.8172 27.81761,-27.8172 1.73496,1.17096 c 4.63828,3.13045 9.50687,4.71392 15.19227,4.94117 l 2.59947,0.10391 -26.59157,26.59199 -26.59156,26.592 H 802.21039 791.221 Z"
         id="path51"
         transform="scale(0.26458333)" /><path
         style="fill:#ffb600;fill-opacity:1;stroke:#020202;stroke-width:0.0661895;stroke-linecap:round;stroke-dasharray:none;stroke-opacity:1"
         d="m 893.2736,618.87231 c -0.0518,-1.47957 -0.22429,-3.35999 -0.38335,-4.17871 -0.81837,-4.21212 -2.61147,-8.41462 -4.93984,-11.57748 l -0.79679,-1.08237 22.78474,-22.78475 22.78475,-22.78475 v 12.872 12.87199 l -19.67768,19.6771 -19.67768,19.6771 z"
         id="path52"
         transform="scale(0.26458333)" /><path
         style="fill:#ffb600;fill-opacity:1;stroke:#020202;stroke-width:0.0661895;stroke-linecap:round;stroke-dasharray:none;stroke-opacity:1"
         d="m 815.38844,638.19131 c 0,-0.29758 -2.42045,-2.62335 -3.47647,-3.34047 -1.48954,-1.01153 -3.33348,-1.86249 -5.01716,-2.31537 -2.02166,-0.54379 -5.54383,-0.54252 -7.60184,0.003 -2.74029,0.72603 -4.79029,1.87139 -6.8881,3.84851 -0.65113,0.61366 -1.18387,1.00761 -1.18387,0.87545 0,-0.13217 14.44144,-14.68158 32.09209,-32.33203 l 32.09208,-32.09173 h 12.87099 12.87099 l -9.24263,9.24387 -9.24264,9.24388 -1.70214,0.20501 c -4.73537,0.57036 -9.59065,2.57577 -13.65993,5.64207 -1.9243,1.45 -4.81595,4.52086 -6.20833,6.59309 -2.55705,3.80556 -4.34789,8.61818 -4.78303,12.85367 l -0.11695,1.13833 -10.26963,10.28867 c -5.6483,5.65877 -10.32898,10.28868 -10.40153,10.28868 -0.0725,0 -0.1319,-0.065 -0.1319,-0.14436 z"
         id="path53"
         transform="scale(0.26458333)" /><path
         style="fill:#ffb600;fill-opacity:1;stroke:#020202;stroke-width:0.0661895;stroke-linecap:round;stroke-dasharray:none;stroke-opacity:1"
         d="m 791.221,660.03891 v -2.67193 l 1.26966,1.20121 c 0.69832,0.66067 1.33486,1.25498 1.41454,1.32068 0.18086,0.14915 -0.68859,1.15116 -1.82301,2.10094 l -0.86119,0.72104 z"
         id="path54"
         transform="scale(0.26458333)" /><path
         style="fill:#ffb600;fill-opacity:1;stroke:#020202;stroke-width:0.0661895;stroke-linecap:round;stroke-dasharray:none;stroke-opacity:1"
         d="m 923.61984,526.82394 -0.003,-3.72143 h -9.23739 -9.23739 l 10.94435,-10.9454 10.94435,-10.9454 h 2.84633 2.84632 v 10.0764 10.0764 l -4.54998,4.59043 -4.54999,4.59044 z"
         id="path55"
         transform="scale(0.26458333)" /><path
         style="fill:#ffb600;fill-opacity:1;stroke:#020202;stroke-width:0.0661895;stroke-linecap:round;stroke-dasharray:none;stroke-opacity:1"
         d="m 901.55062,551.64811 v -0.70051 h 0.73605 0.73604 l -0.68402,0.70051 c -0.37622,0.38527 -0.70744,0.7005 -0.73605,0.7005 -0.0286,0 -0.052,-0.31523 -0.052,-0.7005 z"
         id="path56"
         transform="scale(0.26458333)" /><path
         style="fill:#ffb600;fill-opacity:1;stroke:#020202;stroke-width:0.0661895;stroke-linecap:round;stroke-dasharray:none;stroke-opacity:1"
         d="m 855.22969,512.06954 11.03192,-11.03296 h 12.95935 12.95936 l -11.03193,11.03296 -11.03192,11.03297 h -12.95935 -12.95935 z"
         id="path57"
         transform="scale(0.26458333)" /><path
         style="fill:#ffb600;fill-opacity:1;stroke:#020202;stroke-width:0.0661895;stroke-linecap:round;stroke-dasharray:none;stroke-opacity:1"
         d="m 791.221,589.03704 v -12.95946 l 17.51264,-17.51198 17.51263,-17.51198 v 4.94522 4.94523 l 7.96853,0.0455 7.96853,0.0455 -25.48116,25.48067 -25.48117,25.48066 z"
         id="path58"
         transform="scale(0.26458333)" /><path
         style="fill:#ffb600;fill-opacity:1;stroke:#020202;stroke-width:0.0661895;stroke-linecap:round;stroke-dasharray:none;stroke-opacity:1"
         d="m 791.221,528.09251 v -12.95988 l 7.05078,-7.04916 7.05077,-7.04917 12.91394,0.0449 12.91394,0.0449 -19.96472,19.96412 -19.96471,19.96412 z"
         id="path59"
         transform="scale(0.26458333)" /><path
         style="fill:#ffb600;fill-opacity:1;stroke:#020202;stroke-width:0.0661895;stroke-linecap:round;stroke-dasharray:none;stroke-opacity:1"
         d="m 833.25133,473.10392 14.27199,-14.2728 h 12.95936 12.95935 l -14.272,14.2728 -14.27199,14.2728 h -12.95935 -12.95936 z"
         id="path60"
         transform="scale(0.26458333)" /><path
         style="fill:#ffb600;fill-opacity:1;stroke:#020202;stroke-width:0.0661895;stroke-linecap:round;stroke-dasharray:none;stroke-opacity:1"
         d="m 906.27925,461.01996 26.3563,-26.35676 0.0449,12.91425 0.0449,12.91425 -13.44166,13.44251 -13.44166,13.44251 h -12.95956 -12.95956 z"
         id="path61"
         transform="scale(0.26458333)" /><path
         style="fill:#ffb600;fill-opacity:1;stroke:#020202;stroke-width:0.0661895;stroke-linecap:round;stroke-dasharray:none;stroke-opacity:1"
         d="m 791.221,467.149 v -12.95935 l 18.47583,-18.47521 18.47583,-18.47521 v 12.95935 12.95935 l -18.47583,18.47521 -18.47583,18.47522 z"
         id="path62"
         transform="scale(0.26458333)" /><path
         style="fill:#ffb600;fill-opacity:1;stroke:#020202;stroke-width:0.0661895;stroke-linecap:round;stroke-dasharray:none;stroke-opacity:1"
         d="m 862.32231,383.08896 1.65678,-1.6637 h 12.95935 12.95936 l -1.65679,1.6637 -1.65678,1.6637 h -12.95935 -12.95935 z"
         id="path63"
         transform="scale(0.26458333)" /><path
         style="fill:#ffb600;fill-opacity:1;stroke:#020202;stroke-width:0.0661895;stroke-linecap:round;stroke-dasharray:none;stroke-opacity:1"
         d="m 892.38846,353.02547 1.43033,-1.43033 1.19524,0.5316 c 2.16225,0.96171 3.36614,1.1884 6.2739,1.18135 2.74282,-0.007 3.86482,-0.20059 5.77917,-0.99895 3.34404,-1.39459 6.31038,-4.16956 7.946,-7.43335 0.74229,-1.4812 1.39256,-3.81003 1.53254,-5.48851 l 0.1162,-1.39336 h 8.03064 c 7.53866,0 8.03063,0.0188 8.03063,0.30719 0,0.17159 -3.49852,3.80509 -7.92518,8.23094 l -7.92518,7.92375 h -12.95731 -12.95731 z"
         id="path64"
         transform="scale(0.26458333)" /><path
         style="fill:#ffb600;fill-opacity:1;stroke:#020202;stroke-width:0.0661895;stroke-linecap:round;stroke-dasharray:none;stroke-opacity:1"
         d="m 902.60138,416.71246 v -12.95935 l 15.06087,-15.0601 15.06086,-15.06011 v 12.95935 12.95936 l -15.06086,15.0601 -15.06087,15.06011 z"
         id="path65"
         transform="scale(0.26458333)" /><path
         style="fill:#ffb600;fill-opacity:1;stroke:#020202;stroke-width:0.0661895;stroke-linecap:round;stroke-dasharray:none;stroke-opacity:1"
         d="m 791.221,406.20441 v -12.95997 l 6.21698,-6.21513 c 3.63771,-3.63663 6.21699,-6.08885 6.21699,-5.91075 0,0.28588 0.7672,0.30713 12.60943,0.34933 l 12.60943,0.0449 -18.82642,18.82579 -18.82641,18.82578 z"
         id="path66"
         transform="scale(0.26458333)" /><path
         style="fill:#ffb600;fill-opacity:1;stroke:#020202;stroke-width:0.0661895;stroke-linecap:round;stroke-dasharray:none;stroke-opacity:1"
         d="m 838.24243,346.22486 8.22954,-8.23094 h 12.95936 12.95935 l -8.22954,8.23094 -8.22955,8.23094 h -12.95935 -12.95935 z"
         id="path67"
         transform="scale(0.26458333)" /><path
         style="fill:#ffb600;fill-opacity:1;stroke:#474747;stroke-width:0.0661895;stroke-linecap:round;stroke-dasharray:none;stroke-opacity:1"
         d="m 791.221,348.06369 v -10.06977 h 10.11297 10.11298 l -10.06862,10.06977 c -5.53775,5.53837 -10.08859,10.06976 -10.11298,10.06976 -0.0244,0 -0.0444,-4.53139 -0.0444,-10.06976 z"
         id="path68"
         transform="scale(0.26458333)" /></g></g></svg>
