<?xml version="1.0"?>
<!DOCTYPE svg PUBLIC "-//W3C//DTD SVG 1.1//EN" "http://www.w3.org/Graphics/SVG/1.1/DTD/svg11.dtd">
<svg width="51.57506799563553mm" height="21.655138715690647mm" viewBox="0 0 51.57506799563553 21.655138715690647" xmlns="http://www.w3.org/2000/svg" version="1.1">
<g id="Pocket005_cs001" transform="translate(25.787534,10.827569) scale(1,-1)">
<path id="Pocket005_cs001_w0000"  d="M -16.427594721438595 5.768115333519917 L -16.427594721438595 9.821931436319485 A 0.5 0.5 0 0 0 -15.9276 10.3219L 15.927594721438687 10.321931436319485 A 0.5 0.5 0 0 0 16.4276 9.82193L 16.427594721438687 5.768115333519918 A 5 5 0 0 1 21.4276 0.768115L 24.781896076291925 0.7681153335201021 A 0.5 0.5 0 0 0 25.2819 0.268115L 25.281896076291925 -9.821931436319485 A 0.5 0.5 0 0 0 24.7819 -10.3219L -24.781896076291925 -10.321931436319485 A 0.5 0.5 0 0 0 -25.2819 -9.82193L -25.281896076291925 0.26811533352001 A 0.5 0.5 0 0 0 -24.7819 0.768115L -21.427594721438503 0.7681153335200559 A 5 5 0 0 1 -16.4276 5.76812" stroke="#191919" stroke-width="0.7 px" style="stroke-width:0.7;stroke-miterlimit:4;stroke-dasharray:none;stroke-linecap:square;fill:none;fill-opacity:1;fill-rule: evenodd"/>
<path id="Pocket005_cs001_w0001"  d="M -7.960937400000001 -4.462890625 L -7.982421775000001 -4.453125 L -8.00390615 -4.4404947916666675 L -8.021484275 -4.427734375 L -8.224609275 -4.091796875 L -8.228515525 -4.0234375 L -8.154296775 -3.7734375 Q -8.01552247812145 -3.5510745961853916 -7.753906150000001 -3.546875 L -7.574218650000001 -3.5527343750000004 L -7.447265525000001 -3.57421875 L -7.358463441666666 -3.6065104166666666 L -7.275390525000001 -3.65234375 L -7.114322816666666 -3.8486979166666666 L -7.005859275000001 -4.080078125 L -6.820312400000001 -4.236328125 L -6.751953025000001 -4.244140625 L -6.597656150000001 -4.193359375 L -6.556640525000001 -4.158203125 L -6.507812400000001 -4.083984375 L -6.480468650000001 -3.974609375 L -6.488281150000001 -3.91015625 L -6.505859275000001 -3.859375 L -6.742187400000001 -3.423828125 L -7.119140525000001 -3.107421875 L -7.316406150000001 -3.0440104166666675 L -7.519531150000001 -3.0058593749999996 L -7.734374900000001 -3.0 Q -8.244415137990561 -3.0004197716784855 -8.55859365 -3.3984375 Q -8.777548450772457 -3.673492735885059 -8.779296775 -4.00390625 L -8.779296775 -4.009765625 L -8.740234275 -4.294921875 Q -8.623964349197994 -4.736038995920083 -8.189453025 -4.9609375 L -8.16015615 -4.9765625 L -7.255859275000001 -5.373046875 L -7.107421775000001 -5.46484375 L -6.937499900000001 -5.75390625 L -6.919921775000001 -5.892578125 L -6.957031150000001 -6.0859375 Q -7.099810110508225 -6.44385631659244 -7.482421775000001 -6.4453125 L -7.552734275000001 -6.4453125 L -8.1328124 -6.37109375 Q -8.381451324044473 -6.2655713792506305 -8.458984275 -5.865234375 L -8.46484365 -5.84765625 L -8.6796874 -5.65625 L -8.7343749 -5.65234375 L -8.92578115 -5.73828125 L -8.9999999 -5.923828125 L -8.994140525 -5.986328125 L -8.966796775 -6.123046875 L -8.931640525 -6.255859375 Q -8.771977620441284 -6.742871402861205 -8.3437499 -6.877994791666666 L -7.478515525000001 -6.994140625 L -6.957031150000001 -6.861328125 L -6.567447816666668 -6.512760416666666 L -6.380859275000001 -6.021484375 L -6.373046775000001 -5.890625 L -6.396484275000001 -5.66015625 Q -6.489290892207161 -5.210516749979748 -6.874999900000001 -4.95703125 L -6.907291566666666 -4.938541666666666 L -6.937499900000001 -4.919921875 L -6.968749900000001 -4.90234375 L -7.003906150000001 -4.884765625 L -7.035156150000001 -4.87109375 L -7.937499900000001 -4.47265625 L -7.960937400000001 -4.462890625 " stroke="#191919" stroke-width="0.7 px" style="stroke-width:0.7;stroke-miterlimit:4;stroke-dasharray:none;stroke-linecap:square;fill:none;fill-opacity:1;fill-rule: evenodd"/>
<path id="Pocket005_cs001_w0002"  d="M -7.281249900000001 -0.328125 Q -6.820628596594502 -0.23908377814814608 -6.546874900000001 0.15625 Q -6.335856510756019 0.45771643775973464 -6.333984275000001 0.8027343749999997 L -6.333984275000001 0.80859375 L -6.353515525000001 1.015625 Q -6.4310043890715525 1.4415655876988849 -6.753906150000001 1.7216145833333334 Q -7.078574083301457 2.0004682748004856 -7.513671775000001 2.0 L -8.7265624 2.0 L -8.920963441666668 1.9199218749999996 L -8.999999900000002 1.7265624999999996 L -8.9999999 -1.724609375 L -8.892578025 -1.94140625 L -8.73046865 -2.001953125 L -8.603515525 -1.96875 L -8.44921865 -1.724609375 L -8.44921865 -0.3496093750000002 L -7.960937400000001 -0.3496093750000002 L -6.998046775000001 -1.87109375 L -6.820312400000001 -1.9921875 L -6.761718650000001 -1.998046875 L -6.603515525000001 -1.947265625 L -6.484374900000001 -1.73828125 L -6.533203025000001 -1.576171875 L -7.318359275000001 -0.333984375 L -7.281249900000001 -0.328125 " stroke="#191919" stroke-width="0.7 px" style="stroke-width:0.7;stroke-miterlimit:4;stroke-dasharray:none;stroke-linecap:square;fill:none;fill-opacity:1;fill-rule: evenodd"/>
<path id="Pocket005_cs001_w0003"  d="M -11.449309593023257 1.7354651162790697 L -10.361918604651162 1.7354651162790697 L -10.361918604651162 2.197674418604651 L -11.449309593023257 2.197674418604651 L -11.449309593023257 3.27906976744186 L -11.912609011627907 3.27906976744186 L -11.912609011627907 2.197674418604651 L -13.0 2.197674418604651 L -13.0 1.7354651162790697 L -11.912609011627907 1.7354651162790697 L -11.912609011627907 0.6395348837209303 L -11.449309593023257 0.6395348837209303 L -11.449309593023257 1.7354651162790697 " stroke="#191919" stroke-width="0.7 px" style="stroke-width:0.7;stroke-miterlimit:4;stroke-dasharray:none;stroke-linecap:square;fill:none;fill-opacity:1;fill-rule: evenodd"/>
<path id="Pocket005_cs001_w0004"  d="M -7.664062400000001 3.5546875 Q -8.039228428525718 3.687360138546512 -8.255859275 4.11328125 Q -8.456575318872098 4.495116873994631 -8.455078025 4.9453125 L -8.455078025 5.02734375 L -8.432682191666668 5.291015625 L -8.283203025000002 5.77734375 L -7.964843650000001 6.2578125 L -7.531249900000001 6.45703125 L -7.513671775000001 6.45703125 Q -7.262318047803396 6.44635700336965 -7.027343650000001 6.1640625 L -6.818359275000001 6.064453125 L -6.749999900000001 6.07421875 L -6.556640525000001 6.25 L -6.537109275000001 6.366145833333334 L -6.593749900000001 6.505859375 L -6.603515525000001 6.51953125 L -7.142578025000001 6.91015625 L -7.566406150000001 7.001953125 L -7.792968650000001 6.974609375 Q -8.367434912673748 6.835262229660579 -8.6640624 6.3125 Q -9.003049232368713 5.709197260667446 -8.9999999 5.001953125 Q -8.99780611234236 4.454304980052726 -8.7968749 3.943359375 Q -8.581092525697375 3.3775319896980553 -8.0781249 3.115234375 L -7.621093650000001 2.994140625 L -7.222656150000001 3.05859375 Q -6.7905123903408855 3.2101902350164284 -6.519531150000001 3.57421875 L -6.501953025000001 3.599609375 L -6.421874900000001 3.8046875 L -6.527343650000001 3.9765625 L -6.724609275000001 4.056640625 L -6.931640525000001 3.947265625 Q -7.187141369393632 3.555126673219319 -7.523437400000001 3.533203125 L -7.664062400000001 3.5546875 " stroke="#191919" stroke-width="0.7 px" style="stroke-width:0.7;stroke-miterlimit:4;stroke-dasharray:none;stroke-linecap:square;fill:none;fill-opacity:1;fill-rule: evenodd"/>
<circle cx="4.088705" cy="0.0" r="8.589746941778332" stroke="#191919" stroke-width="0.7 px" style="stroke-width:0.7;stroke-miterlimit:4;stroke-dasharray:none;stroke-linecap:square;fill:none"/>
<circle cx="4.088705" cy="0.0" r="7.589746941778332" stroke="#191919" stroke-width="0.7 px" style="stroke-width:0.7;stroke-miterlimit:4;stroke-dasharray:none;stroke-linecap:square;fill:none"/>
<circle cx="4.063005" cy="0.0" r="6.5" stroke="#191919" stroke-width="0.7 px" style="stroke-width:0.7;stroke-miterlimit:4;stroke-dasharray:none;stroke-linecap:square;fill:none"/>
<path id="Pocket005_cs001_w0008"  d="M -8.44921865 0.19921875 L -8.44921865 1.44921875 L -7.486328025000001 1.44921875 Q -7.179051696556324 1.4222774606961253 -7.001953025000001 1.1796874999999996 L -6.886718650000001 0.8359375 L -6.917968650000001 0.63671875 L -7.145572816666666 0.3203125 L -7.513671775000001 0.19921875 L -8.44921865 0.19921875 " stroke="#191919" stroke-width="0.7 px" style="stroke-width:0.7;stroke-miterlimit:4;stroke-dasharray:none;stroke-linecap:square;fill:none;fill-opacity:1;fill-rule: evenodd"/>
<title>b'Panel CS Top Engrave'</title>
</g>
</svg>