<?xml version="1.0"?>
<!DOCTYPE svg PUBLIC "-//W3C//DTD SVG 1.1//EN" "http://www.w3.org/Graphics/SVG/1.1/DTD/svg11.dtd">
<svg width="161.08033799999998mm" height="42.15721562138998mm" viewBox="0 0 161.08033799999998 42.15721562138998" xmlns="http://www.w3.org/2000/svg" version="1.1">
<g id="Body222062_cs" transform="translate(80.540169,20.677997) scale(1,-1)">
<path id="Body222062_cs_w0000"  d="M -69.95011460153519 -18.9 L -69.95011460153519 -15.641662554724698 A 5 5 0 0 1 -74.9501 -10.6417L -77.96095 -10.641662554724698 A 1 1 0 0 0 -78.9609 -9.64166L -78.96095 8.841662554724698 A 1 1 0 0 0 -77.9609 9.84166L -74.95011460153519 9.841662554724698 A 5 5 0 0 1 -69.9501 14.8417L -69.95011460153519 18.097140473658605 A 1 1 0 0 0 -68.9473 19.0971L -31.810324263435405 18.991093752703616 A 1 1 0 0 0 -30.8132 17.9911L -30.81317970134802 14.488246456708879 A 5 5 0 0 1 -20.8132 14.4882L -20.81317970134802 17.98946659946844 A 1 1 0 0 0 -19.8144 18.9895L 69.7202359288389 19.09877762138998 A 1 1 0 0 0 70.7215 18.0988L 70.72145681597252 14.841662554724698 A 5 5 0 0 1 74.9501 9.84166L 77.96095 9.841662554724698 A 1 1 0 0 0 78.9609 8.84166L 78.96095 -9.641662554724698 A 1 1 0 0 0 77.9609 -10.6417L 74.95011460153519 -10.641662554724698 A 5 5 0 0 1 70.7215 -15.6417L 70.72145681597252 -18.9 A 1 1 0 0 0 69.7215 -19.9L 9.257001000351037 -19.9 A 1 1 0 0 0 8.257 -18.9L 8.257001000351035 -15.400000000035723 A 5 5 0 1 1 -1.743 -15.4L -1.742998999648965 -18.9 A 1 1 0 0 0 -2.743 -19.9L -68.95011460153519 -19.9 A 1 1 0 0 0 -69.9501 -18.9" stroke="#191919" stroke-width="0.7 px" style="stroke-width:0.7;stroke-miterlimit:4;stroke-dasharray:none;stroke-linecap:square;fill:none;fill-opacity:1;fill-rule: evenodd"/>
<circle cx="-60.977612" cy="-15.177132999999998" r="1.5" stroke="#191919" stroke-width="0.7 px" style="stroke-width:0.7;stroke-miterlimit:4;stroke-dasharray:none;stroke-linecap:square;fill:none"/>
<circle cx="-24.684004" cy="-14.446008999999998" r="1.5" stroke="#191919" stroke-width="0.7 px" style="stroke-width:0.7;stroke-miterlimit:4;stroke-dasharray:none;stroke-linecap:square;fill:none"/>
<circle cx="-36.4977" cy="-10.236909999999998" r="1.5" stroke="#191919" stroke-width="0.7 px" style="stroke-width:0.7;stroke-miterlimit:4;stroke-dasharray:none;stroke-linecap:square;fill:none"/>
<circle cx="-66.655174" cy="-10.089440999999999" r="1.5" stroke="#191919" stroke-width="0.7 px" style="stroke-width:0.7;stroke-miterlimit:4;stroke-dasharray:none;stroke-linecap:square;fill:none"/>
<circle cx="-10.372936" cy="-9.941256999999998" r="1.5" stroke="#191919" stroke-width="0.7 px" style="stroke-width:0.7;stroke-miterlimit:4;stroke-dasharray:none;stroke-linecap:square;fill:none"/>
<circle cx="31.907309" cy="-14.146685999999999" r="1.5" stroke="#191919" stroke-width="0.7 px" style="stroke-width:0.7;stroke-miterlimit:4;stroke-dasharray:none;stroke-linecap:square;fill:none"/>
<circle cx="50.119766" cy="-14.294153999999999" r="1.5" stroke="#191919" stroke-width="0.7 px" style="stroke-width:0.7;stroke-miterlimit:4;stroke-dasharray:none;stroke-linecap:square;fill:none"/>
<circle cx="13.449561" cy="-9.132829999999998" r="1.5" stroke="#191919" stroke-width="0.7 px" style="stroke-width:0.7;stroke-miterlimit:4;stroke-dasharray:none;stroke-linecap:square;fill:none"/>
<circle cx="2.470151" cy="-4.560257999999999" r="1.5" stroke="#191919" stroke-width="0.7 px" style="stroke-width:0.7;stroke-miterlimit:4;stroke-dasharray:none;stroke-linecap:square;fill:none"/>
<circle cx="39.649445" cy="-9.648869999999999" r="1.5" stroke="#191919" stroke-width="0.7 px" style="stroke-width:0.7;stroke-miterlimit:4;stroke-dasharray:none;stroke-linecap:square;fill:none"/>
<circle cx="61.622375" cy="-9.353930999999998" r="1.5" stroke="#191919" stroke-width="0.7 px" style="stroke-width:0.7;stroke-miterlimit:4;stroke-dasharray:none;stroke-linecap:square;fill:none"/>
<circle cx="50.046032" cy="-3.7500969999999985" r="1.5" stroke="#191919" stroke-width="0.7 px" style="stroke-width:0.7;stroke-miterlimit:4;stroke-dasharray:none;stroke-linecap:square;fill:none"/>
<circle cx="-62.48916077420575" cy="1.289313000000001" r="8.5" stroke="#191919" stroke-width="0.7 px" style="stroke-width:0.7;stroke-miterlimit:4;stroke-dasharray:none;stroke-linecap:square;fill:none"/>
<circle cx="-49.54874" cy="2.2979840000000014" r="1.5" stroke="#191919" stroke-width="0.7 px" style="stroke-width:0.7;stroke-miterlimit:4;stroke-dasharray:none;stroke-linecap:square;fill:none"/>
<circle cx="-73.291298" cy="4.657494000000001" r="1.5" stroke="#191919" stroke-width="0.7 px" style="stroke-width:0.7;stroke-miterlimit:4;stroke-dasharray:none;stroke-linecap:square;fill:none"/>
<circle cx="-36.48916077420575" cy="1.289313000000001" r="8.5" stroke="#191919" stroke-width="0.7 px" style="stroke-width:0.7;stroke-miterlimit:4;stroke-dasharray:none;stroke-linecap:square;fill:none"/>
<circle cx="-23.350237" cy="2.4461660000000007" r="1.5" stroke="#191919" stroke-width="0.7 px" style="stroke-width:0.7;stroke-miterlimit:4;stroke-dasharray:none;stroke-linecap:square;fill:none"/>
<circle cx="-10.48916077420575" cy="1.289313000000001" r="8.5" stroke="#191919" stroke-width="0.7 px" style="stroke-width:0.7;stroke-miterlimit:4;stroke-dasharray:none;stroke-linecap:square;fill:none"/>
<circle cx="-63.040726" cy="14.907324000000001" r="1.5" stroke="#191919" stroke-width="0.7 px" style="stroke-width:0.7;stroke-miterlimit:4;stroke-dasharray:none;stroke-linecap:square;fill:none"/>
<circle cx="-37.603722" cy="12.768305000000002" r="1.5" stroke="#191919" stroke-width="0.7 px" style="stroke-width:0.7;stroke-miterlimit:4;stroke-dasharray:none;stroke-linecap:square;fill:none"/>
<circle cx="-10.004264" cy="12.769021000000002" r="1.5" stroke="#191919" stroke-width="0.7 px" style="stroke-width:0.7;stroke-miterlimit:4;stroke-dasharray:none;stroke-linecap:square;fill:none"/>
<circle cx="12.751218178661182" cy="1.289313000000001" r="8.5" stroke="#191919" stroke-width="0.7 px" style="stroke-width:0.7;stroke-miterlimit:4;stroke-dasharray:none;stroke-linecap:square;fill:none"/>
<circle cx="23.779469" cy="1.633454000000001" r="1.5" stroke="#191919" stroke-width="0.7 px" style="stroke-width:0.7;stroke-miterlimit:4;stroke-dasharray:none;stroke-linecap:square;fill:none"/>
<circle cx="38.75121817866118" cy="1.289313000000001" r="8.5" stroke="#191919" stroke-width="0.7 px" style="stroke-width:0.7;stroke-miterlimit:4;stroke-dasharray:none;stroke-linecap:square;fill:none"/>
<circle cx="60.75121817866118" cy="1.289313000000001" r="8.5" stroke="#191919" stroke-width="0.7 px" style="stroke-width:0.7;stroke-miterlimit:4;stroke-dasharray:none;stroke-linecap:square;fill:none"/>
<circle cx="72.092705" cy="1.1102230246251565e-15" r="1.5" stroke="#191919" stroke-width="0.7 px" style="stroke-width:0.7;stroke-miterlimit:4;stroke-dasharray:none;stroke-linecap:square;fill:none"/>
<circle cx="4.232728" cy="11.070468000000002" r="1.5" stroke="#191919" stroke-width="0.7 px" style="stroke-width:0.7;stroke-miterlimit:4;stroke-dasharray:none;stroke-linecap:square;fill:none"/>
<circle cx="30.496447" cy="9.523573000000003" r="1.5" stroke="#191919" stroke-width="0.7 px" style="stroke-width:0.7;stroke-miterlimit:4;stroke-dasharray:none;stroke-linecap:square;fill:none"/>
<circle cx="15.514131" cy="14.388529000000002" r="1.5" stroke="#191919" stroke-width="0.7 px" style="stroke-width:0.7;stroke-miterlimit:4;stroke-dasharray:none;stroke-linecap:square;fill:none"/>
<circle cx="53.659035" cy="11.807918000000003" r="1.5" stroke="#191919" stroke-width="0.7 px" style="stroke-width:0.7;stroke-miterlimit:4;stroke-dasharray:none;stroke-linecap:square;fill:none"/>
<circle cx="65.014175" cy="12.324061000000002" r="1.5" stroke="#191919" stroke-width="0.7 px" style="stroke-width:0.7;stroke-miterlimit:4;stroke-dasharray:none;stroke-linecap:square;fill:none"/>
<circle cx="42.082691" cy="15.347183000000001" r="1.5" stroke="#191919" stroke-width="0.7 px" style="stroke-width:0.7;stroke-miterlimit:4;stroke-dasharray:none;stroke-linecap:square;fill:none"/>
<title>b'Slice_hudcp_middle'</title>
</g>
</svg>