<?xml version="1.0"?>
<!DOCTYPE svg PUBLIC "-//W3C//DTD SVG 1.1//EN" "http://www.w3.org/Graphics/SVG/1.1/DTD/svg11.dtd">
<svg width="161.08033799999998mm" height="42.15721562138998mm" viewBox="0 0 161.08033799999998 42.15721562138998" xmlns="http://www.w3.org/2000/svg" version="1.1">
<g id="Slice_child1_cs" transform="translate(80.540169,20.677997) scale(1,-1)">
<path id="Slice_child1_cs_w0000"  d="M -69.95011460153519 -18.9 L -69.95011460153519 -15.641662554724698 A 5 5 0 0 1 -74.9501 -10.6417L -77.96095 -10.641662554724698 A 1 1 0 0 0 -78.9609 -9.64166L -78.96095 8.841662554724698 A 1 1 0 0 0 -77.9609 9.84166L -74.95011460153519 9.841662554724698 A 5 5 0 0 1 -69.9501 14.8417L -69.95011460153519 18.097140473658605 A 1 1 0 0 0 -68.9473 19.0971L -31.810324263435405 18.991093752703616 A 1 1 0 0 0 -30.8132 17.9911L -30.81317970134802 14.488246456708879 A 5 5 0 0 1 -20.8132 14.4882L -20.81317970134802 17.98946659946844 A 1 1 0 0 0 -19.8144 18.9895L 69.7202359288389 19.09877762138998 A 1 1 0 0 0 70.7215 18.0988L 70.72145681597252 14.841662554724698 A 5 5 0 0 1 74.9501 9.84166L 77.96095 9.841662554724698 A 1 1 0 0 0 78.9609 8.84166L 78.96095 -9.641662554724698 A 1 1 0 0 0 77.9609 -10.6417L 74.95011460153519 -10.641662554724698 A 5 5 0 0 1 70.7215 -15.6417L 70.72145681597252 -18.9 A 1 1 0 0 0 69.7215 -19.9L 9.257001000351037 -19.9 A 1 1 0 0 0 8.257 -18.9L 8.257001000351035 -15.400000000035723 A 5 5 0 1 1 -1.743 -15.4L -1.742998999648965 -18.9 A 1 1 0 0 0 -2.743 -19.9L -68.95011460153519 -19.9 A 1 1 0 0 0 -69.9501 -18.9" stroke="#191919" stroke-width="0.7 px" style="stroke-width:0.7;stroke-miterlimit:4;stroke-dasharray:none;stroke-linecap:square;fill:none;fill-opacity:1;fill-rule: evenodd"/>
<circle cx="-62.48916077420575" cy="1.289313" r="4.0" stroke="#191919" stroke-width="0.7 px" style="stroke-width:0.7;stroke-miterlimit:4;stroke-dasharray:none;stroke-linecap:square;fill:none"/>
<circle cx="-36.48916077420575" cy="1.289313" r="4.051754" stroke="#191919" stroke-width="0.7 px" style="stroke-width:0.7;stroke-miterlimit:4;stroke-dasharray:none;stroke-linecap:square;fill:none"/>
<circle cx="-10.48916077420575" cy="1.289313" r="4.0" stroke="#191919" stroke-width="0.7 px" style="stroke-width:0.7;stroke-miterlimit:4;stroke-dasharray:none;stroke-linecap:square;fill:none"/>
<circle cx="12.751218178661182" cy="1.289313" r="4.0" stroke="#191919" stroke-width="0.7 px" style="stroke-width:0.7;stroke-miterlimit:4;stroke-dasharray:none;stroke-linecap:square;fill:none"/>
<circle cx="38.75121817866118" cy="1.289313" r="4.0" stroke="#191919" stroke-width="0.7 px" style="stroke-width:0.7;stroke-miterlimit:4;stroke-dasharray:none;stroke-linecap:square;fill:none"/>
<circle cx="60.75121817866118" cy="1.289313" r="4.0" stroke="#191919" stroke-width="0.7 px" style="stroke-width:0.7;stroke-miterlimit:4;stroke-dasharray:none;stroke-linecap:square;fill:none"/>
<title>b'Slice_hudcp_top'</title>
</g>
</svg>