<?xml version="1.0"?>
<!DOCTYPE svg PUBLIC "-//W3C//DTD SVG 1.1//EN" "http://www.w3.org/Graphics/SVG/1.1/DTD/svg11.dtd">
<svg width="79.31395662mm" height="161.95573662000015mm" viewBox="0 0 79.31395662 161.95573662000015" xmlns="http://www.w3.org/2000/svg" version="1.1">
<g id="Slice_child0_cs" transform="translate(78.536369,75.453152) scale(1,-1)">
<path id="Slice_child0_cs_w0000"  d="M -66.0575267108295 -84.724997 L -66.0575267108295 -80.97004475577792 A 5 5 0 0 1 -71.0495 -75.6863L -76.758781 -75.68630090945315 A 1 1 0 0 0 -77.7588 -74.6863L -77.758781 -32.96529744741582 A 1 1 0 0 0 -76.7588 -31.9653L -71.47100630870311 -31.965297447415818 A 5 5 0 0 1 -71.471 -21.9653L -76.758781 -21.965297447415818 A 1 1 0 0 0 -77.7588 -20.9653L -77.758781 63.64308497510868 A 1 1 0 0 0 -76.7588 64.6431L -70.91095645109257 64.64308497510868 A 5 5 0 0 1 -65.911 69.6431L -65.91095645109257 73.67556400000016 A 1 1 0 0 0 -64.911 74.6756L 0.0 74.67556400000016 L 0.0 -53.974999999999994 L -43.058926 -53.975 L -43.058926 -84.724997 A 1 1 0 0 0 -44.0589 -85.725L -65.0575267108295 -85.724997 A 1 1 0 0 0 -66.0575 -84.725" stroke="#191919" stroke-width="0.7 px" style="stroke-width:0.7;stroke-miterlimit:4;stroke-dasharray:none;stroke-linecap:square;fill:none;fill-opacity:1;fill-rule: evenodd"/>
<circle cx="-67.0597" cy="-72.875732" r="1.5" stroke="#191919" stroke-width="0.7 px" style="stroke-width:0.7;stroke-miterlimit:4;stroke-dasharray:none;stroke-linecap:square;fill:none"/>
<circle cx="-58.438595" cy="-74.588409" r="1.5" stroke="#191919" stroke-width="0.7 px" style="stroke-width:0.7;stroke-miterlimit:4;stroke-dasharray:none;stroke-linecap:square;fill:none"/>
<circle cx="-68.321945" cy="-65.028656" r="1.5" stroke="#191919" stroke-width="0.7 px" style="stroke-width:0.7;stroke-miterlimit:4;stroke-dasharray:none;stroke-linecap:square;fill:none"/>
<circle cx="-67.875366" cy="-57.366318" r="1.5" stroke="#191919" stroke-width="0.7 px" style="stroke-width:0.7;stroke-miterlimit:4;stroke-dasharray:none;stroke-linecap:square;fill:none"/>
<circle cx="-54.87952" cy="-79.375" r="2.0" stroke="#191919" stroke-width="0.7 px" style="stroke-width:0.7;stroke-miterlimit:4;stroke-dasharray:none;stroke-linecap:square;fill:none"/>
<circle cx="-57.894997" cy="-64.006909" r="8.0" stroke="#191919" stroke-width="0.7 px" style="stroke-width:0.7;stroke-miterlimit:4;stroke-dasharray:none;stroke-linecap:square;fill:none"/>
<circle cx="-57.180996" cy="-53.723179" r="1.5" stroke="#191919" stroke-width="0.7 px" style="stroke-width:0.7;stroke-miterlimit:4;stroke-dasharray:none;stroke-linecap:square;fill:none"/>
<circle cx="-47.403282" cy="-64.323532" r="1.5" stroke="#191919" stroke-width="0.7 px" style="stroke-width:0.7;stroke-miterlimit:4;stroke-dasharray:none;stroke-linecap:square;fill:none"/>
<circle cx="-68.85141" cy="-41.436401" r="1.5" stroke="#191919" stroke-width="0.7 px" style="stroke-width:0.7;stroke-miterlimit:4;stroke-dasharray:none;stroke-linecap:square;fill:none"/>
<circle cx="-66.300888" cy="-21.53264" r="1.5" stroke="#191919" stroke-width="0.7 px" style="stroke-width:0.7;stroke-miterlimit:4;stroke-dasharray:none;stroke-linecap:square;fill:none"/>
<circle cx="-67.540833" cy="-15.959362" r="1.5" stroke="#191919" stroke-width="0.7 px" style="stroke-width:0.7;stroke-miterlimit:4;stroke-dasharray:none;stroke-linecap:square;fill:none"/>
<circle cx="-55.093403" cy="-41.239399" r="7.1" stroke="#191919" stroke-width="0.7 px" style="stroke-width:0.7;stroke-miterlimit:4;stroke-dasharray:none;stroke-linecap:square;fill:none"/>
<circle cx="-56.823608" cy="-28.626461" r="1.5" stroke="#191919" stroke-width="0.7 px" style="stroke-width:0.7;stroke-miterlimit:4;stroke-dasharray:none;stroke-linecap:square;fill:none"/>
<circle cx="-57.446136" cy="-15.839219" r="8.0" stroke="#191919" stroke-width="0.7 px" style="stroke-width:0.7;stroke-miterlimit:4;stroke-dasharray:none;stroke-linecap:square;fill:none"/>
<circle cx="-49.650272" cy="-22.566126" r="1.5" stroke="#191919" stroke-width="0.7 px" style="stroke-width:0.7;stroke-miterlimit:4;stroke-dasharray:none;stroke-linecap:square;fill:none"/>
<circle cx="-47.697334" cy="-16.410351" r="1.5" stroke="#191919" stroke-width="0.7 px" style="stroke-width:0.7;stroke-miterlimit:4;stroke-dasharray:none;stroke-linecap:square;fill:none"/>
<path id="Slice_child0_cs_w0017"  d="M -26.5 -47.43856570838219 L -39.5 -47.43856570838219 L -39.5 -34.43856570838219 L -26.5 -34.43856570838219 L -26.5 -47.43856570838219 " stroke="#191919" stroke-width="0.7 px" style="stroke-width:0.7;stroke-miterlimit:4;stroke-dasharray:none;stroke-linecap:square;fill:none;fill-opacity:1;fill-rule: evenodd"/>
<path id="Slice_child0_cs_w0018"  d="M -26.5 -26.438565708382193 L -39.5 -26.438565708382193 L -39.5 -13.438565708382193 L -26.5 -13.438565708382193 L -26.5 -26.438565708382193 " stroke="#191919" stroke-width="0.7 px" style="stroke-width:0.7;stroke-miterlimit:4;stroke-dasharray:none;stroke-linecap:square;fill:none;fill-opacity:1;fill-rule: evenodd"/>
<path id="Slice_child0_cs_w0019"  d="M -4.5 -47.43856570838219 L -17.5 -47.43856570838219 L -17.5 -34.43856570838219 L -4.5 -34.43856570838219 L -4.5 -47.43856570838219 " stroke="#191919" stroke-width="0.7 px" style="stroke-width:0.7;stroke-miterlimit:4;stroke-dasharray:none;stroke-linecap:square;fill:none;fill-opacity:1;fill-rule: evenodd"/>
<path id="Slice_child0_cs_w0020"  d="M -4.5 -26.438565708382193 L -17.5 -26.438565708382193 L -17.5 -13.438565708382193 L -4.5 -13.438565708382193 L -4.5 -26.438565708382193 " stroke="#191919" stroke-width="0.7 px" style="stroke-width:0.7;stroke-miterlimit:4;stroke-dasharray:none;stroke-linecap:square;fill:none;fill-opacity:1;fill-rule: evenodd"/>
<circle cx="-58.408588" cy="26.195181" r="1.5" stroke="#191919" stroke-width="0.7 px" style="stroke-width:0.7;stroke-miterlimit:4;stroke-dasharray:none;stroke-linecap:square;fill:none"/>
<path id="Slice_child0_cs_w0022"  d="M -43.901951 -6.586003844343939 L -72.6258491844575 -6.586003844343939 L -72.6258491844575 22.151832 L -43.901951 22.151832 L -43.901951 -6.586003844343939 " stroke="#191919" stroke-width="0.7 px" style="stroke-width:0.7;stroke-miterlimit:4;stroke-dasharray:none;stroke-linecap:square;fill:none;fill-opacity:1;fill-rule: evenodd"/>
<circle cx="-68.809143" cy="38.317501" r="1.5" stroke="#191919" stroke-width="0.7 px" style="stroke-width:0.7;stroke-miterlimit:4;stroke-dasharray:none;stroke-linecap:square;fill:none"/>
<circle cx="-57.685364" cy="38.32668" r="8.0" stroke="#191919" stroke-width="0.7 px" style="stroke-width:0.7;stroke-miterlimit:4;stroke-dasharray:none;stroke-linecap:square;fill:none"/>
<circle cx="-57.690281" cy="49.393906" r="1.5" stroke="#191919" stroke-width="0.7 px" style="stroke-width:0.7;stroke-miterlimit:4;stroke-dasharray:none;stroke-linecap:square;fill:none"/>
<circle cx="-46.76693" cy="38.310242" r="1.5" stroke="#191919" stroke-width="0.7 px" style="stroke-width:0.7;stroke-miterlimit:4;stroke-dasharray:none;stroke-linecap:square;fill:none"/>
<circle cx="-47.11697" cy="68.0" r="2.0" stroke="#191919" stroke-width="0.7 px" style="stroke-width:0.7;stroke-miterlimit:4;stroke-dasharray:none;stroke-linecap:square;fill:none"/>
<path id="Slice_child0_cs_w0028"  d="M -26.5 -5.4385657083821926 L -39.5 -5.4385657083821926 L -39.5 7.5614342916178074 L -26.5 7.561434291617808 L -26.5 -5.4385657083821926 " stroke="#191919" stroke-width="0.7 px" style="stroke-width:0.7;stroke-miterlimit:4;stroke-dasharray:none;stroke-linecap:square;fill:none;fill-opacity:1;fill-rule: evenodd"/>
<path id="Slice_child0_cs_w0029"  d="M -26.5 15.561434291617807 L -39.5 15.561434291617807 L -39.5 28.561434291617807 L -26.5 28.561434291617807 L -26.5 15.561434291617807 " stroke="#191919" stroke-width="0.7 px" style="stroke-width:0.7;stroke-miterlimit:4;stroke-dasharray:none;stroke-linecap:square;fill:none;fill-opacity:1;fill-rule: evenodd"/>
<path id="Slice_child0_cs_w0030"  d="M -4.5 -5.438565708382191 L -17.5 -5.438565708382191 L -17.5 7.561434291617809 L -4.5 7.561434291617808 L -4.5 -5.438565708382191 " stroke="#191919" stroke-width="0.7 px" style="stroke-width:0.7;stroke-miterlimit:4;stroke-dasharray:none;stroke-linecap:square;fill:none;fill-opacity:1;fill-rule: evenodd"/>
<path id="Slice_child0_cs_w0031"  d="M -4.5 15.561434291617807 L -17.5 15.561434291617807 L -17.5 28.561434291617807 L -4.5 28.561434291617807 L -4.5 15.561434291617807 " stroke="#191919" stroke-width="0.7 px" style="stroke-width:0.7;stroke-miterlimit:4;stroke-dasharray:none;stroke-linecap:square;fill:none;fill-opacity:1;fill-rule: evenodd"/>
<path id="Slice_child0_cs_w0032"  d="M -26.5 36.56143429161781 L -39.5 36.56143429161781 L -39.5 49.56143429161781 L -26.5 49.56143429161781 L -26.5 36.56143429161781 " stroke="#191919" stroke-width="0.7 px" style="stroke-width:0.7;stroke-miterlimit:4;stroke-dasharray:none;stroke-linecap:square;fill:none;fill-opacity:1;fill-rule: evenodd"/>
<path id="Slice_child0_cs_w0033"  d="M -26.5 57.56143429161781 L -39.5 57.56143429161781 L -39.5 70.56143429161781 L -26.5 70.56143429161781 L -26.5 57.56143429161781 " stroke="#191919" stroke-width="0.7 px" style="stroke-width:0.7;stroke-miterlimit:4;stroke-dasharray:none;stroke-linecap:square;fill:none;fill-opacity:1;fill-rule: evenodd"/>
<path id="Slice_child0_cs_w0034"  d="M -4.5 36.56143429161781 L -17.5 36.56143429161781 L -17.5 49.56143429161781 L -4.5 49.56143429161781 L -4.5 36.56143429161781 " stroke="#191919" stroke-width="0.7 px" style="stroke-width:0.7;stroke-miterlimit:4;stroke-dasharray:none;stroke-linecap:square;fill:none;fill-opacity:1;fill-rule: evenodd"/>
<path id="Slice_child0_cs_w0035"  d="M -4.5 57.56143429161781 L -17.5 57.56143429161781 L -17.5 70.56143429161781 L -4.5 70.56143429161781 L -4.5 57.56143429161781 " stroke="#191919" stroke-width="0.7 px" style="stroke-width:0.7;stroke-miterlimit:4;stroke-dasharray:none;stroke-linecap:square;fill:none;fill-opacity:1;fill-rule: evenodd"/>
<title>b'Slice_child0_cs'</title>
</g>
</svg>