<?xml version="1.0"?>
<!DOCTYPE svg PUBLIC "-//W3C//DTD SVG 1.1//EN" "http://www.w3.org/Graphics/SVG/1.1/DTD/svg11.dtd">
<svg width="158.62791324mm" height="163.51091224000015mm" viewBox="0 0 158.62791324 163.51091224000015" xmlns="http://www.w3.org/2000/svg" version="1.1">
<g id="Body222058_cs" transform="translate(79.313957,76.230740) scale(1,-1)">
<path id="Body222058_cs_w0000"  d="M -66.0575267108295 -84.724997 L -66.0575267108295 -80.97004475577792 A 5 5 0 0 1 -71.0495 -75.6863L -76.758781 -75.68630090945315 A 1 1 0 0 0 -77.7588 -74.6863L -77.758781 -32.96529744741582 A 1 1 0 0 0 -76.7588 -31.9653L -71.47100630870311 -31.965297447415818 A 5 5 0 0 1 -71.471 -21.9653L -76.758781 -21.965297447415818 A 1 1 0 0 0 -77.7588 -20.9653L -77.758781 63.64308497510868 A 1 1 0 0 0 -76.7588 64.6431L -70.91095645109257 64.64308497510868 A 5 5 0 0 1 -65.911 69.6431L -65.91095645109257 73.67556400000016 A 1 1 0 0 0 -64.911 74.6756L 64.91095645109257 74.67556400000016 A 1 1 0 0 0 65.911 73.6756L 65.91095645109257 69.64308497510868 A 5 5 0 0 1 70.911 64.6431L 76.758781 64.64308497510868 A 1 1 0 0 0 77.7588 63.6431L 77.758781 -20.96529744741582 A 1 1 0 0 0 76.7588 -21.9653L 71.47100630870311 -21.965297447415818 A 5 5 0 0 1 71.471 -31.9653L 76.758781 -31.965297447415818 A 1 1 0 0 0 77.7588 -32.9653L 77.758781 -74.68630090945314 A 1 1 0 0 0 76.7588 -75.6863L 70.78799600372824 -75.68630090945314 A 5 5 0 0 1 66.0575 -80.9729L 66.0575267108295 -84.724997 A 1 1 0 0 0 65.0575 -85.725L 44.058926 -85.724997 A 1 1 0 0 0 43.0589 -84.725L 43.058926 -53.975 L -43.058926 -53.975 L -43.058926 -84.724997 A 1 1 0 0 0 -44.0589 -85.725L -65.0575267108295 -85.724997 A 1 1 0 0 0 -66.0575 -84.725" stroke="#191919" stroke-width="0.7 px" style="stroke-width:0.7;stroke-miterlimit:4;stroke-dasharray:none;stroke-linecap:square;fill:none;fill-opacity:1;fill-rule: evenodd"/>
<circle cx="-67.0597" cy="-72.875732" r="1.5" stroke="#191919" stroke-width="0.7 px" style="stroke-width:0.7;stroke-miterlimit:4;stroke-dasharray:none;stroke-linecap:square;fill:none"/>
<circle cx="-58.438595" cy="-74.588409" r="1.5" stroke="#191919" stroke-width="0.7 px" style="stroke-width:0.7;stroke-miterlimit:4;stroke-dasharray:none;stroke-linecap:square;fill:none"/>
<circle cx="-54.87952" cy="-79.375" r="2.0" stroke="#191919" stroke-width="0.7 px" style="stroke-width:0.7;stroke-miterlimit:4;stroke-dasharray:none;stroke-linecap:square;fill:none"/>
<circle cx="-68.321945" cy="-65.028656" r="1.5" stroke="#191919" stroke-width="0.7 px" style="stroke-width:0.7;stroke-miterlimit:4;stroke-dasharray:none;stroke-linecap:square;fill:none"/>
<circle cx="-67.875366" cy="-57.366318" r="1.5" stroke="#191919" stroke-width="0.7 px" style="stroke-width:0.7;stroke-miterlimit:4;stroke-dasharray:none;stroke-linecap:square;fill:none"/>
<circle cx="-57.894997" cy="-64.006909" r="8.0" stroke="#191919" stroke-width="0.7 px" style="stroke-width:0.7;stroke-miterlimit:4;stroke-dasharray:none;stroke-linecap:square;fill:none"/>
<circle cx="-47.403282" cy="-64.323532" r="1.5" stroke="#191919" stroke-width="0.7 px" style="stroke-width:0.7;stroke-miterlimit:4;stroke-dasharray:none;stroke-linecap:square;fill:none"/>
<circle cx="-57.180996" cy="-53.723179" r="1.5" stroke="#191919" stroke-width="0.7 px" style="stroke-width:0.7;stroke-miterlimit:4;stroke-dasharray:none;stroke-linecap:square;fill:none"/>
<circle cx="-68.85141" cy="-41.436401" r="1.5" stroke="#191919" stroke-width="0.7 px" style="stroke-width:0.7;stroke-miterlimit:4;stroke-dasharray:none;stroke-linecap:square;fill:none"/>
<circle cx="-55.093403" cy="-41.239399" r="7.1" stroke="#191919" stroke-width="0.7 px" style="stroke-width:0.7;stroke-miterlimit:4;stroke-dasharray:none;stroke-linecap:square;fill:none"/>
<circle cx="-56.823608" cy="-28.626461" r="1.5" stroke="#191919" stroke-width="0.7 px" style="stroke-width:0.7;stroke-miterlimit:4;stroke-dasharray:none;stroke-linecap:square;fill:none"/>
<circle cx="-66.300888" cy="-21.53264" r="1.5" stroke="#191919" stroke-width="0.7 px" style="stroke-width:0.7;stroke-miterlimit:4;stroke-dasharray:none;stroke-linecap:square;fill:none"/>
<circle cx="-66.50518" cy="-10.253631" r="1.5" stroke="#191919" stroke-width="0.7 px" style="stroke-width:0.7;stroke-miterlimit:4;stroke-dasharray:none;stroke-linecap:square;fill:none"/>
<circle cx="-49.650272" cy="-22.566126" r="1.5" stroke="#191919" stroke-width="0.7 px" style="stroke-width:0.7;stroke-miterlimit:4;stroke-dasharray:none;stroke-linecap:square;fill:none"/>
<circle cx="-57.446136" cy="-15.839219" r="8.0" stroke="#191919" stroke-width="0.7 px" style="stroke-width:0.7;stroke-miterlimit:4;stroke-dasharray:none;stroke-linecap:square;fill:none"/>
<circle cx="-49.703426" cy="-9.722192" r="1.5" stroke="#191919" stroke-width="0.7 px" style="stroke-width:0.7;stroke-miterlimit:4;stroke-dasharray:none;stroke-linecap:square;fill:none"/>
<path id="Body222058_cs_w0017"  d="M -26.5 -47.43856570838219 L -39.5 -47.43856570838219 L -39.5 -34.43856570838219 L -26.5 -34.43856570838219 L -26.5 -47.43856570838219 " stroke="#191919" stroke-width="0.7 px" style="stroke-width:0.7;stroke-miterlimit:4;stroke-dasharray:none;stroke-linecap:square;fill:none;fill-opacity:1;fill-rule: evenodd"/>
<path id="Body222058_cs_w0018"  d="M -4.5 -47.43856570838219 L -17.5 -47.43856570838219 L -17.5 -34.43856570838219 L -4.5 -34.43856570838219 L -4.5 -47.43856570838219 " stroke="#191919" stroke-width="0.7 px" style="stroke-width:0.7;stroke-miterlimit:4;stroke-dasharray:none;stroke-linecap:square;fill:none;fill-opacity:1;fill-rule: evenodd"/>
<path id="Body222058_cs_w0019"  d="M -26.5 -26.438565708382193 L -39.5 -26.438565708382193 L -39.5 -13.438565708382193 L -26.5 -13.438565708382193 L -26.5 -26.438565708382193 " stroke="#191919" stroke-width="0.7 px" style="stroke-width:0.7;stroke-miterlimit:4;stroke-dasharray:none;stroke-linecap:square;fill:none;fill-opacity:1;fill-rule: evenodd"/>
<path id="Body222058_cs_w0020"  d="M -4.5 -26.438565708382193 L -17.5 -26.438565708382193 L -17.5 -13.438565708382193 L -4.5 -13.438565708382193 L -4.5 -26.438565708382193 " stroke="#191919" stroke-width="0.7 px" style="stroke-width:0.7;stroke-miterlimit:4;stroke-dasharray:none;stroke-linecap:square;fill:none;fill-opacity:1;fill-rule: evenodd"/>
<circle cx="54.87952" cy="-79.375" r="2.0" stroke="#191919" stroke-width="0.7 px" style="stroke-width:0.7;stroke-miterlimit:4;stroke-dasharray:none;stroke-linecap:square;fill:none"/>
<path id="Body222058_cs_w0022"  d="M 61.5 -68.43856570838219 L 48.5 -68.43856570838219 L 48.5 -55.43856570838219 L 61.5 -55.43856570838219 L 61.5 -68.43856570838219 " stroke="#191919" stroke-width="0.7 px" style="stroke-width:0.7;stroke-miterlimit:4;stroke-dasharray:none;stroke-linecap:square;fill:none;fill-opacity:1;fill-rule: evenodd"/>
<path id="Body222058_cs_w0023"  d="M 17.5 -47.43856570838219 L 4.5 -47.43856570838219 L 4.5 -34.43856570838219 L 17.5 -34.43856570838219 L 17.5 -47.43856570838219 " stroke="#191919" stroke-width="0.7 px" style="stroke-width:0.7;stroke-miterlimit:4;stroke-dasharray:none;stroke-linecap:square;fill:none;fill-opacity:1;fill-rule: evenodd"/>
<path id="Body222058_cs_w0024"  d="M 39.5 -47.43856570838219 L 26.5 -47.43856570838219 L 26.5 -34.43856570838219 L 39.5 -34.43856570838219 L 39.5 -47.43856570838219 " stroke="#191919" stroke-width="0.7 px" style="stroke-width:0.7;stroke-miterlimit:4;stroke-dasharray:none;stroke-linecap:square;fill:none;fill-opacity:1;fill-rule: evenodd"/>
<path id="Body222058_cs_w0025"  d="M 17.5 -26.438565708382193 L 4.5 -26.438565708382193 L 4.5 -13.438565708382193 L 17.5 -13.438565708382193 L 17.5 -26.438565708382193 " stroke="#191919" stroke-width="0.7 px" style="stroke-width:0.7;stroke-miterlimit:4;stroke-dasharray:none;stroke-linecap:square;fill:none;fill-opacity:1;fill-rule: evenodd"/>
<path id="Body222058_cs_w0026"  d="M 39.5 -26.438565708382193 L 26.5 -26.438565708382193 L 26.5 -13.438565708382193 L 39.5 -13.438565708382193 L 39.5 -26.438565708382193 " stroke="#191919" stroke-width="0.7 px" style="stroke-width:0.7;stroke-miterlimit:4;stroke-dasharray:none;stroke-linecap:square;fill:none;fill-opacity:1;fill-rule: evenodd"/>
<path id="Body222058_cs_w0027"  d="M 61.5 -47.43856570838219 L 48.5 -47.43856570838219 L 48.5 -34.43856570838219 L 61.5 -34.43856570838219 L 61.5 -47.43856570838219 " stroke="#191919" stroke-width="0.7 px" style="stroke-width:0.7;stroke-miterlimit:4;stroke-dasharray:none;stroke-linecap:square;fill:none;fill-opacity:1;fill-rule: evenodd"/>
<circle cx="56.833363" cy="-28.657095" r="1.5" stroke="#191919" stroke-width="0.7 px" style="stroke-width:0.7;stroke-miterlimit:4;stroke-dasharray:none;stroke-linecap:square;fill:none"/>
<circle cx="49.655521" cy="-22.556892" r="1.5" stroke="#191919" stroke-width="0.7 px" style="stroke-width:0.7;stroke-miterlimit:4;stroke-dasharray:none;stroke-linecap:square;fill:none"/>
<circle cx="57.446136" cy="-15.839219" r="8.0" stroke="#191919" stroke-width="0.7 px" style="stroke-width:0.7;stroke-miterlimit:4;stroke-dasharray:none;stroke-linecap:square;fill:none"/>
<circle cx="49.732468" cy="-9.753106" r="1.5" stroke="#191919" stroke-width="0.7 px" style="stroke-width:0.7;stroke-miterlimit:4;stroke-dasharray:none;stroke-linecap:square;fill:none"/>
<circle cx="66.298935" cy="-21.516508" r="1.5" stroke="#191919" stroke-width="0.7 px" style="stroke-width:0.7;stroke-miterlimit:4;stroke-dasharray:none;stroke-linecap:square;fill:none"/>
<circle cx="66.532082" cy="-10.234195" r="1.5" stroke="#191919" stroke-width="0.7 px" style="stroke-width:0.7;stroke-miterlimit:4;stroke-dasharray:none;stroke-linecap:square;fill:none"/>
<path id="Body222058_cs_w0034"  d="M -43.901951 -6.586003844343939 L -72.6258491844575 -6.586003844343939 L -72.6258491844575 22.151832 L -43.901951 22.151832 L -43.901951 -6.586003844343939 " stroke="#191919" stroke-width="0.7 px" style="stroke-width:0.7;stroke-miterlimit:4;stroke-dasharray:none;stroke-linecap:square;fill:none;fill-opacity:1;fill-rule: evenodd"/>
<circle cx="-58.408588" cy="26.195181" r="1.5" stroke="#191919" stroke-width="0.7 px" style="stroke-width:0.7;stroke-miterlimit:4;stroke-dasharray:none;stroke-linecap:square;fill:none"/>
<path id="Body222058_cs_w0036"  d="M -26.5 -5.4385657083821926 L -39.5 -5.4385657083821926 L -39.5 7.5614342916178074 L -26.5 7.561434291617808 L -26.5 -5.4385657083821926 " stroke="#191919" stroke-width="0.7 px" style="stroke-width:0.7;stroke-miterlimit:4;stroke-dasharray:none;stroke-linecap:square;fill:none;fill-opacity:1;fill-rule: evenodd"/>
<path id="Body222058_cs_w0037"  d="M -4.5 -5.438565708382191 L -17.5 -5.438565708382191 L -17.5 7.561434291617809 L -4.5 7.561434291617808 L -4.5 -5.438565708382191 " stroke="#191919" stroke-width="0.7 px" style="stroke-width:0.7;stroke-miterlimit:4;stroke-dasharray:none;stroke-linecap:square;fill:none;fill-opacity:1;fill-rule: evenodd"/>
<path id="Body222058_cs_w0038"  d="M -26.5 15.561434291617807 L -39.5 15.561434291617807 L -39.5 28.561434291617807 L -26.5 28.561434291617807 L -26.5 15.561434291617807 " stroke="#191919" stroke-width="0.7 px" style="stroke-width:0.7;stroke-miterlimit:4;stroke-dasharray:none;stroke-linecap:square;fill:none;fill-opacity:1;fill-rule: evenodd"/>
<path id="Body222058_cs_w0039"  d="M -4.5 15.561434291617807 L -17.5 15.561434291617807 L -17.5 28.561434291617807 L -4.5 28.561434291617807 L -4.5 15.561434291617807 " stroke="#191919" stroke-width="0.7 px" style="stroke-width:0.7;stroke-miterlimit:4;stroke-dasharray:none;stroke-linecap:square;fill:none;fill-opacity:1;fill-rule: evenodd"/>
<circle cx="-68.809143" cy="38.317501" r="1.5" stroke="#191919" stroke-width="0.7 px" style="stroke-width:0.7;stroke-miterlimit:4;stroke-dasharray:none;stroke-linecap:square;fill:none"/>
<circle cx="-57.685364" cy="38.32668" r="8.0" stroke="#191919" stroke-width="0.7 px" style="stroke-width:0.7;stroke-miterlimit:4;stroke-dasharray:none;stroke-linecap:square;fill:none"/>
<circle cx="-46.76693" cy="38.310242" r="1.5" stroke="#191919" stroke-width="0.7 px" style="stroke-width:0.7;stroke-miterlimit:4;stroke-dasharray:none;stroke-linecap:square;fill:none"/>
<circle cx="-57.690281" cy="49.393906" r="1.5" stroke="#191919" stroke-width="0.7 px" style="stroke-width:0.7;stroke-miterlimit:4;stroke-dasharray:none;stroke-linecap:square;fill:none"/>
<circle cx="-47.11697" cy="68.0" r="2.0" stroke="#191919" stroke-width="0.7 px" style="stroke-width:0.7;stroke-miterlimit:4;stroke-dasharray:none;stroke-linecap:square;fill:none"/>
<path id="Body222058_cs_w0045"  d="M -26.5 36.56143429161781 L -39.5 36.56143429161781 L -39.5 49.56143429161781 L -26.5 49.56143429161781 L -26.5 36.56143429161781 " stroke="#191919" stroke-width="0.7 px" style="stroke-width:0.7;stroke-miterlimit:4;stroke-dasharray:none;stroke-linecap:square;fill:none;fill-opacity:1;fill-rule: evenodd"/>
<path id="Body222058_cs_w0046"  d="M -4.5 36.56143429161781 L -17.5 36.56143429161781 L -17.5 49.56143429161781 L -4.5 49.56143429161781 L -4.5 36.56143429161781 " stroke="#191919" stroke-width="0.7 px" style="stroke-width:0.7;stroke-miterlimit:4;stroke-dasharray:none;stroke-linecap:square;fill:none;fill-opacity:1;fill-rule: evenodd"/>
<path id="Body222058_cs_w0047"  d="M -26.5 57.56143429161781 L -39.5 57.56143429161781 L -39.5 70.56143429161781 L -26.5 70.56143429161781 L -26.5 57.56143429161781 " stroke="#191919" stroke-width="0.7 px" style="stroke-width:0.7;stroke-miterlimit:4;stroke-dasharray:none;stroke-linecap:square;fill:none;fill-opacity:1;fill-rule: evenodd"/>
<path id="Body222058_cs_w0048"  d="M -4.5 57.56143429161781 L -17.5 57.56143429161781 L -17.5 70.56143429161781 L -4.5 70.56143429161781 L -4.5 57.56143429161781 " stroke="#191919" stroke-width="0.7 px" style="stroke-width:0.7;stroke-miterlimit:4;stroke-dasharray:none;stroke-linecap:square;fill:none;fill-opacity:1;fill-rule: evenodd"/>
<path id="Body222058_cs_w0049"  d="M 17.5 -5.438565708382192 L 4.5 -5.438565708382192 L 4.5 7.561434291617808 L 17.5 7.561434291617808 L 17.5 -5.438565708382192 " stroke="#191919" stroke-width="0.7 px" style="stroke-width:0.7;stroke-miterlimit:4;stroke-dasharray:none;stroke-linecap:square;fill:none;fill-opacity:1;fill-rule: evenodd"/>
<path id="Body222058_cs_w0050"  d="M 39.5 -5.438565708382191 L 26.5 -5.438565708382191 L 26.5 7.561434291617809 L 39.5 7.561434291617808 L 39.5 -5.438565708382191 " stroke="#191919" stroke-width="0.7 px" style="stroke-width:0.7;stroke-miterlimit:4;stroke-dasharray:none;stroke-linecap:square;fill:none;fill-opacity:1;fill-rule: evenodd"/>
<path id="Body222058_cs_w0051"  d="M 17.5 15.561434291617807 L 4.5 15.561434291617807 L 4.5 28.561434291617807 L 17.5 28.561434291617807 L 17.5 15.561434291617807 " stroke="#191919" stroke-width="0.7 px" style="stroke-width:0.7;stroke-miterlimit:4;stroke-dasharray:none;stroke-linecap:square;fill:none;fill-opacity:1;fill-rule: evenodd"/>
<path id="Body222058_cs_w0052"  d="M 39.5 15.561434291617807 L 26.5 15.561434291617807 L 26.5 28.561434291617807 L 39.5 28.561434291617807 L 39.5 15.561434291617807 " stroke="#191919" stroke-width="0.7 px" style="stroke-width:0.7;stroke-miterlimit:4;stroke-dasharray:none;stroke-linecap:square;fill:none;fill-opacity:1;fill-rule: evenodd"/>
<path id="Body222058_cs_w0053"  d="M 72.6258491844575 -6.586003844343939 L 43.901951 -6.586003844343939 L 43.901951 22.151832 L 72.6258491844575 22.151832 L 72.6258491844575 -6.586003844343939 " stroke="#191919" stroke-width="0.7 px" style="stroke-width:0.7;stroke-miterlimit:4;stroke-dasharray:none;stroke-linecap:square;fill:none;fill-opacity:1;fill-rule: evenodd"/>
<circle cx="58.477001" cy="26.209122" r="1.5" stroke="#191919" stroke-width="0.7 px" style="stroke-width:0.7;stroke-miterlimit:4;stroke-dasharray:none;stroke-linecap:square;fill:none"/>
<path id="Body222058_cs_w0055"  d="M 17.5 36.56143429161781 L 4.5 36.56143429161781 L 4.5 49.56143429161781 L 17.5 49.56143429161781 L 17.5 36.56143429161781 " stroke="#191919" stroke-width="0.7 px" style="stroke-width:0.7;stroke-miterlimit:4;stroke-dasharray:none;stroke-linecap:square;fill:none;fill-opacity:1;fill-rule: evenodd"/>
<path id="Body222058_cs_w0056"  d="M 39.5 36.56143429161781 L 26.5 36.56143429161781 L 26.5 49.56143429161781 L 39.5 49.56143429161781 L 39.5 36.56143429161781 " stroke="#191919" stroke-width="0.7 px" style="stroke-width:0.7;stroke-miterlimit:4;stroke-dasharray:none;stroke-linecap:square;fill:none;fill-opacity:1;fill-rule: evenodd"/>
<path id="Body222058_cs_w0057"  d="M 17.5 57.56143429161781 L 4.5 57.56143429161781 L 4.5 70.56143429161781 L 17.5 70.56143429161781 L 17.5 57.56143429161781 " stroke="#191919" stroke-width="0.7 px" style="stroke-width:0.7;stroke-miterlimit:4;stroke-dasharray:none;stroke-linecap:square;fill:none;fill-opacity:1;fill-rule: evenodd"/>
<path id="Body222058_cs_w0058"  d="M 39.5 57.56143429161781 L 26.5 57.56143429161781 L 26.5 70.56143429161781 L 39.5 70.56143429161781 L 39.5 57.56143429161781 " stroke="#191919" stroke-width="0.7 px" style="stroke-width:0.7;stroke-miterlimit:4;stroke-dasharray:none;stroke-linecap:square;fill:none;fill-opacity:1;fill-rule: evenodd"/>
<circle cx="46.765614" cy="38.271145" r="1.5" stroke="#191919" stroke-width="0.7 px" style="stroke-width:0.7;stroke-miterlimit:4;stroke-dasharray:none;stroke-linecap:square;fill:none"/>
<circle cx="57.685364" cy="38.32668" r="8.0" stroke="#191919" stroke-width="0.7 px" style="stroke-width:0.7;stroke-miterlimit:4;stroke-dasharray:none;stroke-linecap:square;fill:none"/>
<circle cx="57.72279" cy="49.395115" r="1.5" stroke="#191919" stroke-width="0.7 px" style="stroke-width:0.7;stroke-miterlimit:4;stroke-dasharray:none;stroke-linecap:square;fill:none"/>
<circle cx="68.820885" cy="38.30621" r="1.5" stroke="#191919" stroke-width="0.7 px" style="stroke-width:0.7;stroke-miterlimit:4;stroke-dasharray:none;stroke-linecap:square;fill:none"/>
<circle cx="47.11697" cy="68.0" r="2.0" stroke="#191919" stroke-width="0.7 px" style="stroke-width:0.7;stroke-miterlimit:4;stroke-dasharray:none;stroke-linecap:square;fill:none"/>
<title>b'Section Middle Plate'</title>
</g>
</svg>