<?xml version="1.0"?>
<!DOCTYPE svg PUBLIC "-//W3C//DTD SVG 1.1//EN" "http://www.w3.org/Graphics/SVG/1.1/DTD/svg11.dtd">
<svg width="139.36595988000005mm" height="93.16322388mm" viewBox="0 0 139.36595988000005 93.16322388" xmlns="http://www.w3.org/2000/svg" version="1.1">
<g id="Slice_child2_cs001" transform="translate(69.682980,46.581612) scale(1,-1)">
<path id="Slice_child2_cs001_w0000"  d="M 55.62264700000001 44.715279 A 0.5 0.5 0 0 1 55.1226 45.2153L -55.122647000000725 45.215279 A 0.5 0.5 0 0 1 -55.6226 44.7153L -55.622647000000725 41.342279000000005 A 6.35 6.35 0 0 0 -61.9726 34.9923L -67.81664700000002 34.992278999999996 A 0.5 0.5 0 0 1 -68.3166 34.4923L -68.31664700000002 -34.49227893084172 A 0.5 0.5 0 0 1 -67.8166 -34.9923L -61.97264692485369 -34.992278999999996 A 6.35 6.35 0 0 0 -55.6226 -41.3423L -55.622647000000015 -44.715279 A 0.5 0.5 0 0 1 -55.1226 -45.2153L 55.122647000000015 -45.215279 A 0.5 0.5 0 0 1 55.6226 -44.7153L 55.62264700000002 -41.342279000000005 A 6.35 6.35 0 0 0 61.9727 -34.9923L 67.8166466791223 -34.99228275041716 A 0.5 0.5 0 0 1 68.3166 -34.4923L 68.31664700000002 34.492278999999996 A 0.5 0.5 0 0 1 67.8166 34.9923L 61.97264700000001 34.992278999999996 A 6.35 6.35 0 0 0 55.6226 41.3423L 55.62264700000001 44.715279 " stroke="#191919" stroke-width="0.7 px" style="stroke-width:0.7;stroke-miterlimit:4;stroke-dasharray:none;stroke-linecap:square;fill:none;fill-opacity:1;fill-rule: evenodd"/>
<circle cx="-33.108673" cy="-38.015279" r="1.2" stroke="#191919" stroke-width="0.7 px" style="stroke-width:0.7;stroke-miterlimit:4;stroke-dasharray:none;stroke-linecap:square;fill:none"/>
<circle cx="-48.0" cy="-14.000000000000002" r="4.5" stroke="#191919" stroke-width="0.7 px" style="stroke-width:0.7;stroke-miterlimit:4;stroke-dasharray:none;stroke-linecap:square;fill:none"/>
<path id="Slice_child2_cs001_w0003"  d="M -53.5908202125 -5.780029296875 L -53.609619040625 -5.771484375 L -53.62841786875 -5.760432942708334 L -53.643798728125 -5.749267578125 L -53.821533103125 -5.455322265625 L -53.824951071875 -5.3955078125 L -53.760009665625 -5.1767578125 Q -53.63860003676952 -4.982139175821915 -53.40966786875 -4.978515625 L -53.25244130625 -4.983642578125 L -53.141357321875 -5.00244140625 L -53.06365549895833 -5.030696614583334 L -52.990966696875 -5.07080078125 L -52.85003245208333 -5.242610677083334 L -52.755126853125 -5.445068359375 L -52.5927733375 -5.581787109375 L -52.532958884375 -5.588623046875 L -52.39794911875 -5.544189453125 L -52.362060446875 -5.513427734375 L -52.3193358375 -5.448486328125 L -52.29541005625 -5.352783203125 L -52.30224599375 -5.29638671875 L -52.317626853125 -5.251953125 L -52.5244139625 -4.870849609375 L -52.854247946875 -4.593994140625 L -53.02685536875 -4.5385091145833325 L -53.20458974375 -4.505126953125 L -53.392578025 -4.5 Q -53.83907647252376 -4.500320521933091 -54.11376943125 -4.8486328125 L -54.306884665625 -5.37841796875 L -54.306884665625 -5.383544921875 L -54.272704978125 -5.633056640625 Q -54.1720930968244 -6.01783109476065 -53.790771384375 -6.2158203125 L -53.76513661875 -6.2294921875 L -52.973876853125 -6.576416015625 L -52.843994040625 -6.65673828125 L -52.6953124 -6.90966796875 L -52.679931540625 -7.031005859375 L -52.71240224375 -7.2001953125 Q -52.837302522442016 -7.513594318148126 -53.172119040625 -7.5146484375 L -53.233642478125 -7.5146484375 L -53.7412108375 -7.44970703125 Q -53.956535282294524 -7.361065450632376 -54.026611228125 -7.007080078125 L -54.03173818125 -6.99169921875 L -54.2197264625 -6.82421875 L -54.267578025 -6.82080078125 L -54.43505849375 -6.89599609375 L -54.4999999 -7.058349609375 L -54.494872946875 -7.113037109375 L -54.470947165625 -7.232666015625 L -54.440185446875 -7.348876953125 Q -54.29844049185007 -7.77740243178294 -53.92578115 -7.893245442708334 L -53.168701071875 -7.994873046875 L -52.71240224375 -7.878662109375 L -52.37151682708333 -7.573665364583334 L -52.208251853125 -7.143798828125 L -52.201415915625 -7.029296875 L -52.221923728125 -6.82763671875 Q -52.302999089719606 -6.434256122596631 -52.6406249 -6.21240234375 L -52.66888010833333 -6.196223958333334 L -52.6953124 -6.179931640625 L -52.72265615 -6.16455078125 L -52.75341786875 -6.149169921875 L -52.78076161875 -6.13720703125 L -53.5703124 -5.78857421875 L -53.5908202125 -5.780029296875 " stroke="#191919" stroke-width="0.7 px" style="stroke-width:0.7;stroke-miterlimit:4;stroke-dasharray:none;stroke-linecap:square;fill:none;fill-opacity:1;fill-rule: evenodd"/>
<path id="Slice_child2_cs001_w0004"  d="M -51.7874999 -4.7392578125 L -51.7874999 -7.759033203125 Q -51.75955988389113 -7.998079514397883 -51.546533103125 -8.0 Q -51.33348023206253 -7.998073001546489 -51.303857321875 -7.759033203125 L -51.303857321875 -6.51318359375 L -50.473290915625 -6.51318359375 L -50.4408202125 -6.511474609375 L -49.899072165625 -6.331233723958334 L -49.540185446875 -5.88427734375 L -49.46328115 -5.51513671875 L -49.536767478125 -5.144287109375 Q -49.68197796602696 -4.767397780288357 -50.0374999 -4.59912109375 L -50.4408202125 -4.5 L -51.5619139625 -4.5 Q -51.76210817700061 -4.52810420673624 -51.7874999 -4.7392578125 " stroke="#191919" stroke-width="0.7 px" style="stroke-width:0.7;stroke-miterlimit:4;stroke-dasharray:none;stroke-linecap:square;fill:none;fill-opacity:1;fill-rule: evenodd"/>
<path id="Slice_child2_cs001_w0005"  d="M -45.48020823333333 -4.74267578125 L -45.48020823333333 -7.762451171875 Q -45.447446070781346 -7.970759668810121 -45.23753245208333 -8.0 L -44.32322581145833 -8.0 Q -43.948245908441116 -7.977465326059431 -43.67893870208333 -7.780452473958334 L -43.31321604583333 -7.30615234375 L -43.24827463958333 -6.94384765625 L -43.27390940520833 -6.70458984375 Q -43.343244272555715 -6.3755649637103655 -43.60203440520833 -6.1064453125 L -43.29954417083333 -5.61083984375 L -43.27390940520833 -5.40234375 L -43.27390940520833 -5.390380859375 L -43.32346995208333 -5.10498046875 L -43.63028961354166 -4.696533203125 L -44.17625315520833 -4.5 L -45.23753245208333 -4.5 Q -45.450809553170835 -4.530927319418108 -45.48020823333333 -4.74267578125 " stroke="#191919" stroke-width="0.7 px" style="stroke-width:0.7;stroke-miterlimit:4;stroke-dasharray:none;stroke-linecap:square;fill:none;fill-opacity:1;fill-rule: evenodd"/>
<path id="Slice_child2_cs001_w0006"  d="M -42.322232972916666 -4.74267578125 Q -42.35828333723026 -4.502284806055574 -42.566617738541666 -4.5 L -42.573453676041666 -4.5 Q -42.787880968058566 -4.505134791861137 -42.804166566666666 -4.74267578125 L -42.804166566666666 -7.76416015625 Q -42.787726240587 -7.998481158264603 -42.573453676041666 -8.00341796875 L -42.568326722916666 -8.00341796875 Q -42.35851929927274 -8.00141292738423 -42.322232972916666 -7.76416015625 L -42.322232972916666 -6.443115234375 L -41.886441957291666 -6.022705078125 L -40.949918519791666 -7.8701171875 L -40.749967347916666 -8.011962890625 L -40.638883363541666 -7.984619140625 L -40.500455629166666 -7.772705078125 L -40.519254457291666 -7.653076171875 L -41.522428285416666 -5.674072265625 L -40.731168519791666 -4.91357421875 L -40.649137269791666 -4.7392578125 L -40.722623597916666 -4.58203125 L -40.893522035416666 -4.498291015625 L -41.067838441666666 -4.56494140625 L -42.322232972916666 -5.773193359375 L -42.322232972916666 -4.74267578125 " stroke="#191919" stroke-width="0.7 px" style="stroke-width:0.7;stroke-miterlimit:4;stroke-dasharray:none;stroke-linecap:square;fill:none;fill-opacity:1;fill-rule: evenodd"/>
<circle cx="-24.0" cy="-14.0" r="4.5" stroke="#191919" stroke-width="0.7 px" style="stroke-width:0.7;stroke-miterlimit:4;stroke-dasharray:none;stroke-linecap:square;fill:none"/>
<path id="Slice_child2_cs001_w0008"  d="M -24.19970693125 -7.76416015625 Q -24.20154688760785 -7.549522271016551 -24.440673728125 -7.523193359375 L -26.01806630625 -7.52490234375 L -26.01806630625 -4.74267578125 Q -26.036040119552897 -4.505137189341612 -26.25048818125 -4.5 L -26.25732411875 -4.5 Q -26.465627992718584 -4.502275772350684 -26.4999999 -4.74267578125 L -26.4999999 -7.76416015625 Q -26.46796670308297 -7.986999965190684 -26.25732411875 -8.001708984375 L -24.4423827125 -8.001708984375 Q -24.20124333585969 -7.98689378658732 -24.19970693125 -7.76416015625 " stroke="#191919" stroke-width="0.7 px" style="stroke-width:0.7;stroke-miterlimit:4;stroke-dasharray:none;stroke-linecap:square;fill:none;fill-opacity:1;fill-rule: evenodd"/>
<path id="Slice_child2_cs001_w0009"  d="M -22.138899639583332 -7.111328125 L -22.157698467708332 -7.14892578125 L -22.489241436458332 -7.499267578125 L -22.600325420833332 -7.52490234375 L -22.902815655208332 -7.331787109375 Q -23.20041763191589 -6.951421649641002 -23.230940655208332 -6.455078125 L -23.236067608333332 -6.28076171875 L -23.109602764583332 -5.513427734375 Q -22.971202539140876 -5.082728329224425 -22.637923077083332 -4.997314453125 L -22.567854717708332 -4.990478515625 Q -22.27662306848532 -5.014867094142868 -22.121809795833332 -5.4296875 L -21.942366436458332 -5.56640625 L -21.896223858333332 -5.571533203125 L -21.727034405208332 -5.49462890625 L -21.662092998958332 -5.339111328125 L -21.682600811458332 -5.229736328125 L -21.696272686458332 -5.2041015625 L -21.706526592708332 -5.18017578125 L -21.720198467708332 -5.15283203125 Q -21.906695239809302 -4.782025716495738 -22.277327373958332 -4.57861328125 L -22.596907452083332 -4.491455078125 L -22.603743389583332 -4.491455078125 L -23.042952373958332 -4.641845703125 Q -23.359410266168204 -4.859892662113273 -23.515543519791667 -5.223811848958334 L -23.704329327083332 -5.9970703125 L -23.712874248958332 -6.22607421875 L -23.658186748958332 -6.7900390625 L -23.422346905208332 -7.437744140625 Q -23.11889322980032 -7.956085062829285 -22.595198467708332 -7.9931640625 L -22.572981670833332 -7.994873046875 Q -22.061414802201483 -7.968365680757566 -21.771467998958332 -7.44287109375 L -21.756087139583332 -7.417236328125 L -21.742415264583332 -7.3916015625 L -21.730452373958332 -7.365966796875 L -21.703108623958332 -7.314697265625 L -21.691145733333332 -7.2890625 L -21.679182842708332 -7.26171875 L -21.658675030208332 -7.21728515625 L -21.658675030208332 -6.350830078125 L -21.729654847916663 -6.180843098958334 L -21.89964182708333 -6.10986328125 L -22.545637920833332 -6.10986328125 L -22.561018780208332 -6.11328125 Q -22.76924143189276 -6.1393062268737335 -22.769514873958332 -6.350830078125 Q -22.769241431892716 -6.562353929376307 -22.561018780208332 -6.58837890625 L -22.545637920833332 -6.590087890625 L -22.138899639583332 -6.590087890625 L -22.138899639583332 -7.111328125 " stroke="#191919" stroke-width="0.7 px" style="stroke-width:0.7;stroke-miterlimit:4;stroke-dasharray:none;stroke-linecap:square;fill:none;fill-opacity:1;fill-rule: evenodd"/>
<path id="Slice_child2_cs001_w0010"  d="M -4.75048818125 -8.00341796875 Q -4.536196002291575 -7.998478710119995 -4.51806630625 -7.76416015625 L -4.51806630625 -6.357666015625 L -3.1423338843749997 -6.357666015625 L -3.1423338843749997 -7.76416015625 Q -3.1078657538522534 -8.001277085929386 -2.9013670874999997 -8.00341796875 L -2.8996581031249997 -8.005126953125 Q -2.693047646799474 -8.002873835653649 -2.6569823218749997 -7.76416015625 L -2.6569823218749997 -4.74267578125 Q -2.6929650945095776 -4.502358119328315 -2.8996581031249997 -4.5 L -2.9013670874999997 -4.5 Q -3.108029101990556 -4.502348988636445 -3.1423338843749997 -4.74267578125 L -3.1423338843749997 -5.872314453125 L -4.51806630625 -5.872314453125 L -4.51806630625 -4.74267578125 Q -4.536040119552888 -4.505137189341616 -4.75048818125 -4.5 L -4.75732411875 -4.5 Q -4.965627992718565 -4.502275772350661 -4.9999999 -4.74267578125 L -4.9999999 -7.76416015625 Q -4.9653935345418425 -8.001421931671839 -4.755615134375 -8.00341796875 L -4.75048818125 -8.00341796875 " stroke="#191919" stroke-width="0.7 px" style="stroke-width:0.7;stroke-miterlimit:4;stroke-dasharray:none;stroke-linecap:square;fill:none;fill-opacity:1;fill-rule: evenodd"/>
<path id="Slice_child2_cs001_w0011"  d="M -0.29573557708333365 -4.5 L -1.9500324520833332 -4.5 Q -2.160752981749062 -4.514798969015603 -2.192708233333333 -4.7392578125 L -2.192708233333333 -7.75732421875 Q -2.1634754742870173 -7.972295874605685 -1.9500324520833334 -8.0 L -0.29573557708333365 -8.0 Q -0.05700444612996791 -7.967292684894698 -0.05476878020833275 -7.7607421875 Q -0.057012862007591036 -7.554162056528172 -0.29573557708333365 -7.519775390625 L -1.7124836239583332 -7.519775390625 L -1.7124836239583332 -6.39697265625 L -0.6324054989583336 -6.39697265625 Q -0.39192332803174845 -6.364211443865287 -0.38972971770833365 -6.154296875 Q -0.39200549005900154 -5.945993001031427 -0.6324054989583336 -5.91162109375 L -1.7124836239583332 -5.91162109375 L -1.7124836239583332 -4.976806640625 L -0.29573557708333365 -4.976806640625 Q -0.056205570350829126 -4.9619107290436855 -0.054768780208332764 -4.7392578125 Q -0.05628598625521092 -4.518197436786693 -0.29573557708333365 -4.5 " stroke="#191919" stroke-width="0.7 px" style="stroke-width:0.7;stroke-miterlimit:4;stroke-dasharray:none;stroke-linecap:square;fill:none;fill-opacity:1;fill-rule: evenodd"/>
<path id="Slice_child2_cs001_w0012"  d="M -8.49609365 -1.537109375 Q -8.093501009119645 -1.4595888015415124 -7.853515525000001 -1.1132812500000002 L -7.667236228125001 -0.547607421875 L -7.667236228125001 -0.5424804687500004 L -7.684326071875001 -0.361328125 Q -7.752213898342563 0.011610370274768689 -8.03466786875 0.2564127604166666 Q -8.318430167459265 0.5003472025677645 -8.699462790625 0.5 L -9.7607420875 0.5 L -9.930842998958333 0.429931640625 L -9.999999899999999 0.2607421875 L -9.9999999 -2.759033203125 L -9.906005759375 -2.94873046875 L -9.76416005625 -3.001708984375 L -9.653076071875 -2.97265625 L -9.51806630625 -2.759033203125 L -9.51806630625 -1.555908203125 L -9.0908202125 -1.555908203125 L -8.248290915625 -2.88720703125 L -8.0927733375 -2.9931640625 L -8.04150380625 -2.998291015625 L -7.903076071875001 -2.953857421875 L -7.798828025000001 -2.77099609375 L -7.841552634375001 -2.629150390625 L -8.528564353125 -1.542236328125 L -8.49609365 -1.537109375 " stroke="#191919" stroke-width="0.7 px" style="stroke-width:0.7;stroke-miterlimit:4;stroke-dasharray:none;stroke-linecap:square;fill:none;fill-opacity:1;fill-rule: evenodd"/>
<path id="Slice_child2_cs001_w0013"  d="M -6.965071514583334 -3.00341796875 Q -6.750779335624903 -2.998478710119989 -6.732649639583334 -2.76416015625 L -6.732649639583334 -1.357666015625 L -5.356917217708333 -1.357666015625 L -5.356917217708333 -2.76416015625 Q -5.3224490871855705 -3.0012770859294022 -5.115950420833334 -3.00341796875 L -5.114241436458333 -3.005126953125 Q -4.907630980132806 -3.002873835653645 -4.871565655208333 -2.76416015625 L -4.871565655208333 0.25732421875 Q -4.9075484278429276 0.49764188067170034 -5.114241436458333 0.5 L -5.115950420833334 0.5 Q -5.322612435323849 0.497651011363593 -5.356917217708333 0.25732421875 L -5.356917217708333 -0.872314453125 L -6.732649639583334 -0.872314453125 L -6.732649639583334 0.25732421875 Q -6.75062345288621 0.49486281065837345 -6.965071514583334 0.5 L -6.971907452083334 0.5 Q -7.180211326051926 0.4977242276493139 -7.214583233333334 0.25732421875 L -7.214583233333334 -2.76416015625 Q -7.179976867875166 -3.001421931671846 -6.970198467708334 -3.00341796875 L -6.965071514583334 -3.00341796875 " stroke="#191919" stroke-width="0.7 px" style="stroke-width:0.7;stroke-miterlimit:4;stroke-dasharray:none;stroke-linecap:square;fill:none;fill-opacity:1;fill-rule: evenodd"/>
<circle cx="33.108673" cy="-38.015279" r="1.2" stroke="#191919" stroke-width="0.7 px" style="stroke-width:0.7;stroke-miterlimit:4;stroke-dasharray:none;stroke-linecap:square;fill:none"/>
<circle cx="0.0" cy="-14.0" r="4.5" stroke="#191919" stroke-width="0.7 px" style="stroke-width:0.7;stroke-miterlimit:4;stroke-dasharray:none;stroke-linecap:square;fill:none"/>
<path id="Slice_child2_cs001_w0016"  d="M 0.629622495833333 -7.97607421875 L 0.727034605208333 -7.994873046875 L 0.954329527083333 -7.837646484375 L 1.125227964583333 -7.36083984375 L 2.504378355208334 -7.357421875 L 2.680403745833334 -7.841064453125 L 2.926497495833334 -8.00341796875 L 2.929915464583333 -8.00341796875 L 2.986311948958334 -7.984619140625 Q 3.143538753226745 -7.939885478087417 3.143538511458334 -7.77099609375 L 3.133284605208334 -7.6787109375 L 2.037825620833333 -4.6572265625 L 1.819075620833333 -4.5 L 1.8105306989583339 -4.5 L 1.595198667708333 -4.6572265625 L 0.506575620833333 -7.700927734375 L 0.5031576520833339 -7.755615234375 L 0.629622495833333 -7.97607421875 " stroke="#191919" stroke-width="0.7 px" style="stroke-width:0.7;stroke-miterlimit:4;stroke-dasharray:none;stroke-linecap:square;fill:none;fill-opacity:1;fill-rule: evenodd"/>
<path id="Slice_child2_cs001_w0017"  d="M 4.592985126041667 -8.0 Q 4.801184003337699 -7.997912629052131 4.839078876041667 -7.7607421875 L 4.839078876041667 -4.98193359375 L 5.464567157291667 -4.98193359375 Q 5.700871757247706 -4.9651859648532835 5.702115985416666 -4.74267578125 Q 5.700945532843324 -4.518519716322109 5.464567157291667 -4.5 L 3.7299480166666674 -4.5 Q 3.492035705945898 -4.520046995101431 3.4906902041666656 -4.74267578125 Q 3.4921090120780147 -4.963655270743882 3.7299480166666674 -4.98193359375 L 4.357145282291667 -4.98193359375 L 4.357145282291667 -7.7607421875 Q 4.37520304032285 -7.99498678483609 4.587858172916666 -8.0 L 4.592985126041667 -8.0 " stroke="#191919" stroke-width="0.7 px" style="stroke-width:0.7;stroke-miterlimit:4;stroke-dasharray:none;stroke-linecap:square;fill:none;fill-opacity:1;fill-rule: evenodd"/>
<path id="Slice_child2_cs001_w0018"  d="M -0.9072915666666681 0.2607421875 L -0.9072915666666681 -2.759033203125 Q -0.879351550557818 -2.998079514397869 -0.6663247697916681 -3.0 Q -0.4532718987292005 -2.9980730015465014 -0.4236489885416681 -2.759033203125 L -0.4236489885416681 -1.51318359375 L 0.4069174177083319 -1.51318359375 L 0.4393881208333319 -1.511474609375 L 0.9811361677083319 -1.3312337239583334 L 1.340022886458332 -0.88427734375 L 1.416927183333332 -0.51513671875 L 1.343440855208332 -0.144287109375 Q 1.1982303673064094 0.2326022197116121 0.8427084333333319 0.40087890625 L 0.4393881208333319 0.5 L -0.6817056291666681 0.5 Q -0.8818998436673018 0.4718957932637411 -0.9072915666666681 0.2607421875 " stroke="#191919" stroke-width="0.7 px" style="stroke-width:0.7;stroke-miterlimit:4;stroke-dasharray:none;stroke-linecap:square;fill:none;fill-opacity:1;fill-rule: evenodd"/>
<path id="Slice_child2_cs001_w0019"  d="M 3.403906349999998 -1.537109375 Q 3.806498990880349 -1.4595888015415173 4.046484475 -1.11328125 L 4.232763771875 -0.547607421875 L 4.232763771875 -0.5424804687500004 L 4.215673928124998 -0.361328125 Q 4.1477861016574264 0.011610370274785287 3.8653321312499997 0.2564127604166666 Q 3.58156983254072 0.5003472025677704 3.200537209374998 0.5 L 2.1392579124999997 0.5 L 1.9691570010416655 0.429931640625 L 1.9000000999999997 0.2607421875 L 1.9000000999999997 -2.759033203125 L 1.9939942406249997 -2.94873046875 L 2.1358399437499997 -3.001708984375 L 2.246923928124998 -2.97265625 L 2.3819336937499997 -2.759033203125 L 2.3819336937499997 -1.555908203125 L 2.809179787499998 -1.555908203125 L 3.6517090843749997 -2.88720703125 L 3.8072266624999997 -2.9931640625 L 3.8584961937499997 -2.998291015625 L 3.9969239281249997 -2.953857421875 L 4.101171975 -2.77099609375 L 4.058447365625 -2.629150390625 L 3.3714356468749997 -1.542236328125 L 3.403906349999998 -1.537109375 " stroke="#191919" stroke-width="0.7 px" style="stroke-width:0.7;stroke-miterlimit:4;stroke-dasharray:none;stroke-linecap:square;fill:none;fill-opacity:1;fill-rule: evenodd"/>
<path id="Slice_child2_cs001_w0020"  d="M 5.866324969791664 0.5 L 5.444205829166666 0.3837890625 Q 5.0187200113025625 0.13026205551423117 4.842643329166666 -0.376708984375 L 4.685416766666666 -1.2585449218750002 L 4.692252704166666 -1.45166015625 Q 4.7314501415209005 -1.995587469722949 5.008414813541666 -2.451416015625 Q 5.283836024101046 -2.8998820165908796 5.801383563541666 -2.991455078125 L 5.944938251041666 -3.00341796875 L 6.382438251041664 -2.86328125 L 6.797721454166668 -2.4189453125 Q 7.042065422724359 -1.9925324675291032 7.077994891666664 -1.4892578125 L 7.084830829166664 -1.291015625 L 6.958365985416668 -0.506591796875 L 6.553336688541668 0.18292643229166705 Q 6.285367693251007 0.4999187328368029 5.866324969791664 0.5 " stroke="#191919" stroke-width="0.7 px" style="stroke-width:0.7;stroke-miterlimit:4;stroke-dasharray:none;stroke-linecap:square;fill:none;fill-opacity:1;fill-rule: evenodd"/>
<path id="Slice_child2_cs001_w0021"  d="M 7.5364584333333315 0.25732421875 L 7.5364584333333315 -2.762451171875 Q 7.569220595885333 -2.970759668810131 7.7791342145833315 -3.0 L 8.693440855208335 -3.0 Q 9.068420758225638 -2.9774653260594044 9.337727964583332 -2.7804524739583334 L 9.703450620833335 -2.30615234375 L 9.768392027083332 -1.94384765625 L 9.742757261458335 -1.70458984375 Q 9.673422394110936 -1.375564963710355 9.414632261458335 -1.1064453125000004 L 9.717122495833332 -0.61083984375 L 9.742757261458335 -0.40234375 L 9.742757261458335 -0.390380859375 L 9.693196714583332 -0.10498046875 L 9.386377053125 0.30346679687500044 L 8.840413511458335 0.5 L 7.7791342145833315 0.5 Q 7.565857113495805 0.4690726805818677 7.5364584333333315 0.25732421875 " stroke="#191919" stroke-width="0.7 px" style="stroke-width:0.7;stroke-miterlimit:4;stroke-dasharray:none;stroke-linecap:square;fill:none;fill-opacity:1;fill-rule: evenodd"/>
<path id="Slice_child2_cs001_w0022"  d="M 12.109472756249998 0.5 L 10.455175881249998 0.5 Q 10.244455351584271 0.4852010309843976 10.212500099999998 0.2607421875 L 10.212500099999998 -2.75732421875 Q 10.241732859046323 -2.9722958746056882 10.455175881249998 -3.0 L 12.109472756249998 -3.0 Q 12.348203887203365 -2.9672926848946943 12.350439553124998 -2.7607421875 Q 12.348195471325717 -2.55416205652815 12.109472756249998 -2.519775390625 L 10.692724709374998 -2.519775390625 L 10.692724709374998 -1.3969726562500002 L 11.772802834374998 -1.3969726562500002 Q 12.013285005301558 -1.364211443865314 12.015478615624998 -1.154296875 Q 12.01320284327435 -0.9459930010314541 11.772802834374998 -0.91162109375 L 10.692724709374998 -0.91162109375 L 10.692724709374998 0.023193359375 L 12.109472756249998 0.023193359375 Q 12.349002762982494 0.03808927095630976 12.350439553124998 0.2607421875 Q 12.34892234707813 0.4818025632132965 12.109472756249998 0.5 " stroke="#191919" stroke-width="0.7 px" style="stroke-width:0.7;stroke-miterlimit:4;stroke-dasharray:none;stroke-linecap:square;fill:none;fill-opacity:1;fill-rule: evenodd"/>
<path id="Slice_child2_cs001_w0023"  d="M -51.897704978125 20.0 Q -51.689506100828936 20.00208737094789 -51.651611228125 20.2392578125 L -51.651611228125 23.01806640625 L -51.026122946875 23.01806640625 Q -50.78981834691895 23.034814035146724 -50.78857411875 23.25732421875 Q -50.789744571323354 23.481480283677918 -51.026122946875 23.5 L -52.7607420875 23.5 Q -52.998654398220765 23.47995300489857 -52.9999999 23.25732421875 Q -52.998581092088656 23.036344729256136 -52.7607420875 23.01806640625 L -52.133544821875 23.01806640625 L -52.133544821875 20.2392578125 Q -52.1154870638438 20.0050132151639 -51.90283193125 20.0 L -51.897704978125 20.0 " stroke="#191919" stroke-width="0.7 px" style="stroke-width:0.7;stroke-miterlimit:4;stroke-dasharray:none;stroke-linecap:square;fill:none;fill-opacity:1;fill-rule: evenodd"/>
<circle cx="-48.0" cy="14.0" r="4.5" stroke="#191919" stroke-width="0.7 px" style="stroke-width:0.7;stroke-miterlimit:4;stroke-dasharray:none;stroke-linecap:square;fill:none"/>
<path id="Slice_child2_cs001_w0025"  d="M -48.7794920875 21.462890625 Q -48.37689944661971 21.540411198458443 -48.1369139625 21.88671875 L -47.950634665625 22.452392578125 L -47.950634665625 22.45751953125 L -47.967724509375 22.638671875 Q -48.03561233584255 23.01161037027473 -48.31806630625 23.256412760416666 Q -48.60182860495925 23.50034720256776 -48.982861228124996 23.5 L -50.044140524999996 23.5 L -50.21424143645833 23.429931640625 L -50.283398337499996 23.2607421875 L -50.283398337499996 20.240966796875 L -50.189404196874996 20.05126953125 L -50.047558493749996 19.998291015625 L -49.936474509374996 20.02734375 L -49.801464743749996 20.240966796875 L -49.801464743749996 21.444091796875 L -49.374218649999996 21.444091796875 L -48.531689353125 20.11279296875 L -48.376171775 20.0068359375 L -48.324902243749996 20.001708984375 L -48.186474509374996 20.046142578125 L -48.082226462499996 20.22900390625 L -48.124951071875 20.370849609375 L -48.811962790624996 21.457763671875 L -48.7794920875 21.462890625 " stroke="#191919" stroke-width="0.7 px" style="stroke-width:0.7;stroke-miterlimit:4;stroke-dasharray:none;stroke-linecap:square;fill:none;fill-opacity:1;fill-rule: evenodd"/>
<path id="Slice_child2_cs001_w0026"  d="M -47.25530588958333 23.5 L -47.25701487395833 23.5 Q -47.462064794107604 23.497569111477603 -47.49798167083333 23.25732421875 L -47.49798167083333 20.23583984375 Q -47.46183431424096 19.99873193901295 -47.25530588958333 19.99658203125 L -47.25359690520833 19.99658203125 Q -47.04871033133918 19.99880373696997 -47.01263010833333 20.23583984375 L -47.01263010833333 23.25732421875 Q -47.048612880967895 23.497641880671665 -47.25530588958333 23.5 " stroke="#191919" stroke-width="0.7 px" style="stroke-width:0.7;stroke-miterlimit:4;stroke-dasharray:none;stroke-linecap:square;fill:none;fill-opacity:1;fill-rule: evenodd"/>
<path id="Slice_child2_cs001_w0027"  d="M -44.15270172291667 23.491455078125 L -44.21593414479167 23.5 L -44.42613922291667 23.3837890625 L -45.25670562916667 21.970458984375 L -46.07872711354167 23.3837890625 L -46.29064117604167 23.5 L -46.30089508229167 23.5 L -46.35558258229167 23.4931640625 Q -46.515192628327625 23.44918690907268 -46.52819000416667 23.25732421875 L -46.52819000416667 20.2392578125 Q -46.511596750033675 20.004791623345668 -46.29405914479167 20.00341796875 L -46.29064117604167 20.00341796875 Q -46.07135128847109 20.004740248161376 -46.04454742604167 20.2392578125 L -46.04625641041667 22.36865234375 L -45.46349273854167 21.37060546875 L -45.26695953541667 21.252685546875 L -45.25670562916667 21.252685546875 L -45.04820953541667 21.37060546875 L -44.46202789479167 22.373779296875 L -44.46202789479167 20.2392578125 Q -44.427559764268935 20.002140882820626 -44.22106109791667 20.0 L -44.21593414479167 20.0 Q -44.015982730317745 20.002434270370593 -43.98009430104167 20.2392578125 L -43.98009430104167 23.25732421875 Q -43.994679024896726 23.450733707009853 -44.15270172291667 23.491455078125 " stroke="#191919" stroke-width="0.7 px" style="stroke-width:0.7;stroke-miterlimit:4;stroke-dasharray:none;stroke-linecap:square;fill:none;fill-opacity:1;fill-rule: evenodd"/>
<circle cx="-24.0" cy="14.000000000000002" r="4.5" stroke="#191919" stroke-width="0.7 px" style="stroke-width:0.7;stroke-miterlimit:4;stroke-dasharray:none;stroke-linecap:square;fill:none"/>
<path id="Slice_child2_cs001_w0029"  d="M -27.897704978125 20.0 Q -27.68950610082894 20.00208737094789 -27.651611228125 20.2392578125 L -27.651611228125 23.01806640625 L -27.026122946875 23.01806640625 Q -26.789818346918967 23.03481403514671 -26.78857411875 23.25732421875 Q -26.78974457132337 23.481480283677918 -27.026122946875 23.5 L -28.7607420875 23.5 Q -28.99865439822077 23.47995300489856 -28.9999999 23.25732421875 Q -28.998581092088646 23.036344729256115 -28.7607420875 23.01806640625 L -28.133544821875 23.01806640625 L -28.133544821875 20.2392578125 Q -28.115487063843805 20.0050132151639 -27.90283193125 20.0 L -27.897704978125 20.0 " stroke="#191919" stroke-width="0.7 px" style="stroke-width:0.7;stroke-miterlimit:4;stroke-dasharray:none;stroke-linecap:square;fill:none;fill-opacity:1;fill-rule: evenodd"/>
<path id="Slice_child2_cs001_w0030"  d="M -24.7794920875 21.462890625 Q -24.376899446619646 21.540411198458486 -24.1369139625 21.88671875 L -23.950634665625 22.452392578125 L -23.950634665625 22.45751953125 L -23.967724509375 22.638671875 Q -24.03561233584255 23.01161037027476 -24.31806630625 23.256412760416666 Q -24.60182860495923 23.500347202567752 -24.982861228125 23.5 L -26.044140525 23.5 L -26.214241436458334 23.429931640625 L -26.2833983375 23.2607421875 L -26.2833983375 20.240966796875 L -26.189404196875 20.05126953125 L -26.04755849375 19.998291015625 L -25.936474509375 20.02734375 L -25.80146474375 20.240966796875 L -25.80146474375 21.444091796875 L -25.37421865 21.444091796875 L -24.531689353125 20.11279296875 L -24.376171775 20.0068359375 L -24.32490224375 20.001708984375 L -24.186474509375 20.046142578125 L -24.0822264625 20.22900390625 L -24.124951071875 20.370849609375 L -24.811962790625 21.457763671875 L -24.7794920875 21.462890625 " stroke="#191919" stroke-width="0.7 px" style="stroke-width:0.7;stroke-miterlimit:4;stroke-dasharray:none;stroke-linecap:square;fill:none;fill-opacity:1;fill-rule: evenodd"/>
<path id="Slice_child2_cs001_w0031"  d="M -23.255305889583333 23.5 L -23.257014873958333 23.5 Q -23.4620647941076 23.497569111477596 -23.497981670833333 23.25732421875 L -23.497981670833333 20.23583984375 Q -23.461834314240956 19.99873193901295 -23.255305889583333 19.99658203125 L -23.253596905208333 19.99658203125 Q -23.048710331339176 19.99880373696996 -23.012630108333333 20.23583984375 L -23.012630108333333 23.25732421875 Q -23.048612880967905 23.49764188067168 -23.255305889583333 23.5 " stroke="#191919" stroke-width="0.7 px" style="stroke-width:0.7;stroke-miterlimit:4;stroke-dasharray:none;stroke-linecap:square;fill:none;fill-opacity:1;fill-rule: evenodd"/>
<path id="Slice_child2_cs001_w0032"  d="M -20.152701722916667 23.491455078125 L -20.215934144791667 23.5 L -20.426139222916667 23.3837890625 L -21.256705629166664 21.970458984375 L -22.078727113541664 23.3837890625 L -22.290641176041667 23.5 L -22.300895082291667 23.5 L -22.355582582291667 23.4931640625 Q -22.515192628327615 23.449186909072694 -22.528190004166667 23.25732421875 L -22.528190004166667 20.2392578125 Q -22.51159675003368 20.00479162334566 -22.294059144791667 20.00341796875 L -22.290641176041667 20.00341796875 Q -22.071351288471096 20.00474024816137 -22.044547426041667 20.2392578125 L -22.046256410416667 22.36865234375 L -21.463492738541667 21.37060546875 L -21.266959535416667 21.252685546875 L -21.256705629166667 21.252685546875 L -21.048209535416667 21.37060546875 L -20.462027894791667 22.373779296875 L -20.462027894791667 20.2392578125 Q -20.42755976426892 20.002140882820612 -20.221061097916667 20.0 L -20.215934144791667 20.0 Q -20.015982730317752 20.0024342703706 -19.980094301041667 20.2392578125 L -19.980094301041667 23.25732421875 Q -19.994679024896733 23.45073370700986 -20.152701722916667 23.491455078125 " stroke="#191919" stroke-width="0.7 px" style="stroke-width:0.7;stroke-miterlimit:4;stroke-dasharray:none;stroke-linecap:square;fill:none;fill-opacity:1;fill-rule: evenodd"/>
<path id="Slice_child2_cs001_w0033"  d="M -3.0908202125 22.219970703125 L -3.109619040625 22.228515625 L -3.12841786875 22.239567057291666 L -3.143798728125 22.250732421875 L -3.321533103125 22.544677734375 L -3.324951071875 22.6044921875 L -3.260009665625 22.8232421875 Q -3.138600036769497 23.0178608241781 -2.90966786875 23.021484375 L -2.75244130625 23.016357421875 L -2.641357321875 22.99755859375 L -2.5636554989583336 22.969303385416666 L -2.490966696875 22.92919921875 L -2.3500324520833336 22.757389322916666 L -2.255126853125 22.554931640625 L -2.0927733375 22.418212890625 L -2.032958884375 22.411376953125 L -1.8979491187500002 22.455810546875 L -1.8620604468750002 22.486572265625 L -1.8193358375000002 22.551513671875 L -1.7954100562500002 22.647216796875 L -1.8022459937500002 22.70361328125 L -1.8176268531250002 22.748046875 L -2.0244139625 23.129150390625 L -2.354247946875 23.406005859375 L -2.52685536875 23.461490885416666 L -2.7045897437500006 23.494873046875 L -2.892578025 23.5 Q -3.339076472523814 23.499679478066888 -3.6137694312499997 23.1513671875 L -3.806884665625 22.62158203125 L -3.806884665625 22.616455078125 L -3.772704978125 22.366943359375 Q -3.6720930968244643 21.982168905239433 -3.290771384375 21.7841796875 L -3.26513661875 21.7705078125 L -2.473876853125 21.423583984375 L -2.3439940406250006 21.34326171875 L -2.1953124000000006 21.09033203125 L -2.1799315406250006 20.968994140625 L -2.2124022437500006 20.7998046875 Q -2.3373025224420294 20.486405681851878 -2.672119040625 20.4853515625 L -2.733642478125 20.4853515625 L -3.2412108375 20.55029296875 Q -3.4565352822945417 20.63893454936766 -3.5266112281249997 20.992919921875 L -3.53173818125 21.00830078125 L -3.7197264625 21.17578125 L -3.767578025 21.17919921875 L -3.93505849375 21.10400390625 L -3.9999999 20.941650390625 L -3.994872946875 20.886962890625 L -3.970947165625 20.767333984375 L -3.940185446875 20.651123046875 Q -3.7984404918501484 20.222597568217125 -3.42578115 20.106754557291666 L -2.668701071875 20.005126953125 L -2.21240224375 20.121337890625 L -1.8715168270833336 20.426334635416666 L -1.7082518531250002 20.856201171875 L -1.7014159156250002 20.970703125 L -1.7219237281250002 21.17236328125 Q -1.8029990897195882 21.565743877403342 -2.1406249 21.78759765625 L -2.1688801083333336 21.803776041666666 L -2.1953124 21.820068359375 L -2.2226561500000006 21.83544921875 L -2.25341786875 21.850830078125 L -2.28076161875 21.86279296875 L -3.0703124 22.21142578125 L -3.0908202125 22.219970703125 " stroke="#191919" stroke-width="0.7 px" style="stroke-width:0.7;stroke-miterlimit:4;stroke-dasharray:none;stroke-linecap:square;fill:none;fill-opacity:1;fill-rule: evenodd"/>
<path id="Slice_child2_cs001_w0034"  d="M -0.24160146250000025 20.0 L -0.23989247812500025 20.0 Q -0.07824158206360143 20.0009986146418 -0.010888571875000252 20.177734375 L 0.8025879906249993 23.197509765625 L 0.8111329125000002 23.27783203125 Q 0.8104526477584904 23.439017857435566 0.6385254906250002 23.48974609375 L 0.5530762718750002 23.50341796875 L 0.3377442406250002 23.322265625 L -0.24160146250000025 21.1689453125 L -0.8175291968749998 23.3017578125 L -1.0345702124999998 23.484619140625 L -1.1097655250000003 23.474365234375 Q -1.287437016299193 23.427894795955822 -1.2892088843749998 23.240234375 L -1.2840819312499998 23.177001953125 L -0.47402333750000025 20.1708984375 L -0.24160146250000025 20.0 " stroke="#191919" stroke-width="0.7 px" style="stroke-width:0.7;stroke-miterlimit:4;stroke-dasharray:none;stroke-linecap:square;fill:none;fill-opacity:1;fill-rule: evenodd"/>
<path id="Slice_child2_cs001_w0035"  d="M -50.87353505625 24.52392578125 L -50.776122946875 24.505126953125 L -50.548828025 24.662353515625 L -50.3779295875 25.13916015625 L -48.998779196875 25.142578125 L -48.82275380625 24.658935546875 L -48.57666005625 24.49658203125 L -48.5732420875 24.49658203125 L -48.516845603125 24.515380859375 Q -48.35961879885657 24.560114521912602 -48.359619040625 24.72900390625 L -48.369872946875 24.8212890625 L -49.46533193125 27.8427734375 L -49.68408193125 28.0 L -49.692626853125 28.0 L -49.907958884375 27.8427734375 L -50.99658193125 24.799072265625 L -50.9999999 24.744384765625 L -50.87353505625 24.52392578125 " stroke="#191919" stroke-width="0.7 px" style="stroke-width:0.7;stroke-miterlimit:4;stroke-dasharray:none;stroke-linecap:square;fill:none;fill-opacity:1;fill-rule: evenodd"/>
<path id="Slice_child2_cs001_w0036"  d="M -47.72194000416667 28.0 L -47.72364898854167 28.0 Q -47.92869890869092 27.997569111477624 -47.96461578541667 27.75732421875 L -47.96461578541667 24.73583984375 Q -47.92846842882429 24.49873193901294 -47.72194000416667 24.49658203125 L -47.72023101979167 24.49658203125 Q -47.51534444592248 24.498803736969982 -47.47926422291667 24.73583984375 L -47.47926422291667 27.75732421875 Q -47.51524699555124 27.99764188067168 -47.72194000416667 28.0 " stroke="#191919" stroke-width="0.7 px" style="stroke-width:0.7;stroke-miterlimit:4;stroke-dasharray:none;stroke-linecap:square;fill:none;fill-opacity:1;fill-rule: evenodd"/>
<path id="Slice_child2_cs001_w0037"  d="M -44.694531149999996 24.73583984375 Q -44.69637110635785 24.95047772898345 -44.935497946875 24.976806640625 L -46.512890525 24.97509765625 L -46.512890525 27.75732421875 Q -46.53086433830288 27.99486281065837 -46.745312399999996 28.0 L -46.7521483375 28.0 Q -46.96045221146857 27.997724227649343 -46.99482411875 27.75732421875 L -46.99482411875 24.73583984375 Q -46.96279092183297 24.513000034809316 -46.7521483375 24.498291015625 L -44.93720693125 24.498291015625 Q -44.6960675546097 24.513106213412676 -44.694531149999996 24.73583984375 " stroke="#191919" stroke-width="0.7 px" style="stroke-width:0.7;stroke-miterlimit:4;stroke-dasharray:none;stroke-linecap:square;fill:none;fill-opacity:1;fill-rule: evenodd"/>
<path id="Slice_child2_cs001_w0038"  d="M -28.5908202125 26.719970703125 L -28.609619040625 26.728515625 L -28.62841786875 26.739567057291666 L -28.643798728125 26.750732421875 L -28.821533103125 27.044677734375 L -28.824951071875 27.1044921875 L -28.760009665625 27.3232421875 Q -28.638600036769507 27.517860824178094 -28.40966786875 27.521484375 L -28.25244130625 27.516357421875 L -28.141357321875 27.49755859375 L -28.063655498958333 27.469303385416666 L -27.990966696875 27.42919921875 L -27.850032452083333 27.257389322916666 L -27.755126853125 27.054931640625 L -27.5927733375 26.918212890625 L -27.532958884375 26.911376953125 L -27.39794911875 26.955810546875 L -27.362060446875 26.986572265625 L -27.3193358375 27.051513671875 L -27.29541005625 27.147216796875 L -27.30224599375 27.20361328125 L -27.317626853125 27.248046875 L -27.5244139625 27.629150390625 L -27.854247946875 27.906005859375 L -28.02685536875 27.961490885416666 L -28.20458974375 27.994873046875 L -28.392578025 28.0 Q -28.839076472523804 27.999679478066895 -29.11376943125 27.6513671875 L -29.306884665625 27.12158203125 L -29.306884665625 27.116455078125 L -29.272704978125 26.866943359375 Q -29.172093096824423 26.482168905239376 -28.790771384375 26.2841796875 L -28.76513661875 26.2705078125 L -27.973876853125 25.923583984375 L -27.843994040625 25.84326171875 L -27.6953124 25.59033203125 L -27.679931540625 25.468994140625 L -27.71240224375 25.2998046875 Q -27.837302522442048 24.986405681851863 -28.172119040625 24.9853515625 L -28.233642478125 24.9853515625 L -28.7412108375 25.05029296875 Q -28.95653528229453 25.13893454936764 -29.026611228124995 25.492919921875 L -29.03173818125 25.50830078125 L -29.2197264625 25.67578125 L -29.267578025 25.67919921875 L -29.43505849375 25.60400390625 L -29.4999999 25.441650390625 L -29.494872946875 25.386962890625 L -29.470947165625 25.267333984375 L -29.440185446875 25.151123046875 Q -29.29844049185016 24.72259756821714 -28.92578115 24.606754557291666 L -28.168701071875 24.505126953125 L -27.71240224375 24.621337890625 L -27.371516827083333 24.926334635416666 L -27.208251853125 25.356201171875 L -27.201415915625 25.470703125 L -27.221923728125 25.67236328125 Q -27.30299908971958 26.065743877403335 -27.6406249 26.28759765625 L -27.668880108333333 26.303776041666666 L -27.6953124 26.320068359375 L -27.72265615 26.33544921875 L -27.75341786875 26.350830078125 L -27.78076161875 26.36279296875 L -28.5703124 26.71142578125 L -28.5908202125 26.719970703125 " stroke="#191919" stroke-width="0.7 px" style="stroke-width:0.7;stroke-miterlimit:4;stroke-dasharray:none;stroke-linecap:square;fill:none;fill-opacity:1;fill-rule: evenodd"/>
<path id="Slice_child2_cs001_w0039"  d="M -25.733056540625 24.5 Q -25.524857663328945 24.50208737094789 -25.486962790625 24.7392578125 L -25.486962790625 27.51806640625 L -24.861474509375 27.51806640625 Q -24.625169909418965 27.53481403514671 -24.62392568125 27.75732421875 Q -24.62509613382337 27.981480283677918 -24.861474509375 28.0 L -26.59609365 28.0 Q -26.834005960720773 27.97995300489856 -26.8353514625 27.75732421875 Q -26.833932654588644 27.536344729256115 -26.59609365 27.51806640625 L -25.968896384375 27.51806640625 L -25.968896384375 24.7392578125 Q -25.95083862634381 24.5050132151639 -25.73818349375 24.5 L -25.733056540625 24.5 " stroke="#191919" stroke-width="0.7 px" style="stroke-width:0.7;stroke-miterlimit:4;stroke-dasharray:none;stroke-linecap:square;fill:none;fill-opacity:1;fill-rule: evenodd"/>
<path id="Slice_child2_cs001_w0040"  d="M -23.906835837499997 24.52392578125 L -23.809423728124997 24.505126953125 L -23.582128806249997 24.662353515625 L -23.411230368749997 25.13916015625 L -22.032079978124997 25.142578125 L -21.856054587499997 24.658935546875 L -21.609960837499997 24.49658203125 L -21.606542868749997 24.49658203125 L -21.550146384374997 24.515380859375 Q -21.392919580106586 24.56011452191259 -21.392919821874997 24.72900390625 L -21.403173728124997 24.8212890625 L -22.498632712499997 27.8427734375 L -22.717382712499997 28.0 L -22.725927634374997 28.0 L -22.941259665624997 27.8427734375 L -24.029882712499997 24.799072265625 L -24.033300681249997 24.744384765625 L -23.906835837499997 24.52392578125 " stroke="#191919" stroke-width="0.7 px" style="stroke-width:0.7;stroke-miterlimit:4;stroke-dasharray:none;stroke-linecap:square;fill:none;fill-opacity:1;fill-rule: evenodd"/>
<path id="Slice_child2_cs001_w0041"  d="M -20.997916566666667 27.75732421875 L -20.997916566666667 24.737548828125 Q -20.965154404114656 24.529240331189854 -20.755240785416667 24.5 L -19.840934144791667 24.5 Q -19.465954241774448 24.522534673940562 -19.196647035416667 24.719547526041666 L -18.830924379166667 25.19384765625 L -18.765982972916667 25.55615234375 L -18.791617738541667 25.79541015625 Q -18.86095260588906 26.124435036289647 -19.119742738541667 26.3935546875 L -18.817252504166667 26.88916015625 L -18.791617738541667 27.09765625 L -18.791617738541667 27.109619140625 L -18.841178285416667 27.39501953125 L -19.147997946875 27.803466796875 L -19.693961488541667 28.0 L -20.755240785416667 28.0 Q -20.968517886504195 27.969072680581874 -20.997916566666667 27.75732421875 " stroke="#191919" stroke-width="0.7 px" style="stroke-width:0.7;stroke-miterlimit:4;stroke-dasharray:none;stroke-linecap:square;fill:none;fill-opacity:1;fill-rule: evenodd"/>
<path id="Slice_child2_cs001_w0042"  d="M -2.49609365 25.962890625 Q -2.0935010091196595 26.04041119845848 -1.8535155250000004 26.38671875 L -1.6672362281250002 26.952392578125 L -1.6672362281250002 26.95751953125 L -1.6843260718750002 27.138671875 Q -1.752213898342534 27.511610370274717 -2.0346678687500006 27.756412760416666 Q -2.3184301674592707 28.000347202567767 -2.6994627906250006 28.0 L -3.7607420875 28.0 L -3.9308429989583336 27.929931640625 L -3.9999999 27.7607421875 L -3.9999999 24.740966796875 L -3.906005759375 24.55126953125 L -3.76416005625 24.498291015625 L -3.653076071875 24.52734375 L -3.51806630625 24.740966796875 L -3.51806630625 25.944091796875 L -3.0908202125 25.944091796875 L -2.248290915625 24.61279296875 L -2.0927733375 24.5068359375 L -2.04150380625 24.501708984375 L -1.9030760718750002 24.546142578125 L -1.7988280250000002 24.72900390625 L -1.8415526343750002 24.870849609375 L -2.528564353125 25.957763671875 L -2.49609365 25.962890625 " stroke="#191919" stroke-width="0.7 px" style="stroke-width:0.7;stroke-miterlimit:4;stroke-dasharray:none;stroke-linecap:square;fill:none;fill-opacity:1;fill-rule: evenodd"/>
<path id="Slice_child2_cs001_w0043"  d="M 0.8703777041666663 27.99658203125 L 0.8327800479166663 27.998291015625 Q 0.6480153100592445 27.997715916508255 0.6123210635416663 27.806884765625 L 0.6089030947916663 27.7607421875 L 0.6089030947916663 25.653564453125 L 0.5208334333333329 25.325439453125 L 0.28761403229166627 25.082763671875 L -0.07127268645833373 24.9716796875 L -0.38743479583333373 25.065673828125 Q -0.7097016175629927 25.263588538946806 -0.7326496395833333 25.653564453125 L -0.7326496395833333 27.7607421875 Q -0.7328543659599132 27.957004238605258 -0.9240558895833333 27.994873046875 L -0.9855793270833333 28.001708984375 L -1.1957844052083333 27.85302734375 L -1.2145832333333333 27.7607421875 L -1.2145832333333333 25.619384765625 Q -1.1942672544443345 25.10756421848061 -0.8497720354166666 24.808414713541666 Q -0.5195070429708925 24.53329412059702 -0.10887034270833373 24.513671875 L -0.059309795833333734 24.511962890625 Q 0.3238102320148908 24.513961060742652 0.6533366885416663 24.74609375 Q 1.0200762573570974 25.014395751798915 1.0822917666666672 25.516845703125 L 1.0891277041666663 25.619384765625 L 1.0891277041666663 27.7607421875 Q 1.0885495037814095 27.97591893207411 0.8703777041666663 27.99658203125 " stroke="#191919" stroke-width="0.7 px" style="stroke-width:0.7;stroke-miterlimit:4;stroke-dasharray:none;stroke-linecap:square;fill:none;fill-opacity:1;fill-rule: evenodd"/>
<circle cx="0.0" cy="14.000000000000002" r="4.5" stroke="#191919" stroke-width="0.7 px" style="stroke-width:0.7;stroke-miterlimit:4;stroke-dasharray:none;stroke-linecap:square;fill:none"/>
<path id="Slice_child2_cs001_w0045"  d="M 2.467366636458333 23.5 L 2.045247495833333 23.3837890625 Q 1.619761677969244 23.13026205551425 1.4436849958333329 22.623291015625 L 1.2864584333333329 21.741455078125 L 1.2932943708333329 21.54833984375 Q 1.332491808187559 21.004412530277072 1.6094564802083329 20.548583984375 Q 1.884877690767713 20.10011798340912 2.402425230208333 20.008544921875 L 2.545979917708333 19.99658203125 L 2.983479917708333 20.13671875 L 3.3987631208333324 20.5810546875 Q 3.643107089391023 21.007467532470898 3.679036558333333 21.5107421875 L 3.685872495833333 21.708984375 L 3.559407652083333 22.493408203125 L 3.1543783552083324 23.182926432291666 Q 2.8864093599176828 23.499918732836797 2.467366636458333 23.5 " stroke="#191919" stroke-width="0.7 px" style="stroke-width:0.7;stroke-miterlimit:4;stroke-dasharray:none;stroke-linecap:square;fill:none;fill-opacity:1;fill-rule: evenodd"/>
<circle cx="24.0" cy="14.000000000000002" r="4.5" stroke="#191919" stroke-width="0.7 px" style="stroke-width:0.7;stroke-miterlimit:4;stroke-dasharray:none;stroke-linecap:square;fill:none"/>
<path id="Slice_child2_cs001_w0047"  d="M 17.74951181875 20.00341796875 Q 17.96540172382481 20.00827866850939 17.980224709375 20.24267578125 L 17.980224709375 21.604736328125 L 19.08251963125 21.604736328125 Q 19.31978140667185 21.639342693583174 19.32177744375 21.84912109375 Q 19.320285144552848 22.06844940513821 19.08251963125 22.0849609375 L 17.980224709375 22.0849609375 L 17.980224709375 23.019775390625 L 19.3935547875 23.019775390625 Q 19.633120741661557 23.034708085702846 19.634521584375 23.258121744791666 Q 19.633315598095606 23.48151841654414 19.39697275625 23.5 L 17.74267588125 23.5 Q 17.530350288568833 23.481878355634947 17.5000001 23.25732421875 L 17.5000001 20.24267578125 Q 17.5329259075734 20.005405526990216 17.74267588125 20.00341796875 L 17.74951181875 20.00341796875 " stroke="#191919" stroke-width="0.7 px" style="stroke-width:0.7;stroke-miterlimit:4;stroke-dasharray:none;stroke-linecap:square;fill:none;fill-opacity:1;fill-rule: evenodd"/>
<path id="Slice_child2_cs001_w0048"  d="M 22.410709735416667 20.23583984375 Q 22.408869779058808 20.45047772898345 22.169742938541667 20.476806640625 L 20.592350360416667 20.47509765625 L 20.592350360416667 23.25732421875 Q 20.57437654711378 23.49486281065839 20.359928485416667 23.5 L 20.353092547916667 23.5 Q 20.144788673948113 23.497724227649343 20.110416766666667 23.25732421875 L 20.110416766666667 20.23583984375 Q 20.142449963583715 20.013000034809302 20.353092547916667 19.998291015625 L 22.168033954166667 19.998291015625 Q 22.40917333080697 20.013106213412684 22.410709735416667 20.23583984375 " stroke="#191919" stroke-width="0.7 px" style="stroke-width:0.7;stroke-miterlimit:4;stroke-dasharray:none;stroke-linecap:square;fill:none;fill-opacity:1;fill-rule: evenodd"/>
<path id="Slice_child2_cs001_w0049"  d="M 23.107747495833333 20.02392578125 L 23.205159605208333 20.005126953125 L 23.432454527083333 20.162353515625 L 23.603352964583333 20.63916015625 L 24.982503355208333 20.642578125 L 25.158528745833333 20.158935546875 L 25.404622495833333 19.99658203125 L 25.408040464583333 19.99658203125 L 25.464436948958333 20.015380859375 Q 25.62166375322674 20.060114521912574 25.62166351145834 20.22900390625 L 25.611409605208337 20.3212890625 L 24.515950620833333 23.3427734375 L 24.297200620833333 23.5 L 24.288655698958333 23.5 L 24.073323667708333 23.3427734375 L 22.984700620833333 20.299072265625 L 22.981282652083333 20.244384765625 L 23.107747495833333 20.02392578125 " stroke="#191919" stroke-width="0.7 px" style="stroke-width:0.7;stroke-miterlimit:4;stroke-dasharray:none;stroke-linecap:square;fill:none;fill-opacity:1;fill-rule: evenodd"/>
<path id="Slice_child2_cs001_w0050"  d="M 26.016666766666667 23.2607421875 L 26.016666766666667 20.240966796875 Q 26.044606782775535 20.00192048560212 26.257633563541667 20.0 Q 26.470686434604136 20.0019269984535 26.500309344791667 20.240966796875 L 26.500309344791667 21.48681640625 L 27.330875751041667 21.48681640625 L 27.363346454166667 21.488525390625 L 27.905094501041667 21.668766276041666 L 28.263981219791667 22.11572265625 L 28.340885516666667 22.48486328125 L 28.267399188541667 22.855712890625 Q 28.122188700639715 23.232602219711644 27.766666766666667 23.40087890625 L 27.363346454166667 23.5 L 26.242252704166667 23.5 Q 26.042058489666022 23.471895793263727 26.016666766666667 23.2607421875 " stroke="#191919" stroke-width="0.7 px" style="stroke-width:0.7;stroke-miterlimit:4;stroke-dasharray:none;stroke-linecap:square;fill:none;fill-opacity:1;fill-rule: evenodd"/>
<path id="Slice_child2_cs001_w0051"  d="M 29.73313812083333 22.219970703125 L 29.714339292708335 22.228515625 L 29.695540464583335 22.239567057291666 L 29.68015960520833 22.250732421875 L 29.50242523020833 22.544677734375 L 29.499007261458335 22.6044921875 L 29.563948667708335 22.8232421875 Q 29.68535829656382 23.017860824178086 29.914290464583335 23.021484375 L 30.07151702708333 23.016357421875 L 30.182601011458335 22.99755859375 L 30.260302834375 22.969303385416666 L 30.332991636458335 22.92919921875 L 30.473925881250004 22.757389322916666 L 30.56883148020834 22.554931640625 L 30.73118499583334 22.418212890625 L 30.79099944895833 22.411376953125 L 30.92600921458333 22.455810546875 L 30.961897886458335 22.486572265625 L 31.00462249583333 22.551513671875 L 31.02854827708333 22.647216796875 L 31.021712339583335 22.70361328125 L 31.00633148020833 22.748046875 L 30.79954437083333 23.129150390625 L 30.46971038645833 23.406005859375 L 30.297102964583335 23.461490885416666 L 30.11936858958333 23.494873046875 L 29.93138030833333 23.5 Q 29.484881860809523 23.499679478066888 29.21018890208333 23.1513671875 L 29.01707366770834 22.62158203125 L 29.017073667708335 22.616455078125 L 29.05125335520833 22.366943359375 Q 29.151865236508904 21.982168905239376 29.53318694895833 21.7841796875 L 29.55882171458333 21.7705078125 L 30.350081480208335 21.423583984375 L 30.479964292708335 21.34326171875 L 30.628645933333335 21.09033203125 L 30.644026792708335 20.968994140625 L 30.61155608958333 20.7998046875 Q 30.486655810891314 20.486405681851878 30.15183929270833 20.4853515625 L 30.090315855208335 20.4853515625 L 29.58274749583333 20.55029296875 Q 29.3674230510388 20.638934549367647 29.29734710520833 20.992919921875 L 29.29222015208333 21.00830078125 L 29.10423187083334 21.17578125 L 29.056380308333335 21.17919921875 L 28.888899839583335 21.10400390625 L 28.823958433333335 20.941650390625 L 28.82908538645833 20.886962890625 L 28.85301116770833 20.767333984375 L 28.88377288645833 20.651123046875 Q 29.025517841483172 20.222597568217147 29.39817718333333 20.106754557291666 L 30.155257261458335 20.005126953125 L 30.61155608958333 20.121337890625 L 30.952441506249997 20.426334635416666 L 31.11570648020833 20.856201171875 L 31.122542417708335 20.970703125 L 31.10203460520833 21.17236328125 Q 31.020959243613767 21.565743877403314 30.68333343333333 21.78759765625 L 30.655078225 21.803776041666666 L 30.628645933333335 21.820068359375 L 30.60130218333333 21.83544921875 L 30.570540464583335 21.850830078125 L 30.543196714583335 21.86279296875 L 29.75364593333333 22.21142578125 L 29.73313812083333 22.219970703125 " stroke="#191919" stroke-width="0.7 px" style="stroke-width:0.7;stroke-miterlimit:4;stroke-dasharray:none;stroke-linecap:square;fill:none;fill-opacity:1;fill-rule: evenodd"/>
<path id="Slice_child2_cs001_w0052"  d="M 1.7444662458333329 24.5 L 2.551106870833333 24.5 Q 3.154115799907605 24.50600388408084 3.4483236677083333 25.046875 Q 3.749555812928955 25.603678322828912 3.747395933333334 26.25 Q 3.749579470299937 26.896208391710424 3.44912119375 27.453125 Q 3.1552947236608064 27.9943061952685 2.551106870833333 28.0 L 1.7478842145833329 28.0 Q 1.5581919613421447 27.99793057915835 1.5052084333333329 27.776123046875 L 1.5052084333333329 24.74267578125 Q 1.5052066961808468 24.553416790137355 1.6829428083333329 24.51025390625 L 1.7444662458333329 24.5 " stroke="#191919" stroke-width="0.7 px" style="stroke-width:0.7;stroke-miterlimit:4;stroke-dasharray:none;stroke-linecap:square;fill:none;fill-opacity:1;fill-rule: evenodd"/>
<circle cx="0.0" cy="38.015279" r="1.2" stroke="#191919" stroke-width="0.7 px" style="stroke-width:0.7;stroke-miterlimit:4;stroke-dasharray:none;stroke-linecap:square;fill:none"/>
<path id="Slice_child2_cs001_w0054"  d="M -50.080224509375 -5.15966796875 L -49.9486327125 -5.499755859375 L -49.953759665625 -5.574951171875 L -50.128987530208335 -5.899658203125 L -50.473290915625 -6.029541015625 L -51.303857321875 -6.029541015625 L -51.303857321875 -4.98193359375 L -50.473290915625 -4.98193359375 L -50.080224509375 -5.15966796875 " stroke="#191919" stroke-width="0.7 px" style="stroke-width:0.7;stroke-miterlimit:4;stroke-dasharray:none;stroke-linecap:square;fill:none;fill-opacity:1;fill-rule: evenodd"/>
<path id="Slice_child2_cs001_w0055"  d="M -44.99656565520833 -7.516357421875 L -44.99656565520833 -6.30810546875 L -44.30784495208333 -6.30810546875 Q -44.015033217657034 -6.344399211331348 -43.865217998958336 -6.535400390625 L -43.72679026458333 -6.919921875 L -43.72679026458333 -6.93701171875 L -43.88572581145833 -7.328369140625 Q -44.04333423195546 -7.5065359885476255 -44.32835276458333 -7.516357421875 L -44.99656565520833 -7.516357421875 " stroke="#191919" stroke-width="0.7 px" style="stroke-width:0.7;stroke-miterlimit:4;stroke-dasharray:none;stroke-linecap:square;fill:none;fill-opacity:1;fill-rule: evenodd"/>
<path id="Slice_child2_cs001_w0056"  d="M -43.86350901458333 -5.1220703125 L -43.75413401458333 -5.40234375 L -43.85667307708333 -5.67578125 L -44.17112620208333 -5.827880859375 L -44.99656565520833 -5.827880859375 L -44.99656565520833 -4.9853515625 L -44.17625315520833 -4.9853515625 L -43.86350901458333 -5.1220703125 " stroke="#191919" stroke-width="0.7 px" style="stroke-width:0.7;stroke-miterlimit:4;stroke-dasharray:none;stroke-linecap:square;fill:none;fill-opacity:1;fill-rule: evenodd"/>
<path id="Slice_child2_cs001_w0057"  d="M -9.51806630625 -1.0756835937499998 L -9.51806630625 0.01806640625 L -8.675537009375 0.01806640625 Q -8.406454929258523 -0.005572781550255215 -8.251708884375 -0.2177734375 L -8.15087880625 -0.5185546875 L -8.17822255625 -0.69287109375 L -8.377376202083333 -0.9697265625 L -8.699462790624999 -1.07568359375 L -9.51806630625 -1.0756835937499998 " stroke="#191919" stroke-width="0.7 px" style="stroke-width:0.7;stroke-miterlimit:4;stroke-dasharray:none;stroke-linecap:square;fill:none;fill-opacity:1;fill-rule: evenodd"/>
<path id="Slice_child2_cs001_w0058"  d="M 1.287581480208333 -6.877197265625 L 1.8105306989583339 -5.441650390625 L 2.330061948958333 -6.877197265625 L 1.287581480208333 -6.877197265625 " stroke="#191919" stroke-width="0.7 px" style="stroke-width:0.7;stroke-miterlimit:4;stroke-dasharray:none;stroke-linecap:square;fill:none;fill-opacity:1;fill-rule: evenodd"/>
<path id="Slice_child2_cs001_w0059"  d="M 0.7999838239583337 -0.15966796875 L 0.9315756208333319 -0.499755859375 L 0.9264486677083337 -0.574951171875 L 0.7512208031249994 -0.899658203125 L 0.4069174177083319 -1.029541015625 L -0.4236489885416681 -1.029541015625 L -0.4236489885416681 0.01806640625 L 0.4069174177083319 0.01806640625 L 0.7999838239583337 -0.15966796875 " stroke="#191919" stroke-width="0.7 px" style="stroke-width:0.7;stroke-miterlimit:4;stroke-dasharray:none;stroke-linecap:square;fill:none;fill-opacity:1;fill-rule: evenodd"/>
<path id="Slice_child2_cs001_w0060"  d="M 2.3819336937499997 -1.0756835937499998 L 2.3819336937499997 0.01806640625 L 3.2244629906249997 0.01806640625 Q 3.493545070741477 -0.005572781550253383 3.6482911156249997 -0.2177734375 L 3.7491211937499997 -0.5185546875 L 3.7217774437499997 -0.69287109375 L 3.5226237979166655 -0.9697265625 L 3.200537209374998 -1.07568359375 L 2.3819336937499997 -1.0756835937499998 " stroke="#191919" stroke-width="0.7 px" style="stroke-width:0.7;stroke-miterlimit:4;stroke-dasharray:none;stroke-linecap:square;fill:none;fill-opacity:1;fill-rule: evenodd"/>
<path id="Slice_child2_cs001_w0061"  d="M 5.958610126041664 0.00439453125 Q 6.221875429657197 -0.06737479005129093 6.361930438541668 -0.3212239583333334 L 6.551627704166668 -0.89453125 L 6.580680438541664 -1.27392578125 L 6.580680438541664 -1.302978515625 L 6.568717547916668 -1.53369140625 L 6.443961688541664 -2.0498046875 L 6.182487079166668 -2.412109375 L 5.909049579166664 -2.5283203125 L 5.768912860416664 -2.506103515625 L 5.437369891666664 -2.2489583333333334 L 5.247672626041668 -1.8131673177083334 L 5.175895282291666 -1.323486328125 L 5.174186297916666 -1.22265625 L 5.199821063541666 -0.9013671874999999 L 5.403987730208334 -0.32373046875 Q 5.558790752053254 0.008781154183168383 5.879996844791666 0.014648437499999556 L 5.958610126041664 0.00439453125 " stroke="#191919" stroke-width="0.7 px" style="stroke-width:0.7;stroke-miterlimit:4;stroke-dasharray:none;stroke-linecap:square;fill:none;fill-opacity:1;fill-rule: evenodd"/>
<path id="Slice_child2_cs001_w0062"  d="M 8.020101011458332 -2.516357421875 L 8.020101011458332 -1.30810546875 L 8.708821714583332 -1.30810546875 Q 9.001633449009617 -1.3443992113313419 9.15144866770833 -1.535400390625 L 9.289876402083332 -1.919921875 L 9.289876402083332 -1.93701171875 L 9.130940855208335 -2.328369140625 Q 8.97333243471121 -2.5065359885476246 8.688313902083335 -2.516357421875 L 8.020101011458332 -2.516357421875 " stroke="#191919" stroke-width="0.7 px" style="stroke-width:0.7;stroke-miterlimit:4;stroke-dasharray:none;stroke-linecap:square;fill:none;fill-opacity:1;fill-rule: evenodd"/>
<path id="Slice_child2_cs001_w0063"  d="M 9.153157652083332 -0.1220703125 L 9.262532652083335 -0.40234375 L 9.159993589583335 -0.6757812500000004 L 8.845540464583332 -0.827880859375 L 8.020101011458332 -0.827880859375 L 8.020101011458332 0.01464843749999956 L 8.840413511458335 0.01464843749999956 L 9.153157652083332 -0.1220703125 " stroke="#191919" stroke-width="0.7 px" style="stroke-width:0.7;stroke-miterlimit:4;stroke-dasharray:none;stroke-linecap:square;fill:none;fill-opacity:1;fill-rule: evenodd"/>
<path id="Slice_child2_cs001_w0064"  d="M -49.801464743749996 21.92431640625 L -49.801464743749996 23.01806640625 L -48.958935446874996 23.01806640625 Q -48.68985336675849 22.994427218449736 -48.535107321875 22.7822265625 L -48.43427724375 22.4814453125 L -48.46162099375 22.30712890625 L -48.66077463958332 22.0302734375 L -48.982861228124996 21.92431640625 L -49.801464743749996 21.92431640625 " stroke="#191919" stroke-width="0.7 px" style="stroke-width:0.7;stroke-miterlimit:4;stroke-dasharray:none;stroke-linecap:square;fill:none;fill-opacity:1;fill-rule: evenodd"/>
<path id="Slice_child2_cs001_w0065"  d="M -25.80146474375 21.92431640625 L -25.80146474375 23.01806640625 L -24.958935446875 23.01806640625 Q -24.689853366758484 22.99442721844973 -24.535107321875 22.7822265625 L -24.43427724375 22.4814453125 L -24.46162099375 22.30712890625 L -24.66077463958333 22.0302734375 L -24.982861228124996 21.92431640625 L -25.80146474375 21.92431640625 " stroke="#191919" stroke-width="0.7 px" style="stroke-width:0.7;stroke-miterlimit:4;stroke-dasharray:none;stroke-linecap:square;fill:none;fill-opacity:1;fill-rule: evenodd"/>
<path id="Slice_child2_cs001_w0066"  d="M -50.215576071875 25.622802734375 L -49.692626853125 27.058349609375 L -49.173095603125 25.622802734375 L -50.215576071875 25.622802734375 " stroke="#191919" stroke-width="0.7 px" style="stroke-width:0.7;stroke-miterlimit:4;stroke-dasharray:none;stroke-linecap:square;fill:none;fill-opacity:1;fill-rule: evenodd"/>
<path id="Slice_child2_cs001_w0067"  d="M -23.248876853124997 25.622802734375 L -22.725927634374997 27.058349609375 L -22.206396384374997 25.622802734375 L -23.248876853124997 25.622802734375 " stroke="#191919" stroke-width="0.7 px" style="stroke-width:0.7;stroke-miterlimit:4;stroke-dasharray:none;stroke-linecap:square;fill:none;fill-opacity:1;fill-rule: evenodd"/>
<path id="Slice_child2_cs001_w0068"  d="M -20.514273988541667 24.983642578125 L -20.514273988541667 26.19189453125 L -19.825553285416667 26.19189453125 Q -19.53274155099039 26.155600788668664 -19.382926332291667 25.964599609375 L -19.244498597916667 25.580078125 L -19.244498597916667 25.56298828125 L -19.403434144791667 25.171630859375 Q -19.561042565288794 24.993464011452375 -19.846061097916667 24.983642578125 L -20.514273988541667 24.983642578125 " stroke="#191919" stroke-width="0.7 px" style="stroke-width:0.7;stroke-miterlimit:4;stroke-dasharray:none;stroke-linecap:square;fill:none;fill-opacity:1;fill-rule: evenodd"/>
<path id="Slice_child2_cs001_w0069"  d="M -19.381217347916667 27.3779296875 L -19.271842347916667 27.09765625 L -19.374381410416667 26.82421875 L -19.688834535416667 26.672119140625 L -20.514273988541667 26.672119140625 L -20.514273988541667 27.5146484375 L -19.693961488541667 27.5146484375 L -19.381217347916667 27.3779296875 " stroke="#191919" stroke-width="0.7 px" style="stroke-width:0.7;stroke-miterlimit:4;stroke-dasharray:none;stroke-linecap:square;fill:none;fill-opacity:1;fill-rule: evenodd"/>
<path id="Slice_child2_cs001_w0070"  d="M -3.51806630625 26.42431640625 L -3.51806630625 27.51806640625 L -2.675537009375 27.51806640625 Q -2.406454929258526 27.49442721844975 -2.2517088843750006 27.2822265625 L -2.1508788062500006 26.9814453125 L -2.17822255625 26.80712890625 L -2.3773762020833336 26.5302734375 L -2.699462790625 26.42431640625 L -3.51806630625 26.42431640625 " stroke="#191919" stroke-width="0.7 px" style="stroke-width:0.7;stroke-miterlimit:4;stroke-dasharray:none;stroke-linecap:square;fill:none;fill-opacity:1;fill-rule: evenodd"/>
<path id="Slice_child2_cs001_w0071"  d="M 2.559651792708332 23.00439453125 Q 2.8229170963238017 22.932625209948753 2.962972105208333 22.678776041666666 L 3.152669370833333 22.10546875 L 3.181722105208333 21.72607421875 L 3.181722105208333 21.697021484375 L 3.1697592145833338 21.46630859375 L 3.045003355208332 20.9501953125 L 2.783528745833333 20.587890625 L 2.510091245833332 20.4716796875 L 2.3699545270833338 20.493896484375 L 2.038411558333333 20.751041666666666 L 1.8487142927083329 21.186832682291666 L 1.7769369489583329 21.676513671875 L 1.7752279645833329 21.77734375 L 1.8008627302083329 22.0986328125 L 2.0050293968749995 22.67626953125 Q 2.159832418719935 23.008781154183175 2.481038511458333 23.0146484375 L 2.559651792708332 23.00439453125 " stroke="#191919" stroke-width="0.7 px" style="stroke-width:0.7;stroke-miterlimit:4;stroke-dasharray:none;stroke-linecap:square;fill:none;fill-opacity:1;fill-rule: evenodd"/>
<path id="Slice_child2_cs001_w0072"  d="M 23.765706480208333 21.122802734375 L 24.288655698958333 22.558349609375 L 24.808186948958337 21.122802734375 L 23.765706480208333 21.122802734375 " stroke="#191919" stroke-width="0.7 px" style="stroke-width:0.7;stroke-miterlimit:4;stroke-dasharray:none;stroke-linecap:square;fill:none;fill-opacity:1;fill-rule: evenodd"/>
<path id="Slice_child2_cs001_w0073"  d="M 27.723942157291667 22.84033203125 L 27.855533954166667 22.500244140625 L 27.850407001041667 22.425048828125 L 27.675179136458333 22.100341796875 L 27.330875751041667 21.970458984375 L 26.500309344791667 21.970458984375 L 26.500309344791667 23.01806640625 L 27.330875751041667 23.01806640625 L 27.723942157291667 22.84033203125 " stroke="#191919" stroke-width="0.7 px" style="stroke-width:0.7;stroke-miterlimit:4;stroke-dasharray:none;stroke-linecap:square;fill:none;fill-opacity:1;fill-rule: evenodd"/>
<path id="Slice_child2_cs001_w0074"  d="M 3.080892027083333 27.089111328125 Q 3.26412613048607 26.75595693235278 3.255208433333333 26.25341796875 L 3.255208433333333 26.23974609375 Q 3.2640748941977407 25.715599393249043 3.104817808333333 25.361328125 Q 2.9296163636870833 24.994998095290974 2.575032652083333 24.987060546875 L 1.9871420270833329 24.987060546875 L 1.9871420270833329 27.51806640625 L 2.551106870833333 27.51806640625 Q 2.852067830639922 27.491673952880852 3.080892027083333 27.089111328125 " stroke="#191919" stroke-width="0.7 px" style="stroke-width:0.7;stroke-miterlimit:4;stroke-dasharray:none;stroke-linecap:square;fill:none;fill-opacity:1;fill-rule: evenodd"/>
<title>b'Panel CS Top Engrave'</title>
</g>
</svg>