<?xml version="1.0"?>
<!DOCTYPE svg PUBLIC "-//W3C//DTD SVG 1.1//EN" "http://www.w3.org/Graphics/SVG/1.1/DTD/svg11.dtd">
<svg width="139.36595988000005mm" height="93.16322388mm" viewBox="0 0 139.36595988000005 93.16322388" xmlns="http://www.w3.org/2000/svg" version="1.1">
<g id="Slice_child1_cs" transform="translate(69.682980,46.581612) scale(1,-1)">
<path id="Slice_child1_cs_w0000"  d="M 55.62264700000001 44.715279 A 0.5 0.5 0 0 1 55.1226 45.2153L -55.122647000000725 45.215279 A 0.5 0.5 0 0 1 -55.6226 44.7153L -55.622647000000725 41.342279000000005 A 6.35 6.35 0 0 0 -61.9726 34.9923L -67.81664700000002 34.992278999999996 A 0.5 0.5 0 0 1 -68.3166 34.4923L -68.31664700000002 -34.49227893084172 A 0.5 0.5 0 0 1 -67.8166 -34.9923L -61.97264692485369 -34.992278999999996 A 6.35 6.35 0 0 0 -55.6226 -41.3423L -55.622647000000015 -44.715279 A 0.5 0.5 0 0 1 -55.1226 -45.2153L 55.122647000000015 -45.215279 A 0.5 0.5 0 0 1 55.6226 -44.7153L 55.62264700000002 -41.342279000000005 A 6.35 6.35 0 0 0 61.9727 -34.9923L 67.8166466791223 -34.99228275041716 A 0.5 0.5 0 0 1 68.3166 -34.4923L 68.31664700000002 34.492278999999996 A 0.5 0.5 0 0 1 67.8166 34.9923L 61.97264700000001 34.992278999999996 A 6.35 6.35 0 0 0 55.6226 41.3423L 55.62264700000001 44.715279 " stroke="#191919" stroke-width="0.7 px" style="stroke-width:0.7;stroke-miterlimit:4;stroke-dasharray:none;stroke-linecap:square;fill:none;fill-opacity:1;fill-rule: evenodd"/>
<circle cx="-33.108673" cy="-38.015279" r="1.2" stroke="#191919" stroke-width="0.7 px" style="stroke-width:0.7;stroke-miterlimit:4;stroke-dasharray:none;stroke-linecap:square;fill:none"/>
<circle cx="-48.0" cy="-14.000000000000002" r="4.5" stroke="#191919" stroke-width="0.7 px" style="stroke-width:0.7;stroke-miterlimit:4;stroke-dasharray:none;stroke-linecap:square;fill:none"/>
<circle cx="-47.566559" cy="-6.184096" r="1.6" stroke="#191919" stroke-width="0.7 px" style="stroke-width:0.7;stroke-miterlimit:4;stroke-dasharray:none;stroke-linecap:square;fill:none"/>
<circle cx="-24.0" cy="-14.0" r="4.5" stroke="#191919" stroke-width="0.7 px" style="stroke-width:0.7;stroke-miterlimit:4;stroke-dasharray:none;stroke-linecap:square;fill:none"/>
<circle cx="-24.021374" cy="-5.837846" r="1.6" stroke="#191919" stroke-width="0.7 px" style="stroke-width:0.7;stroke-miterlimit:4;stroke-dasharray:none;stroke-linecap:square;fill:none"/>
<circle cx="33.108673" cy="-38.015279" r="1.2" stroke="#191919" stroke-width="0.7 px" style="stroke-width:0.7;stroke-miterlimit:4;stroke-dasharray:none;stroke-linecap:square;fill:none"/>
<circle cx="0.0" cy="-14.0" r="4.5" stroke="#191919" stroke-width="0.7 px" style="stroke-width:0.7;stroke-miterlimit:4;stroke-dasharray:none;stroke-linecap:square;fill:none"/>
<circle cx="0.07782" cy="-3.483325" r="1.6" stroke="#191919" stroke-width="0.7 px" style="stroke-width:0.7;stroke-miterlimit:4;stroke-dasharray:none;stroke-linecap:square;fill:none"/>
<circle cx="-48.0" cy="14.0" r="4.5" stroke="#191919" stroke-width="0.7 px" style="stroke-width:0.7;stroke-miterlimit:4;stroke-dasharray:none;stroke-linecap:square;fill:none"/>
<circle cx="-24.0" cy="14.000000000000002" r="4.5" stroke="#191919" stroke-width="0.7 px" style="stroke-width:0.7;stroke-miterlimit:4;stroke-dasharray:none;stroke-linecap:square;fill:none"/>
<circle cx="-48.051315" cy="24.078394" r="1.6" stroke="#191919" stroke-width="0.7 px" style="stroke-width:0.7;stroke-miterlimit:4;stroke-dasharray:none;stroke-linecap:square;fill:none"/>
<circle cx="-23.744371" cy="23.870642" r="1.6" stroke="#191919" stroke-width="0.7 px" style="stroke-width:0.7;stroke-miterlimit:4;stroke-dasharray:none;stroke-linecap:square;fill:none"/>
<circle cx="-0.06068000000000007" cy="23.939894" r="1.6" stroke="#191919" stroke-width="0.7 px" style="stroke-width:0.7;stroke-miterlimit:4;stroke-dasharray:none;stroke-linecap:square;fill:none"/>
<circle cx="0.0" cy="14.000000000000002" r="4.5" stroke="#191919" stroke-width="0.7 px" style="stroke-width:0.7;stroke-miterlimit:4;stroke-dasharray:none;stroke-linecap:square;fill:none"/>
<circle cx="24.0" cy="14.000000000000002" r="4.5" stroke="#191919" stroke-width="0.7 px" style="stroke-width:0.7;stroke-miterlimit:4;stroke-dasharray:none;stroke-linecap:square;fill:none"/>
<circle cx="24.228191" cy="21.782991" r="1.6" stroke="#191919" stroke-width="0.7 px" style="stroke-width:0.7;stroke-miterlimit:4;stroke-dasharray:none;stroke-linecap:square;fill:none"/>
<circle cx="0.0" cy="38.015279" r="1.2" stroke="#191919" stroke-width="0.7 px" style="stroke-width:0.7;stroke-miterlimit:4;stroke-dasharray:none;stroke-linecap:square;fill:none"/>
<title>b'Panel CS Middle Cut'</title>
</g>
</svg>