<?xml version="1.0"?>
<!DOCTYPE svg PUBLIC "-//W3C//DTD SVG 1.1//EN" "http://www.w3.org/Graphics/SVG/1.1/DTD/svg11.dtd">
<svg width="158.1mm" height="64.1mm" viewBox="0 0 158.1 64.1" xmlns="http://www.w3.org/2000/svg" version="1.1">
<g id="Slice_child1_cs" transform="translate(79.050000,32.050000) scale(1,-1)">
<path id="Slice_child1_cs_w0000"  d="M -72.5 15.729223250749158 A 5 5 0 0 1 -67.5 20.7292L -67.5 29.75 A 0.75 0.75 0 0 0 -66.75 30.5L 66.75000000000003 30.5 A 0.75 0.75 0 0 0 67.5 29.75L 67.50000000000003 20.729223250749158 A 5 5 0 0 1 72.5 15.7292L 76.75 15.729223250749158 A 0.75 0.75 0 0 0 77.5 14.9792L 77.5 -20.561422250749178 A 0.75 0.75 0 0 0 76.75 -21.3114L 72.5 -21.311422250749178 A 5 5 0 0 1 67.5 -26.3114L 67.5 -29.75 A 0.75 0.75 0 0 0 66.75 -30.5L -66.75 -30.5 A 0.75 0.75 0 0 0 -67.5 -29.75L -67.5 -26.311422250749175 A 5 5 0 0 1 -72.5 -21.3114L -76.75 -21.311422250749175 A 0.75 0.75 0 0 0 -77.5 -20.5614L -77.5 14.979223250749158 A 0.75 0.75 0 0 0 -76.75 15.7292L -72.5 15.729223250749158 " stroke="#191919" stroke-width="0.7 px" style="stroke-width:0.7;stroke-miterlimit:4;stroke-dasharray:none;stroke-linecap:square;fill:none;fill-opacity:1;fill-rule: evenodd"/>
<circle cx="-62.689335" cy="-26.373596" r="1.7" stroke="#191919" stroke-width="0.7 px" style="stroke-width:0.7;stroke-miterlimit:4;stroke-dasharray:none;stroke-linecap:square;fill:none"/>
<path id="Slice_child1_cs_w0002"  d="M -22.7333202125 -18.25 Q -23.037595711123068 -18.29436941274168 -23.0799999 -18.5966796875 L -23.0799999 -22.91064453125 Q -23.032852033153056 -23.208013870590243 -22.7333202125 -23.25 L -21.42716786875 -23.25 Q -20.8986561759327 -23.22013561950584 -20.5067577125 -22.93636067708333 Q -20.140504593107764 -22.66510333593633 -19.984296775 -22.2587890625 L -19.8915233375 -21.7412109375 L -19.92814443125 -21.3994140625 Q -20.03049385131699 -20.92357297380436 -20.39689443125 -20.544921875 Q -20.06120557726885 -20.236185532681993 -19.964765525 -19.8369140625 L -19.92814443125 -19.5390625 L -19.92814443125 -19.52197265625 L -19.9989452125 -19.1142578125 Q -20.12492712644584 -18.767518666936056 -20.437259014583336 -18.53076171875 Q -20.766772376107404 -18.284455221851218 -21.21720693125 -18.25 L -22.7333202125 -18.25 " stroke="#191919" stroke-width="0.7 px" style="stroke-width:0.7;stroke-miterlimit:4;stroke-dasharray:none;stroke-linecap:square;fill:none;fill-opacity:1;fill-rule: evenodd"/>
<path id="Slice_child1_cs_w0003"  d="M -18.563723858333333 -18.5966796875 Q -18.613287209922326 -18.256066759111143 -18.910403545833333 -18.25 L -18.912844952083333 -18.25 Q -19.207692184781514 -18.256258271049624 -19.257083233333336 -18.5966796875 L -19.257083233333336 -22.9130859375 Q -19.207103508664623 -23.24934255179815 -18.910403545833333 -23.2548828125 L -18.907962139583333 -23.2548828125 Q -18.61352826605728 -23.24915376709187 -18.563723858333333 -22.9130859375 L -18.563723858333333 -18.5966796875 " stroke="#191919" stroke-width="0.7 px" style="stroke-width:0.7;stroke-miterlimit:4;stroke-dasharray:none;stroke-linecap:square;fill:none;fill-opacity:1;fill-rule: evenodd"/>
<path id="Slice_child1_cs_w0004"  d="M -14.839440004166669 -18.2548828125 Q -15.145376651683108 -18.260116668149877 -15.188561097916669 -18.6015625 L -15.188561097916667 -21.7119140625 L -17.23934234791667 -18.41845703125 L -17.50057281666667 -18.2451171875 L -17.61287750416667 -18.26708984375 Q -17.838167946438737 -18.349089009048903 -17.87166656666667 -18.6015625 L -17.87166656666667 -22.9130859375 Q -17.8241466530876 -23.24926254302887 -17.528730368749997 -23.2548828125 Q -17.23308744052049 -23.249254342194348 -17.18319000416667 -22.9130859375 L -17.18319000416667 -19.80517578125 L -15.132408754166669 -23.09375 L -14.86141266041667 -23.2548828125 L -14.827232972916669 -23.2548828125 L -14.746666566666669 -23.240234375 Q -14.500655798218759 -23.171657343463778 -14.500084535416669 -22.91796875 L -14.500084535416669 -18.6015625 Q -14.525010475730856 -18.263997316990142 -14.83455719166667 -18.2548828125 L -14.839440004166669 -18.2548828125 " stroke="#191919" stroke-width="0.7 px" style="stroke-width:0.7;stroke-miterlimit:4;stroke-dasharray:none;stroke-linecap:square;fill:none;fill-opacity:1;fill-rule: evenodd"/>
<path id="Slice_child1_cs_w0005"  d="M -11.5477733375 -21.23583984375 L -12.128828025 -21.23583984375 L -12.15080068125 -21.2333984375 Q -12.447941241196576 -21.19575127042986 -12.44865224375 -20.89404296875 Q -12.447941241196569 -20.592334667070133 -12.15080068125 -20.5546875 L -12.128828025 -20.5498046875 L -11.2059764625 -20.5498046875 L -10.963137920833336 -20.65120442708333 L -10.86173818125 -20.89404296875 L -10.86173818125 -22.1318359375 L -10.89103505625 -22.1953125 L -10.9081249 -22.234375 L -10.92521474375 -22.27099609375 L -10.96427724375 -22.34423828125 L -10.9813670875 -22.380859375 L -11.0008983375 -22.41748046875 L -11.02287099375 -22.4541015625 Q -11.420768917757592 -23.192312023299685 -12.167890525000002 -23.24267578125 L -12.19962880625 -23.240234375 Q -12.962086522956406 -23.17658729644304 -13.38126943125 -22.44677734375 L -13.71818349375 -21.521484375 L -13.79630849375 -20.7158203125 L -13.7841014625 -20.388671875 L -13.514407452083336 -19.28401692708333 Q -13.292722451044277 -18.765978735789936 -12.839277243750002 -18.45263671875 Q -12.532823887934088 -18.241699113772242 -12.2118358375 -18.23779296875 L -12.2020702125 -18.23779296875 L -11.74552724375 -18.3623046875 Q -11.217267879560518 -18.651844434200093 -10.94962880625 -19.1826171875 L -10.93009755625 -19.2216796875 L -10.91544911875 -19.255859375 L -10.89591786875 -19.29248046875 L -10.86662099375 -19.44873046875 L -10.95939443125 -19.6708984375 L -11.20109365 -19.78076171875 L -11.26701161875 -19.7734375 L -11.523359275 -19.578125 Q -11.727000887143648 -19.004258880147823 -12.16056630625 -18.95068359375 L -12.260663962500002 -18.96044921875 Q -12.74989872731153 -19.097982837320792 -12.9344920875 -19.69775390625 L -13.11515615 -20.7939453125 L -13.10783193125 -21.04296875 Q -13.065239759611766 -21.748857629269537 -12.63908193125 -22.29541015625 Q -12.43679407379098 -22.562870859008314 -12.206953025 -22.5712890625 L -12.04826161875 -22.53466796875 Q -11.739290154522239 -22.39080655866431 -11.57462880625 -22.0341796875 L -11.5477733375 -21.98046875 L -11.5477733375 -21.23583984375 " stroke="#191919" stroke-width="0.7 px" style="stroke-width:0.7;stroke-miterlimit:4;stroke-dasharray:none;stroke-linecap:square;fill:none;fill-opacity:1;fill-rule: evenodd"/>
<path id="Slice_child1_cs_w0006"  d="M -7.401126202083335 -18.702962239583332 Q -7.784856394947275 -18.250164933172094 -8.382571514583335 -18.249999999999996 L -8.985598858333336 -18.416015625 Q -9.599310744353321 -18.786086908100536 -9.844973858333335 -19.50244140625 Q -10.068908072795491 -20.114483114827415 -10.069583233333335 -20.76220703125 L -10.059817608333336 -21.0380859375 Q -10.004640339802638 -21.812254896410685 -9.608157452083336 -22.46630859375 Q -9.214559991092603 -23.106479866124275 -8.475344952083335 -23.23779296875 L -8.270266827083335 -23.2548828125 Q -7.933105121444291 -23.25387274341901 -7.645266827083335 -23.0546875 L -7.052005108333333 -22.419921875 Q -6.702106563836061 -21.807751289247122 -6.651614483333333 -21.091796875 L -6.641848858333333 -20.80859375 L -6.822512920833333 -19.68798828125 Q -7.023794332084631 -19.14991747463599 -7.401126202083335 -18.70296223958333 " stroke="#191919" stroke-width="0.7 px" style="stroke-width:0.7;stroke-miterlimit:4;stroke-dasharray:none;stroke-linecap:square;fill:none;fill-opacity:1;fill-rule: evenodd"/>
<path id="Slice_child1_cs_w0007"  d="M -43.7884374 -7.491953124999999 Q -43.51330408893149 -7.475190208509964 -43.51109365 -7.220468749999999 Q -43.51374066707268 -6.97486758119202 -43.786484275 -6.945078124999999 L -45.58921865000001 -6.947031249999999 L -45.58921865 -3.7673437499999993 Q -45.60951443599342 -3.496381544410647 -45.85484365 -3.4899999999999993 L -45.86265615 -3.4899999999999993 Q -46.10116021409665 -3.4932669798663634 -46.1399999 -3.7673437499999998 L -46.1399999 -7.22046875 Q -46.103518682898255 -7.474836950943999 -45.86265615 -7.491953124999999 L -43.7884374 -7.491953124999999 " stroke="#191919" stroke-width="0.7 px" style="stroke-width:0.7;stroke-miterlimit:4;stroke-dasharray:none;stroke-linecap:square;fill:none;fill-opacity:1;fill-rule: evenodd"/>
<path id="Slice_child1_cs_w0008"  d="M 0.9555649999949622 -16.316466732072087 L -33.04443500000504 -16.316466732072087 L -33.04443500000504 -4.316466732072087 L 0.9555649999949622 -4.316466732072087 L 0.9555649999949622 -16.316466732072087 " stroke="#191919" stroke-width="0.7 px" style="stroke-width:0.7;stroke-miterlimit:4;stroke-dasharray:none;stroke-linecap:square;fill:none;fill-opacity:1;fill-rule: evenodd"/>
<path id="Slice_child1_cs_w0009"  d="M -6.141083 -20.239267 L -6.141083 -21.239267 L 8.324230238702295 -21.239267 A 4 4 0 0 1 14.9656 -18.2354A 4 4 0 1 1 7.50373 -20.2393L -6.141083000000001 -20.239267 " stroke="#191919" stroke-width="0.7 px" style="stroke-width:0.7;stroke-miterlimit:4;stroke-dasharray:none;stroke-linecap:square;fill:none;fill-opacity:1;fill-rule: evenodd"/>
<path id="Slice_child1_cs_w0010"  d="M 39.864765725 -22.282369791666664 Q 39.55825071251259 -21.9201093540103 39.079609475 -21.919999999999998 L 38.5971876 -22.052812499999998 Q 38.10909835302022 -22.34500052644686 37.9096876 -22.921953124999998 L 37.7300001 -23.929765624999998 L 37.7378126 -24.150468749999998 Q 37.78235242647884 -24.77119865822001 38.099140725 -25.293046874999998 Q 38.413936059922264 -25.805416285385682 39.005390725 -25.910234374999998 L 39.169453225 -25.923906249999998 L 39.669453225 -25.763749999999998 L 40.1440626 -25.255937499999998 Q 40.42357111731087 -24.76767862980298 40.4643751 -24.193437499999998 L 40.4721876 -23.966874999999998 L 40.32765635 -23.070390624999998 L 39.864765725 -22.282369791666664 " stroke="#191919" stroke-width="0.7 px" style="stroke-width:0.7;stroke-miterlimit:4;stroke-dasharray:none;stroke-linecap:square;fill:none;fill-opacity:1;fill-rule: evenodd"/>
<path id="Slice_child1_cs_w0011"  d="M 43.32817718333333 -21.921953124999998 Q 43.11695829342668 -21.922787030642645 43.07622405833333 -22.140703124999998 L 43.07231780833333 -22.193437499999998 L 43.07231780833333 -24.601640624999998 L 42.971666766666665 -24.976640624999998 L 42.70513030833333 -25.253984374999998 L 42.29497405833333 -25.380937499999998 L 41.93364593333333 -25.273515624999998 Q 41.565130330376306 -25.046667078237803 41.53911468333333 -24.601640624999998 L 41.53911468333333 -22.193437499999998 Q 41.53881802700478 -21.969220798315348 41.32036468333333 -21.925859374999998 L 41.25005218333333 -21.918046874999998 L 41.00981780833333 -22.087968749999998 L 40.98833343333333 -22.193437499999998 L 40.98833343333333 -24.640703124999998 Q 41.01009940790648 -25.222070216950563 41.405260516666665 -25.567526041666664 Q 41.78165623477548 -25.881474951242268 42.25200530833333 -25.904374999999998 L 42.30864593333333 -25.906328124999998 Q 42.74757465066183 -25.903648063240503 43.12309905833333 -25.638749999999998 Q 43.543835818176746 -25.328952571187344 43.61333343333333 -24.757890624999998 L 43.62114593333333 -24.640703124999998 L 43.62114593333333 -22.193437499999998 Q 43.6203125552387 -21.94756809727491 43.37114593333333 -21.923906249999998 L 43.32817718333333 -21.921953124999998 " stroke="#191919" stroke-width="0.7 px" style="stroke-width:0.7;stroke-miterlimit:4;stroke-dasharray:none;stroke-linecap:square;fill:none;fill-opacity:1;fill-rule: evenodd"/>
<path id="Slice_child1_cs_w0012"  d="M 45.301744891666665 -25.919999999999998 Q 45.54009868784317 -25.917002912159703 45.582994891666665 -25.646562499999998 L 45.582994891666665 -22.470781249999998 L 46.29783864166667 -22.470781249999998 Q 46.56753102194051 -22.451744948036392 46.569323016666665 -22.197343749999998 Q 46.56763761527489 -21.941080137095014 46.297838641666665 -21.919999999999998 L 44.315416766666665 -21.919999999999998 Q 44.04391567271763 -21.942772568944108 44.041979266666665 -22.197343749999998 Q 44.04402166151105 -22.45004767406818 44.315416766666665 -22.470781249999998 L 45.032213641666665 -22.470781249999998 L 45.032213641666665 -25.646562499999998 Q 45.052629322564144 -25.91379512488239 45.295885516666665 -25.919999999999998 L 45.301744891666665 -25.919999999999998 " stroke="#191919" stroke-width="0.7 px" style="stroke-width:0.7;stroke-miterlimit:4;stroke-dasharray:none;stroke-linecap:square;fill:none;fill-opacity:1;fill-rule: evenodd"/>
<path id="Slice_child1_cs_w0013"  d="M 47.42401051666666 -21.919999999999998 Q 47.18036759670953 -21.955394745258197 47.14666676666666 -22.197343749999998 L 47.14666676666666 -25.648515624999998 Q 47.18419582367427 -25.886526581651154 47.42401051666666 -25.919999999999998 L 48.46893239166666 -25.919999999999995 Q 48.895427800129795 -25.8949125022811 49.20526051666666 -25.669088541666664 Q 49.499201970629684 -25.450934058465492 49.62322926666666 -25.127031249999998 L 49.69744801666666 -24.712968749999998 L 49.66815114166666 -24.439531249999998 Q 49.58796673511296 -24.061840633016594 49.29315114166666 -23.755937499999998 Q 49.563393307434865 -23.50627375110225 49.63885426666666 -23.189531249999998 L 49.66815114166666 -22.951249999999998 L 49.66815114166666 -22.937578124999998 L 49.61151051666666 -22.611406249999998 L 49.260859475 -22.144609374999998 L 48.63690114166666 -21.919999999999998 L 47.42401051666666 -21.919999999999998 " stroke="#191919" stroke-width="0.7 px" style="stroke-width:0.7;stroke-miterlimit:4;stroke-dasharray:none;stroke-linecap:square;fill:none;fill-opacity:1;fill-rule: evenodd"/>
<path id="Slice_child1_cs_w0014"  d="M 50.47843759999999 -25.919999999999998 L 51.40031259999999 -25.919999999999998 Q 52.0901093409612 -25.912335722575193 52.42570322499999 -25.294999999999998 Q 52.77021515904372 -24.657518394017572 52.76750009999999 -23.919999999999998 Q 52.7702449732863 -23.182624363890405 52.42661468333334 -22.544999999999998 Q 52.091385461355976 -21.927267823417075 51.40031259999999 -21.919999999999998 L 50.48234384999999 -21.919999999999998 Q 50.26504649031859 -21.922981186877443 50.20500009999999 -22.175859374999998 L 50.20500009999999 -25.642656249999998 Q 50.20499796295929 -25.85881742731643 50.40812509999999 -25.908281249999998 L 50.47843759999999 -25.92 " stroke="#191919" stroke-width="0.7 px" style="stroke-width:0.7;stroke-miterlimit:4;stroke-dasharray:none;stroke-linecap:square;fill:none;fill-opacity:1;fill-rule: evenodd"/>
<circle cx="62.689335" cy="-26.373596" r="1.7" stroke="#191919" stroke-width="0.7 px" style="stroke-width:0.7;stroke-miterlimit:4;stroke-dasharray:none;stroke-linecap:square;fill:none"/>
<path id="Slice_child1_cs_w0016"  d="M 39.2546876 -15.917343749999997 Q 39.21403583559702 -15.643385474067074 38.97734385 -15.639999999999999 L 38.975390725 -15.639999999999997 Q 38.740556721965284 -15.643490734219737 38.7000001 -15.917343749999997 L 38.7000001 -19.370468749999997 Q 38.740887089062596 -19.640818217013987 38.977343850000004 -19.643906249999997 L 38.979296975 -19.643906249999997 Q 39.213897532442914 -19.640714359203983 39.25468759999999 -19.370468749999997 L 39.2546876 -15.917343749999997 " stroke="#191919" stroke-width="0.7 px" style="stroke-width:0.7;stroke-miterlimit:4;stroke-dasharray:none;stroke-linecap:square;fill:none;fill-opacity:1;fill-rule: evenodd"/>
<path id="Slice_child1_cs_w0017"  d="M 42.23411468333333 -15.643906249999997 Q 41.99013166003324 -15.646834834320524 41.95481780833333 -15.921249999999997 L 41.95481780833333 -18.409531249999997 L 40.31419280833333 -15.774765625 L 40.10520843333333 -15.636093749999997 L 40.01536468333333 -15.653671874999997 Q 39.835305336283 -15.71890643042761 39.80833343333333 -15.921249999999997 L 39.80833343333333 -19.370468749999997 Q 39.847258043157424 -19.64077525706894 40.08268239166666 -19.643906249999997 Q 40.31827319404019 -19.640769683230715 40.359114683333324 -19.370468749999997 L 40.35911468333333 -16.884140624999997 L 41.99973968333334 -19.515000000000004 L 42.21653655833333 -19.643906249999997 L 42.24388030833333 -19.643906249999997 L 42.30833343333333 -19.632187499999997 Q 42.505288274342064 -19.577381809021 42.50559905833333 -19.374374999999997 L 42.50559905833333 -15.921249999999997 Q 42.48519906978363 -15.650178828310269 42.23802093333333 -15.643906249999997 L 42.23411468333333 -15.643906249999997 " stroke="#191919" stroke-width="0.7 px" style="stroke-width:0.7;stroke-miterlimit:4;stroke-dasharray:none;stroke-linecap:square;fill:none;fill-opacity:1;fill-rule: evenodd"/>
<path id="Slice_child1_cs_w0018"  d="M 43.344010516666664 -15.639999999999997 Q 43.100367596709575 -15.675394745258162 43.066666766666664 -15.917343749999997 L 43.066666766666664 -19.368515624999997 Q 43.10419582367429 -19.606526581651153 43.344010516666664 -19.639999999999997 L 44.388932391666664 -19.639999999999993 Q 44.81542780012981 -19.6149125022811 45.125260516666664 -19.389088541666663 Q 45.4192019706297 -19.17093405846549 45.543229266666664 -18.847031249999997 L 45.617448016666664 -18.432968749999997 L 45.588151141666664 -18.159531249999997 Q 45.50796673511297 -17.781840633016593 45.213151141666664 -17.475937499999997 Q 45.48339330743488 -17.226273751102248 45.558854266666664 -16.909531249999997 L 45.588151141666664 -16.671249999999997 L 45.588151141666664 -16.657578124999997 L 45.531510516666664 -16.331406249999997 L 45.180859475 -15.864609374999997 L 44.556901141666664 -15.639999999999997 L 43.344010516666664 -15.639999999999997 " stroke="#191919" stroke-width="0.7 px" style="stroke-width:0.7;stroke-miterlimit:4;stroke-dasharray:none;stroke-linecap:square;fill:none;fill-opacity:1;fill-rule: evenodd"/>
<path id="Slice_child1_cs_w0019"  d="M 46.398437599999994 -19.639999999999997 L 47.320312599999994 -19.639999999999997 Q 48.01010934096121 -19.632335722575192 48.345703224999994 -19.014999999999997 Q 48.69021515904372 -18.37751839401757 48.687500099999994 -17.639999999999997 Q 48.69024497328632 -16.902624363890403 48.34661468333333 -16.264999999999997 Q 48.01138546135597 -15.647267823417076 47.320312599999994 -15.639999999999997 L 46.402343849999994 -15.639999999999997 Q 46.1850464903186 -15.642981186877451 46.125000099999994 -15.895859374999997 L 46.125000099999994 -19.362656249999997 Q 46.124997962959284 -19.57881742731643 46.328125099999994 -19.628281249999997 L 46.398437599999994 -19.64 " stroke="#191919" stroke-width="0.7 px" style="stroke-width:0.7;stroke-miterlimit:4;stroke-dasharray:none;stroke-linecap:square;fill:none;fill-opacity:1;fill-rule: evenodd"/>
<path id="Slice_child1_cs_w0020"  d="M 6.477085755813949 -12.250697674418605 L 4.969999999999995 -12.250697674418605 L 4.969999999999995 -11.76232558139535 L 6.477085755813949 -11.76232558139535 L 6.477085755813949 -12.250697674418605 " stroke="#191919" stroke-width="0.7 px" style="stroke-width:0.7;stroke-miterlimit:4;stroke-dasharray:none;stroke-linecap:square;fill:none;fill-opacity:1;fill-rule: evenodd"/>
<path id="Slice_child1_cs_w0021"  d="M 17.80069040697674 -13.34046511627907 L 17.33739098837209 -13.34046511627907 L 17.33739098837209 -12.244534883720931 L 16.249999999999996 -12.244534883720931 L 16.249999999999996 -11.78232558139535 L 17.33739098837209 -11.78232558139535 L 17.33739098837209 -10.70093023255814 L 17.80069040697674 -10.70093023255814 L 17.80069040697674 -11.78232558139535 L 18.888081395348834 -11.78232558139535 L 18.888081395348834 -12.244534883720931 L 17.80069040697674 -12.244534883720931 L 17.80069040697674 -13.34046511627907 " stroke="#191919" stroke-width="0.7 px" style="stroke-width:0.7;stroke-miterlimit:4;stroke-dasharray:none;stroke-linecap:square;fill:none;fill-opacity:1;fill-rule: evenodd"/>
<path id="Slice_child1_cs_w0022"  d="M 33.02921885 -6.893437499999997 Q 32.844454469091744 -6.900418407002089 32.761640725 -7.092656249999997 L 32.078046975 -9.432499999999997 L 31.626875100000003 -7.092656249999997 Q 31.543750410249135 -6.872742058652065 31.363203225 -6.869999999999997 L 31.347578225 -6.869999999999997 L 31.30265635 -6.873906249999997 Q 31.077999972832675 -6.920955953748056 31.0800001 -7.196171874999997 L 31.75578135 -10.645390625 Q 31.830271613629893 -10.854573269169766 32.0175001 -10.869999999999997 L 32.038984475 -10.869999999999997 Q 32.21075327379424 -10.86830370657055 32.292890725 -10.672734374999997 L 33.02531260000001 -8.153203124999997 L 33.76359385 -10.672734375 Q 33.84425213522168 -10.868690990718012 34.027265725 -10.869999999999997 L 34.0409376 -10.869999999999997 Q 34.233804367175324 -10.860502439287014 34.296796975 -10.645390624999997 L 34.972578225 -7.196171874999997 L 34.97453135 -7.157109374999997 Q 34.972602733683985 -6.923567021071987 34.7518751 -6.877812499999997 L 34.6815626 -6.869999999999997 Q 34.49773774551072 -6.872371982184108 34.4315626 -7.092656249999997 L 33.97453135 -9.428593749999997 L 33.2909376 -7.092656249999999 Q 33.218200694490406 -6.894917493646625 33.0409376 -6.893437499999997 L 33.02921885 -6.893437499999997 " stroke="#191919" stroke-width="0.7 px" style="stroke-width:0.7;stroke-miterlimit:4;stroke-dasharray:none;stroke-linecap:square;fill:none;fill-opacity:1;fill-rule: evenodd"/>
<path id="Slice_child1_cs_w0023"  d="M 35.9096876 -7.147343749999997 Q 35.86903583559703 -6.8733854740670814 35.63234384999999 -6.869999999999997 L 35.630390725 -6.869999999999997 Q 35.39555672196527 -6.873490734219754 35.3550001 -7.147343749999997 L 35.3550001 -10.600468749999997 Q 35.39588708906258 -10.87081821701399 35.63234384999999 -10.873906249999997 L 35.634296975 -10.873906249999997 Q 35.86889753244293 -10.870714359203973 35.909687600000005 -10.600468749999997 L 35.9096876 -7.147343749999997 " stroke="#191919" stroke-width="0.7 px" style="stroke-width:0.7;stroke-miterlimit:4;stroke-dasharray:none;stroke-linecap:square;fill:none;fill-opacity:1;fill-rule: evenodd"/>
<path id="Slice_child1_cs_w0024"  d="M 38.88911468333333 -6.873906249999997 Q 38.645131660033215 -6.876834834320549 38.60981780833333 -7.151249999999997 L 38.60981780833333 -9.639531249999997 L 36.96919280833333 -7.004765624999995 L 36.76020843333333 -6.866093749999997 L 36.67036468333333 -6.883671874999997 Q 36.490305336283 -6.948906430427595 36.46333343333333 -7.151249999999997 L 36.46333343333333 -10.600468749999997 Q 36.50225804315738 -10.870775257068914 36.73768239166668 -10.873906249999997 Q 36.97327319404019 -10.870769683230716 37.01411468333333 -10.600468749999997 L 37.01411468333333 -8.114140624999997 L 38.65473968333333 -10.744999999999994 L 38.87153655833333 -10.873906249999997 L 38.89888030833333 -10.873906249999997 L 38.96333343333333 -10.862187499999997 Q 39.16028827434205 -10.807381809021017 39.16059905833333 -10.604374999999997 L 39.16059905833333 -7.151249999999997 Q 39.14019906978362 -6.880178828310257 38.89302093333333 -6.873906249999997 L 38.88911468333333 -6.873906249999997 " stroke="#191919" stroke-width="0.7 px" style="stroke-width:0.7;stroke-miterlimit:4;stroke-dasharray:none;stroke-linecap:square;fill:none;fill-opacity:1;fill-rule: evenodd"/>
<path id="Slice_child1_cs_w0025"  d="M 17.471640725 -5.823984375 L 17.5087501 -5.818125 Q 17.96937140340551 -5.729083778148137 18.2431251 -5.333749999999999 Q 18.45414348924399 -5.03228356224024 18.456015725 -4.687265625000001 L 18.456015725 -4.68140625 L 18.436484475 -4.474374999999999 Q 18.358995610928453 -4.048434412301123 18.03609385 -3.7683854166666664 Q 17.711425916698516 -3.489531725199503 17.276328225 -3.4899999999999993 L 16.0634376 -3.4899999999999993 L 15.869036558333335 -3.5700781249999993 L 15.790000099999999 -3.7634374999999998 L 15.790000099999999 -7.214609375 L 15.897421974999999 -7.431406249999999 L 16.05953135 -7.491953124999999 L 16.186484475 -7.458749999999999 L 16.34078135 -7.214609374999999 L 16.34078135 -5.839609374999999 L 16.8290626 -5.839609374999999 L 17.791953225 -7.361093749999999 L 17.9696876 -7.482187499999999 L 18.02828135 -7.488046874999999 L 18.186484475 -7.437265624999999 L 18.3056251 -7.228281249999999 L 18.256796975 -7.066171874999999 L 17.471640725 -5.823984375 " stroke="#191919" stroke-width="0.7 px" style="stroke-width:0.7;stroke-miterlimit:4;stroke-dasharray:none;stroke-linecap:square;fill:none;fill-opacity:1;fill-rule: evenodd"/>
<path id="Slice_child1_cs_w0026"  d="M 38.0946876 1.712656250000001 Q 38.05403583559705 1.9866145259329016 37.81734384999999 1.990000000000001 L 37.815390725 1.990000000000001 Q 37.58055672196527 1.9865092657802457 37.5400001 1.7126562500000009 L 37.5400001 -1.740468749999999 Q 37.58088708906263 -2.0108182170140267 37.81734384999999 -2.0139062499999985 L 37.819296975 -2.013906249999999 Q 38.0538975324429 -2.010714359204013 38.09468760000001 -1.740468749999999 L 38.0946876 1.7126562500000015 " stroke="#191919" stroke-width="0.7 px" style="stroke-width:0.7;stroke-miterlimit:4;stroke-dasharray:none;stroke-linecap:square;fill:none;fill-opacity:1;fill-rule: evenodd"/>
<path id="Slice_child1_cs_w0027"  d="M 41.522448016666665 -9.258671874999997 L 41.057604266666665 -9.258671874999997 L 41.040026141666665 -9.256718749999997 Q 40.802139879540235 -9.226858578657637 40.801744891666665 -8.985234374999997 Q 40.802139879540206 -8.743610171342379 41.040026141666665 -8.713749999999997 L 41.057604266666665 -8.709843749999997 L 41.795885516666665 -8.709843749999997 L 41.99015635 -8.790963541666663 L 42.071276141666665 -8.985234374999997 L 42.071276141666665 -9.975468749999997 L 42.047838641666665 -10.026249999999997 L 42.034166766666665 -10.057499999999997 L 42.020494891666665 -10.086796874999997 L 41.989244891666665 -10.145390624999997 L 41.975573016666665 -10.174687499999997 L 41.959948016666665 -10.203984374999997 L 41.942369891666665 -10.233281249999997 Q 41.61608642616912 -10.829954186409463 41.026354266666665 -10.864140624999997 L 41.000963641666665 -10.862187499999997 Q 40.39801089444104 -10.816502358727703 40.055651141666665 -10.227421874999997 L 39.786119891666665 -9.487187499999997 L 39.723619891666665 -8.842656249999997 L 39.733385516666665 -8.580937499999997 L 39.94914072499999 -7.697213541666664 Q 40.12718036715226 -7.281845680638856 40.489244891666665 -7.0321093749999966 L 40.991198016666665 -6.860234374999997 L 40.999010516666665 -6.860234374999997 L 41.364244891666665 -6.959843749999997 Q 41.78746387607745 -7.19200361557345 42.000963641666665 -7.616093749999997 L 42.016588641666665 -7.647343749999997 L 42.028307391666665 -7.674687499999997 L 42.043932391666665 -7.703984374999997 L 42.067369891666665 -7.828984374999997 L 41.993151141666665 -8.006718749999997 L 41.799791766666665 -8.094609374999997 L 41.747057391666665 -8.088749999999997 L 41.541979266666665 -7.932499999999997 Q 41.370070267285314 -7.463783707631167 41.032213641666665 -7.430546874999997 L 40.952135516666665 -7.438359374999997 Q 40.56741094887278 -7.5405060945171005 40.413073016666665 -8.028203124999997 L 40.268541766666665 -8.905156249999997 L 40.274401141666665 -9.104374999999997 Q 40.308973720135654 -9.670650241455455 40.649401141666665 -10.106328124999997 Q 40.81428411996738 -10.322345315289915 40.995104266666665 -10.327031249999997 L 41.122057391666665 -10.297734374999997 Q 41.36734248691096 -10.184735990359805 41.500963641666665 -9.897343749999997 L 41.522448016666665 -9.854374999999997 L 41.522448016666665 -9.258671874999997 " stroke="#191919" stroke-width="0.7 px" style="stroke-width:0.7;stroke-miterlimit:4;stroke-dasharray:none;stroke-linecap:square;fill:none;fill-opacity:1;fill-rule: evenodd"/>
<path id="Slice_child1_cs_w0028"  d="M 41.074114683333335 1.986093750000001 Q 40.830131660033246 1.9831651656794773 40.794817808333335 1.708750000000001 L 40.794817808333335 -0.7795312499999989 L 39.154192808333335 1.8552343750000002 L 38.945208433333335 1.993906250000001 L 38.855364683333335 1.976328125000001 Q 38.67530533628299 1.911093569572384 38.648333433333335 1.708750000000001 L 38.648333433333335 -1.740468749999999 Q 38.687258043157456 -2.010775257068988 38.922682391666676 -2.0139062499999985 Q 39.158273194040206 -2.0107696832307123 39.19911468333334 -1.740468749999999 L 39.199114683333335 0.7458593750000015 L 40.839739683333335 -1.8849999999999998 L 41.056536558333335 -2.013906249999999 L 41.083880308333335 -2.013906249999999 L 41.148333433333335 -2.002187499999999 Q 41.34528827434207 -1.9473818090210098 41.345599058333335 -1.744374999999999 L 41.345599058333335 1.7087500000000015 Q 41.32519906978362 1.9798211716897467 41.078020933333335 1.9860937500000009 L 41.074114683333335 1.986093750000001 " stroke="#191919" stroke-width="0.7 px" style="stroke-width:0.7;stroke-miterlimit:4;stroke-dasharray:none;stroke-linecap:square;fill:none;fill-opacity:1;fill-rule: evenodd"/>
<path id="Slice_child1_cs_w0029"  d="M 43.11174489166667 -2.009999999999999 Q 43.35009868784317 -2.007002912159709 43.39299489166667 -1.736562499999999 L 43.39299489166667 1.4392187500000015 L 44.107838641666675 1.439218750000001 Q 44.37753102194051 1.4582550519636177 44.37932301666667 1.712656250000001 Q 44.37763761527491 1.9689198629049725 44.10783864166667 1.990000000000001 L 42.12541676666667 1.990000000000001 Q 41.85391567271762 1.967227431055878 41.85197926666667 1.7126562500000009 Q 41.854021661511084 1.4599523259317757 42.12541676666667 1.439218750000001 L 42.842213641666675 1.439218750000001 L 42.84221364166667 -1.736562499999999 Q 42.86262932256416 -2.003795124882401 43.10588551666667 -2.009999999999999 L 43.11174489166667 -2.009999999999999 " stroke="#191919" stroke-width="0.7 px" style="stroke-width:0.7;stroke-miterlimit:4;stroke-dasharray:none;stroke-linecap:square;fill:none;fill-opacity:1;fill-rule: evenodd"/>
<path id="Slice_child1_cs_w0030"  d="M 57.529831 11.17394321308629 L 55.02311124790107 18.653759416403283 L 54.07494059468015 18.33599785112105 L 56.529831 11.010835548592484 L 56.529831 8.741083224643099 A 8.75537 8.75537 0 0 1 53.0923 7.82L 48.457992969797196 15.84685898256239 L 47.591967566012755 15.346858982562392 L 52.22627668578623 7.320000129134919 A 8.75537 8.75537 0 0 1 49.7098 4.80355L 46.43077487016595 6.696718178905278 L 45.93077487016595 5.830692775120839 L 49.20983087086508 3.937528910429336 A 8.75537 8.75537 0 0 1 48.2887 0.5L 44.528435 0.5 L 44.528435 -0.5 L 48.28874777535694 -0.5 A 8.75537 8.75537 0 0 1 49.2098 -3.93753L 42.566749932127934 -7.772913478657692 L 43.06674993212793 -8.63893888244213 L 49.709830870865076 -4.80355431421377 A 8.75537 8.75537 0 0 1 54.6156 -8.41594L 55.66175799999999 -10.660683999999986 L 49.76644785969665 -16.462571698121117 L 50.467884793765336 -17.17530322367918 L 56.866393539085436 -10.878191062946772 L 55.83915427107443 -8.674031638593942 A 8.75537 8.75537 0 0 1 58.8365 -8.56694L 62.09415078081031 -11.565684691206362 L 53.43353014380965 -24.01500898337427 L 54.25442851006805 -24.586083297517604 L 63.413185000000006 -11.420707000000004 L 59.96667089462055 -8.248121445123253 A 8.75537 8.75537 0 0 1 57.5298 8.74108L 57.529831 11.17394321308629 " stroke="#191919" stroke-width="0.7 px" style="stroke-width:0.7;stroke-miterlimit:4;stroke-dasharray:none;stroke-linecap:square;fill:none;fill-opacity:1;fill-rule: evenodd"/>
<path id="Slice_child1_cs_w0031"  d="M -24.694563321881347 -1.841452187512856 L -65.69456332188135 -1.8414521875128558 L -65.69456332188135 10.158547812487145 L -24.694563321881347 10.158547812487145 L -24.694563321881347 -1.841452187512856 " stroke="#191919" stroke-width="0.7 px" style="stroke-width:0.7;stroke-miterlimit:4;stroke-dasharray:none;stroke-linecap:square;fill:none;fill-opacity:1;fill-rule: evenodd"/>
<path id="Slice_child1_cs_w0032"  d="M -17.598437399999998 -0.851953124999998 Q -17.32330408893148 -0.8351902085099562 -17.321093649999998 -0.5804687499999981 Q -17.323740667072705 -0.3348675811919881 -17.596484274999998 -0.305078124999998 L -19.399218649999998 -0.3070312499999979 L -19.399218649999998 2.872656250000002 Q -19.419514435993413 3.1436184555893574 -19.664843649999998 3.150000000000002 L -19.672656149999998 3.150000000000002 Q -19.91116021409664 3.146733020133653 -19.949999899999998 2.872656250000002 L -19.949999899999998 -0.5804687499999981 Q -19.91351868289825 -0.8348369509439977 -19.672656149999998 -0.8519531249999979 L -17.598437399999995 -0.851953124999998 " stroke="#191919" stroke-width="0.7 px" style="stroke-width:0.7;stroke-miterlimit:4;stroke-dasharray:none;stroke-linecap:square;fill:none;fill-opacity:1;fill-rule: evenodd"/>
<path id="Slice_child1_cs_w0033"  d="M -16.489322816666665 3.150000000000002 Q -16.73296573662377 3.1146052547418286 -16.766666566666665 2.872656250000002 L -16.766666566666665 -0.5785156249999981 Q -16.729137509659047 -0.8165265816511539 -16.489322816666665 -0.8499999999999981 L -15.444400941666665 -0.849999999999998 Q -15.017905533203468 -0.8249125022810901 -14.708072816666665 -0.5990885416666648 Q -14.414131362703635 -0.38093405846549394 -14.290104066666663 -0.05703124999999798 L -14.215885316666665 0.357031250000002 L -14.245182191666665 0.630468750000002 Q -14.32536659822038 1.0081593669834328 -14.620182191666666 1.3140625000000021 Q -14.349940025898444 1.5637262488977721 -14.274479066666665 1.8804687500000021 L -14.245182191666665 2.118750000000002 L -14.245182191666665 2.132421875000002 L -14.301822816666665 2.458593750000002 L -14.652473858333332 2.925390625000002 L -15.276432191666665 3.150000000000002 L -16.489322816666665 3.150000000000002 " stroke="#191919" stroke-width="0.7 px" style="stroke-width:0.7;stroke-miterlimit:4;stroke-dasharray:none;stroke-linecap:square;fill:none;fill-opacity:1;fill-rule: evenodd"/>
<path id="Slice_child1_cs_w0034"  d="M -12.645833233333333 1.6773437500000021 L -11.743489483333335 1.2789062500000021 L -11.712239483333335 1.2652343750000021 L -11.677083233333335 1.2476562500000021 L -11.645833233333335 1.2300781250000021 L -11.6156249 1.2114583333333355 L -11.583333233333333 1.1929687500000021 Q -11.19762422554048 0.9394832500202348 -11.104817608333336 0.489843750000002 L -11.081380108333335 0.259375000000002 L -11.089192608333335 0.12851562500000202 L -11.27578115 -0.36276041666666464 L -11.665364483333335 -0.711328124999998 L -12.186848858333335 -0.8441406249999981 L -13.052083233333335 -0.7279947916666647 Q -13.480310953774609 -0.5928714028612022 -13.639973858333333 -0.10585937499999792 L -13.675130108333335 0.02695312500000191 L -13.702473858333335 0.16367187500000202 L -13.708333233333335 0.22617187500000202 L -13.634114483333335 0.411718750000002 L -13.442708233333335 0.497656250000002 L -13.388020733333335 0.4937500000000018 L -13.173176983333335 0.302343750000002 L -13.167317608333335 0.2847656250000018 Q -13.089784657377773 -0.11557137925067865 -12.841145733333333 -0.22109374999999798 L -12.261067608333333 -0.295312499999998 L -12.190755108333333 -0.295312499999998 Q -11.808143443841505 -0.29385631659240663 -11.665364483333336 0.06406250000000202 L -11.628255108333335 0.257421875000002 L -11.645833233333335 0.396093750000002 L -11.815755108333335 0.685156250000002 L -11.964192608333335 0.7769531250000018 L -12.868489483333333 1.1734375000000021 L -12.897786358333335 1.1890625000000021 Q -13.332297682531326 1.4139610040799249 -13.448567608333333 1.8550781250000021 L -13.487630108333335 2.140234375000002 L -13.487630108333335 2.146093750000002 Q -13.48588178410579 2.4765072641149395 -13.266926983333335 2.751562500000002 Q -12.952748471323918 3.149580228321507 -12.442708233333335 3.150000000000002 L -12.227864483333335 3.1441406250000026 L -12.024739483333335 3.105989583333335 L -11.827473858333335 3.042578125000002 L -11.450520733333335 2.726171875000002 L -11.214192608333335 2.290625000000002 L -11.196614483333335 2.239843750000002 L -11.188801983333335 2.175390625000002 L -11.216145733333335 2.066015625000002 L -11.264973858333335 1.9917968750000021 L -11.305989483333335 1.9566406250000021 L -11.460286358333335 1.9058593750000021 L -11.528645733333335 1.9136718750000021 L -11.714192608333335 2.069921875000002 L -11.82265615 2.3013020833333355 L -11.983723858333335 2.497656250000002 L -12.066796775 2.5434895833333355 L -12.155598858333335 2.575781250000002 L -12.282551983333333 2.5972656250000017 L -12.462239483333335 2.603125000000002 Q -12.723855811454793 2.5989254038146035 -12.862630108333333 2.376562500000002 L -12.936848858333333 2.126562500000002 L -12.932942608333333 2.058203125000002 L -12.729817608333335 1.7222656250000021 L -12.712239483333335 1.709505208333335 L -12.690755108333335 1.6968750000000021 L -12.669270733333333 1.6871093750000021 L -12.645833233333333 1.6773437500000021 " stroke="#191919" stroke-width="0.7 px" style="stroke-width:0.7;stroke-miterlimit:4;stroke-dasharray:none;stroke-linecap:square;fill:none;fill-opacity:1;fill-rule: evenodd"/>
<path id="Slice_child1_cs_w0035"  d="M -14.212763571874998 4.300000000000002 Q -13.94412495747345 4.304098027879121 -13.896357321874998 4.607617187500002 L -13.896357321874998 8.18037109375 L -13.092158103124998 8.18037109375 Q -12.789184209756522 8.201670425167997 -12.786738181249998 8.48798828125 Q -12.789037900207811 8.77637948820892 -13.092158103124998 8.8 L -15.322382712499998 8.8 Q -15.627358223237367 8.77453761179353 -15.629999899999998 8.48798828125 Q -15.627212614312215 8.203518744527592 -15.322382712499998 8.18037109375 L -14.515986228124998 8.18037109375 L -14.515986228124998 4.607617187500002 Q -14.49327464700602 4.307535966668889 -14.219355368749998 4.300000000000002 L -14.212763571874998 4.300000000000002 " stroke="#191919" stroke-width="0.7 px" style="stroke-width:0.7;stroke-miterlimit:4;stroke-dasharray:none;stroke-linecap:square;fill:none;fill-opacity:1;fill-rule: evenodd"/>
<path id="Slice_child1_cs_w0036"  d="M -9.735615134374997 8.392333984375002 Q -10.080729278414388 8.799866305408749 -10.618915915624997 8.800000000000002 L -11.161640524999996 8.6505859375 Q -11.712493906514453 8.319520965780466 -11.935078024999996 7.6728027343750025 Q -12.136668084708795 7.121732343290137 -12.137226462499997 6.539013671875001 L -12.128437399999997 6.290722656250002 Q -12.078573796924672 5.593255469261804 -11.721943259374997 5.005322265625002 Q -11.367740522091712 4.429042818755073 -10.702412009374997 4.310986328125002 L -10.517841696874997 4.295605468750002 L -9.955341696874997 4.475781250000002 L -9.421406149999997 5.047070312500002 Q -9.106709683571314 5.597259563045085 -9.061054587499997 6.242382812500002 L -9.052265524999996 6.497265625000002 L -9.214863181249996 7.505810546875001 L -9.735615134374997 8.392333984375002 " stroke="#191919" stroke-width="0.7 px" style="stroke-width:0.7;stroke-miterlimit:4;stroke-dasharray:none;stroke-linecap:square;fill:none;fill-opacity:1;fill-rule: evenodd"/>
<path id="Slice_child1_cs_w0037"  d="M -7.115888571874997 4.300000000000002 Q -6.847249957473469 4.304098027879107 -6.799482321874997 4.607617187500002 L -6.799482321874997 8.18037109375 L -5.995283103124997 8.18037109375 Q -5.692309209756516 8.201670425167997 -5.689863181249997 8.48798828125 Q -5.6921629002078085 8.776379488208917 -5.995283103124997 8.8 L -8.225507712499997 8.8 Q -8.530483223237368 8.77453761179353 -8.533124899999997 8.48798828125 Q -8.530337614312216 8.203518744527592 -8.225507712499997 8.18037109375 L -7.419111228124999 8.18037109375 L -7.419111228124999 4.607617187500002 Q -7.396399647006017 4.3075359666688815 -7.122480368749997 4.300000000000002 L -7.115888571874997 4.300000000000002 " stroke="#191919" stroke-width="0.7 px" style="stroke-width:0.7;stroke-miterlimit:4;stroke-dasharray:none;stroke-linecap:square;fill:none;fill-opacity:1;fill-rule: evenodd"/>
<circle cx="-62.689335" cy="20.308121" r="1.7" stroke="#191919" stroke-width="0.7 px" style="stroke-width:0.7;stroke-miterlimit:4;stroke-dasharray:none;stroke-linecap:square;fill:none"/>
<path id="Slice_child1_cs_w0039"  d="M -36.903304 15.264815455440768 L -52.354978 15.264815455440768 L -52.354978 25.214815455440768 L -36.903304 25.214815455440768 L -36.903304 15.264815455440768 " stroke="#191919" stroke-width="0.7 px" style="stroke-width:0.7;stroke-miterlimit:4;stroke-dasharray:none;stroke-linecap:square;fill:none;fill-opacity:1;fill-rule: evenodd"/>
<path id="Slice_child1_cs_w0040"  d="M 14.109632081664415 13.214815455440768 L -32.890367918335585 13.214815455440768 L -32.890367918335585 25.214815455440768 L 14.109632081664415 25.214815455440768 L 14.109632081664415 13.214815455440768 " stroke="#191919" stroke-width="0.7 px" style="stroke-width:0.7;stroke-miterlimit:4;stroke-dasharray:none;stroke-linecap:square;fill:none;fill-opacity:1;fill-rule: evenodd"/>
<path id="Slice_child1_cs_w0041"  d="M 36.50357357505076 -1.841452187512856 L -4.496426424949242 -1.8414521875128558 L -4.496426424949242 10.158547812487145 L 36.50357357505076 10.158547812487145 L 36.50357357505076 -1.841452187512856 " stroke="#191919" stroke-width="0.7 px" style="stroke-width:0.7;stroke-miterlimit:4;stroke-dasharray:none;stroke-linecap:square;fill:none;fill-opacity:1;fill-rule: evenodd"/>
<path id="Slice_child1_cs_w0042"  d="M 38.799765725 5.870000000000001 Q 39.03811952117649 5.872997087840284 39.081015725 6.143437500000001 L 39.081015725 9.319218750000001 L 39.795859475 9.319218750000001 Q 40.06555185527384 9.33825505196361 40.06734385 9.592656250000001 Q 40.06565844860823 9.848919862904975 39.795859475 9.870000000000001 L 37.8134376 9.870000000000001 Q 37.54193650605096 9.847227431055888 37.5400001 9.592656250000001 Q 37.54204249484438 9.339952325931812 37.8134376 9.319218750000001 L 38.530234475 9.319218750000001 L 38.530234475 6.143437500000001 Q 38.55065015589746 5.8762048751176135 38.79390635 5.870000000000001 L 38.799765725 5.870000000000001 " stroke="#191919" stroke-width="0.7 px" style="stroke-width:0.7;stroke-miterlimit:4;stroke-dasharray:none;stroke-linecap:square;fill:none;fill-opacity:1;fill-rule: evenodd"/>
<path id="Slice_child1_cs_w0043"  d="M 42.779453225 9.507630208333333 Q 42.4729382125126 9.869890645989688 41.994296975 9.870000000000003 L 41.5118751 9.737187500000001 Q 41.02378585302027 9.44499947355318 40.8243751 8.868046875000001 L 40.6446876 7.860234375000001 L 40.6525001 7.639531250000001 Q 40.69703992647884 7.018801341779978 41.013828225 6.496953125000001 Q 41.32862355992228 5.984583714614297 41.920078225 5.879765625000001 L 42.084140725 5.866093750000001 L 42.584140725 6.026250000000001 L 43.0587501 6.534062500000001 Q 43.338258617310856 7.022321370196991 43.3790626 7.5965625 L 43.3868751 7.823125000000001 L 43.24234385 8.719609375000001 L 42.779453225 9.507630208333335 " stroke="#191919" stroke-width="0.7 px" style="stroke-width:0.7;stroke-miterlimit:4;stroke-dasharray:none;stroke-linecap:square;fill:none;fill-opacity:1;fill-rule: evenodd"/>
<path id="Slice_child1_cs_w0044"  d="M 45.10809905833333 5.870000000000001 Q 45.34645285450982 5.872997087840284 45.38934905833333 6.143437500000001 L 45.38934905833333 9.319218750000001 L 46.10419280833333 9.319218750000001 Q 46.37388518860719 9.338255051963618 46.37567718333333 9.592656250000001 Q 46.37399178194157 9.848919862904971 46.10419280833333 9.870000000000001 L 44.12177093333332 9.870000000000001 Q 43.850269839384296 9.847227431055888 43.84833343333333 9.592656250000001 Q 43.85037582817772 9.339952325931812 44.12177093333333 9.319218750000001 L 44.83856780833333 9.319218750000001 L 44.83856780833333 6.143437500000001 Q 44.858983489230795 5.8762048751176135 45.10223968333333 5.870000000000001 L 45.10809905833333 5.870000000000001 " stroke="#191919" stroke-width="0.7 px" style="stroke-width:0.7;stroke-miterlimit:4;stroke-dasharray:none;stroke-linecap:square;fill:none;fill-opacity:1;fill-rule: evenodd"/>
<path id="Slice_child1_cs_w0045"  d="M 36.13515635 14.113906250000001 Q 36.3820552953256 14.119891528437224 36.398828225 14.387343750000003 L 36.398828225 15.943984375000001 L 37.65859385 15.943984375000001 Q 37.92916520371233 15.983160087209065 37.93203135 16.22328125 Q 37.92988262423491 16.47411529064211 37.65859385 16.4928125 L 36.398828225 16.4928125 L 36.398828225 17.561171875 L 38.0140626 17.561171875 Q 38.28743713245737 17.578103290491903 38.289453225 17.833567708333334 Q 38.28771663552476 18.088974624704186 38.01796885 18.11 L 36.12734385 18.11 Q 35.88456589581985 18.088986151175334 35.8500001 17.83265625 L 35.8500001 14.387343750000001 Q 35.887263256273734 14.116760628938934 36.12734385 14.113906250000001 L 36.13515635 14.113906250000001 " stroke="#191919" stroke-width="0.7 px" style="stroke-width:0.7;stroke-miterlimit:4;stroke-dasharray:none;stroke-linecap:square;fill:none;fill-opacity:1;fill-rule: evenodd"/>
<path id="Slice_child1_cs_w0046"  d="M 16.127734475 20.185859375000003 Q 16.499117252745563 20.197571112116194 16.5232422875 20.596015625000003 L 16.5232422875 22.930976562500003 L 18.412890725 22.930976562500003 Q 18.81499482437507 22.98734928954245 18.823046975 23.349921875000003 Q 18.817020467500896 23.727234314626692 18.412890725 23.754218750000003 L 16.5232422875 23.754218750000003 L 16.5232422875 25.356757812500003 L 18.94609385 25.356757812500003 Q 19.35354179921722 25.38134463758152 19.3591797875 25.7653515625 Q 19.3543191981179 26.149031790964244 18.951953225 26.180000000000003 L 16.116015725 26.180000000000003 Q 15.75108011613897 26.146524864886064 15.7000001 25.763984375 L 15.7000001 20.596015625000003 Q 15.753553874202153 20.19388369337362 16.116015725 20.185859375000003 L 16.127734475 20.185859375000003 " stroke="#191919" stroke-width="0.7 px" style="stroke-width:0.7;stroke-miterlimit:4;stroke-dasharray:none;stroke-linecap:square;fill:none;fill-opacity:1;fill-rule: evenodd"/>
<path id="Slice_child1_cs_w0047"  d="M 23.684765725000002 26.177070312500003 Q 23.36753302238037 26.174619144986302 23.306836037500002 25.848945312499996 L 23.300976662500002 25.769843750000003 L 23.300976662500002 22.157539062500003 L 23.1500001 21.595039062500003 L 22.750195412500005 21.179023437500003 L 22.134961037500002 20.988593750000003 L 21.592968850000002 21.149726562500003 Q 21.039222320593723 21.493119918204535 21.001171975000002 22.157539062500003 L 21.001171975000002 25.769843750000003 Q 21.000311743912405 26.105606187435235 20.673046975000002 26.171210937500003 L 20.567578225000002 26.182929687500003 Q 20.32174450221858 26.180497321505698 20.207226662500002 25.928046875000003 L 20.175000100000002 25.769843750000003 L 20.175000099999995 22.098945312500003 Q 20.20154694208434 21.241878020854877 20.800390725 20.708710937500005 Q 21.360245966818923 20.23993024150389 22.070507912500005 20.203437500000003 L 22.155468850000002 20.200507812500003 Q 22.818888296664774 20.206378278321957 23.377148537499995 20.601875000000003 Q 24.0150245329954 21.07991240352009 24.1125001 21.923164062500003 L 24.12421885 22.098945312500003 L 24.12421885 25.769843750000003 Q 24.12183921214272 26.13833741775492 23.74921885 26.174140625000003 L 23.684765725 26.177070312500003 " stroke="#191919" stroke-width="0.7 px" style="stroke-width:0.7;stroke-miterlimit:4;stroke-dasharray:none;stroke-linecap:square;fill:none;fill-opacity:1;fill-rule: evenodd"/>
<path id="Slice_child1_cs_w0048"  d="M 28.089453225 26.180000000000003 L 25.253515725 26.180000000000003 Q 24.89108611074699 26.151990301128095 24.8375001 25.769843750000003 L 24.8375001 20.596015625000003 Q 24.88804103283882 20.228342186053823 25.253515725 20.180000000000003 L 28.089453225 20.180000000000003 Q 28.49350400964606 20.232667155560385 28.5025391625 20.590156250000003 Q 28.493476484856323 20.94776104559213 28.089453225 21.003242187500003 L 25.6607422875 21.003242187500003 L 25.6607422875 22.928046875000003 L 27.5123047875 22.928046875000003 Q 27.91948696738674 22.98095257875316 27.9283204125 23.344062500000003 Q 27.919152510282338 23.70464072186371 27.5123047875 23.760078125000003 L 25.6607422875 23.760078125000003 L 25.6607422875 25.362617187500003 L 28.089453225 25.362617187500003 Q 28.496753688652177 25.38705530312354 28.5025391625 25.769843750000003 Q 28.496431757526217 26.150170849765452 28.089453225 26.180000000000003 " stroke="#191919" stroke-width="0.7 px" style="stroke-width:0.7;stroke-miterlimit:4;stroke-dasharray:none;stroke-linecap:square;fill:none;fill-opacity:1;fill-rule: evenodd"/>
<path id="Slice_child1_cs_w0049"  d="M 32.83984385 20.177070312500003 Q 33.249681371938195 20.20118748285642 33.255859475 20.584296875000003 Q 33.248444085720294 20.954575017330363 32.8427735375 20.997382812500003 L 30.138671975 20.994453125000007 L 30.138671975 25.763984375000003 Q 30.10975966686487 26.167187542328296 29.740234475 26.18 L 29.728515725 26.180000000000003 Q 29.367937503136286 26.170832097782338 29.3125001 25.763984375000003 L 29.3125001 20.584296875000003 Q 29.366399379602495 20.204720721544362 29.728515725 20.177070312500003 L 32.83984385 20.177070312500003 " stroke="#191919" stroke-width="0.7 px" style="stroke-width:0.7;stroke-miterlimit:4;stroke-dasharray:none;stroke-linecap:square;fill:none;fill-opacity:1;fill-rule: evenodd"/>
<path id="Slice_child1_cs_w0050"  d="M 41.00130218333334 18.11 L 39.11067718333334 18.11 Q 38.869702827588 18.092754929362975 38.83333343333334 17.8365625 L 38.83333343333334 14.387343750000001 Q 38.86679577067933 14.141768377267288 39.11067718333334 14.110000000000003 L 41.00130218333334 14.110000000000001 Q 41.273481438556416 14.146948973426749 41.27669280833334 14.383437500000001 Q 41.27346981612992 14.619968285612135 41.00130218333334 14.658828125000001 L 39.38216155833334 14.658828125000001 L 39.38216155833334 15.942031250000001 L 40.61653655833334 15.942031250000001 Q 40.89072597030541 15.979054026313158 40.89388030833334 16.219375 Q 40.89061332846697 16.457879064096673 40.61653655833334 16.49671875 L 39.38216155833334 16.49671875 L 39.38216155833334 17.565078125 L 41.00130218333334 17.565078125 Q 41.274624903951604 17.58195669646316 41.27669280833334 17.8365625 Q 41.2745095831241 18.08938234511806 41.00130218333334 18.11 " stroke="#191919" stroke-width="0.7 px" style="stroke-width:0.7;stroke-miterlimit:4;stroke-dasharray:none;stroke-linecap:square;fill:none;fill-opacity:1;fill-rule: evenodd"/>
<path id="Slice_child1_cs_w0051"  d="M 43.98463551666667 18.11 L 42.09401051666667 18.11 Q 41.853036160921334 18.092754929362975 41.81666676666667 17.8365625 L 41.81666676666667 14.387343750000001 Q 41.850129104012666 14.141768377267288 42.09401051666667 14.110000000000003 L 43.98463551666667 14.110000000000001 Q 44.25681477188974 14.146948973426749 44.26002614166668 14.383437500000001 Q 44.256803149463266 14.619968285612135 43.984635516666664 14.658828125000001 L 42.36549489166667 14.658828125000001 L 42.36549489166667 15.942031250000001 L 43.59986989166667 15.942031250000001 Q 43.87405930363875 15.979054026313158 43.87721364166667 16.219375 Q 43.8739466618003 16.457879064096673 43.59986989166667 16.49671875 L 42.36549489166667 16.49671875 L 42.36549489166667 17.565078125 L 43.98463551666667 17.565078125 Q 44.25795823728496 17.58195669646316 44.26002614166667 17.8365625 Q 44.25784291645744 18.08938234511806 43.98463551666667 18.11 " stroke="#191919" stroke-width="0.7 px" style="stroke-width:0.7;stroke-miterlimit:4;stroke-dasharray:none;stroke-linecap:square;fill:none;fill-opacity:1;fill-rule: evenodd"/>
<path id="Slice_child1_cs_w0052"  d="M 45.07343759999999 14.110000000000001 L 45.9953126 14.110000000000001 Q 46.68510934096115 14.117664277424776 47.020703225 14.735000000000001 Q 47.3652151590437 15.37248160598238 47.3625001 16.11 Q 47.36524497328632 16.84737563610961 47.02161468333333 17.485 Q 46.686385461356025 18.10273217658289 45.9953126 18.11 L 45.07734384999999 18.11 Q 44.86004649031858 18.107018813122536 44.8000001 17.854140625 L 44.8000001 14.387343750000001 Q 44.799997962959296 14.17118257268356 45.0031251 14.121718750000001 L 45.073437600000005 14.110000000000001 " stroke="#191919" stroke-width="0.7 px" style="stroke-width:0.7;stroke-miterlimit:4;stroke-dasharray:none;stroke-linecap:square;fill:none;fill-opacity:1;fill-rule: evenodd"/>
<path id="Slice_child1_cs_w0053"  d="M 50.53734385 23.51 Q 50.29370093004287 23.474605254741796 50.2600001 23.23265625 L 50.2600001 19.781484375 Q 50.29752915700761 19.543473418348846 50.53734385 19.51 L 51.582265725 19.510000000000005 Q 52.008761133463146 19.53508749771889 52.31859385 19.760911458333336 Q 52.612535303963035 19.9790659415345 52.7365626 20.30296875 L 52.81078135 20.71703125 L 52.781484475 20.99046875 Q 52.70130006844628 21.36815936698344 52.406484475 21.6740625 Q 52.676726640768216 21.923726248897765 52.7521876 22.24046875 L 52.781484475 22.47875 L 52.781484475 22.492421875 L 52.72484385 22.81859375 L 52.37419280833333 23.285390625 L 51.750234475 23.51 L 50.53734385 23.51 " stroke="#191919" stroke-width="0.7 px" style="stroke-width:0.7;stroke-miterlimit:4;stroke-dasharray:none;stroke-linecap:square;fill:none;fill-opacity:1;fill-rule: evenodd"/>
<path id="Slice_child1_cs_w0054"  d="M 53.87302093333333 23.23265625 Q 53.8323691689304 23.50661452593289 53.59567718333333 23.51 L 53.59372405833332 23.51 Q 53.3588900552986 23.506509265780245 53.31833343333333 23.23265625 L 53.31833343333333 19.77953125 Q 53.35922042239591 19.50918178298602 53.59567718333333 19.50609375 L 53.59763030833333 19.50609375 Q 53.83223086577625 19.50928564079601 53.87302093333333 19.77953125 L 53.87302093333333 23.23265625 " stroke="#191919" stroke-width="0.7 px" style="stroke-width:0.7;stroke-miterlimit:4;stroke-dasharray:none;stroke-linecap:square;fill:none;fill-opacity:1;fill-rule: evenodd"/>
<path id="Slice_child1_cs_w0055"  d="M 55.63174489166666 19.51 Q 55.87009868784317 19.51299708784029 55.91299489166666 19.7834375 L 55.91299489166666 22.95921875 L 56.62783864166666 22.95921875 Q 56.89753102194048 22.9782550519636 56.89932301666666 23.23265625 Q 56.897637615274874 23.48891986290498 56.62783864166666 23.51 L 54.645416766666656 23.51 Q 54.3739156727176 23.487227431055885 54.37197926666666 23.23265625 Q 54.37402166151104 22.979952325931812 54.64541676666666 22.95921875 L 55.36221364166666 22.95921875 L 55.36221364166666 19.7834375 Q 55.38262932256413 19.5162048751176 55.62588551666666 19.51 L 55.63174489166666 19.51 " stroke="#191919" stroke-width="0.7 px" style="stroke-width:0.7;stroke-miterlimit:4;stroke-dasharray:none;stroke-linecap:square;fill:none;fill-opacity:1;fill-rule: evenodd"/>
<circle cx="62.689335" cy="20.308121" r="1.7" stroke="#191919" stroke-width="0.7 px" style="stroke-width:0.7;stroke-miterlimit:4;stroke-dasharray:none;stroke-linecap:square;fill:none"/>
<path id="Slice_child1_cs_w0057"  d="M -22.38908193125 -22.55908203125 L -22.38908193125 -20.8330078125 L -21.405195212499997 -20.8330078125 Q -20.992939387065867 -20.881949505245345 -20.77287099375 -21.15771484375 Q -20.576640698113323 -21.41024905178768 -20.5751170875 -21.70703125 L -20.5751170875 -21.7314453125 Q -20.586338269949188 -22.04219263006489 -20.80216786875 -22.29052734375 Q -21.032759434322628 -22.547161919384727 -21.4344920875 -22.55908203125 L -22.38908193125 -22.55908203125 " stroke="#191919" stroke-width="0.7 px" style="stroke-width:0.7;stroke-miterlimit:4;stroke-dasharray:none;stroke-linecap:square;fill:none;fill-opacity:1;fill-rule: evenodd"/>
<path id="Slice_child1_cs_w0058"  d="M -20.6141795875 -19.5390625 L -20.7606639625 -19.9296875 Q -20.91380167930828 -20.11824227539112 -21.2098827125 -20.14697265625 L -22.38908193125 -20.14697265625 L -22.38908193125 -18.943359375 L -21.217206931249997 -18.943359375 Q -20.92793871469197 -18.960396099025857 -20.7704295875 -19.138671875 L -20.6141795875 -19.5390625 " stroke="#191919" stroke-width="0.7 px" style="stroke-width:0.7;stroke-miterlimit:4;stroke-dasharray:none;stroke-linecap:square;fill:none;fill-opacity:1;fill-rule: evenodd"/>
<path id="Slice_child1_cs_w0059"  d="M -8.250735577083333 -18.9580078125 Q -7.8729668992050446 -19.062128884237495 -7.674563702083336 -19.42317708333333 L -7.403567608333335 -20.2421875 L -7.362063702083335 -20.7841796875 L -7.362063702083335 -20.82568359375 L -7.379153545833333 -21.1552734375 L -7.557376202083335 -21.892578125 L -7.930911358333335 -22.41015625 L -8.321536358333335 -22.576171875 L -8.521731670833335 -22.54443359375 Q -8.817248404637033 -22.45189957484203 -8.995364483333336 -22.17708333333333 L -9.266360577083336 -21.554524739583332 L -9.368899639583336 -20.85498046875 L -9.371341045833336 -20.7109375 L -9.334719952083336 -20.251953125 L -9.043053285416669 -19.4267578125 Q -8.827476753454002 -18.956599680829626 -8.363040264583336 -18.943359375 L -8.250735577083333 -18.9580078125 " stroke="#191919" stroke-width="0.7 px" style="stroke-width:0.7;stroke-miterlimit:4;stroke-dasharray:none;stroke-linecap:square;fill:none;fill-opacity:1;fill-rule: evenodd"/>
<path id="Slice_child1_cs_w0060"  d="M 39.185078225 -22.486406249999998 Q 39.48640759889193 -22.568860726091188 39.646015725 -22.858541666666664 L 39.8628126 -23.513749999999998 L 39.896015725 -23.947343749999998 L 39.896015725 -23.980546874999998 L 39.88234385 -24.244218749999998 L 39.739765725 -24.834062499999998 L 39.4409376 -25.248124999999998 L 39.1284376 -25.380937499999998 L 38.96828135 -25.355546874999998 L 38.5893751 -25.061666666666664 L 38.372578225 -24.563619791666664 L 38.290546975 -24.003984374999998 L 38.28859385 -23.888749999999998 L 38.317890725 -23.521562499999998 L 38.55122405833333 -22.861406249999998 Q 38.7265821005707 -22.482752098981138 39.095234475 -22.474687499999998 L 39.185078225 -22.486406249999998 " stroke="#191919" stroke-width="0.7 px" style="stroke-width:0.7;stroke-miterlimit:4;stroke-dasharray:none;stroke-linecap:square;fill:none;fill-opacity:1;fill-rule: evenodd"/>
<path id="Slice_child1_cs_w0061"  d="M 47.69940114166666 -25.367265624999998 L 47.69940114166666 -23.986406249999998 L 48.48651051666666 -23.986406249999998 Q 48.81952502537153 -24.027102330210454 48.99236989166666 -24.246171874999998 L 49.15057301666666 -24.685624999999998 L 49.15057301666666 -24.705156249999998 L 48.96893239166666 -25.152421874999998 Q 48.78735376899894 -25.3566060089223 48.46307301666666 -25.367265624999998 L 47.69940114166666 -25.367265624999998 " stroke="#191919" stroke-width="0.7 px" style="stroke-width:0.7;stroke-miterlimit:4;stroke-dasharray:none;stroke-linecap:square;fill:none;fill-opacity:1;fill-rule: evenodd"/>
<path id="Slice_child1_cs_w0062"  d="M 49.11932301666666 -22.951249999999998 L 49.00213551666666 -23.263749999999998 L 48.64276051666666 -23.437578124999998 L 47.69940114166666 -23.437578124999998 L 47.69940114166666 -22.474687499999998 L 48.63690114166666 -22.474687499999998 L 48.99432301666666 -22.630937499999998 L 49.11932301666666 -22.951249999999998 " stroke="#191919" stroke-width="0.7 px" style="stroke-width:0.7;stroke-miterlimit:4;stroke-dasharray:none;stroke-linecap:square;fill:none;fill-opacity:1;fill-rule: evenodd"/>
<path id="Slice_child1_cs_w0063"  d="M 52.20500009999999 -23.916093749999998 L 52.20500009999999 -23.931718749999998 Q 52.216629450173386 -24.5216757173999 52.033125099999985 -24.935624999999998 Q 51.83490340279716 -25.35258090092365 51.42765634999999 -25.363359374999998 L 50.75578134999999 -25.363359374999998 L 50.75578134999999 -22.470781249999998 L 51.40031259999999 -22.470781249999998 Q 51.75071633689374 -22.506463676241033 52.00578134999999 -22.961015624999998 Q 52.21675914453141 -23.34958709764763 52.2050001 -23.916093749999998 " stroke="#191919" stroke-width="0.7 px" style="stroke-width:0.7;stroke-miterlimit:4;stroke-dasharray:none;stroke-linecap:square;fill:none;fill-opacity:1;fill-rule: evenodd"/>
<path id="Slice_child1_cs_w0064"  d="M 43.619401141666664 -19.087265624999997 L 43.619401141666664 -17.706406249999997 L 44.40651051666667 -17.706406249999997 Q 44.739525025371535 -17.747102330210453 44.912369891666664 -17.966171874999997 L 45.070573016666664 -18.405624999999997 L 45.070573016666664 -18.425156249999997 L 44.888932391666664 -18.872421874999997 Q 44.70735376899894 -19.076606008922298 44.383073016666664 -19.087265624999997 L 43.619401141666664 -19.087265624999997 " stroke="#191919" stroke-width="0.7 px" style="stroke-width:0.7;stroke-miterlimit:4;stroke-dasharray:none;stroke-linecap:square;fill:none;fill-opacity:1;fill-rule: evenodd"/>
<path id="Slice_child1_cs_w0065"  d="M 45.039323016666664 -16.671249999999997 L 44.922135516666664 -16.983749999999997 L 44.562760516666664 -17.157578124999997 L 43.619401141666664 -17.157578124999997 L 43.619401141666664 -16.194687499999997 L 44.55690114166667 -16.194687499999997 L 44.914323016666664 -16.350937499999997 L 45.039323016666664 -16.671249999999997 " stroke="#191919" stroke-width="0.7 px" style="stroke-width:0.7;stroke-miterlimit:4;stroke-dasharray:none;stroke-linecap:square;fill:none;fill-opacity:1;fill-rule: evenodd"/>
<path id="Slice_child1_cs_w0066"  d="M 48.125000099999994 -17.636093749999997 L 48.125000099999994 -17.651718749999997 Q 48.13662945017337 -18.241675717399907 47.953125099999994 -18.655624999999997 Q 47.75490340279717 -19.072580900923647 47.347656349999994 -19.083359374999997 L 46.675781349999994 -19.083359374999997 L 46.675781349999994 -16.190781249999997 L 47.320312599999994 -16.190781249999997 Q 47.67071633689375 -16.226463676241032 47.925781349999994 -16.681015624999997 Q 48.13675914453141 -17.069587097647627 48.125000099999994 -17.636093749999997 " stroke="#191919" stroke-width="0.7 px" style="stroke-width:0.7;stroke-miterlimit:4;stroke-dasharray:none;stroke-linecap:square;fill:none;fill-opacity:1;fill-rule: evenodd"/>
<path id="Slice_child1_cs_w0067"  d="M 16.34078135 -5.29078125 L 16.34078135 -4.040781249999999 L 17.303671975 -4.040781249999999 Q 17.610948303443678 -4.067722539303875 17.788046975 -4.3103125 L 17.90328135 -4.6540625 L 17.87203135 -4.853281249999999 L 17.644427183333335 -5.169687499999999 L 17.276328225 -5.290781249999999 L 16.34078135 -5.290781249999999 " stroke="#191919" stroke-width="0.7 px" style="stroke-width:0.7;stroke-miterlimit:4;stroke-dasharray:none;stroke-linecap:square;fill:none;fill-opacity:1;fill-rule: evenodd"/>
<path id="Slice_child1_cs_w0068"  d="M -16.213932191666665 -0.29726562499999787 L -16.213932191666665 1.0835937500000021 L -15.426822816666665 1.0835937500000021 Q -15.093808307961801 1.0428976697895462 -14.920963441666665 0.8238281250000021 L -14.762760316666665 0.384375000000002 L -14.762760316666665 0.364843750000002 L -14.944400941666665 -0.08242187499999798 Q -15.125979564334394 -0.2866060089223048 -15.450260316666665 -0.297265624999998 L -16.213932191666665 -0.297265624999998 " stroke="#191919" stroke-width="0.7 px" style="stroke-width:0.7;stroke-miterlimit:4;stroke-dasharray:none;stroke-linecap:square;fill:none;fill-opacity:1;fill-rule: evenodd"/>
<path id="Slice_child1_cs_w0069"  d="M -14.794010316666665 2.118750000000002 L -14.911197816666665 1.8062500000000021 L -15.270572816666665 1.6324218750000021 L -16.213932191666665 1.6324218750000021 L -16.213932191666665 2.595312500000002 L -15.276432191666665 2.5953125000000017 L -14.919010316666665 2.4390625000000017 L -14.794010316666665 2.118750000000002 " stroke="#191919" stroke-width="0.7 px" style="stroke-width:0.7;stroke-miterlimit:4;stroke-dasharray:none;stroke-linecap:square;fill:none;fill-opacity:1;fill-rule: evenodd"/>
<path id="Slice_child1_cs_w0070"  d="M -10.500263571874997 8.16279296875 Q -10.16076205266107 8.069550440380137 -9.981708884374994 7.744140625000003 L -9.737812399999996 7.0070312500000025 L -9.700458884374997 6.519238281250002 L -9.700458884374997 6.481884765625002 L -9.715839743749996 6.185253906250002 L -9.876240134374996 5.521679687500002 L -10.212421774999996 5.055859375000002 L -10.563984274999996 4.906445312500002 L -10.744160056249996 4.935009765625002 L -11.170429587499996 5.265625000000002 L -11.414326071874996 5.825927734375002 L -11.506611228124996 6.4555175781250025 L -11.508808493749996 6.585156250000002 L -11.475849509374996 6.998242187500002 L -11.213349509374996 7.740917968750002 Q -11.017751141008112 8.165439132022545 -10.601337790624996 8.1759765625 L -10.500263571874996 8.16279296875 " stroke="#191919" stroke-width="0.7 px" style="stroke-width:0.7;stroke-miterlimit:4;stroke-dasharray:none;stroke-linecap:square;fill:none;fill-opacity:1;fill-rule: evenodd"/>
<path id="Slice_child1_cs_w0071"  d="M 42.099765725 9.303593750000001 Q 42.40109509889193 9.221139273908815 42.560703225 8.931458333333335 L 42.7775001 8.276250000000001 L 42.810703225 7.842656250000001 L 42.810703225 7.809453125000001 L 42.79703135 7.545781250000001 L 42.654453225 6.955937500000001 L 42.3556251 6.541875000000001 L 42.0431251 6.409062500000001 L 41.88296885 6.434453125000001 L 41.5040626 6.728333333333334 L 41.287265725 7.226380208333334 L 41.205234475 7.786015625000001 L 41.20328135 7.901250000000001 L 41.232578225 8.268437500000001 L 41.46591155833333 8.928593750000001 Q 41.641269600570645 9.307247901018819 42.009921975 9.315312500000001 L 42.099765725 9.303593750000001 " stroke="#191919" stroke-width="0.7 px" style="stroke-width:0.7;stroke-miterlimit:4;stroke-dasharray:none;stroke-linecap:square;fill:none;fill-opacity:1;fill-rule: evenodd"/>
<path id="Slice_child1_cs_w0072"  d="M 46.8000001 16.11390625 L 46.8000001 16.09828125 Q 46.811629450173356 15.508324282599968 46.6281251 15.094375 Q 46.429903402797166 14.677419099076346 46.02265635 14.666640625000001 L 45.35078134999999 14.666640625000001 L 45.35078135 17.55921875 L 45.9953126 17.55921875 Q 46.34571633689366 17.523536323759025 46.60078135 17.068984375 Q 46.81175914453134 16.680412902352664 46.8000001 16.11390625 " stroke="#191919" stroke-width="0.7 px" style="stroke-width:0.7;stroke-miterlimit:4;stroke-dasharray:none;stroke-linecap:square;fill:none;fill-opacity:1;fill-rule: evenodd"/>
<path id="Slice_child1_cs_w0073"  d="M 50.812734475 20.062734375 L 50.812734475 21.44359375 L 51.59984385 21.44359375 Q 51.93285835870489 21.40289766978953 52.105703225000006 21.183828125 L 52.26390635 20.744375 L 52.26390635 20.72484375 L 52.082265725 20.277578125 Q 51.90068710233226 20.073393991077694 51.57640635 20.062734375 L 50.812734475 20.062734375 " stroke="#191919" stroke-width="0.7 px" style="stroke-width:0.7;stroke-miterlimit:4;stroke-dasharray:none;stroke-linecap:square;fill:none;fill-opacity:1;fill-rule: evenodd"/>
<path id="Slice_child1_cs_w0074"  d="M 52.23265635 22.47875 L 52.11546885 22.16625 L 51.75609385 21.992421875 L 50.812734475 21.992421875 L 50.812734475 22.9553125 L 51.750234475 22.9553125 L 52.10765635 22.7990625 L 52.23265635 22.47875 " stroke="#191919" stroke-width="0.7 px" style="stroke-width:0.7;stroke-miterlimit:4;stroke-dasharray:none;stroke-linecap:square;fill:none;fill-opacity:1;fill-rule: evenodd"/>
<title>b'Panel Crosssection Top'</title>
</g>
</svg>