<?xml version="1.0"?>
<!DOCTYPE svg PUBLIC "-//W3C//DTD SVG 1.1//EN" "http://www.w3.org/Graphics/SVG/1.1/DTD/svg11.dtd">
<svg width="158.1mm" height="64.1mm" viewBox="0 0 158.1 64.1" xmlns="http://www.w3.org/2000/svg" version="1.1">
<g id="Slice_child0_cs" transform="translate(79.050000,32.050000) scale(1,-1)">
<path id="Slice_child0_cs_w0000"  d="M -72.5 15.729223250749158 A 5 5 0 0 1 -67.5 20.7292L -67.5 29.75 A 0.75 0.75 0 0 0 -66.75 30.5L 66.75000000000003 30.5 A 0.75 0.75 0 0 0 67.5 29.75L 67.50000000000003 20.729223250749158 A 5 5 0 0 1 72.5 15.7292L 76.75 15.729223250749158 A 0.75 0.75 0 0 0 77.5 14.9792L 77.5 -20.561422250749178 A 0.75 0.75 0 0 0 76.75 -21.3114L 72.5 -21.311422250749178 A 5 5 0 0 1 67.5 -26.3114L 67.5 -29.75 A 0.75 0.75 0 0 0 66.75 -30.5L -66.75 -30.5 A 0.75 0.75 0 0 0 -67.5 -29.75L -67.5 -26.311422250749175 A 5 5 0 0 1 -72.5 -21.3114L -76.75 -21.311422250749175 A 0.75 0.75 0 0 0 -77.5 -20.5614L -77.5 14.979223250749158 A 0.75 0.75 0 0 0 -76.75 15.7292L -72.5 15.729223250749158 " stroke="#191919" stroke-width="0.7 px" style="stroke-width:0.7;stroke-miterlimit:4;stroke-dasharray:none;stroke-linecap:square;fill:none;fill-opacity:1;fill-rule: evenodd"/>
<circle cx="-62.689335" cy="-26.373596" r="1.7" stroke="#191919" stroke-width="0.7 px" style="stroke-width:0.7;stroke-miterlimit:4;stroke-dasharray:none;stroke-linecap:square;fill:none"/>
<circle cx="-19.482552" cy="-22.499441" r="1.7" stroke="#191919" stroke-width="0.7 px" style="stroke-width:0.7;stroke-miterlimit:4;stroke-dasharray:none;stroke-linecap:square;fill:none"/>
<circle cx="-9.108027" cy="-22.499441" r="1.7" stroke="#191919" stroke-width="0.7 px" style="stroke-width:0.7;stroke-miterlimit:4;stroke-dasharray:none;stroke-linecap:square;fill:none"/>
<circle cx="-45.151688" cy="-8.656791" r="1.7" stroke="#191919" stroke-width="0.7 px" style="stroke-width:0.7;stroke-miterlimit:4;stroke-dasharray:none;stroke-linecap:square;fill:none"/>
<circle cx="10.965596" cy="-18.235405" r="6.1382359913445" stroke="#191919" stroke-width="0.7 px" style="stroke-width:0.7;stroke-miterlimit:4;stroke-dasharray:none;stroke-linecap:square;fill:none"/>
<circle cx="45.169231" cy="-23.828842" r="1.7" stroke="#191919" stroke-width="0.7 px" style="stroke-width:0.7;stroke-miterlimit:4;stroke-dasharray:none;stroke-linecap:square;fill:none"/>
<circle cx="62.689335" cy="-26.373596" r="1.7" stroke="#191919" stroke-width="0.7 px" style="stroke-width:0.7;stroke-miterlimit:4;stroke-dasharray:none;stroke-linecap:square;fill:none"/>
<circle cx="39.128422" cy="-19.859608" r="1.7" stroke="#191919" stroke-width="0.7 px" style="stroke-width:0.7;stroke-miterlimit:4;stroke-dasharray:none;stroke-linecap:square;fill:none"/>
<circle cx="56.792027" cy="-19.765234" r="1.7" stroke="#191919" stroke-width="0.7 px" style="stroke-width:0.7;stroke-miterlimit:4;stroke-dasharray:none;stroke-linecap:square;fill:none"/>
<circle cx="48.661102" cy="-16.580872" r="1.7" stroke="#191919" stroke-width="0.7 px" style="stroke-width:0.7;stroke-miterlimit:4;stroke-dasharray:none;stroke-linecap:square;fill:none"/>
<circle cx="9.351892" cy="-9.991585" r="1.7" stroke="#191919" stroke-width="0.7 px" style="stroke-width:0.7;stroke-miterlimit:4;stroke-dasharray:none;stroke-linecap:square;fill:none"/>
<circle cx="16.925945" cy="-8.137198" r="1.7" stroke="#191919" stroke-width="0.7 px" style="stroke-width:0.7;stroke-miterlimit:4;stroke-dasharray:none;stroke-linecap:square;fill:none"/>
<circle cx="40.313736" cy="-8.576738" r="1.7" stroke="#191919" stroke-width="0.7 px" style="stroke-width:0.7;stroke-miterlimit:4;stroke-dasharray:none;stroke-linecap:square;fill:none"/>
<path id="Slice_child0_cs_w0014"  d="M -67.49619700000001 14.300799999999999 L -67.49619700000001 -6.54654 L -36.63279 -6.54654 L -36.63279 -20.239132 L 4.402402 -20.239132 L 4.402402 -10.244221 L 6.8962179999999975 -10.244221 L 6.8962179999999975 -6.385556000000001 L 38.686081 -6.385556000000001 L 38.686081 13.217575 L 15.307775999999976 13.217575 L 15.307775999999976 27.109003 L -56.415484000000006 27.109003 L -56.415484000000006 14.300799999999999 L -67.49619700000001 14.300799999999999 " stroke="#191919" stroke-width="0.7 px" style="stroke-width:0.7;stroke-miterlimit:4;stroke-dasharray:none;stroke-linecap:square;fill:none;fill-opacity:1;fill-rule: evenodd"/>
<circle cx="-62.689335" cy="20.308121" r="1.7" stroke="#191919" stroke-width="0.7 px" style="stroke-width:0.7;stroke-miterlimit:4;stroke-dasharray:none;stroke-linecap:square;fill:none"/>
<circle cx="41.049206" cy="0.040783" r="1.7" stroke="#191919" stroke-width="0.7 px" style="stroke-width:0.7;stroke-miterlimit:4;stroke-dasharray:none;stroke-linecap:square;fill:none"/>
<circle cx="57.029831" cy="0.0" r="6.76616" stroke="#191919" stroke-width="0.7 px" style="stroke-width:0.7;stroke-miterlimit:4;stroke-dasharray:none;stroke-linecap:square;fill:none"/>
<circle cx="42.035233" cy="8.035316" r="1.7" stroke="#191919" stroke-width="0.7 px" style="stroke-width:0.7;stroke-miterlimit:4;stroke-dasharray:none;stroke-linecap:square;fill:none"/>
<circle cx="53.107712" cy="12.569047" r="1.7" stroke="#191919" stroke-width="0.7 px" style="stroke-width:0.7;stroke-miterlimit:4;stroke-dasharray:none;stroke-linecap:square;fill:none"/>
<circle cx="17.712671" cy="23.338758" r="1.7" stroke="#191919" stroke-width="0.7 px" style="stroke-width:0.7;stroke-miterlimit:4;stroke-dasharray:none;stroke-linecap:square;fill:none"/>
<circle cx="29.058838" cy="23.338758" r="1.7" stroke="#191919" stroke-width="0.7 px" style="stroke-width:0.7;stroke-miterlimit:4;stroke-dasharray:none;stroke-linecap:square;fill:none"/>
<circle cx="41.337353" cy="16.323912" r="1.7" stroke="#191919" stroke-width="0.7 px" style="stroke-width:0.7;stroke-miterlimit:4;stroke-dasharray:none;stroke-linecap:square;fill:none"/>
<circle cx="53.822559" cy="21.690046" r="1.7" stroke="#191919" stroke-width="0.7 px" style="stroke-width:0.7;stroke-miterlimit:4;stroke-dasharray:none;stroke-linecap:square;fill:none"/>
<circle cx="62.689335" cy="20.308121" r="1.7" stroke="#191919" stroke-width="0.7 px" style="stroke-width:0.7;stroke-miterlimit:4;stroke-dasharray:none;stroke-linecap:square;fill:none"/>
<title>b'Panel Cross-section Middle'</title>
</g>
</svg>