<?xml version="1.0"?>
<!DOCTYPE svg PUBLIC "-//W3C//DTD SVG 1.1//EN" "http://www.w3.org/Graphics/SVG/1.1/DTD/svg11.dtd">
<svg width="51.57506799563553mm" height="21.655138715690647mm" viewBox="0 0 51.57506799563553 21.655138715690647" xmlns="http://www.w3.org/2000/svg" version="1.1">
<g id="Pocket005_cs" transform="translate(25.787534,10.827569) scale(1,-1)">
<path id="Pocket005_cs_w0000"  d="M -16.427594721438595 5.768115333519917 L -16.427594721438595 9.821931436319485 A 0.5 0.5 0 0 0 -15.9276 10.3219L 15.927594721438687 10.321931436319485 A 0.5 0.5 0 0 0 16.4276 9.82193L 16.427594721438687 5.768115333519918 A 5 5 0 0 1 21.4276 0.768115L 24.781896076291925 0.7681153335201021 A 0.5 0.5 0 0 0 25.2819 0.268115L 25.281896076291925 -9.821931436319485 A 0.5 0.5 0 0 0 24.7819 -10.3219L -24.781896076291925 -10.321931436319485 A 0.5 0.5 0 0 0 -25.2819 -9.82193L -25.281896076291925 0.26811533352001 A 0.5 0.5 0 0 0 -24.7819 0.768115L -21.427594721438503 0.7681153335200559 A 5 5 0 0 1 -16.4276 5.76812" stroke="#191919" stroke-width="0.7 px" style="stroke-width:0.7;stroke-miterlimit:4;stroke-dasharray:none;stroke-linecap:square;fill:none;fill-opacity:1;fill-rule: evenodd"/>
<circle cx="4.063005" cy="0.0" r="6.5" stroke="#191919" stroke-width="0.7 px" style="stroke-width:0.7;stroke-miterlimit:4;stroke-dasharray:none;stroke-linecap:square;fill:none"/>
<title>b'Panel CS Top Cut'</title>
</g>
</svg>