<?xml version="1.0"?>
<!DOCTYPE svg PUBLIC "-//W3C//DTD SVG 1.1//EN" "http://www.w3.org/Graphics/SVG/1.1/DTD/svg11.dtd">
<svg width="53.61506799563553mm" height="23.695138715690646mm" viewBox="0 0 53.61506799563553 23.695138715690646" xmlns="http://www.w3.org/2000/svg" version="1.1">
<g id="Body" transform="translate(26.807534,11.847569) scale(1,-1)">
<path id="Body_f0000"  d="M -26.281896076291925 -10.321931436319483 L -26.281896076291925 10.321931436319487 L -26.281896076291925 10.321931436319487 L -26.281896076291925 -10.321931436319485 L -26.281896076291925 -10.321931436319485 Z " stroke="#191919" stroke-width="0.7 px" style="stroke-width:0.7;stroke-miterlimit:4;stroke-dasharray:none;stroke-linecap:square;fill:#222121;fill-opacity:1.0;fill-rule: evenodd"/>
<path id="Body_f0001"  d="M -25.281896076291925 -11.321931436319485 A 1 1 0 0 0 -26.2819 -10.3219L -26.281896076291925 -10.321931436319485 A 1 1 0 0 1 -25.2819 -11.3219L -25.281896076291925 -11.321931436319485 Z " stroke="#191919" stroke-width="0.7 px" style="stroke-width:0.7;stroke-miterlimit:4;stroke-dasharray:none;stroke-linecap:square;fill:#222121;fill-opacity:1.0;fill-rule: evenodd"/>
<path id="Body_f0002"  d="M 25.281896076291925 -11.321931436319483 L -25.281896076291925 -11.321931436319485 L -25.281896076291925 -11.321931436319485 L 25.281896076291925 -11.321931436319483 L 25.281896076291925 -11.321931436319483 Z " stroke="#191919" stroke-width="0.7 px" style="stroke-width:0.7;stroke-miterlimit:4;stroke-dasharray:none;stroke-linecap:square;fill:#222121;fill-opacity:1.0;fill-rule: evenodd"/>
<path id="Body_f0003"  d="M 26.281896076291925 -10.321931436319483 A 1 1 0 0 0 25.2819 -11.3219L 25.281896076291925 -11.321931436319483 A 1 1 0 0 1 26.2819 -10.3219L 26.281896076291925 -10.321931436319483 Z " stroke="#191919" stroke-width="0.7 px" style="stroke-width:0.7;stroke-miterlimit:4;stroke-dasharray:none;stroke-linecap:square;fill:#222121;fill-opacity:1.0;fill-rule: evenodd"/>
<path id="Body_f0004"  d="M 26.281896076291925 10.321931436319487 L 26.281896076291925 -10.321931436319483 L 26.281896076291925 -10.321931436319483 L 26.281896076291925 10.321931436319487 L 26.281896076291925 10.321931436319487 Z " stroke="#191919" stroke-width="0.7 px" style="stroke-width:0.7;stroke-miterlimit:4;stroke-dasharray:none;stroke-linecap:square;fill:#222121;fill-opacity:1.0;fill-rule: evenodd"/>
<path id="Body_f0005"  d="M 25.281896076291925 11.321931436319487 A 1 1 0 0 0 26.2819 10.3219L 26.281896076291925 10.321931436319487 A 1 1 0 0 1 25.2819 11.3219L 25.281896076291925 11.321931436319487 Z " stroke="#191919" stroke-width="0.7 px" style="stroke-width:0.7;stroke-miterlimit:4;stroke-dasharray:none;stroke-linecap:square;fill:#222121;fill-opacity:1.0;fill-rule: evenodd"/>
<path id="Body_f0006"  d="M -25.281896076291925 11.321931436319487 L 25.281896076291925 11.321931436319487 L 25.281896076291925 11.321931436319487 L -25.281896076291925 11.321931436319487 L -25.281896076291925 11.321931436319487 Z " stroke="#191919" stroke-width="0.7 px" style="stroke-width:0.7;stroke-miterlimit:4;stroke-dasharray:none;stroke-linecap:square;fill:#222121;fill-opacity:1.0;fill-rule: evenodd"/>
<path id="Body_f0007"  d="M -26.281896076291925 10.321931436319487 A 1 1 0 0 0 -25.2819 11.3219L -25.281896076291925 11.321931436319487 A 1 1 0 0 1 -26.2819 10.3219L -26.281896076291925 10.321931436319487 Z " stroke="#191919" stroke-width="0.7 px" style="stroke-width:0.7;stroke-miterlimit:4;stroke-dasharray:none;stroke-linecap:square;fill:#222121;fill-opacity:1.0;fill-rule: evenodd"/>
<circle cx="4.078286999999915" cy="0.0" r="6.25" stroke="#191919" stroke-width="0.7 px" style="stroke-width:0.7;stroke-miterlimit:4;stroke-dasharray:none;stroke-linecap:square;fill:#222121"/>
<circle cx="21.532578" cy="7.328413" r="1.25" stroke="#191919" stroke-width="0.7 px" style="stroke-width:0.7;stroke-miterlimit:4;stroke-dasharray:none;stroke-linecap:square;fill:#222121"/>
<circle cx="-21.532578" cy="7.328413" r="1.25" stroke="#191919" stroke-width="0.7 px" style="stroke-width:0.7;stroke-miterlimit:4;stroke-dasharray:none;stroke-linecap:square;fill:#222121"/>
<circle cx="4.078286999999915" cy="0.0" r="6.25" stroke="#191919" stroke-width="0.7 px" style="stroke-width:0.7;stroke-miterlimit:4;stroke-dasharray:none;stroke-linecap:square;fill:#222121"/>
<circle cx="4.078286999999915" cy="0.0" r="6.25" stroke="#191919" stroke-width="0.7 px" style="stroke-width:0.7;stroke-miterlimit:4;stroke-dasharray:none;stroke-linecap:square;fill:#222121"/>
<title>b'Panel-Bottom'</title>
</g>
</svg>