<?xml version="1.0"?>
<!DOCTYPE svg PUBLIC "-//W3C//DTD SVG 1.1//EN" "http://www.w3.org/Graphics/SVG/1.1/DTD/svg11.dtd">
<svg width="50.5087380697517mm" height="105.39553441313238mm" viewBox="0 0 50.5087380697517 105.39553441313238" xmlns="http://www.w3.org/2000/svg" version="1.1">
<g id="Slice_child2_cs" transform="translate(27.784885,24.814948) scale(1,-1)">
<path id="Slice_child2_cs_w0000"  d="M -25.298312703297576 24.319763999999996 Q -27.433219123294563 0.26826348536067 -27.2897 -23.8825 L -27.289701656619307 -80.085403 L 22.228669 -80.085403 L 22.228668999999996 24.319763999999992 L -25.298312703297576 24.319763999999996 " stroke="#191919" stroke-width="0.7 px" style="stroke-width:0.7;stroke-miterlimit:4;stroke-dasharray:none;stroke-linecap:square;fill:none;fill-opacity:1;fill-rule: evenodd"/>
<circle cx="-12.031741" cy="-65.797764" r="1.7" stroke="#191919" stroke-width="0.7 px" style="stroke-width:0.7;stroke-miterlimit:4;stroke-dasharray:none;stroke-linecap:square;fill:none"/>
<circle cx="4.187192" cy="-58.424969" r="6.5" stroke="#191919" stroke-width="0.7 px" style="stroke-width:0.7;stroke-miterlimit:4;stroke-dasharray:none;stroke-linecap:square;fill:none"/>
<path id="Slice_child2_cs_w0003"  d="M 12.267029 -15.316411 A 1.5 1.5 0 0 1 13.767 -13.8164L 13.767029 1.9835889999999994 A 1.5 1.5 0 0 1 12.267 3.48359L -3.532971 3.4835889999999994 A 1.5 1.5 0 0 1 -5.03297 1.98359L -5.032971 -13.816411000000002 A 1.5 1.5 0 0 1 -3.53297 -15.3164L 12.267029 -15.316411 " stroke="#191919" stroke-width="0.7 px" style="stroke-width:0.7;stroke-miterlimit:4;stroke-dasharray:none;stroke-linecap:square;fill:none;fill-opacity:1;fill-rule: evenodd"/>
<circle cx="13.872832" cy="16.360986" r="1.7" stroke="#191919" stroke-width="0.7 px" style="stroke-width:0.7;stroke-miterlimit:4;stroke-dasharray:none;stroke-linecap:square;fill:none"/>
<title>b'CrossSection-Panel-MasterArm-TopLower'</title>
</g>
</svg>