<?xml version="1.0"?>
<!DOCTYPE svg PUBLIC "-//W3C//DTD SVG 1.1//EN" "http://www.w3.org/Graphics/SVG/1.1/DTD/svg11.dtd">
<svg width="15.1456332mm" height="7.9969732mm" viewBox="0 0 15.1456332 7.9969732" xmlns="http://www.w3.org/2000/svg" version="1.1">
<g id="Part008_cs" transform="translate(7.572817,3.998487) scale(1,-1)">
<path id="Part008_cs_w0000"  d="M 7.42433 3.85 L -7.42433 3.85 L -7.42433 -3.85 L 7.42433 -3.85 L 7.42433 3.85 " stroke="#191919" stroke-width="0.7 px" style="stroke-width:0.7;stroke-miterlimit:4;stroke-dasharray:none;stroke-linecap:square;fill:none;fill-opacity:1;fill-rule: evenodd"/>
<path id="Part008_cs_w0001"  d="M -1.892441306249999 1.876582031249999 Q -2.1056040790047286 1.8745450464991789 -2.1368260718749994 1.6339062499999994 L -2.1368260718749994 -0.5433398437500001 L -3.5723729468749994 1.7620800781250003 L -3.7552342749999994 1.88341796875 L -3.8338475562499994 1.868037109375 L -4.014999899999999 1.6339062499999994 L -4.014999899999999 -1.38416015625 Q -3.9805675846914794 -1.621238736873973 -3.774944561458333 -1.62341796875 Q -3.5691821417248324 -1.6212345041512704 -3.5330663062499994 -1.38416015625 L -3.5330663062499994 0.7913769531249999 L -2.09751943125 -1.5106249999999999 L -1.9078221656249994 -1.62341796875 L -1.8838963843749998 -1.62341796875 L -1.8274998999999994 -1.6131640625 Q -1.6551062612359866 -1.5652312799213837 -1.6548924781249994 -1.387578125 L -1.6548924781249994 1.6339062499999997 Q -1.6729386999156768 1.8715203313221973 -1.8890233374999994 1.8765820312499994 L -1.8924413062499998 1.8765820312499994 " stroke="#191919" stroke-width="0.7 px" style="stroke-width:0.7;stroke-miterlimit:4;stroke-dasharray:none;stroke-linecap:square;fill:none;fill-opacity:1;fill-rule: evenodd"/>
<path id="Part008_cs_w0002"  d="M -0.952044170833333 -1.59607421875 L -0.8546320614583331 -1.614873046875 L -0.6273371395833331 -1.457646484375 L -0.456438702083333 -0.9808398437499998 L 0.9227116885416674 -0.9774218750000002 L 1.0987370791666669 -1.461064453125 L 1.3448308291666669 -1.62341796875 L 1.3482487979166669 -1.62341796875 L 1.4046452822916673 -1.604619140625 Q 1.5618720865600757 -1.559885478087419 1.5618718447916669 -1.39099609375 L 1.5516179385416669 -1.2987109375 L 0.45615895416666674 1.7227734375000003 L 0.23740895416666685 1.88 L 0.2288640322916664 1.88 L 0.013532001041666852 1.7227734375 L -1.0750910458333325 -1.3209277343749997 L -1.0785090145833331 -1.375615234375 L -0.9520441708333331 -1.59607421875 " stroke="#191919" stroke-width="0.7 px" style="stroke-width:0.7;stroke-miterlimit:4;stroke-dasharray:none;stroke-linecap:square;fill:none;fill-opacity:1;fill-rule: evenodd"/>
<path id="Part008_cs_w0003"  d="M 3.004482521875001 -1.62 Q 3.166133417936407 -1.6190013853581906 3.2334864281250004 -1.442265625 L 4.046962990625001 1.5775097656250003 L 4.055507912500001 1.6578320312499994 Q 4.054827647758515 1.8190178574355333 3.8829004906250004 1.86974609375 L 3.7974512718750004 1.88341796875 L 3.5821192406250013 1.702265625 L 3.002773537500002 -0.4510546874999998 L 2.4268458031250004 1.6817578124999997 L 2.2098047875000004 1.8646191406249994 L 2.1346094750000013 1.854365234375 Q 1.9569379837008118 1.807894795955827 1.9551661156250004 1.6202343749999994 L 1.9602930687500004 1.557001953125 L 2.7703516625000004 -1.4491015625000006 L 3.0027735375000013 -1.62 L 3.0044825218750018 -1.62 " stroke="#191919" stroke-width="0.7 px" style="stroke-width:0.7;stroke-miterlimit:4;stroke-dasharray:none;stroke-linecap:square;fill:none;fill-opacity:1;fill-rule: evenodd"/>
<path id="Part008_cs_w0004"  d="M -0.294085186458333 -0.497197265625 L 0.748395282291667 -0.497197265625 L 0.228864032291667 0.938349609375 L -0.294085186458333 -0.497197265625 " stroke="#191919" stroke-width="0.7 px" style="stroke-width:0.7;stroke-miterlimit:4;stroke-dasharray:none;stroke-linecap:square;fill:none;fill-opacity:1;fill-rule: evenodd"/>
<title>b'CrossSection-Lens-NAV'</title>
</g>
</svg>