<?xml version="1.0"?>
<!DOCTYPE svg PUBLIC "-//W3C//DTD SVG 1.1//EN" "http://www.w3.org/Graphics/SVG/1.1/DTD/svg11.dtd">
<svg width="50.5087380697517mm" height="105.39553441313238mm" viewBox="0 0 50.5087380697517 105.39553441313238" xmlns="http://www.w3.org/2000/svg" version="1.1">
<g id="Cut007_cs" transform="translate(27.784885,24.814948) scale(1,-1)">
<path id="Cut007_cs_w0000"  d="M -25.298312703297576 24.319763999999996 Q -27.433219123294563 0.26826348536067 -27.2897 -23.8825 L -27.289701656619307 -80.085403 L 22.228669 -80.085403 L 22.228669 -80.08 L 15.747110986400903 -80.08 L 22.228669000000018 -73.5984419864009 L 22.228669000000004 -72.60849249273974 L 14.757161492739737 -80.08 L 7.686093680874258 -80.08 L 22.22866900000001 -65.53742468087427 L 22.228668999999996 -64.54747518721308 L 6.696144187213072 -80.08 L -0.37492362465238926 -80.08 L 22.228668999999996 -57.47640737534762 L 22.228669000000004 -56.486457881686476 L -1.3648731183135423 -80.08 L -8.435940930179012 -80.08 L 6.047835124049882 -65.59622394577113 A 7.5 7.5 0 0 1 11.43 -60.2141L 22.228669000000007 -49.41539006982101 L 22.228668999999996 -48.425440576159815 L 11.63813591388039 -59.01597366227942 A 7.5 7.5 0 0 1 9.9842 -53.5988L 22.228669000000004 -41.35437276429435 L 22.228668999999996 -40.36442327063319 L 9.516528218012555 -53.076564052620625 A 7.5 7.5 0 0 1 4.66993 -50.8521L 9.689550458767705 -45.832474000000005 L 13.857162 -45.832474 L 13.857162 -41.6648624587677 L 15.506739458767715 -40.01528499999999 L 19.657862 -40.015285 L 19.657862 -35.86416245876771 L 22.228669000000007 -33.29335545876771 L 22.228669000000004 -32.303405965106535 L 19.657862 -34.87421296510653 L 19.657862 -32.800408000000004 L 14.660599153241048 -32.800408000000004 L 20.619119153241062 -26.841887999999997 L 22.228669000000004 -26.841887999999997 L 22.228669 -23.325103999999996 L 16.07488584771444 -23.325103999999996 L 22.228668999999996 -17.171320847714448 L 22.228668999999996 -16.181371354053258 L 15.084936354053257 -23.325103999999993 L 8.013868542187783 -23.325103999999996 L 22.228669000000004 -9.11030354218779 L 22.228669000000004 -8.1203540485266 L 7.023919048526601 -23.325103999999996 L -0.04714876333886764 -23.325103999999996 L 7.630418236661136 -15.647536999999996 L 12.124919000000006 -15.647537 A 2 2 0 0 1 14.1249 -13.6475L 14.124919000000006 -9.153036236661126 L 22.228669000000007 -1.0492862366611329 L 22.228669000000004 -0.059336742999981595 L 14.124918999999998 -8.16308674299998 L 14.124919000000006 -1.0920189311345077 L 22.228668999999996 7.011731068865476 L 22.228668999999996 8.001680562526666 L 14.124918999999998 -0.10206943747333241 L 14.124919000000006 1.7839740000000006 A 2 2 0 0 1 12.1249 3.78397L 10.939894625607863 3.7839740000000006 L 11.983948625607868 4.8280280000000015 L 18.09695 4.828028000000003 L 18.096950000000003 10.94102937439214 L 22.228669 15.07274837439213 L 22.228668999999996 16.062697868053313 L 17.995958131946683 11.829986999999996 L 10.924890320081218 11.829987000000003 L 11.847327280537929 12.75242396045671 A 4 4 0 0 1 17.8201 16.3166L 22.228669000000007 16.316603 L 22.228668999999996 24.319763999999992 L -25.298312703297576 24.319763999999996 " stroke="#191919" stroke-width="0.7 px" style="stroke-width:0.7;stroke-miterlimit:4;stroke-dasharray:none;stroke-linecap:square;fill:none;fill-opacity:1;fill-rule: evenodd"/>
<path id="Cut007_cs_w0001"  d="M -14.401425460345491 -68.93350042545202 A 4 4 0 0 0 -15.351 -68.0226L -15.351000000000003 -69.88307496510652 L -14.401425460345493 -68.93350042545202 " stroke="#191919" stroke-width="0.7 px" style="stroke-width:0.7;stroke-miterlimit:4;stroke-dasharray:none;stroke-linecap:square;fill:none;fill-opacity:1;fill-rule: evenodd"/>
<path id="Cut007_cs_w0002"  d="M -15.351000000000003 -77.94409227063316 L -1.0897029473793696 -63.682795218012544 A 7.5 7.5 0 0 0 -3.31417 -58.8362L -8.487939404596236 -64.00996386336395 A 4 4 0 0 0 -13.7657 -69.2877L -15.351 -70.8730244587677 L -15.351000000000003 -77.94409227063316 " stroke="#191919" stroke-width="0.7 px" style="stroke-width:0.7;stroke-miterlimit:4;stroke-dasharray:none;stroke-linecap:square;fill:none;fill-opacity:1;fill-rule: evenodd"/>
<path id="Cut007_cs_w0003"  d="M -0.5674206870870453 -64.15046245138139 L -15.351 -78.93404176429434 L -15.351000000000003 -80.08 L -9.4258904238402 -80.08 L 4.8497066622794 -65.80440291388041 A 7.5 7.5 0 0 0 -0.567421 -64.1505" stroke="#191919" stroke-width="0.7 px" style="stroke-width:0.7;stroke-miterlimit:4;stroke-dasharray:none;stroke-linecap:square;fill:none;fill-opacity:1;fill-rule: evenodd"/>
<circle cx="-12.031741" cy="-65.797764" r="1.7" stroke="#191919" stroke-width="0.7 px" style="stroke-width:0.7;stroke-miterlimit:4;stroke-dasharray:none;stroke-linecap:square;fill:none"/>
<path id="Cut007_cs_w0005"  d="M 3.680814336016794 -50.85126062908973 L 8.699600965106526 -45.832474 L 1.6285331532410576 -45.832474 L -15.351000000000004 -62.812007153241055 L -15.351000000000003 -63.23905075162884 A 4 4 0 0 0 -8.84214 -63.3742L -3.3150063709102677 -57.84708133601679 A 7.5 7.5 0 0 0 3.68081 -50.8513" stroke="#191919" stroke-width="0.7 px" style="stroke-width:0.7;stroke-miterlimit:4;stroke-dasharray:none;stroke-linecap:square;fill:none;fill-opacity:1;fill-rule: evenodd"/>
<path id="Cut007_cs_w0006"  d="M 0.48790599999999884 -45.832474 L 0.48790599999999884 -40.015285 L -0.6152951522855603 -40.015285 L -15.351000000000004 -54.750989847714436 L -15.351000000000003 -61.8220576595799 L 0.6385836595798986 -45.832474 L 0.48790599999999884 -45.832474 " stroke="#191919" stroke-width="0.7 px" style="stroke-width:0.7;stroke-miterlimit:4;stroke-dasharray:none;stroke-linecap:square;fill:none;fill-opacity:1;fill-rule: evenodd"/>
<path id="Cut007_cs_w0007"  d="M -5.947120999999999 -40.015285 L -5.947120999999997 -37.286093542187785 L -15.351 -46.689972542187775 L -15.351 -53.76104035405324 L -1.6052446459467524 -40.015285 L -5.947120999999999 -40.015285 " stroke="#191919" stroke-width="0.7 px" style="stroke-width:0.7;stroke-miterlimit:4;stroke-dasharray:none;stroke-linecap:square;fill:none;fill-opacity:1;fill-rule: evenodd"/>
<path id="Cut007_cs_w0008"  d="M -15.351000000000003 -26.841887999999997 L -15.351 -29.577988437473312 L -12.614899562526682 -26.841887999999997 L -15.351000000000003 -26.841887999999997 " stroke="#191919" stroke-width="0.7 px" style="stroke-width:0.7;stroke-miterlimit:4;stroke-dasharray:none;stroke-linecap:square;fill:none;fill-opacity:1;fill-rule: evenodd"/>
<path id="Cut007_cs_w0009"  d="M -11.62495006886549 -26.841887999999997 L -15.351000000000004 -30.567937931134512 L -15.351000000000004 -37.63900574299997 L -4.553882257000028 -26.841887999999997 L -11.62495006886549 -26.841887999999997 " stroke="#191919" stroke-width="0.7 px" style="stroke-width:0.7;stroke-miterlimit:4;stroke-dasharray:none;stroke-linecap:square;fill:none;fill-opacity:1;fill-rule: evenodd"/>
<path id="Cut007_cs_w0010"  d="M -5.947120999999999 -32.800408000000004 L -2.451384951473413 -32.800408000000004 L 3.5071350485265995 -26.841887999999997 L -3.563932763338868 -26.841887999999997 L -15.351000000000004 -38.62895523666113 L -15.351000000000004 -45.70002304852659 L -5.947121000000001 -36.29614404852659 L -5.947120999999999 -32.800408000000004 " stroke="#191919" stroke-width="0.7 px" style="stroke-width:0.7;stroke-miterlimit:4;stroke-dasharray:none;stroke-linecap:square;fill:none;fill-opacity:1;fill-rule: evenodd"/>
<path id="Cut007_cs_w0011"  d="M -1.0748631812499996 -33.8106796875 L -1.0748631812499996 -38.122203125 Q -1.1285741187499991 -38.464 -1.4117772437499987 -38.464 L -1.4191014624999996 -38.464 Q -1.7120702124999996 -38.464 -1.7633397437499991 -38.122203125 L -1.7633397437499996 -35.07288671875 L -2.6007420874999996 -36.5059921875 Q -2.7374608374999996 -36.67444921875 -2.8985936499999996 -36.67444921875 Q -2.9059178687499996 -36.67444921875 -2.9132420874999996 -36.67444921875 Q -3.069492087499999 -36.67444921875 -3.1940038062499996 -36.5059921875 L -4.0265233375 -35.0802109375 L -4.02408193125 -38.122203125 Q -4.06314443125 -38.4591171875 -4.37564443125 -38.4591171875 L -4.38052724375 -38.4591171875 Q -4.6905858375 -38.4591171875 -4.7149999 -38.122203125 L -4.7149999 -33.8106796875 Q -4.69546865 -33.53480078125 -4.46841786875 -33.473765625 Q -4.42935536875 -33.464 -4.39029286875 -33.464 L -4.37564443125 -33.464 Q -4.20474599375 -33.464 -4.07291005625 -33.630015625 L -2.8985936499999996 -35.64905859375 L -1.7120702124999996 -33.630015625 Q -1.5802342749999991 -33.464 -1.4117772437499987 -33.464 Q -1.3702733374999991 -33.464 -1.3214452124999991 -33.47620703125 Q -1.0968358374999996 -33.532359375 -1.0748631812499996 -33.8106796875 " stroke="#191919" stroke-width="0.7 px" style="stroke-width:0.7;stroke-miterlimit:4;stroke-dasharray:none;stroke-linecap:square;fill:none;fill-opacity:1;fill-rule: evenodd"/>
<circle cx="4.187192" cy="-58.424969" r="6.5" stroke="#191919" stroke-width="0.7 px" style="stroke-width:0.7;stroke-miterlimit:4;stroke-dasharray:none;stroke-linecap:square;fill:none"/>
<path id="Cut007_cs_w0013"  d="M 1.1750001000000005 -45.18487890625 Q 1.1750001000000005 -45.1482578125 1.1798829125000005 -45.10675390625 L 2.7350586937500005 -40.758609375 Q 2.815625100000001 -40.534 3.042675881250001 -40.534 L 3.0548829125000005 -40.534 Q 3.286816506250001 -40.534 3.367382912500001 -40.758609375 L 4.93232431875 -45.075015625 Q 4.946972756250001 -45.14581640625 4.946972756250001 -45.2068515625 Q 4.946972756250001 -45.44855078125 4.722363381250001 -45.51202734375 L 4.641796975 -45.5388828125 Q 4.639355568750001 -45.5388828125 4.636914162500001 -45.5388828125 Q 4.429394631250002 -45.5388828125 4.285351662500001 -45.30694921875 L 4.03388681875 -44.61603125 L 2.0636719750000005 -44.6209140625 L 1.8195313500000005 -45.30206640625 Q 1.7047852562500005 -45.52667578125 1.4948243187500005 -45.52667578125 Q 1.4020508812500005 -45.52667578125 1.3556641625000005 -45.4998203125 Q 1.1750001000000005 -45.39483984375 1.1750001000000005 -45.18487890625 " stroke="#191919" stroke-width="0.7 px" style="stroke-width:0.7;stroke-miterlimit:4;stroke-dasharray:none;stroke-linecap:square;fill:none;fill-opacity:1;fill-rule: evenodd"/>
<path id="Cut007_cs_w0014"  d="M 7.613313902083336 -43.45148046875 L 8.594759214583334 -45.00421484375 Q 8.655794370833336 -45.11163671875 8.655794370833336 -45.2068515625 Q 8.655794370833336 -45.3533359375 8.506868589583336 -45.46808203125 Q 8.418977964583336 -45.53155859375 8.309114683333336 -45.53155859375 Q 8.274934995833334 -45.53155859375 8.235872495833334 -45.524234375 Q 8.084505308333334 -45.49737890625 8.013704527083334 -45.3728671875 L 6.810091245833334 -43.47101171875 L 6.199739683333334 -43.47101171875 L 6.199739683333334 -45.18976171875 Q 6.199739683333334 -45.4021640625 6.006868589583334 -45.4949375 Q 5.926302183333334 -45.534 5.848177183333334 -45.53644140625 Q 5.743196714583334 -45.53644140625 5.645540464583334 -45.4607578125 Q 5.511263120833334 -45.36066015625 5.511263120833334 -45.18976171875 L 5.511263120833334 -40.875796875 Q 5.511263120833334 -40.7341953125 5.610058693750002 -40.63409765625 Q 5.709017027083334 -40.534 5.853059995833334 -40.534 L 7.369173277083336 -40.534 Q 7.916048277083334 -40.534 8.318880308333336 -40.881981770833335 Q 8.721712339583334 -41.22980078125 8.819368589583334 -41.76446875 Q 8.843782652083336 -41.8963046875 8.843782652083336 -42.0232578125 Q 8.843782652083336 -42.028140625 8.843782652083336 -42.03058203125 Q 8.843782652083336 -42.45538671875 8.577669370833334 -42.8386875 Q 8.230989683333334 -43.336734375 7.659700620833334 -43.44415625 L 7.613313902083336 -43.45148046875 " stroke="#191919" stroke-width="0.7 px" style="stroke-width:0.7;stroke-miterlimit:4;stroke-dasharray:none;stroke-linecap:square;fill:none;fill-opacity:1;fill-rule: evenodd"/>
<path id="Cut007_cs_w0015"  d="M -0.3637629208333326 -38.11487890625 Q -0.3637629208333326 -38.0782578125 -0.3588801083333326 -38.03675390625 L 1.1962956729166683 -33.688609375 Q 1.2768620791666674 -33.464 1.5039128604166674 -33.464 L 1.5161198916666674 -33.464 Q 1.7480534854166683 -33.464 1.8286198916666683 -33.688609375 L 3.3935612979166665 -38.005015625 Q 3.4082097354166683 -38.07581640625 3.4082097354166683 -38.1368515625 Q 3.4082097354166683 -38.37855078125 3.1836003604166683 -38.44202734375 L 3.1030339541666674 -38.4688828125 Q 3.1005925479166674 -38.4688828125 3.0981511416666674 -38.4688828125 Q 2.8906316104166683 -38.4688828125 2.7465886416666683 -38.23694921875 L 2.495123797916669 -37.54603125 L 0.5249089541666674 -37.5509140625 L 0.2807683291666674 -38.23206640625 Q 0.16602223541666827 -38.45667578125 -0.04393870208333173 -38.45667578125 Q -0.13671213958333261 -38.45667578125 -0.18309885833333261 -38.4298203125 Q -0.3637629208333326 -38.32483984375 -0.3637629208333326 -38.11487890625 " stroke="#191919" stroke-width="0.7 px" style="stroke-width:0.7;stroke-miterlimit:4;stroke-dasharray:none;stroke-linecap:square;fill:none;fill-opacity:1;fill-rule: evenodd"/>
<path id="Cut007_cs_w0016"  d="M 5.300625100000002 -35.3048203125 L 6.4285547875 -35.8028671875 L 6.467617287500002 -35.81995703125 L 6.511562600000002 -35.8419296875 L 6.5506251 -35.86390234375 Q 6.56771494375 -35.876109375 6.588385516666668 -35.887177083333334 Q 6.609218850000002 -35.89808203125 6.628750100000002 -35.9102890625 Q 7.112148537500002 -36.227671875 7.22689463125 -36.7891953125 Q 7.256191506250002 -36.930796875 7.256191506250002 -37.07728125 Q 7.256191506250002 -37.15784765625 7.24642588125 -37.24085546875 Q 7.207363381250002 -37.57288671875 7.013190204166668 -37.854950520833334 Q 6.819179787500002 -38.1368515625 6.5262110375 -38.29066015625 Q 6.21126963125 -38.45667578125 5.87435556875 -38.45667578125 Q 5.30794931875 -38.45667578125 4.7928126 -38.311493489583334 Q 4.277675881250002 -38.1661484375 4.057949318750002 -37.53382421875 Q 4.02865244375 -37.4532578125 4.014004006250002 -37.36780859375 Q 3.9993555687500004 -37.282359375 3.9798243187500004 -37.19691015625 Q 3.9725001000000004 -37.15784765625 3.9725001000000004 -37.11878515625 Q 3.9725001000000004 -36.989390625 4.0652735375 -36.8868515625 Q 4.16537119375 -36.7794296875 4.304531350000002 -36.7794296875 Q 4.33626963125 -36.7794296875 4.372890725 -36.7843125 Q 4.56576181875 -36.823375 4.641445412500002 -37.0235703125 L 4.64876963125 -37.04554296875 Q 4.763515725000002 -37.575328125 5.056484475000002 -37.6778671875 Q 5.322597756250002 -37.770640625 5.78158213125 -37.770640625 Q 5.82552744375 -37.770640625 5.86947275625 -37.770640625 Q 6.34798838125 -37.770640625 6.5262110375 -37.321421875 Q 6.57259775625 -37.20179296875 6.57259775625 -37.07972265625 Q 6.57259775625 -36.9942734375 6.5506251 -36.9063828125 Q 6.4969141625 -36.6915390625 6.338222756250002 -36.5450546875 Q 6.267421975000002 -36.48401953125 6.15267588125 -36.43030859375 L 5.0223047875 -35.934703125 L 4.985683693750002 -35.915171875 Q 4.431484475 -35.622203125 4.29720713125 -35.08265234375 Q 4.24837900625 -34.899546875 4.24837900625 -34.72620703125 Q 4.24837900625 -34.723765625 4.24837900625 -34.7188828125 Q 4.24837900625 -34.31116796875 4.524257912500002 -33.962046875 Q 4.9148829125 -33.464 5.55453135 -33.464 L 5.8230860375 -33.47132421875 Q 5.954921975000002 -33.49573828125 6.076992287500002 -33.519013020833334 Q 6.199062600000002 -33.542125 6.32357431875 -33.59827734375 Q 6.631191506250002 -33.7423203125 6.794765725 -33.99378515625 Q 6.95833994375 -34.24525 7.09017588125 -34.53821875 Q 7.1023829125 -34.56507421875 7.112148537500002 -34.6016953125 Q 7.121914162500002 -34.64319921875 7.121914162500002 -34.68226171875 Q 7.121914162500002 -34.75550390625 7.087734475 -34.81898046875 Q 7.0584376 -34.880015625 7.026699318750002 -34.91175390625 Q 6.994961037500002 -34.9434921875 6.975429787500002 -34.95569921875 Q 6.88509775625 -35.01917578125 6.782558693750002 -35.01917578125 Q 6.7410547875 -35.01917578125 6.697109475 -35.00941015625 Q 6.5457422875 -34.97523046875 6.465175881250002 -34.81409765625 Q 6.40169931875 -34.67249609375 6.329596454166668 -34.524872395833334 Q 6.25765635 -34.3770859375 6.12826181875 -34.2794296875 Q 6.074550881250002 -34.2403671875 6.024420672916668 -34.222138020833334 Q 5.974453225 -34.20374609375 5.91341806875 -34.1817734375 L 5.754726662500002 -34.15491796875 L 5.5301172875 -34.14759375 Q 5.202968850000002 -34.1524765625 5.029629006250002 -34.430796875 Q 4.936855568750002 -34.5723984375 4.936855568750002 -34.743296875 Q 4.936855568750002 -34.78480078125 4.94173838125 -34.82874609375 Q 4.97591806875 -35.0997421875 5.19564463125 -35.24866796875 Q 5.20541025625 -35.2559921875 5.2176172875 -35.264618489583334 Q 5.22982431875 -35.27308203125 5.24447275625 -35.28040625 L 5.271328225000002 -35.29261328125 L 5.300625100000002 -35.3048203125 " stroke="#191919" stroke-width="0.7 px" style="stroke-width:0.7;stroke-miterlimit:4;stroke-dasharray:none;stroke-linecap:square;fill:none;fill-opacity:1;fill-rule: evenodd"/>
<path id="Cut007_cs_w0017"  d="M 9.346523537500001 -38.464 Q 9.043789162500001 -38.4591171875 9.016933693750001 -38.122203125 L 9.016933693750001 -34.1524765625 L 8.120937600000001 -34.1524765625 Q 7.779140725000002 -34.12562109375 7.779140725000002 -33.8106796875 Q 7.779140725000002 -33.493296875 8.120937600000001 -33.464 L 10.598964943750001 -33.464 Q 10.938320412500001 -33.49085546875 10.938320412500001 -33.8106796875 Q 10.938320412500001 -34.1280625 10.598964943750001 -34.1524765625 L 9.705410256250001 -34.1524765625 L 9.705410256250001 -38.122203125 Q 9.649257912500001 -38.464 9.353847756250001 -38.464 Q 9.351406350000001 -38.464 9.346523537500001 -38.464 " stroke="#191919" stroke-width="0.7 px" style="stroke-width:0.7;stroke-miterlimit:4;stroke-dasharray:none;stroke-linecap:square;fill:none;fill-opacity:1;fill-rule: evenodd"/>
<path id="Cut007_cs_w0018"  d="M 5.609632354053244 -32.800408000000004 L 11.568152354053257 -26.841887999999997 L 4.497084542187787 -26.841887999999997 L -1.46143545781222 -32.800408000000004 L 5.609632354053244 -32.800408000000004 " stroke="#191919" stroke-width="0.7 px" style="stroke-width:0.7;stroke-miterlimit:4;stroke-dasharray:none;stroke-linecap:square;fill:none;fill-opacity:1;fill-rule: evenodd"/>
<path id="Cut007_cs_w0019"  d="M 13.130566506250002 -40.8806796875 L 13.130566506250002 -45.192203125 Q 13.076855568750002 -45.534 12.793652443750002 -45.534 L 12.786328225000002 -45.534 Q 12.493359475000002 -45.534 12.442089943750002 -45.192203125 L 12.442089943750002 -42.14288671875 L 11.6046876 -43.5759921875 Q 11.467968850000002 -43.74444921875 11.306836037500002 -43.74444921875 Q 11.29951181875 -43.74444921875 11.2921876 -43.74444921875 Q 11.135937600000002 -43.74444921875 11.011425881250002 -43.5759921875 L 10.17890635 -42.1502109375 L 10.18134775625 -45.192203125 Q 10.142285256250002 -45.5291171875 9.829785256250002 -45.5291171875 L 9.824902443750002 -45.5291171875 Q 9.514843850000002 -45.5291171875 9.490429787500002 -45.192203125 L 9.490429787500002 -40.8806796875 Q 9.509961037500002 -40.60480078125 9.73701181875 -40.543765625 Q 9.776074318750002 -40.534 9.81513681875 -40.534 L 9.829785256250002 -40.534 Q 10.000683693750002 -40.534 10.13251963125 -40.700015625 L 11.306836037500002 -42.71905859375 L 12.493359475000002 -40.700015625 Q 12.625195412500002 -40.534 12.793652443750002 -40.534 Q 12.835156350000002 -40.534 12.883984475000002 -40.54620703125 Q 13.108593850000002 -40.602359375 13.130566506250002 -40.8806796875 " stroke="#191919" stroke-width="0.7 px" style="stroke-width:0.7;stroke-miterlimit:4;stroke-dasharray:none;stroke-linecap:square;fill:none;fill-opacity:1;fill-rule: evenodd"/>
<path id="Cut007_cs_w0020"  d="M 13.857162 -40.015285 L 13.857162000000002 -40.67491296510653 L 14.516789965106526 -40.015285 L 13.857162 -40.015285 " stroke="#191919" stroke-width="0.7 px" style="stroke-width:0.7;stroke-miterlimit:4;stroke-dasharray:none;stroke-linecap:square;fill:none;fill-opacity:1;fill-rule: evenodd"/>
<path id="Cut007_cs_w0021"  d="M 14.714199318750005 -33.805796875 Q 14.714199318750005 -34.1231796875 14.369961037500005 -34.14515234375 L 12.346035256250005 -34.14515234375 L 12.346035256250005 -35.4806015625 L 13.889004006250005 -35.4806015625 Q 14.235683693750005 -35.53187109375 14.235683693750005 -35.82728125 Q 14.235683693750005 -36.1251328125 13.889004006250005 -36.1739609375 L 12.346035256250005 -36.1739609375 L 12.346035256250005 -37.77796484375 L 14.369961037500005 -37.77796484375 Q 14.714199318750005 -37.829234375 14.714199318750005 -38.122203125 Q 14.714199318750005 -38.415171875 14.369961037500005 -38.464 L 12.006679787500005 -38.464 Q 11.701504006250005 -38.4249375 11.660000100000005 -38.1173203125 L 11.660000100000005 -33.805796875 Q 11.706386818750005 -33.48353125 12.006679787500005 -33.464 L 14.369961037500005 -33.464 Q 14.714199318750005 -33.49085546875 14.714199318750005 -33.805796875 " stroke="#191919" stroke-width="0.7 px" style="stroke-width:0.7;stroke-miterlimit:4;stroke-dasharray:none;stroke-linecap:square;fill:none;fill-opacity:1;fill-rule: evenodd"/>
<path id="Cut007_cs_w0022"  d="M 13.670649659579897 -32.800408000000004 L 19.629169659579908 -26.841887999999997 L 12.558101847714445 -26.841887999999997 L 6.599581847714436 -32.800408000000004 L 13.670649659579897 -32.800408000000004 " stroke="#191919" stroke-width="0.7 px" style="stroke-width:0.7;stroke-miterlimit:4;stroke-dasharray:none;stroke-linecap:square;fill:none;fill-opacity:1;fill-rule: evenodd"/>
<path id="Cut007_cs_w0023"  d="M 17.49121754791667 -36.38148046875 L 18.472662860416673 -37.93421484375 Q 18.533698016666673 -38.04163671875 18.533698016666673 -38.1368515625 Q 18.533698016666673 -38.2833359375 18.384772235416673 -38.39808203125 Q 18.296881610416673 -38.46155859375 18.187018329166673 -38.46155859375 Q 18.152838641666673 -38.46155859375 18.113776141666673 -38.454234375 Q 17.962408954166673 -38.42737890625 17.891608172916673 -38.3028671875 L 16.687994891666673 -36.40101171875 L 16.07764332916667 -36.40101171875 L 16.07764332916667 -38.11976171875 Q 16.07764332916667 -38.3321640625 15.88477223541667 -38.4249375 Q 15.804205829166673 -38.464 15.726080829166673 -38.46644140625 Q 15.621100360416673 -38.46644140625 15.523444110416673 -38.3907578125 Q 15.389166766666673 -38.29066015625 15.389166766666673 -38.11976171875 L 15.389166766666673 -33.805796875 Q 15.389166766666673 -33.6641953125 15.487962339583337 -33.56409765625 Q 15.586920672916673 -33.464 15.730963641666673 -33.464 L 17.24707692291667 -33.464 Q 17.793951922916673 -33.464 18.196783954166673 -33.811981770833334 Q 18.599615985416673 -34.15980078125 18.697272235416673 -34.69446875 Q 18.721686297916673 -34.8263046875 18.721686297916673 -34.9532578125 Q 18.721686297916673 -34.958140625 18.721686297916673 -34.96058203125 Q 18.721686297916673 -35.38538671875 18.455573016666673 -35.7686875 Q 18.108893329166673 -36.266734375 17.53760426666667 -36.37415625 L 17.49121754791667 -36.38148046875 " stroke="#191919" stroke-width="0.7 px" style="stroke-width:0.7;stroke-miterlimit:4;stroke-dasharray:none;stroke-linecap:square;fill:none;fill-opacity:1;fill-rule: evenodd"/>
<path id="Cut007_cs_w0024"  d="M -1.4205485625266798 -15.647537 L -3.4161639999999984 -15.647537 A 2 2 0 0 0 -5.41616 -13.6475L -5.416163999999997 -12.57208462560785 L -15.351 -22.506920625607854 L -15.351000000000003 -23.325103999999996 L -9.098115562526678 -23.325103999999996 L -1.4205485625266798 -15.647537 " stroke="#191919" stroke-width="0.7 px" style="stroke-width:0.7;stroke-miterlimit:4;stroke-dasharray:none;stroke-linecap:square;fill:none;fill-opacity:1;fill-rule: evenodd"/>
<path id="Cut007_cs_w0025"  d="M -5.416163999999997 -4.51106732008121 L -15.351 -14.445903320081207 L -15.351 -21.516971131946676 L -5.416163999999997 -11.582135131946675 L -5.416163999999997 -4.51106732008121 " stroke="#191919" stroke-width="0.7 px" style="stroke-width:0.7;stroke-miterlimit:4;stroke-dasharray:none;stroke-linecap:square;fill:none;fill-opacity:1;fill-rule: evenodd"/>
<path id="Cut007_cs_w0026"  d="M -5.416163999999998 1.7839740000000004 A 2 2 0 0 0 -3.41616 3.78397L 1.8889278264200469 3.7839740000000006 L 2.9329818264200496 4.828028000000003 L -4.138085985445417 4.828028000000003 L -15.351 -6.384886014554574 L -15.351 -13.45595382642004 L -5.416163999999997 -3.521117826420041 L -5.416163999999998 1.7839740000000006 " stroke="#191919" stroke-width="0.7 px" style="stroke-width:0.7;stroke-miterlimit:4;stroke-dasharray:none;stroke-linecap:square;fill:none;fill-opacity:1;fill-rule: evenodd"/>
<path id="Cut007_cs_w0027"  d="M -11.920105000000003 4.828028000000003 L -11.920105000000005 5.107026290972058 L -15.351 1.6761312909720694 L -15.351 -5.394936520893397 L -5.1280354791065985 4.828028000000003 L -11.920105000000003 4.828028000000003 " stroke="#191919" stroke-width="0.7 px" style="stroke-width:0.7;stroke-miterlimit:4;stroke-dasharray:none;stroke-linecap:square;fill:none;fill-opacity:1;fill-rule: evenodd"/>
<path id="Cut007_cs_w0028"  d="M -10.901386618750001 5.54098046875 Q -11.205195212500001 5.54098046875 -11.254999900000001 5.88961328125 L -11.254999900000001 10.282386718749999 Q -11.210175681250002 10.61109765625 -10.901386618750001 10.636 L -8.490839743750001 10.636 Q -8.144697165625002 10.608607421874998 -8.144697165625002 10.283548828125 Q -8.144697165625002 9.958656249999999 -8.495820212500002 9.936244140625 L -10.555244040625002 9.936244140624998 L -10.555244040625002 8.5740859375 L -8.949042868750002 8.5740859375 Q -8.600410056250002 8.54918359375 -8.600410056250002 8.23043359375 Q -8.600410056250002 7.926625 -8.949042868750002 7.874330078124999 L -10.555244040625002 7.874330078124999 L -10.555244040625002 5.88961328125 Q -10.577656150000001 5.545960937499999 -10.891425681250002 5.54098046875 Q -10.89640615 5.54098046875 -10.901386618750001 5.54098046875 " stroke="#191919" stroke-width="0.7 px" style="stroke-width:0.7;stroke-miterlimit:4;stroke-dasharray:none;stroke-linecap:square;fill:none;fill-opacity:1;fill-rule: evenodd"/>
<path id="Cut007_cs_w0029"  d="M -11.920105000000003 11.829987000000003 L -6.187093784633232 11.829987000000006 L -1.7004777846332306 16.316603000000004 L -8.771545596498704 16.316603 L -15.351 9.737148596498706 L -15.351 2.6660807846332393 L -11.920105000000005 6.0969757846332335 L -11.920105000000003 11.829987000000003 " stroke="#191919" stroke-width="0.7 px" style="stroke-width:0.7;stroke-miterlimit:4;stroke-dasharray:none;stroke-linecap:square;fill:none;fill-opacity:1;fill-rule: evenodd"/>
<path id="Cut007_cs_w0030"  d="M -4.4530077125000025 5.533509765624999 L -7.097636618750002 5.533509765624999 Q -7.403935446875002 5.553431640625 -7.451249900000002 5.879652343749999 L -7.451249900000001 10.282386718749999 Q -7.398954978125002 10.636 -7.097636618750002 10.636 Q -7.0926561500000025 10.636 -7.087675681250002 10.636 Q -6.776396384375002 10.631019531249999 -6.749003806250002 10.282386718749999 L -6.749003806250002 6.228285156249999 L -4.450517478125002 6.230775390624999 Q -4.099394431250001 6.190931640624999 -4.099394431250001 5.879652343749999 Q -4.099394431250001 5.555921874999999 -4.4530077125000025 5.533509765624999 " stroke="#191919" stroke-width="0.7 px" style="stroke-width:0.7;stroke-miterlimit:4;stroke-dasharray:none;stroke-linecap:square;fill:none;fill-opacity:1;fill-rule: evenodd"/>
<path id="Cut007_cs_w0031"  d="M -15.351000000000003 16.316603 L -15.351 10.727098090159881 L -9.76149509015988 16.316603 L -15.351000000000003 16.316603 " stroke="#191919" stroke-width="0.7 px" style="stroke-width:0.7;stroke-miterlimit:4;stroke-dasharray:none;stroke-linecap:square;fill:none;fill-opacity:1;fill-rule: evenodd"/>
<path id="Cut007_cs_w0032"  d="M -0.43059906886548904 -15.647537 L -8.108166068865481 -23.325103999999996 L -1.0370982570000198 -23.325103999999996 L 6.6404687429999765 -15.647537 L -0.43059906886548904 -15.647537 " stroke="#191919" stroke-width="0.7 px" style="stroke-width:0.7;stroke-miterlimit:4;stroke-dasharray:none;stroke-linecap:square;fill:none;fill-opacity:1;fill-rule: evenodd"/>
<path id="Cut007_cs_w0033"  d="M 12.267029 -15.316411 A 1.5 1.5 0 0 1 13.767 -13.8164L 13.767029 1.9835889999999994 A 1.5 1.5 0 0 1 12.267 3.48359L -3.532971 3.4835889999999994 A 1.5 1.5 0 0 1 -5.03297 1.98359L -5.032971 -13.816411000000002 A 1.5 1.5 0 0 1 -3.53297 -15.3164L 12.267029 -15.316411 " stroke="#191919" stroke-width="0.7 px" style="stroke-width:0.7;stroke-miterlimit:4;stroke-dasharray:none;stroke-linecap:square;fill:none;fill-opacity:1;fill-rule: evenodd"/>
<path id="Cut007_cs_w0034"  d="M -1.248408103125005 7.660169921874999 L -0.2473338843750046 6.076380859375 Q -0.1850780250000046 5.966810546874999 -0.1850780250000046 5.869691406249999 Q -0.1850780250000046 5.720277343749999 -0.3369823218750039 5.603236328125 Q -0.42663075937500317 5.538490234375 -0.5386913062500049 5.538490234375 Q -0.5735545875000039 5.538490234375 -0.6133983375000049 5.545960937499999 Q -0.7677928687500035 5.573353515625 -0.8400096656250042 5.70035546875 L -2.067695212500002 7.640248046875 L -2.690253806250004 7.640248046875 L -2.690253806250004 5.887123046875 Q -2.690253806250004 5.670472656249999 -2.886982321875003 5.57584375 Q -2.9691600562500042 5.536 -3.048847556250003 5.533509765624999 Q -3.1559276343750025 5.533509765624999 -3.2555370093750033 5.61070703125 Q -3.3924999000000033 5.712806640625 -3.3924999000000033 5.887123046875 L -3.3924999000000033 10.2873671875 Q -3.3924999000000033 10.431800781249999 -3.2917284156250037 10.533900390624998 Q -3.190790915625003 10.636 -3.0438670875000042 10.636 L -1.4974315406250032 10.636 Q -0.9396190406250042 10.636 -0.5287303687500042 10.281058593749998 Q -0.11784169687500423 9.926283203125 -0.01823232187500423 9.380921874999999 Q 0.0066700218749957685 9.246449218749998 0.0066700218749957685 9.11695703125 Q 0.0066700218749957685 9.111976562499999 0.0066700218749957685 9.109486328125 Q 0.0066700218749957685 8.676185546874999 -0.26476552500000317 8.285218749999999 Q -0.6183788062500035 7.7772109375 -1.2010936500000042 7.667640624999999 L -1.248408103125005 7.660169921874999 " stroke="#191919" stroke-width="0.7 px" style="stroke-width:0.7;stroke-miterlimit:4;stroke-dasharray:none;stroke-linecap:square;fill:none;fill-opacity:1;fill-rule: evenodd"/>
<path id="Cut007_cs_w0035"  d="M 3.9229313200812186 4.828028000000003 L 2.878877320081216 3.7839740000000006 L 9.949945131946683 3.7839740000000006 L 10.993999131946685 4.828028000000003 L 3.9229313200812186 4.828028000000003 " stroke="#191919" stroke-width="0.7 px" style="stroke-width:0.7;stroke-miterlimit:4;stroke-dasharray:none;stroke-linecap:square;fill:none;fill-opacity:1;fill-rule: evenodd"/>
<path id="Cut007_cs_w0036"  d="M 7.120937599999998 8.758363281249999 L 8.271425881249996 8.25035546875 L 8.311269631249996 8.232923828125 L 8.356093849999993 8.210511718749999 L 8.395937599999996 8.188099609375 Q 8.413369240624995 8.1756484375 8.434453224999995 8.164359375 Q 8.455703224999993 8.153236328124999 8.475625099999995 8.140785156249999 Q 8.968691506249996 7.817054687499999 9.085732521874995 7.244300781249999 Q 9.115615334374997 7.099867187499999 9.115615334374997 6.950453124999999 Q 9.115615334374997 6.868275390625 9.105654396874996 6.783607421874999 Q 9.065810646874997 6.444935546875 8.867754006249996 6.157230468749999 Q 8.669863381249996 5.869691406249999 8.371035256249996 5.712806640625 Q 8.049795021874996 5.543470703124999 7.706142678124998 5.543470703124999 Q 7.128408303124996 5.543470703124999 6.602968849999996 5.6915566406249996 Q 6.0775293968749935 5.83980859375 5.853408303124997 6.484779296874999 Q 5.823525490624995 6.566957031249999 5.808584084374996 6.654115234374999 Q 5.793642678124996 6.741273437499999 5.773720803124995 6.828431640624999 Q 5.766250099999997 6.868275390625 5.766250099999997 6.908119140624999 Q 5.766250099999997 7.040101562499999 5.860879006249995 7.144691406249999 Q 5.962978615624998 7.25426171875 6.104921974999996 7.25426171875 Q 6.137295021874998 7.25426171875 6.174648537499994 7.249281249999999 Q 6.371377053124995 7.209437499999999 6.448574318749998 7.00523828125 L 6.456045021874996 6.982826171875 Q 6.573086037499998 6.442445312499999 6.871914162499998 6.33785546875 Q 7.143349709374995 6.243226562499999 7.611513771874996 6.243226562499999 Q 7.656337990624998 6.243226562499999 7.701162209374996 6.243226562499999 Q 8.189248146874995 6.243226562499999 8.371035256249996 6.701429687499999 Q 8.418349709374993 6.823451171875 8.418349709374993 6.947962890624999 Q 8.418349709374993 7.035121093749999 8.395937599999996 7.124769531249999 Q 8.341152443749994 7.34391015625 8.179287209374998 7.493324218749999 Q 8.107070412499997 7.555580078124999 7.990029396874995 7.610365234374999 L 6.837050881249997 8.1158828125 L 6.799697365624997 8.135804687499999 Q 6.2344141624999985 8.434632812499999 6.0974512718749985 8.984974609375 Q 6.0476465843749985 9.171742187499998 6.0476465843749985 9.348548828124999 Q 6.0476465843749985 9.3510390625 6.0476465843749985 9.356019531249999 Q 6.0476465843749985 9.771888671874999 6.329043068749996 10.127992187499999 Q 6.727480568749996 10.636 7.379921974999995 10.636 L 7.653847756249995 10.628529296874998 Q 7.788320412499996 10.603626953124998 7.912832131249996 10.57988671875 Q 8.037343849999996 10.556312499999999 8.164345803124995 10.499037109375 Q 8.478115334374998 10.352113281249999 8.644961037499996 10.095619140624999 Q 8.811806740624998 9.839125 8.946279396874996 9.540296875 Q 8.958730568749996 9.512904296874998 8.968691506249996 9.475550781249998 Q 8.978652443749997 9.433216796875 8.978652443749997 9.393373046874999 Q 8.978652443749997 9.318666015624999 8.943789162499996 9.253919921875 Q 8.913906349999998 9.1916640625 8.881533303124996 9.159291015624998 Q 8.849160256249995 9.126917968749998 8.829238381249997 9.114466796874998 Q 8.737099709374995 9.049720703124999 8.632509865624996 9.049720703124999 Q 8.590175881249994 9.049720703124999 8.545351662499996 9.059681640625 Q 8.390957131249994 9.094544921874999 8.308779396874996 9.258900390624998 Q 8.244033303124997 9.403333984375 8.170488381249996 9.553910156249998 Q 8.097109474999996 9.704652343749999 7.965127053124995 9.804261718749999 Q 7.910341896874996 9.844105468749998 7.859209084374996 9.862699218749999 Q 7.808242287499997 9.881458984374998 7.745986428124997 9.903871093749999 L 7.5841211937499935 9.931263671874998 L 7.3550196312499985 9.938734375 Q 7.021328224999998 9.933753906249999 6.844521584374995 9.649867187499998 Q 6.749892678124997 9.505433593749999 6.749892678124997 9.331117187499999 Q 6.749892678124997 9.288783203125 6.754873146874996 9.243958984374999 Q 6.789736428124996 8.96754296875 7.013857521874996 8.815638671875 Q 7.023818459374997 8.808167968749999 7.036269631249997 8.799369140624998 Q 7.0487208031249935 8.790736328125 7.063662209374996 8.783265624999999 L 7.091054787499996 8.770814453124999 L 7.120937599999998 8.758363281249999 " stroke="#191919" stroke-width="0.7 px" style="stroke-width:0.7;stroke-miterlimit:4;stroke-dasharray:none;stroke-linecap:square;fill:none;fill-opacity:1;fill-rule: evenodd"/>
<path id="Cut007_cs_w0037"  d="M 1.8739235208934044 11.829987000000003 L 6.360539520893403 16.316603 L -0.7105282909720589 16.316603 L -5.19714429097206 11.829987000000003 L 1.8739235208934044 11.829987000000003 " stroke="#191919" stroke-width="0.7 px" style="stroke-width:0.7;stroke-miterlimit:4;stroke-dasharray:none;stroke-linecap:square;fill:none;fill-opacity:1;fill-rule: evenodd"/>
<path id="Cut007_cs_w0038"  d="M 9.934940826420052 11.829987000000003 L 11.262123065791831 13.157169239371775 A 4 4 0 0 0 9.82195 16.3166L 7.350489014554586 16.316603 L 2.8638730145545868 11.829987000000003 L 9.934940826420052 11.829987000000003 " stroke="#191919" stroke-width="0.7 px" style="stroke-width:0.7;stroke-miterlimit:4;stroke-dasharray:none;stroke-linecap:square;fill:none;fill-opacity:1;fill-rule: evenodd"/>
<path id="Cut007_cs_w0039"  d="M 9.843261818749998 5.892103515624999 Q 9.843261818749998 5.929457031249999 9.848242287499996 5.971791015625 L 11.434521584374995 10.406898437499999 Q 11.516699318749996 10.636 11.748291115624998 10.636 L 11.760742287499994 10.636 Q 11.997314553124994 10.636 12.079492287499995 10.406898437499999 L 13.675732521874995 6.004164062499999 Q 13.690673928124994 5.931947265624999 13.690673928124994 5.869691406249999 Q 13.690673928124994 5.623158203125 13.461572365624995 5.558412109374999 L 13.379394631249994 5.531019531249999 Q 13.376904396874995 5.531019531249999 13.374414162499995 5.531019531249999 Q 13.162744240624995 5.531019531249999 13.015820412499995 5.767591796874999 L 12.759326271874997 6.472328125 L 10.749707131249995 6.467347656249999 L 10.500683693749995 5.772572265625 Q 10.383642678124996 5.543470703124999 10.169482521874993 5.543470703124999 Q 10.074853615624995 5.543470703124999 10.027539162499995 5.570863281249999 Q 9.843261818749998 5.677943359375 9.843261818749998 5.892103515624999 " stroke="#191919" stroke-width="0.7 px" style="stroke-width:0.7;stroke-miterlimit:4;stroke-dasharray:none;stroke-linecap:square;fill:none;fill-opacity:1;fill-rule: evenodd"/>
<path id="Cut007_cs_w0040"  d="M 17.264492287499994 5.533509765624999 L 14.619863381249996 5.533509765624999 Q 14.31356455312499 5.553431640625 14.266250099999993 5.879652343749999 L 14.266250099999993 10.282386718749999 Q 14.318545021874996 10.636 14.619863381249996 10.636 Q 14.624843849999994 10.636 14.629824318749993 10.636 Q 14.941103615624993 10.631019531249999 14.968496193749992 10.282386718749999 L 14.968496193749992 6.228285156249999 L 17.266982521874993 6.230775390624999 Q 17.618105568749996 6.190931640624999 17.618105568749996 5.879652343749999 Q 17.618105568749996 5.555921874999999 17.264492287499994 5.533509765624999 " stroke="#191919" stroke-width="0.7 px" style="stroke-width:0.7;stroke-miterlimit:4;stroke-dasharray:none;stroke-linecap:square;fill:none;fill-opacity:1;fill-rule: evenodd"/>
<circle cx="13.872832" cy="16.360986" r="1.7" stroke="#191919" stroke-width="0.7 px" style="stroke-width:0.7;stroke-miterlimit:4;stroke-dasharray:none;stroke-linecap:square;fill:none"/>
<path id="Cut007_cs_w0042"  d="M -1.4191014624999996 -38.464 Q -1.7120702124999996 -38.464 -1.7633397437499991 -38.122203125 L -1.7633397437499996 -35.07288671875 L -2.6007420874999996 -36.5059921875 Q -2.7374608374999996 -36.67444921875 -2.8985936499999996 -36.67444921875 Q -2.9059178687499996 -36.67444921875 -2.9132420874999996 -36.67444921875 Q -3.069492087499999 -36.67444921875 -3.1940038062499996 -36.5059921875 L -4.0265233375 -35.0802109375 L -4.02408193125 -38.122203125 Q -4.06314443125 -38.4591171875 -4.37564443125 -38.4591171875 L -4.38052724375 -38.4591171875 Q -4.6905858375 -38.4591171875 -4.7149999 -38.122203125 L -4.7149999 -33.8106796875 Q -4.69546865 -33.53480078125 -4.46841786875 -33.473765625 Q -4.42935536875 -33.464 -4.39029286875 -33.464 L -4.37564443125 -33.464 Q -4.20474599375 -33.464 -4.07291005625 -33.630015625 L -2.8985936499999996 -35.64905859375 L -1.7120702124999996 -33.630015625 Q -1.5802342749999991 -33.464 -1.4117772437499987 -33.464 Q -1.3702733374999991 -33.464 -1.3214452124999991 -33.47620703125 Q -1.0968358374999996 -33.532359375 -1.0748631812499996 -33.8106796875 L -1.0748631812499996 -38.122203125 Q -1.1285741187499991 -38.464 -1.4117772437499987 -38.464 L -1.4191014624999996 -38.464 " stroke="#191919" stroke-width="0.7 px" style="stroke-width:0.7;stroke-miterlimit:4;stroke-dasharray:none;stroke-linecap:square;fill:none;fill-opacity:1;fill-rule: evenodd"/>
<path id="Cut007_cs_w0043"  d="M 3.0426758812500005 -40.534 L 3.0548829125000005 -40.534 Q 3.286816506250001 -40.534 3.367382912500001 -40.758609375 L 4.93232431875 -45.075015625 Q 4.946972756250001 -45.14581640625 4.946972756250001 -45.2068515625 Q 4.946972756250001 -45.44855078125 4.722363381250001 -45.51202734375 L 4.641796975 -45.5388828125 Q 4.639355568750001 -45.5388828125 4.636914162500001 -45.5388828125 Q 4.429394631250002 -45.5388828125 4.285351662500001 -45.30694921875 L 4.03388681875 -44.61603125 L 2.0636719750000005 -44.6209140625 L 1.8195313500000005 -45.30206640625 Q 1.7047852562500005 -45.52667578125 1.4948243187500005 -45.52667578125 Q 1.4020508812500005 -45.52667578125 1.3556641625000005 -45.4998203125 Q 1.1750001000000005 -45.39483984375 1.1750001000000005 -45.18487890625 Q 1.1750001000000005 -45.1482578125 1.1798829125000005 -45.10675390625 L 2.7350586937500005 -40.758609375 Q 2.815625100000001 -40.534 3.042675881250001 -40.534 " stroke="#191919" stroke-width="0.7 px" style="stroke-width:0.7;stroke-miterlimit:4;stroke-dasharray:none;stroke-linecap:square;fill:none;fill-opacity:1;fill-rule: evenodd"/>
<path id="Cut007_cs_w0044"  d="M 2.2956055687500005 -43.92999609375 L 3.7848633812500005 -43.92999609375 L 3.0426758812500005 -41.87921484375 L 2.2956055687500005 -43.92999609375 " stroke="#191919" stroke-width="0.7 px" style="stroke-width:0.7;stroke-miterlimit:4;stroke-dasharray:none;stroke-linecap:square;fill:none;fill-opacity:1;fill-rule: evenodd"/>
<path id="Cut007_cs_w0045"  d="M 8.506868589583336 -45.46808203125 Q 8.418977964583336 -45.53155859375 8.309114683333336 -45.53155859375 Q 8.274934995833334 -45.53155859375 8.235872495833334 -45.524234375 Q 8.084505308333334 -45.49737890625 8.013704527083334 -45.3728671875 L 6.810091245833334 -43.47101171875 L 6.199739683333334 -43.47101171875 L 6.199739683333334 -45.18976171875 Q 6.199739683333334 -45.4021640625 6.006868589583334 -45.4949375 Q 5.926302183333334 -45.534 5.848177183333334 -45.53644140625 Q 5.743196714583334 -45.53644140625 5.645540464583334 -45.4607578125 Q 5.511263120833334 -45.36066015625 5.511263120833334 -45.18976171875 L 5.511263120833334 -40.875796875 Q 5.511263120833334 -40.7341953125 5.610058693750002 -40.63409765625 Q 5.709017027083334 -40.534 5.853059995833334 -40.534 L 7.369173277083336 -40.534 Q 7.916048277083334 -40.534 8.318880308333336 -40.881981770833335 Q 8.721712339583334 -41.22980078125 8.819368589583334 -41.76446875 Q 8.843782652083336 -41.8963046875 8.843782652083336 -42.0232578125 Q 8.843782652083336 -42.028140625 8.843782652083336 -42.03058203125 Q 8.843782652083336 -42.45538671875 8.577669370833334 -42.8386875 Q 8.230989683333334 -43.336734375 7.659700620833334 -43.44415625 L 7.613313902083336 -43.45148046875 L 8.594759214583334 -45.00421484375 Q 8.655794370833336 -45.11163671875 8.655794370833336 -45.2068515625 Q 8.655794370833336 -45.3533359375 8.506868589583336 -45.46808203125 " stroke="#191919" stroke-width="0.7 px" style="stroke-width:0.7;stroke-miterlimit:4;stroke-dasharray:none;stroke-linecap:square;fill:none;fill-opacity:1;fill-rule: evenodd"/>
<path id="Cut007_cs_w0046"  d="M 8.113802183333334 -42.2381015625 Q 8.152864683333334 -42.10870703125 8.152864683333334 -41.989078125 Q 8.152864683333334 -41.7595859375 8.008821714583334 -41.559390625 Q 7.789095152083334 -41.25665625 7.403352964583334 -41.2224765625 L 6.199739683333334 -41.2224765625 L 6.199739683333334 -42.7849765625 L 7.369173277083336 -42.7849765625 Q 7.618196714583334 -42.7849765625 7.829296975000002 -42.633609375 Q 8.040559995833334 -42.4822421875 8.113802183333334 -42.2381015625 " stroke="#191919" stroke-width="0.7 px" style="stroke-width:0.7;stroke-miterlimit:4;stroke-dasharray:none;stroke-linecap:square;fill:none;fill-opacity:1;fill-rule: evenodd"/>
<path id="Cut007_cs_w0047"  d="M 1.5039128604166674 -33.464 L 1.5161198916666674 -33.464 Q 1.7480534854166683 -33.464 1.8286198916666683 -33.688609375 L 3.3935612979166665 -38.005015625 Q 3.4082097354166683 -38.07581640625 3.4082097354166683 -38.1368515625 Q 3.4082097354166683 -38.37855078125 3.1836003604166683 -38.44202734375 L 3.1030339541666674 -38.4688828125 Q 3.1005925479166674 -38.4688828125 3.0981511416666674 -38.4688828125 Q 2.8906316104166683 -38.4688828125 2.7465886416666683 -38.23694921875 L 2.495123797916669 -37.54603125 L 0.5249089541666674 -37.5509140625 L 0.2807683291666674 -38.23206640625 Q 0.16602223541666827 -38.45667578125 -0.04393870208333173 -38.45667578125 Q -0.13671213958333261 -38.45667578125 -0.18309885833333261 -38.4298203125 Q -0.3637629208333326 -38.32483984375 -0.3637629208333326 -38.11487890625 Q -0.3637629208333326 -38.0782578125 -0.3588801083333326 -38.03675390625 L 1.1962956729166683 -33.688609375 Q 1.2768620791666674 -33.464 1.5039128604166674 -33.464 " stroke="#191919" stroke-width="0.7 px" style="stroke-width:0.7;stroke-miterlimit:4;stroke-dasharray:none;stroke-linecap:square;fill:none;fill-opacity:1;fill-rule: evenodd"/>
<path id="Cut007_cs_w0048"  d="M 0.7568425479166683 -36.85999609375 L 2.2461003604166674 -36.85999609375 L 1.5039128604166674 -34.80921484375 L 0.7568425479166683 -36.85999609375 " stroke="#191919" stroke-width="0.7 px" style="stroke-width:0.7;stroke-miterlimit:4;stroke-dasharray:none;stroke-linecap:square;fill:none;fill-opacity:1;fill-rule: evenodd"/>
<path id="Cut007_cs_w0049"  d="M 6.511562600000002 -35.8419296875 L 6.5506251 -35.86390234375 Q 6.56771494375 -35.876109375 6.588385516666668 -35.887177083333334 Q 6.609218850000002 -35.89808203125 6.628750100000002 -35.9102890625 Q 7.112148537500002 -36.227671875 7.22689463125 -36.7891953125 Q 7.256191506250002 -36.930796875 7.256191506250002 -37.07728125 Q 7.256191506250002 -37.15784765625 7.24642588125 -37.24085546875 Q 7.207363381250002 -37.57288671875 7.013190204166668 -37.854950520833334 Q 6.819179787500002 -38.1368515625 6.5262110375 -38.29066015625 Q 6.21126963125 -38.45667578125 5.87435556875 -38.45667578125 Q 5.30794931875 -38.45667578125 4.7928126 -38.311493489583334 Q 4.277675881250002 -38.1661484375 4.057949318750002 -37.53382421875 Q 4.02865244375 -37.4532578125 4.014004006250002 -37.36780859375 Q 3.9993555687500004 -37.282359375 3.9798243187500004 -37.19691015625 Q 3.9725001000000004 -37.15784765625 3.9725001000000004 -37.11878515625 Q 3.9725001000000004 -36.989390625 4.0652735375 -36.8868515625 Q 4.16537119375 -36.7794296875 4.304531350000002 -36.7794296875 Q 4.33626963125 -36.7794296875 4.372890725 -36.7843125 Q 4.56576181875 -36.823375 4.641445412500002 -37.0235703125 L 4.64876963125 -37.04554296875 Q 4.763515725000002 -37.575328125 5.056484475000002 -37.6778671875 Q 5.322597756250002 -37.770640625 5.78158213125 -37.770640625 Q 5.82552744375 -37.770640625 5.86947275625 -37.770640625 Q 6.34798838125 -37.770640625 6.5262110375 -37.321421875 Q 6.57259775625 -37.20179296875 6.57259775625 -37.07972265625 Q 6.57259775625 -36.9942734375 6.5506251 -36.9063828125 Q 6.4969141625 -36.6915390625 6.338222756250002 -36.5450546875 Q 6.267421975000002 -36.48401953125 6.15267588125 -36.43030859375 L 5.0223047875 -35.934703125 L 4.985683693750002 -35.915171875 Q 4.431484475 -35.622203125 4.29720713125 -35.08265234375 Q 4.24837900625 -34.899546875 4.24837900625 -34.72620703125 Q 4.24837900625 -34.723765625 4.24837900625 -34.7188828125 Q 4.24837900625 -34.31116796875 4.524257912500002 -33.962046875 Q 4.9148829125 -33.464 5.55453135 -33.464 L 5.8230860375 -33.47132421875 Q 5.954921975000002 -33.49573828125 6.076992287500002 -33.519013020833334 Q 6.199062600000002 -33.542125 6.32357431875 -33.59827734375 Q 6.631191506250002 -33.7423203125 6.794765725 -33.99378515625 Q 6.95833994375 -34.24525 7.09017588125 -34.53821875 Q 7.1023829125 -34.56507421875 7.112148537500002 -34.6016953125 Q 7.121914162500002 -34.64319921875 7.121914162500002 -34.68226171875 Q 7.121914162500002 -34.75550390625 7.087734475 -34.81898046875 Q 7.0584376 -34.880015625 7.026699318750002 -34.91175390625 Q 6.994961037500002 -34.9434921875 6.975429787500002 -34.95569921875 Q 6.88509775625 -35.01917578125 6.782558693750002 -35.01917578125 Q 6.7410547875 -35.01917578125 6.697109475 -35.00941015625 Q 6.5457422875 -34.97523046875 6.465175881250002 -34.81409765625 Q 6.40169931875 -34.67249609375 6.329596454166668 -34.524872395833334 Q 6.25765635 -34.3770859375 6.12826181875 -34.2794296875 Q 6.074550881250002 -34.2403671875 6.024420672916668 -34.222138020833334 Q 5.974453225 -34.20374609375 5.91341806875 -34.1817734375 L 5.754726662500002 -34.15491796875 L 5.5301172875 -34.14759375 Q 5.202968850000002 -34.1524765625 5.029629006250002 -34.430796875 Q 4.936855568750002 -34.5723984375 4.936855568750002 -34.743296875 Q 4.936855568750002 -34.78480078125 4.94173838125 -34.82874609375 Q 4.97591806875 -35.0997421875 5.19564463125 -35.24866796875 Q 5.20541025625 -35.2559921875 5.2176172875 -35.264618489583334 Q 5.22982431875 -35.27308203125 5.24447275625 -35.28040625 L 5.271328225000002 -35.29261328125 L 5.300625100000002 -35.3048203125 L 6.4285547875 -35.8028671875 L 6.467617287500002 -35.81995703125 L 6.511562600000002 -35.8419296875 " stroke="#191919" stroke-width="0.7 px" style="stroke-width:0.7;stroke-miterlimit:4;stroke-dasharray:none;stroke-linecap:square;fill:none;fill-opacity:1;fill-rule: evenodd"/>
<path id="Cut007_cs_w0050"  d="M 8.120937600000001 -34.1524765625 Q 7.779140725000002 -34.12562109375 7.779140725000002 -33.8106796875 Q 7.779140725000002 -33.493296875 8.120937600000001 -33.464 L 10.598964943750001 -33.464 Q 10.938320412500001 -33.49085546875 10.938320412500001 -33.8106796875 Q 10.938320412500001 -34.1280625 10.598964943750001 -34.1524765625 L 9.705410256250001 -34.1524765625 L 9.705410256250001 -38.122203125 Q 9.649257912500001 -38.464 9.353847756250001 -38.464 Q 9.351406350000001 -38.464 9.346523537500001 -38.464 Q 9.043789162500001 -38.4591171875 9.016933693750001 -38.122203125 L 9.016933693750001 -34.1524765625 L 8.120937600000001 -34.1524765625 " stroke="#191919" stroke-width="0.7 px" style="stroke-width:0.7;stroke-miterlimit:4;stroke-dasharray:none;stroke-linecap:square;fill:none;fill-opacity:1;fill-rule: evenodd"/>
<path id="Cut007_cs_w0051"  d="M 12.786328225000002 -45.534 Q 12.493359475000002 -45.534 12.442089943750002 -45.192203125 L 12.442089943750002 -42.14288671875 L 11.6046876 -43.5759921875 Q 11.467968850000002 -43.74444921875 11.306836037500002 -43.74444921875 Q 11.29951181875 -43.74444921875 11.2921876 -43.74444921875 Q 11.135937600000002 -43.74444921875 11.011425881250002 -43.5759921875 L 10.17890635 -42.1502109375 L 10.18134775625 -45.192203125 Q 10.142285256250002 -45.5291171875 9.829785256250002 -45.5291171875 L 9.824902443750002 -45.5291171875 Q 9.514843850000002 -45.5291171875 9.490429787500002 -45.192203125 L 9.490429787500002 -40.8806796875 Q 9.509961037500002 -40.60480078125 9.73701181875 -40.543765625 Q 9.776074318750002 -40.534 9.81513681875 -40.534 L 9.829785256250002 -40.534 Q 10.000683693750002 -40.534 10.13251963125 -40.700015625 L 11.306836037500002 -42.71905859375 L 12.493359475000002 -40.700015625 Q 12.625195412500002 -40.534 12.793652443750002 -40.534 Q 12.835156350000002 -40.534 12.883984475000002 -40.54620703125 Q 13.108593850000002 -40.602359375 13.130566506250002 -40.8806796875 L 13.130566506250002 -45.192203125 Q 13.076855568750002 -45.534 12.793652443750002 -45.534 L 12.786328225000002 -45.534 " stroke="#191919" stroke-width="0.7 px" style="stroke-width:0.7;stroke-miterlimit:4;stroke-dasharray:none;stroke-linecap:square;fill:none;fill-opacity:1;fill-rule: evenodd"/>
<path id="Cut007_cs_w0052"  d="M 12.346035256250005 -35.4806015625 L 13.889004006250005 -35.4806015625 Q 14.235683693750005 -35.53187109375 14.235683693750005 -35.82728125 Q 14.235683693750005 -36.1251328125 13.889004006250005 -36.1739609375 L 12.346035256250005 -36.1739609375 L 12.346035256250005 -37.77796484375 L 14.369961037500005 -37.77796484375 Q 14.714199318750005 -37.829234375 14.714199318750005 -38.122203125 Q 14.714199318750005 -38.415171875 14.369961037500005 -38.464 L 12.006679787500005 -38.464 Q 11.701504006250005 -38.4249375 11.660000100000005 -38.1173203125 L 11.660000100000005 -33.805796875 Q 11.706386818750005 -33.48353125 12.006679787500005 -33.464 L 14.369961037500005 -33.464 Q 14.714199318750005 -33.49085546875 14.714199318750005 -33.805796875 Q 14.714199318750005 -34.1231796875 14.369961037500005 -34.14515234375 L 12.346035256250005 -34.14515234375 L 12.346035256250005 -35.4806015625 " stroke="#191919" stroke-width="0.7 px" style="stroke-width:0.7;stroke-miterlimit:4;stroke-dasharray:none;stroke-linecap:square;fill:none;fill-opacity:1;fill-rule: evenodd"/>
<path id="Cut007_cs_w0053"  d="M 18.384772235416673 -38.39808203125 Q 18.296881610416673 -38.46155859375 18.187018329166673 -38.46155859375 Q 18.152838641666673 -38.46155859375 18.113776141666673 -38.454234375 Q 17.962408954166673 -38.42737890625 17.891608172916673 -38.3028671875 L 16.687994891666673 -36.40101171875 L 16.07764332916667 -36.40101171875 L 16.07764332916667 -38.11976171875 Q 16.07764332916667 -38.3321640625 15.88477223541667 -38.4249375 Q 15.804205829166673 -38.464 15.726080829166673 -38.46644140625 Q 15.621100360416673 -38.46644140625 15.523444110416673 -38.3907578125 Q 15.389166766666673 -38.29066015625 15.389166766666673 -38.11976171875 L 15.389166766666673 -33.805796875 Q 15.389166766666673 -33.6641953125 15.487962339583337 -33.56409765625 Q 15.586920672916673 -33.464 15.730963641666673 -33.464 L 17.24707692291667 -33.464 Q 17.793951922916673 -33.464 18.196783954166673 -33.811981770833334 Q 18.599615985416673 -34.15980078125 18.697272235416673 -34.69446875 Q 18.721686297916673 -34.8263046875 18.721686297916673 -34.9532578125 Q 18.721686297916673 -34.958140625 18.721686297916673 -34.96058203125 Q 18.721686297916673 -35.38538671875 18.455573016666673 -35.7686875 Q 18.108893329166673 -36.266734375 17.53760426666667 -36.37415625 L 17.49121754791667 -36.38148046875 L 18.472662860416673 -37.93421484375 Q 18.533698016666673 -38.04163671875 18.533698016666673 -38.1368515625 Q 18.533698016666673 -38.2833359375 18.384772235416673 -38.39808203125 " stroke="#191919" stroke-width="0.7 px" style="stroke-width:0.7;stroke-miterlimit:4;stroke-dasharray:none;stroke-linecap:square;fill:none;fill-opacity:1;fill-rule: evenodd"/>
<path id="Cut007_cs_w0054"  d="M 17.991705829166673 -35.1681015625 Q 18.030768329166673 -35.03870703125 18.030768329166673 -34.919078125 Q 18.030768329166673 -34.6895859375 17.88672536041667 -34.489390625 Q 17.666998797916673 -34.18665625 17.281256610416673 -34.1524765625 L 16.07764332916667 -34.1524765625 L 16.07764332916667 -35.7149765625 L 17.24707692291667 -35.7149765625 Q 17.49610036041667 -35.7149765625 17.707200620833337 -35.563609375 Q 17.918463641666673 -35.4122421875 17.991705829166673 -35.1681015625 " stroke="#191919" stroke-width="0.7 px" style="stroke-width:0.7;stroke-miterlimit:4;stroke-dasharray:none;stroke-linecap:square;fill:none;fill-opacity:1;fill-rule: evenodd"/>
<path id="Cut007_cs_w0055"  d="M -10.901386618750001 10.636 L -8.490839743750001 10.636 Q -8.144697165625002 10.608607421874998 -8.144697165625002 10.283548828125 Q -8.144697165625002 9.958656249999999 -8.495820212500002 9.936244140625 L -10.555244040625002 9.936244140624998 L -10.555244040625002 8.5740859375 L -8.949042868750002 8.5740859375 Q -8.600410056250002 8.54918359375 -8.600410056250002 8.23043359375 Q -8.600410056250002 7.926625 -8.949042868750002 7.874330078124999 L -10.555244040625002 7.874330078124999 L -10.555244040625002 5.88961328125 Q -10.577656150000001 5.545960937499999 -10.891425681250002 5.54098046875 Q -10.89640615 5.54098046875 -10.901386618750001 5.54098046875 Q -11.205195212500001 5.54098046875 -11.254999900000001 5.88961328125 L -11.254999900000001 10.282386718749999 Q -11.210175681250002 10.61109765625 -10.901386618750001 10.636 " stroke="#191919" stroke-width="0.7 px" style="stroke-width:0.7;stroke-miterlimit:4;stroke-dasharray:none;stroke-linecap:square;fill:none;fill-opacity:1;fill-rule: evenodd"/>
<path id="Cut007_cs_w0056"  d="M -7.451249900000001 10.282386718749999 Q -7.398954978125002 10.636 -7.097636618750002 10.636 Q -7.0926561500000025 10.636 -7.087675681250002 10.636 Q -6.776396384375002 10.631019531249999 -6.749003806250002 10.282386718749999 L -6.749003806250002 6.228285156249999 L -4.450517478125002 6.230775390624999 Q -4.099394431250001 6.190931640624999 -4.099394431250001 5.879652343749999 Q -4.099394431250001 5.555921874999999 -4.4530077125000025 5.533509765624999 L -7.097636618750002 5.533509765624999 Q -7.403935446875002 5.553431640625 -7.451249900000002 5.879652343749999 L -7.451249900000001 10.282386718749999 " stroke="#191919" stroke-width="0.7 px" style="stroke-width:0.7;stroke-miterlimit:4;stroke-dasharray:none;stroke-linecap:square;fill:none;fill-opacity:1;fill-rule: evenodd"/>
<path id="Cut007_cs_w0057"  d="M -0.3369823218750039 5.603236328125 Q -0.42663075937500317 5.538490234375 -0.5386913062500049 5.538490234375 Q -0.5735545875000039 5.538490234375 -0.6133983375000049 5.545960937499999 Q -0.7677928687500035 5.573353515625 -0.8400096656250042 5.70035546875 L -2.067695212500002 7.640248046875 L -2.690253806250004 7.640248046875 L -2.690253806250004 5.887123046875 Q -2.690253806250004 5.670472656249999 -2.886982321875003 5.57584375 Q -2.9691600562500042 5.536 -3.048847556250003 5.533509765624999 Q -3.1559276343750025 5.533509765624999 -3.2555370093750033 5.61070703125 Q -3.3924999000000033 5.712806640625 -3.3924999000000033 5.887123046875 L -3.3924999000000033 10.2873671875 Q -3.3924999000000033 10.431800781249999 -3.2917284156250037 10.533900390624998 Q -3.190790915625003 10.636 -3.0438670875000042 10.636 L -1.4974315406250032 10.636 Q -0.9396190406250042 10.636 -0.5287303687500042 10.281058593749998 Q -0.11784169687500423 9.926283203125 -0.01823232187500423 9.380921874999999 Q 0.0066700218749957685 9.246449218749998 0.0066700218749957685 9.11695703125 Q 0.0066700218749957685 9.111976562499999 0.0066700218749957685 9.109486328125 Q 0.0066700218749957685 8.676185546874999 -0.26476552500000317 8.285218749999999 Q -0.6183788062500035 7.7772109375 -1.2010936500000042 7.667640624999999 L -1.248408103125005 7.660169921874999 L -0.2473338843750046 6.076380859375 Q -0.1850780250000046 5.966810546874999 -0.1850780250000046 5.869691406249999 Q -0.1850780250000046 5.720277343749999 -0.3369823218750039 5.603236328125 " stroke="#191919" stroke-width="0.7 px" style="stroke-width:0.7;stroke-miterlimit:4;stroke-dasharray:none;stroke-linecap:square;fill:none;fill-opacity:1;fill-rule: evenodd"/>
<path id="Cut007_cs_w0058"  d="M -0.7379100562500049 8.89781640625 Q -0.6980663062500039 9.029798828125 -0.6980663062500039 9.1518203125 Q -0.6980663062500039 9.385902343749999 -0.8449901343750028 9.5901015625 Q -1.0691112281250046 9.898890625 -1.4625682593750042 9.933753906249999 L -2.690253806250004 9.933753906249999 L -2.690253806250004 8.340003906249999 L -1.4974315406250032 8.340003906249999 Q -1.2434276343750028 8.340003906249999 -1.0281053687500048 8.4943984375 Q -0.8126170875000049 8.64879296875 -0.7379100562500049 8.89781640625 " stroke="#191919" stroke-width="0.7 px" style="stroke-width:0.7;stroke-miterlimit:4;stroke-dasharray:none;stroke-linecap:square;fill:none;fill-opacity:1;fill-rule: evenodd"/>
<path id="Cut007_cs_w0059"  d="M 8.356093849999993 8.210511718749999 L 8.395937599999996 8.188099609375 Q 8.413369240624995 8.1756484375 8.434453224999995 8.164359375 Q 8.455703224999993 8.153236328124999 8.475625099999995 8.140785156249999 Q 8.968691506249996 7.817054687499999 9.085732521874995 7.244300781249999 Q 9.115615334374997 7.099867187499999 9.115615334374997 6.950453124999999 Q 9.115615334374997 6.868275390625 9.105654396874996 6.783607421874999 Q 9.065810646874997 6.444935546875 8.867754006249996 6.157230468749999 Q 8.669863381249996 5.869691406249999 8.371035256249996 5.712806640625 Q 8.049795021874996 5.543470703124999 7.706142678124998 5.543470703124999 Q 7.128408303124996 5.543470703124999 6.602968849999996 5.6915566406249996 Q 6.0775293968749935 5.83980859375 5.853408303124997 6.484779296874999 Q 5.823525490624995 6.566957031249999 5.808584084374996 6.654115234374999 Q 5.793642678124996 6.741273437499999 5.773720803124995 6.828431640624999 Q 5.766250099999997 6.868275390625 5.766250099999997 6.908119140624999 Q 5.766250099999997 7.040101562499999 5.860879006249995 7.144691406249999 Q 5.962978615624998 7.25426171875 6.104921974999996 7.25426171875 Q 6.137295021874998 7.25426171875 6.174648537499994 7.249281249999999 Q 6.371377053124995 7.209437499999999 6.448574318749998 7.00523828125 L 6.456045021874996 6.982826171875 Q 6.573086037499998 6.442445312499999 6.871914162499998 6.33785546875 Q 7.143349709374995 6.243226562499999 7.611513771874996 6.243226562499999 Q 7.656337990624998 6.243226562499999 7.701162209374996 6.243226562499999 Q 8.189248146874995 6.243226562499999 8.371035256249996 6.701429687499999 Q 8.418349709374993 6.823451171875 8.418349709374993 6.947962890624999 Q 8.418349709374993 7.035121093749999 8.395937599999996 7.124769531249999 Q 8.341152443749994 7.34391015625 8.179287209374998 7.493324218749999 Q 8.107070412499997 7.555580078124999 7.990029396874995 7.610365234374999 L 6.837050881249997 8.1158828125 L 6.799697365624997 8.135804687499999 Q 6.2344141624999985 8.434632812499999 6.0974512718749985 8.984974609375 Q 6.0476465843749985 9.171742187499998 6.0476465843749985 9.348548828124999 Q 6.0476465843749985 9.3510390625 6.0476465843749985 9.356019531249999 Q 6.0476465843749985 9.771888671874999 6.329043068749996 10.127992187499999 Q 6.727480568749996 10.636 7.379921974999995 10.636 L 7.653847756249995 10.628529296874998 Q 7.788320412499996 10.603626953124998 7.912832131249996 10.57988671875 Q 8.037343849999996 10.556312499999999 8.164345803124995 10.499037109375 Q 8.478115334374998 10.352113281249999 8.644961037499996 10.095619140624999 Q 8.811806740624998 9.839125 8.946279396874996 9.540296875 Q 8.958730568749996 9.512904296874998 8.968691506249996 9.475550781249998 Q 8.978652443749997 9.433216796875 8.978652443749997 9.393373046874999 Q 8.978652443749997 9.318666015624999 8.943789162499996 9.253919921875 Q 8.913906349999998 9.1916640625 8.881533303124996 9.159291015624998 Q 8.849160256249995 9.126917968749998 8.829238381249997 9.114466796874998 Q 8.737099709374995 9.049720703124999 8.632509865624996 9.049720703124999 Q 8.590175881249994 9.049720703124999 8.545351662499996 9.059681640625 Q 8.390957131249994 9.094544921874999 8.308779396874996 9.258900390624998 Q 8.244033303124997 9.403333984375 8.170488381249996 9.553910156249998 Q 8.097109474999996 9.704652343749999 7.965127053124995 9.804261718749999 Q 7.910341896874996 9.844105468749998 7.859209084374996 9.862699218749999 Q 7.808242287499997 9.881458984374998 7.745986428124997 9.903871093749999 L 7.5841211937499935 9.931263671874998 L 7.3550196312499985 9.938734375 Q 7.021328224999998 9.933753906249999 6.844521584374995 9.649867187499998 Q 6.749892678124997 9.505433593749999 6.749892678124997 9.331117187499999 Q 6.749892678124997 9.288783203125 6.754873146874996 9.243958984374999 Q 6.789736428124996 8.96754296875 7.013857521874996 8.815638671875 Q 7.023818459374997 8.808167968749999 7.036269631249997 8.799369140624998 Q 7.0487208031249935 8.790736328125 7.063662209374996 8.783265624999999 L 7.091054787499996 8.770814453124999 L 7.120937599999998 8.758363281249999 L 8.271425881249996 8.25035546875 L 8.311269631249996 8.232923828125 L 8.356093849999993 8.210511718749999 " stroke="#191919" stroke-width="0.7 px" style="stroke-width:0.7;stroke-miterlimit:4;stroke-dasharray:none;stroke-linecap:square;fill:none;fill-opacity:1;fill-rule: evenodd"/>
<path id="Cut007_cs_w0060"  d="M 11.748291115624998 10.636 L 11.760742287499994 10.636 Q 11.997314553124994 10.636 12.079492287499995 10.406898437499999 L 13.675732521874995 6.004164062499999 Q 13.690673928124994 5.931947265624999 13.690673928124994 5.869691406249999 Q 13.690673928124994 5.623158203125 13.461572365624995 5.558412109374999 L 13.379394631249994 5.531019531249999 Q 13.376904396874995 5.531019531249999 13.374414162499995 5.531019531249999 Q 13.162744240624995 5.531019531249999 13.015820412499995 5.767591796874999 L 12.759326271874997 6.472328125 L 10.749707131249995 6.467347656249999 L 10.500683693749995 5.772572265625 Q 10.383642678124996 5.543470703124999 10.169482521874993 5.543470703124999 Q 10.074853615624995 5.543470703124999 10.027539162499995 5.570863281249999 Q 9.843261818749998 5.677943359375 9.843261818749998 5.892103515624999 Q 9.843261818749998 5.929457031249999 9.848242287499996 5.971791015625 L 11.434521584374995 10.406898437499999 Q 11.516699318749996 10.636 11.748291115624998 10.636 " stroke="#191919" stroke-width="0.7 px" style="stroke-width:0.7;stroke-miterlimit:4;stroke-dasharray:none;stroke-linecap:square;fill:none;fill-opacity:1;fill-rule: evenodd"/>
<path id="Cut007_cs_w0061"  d="M 10.986279396874995 7.172083984375 L 12.505322365624995 7.172083984375 L 11.748291115624998 9.263880859374998 L 10.986279396874995 7.172083984375 " stroke="#191919" stroke-width="0.7 px" style="stroke-width:0.7;stroke-miterlimit:4;stroke-dasharray:none;stroke-linecap:square;fill:none;fill-opacity:1;fill-rule: evenodd"/>
<path id="Cut007_cs_w0062"  d="M 14.266250099999993 10.282386718749999 Q 14.318545021874996 10.636 14.619863381249996 10.636 Q 14.624843849999994 10.636 14.629824318749993 10.636 Q 14.941103615624993 10.631019531249999 14.968496193749992 10.282386718749999 L 14.968496193749992 6.228285156249999 L 17.266982521874993 6.230775390624999 Q 17.618105568749996 6.190931640624999 17.618105568749996 5.879652343749999 Q 17.618105568749996 5.555921874999999 17.264492287499994 5.533509765624999 L 14.619863381249996 5.533509765624999 Q 14.31356455312499 5.553431640625 14.266250099999993 5.879652343749999 L 14.266250099999993 10.282386718749999 " stroke="#191919" stroke-width="0.7 px" style="stroke-width:0.7;stroke-miterlimit:4;stroke-dasharray:none;stroke-linecap:square;fill:none;fill-opacity:1;fill-rule: evenodd"/>
<path id="Cut007_cs_w0064"  d="M 6.199739683333334 -42.7849765625 L 7.369173277083336 -42.7849765625 Q 7.618196714583334 -42.7849765625 7.829296975000002 -42.633609375 Q 8.040559995833334 -42.4822421875 8.113802183333334 -42.2381015625 Q 8.152864683333334 -42.10870703125 8.152864683333334 -41.989078125 Q 8.152864683333334 -41.7595859375 8.008821714583334 -41.559390625 Q 7.789095152083334 -41.25665625 7.403352964583334 -41.2224765625 L 6.199739683333334 -41.2224765625 L 6.199739683333334 -42.7849765625 " stroke="#191919" stroke-width="0.7 px" style="stroke-width:0.7;stroke-miterlimit:4;stroke-dasharray:none;stroke-linecap:square;fill:none;fill-opacity:1;fill-rule: evenodd"/>
<path id="Cut007_cs_w0066"  d="M 16.07764332916667 -35.7149765625 L 17.24707692291667 -35.7149765625 Q 17.49610036041667 -35.7149765625 17.707200620833337 -35.563609375 Q 17.918463641666673 -35.4122421875 17.991705829166673 -35.1681015625 Q 18.030768329166673 -35.03870703125 18.030768329166673 -34.919078125 Q 18.030768329166673 -34.6895859375 17.88672536041667 -34.489390625 Q 17.666998797916673 -34.18665625 17.281256610416673 -34.1524765625 L 16.07764332916667 -34.1524765625 L 16.07764332916667 -35.7149765625 " stroke="#191919" stroke-width="0.7 px" style="stroke-width:0.7;stroke-miterlimit:4;stroke-dasharray:none;stroke-linecap:square;fill:none;fill-opacity:1;fill-rule: evenodd"/>
<path id="Cut007_cs_w0067"  d="M -2.690253806250004 8.340003906249999 L -1.4974315406250032 8.340003906249999 Q -1.2434276343750028 8.340003906249999 -1.0281053687500048 8.4943984375 Q -0.8126170875000049 8.64879296875 -0.7379100562500049 8.89781640625 Q -0.6980663062500039 9.029798828125 -0.6980663062500039 9.1518203125 Q -0.6980663062500039 9.385902343749999 -0.8449901343750028 9.5901015625 Q -1.0691112281250046 9.898890625 -1.4625682593750042 9.933753906249999 L -2.690253806250004 9.933753906249999 L -2.690253806250004 8.340003906249999 " stroke="#191919" stroke-width="0.7 px" style="stroke-width:0.7;stroke-miterlimit:4;stroke-dasharray:none;stroke-linecap:square;fill:none;fill-opacity:1;fill-rule: evenodd"/>
<title>b'Engraving Panel-MasterArm-TopB'</title>
</g>
</svg>