<?xml version="1.0"?>
<!DOCTYPE svg PUBLIC "-//W3C//DTD SVG 1.1//EN" "http://www.w3.org/Graphics/SVG/1.1/DTD/svg11.dtd">
<svg width="38.332620000000006mm" height="97.148223mm" viewBox="0 0 38.332620000000006 97.148223" xmlns="http://www.w3.org/2000/svg" version="1.1">
<g id="Common_cs" transform="translate(15.726810,16.692413) scale(1,-1)">
<path id="Common_cs_w0000"  d="M 1.6285331532410576 -45.832474 L -15.351000000000004 -62.812007153241055 L -15.351000000000003 -63.23905075162884 A 4 4 0 0 0 -8.84214 -63.3742L -3.3150063709102677 -57.84708133601679 A 7.5 7.5 0 0 0 3.68081 -50.8513L 8.699600965106526 -45.832474 L 1.6285331532410576 -45.832474 " stroke="#191919" stroke-width="0.7 px" style="stroke-width:0.7;stroke-miterlimit:4;stroke-dasharray:none;stroke-linecap:square;fill:none;fill-opacity:1;fill-rule: evenodd"/>
<path id="Common_cs_w0001"  d="M -0.6152951522855603 -40.015285 L -15.351000000000004 -54.750989847714436 L -15.351000000000003 -61.8220576595799 L 0.6385836595798986 -45.832474 L 0.48790599999999884 -45.832474 L 0.48790599999999884 -40.015285 L -0.6152951522855603 -40.015285 " stroke="#191919" stroke-width="0.7 px" style="stroke-width:0.7;stroke-miterlimit:4;stroke-dasharray:none;stroke-linecap:square;fill:none;fill-opacity:1;fill-rule: evenodd"/>
<path id="Common_cs_w0002"  d="M -5.947120999999997 -37.286093542187785 L -15.351 -46.689972542187775 L -15.351 -53.76104035405324 L -1.6052446459467524 -40.015285 L -5.947120999999999 -40.015285 L -5.947120999999997 -37.286093542187785 " stroke="#191919" stroke-width="0.7 px" style="stroke-width:0.7;stroke-miterlimit:4;stroke-dasharray:none;stroke-linecap:square;fill:none;fill-opacity:1;fill-rule: evenodd"/>
<path id="Common_cs_w0003"  d="M -3.563932763338868 -26.841887999999997 L -15.351000000000004 -38.62895523666113 L -15.351000000000004 -45.70002304852659 L -5.947121000000001 -36.29614404852659 L -5.947120999999999 -32.800408000000004 L -2.451384951473413 -32.800408000000004 L 3.5071350485265995 -26.841887999999997 L -3.563932763338868 -26.841887999999997 " stroke="#191919" stroke-width="0.7 px" style="stroke-width:0.7;stroke-miterlimit:4;stroke-dasharray:none;stroke-linecap:square;fill:none;fill-opacity:1;fill-rule: evenodd"/>
<path id="Common_cs_w0004"  d="M -11.62495006886549 -26.841887999999997 L -15.351000000000004 -30.567937931134512 L -15.351000000000004 -37.63900574299997 L -4.553882257000028 -26.841887999999997 L -11.62495006886549 -26.841887999999997 " stroke="#191919" stroke-width="0.7 px" style="stroke-width:0.7;stroke-miterlimit:4;stroke-dasharray:none;stroke-linecap:square;fill:none;fill-opacity:1;fill-rule: evenodd"/>
<path id="Common_cs_w0005"  d="M -12.614899562526682 -26.841887999999997 L -15.351000000000003 -26.841887999999997 L -15.351 -29.577988437473312 L -12.614899562526682 -26.841887999999997 " stroke="#191919" stroke-width="0.7 px" style="stroke-width:0.7;stroke-miterlimit:4;stroke-dasharray:none;stroke-linecap:square;fill:none;fill-opacity:1;fill-rule: evenodd"/>
<path id="Common_cs_w0006"  d="M -5.416163999999997 -12.57208462560785 L -15.351 -22.506920625607854 L -15.351000000000003 -23.325103999999996 L -9.098115562526678 -23.325103999999996 L -1.4205485625266798 -15.647537 L -3.4161639999999984 -15.647537 A 2 2 0 0 0 -5.41616 -13.6475L -5.416163999999997 -12.57208462560785 " stroke="#191919" stroke-width="0.7 px" style="stroke-width:0.7;stroke-miterlimit:4;stroke-dasharray:none;stroke-linecap:square;fill:none;fill-opacity:1;fill-rule: evenodd"/>
<path id="Common_cs_w0007"  d="M -5.416163999999997 -4.51106732008121 L -15.351 -14.445903320081207 L -15.351 -21.516971131946676 L -5.416163999999997 -11.582135131946675 L -5.416163999999997 -4.51106732008121 " stroke="#191919" stroke-width="0.7 px" style="stroke-width:0.7;stroke-miterlimit:4;stroke-dasharray:none;stroke-linecap:square;fill:none;fill-opacity:1;fill-rule: evenodd"/>
<path id="Common_cs_w0008"  d="M -4.138085985445417 4.828028000000003 L -15.351 -6.384886014554574 L -15.351 -13.45595382642004 L -5.416163999999997 -3.521117826420041 L -5.416163999999998 1.7839740000000006 A 2 2 0 0 0 -3.41616 3.78397L 1.8889278264200469 3.7839740000000006 L 2.9329818264200496 4.828028000000003 L -4.138085985445417 4.828028000000003 " stroke="#191919" stroke-width="0.7 px" style="stroke-width:0.7;stroke-miterlimit:4;stroke-dasharray:none;stroke-linecap:square;fill:none;fill-opacity:1;fill-rule: evenodd"/>
<path id="Common_cs_w0009"  d="M -11.920105000000005 5.107026290972058 L -15.351 1.6761312909720694 L -15.351 -5.394936520893397 L -5.1280354791065985 4.828028000000003 L -11.920105000000003 4.828028000000003 L -11.920105000000005 5.107026290972058 " stroke="#191919" stroke-width="0.7 px" style="stroke-width:0.7;stroke-miterlimit:4;stroke-dasharray:none;stroke-linecap:square;fill:none;fill-opacity:1;fill-rule: evenodd"/>
<path id="Common_cs_w0010"  d="M -8.771545596498704 16.316603 L -15.351 9.737148596498706 L -15.351 2.6660807846332393 L -11.920105000000005 6.0969757846332335 L -11.920105000000003 11.829987000000003 L -6.187093784633232 11.829987000000006 L -1.7004777846332306 16.316603000000004 L -8.771545596498704 16.316603 " stroke="#191919" stroke-width="0.7 px" style="stroke-width:0.7;stroke-miterlimit:4;stroke-dasharray:none;stroke-linecap:square;fill:none;fill-opacity:1;fill-rule: evenodd"/>
<path id="Common_cs_w0011"  d="M -9.76149509015988 16.316603 L -15.351000000000003 16.316603 L -15.351 10.727098090159881 L -9.76149509015988 16.316603 " stroke="#191919" stroke-width="0.7 px" style="stroke-width:0.7;stroke-miterlimit:4;stroke-dasharray:none;stroke-linecap:square;fill:none;fill-opacity:1;fill-rule: evenodd"/>
<path id="Common_cs_w0012"  d="M -15.351000000000003 -69.88307496510652 L -15.351000000000003 -68.02256124837112 A 4 4 0 0 1 -14.4014 -68.9335L -15.351000000000017 -69.88307496510654 " stroke="#191919" stroke-width="0.7 px" style="stroke-width:0.7;stroke-miterlimit:4;stroke-dasharray:none;stroke-linecap:square;fill:none;fill-opacity:1;fill-rule: evenodd"/>
<path id="Common_cs_w0013"  d="M -3.3141749702589225 -58.83619942902662 A 7.5 7.5 0 0 1 -1.0897 -63.6828L -15.351000000000012 -77.94409227063319 L -15.351000000000003 -70.8730244587677 L -13.765675136636048 -69.28769959540377 A 4 4 0 0 1 -8.48794 -64.01L -3.314174970258911 -58.83619942902665 " stroke="#191919" stroke-width="0.7 px" style="stroke-width:0.7;stroke-miterlimit:4;stroke-dasharray:none;stroke-linecap:square;fill:none;fill-opacity:1;fill-rule: evenodd"/>
<path id="Common_cs_w0014"  d="M 5.609632354053244 -32.800408000000004 L 11.568152354053257 -26.841887999999997 L 4.497084542187787 -26.841887999999997 L -1.46143545781222 -32.800408000000004 L 5.609632354053244 -32.800408000000004 " stroke="#191919" stroke-width="0.7 px" style="stroke-width:0.7;stroke-miterlimit:4;stroke-dasharray:none;stroke-linecap:square;fill:none;fill-opacity:1;fill-rule: evenodd"/>
<path id="Common_cs_w0015"  d="M 13.670649659579897 -32.800408000000004 L 19.629169659579908 -26.841887999999997 L 12.558101847714445 -26.841887999999997 L 6.599581847714436 -32.800408000000004 L 13.670649659579897 -32.800408000000004 " stroke="#191919" stroke-width="0.7 px" style="stroke-width:0.7;stroke-miterlimit:4;stroke-dasharray:none;stroke-linecap:square;fill:none;fill-opacity:1;fill-rule: evenodd"/>
<path id="Common_cs_w0016"  d="M 22.229999999999997 -32.30207496510653 L 22.23 -26.841887999999997 L 20.619119153241066 -26.841887999999997 L 14.660599153241053 -32.800408000000004 L 19.657862 -32.800408000000004 L 19.657862 -34.87421296510653 L 22.229999999999997 -32.30207496510653 " stroke="#191919" stroke-width="0.7 px" style="stroke-width:0.7;stroke-miterlimit:4;stroke-dasharray:none;stroke-linecap:square;fill:none;fill-opacity:1;fill-rule: evenodd"/>
<path id="Common_cs_w0017"  d="M 22.23 -9.10897254218779 L 8.013868542187792 -23.325103999999996 L 15.08493635405326 -23.325103999999996 L 22.230000000000004 -16.180040354053254 L 22.23 -9.10897254218779 " stroke="#191919" stroke-width="0.7 px" style="stroke-width:0.7;stroke-miterlimit:4;stroke-dasharray:none;stroke-linecap:square;fill:none;fill-opacity:1;fill-rule: evenodd"/>
<path id="Common_cs_w0018"  d="M 7.630418236661135 -15.647537 L -0.04714876333886409 -23.325103999999996 L 7.023919048526604 -23.325103999999996 L 22.229999999999997 -8.1190230485266 L 22.23 -1.0479552366611387 L 14.124919000000006 -9.153036236661132 L 14.124919000000006 -13.647537 A 2 2 0 0 0 12.1249 -15.6475L 7.630418236661135 -15.647537 " stroke="#191919" stroke-width="0.7 px" style="stroke-width:0.7;stroke-miterlimit:4;stroke-dasharray:none;stroke-linecap:square;fill:none;fill-opacity:1;fill-rule: evenodd"/>
<path id="Common_cs_w0019"  d="M -0.43059906886548904 -15.647537 L -8.108166068865481 -23.325103999999996 L -1.0370982570000198 -23.325103999999996 L 6.6404687429999765 -15.647537 L -0.43059906886548904 -15.647537 " stroke="#191919" stroke-width="0.7 px" style="stroke-width:0.7;stroke-miterlimit:4;stroke-dasharray:none;stroke-linecap:square;fill:none;fill-opacity:1;fill-rule: evenodd"/>
<path id="Common_cs_w0020"  d="M 22.23 -17.169989847714447 L 16.07488584771445 -23.325103999999996 L 22.23 -23.325103999999996 L 22.23 -17.169989847714447 " stroke="#191919" stroke-width="0.7 px" style="stroke-width:0.7;stroke-miterlimit:4;stroke-dasharray:none;stroke-linecap:square;fill:none;fill-opacity:1;fill-rule: evenodd"/>
<path id="Common_cs_w0021"  d="M 1.8739235208934044 11.829987000000003 L 6.360539520893403 16.316603 L -0.7105282909720589 16.316603 L -5.19714429097206 11.829987000000003 L 1.8739235208934044 11.829987000000003 " stroke="#191919" stroke-width="0.7 px" style="stroke-width:0.7;stroke-miterlimit:4;stroke-dasharray:none;stroke-linecap:square;fill:none;fill-opacity:1;fill-rule: evenodd"/>
<path id="Common_cs_w0022"  d="M 9.934940826420064 11.829987000000003 L 2.863873014554585 11.829987000000003 L 7.35048901455463 16.316602999999986 L 9.821945949785237 16.316603 A 4 4 0 0 1 11.2621 13.1572L 9.934940826420075 11.829986999999946 " stroke="#191919" stroke-width="0.7 px" style="stroke-width:0.7;stroke-miterlimit:4;stroke-dasharray:none;stroke-linecap:square;fill:none;fill-opacity:1;fill-rule: evenodd"/>
<path id="Common_cs_w0023"  d="M 22.23 16.316603 L 22.23 16.0640288680533 L 17.99595813194672 11.829986999999953 L 10.924890320081218 11.829987000000003 L 11.847327280537948 12.75242396045666 A 4 4 0 0 1 17.8201 16.3166L 22.23 16.316603 " stroke="#191919" stroke-width="0.7 px" style="stroke-width:0.7;stroke-miterlimit:4;stroke-dasharray:none;stroke-linecap:square;fill:none;fill-opacity:1;fill-rule: evenodd"/>
<path id="Common_cs_w0024"  d="M 14.124919000000006 -0.1020694374733182 L 22.230000000000004 8.003011562526673 L 22.23 15.074079374392129 L 18.096950000000003 10.941029374392135 L 18.096950000000003 4.828028000000003 L 11.983948625607868 4.828028000000003 L 10.939894625607865 3.7839740000000006 L 12.124919000000006 3.7839740000000006 A 2 2 0 0 0 14.1249 1.78397L 14.124919000000006 -0.1020694374733182 " stroke="#191919" stroke-width="0.7 px" style="stroke-width:0.7;stroke-miterlimit:4;stroke-dasharray:none;stroke-linecap:square;fill:none;fill-opacity:1;fill-rule: evenodd"/>
<path id="Common_cs_w0025"  d="M 14.124919000000002 -8.163086742999976 L 22.229999999999997 -0.05800574299998118 L 22.23 7.013062068865478 L 14.124919000000006 -1.0920189311345139 L 14.124919000000002 -8.163086742999976 " stroke="#191919" stroke-width="0.7 px" style="stroke-width:0.7;stroke-miterlimit:4;stroke-dasharray:none;stroke-linecap:square;fill:none;fill-opacity:1;fill-rule: evenodd"/>
<path id="Common_cs_w0026"  d="M 9.51652821801255 -53.076564052620625 L 22.230000000000004 -40.36309227063318 L 22.230000000000004 -33.29202445876771 L 19.657862 -35.86416245876771 L 19.657862 -40.015285 L 15.506739458767711 -40.015285 L 13.857162000000002 -41.664862458767715 L 13.857162 -45.832474 L 9.689550458767712 -45.832474 L 4.6699324290266295 -50.85209202974107 A 7.5 7.5 0 0 0 9.51653 -53.0766" stroke="#191919" stroke-width="0.7 px" style="stroke-width:0.7;stroke-miterlimit:4;stroke-dasharray:none;stroke-linecap:square;fill:none;fill-opacity:1;fill-rule: evenodd"/>
<path id="Common_cs_w0027"  d="M 11.638135913880408 -59.0159736622794 L 22.230000000000004 -48.424109576159815 L 22.230000000000004 -41.353041764294346 L 9.984195451381387 -53.598846312912954 A 7.5 7.5 0 0 0 11.6381 -59.016" stroke="#191919" stroke-width="0.7 px" style="stroke-width:0.7;stroke-miterlimit:4;stroke-dasharray:none;stroke-linecap:square;fill:none;fill-opacity:1;fill-rule: evenodd"/>
<path id="Common_cs_w0028"  d="M -1.3648731183135432 -80.08 L 22.229999999999997 -56.48512688168647 L 22.230000000000004 -49.414059069821015 L 11.429956945771137 -60.21410212404987 A 7.5 7.5 0 0 0 6.04784 -65.5962L -8.435940930178997 -80.08 L -1.3648731183135432 -80.08 " stroke="#191919" stroke-width="0.7 px" style="stroke-width:0.7;stroke-miterlimit:4;stroke-dasharray:none;stroke-linecap:square;fill:none;fill-opacity:1;fill-rule: evenodd"/>
<path id="Common_cs_w0029"  d="M 6.696144187213074 -80.08 L 22.230000000000004 -64.54614418721309 L 22.230000000000004 -57.47507637534761 L -0.37492362465239015 -80.08 L 6.696144187213074 -80.08 " stroke="#191919" stroke-width="0.7 px" style="stroke-width:0.7;stroke-miterlimit:4;stroke-dasharray:none;stroke-linecap:square;fill:none;fill-opacity:1;fill-rule: evenodd"/>
<path id="Common_cs_w0030"  d="M 14.757161492739735 -80.08 L 22.229999999999997 -72.60716149273975 L 22.230000000000004 -65.53609368087427 L 7.686093680874269 -80.08 L 14.757161492739735 -80.08 " stroke="#191919" stroke-width="0.7 px" style="stroke-width:0.7;stroke-miterlimit:4;stroke-dasharray:none;stroke-linecap:square;fill:none;fill-opacity:1;fill-rule: evenodd"/>
<path id="Common_cs_w0031"  d="M 15.747110986400909 -80.08 L 22.23 -80.08 L 22.230000000000004 -73.5971109864009 L 15.747110986400909 -80.08 " stroke="#191919" stroke-width="0.7 px" style="stroke-width:0.7;stroke-miterlimit:4;stroke-dasharray:none;stroke-linecap:square;fill:none;fill-opacity:1;fill-rule: evenodd"/>
<path id="Common_cs_w0032"  d="M -15.351 -78.93404176429434 L -15.351000000000003 -80.08 L -9.4258904238402 -80.08 L 4.8497066622794 -65.80440291388041 A 7.5 7.5 0 0 0 -0.567421 -64.1505L -15.351 -78.93404176429434 " stroke="#191919" stroke-width="0.7 px" style="stroke-width:0.7;stroke-miterlimit:4;stroke-dasharray:none;stroke-linecap:square;fill:none;fill-opacity:1;fill-rule: evenodd"/>
<path id="Common_cs_w0033"  d="M 3.9229313200812186 4.828028000000003 L 2.878877320081216 3.7839740000000006 L 9.949945131946683 3.7839740000000006 L 10.993999131946685 4.828028000000003 L 3.9229313200812186 4.828028000000003 " stroke="#191919" stroke-width="0.7 px" style="stroke-width:0.7;stroke-miterlimit:4;stroke-dasharray:none;stroke-linecap:square;fill:none;fill-opacity:1;fill-rule: evenodd"/>
<path id="Common_cs_w0034"  d="M 14.516789965106526 -40.015285 L 13.857162 -40.015285 L 13.857162000000002 -40.67491296510653 L 14.516789965106526 -40.015285 " stroke="#191919" stroke-width="0.7 px" style="stroke-width:0.7;stroke-miterlimit:4;stroke-dasharray:none;stroke-linecap:square;fill:none;fill-opacity:1;fill-rule: evenodd"/>
<title>b'CrossSection-Panel-MasterArm ZagPattern'</title>
</g>
</svg>