<?xml version="1.0"?>
<!DOCTYPE svg PUBLIC "-//W3C//DTD SVG 1.1//EN" "http://www.w3.org/Graphics/SVG/1.1/DTD/svg11.dtd">
<svg width="15.1456332mm" height="7.9969732mm" viewBox="0 0 15.1456332 7.9969732" xmlns="http://www.w3.org/2000/svg" version="1.1">
<g id="Part009_cs" transform="translate(7.572817,3.998487) scale(1,-1)">
<path id="Part009_cs_w0000"  d="M 7.42433 3.85 L -7.42433 3.85 L -7.42433 -3.85 L 7.42433 -3.85 L 7.42433 3.85 " stroke="#191919" stroke-width="0.7 px" style="stroke-width:0.7;stroke-miterlimit:4;stroke-dasharray:none;stroke-linecap:square;fill:none;fill-opacity:1;fill-rule: evenodd"/>
<path id="Part009_cs_w0001"  d="M -3.71853505625 -1.59607421875 L -3.6211229468750004 -1.614873046875 L -3.3938280250000004 -1.457646484375 L -3.2229295875000004 -0.9808398437499998 L -1.8437791968750004 -0.9774218750000002 L -1.6677538062500004 -1.4610644531250006 L -1.4216600562500004 -1.62341796875 L -1.4182420875000004 -1.62341796875 L -1.3618456031250001 -1.604619140625 Q -1.2046187988565915 -1.559885478087419 -1.2046190406250004 -1.39099609375 L -1.2148729468750004 -1.2987109375 L -2.3103319312500004 1.7227734375000003 L -2.5290819312500004 1.88 L -2.5376268531250004 1.88 L -2.7529588843750004 1.7227734375 L -3.8415819312500004 -1.320927734375 L -3.8449999000000004 -1.375615234375 L -3.7185350562500004 -1.59607421875 " stroke="#191919" stroke-width="0.7 px" style="stroke-width:0.7;stroke-miterlimit:4;stroke-dasharray:none;stroke-linecap:square;fill:none;fill-opacity:1;fill-rule: evenodd"/>
<path id="Part009_cs_w0002"  d="M -0.768600160416668 -1.51404296875 L -0.5737759416666677 -1.62 L -0.4336392229166677 -1.5781868489583335 L -0.3601528947916677 -1.496953125 L 1.2531283552083325 1.52453125 L 1.2873080427083323 1.65099609375 L 1.2445834333333323 1.77404296875 L 1.0412142927083323 1.88 L 0.9599805687499989 1.863707682291666 L 0.8361361677083323 1.7552441406249994 L -0.7839810197916677 -1.259404296875 L -0.8096157854166672 -1.382451171875 L -0.7686001604166677 -1.51404296875 " stroke="#191919" stroke-width="0.7 px" style="stroke-width:0.7;stroke-miterlimit:4;stroke-dasharray:none;stroke-linecap:square;fill:none;fill-opacity:1;fill-rule: evenodd"/>
<path id="Part009_cs_w0003"  d="M 3.398359474999999 -0.731328125 L 3.398359474999999 -0.210087890625 L 2.99162119375 -0.210087890625 L 2.976240334374999 -0.20837890625 Q 2.768017682690602 -0.18235392937629213 2.7677442406249995 0.029169921874999893 Q 2.7680176826905782 0.24069377312626522 2.9762403343749995 0.26671874999999967 L 2.99162119375 0.27013671875 L 3.6376172874999995 0.27013671874999995 L 3.807604266666667 0.1991569010416665 L 3.8785840843749995 0.029169921874999893 L 3.878584084374999 -0.83728515625 L 3.858076271875 -0.88171875 L 3.846113381249999 -0.9090625 L 3.834150490624999 -0.934697265625 L 3.806806740625 -0.9859667968749999 L 3.794843849999999 -1.0116015625 L 3.781171974999999 -1.037236328125 L 3.765791115625 -1.06287109375 Q 3.4758443123817844 -1.5883656807576023 2.9642774437500004 -1.614873046875 L 2.9420606468750004 -1.6131640625 Q 2.418365884782985 -1.5760850628292604 2.114912209374999 -1.057744140625 L 1.8790723656250004 -0.4100390625000001 L 1.8243848656249995 0.1539257812499999 L 1.8329297874999995 0.3829296874999999 L 2.021715594791666 1.1561881510416665 Q 2.177848848415134 1.5201073378867238 2.4943067406249995 1.738154296875 L 2.9335157249999995 1.8885449218749994 L 2.9403516625000004 1.8885449218749994 L 3.2599317406250004 1.8013867187499994 Q 3.630563874774022 1.597974283504279 3.8170606468750004 1.22716796875 L 3.830732521874999 1.19982421875 L 3.840986428125 1.1758984375 L 3.854658303124999 1.150263671875 L 3.8751661156249995 1.040888671875 L 3.8102247093750004 0.8853710937499999 L 3.6410352562499986 0.8084667968749999 L 3.5948926781249986 0.8135937499999999 L 3.4154493187499995 0.9503124999999999 Q 3.260636046097943 1.3651329058571982 2.9694043968749995 1.389521484375 L 2.8993360374999995 1.3826855468749994 Q 2.566056575442352 1.297271670775452 2.4276563499999995 0.8665722656249997 L 2.3011915062499995 0.0992382812499999 L 2.3063184593749995 -0.0750781250000001 Q 2.336841482667481 -0.571421649641096 2.6344434593749995 -0.9517871093750001 L 2.9369336937500004 -1.14490234375 L 3.0480176781249995 -1.119267578125 L 3.3795606468750004 -0.7689257812500001 L 3.398359474999999 -0.731328125 " stroke="#191919" stroke-width="0.7 px" style="stroke-width:0.7;stroke-miterlimit:4;stroke-dasharray:none;stroke-linecap:square;fill:none;fill-opacity:1;fill-rule: evenodd"/>
<path id="Part009_cs_w0004"  d="M -3.060576071875 -0.497197265625 L -2.018095603125 -0.497197265625 L -2.537626853125 0.938349609375 L -3.060576071875 -0.497197265625 " stroke="#191919" stroke-width="0.7 px" style="stroke-width:0.7;stroke-miterlimit:4;stroke-dasharray:none;stroke-linecap:square;fill:none;fill-opacity:1;fill-rule: evenodd"/>
<title>b'CrossSection-Lens-A/G'</title>
</g>
</svg>