<?xml version="1.0"?>
<!DOCTYPE svg PUBLIC "-//W3C//DTD SVG 1.1//EN" "http://www.w3.org/Graphics/SVG/1.1/DTD/svg11.dtd">
<svg width="50.5087380697517mm" height="182.0847234131324mm" viewBox="0 0 50.5087380697517 182.0847234131324" xmlns="http://www.w3.org/2000/svg" version="1.1">
<g id="Body005_cs" transform="translate(27.784885,101.504137) scale(1,-1)">
<path id="Body005_cs_w0000"  d="M -7.689018432480486 101.00895299999999 C -13.667902140163868 85.17706314657022 -18.23466032423294 68.95002667817138 -21.389292984808897 52.32784359484834 C -26.12794130460703 27.226887992038527 -27.28143258177924 1.6113378667999638 -27.2897 -23.8825 L -27.289701656619307 -80.085403 L 22.228669 -80.085403 L 22.228668999999996 101.00895299999999 L -7.689018432480486 101.00895299999999 " stroke="#191919" stroke-width="0.7 px" style="stroke-width:0.7;stroke-miterlimit:4;stroke-dasharray:none;stroke-linecap:square;fill:none;fill-opacity:1;fill-rule: evenodd"/>
<circle cx="-12.031741" cy="-65.797764" r="1.7" stroke="#191919" stroke-width="0.7 px" style="stroke-width:0.7;stroke-miterlimit:4;stroke-dasharray:none;stroke-linecap:square;fill:none"/>
<circle cx="-5.935249" cy="7.984472" r="2.25" stroke="#191919" stroke-width="0.7 px" style="stroke-width:0.7;stroke-miterlimit:4;stroke-dasharray:none;stroke-linecap:square;fill:none"/>
<circle cx="4.187192" cy="-58.424969" r="10.0" stroke="#191919" stroke-width="0.7 px" style="stroke-width:0.7;stroke-miterlimit:4;stroke-dasharray:none;stroke-linecap:square;fill:none"/>
<circle cx="-0.328952" cy="-36.214066" r="2.25" stroke="#191919" stroke-width="0.7 px" style="stroke-width:0.7;stroke-miterlimit:4;stroke-dasharray:none;stroke-linecap:square;fill:none"/>
<circle cx="7.635123" cy="-39.231182" r="2.25" stroke="#191919" stroke-width="0.7 px" style="stroke-width:0.7;stroke-miterlimit:4;stroke-dasharray:none;stroke-linecap:square;fill:none"/>
<circle cx="15.323892" cy="-36.194851" r="2.25" stroke="#191919" stroke-width="0.7 px" style="stroke-width:0.7;stroke-miterlimit:4;stroke-dasharray:none;stroke-linecap:square;fill:none"/>
<path id="Body005_cs_w0007"  d="M 12.267029 -15.316411 A 1.5 1.5 0 0 1 13.767 -13.8164L 13.767029 1.9835889999999994 A 1.5 1.5 0 0 1 12.267 3.48359L -3.532971 3.4835889999999994 A 1.5 1.5 0 0 1 -5.03297 1.98359L -5.032971 -13.816411000000002 A 1.5 1.5 0 0 1 -3.53297 -15.3164L 12.267029 -15.316411 " stroke="#191919" stroke-width="0.7 px" style="stroke-width:0.7;stroke-miterlimit:4;stroke-dasharray:none;stroke-linecap:square;fill:none;fill-opacity:1;fill-rule: evenodd"/>
<circle cx="11.381468" cy="7.965205" r="2.25" stroke="#191919" stroke-width="0.7 px" style="stroke-width:0.7;stroke-miterlimit:4;stroke-dasharray:none;stroke-linecap:square;fill:none"/>
<path id="Body005_cs_w0009"  d="M -2.491559529454299 36.09453710918831 L -2.4915595294542996 27.09453710918831 L -19.9915595294543 27.09453710918831 L -19.9915595294543 36.09453710918831 L -2.491559529454299 36.09453710918831 " stroke="#191919" stroke-width="0.7 px" style="stroke-width:0.7;stroke-miterlimit:4;stroke-dasharray:none;stroke-linecap:square;fill:none;fill-opacity:1;fill-rule: evenodd"/>
<circle cx="-11.422819" cy="42.49509" r="2.25" stroke="#191919" stroke-width="0.7 px" style="stroke-width:0.7;stroke-miterlimit:4;stroke-dasharray:none;stroke-linecap:square;fill:none"/>
<path id="Body005_cs_w0011"  d="M 18.06082861441368 36.09453710918831 L 18.06082861441368 27.09453710918831 L 0.5608286144136798 27.09453710918831 L 0.5608286144136798 36.09453710918831 L 18.06082861441368 36.09453710918831 " stroke="#191919" stroke-width="0.7 px" style="stroke-width:0.7;stroke-miterlimit:4;stroke-dasharray:none;stroke-linecap:square;fill:none;fill-opacity:1;fill-rule: evenodd"/>
<circle cx="-2.037721" cy="52.608875" r="1.7" stroke="#191919" stroke-width="0.7 px" style="stroke-width:0.7;stroke-miterlimit:4;stroke-dasharray:none;stroke-linecap:square;fill:none"/>
<circle cx="13.872832" cy="16.360986" r="1.7" stroke="#191919" stroke-width="0.7 px" style="stroke-width:0.7;stroke-miterlimit:4;stroke-dasharray:none;stroke-linecap:square;fill:none"/>
<circle cx="10.299548" cy="42.511875" r="2.25" stroke="#191919" stroke-width="0.7 px" style="stroke-width:0.7;stroke-miterlimit:4;stroke-dasharray:none;stroke-linecap:square;fill:none"/>
<path id="Body005_cs_w0015"  d="M 17.79354 78.465759 L 17.79354 69.465759 L 0.29354000000000013 69.465759 L 0.29354000000000013 78.465759 L 17.79354 78.465759 " stroke="#191919" stroke-width="0.7 px" style="stroke-width:0.7;stroke-miterlimit:4;stroke-dasharray:none;stroke-linecap:square;fill:none;fill-opacity:1;fill-rule: evenodd"/>
<circle cx="-2.138672" cy="93.863413" r="1.7" stroke="#191919" stroke-width="0.7 px" style="stroke-width:0.7;stroke-miterlimit:4;stroke-dasharray:none;stroke-linecap:square;fill:none"/>
<circle cx="9.877041" cy="83.811241" r="2.25" stroke="#191919" stroke-width="0.7 px" style="stroke-width:0.7;stroke-miterlimit:4;stroke-dasharray:none;stroke-linecap:square;fill:none"/>
<title>b'CrossSection-Panel-MasterArm-Middle'</title>
</g>
</svg>