<?xml version="1.0"?>
<!DOCTYPE svg PUBLIC "-//W3C//DTD SVG 1.1//EN" "http://www.w3.org/Graphics/SVG/1.1/DTD/svg11.dtd">
<svg width="34.68623624265101mm" height="62.78385505125445mm" viewBox="0 0 34.68623624265101 62.78385505125445" xmlns="http://www.w3.org/2000/svg" version="1.1">
<g id="Shape036" transform="translate(17.328275,30.157504) scale(1,-1)">
<path id="Shape036_w0000"  d="M 2.5177814214141634 -30.906432190431545 L 2.517582269809493 -31.073041717854203 L 2.517402992611215 -31.23965282331988 L -2.4830058211037027 -31.240102994394512 L -2.483216482447242 -31.07349381712939 L -2.4834477171933838 -30.906886283332064 L -2.4832179456065937 -30.74033485599975 L 2.5175286961103325 -30.73987756797228 L 2.5177814214141634 -30.906432190431545 " stroke="#191919" stroke-width="0.7 px" style="stroke-width:0.7;stroke-miterlimit:4;stroke-dasharray:none;stroke-linecap:square;fill:none;fill-opacity:1;fill-rule: evenodd"/>
<title>b'Shape036'</title>
</g>
<g id="Shape014" transform="translate(17.328275,30.157504) scale(1,-1)">
<path id="Shape014_w0000"  d="M 5.772960402090625 -15.905089726418574 L 5.166478158664803 -15.905138429487637 L 5.118785297595093 -15.917535565294404 L 5.0869782436879 -15.93487994986323 L 5.063250647208255 -15.956880261942302 L 5.0451952377595815 -15.984608285947264 L 5.034465004395525 -16.012335426898336 L 5.027830561422717 -16.04399065027146 L 5.027883361636968 -16.619190423455905 L 5.027940180723478 -17.194389157062233 L 5.027989936487668 -17.76959363242007 L 5.037062295788514 -17.806667621212256 L 5.051878178377908 -17.838041518128694 L 5.0723962649595435 -17.863600352174444 L 5.09850005227419 -17.883307605558418 L 5.130004627003933 -17.89720675933468 L 5.166667624469066 -17.905412484515036 L 5.689185936676474 -17.905378014607003 L 5.824958314845662 -17.885577668755 L 5.948276144762103 -17.844110341210026 L 6.057550157974457 -17.779852830512784 L 6.145614237961013 -17.70162688963678 L 6.215699134352555 -17.611204892857078 L 6.266600547529338 -17.50870093209921 L 6.2922789190794814 -17.418663495292645 L 6.300903516866261 -17.360758000381143 L 6.303798073906303 -17.301653018254214 L 6.289224246857038 -17.164946435941335 L 6.251101235555331 -17.04335683030751 L 6.188032684014992 -16.929230494799768 L 6.101953521395433 -16.82313408205266 L 6.181221550191083 -16.736057874569738 L 6.239193675921072 -16.64154716072941 L 6.274566141679102 -16.540056765347067 L 6.289043163716116 -16.42093334291588 L 6.289034009607304 -16.41409716346991 L 6.283341976698256 -16.34037900716262 L 6.274107572825154 -16.29529425500474 L 6.260519928194807 -16.250996918759114 L 6.218766018263668 -16.163465799078352 L 6.15998185941713 -16.085592892406343 L 6.08500368889258 -16.01748376618024 L 5.992695097410368 -15.961317364986357 L 5.888341440642849 -15.92407524873887 L 5.772960402090625 -15.905089726418574 " stroke="#191919" stroke-width="0.7 px" style="stroke-width:0.7;stroke-miterlimit:4;stroke-dasharray:none;stroke-linecap:square;fill:none;fill-opacity:1;fill-rule: evenodd"/>
<title>b'Shape014'</title>
</g>
<g id="Shape029" transform="translate(17.328275,30.157504) scale(1,-1)">
<path id="Shape029_w0000"  d="M 5.7739793743016 -26.371268191834737 L 5.1674793483876265 -26.371323111774792 L 5.1197845158375035 -26.383720158237516 L 5.087975621466372 -26.40106462881747 L 5.064246143375216 -26.423065388016106 L 5.046188771044099 -26.450793770422315 L 5.0354568347352 -26.478522879365407 L 5.028821488165162 -26.51017994045271 L 5.02891006143861 -27.085414088759393 L 5.029013147364076 -27.66064914323365 L 5.029093481945388 -28.23589796160695 L 5.038169460402587 -28.27297475482504 L 5.052988448976636 -28.30434880986268 L 5.073509722491302 -28.329907295610568 L 5.099615231559893 -28.34961518314146 L 5.131121424146201 -28.363514062908912 L 5.167785491892229 -28.37171912426995 L 5.6903057842490234 -28.37167883108467 L 5.826063040032924 -28.351876028090324 L 5.949347598464257 -28.31040551277806 L 6.058567400407064 -28.24614334928676 L 6.14667784447089 -28.167946855970552 L 6.216819418911333 -28.07755938298373 L 6.26779064703212 -27.97509492927307 L 6.293535662435341 -27.885092814470593 L 6.302205720464515 -27.827211127131974 L 6.305028478053929 -27.76810615292905 L 6.2902869589809605 -27.63139914923682 L 6.252013157478643 -27.50980767872879 L 6.188802098800922 -27.39568065680363 L 6.102594665552141 -27.289683478684267 L 6.181745515916921 -27.202499138402054 L 6.239837844479995 -27.107952017479086 L 6.275333753025315 -27.00641808411741 L 6.289942876063016 -26.887242981960746 L 6.289940814138459 -26.88040471062158 L 6.284321393215693 -26.806654671241454 L 6.275127894109962 -26.76155146872472 L 6.261577711017356 -26.717235310869377 L 6.219889603884457 -26.629670014053143 L 6.161080993450437 -26.55178714549202 L 6.086077164377926 -26.4836710717787 L 5.993744152822469 -26.427499379706386 L 5.889371972317548 -26.390253532630368 L 5.7739793743016 -26.371268191834737 " stroke="#191919" stroke-width="0.7 px" style="stroke-width:0.7;stroke-miterlimit:4;stroke-dasharray:none;stroke-linecap:square;fill:none;fill-opacity:1;fill-rule: evenodd"/>
<title>b'Shape029'</title>
</g>
<g id="Shape004" transform="translate(17.328275,30.157504) scale(1,-1)">
<path id="Shape004_w0000"  d="M 2.515105287541872 -6.312415710237238 L -2.4853973037927806 -6.3128364572724225 L -2.4853738200549347 -6.479489852963284 L -2.4853556907227965 -6.646143429126027 L -2.48534260663975 -6.812797092304615 L 2.5151334937517578 -6.812376418711716 L 2.5151189175291626 -6.645722731519575 L 2.5151094124687137 -6.479069130801039 L 2.515105287541872 -6.312415710237238 " stroke="#191919" stroke-width="0.7 px" style="stroke-width:0.7;stroke-miterlimit:4;stroke-dasharray:none;stroke-linecap:square;fill:none;fill-opacity:1;fill-rule: evenodd"/>
<title>b'Shape004'</title>
</g>
<g id="Shape018" transform="translate(17.328275,30.157504) scale(1,-1)">
<path id="Shape018_w0000"  d="M -5.688912395633096 -15.908516593401897 L -5.630052671263199 -15.919172118276753 L -5.535753880526404 -15.950912412904547 L -5.433700728559643 -16.003164314378004 L -5.343600573772566 -16.06824592482871 L -5.266245406956105 -16.1463935814308 L -5.261362552296254 -16.15323312931002 L -5.2511818101820555 -16.167883732828802 L -5.243250255284069 -16.182201460396037 L -5.235589100490076 -16.203044587147538 L -5.2330294472124095 -16.223115364568482 L -5.233789989914121 -16.240709200698806 L -5.236057710209797 -16.257181081267966 L -5.242821882666965 -16.281195907708057 L -5.250712033059826 -16.299144582129003 L -5.260191904160907 -16.315191478734565 L -5.279041519399358 -16.337258299094863 L -5.304881621636008 -16.355813725863282 L -5.339545329669906 -16.369094058648603 L -5.356881062001085 -16.372757345266574 L -5.373730169373674 -16.373978279274855 L -5.39391947105767 -16.37230310170641 L -5.413653631108156 -16.367272648470525 L -5.444945183634385 -16.35181428891705 L -5.478230158490054 -16.324149331391048 L -5.528414092079337 -16.271251144831446 L -5.578546497444593 -16.229670833323837 L -5.626549138889127 -16.20087395374063 L -5.674219619151003 -16.18341852644839 L -5.721407423844646 -16.17756572388325 L -5.730196617015449 -16.177566049213123 L -5.807960008215636 -16.191207555856312 L -5.88032094903007 -16.22445436456798 L -5.946995254457066 -16.277261971494216 L -5.997732322790148 -16.333519251852596 L -6.043479401607948 -16.397921280923075 L -6.106184502340008 -16.5176167786877 L -6.156252873550552 -16.650540026324403 L -6.180916561247509 -16.760809753344503 L -6.1921158375863055 -16.892641441634108 L -6.192116122134641 -16.906311674848506 L -6.192116450771925 -16.91998321100247 L -6.192116820235555 -16.933654030798 L -6.181050234489567 -17.081456911537853 L -6.147702230386393 -17.220465404624246 L -6.092458791926473 -17.349637457911538 L -6.035572122337822 -17.442383945083723 L -5.971804583684856 -17.518663590442358 L -5.888446588795771 -17.58608252803774 L -5.796507007654404 -17.628964854718408 L -5.76135110375244 -17.63702082605483 L -5.726192049245597 -17.639703966145877 L -5.695970310998716 -17.637674563315286 L -5.665968823405996 -17.631596634832743 L -5.604280471183937 -17.60600631790301 L -5.524386365197325 -17.545582734240277 L -5.4303036671494835 -17.432577325900343 L -5.416992468255687 -17.418785217042178 L -5.403452218581126 -17.406980837973496 L -5.378604126430751 -17.390818067016163 L -5.353042702201978 -17.38110956859532 L -5.3267851803954365 -17.377870692064562 L -5.31072761992858 -17.378985007336695 L -5.294512934385199 -17.3823278472833 L -5.261623911564809 -17.395685054551635 L -5.2281395813730285 -17.417892704651866 L -5.211635330751005 -17.432031429769378 L -5.19818006648582 -17.446440130051204 L -5.185524219564566 -17.465148135951306 L -5.1779074397324685 -17.484268537485704 L -5.17535954172765 -17.50378397279035 L -5.176480790565742 -17.519421267852504 L -5.179837422457624 -17.535647909635927 L -5.193222778865046 -17.56983926108419 L -5.2154166579539005 -17.60629211322736 L -5.224205401963869 -17.6189874744349 L -5.3246569636276915 -17.729768715028282 L -5.4423930574371795 -17.815602159896237 L -5.575708913009251 -17.876932219984567 L -5.671648433392379 -17.901168046719526 L -5.77492933150525 -17.90920213301829 L -5.836055597079414 -17.90447627402108 L -5.8990674271573535 -17.890364622296797 L -6.0035699375597495 -17.848646844459893 L -6.150420855301354 -17.74994350424962 L -6.271322383036113 -17.611386108171857 L -6.3633185494435125 -17.434469512874543 L -6.411306651440725 -17.292071573400907 L -6.444386533715743 -17.145781131901007 L -6.4653339560084095 -16.90519503601475 L -6.4462141756899785 -16.67163319186291 L -6.389422597181519 -16.452031174205867 L -6.296629866147764 -16.250009414159383 L -6.229615712943936 -16.15055200583147 L -6.151581242629238 -16.067576569153136 L -6.0157980287095585 -15.974715623492724 L -5.8609589156918425 -15.918660490500066 L -5.747670932274689 -15.904963014478025 L -5.688912395633096 -15.908516593401897 " stroke="#191919" stroke-width="0.7 px" style="stroke-width:0.7;stroke-miterlimit:4;stroke-dasharray:none;stroke-linecap:square;fill:none;fill-opacity:1;fill-rule: evenodd"/>
<title>b'Shape018'</title>
</g>
<g id="Shape013" transform="translate(17.328275,30.157504) scale(1,-1)">
<path id="Shape013_w0000"  d="M 13.016509388112304 -15.035411642934122 L -12.98540225445055 -15.037383490804975 L -12.985160881115998 -15.204062746245151 L -12.984984734677079 -15.370745657369673 L -12.984872730414754 -15.537429484361228 L 13.016536608489716 -15.53553849733444 L 13.016487929952179 -15.368828802472866 L 13.016478860966904 -15.202119313033233 L 13.016509388112304 -15.035411642934122 " stroke="#191919" stroke-width="0.7 px" style="stroke-width:0.7;stroke-miterlimit:4;stroke-dasharray:none;stroke-linecap:square;fill:none;fill-opacity:1;fill-rule: evenodd"/>
<title>b'Shape013'</title>
</g>
<g id="Shape026" transform="translate(17.328275,30.157504) scale(1,-1)">
<path id="Shape026_w0000"  d="M -6.984598326498189 -22.01662268387243 L -12.984804231810175 -22.017095548969976 L -12.985029502208835 -22.183721513341304 L -12.985279328113167 -22.350342773743268 L -12.985557864636634 -22.51695894312463 L -6.984629996857007 -22.516373563207015 L -6.984669355617713 -22.3497888471489 L -6.984658829429058 -22.1832075793305 L -6.984598326498189 -22.01662268387243 " stroke="#191919" stroke-width="0.7 px" style="stroke-width:0.7;stroke-miterlimit:4;stroke-dasharray:none;stroke-linecap:square;fill:none;fill-opacity:1;fill-rule: evenodd"/>
<title>b'Shape026'</title>
</g>
<g id="Shape033" transform="translate(17.328275,30.157504) scale(1,-1)">
<path id="Shape033_w0000"  d="M -5.688132427730329 -26.37483654335946 L -5.6292707638793535 -26.385491736033586 L -5.5349676629958475 -26.417229799812162 L -5.432908717388665 -26.469481351040788 L -5.342803027863119 -26.534564853901674 L -5.265441818795762 -26.61271404720843 L -5.260558666955477 -26.619553957443753 L -5.250377495515012 -26.63420586639448 L -5.24244573130363 -26.648524467913603 L -5.234784568137015 -26.669369259618453 L -5.232225037743701 -26.689441876553794 L -5.232984321211865 -26.707037435124914 L -5.235250787072806 -26.723510788313696 L -5.242012946471308 -26.747528395157875 L -5.249901526064701 -26.765478712471737 L -5.259379980566832 -26.781527486913667 L -5.278227668690863 -26.803596864860722 L -5.304066168604126 -26.82215475888351 L -5.338728585906743 -26.835435620867376 L -5.356063847734827 -26.83909918694996 L -5.372912547633382 -26.840320546992572 L -5.393101712951812 -26.838645780630408 L -5.412835745422801 -26.83361623090829 L -5.444127114478139 -26.818157254475793 L -5.477411962035728 -26.790492819235695 L -5.527595840342594 -26.73759377176529 L -5.577728269378304 -26.69601323486865 L -5.625730466126244 -26.667217158108794 L -5.673401418139898 -26.64976169871109 L -5.720589149255939 -26.643909080528104 L -5.729378320819007 -26.64390947821115 L -5.807141386052808 -26.657551538199105 L -5.879501779322827 -26.690800362784948 L -5.946175235625439 -26.743608298286258 L -5.996911311505174 -26.79986684912031 L -6.042657105501458 -26.86426986012915 L -6.105359449716092 -26.983967021333505 L -6.15542687258661 -27.11689308849586 L -6.180089241239758 -27.227164535987363 L -6.1912863304554575 -27.358998479027722 L -6.19128635089441 -27.372669758782507 L -6.191286404546787 -27.3863408219444 L -6.191286492828715 -27.40001217958494 L -6.180216339049174 -27.547816980211973 L -6.146869831173471 -27.686828301888376 L -6.091629722718727 -27.816000994906602 L -6.034744933304626 -27.908748908740264 L -5.970978579187009 -27.98502902660245 L -5.887621434936061 -28.05244779571096 L -5.795682374855554 -28.09533032022209 L -5.760526602668856 -28.103386852368352 L -5.7253676584041 -28.10606947173535 L -5.69514600462565 -28.10404023123929 L -5.66514459794606 -28.097961583329575 L -5.6034564349398135 -28.072372681580493 L -5.523562735503066 -28.01194884132363 L -5.429481175572791 -27.89894389063082 L -5.416170187781862 -27.885150821279915 L -5.402630143675028 -27.873346861921128 L -5.37778244023487 -27.85718431443998 L -5.352221371731887 -27.847475600359758 L -5.325964160049588 -27.844236898329395 L -5.309906838979296 -27.8453508353203 L -5.293692310285055 -27.848694057362422 L -5.260803547708663 -27.862052052560813 L -5.22731999040037 -27.884261037890962 L -5.210816602553646 -27.89840125447022 L -5.19736241359807 -27.912811977740017 L -5.1847080846014775 -27.93152236002891 L -5.177092719403882 -27.950644554846786 L -5.174545925888602 -27.970162225056313 L -5.175666311087596 -27.985801923155833 L -5.179021910791112 -28.002030242913897 L -5.192405131575217 -28.0362250199123 L -5.214597669643793 -28.072681861261845 L -5.223386344350973 -28.085378192560235 L -5.323845067895692 -28.196163315863878 L -5.441589245122521 -28.281999067777107 L -5.5749139408737145 -28.34332844711995 L -5.670858810864882 -28.36756507314908 L -5.7741440455857616 -28.375599134747986 L -5.835264416534616 -28.370873444894354 L -5.898260671477554 -28.35676245585941 L -6.002717649393944 -28.315043878036064 L -6.149458865638186 -28.2163381129161 L -6.270419979483003 -28.077839785352026 L -6.3625102010692185 -27.90099928139764 L -6.410593951061644 -27.75866679253344 L -6.443483311872803 -27.61237896933122 L -6.464110553662783 -27.37179178287989 L -6.445269146011324 -27.13813027251618 L -6.388682132744382 -26.918443120014768 L -6.296027694751793 -26.716349460349203 L -6.228968895669126 -26.616888066422177 L -6.150894247730201 -26.533907567678355 L -6.015062963358467 -26.44104194170548 L -5.860190914887155 -26.384982882845406 L -5.746892318788951 -26.37128366301396 L -5.688132427730329 -26.37483654335946 " stroke="#191919" stroke-width="0.7 px" style="stroke-width:0.7;stroke-miterlimit:4;stroke-dasharray:none;stroke-linecap:square;fill:none;fill-opacity:1;fill-rule: evenodd"/>
<title>b'Shape033'</title>
</g>
<g id="Shape010" transform="translate(17.328275,30.157504) scale(1,-1)">
<path id="Shape010_w0000"  d="M 2.5156870377860363 -11.713261238564606 L 2.5158160668561536 -11.879754878725526 L 2.515687946602867 -12.046273029834744 L -2.484844935926162 -12.046738832203173 L -2.484790107780385 -11.880269941427677 L -2.4848833447738046 -11.713786291938058 L -2.4849837418169094 -11.547237177016484 L 2.5156989623248496 -11.546787736916011 L 2.5156870377860363 -11.713261238564606 " stroke="#191919" stroke-width="0.7 px" style="stroke-width:0.7;stroke-miterlimit:4;stroke-dasharray:none;stroke-linecap:square;fill:none;fill-opacity:1;fill-rule: evenodd"/>
<title>b'Shape010'</title>
</g>
<g id="Shape035" transform="translate(17.328275,30.157504) scale(1,-1)">
<path id="Shape035_w0000"  d="M 13.018198883527798 -28.994249347712767 L -12.9841958717792 -28.996521985795344 L -12.98412685367748 -29.163226818367104 L -12.984106081525063 -29.329935634127057 L -12.984133595374043 -29.496645784058682 L 13.018224734512835 -29.494371720631552 L 13.01816857421545 -29.327662089981843 L 13.018159969428247 -29.16095375962 L 13.018198883527798 -28.994249347712767 " stroke="#191919" stroke-width="0.7 px" style="stroke-width:0.7;stroke-miterlimit:4;stroke-dasharray:none;stroke-linecap:square;fill:none;fill-opacity:1;fill-rule: evenodd"/>
<title>b'Shape035'</title>
</g>
<g id="Shape016" transform="translate(17.328275,30.157504) scale(1,-1)">
<path id="Shape016_w0000"  d="M -3.1812673998611336 -15.907287695686566 L -3.1596743848965563 -15.911925118848165 L -3.1349557926911675 -15.922512029036184 L -3.1137168148352954 -15.938368986434863 L -3.0962106139479806 -15.959268379226103 L -3.0822600046992266 -15.98530126271711 L -3.066162976329048 -16.04460185180613 L -3.066212865289561 -16.620243208975708 L -3.0663900111689832 -17.195787788819086 L -3.066070309025899 -17.77118704376356 L -3.073868727258782 -17.806573465215045 L -3.0853946623047417 -17.836814911987382 L -3.1001474781195135 -17.861102084709174 L -3.118391562047525 -17.88033772717377 L -3.14006400982098 -17.894494977782127 L -3.168048367534582 -17.904302558477667 L -3.2037568865338235 -17.908016163911547 L -3.2047335037083844 -17.90801624275027 L -3.228924000716545 -17.906423399439138 L -3.2510332562383777 -17.90159289745668 L -3.275588260260119 -17.89093991473277 L -3.2966578543983074 -17.875094513471257 L -3.3136426621691832 -17.854804270717594 L -3.327230596028942 -17.82968054950815 L -3.3433043356677628 -17.77124424452989 L -3.343474495422539 -17.19580924564027 L -3.3434894961743096 -16.62022798803759 L -3.3434779806510297 -16.04461765124549 L -3.3356876351479414 -16.00872685778175 L -3.3241704938113 -15.978042648231451 L -3.3094246201311543 -15.953392820802005 L -3.291184518871737 -15.933865068853747 L -3.269511861129666 -15.919489421651377 L -3.2415222206433585 -15.90952946718484 L -3.2058025724284596 -15.905757754996124 L -3.204825957716487 -15.905757684478779 L -3.1812673998611336 -15.907287695686566 " stroke="#191919" stroke-width="0.7 px" style="stroke-width:0.7;stroke-miterlimit:4;stroke-dasharray:none;stroke-linecap:square;fill:none;fill-opacity:1;fill-rule: evenodd"/>
<title>b'Shape016'</title>
</g>
<g id="Shape" transform="translate(17.328275,30.157504) scale(1,-1)">
<path id="Shape_w0000"  d="M 17.01192799796724 29.81744275098853 L 17.012148649597467 27.222117045131508 L 17.01237587817377 24.6267917780934 L 17.01261048530378 22.031467861317502 L 17.01285393322935 19.436145658224163 L 17.01310847553819 16.840826996935775 L 17.013377358916767 14.245514792471713 L 17.013665114239636 11.65020874864901 L 17.013977961360027 9.054912506401852 L 17.014325837793134 6.459649094961223 L 17.01381081089444 3.863971484300044 L 17.013757571322614 1.2682839928488079 L 17.013969809773258 -1.3274643900778962 L 17.01419000823625 -4.14071033780643 L 17.015553635011074 -6.955059522018281 L 17.015977240861965 -9.769493081918121 L 17.015448989753374 -12.584050020132713 L 17.01507991417957 -15.397999030147702 L 17.0159616877717 -18.21194690666926 L 17.017077246258943 -21.026297998051685 L 17.01777575774628 -23.84078626311048 L 17.017238636004908 -26.65520578361961 L 17.016682185680004 -29.469252878712766 L 17.01789991037098 -32.28331639308347 L -16.98332038943217 -32.28629002099825 L -16.982574093319943 -29.472208469814525 L -16.9835723632309 -26.658139522804774 L -16.98464292551921 -23.84366038679258 L -16.98439388113044 -21.029133096747504 L -16.983724102401197 -18.21467634282295 L -16.983759705663577 -15.401049166734557 L -16.984855039624353 -12.586779719399393 L -16.985894882345587 -9.772228479288398 L -16.985745566395448 -6.957871067215857 L -16.984847022313893 -4.14352227231101 L -16.98510485407555 -1.330277945522556 L -16.985258202823072 1.2654760623924215 L -16.985823097728385 3.8611745373793607 L -16.986718763541322 6.456826631484436 L -16.98680027875322 9.052109374039892 L -16.986916443950918 11.647391375335062 L -16.9870595929655 14.24268694860725 L -16.987222999898577 16.837991515711195 L -16.987401752692445 19.433304689161602 L -16.987592312921834 22.028623062686854 L -16.987792199291388 24.623944465340546 L -16.987999765560524 27.219268308630873 L -16.98821405301237 29.814593553656785 L 17.01192799796724 29.81744275098853 " stroke="#191919" stroke-width="0.7 px" style="stroke-width:0.7;stroke-miterlimit:4;stroke-dasharray:none;stroke-linecap:square;fill:none;fill-opacity:1;fill-rule: evenodd"/>
<title>b'Shape'</title>
</g>
<g id="Shape001" transform="translate(17.328275,30.157504) scale(1,-1)">
<path id="Shape001_w0000"  d="M 0.13361919790661547 2.8848441797177773 L -0.3281502230412856 2.8635687507010874 L -0.7829553827318835 2.7540866919059668 L -1.2206151640111829 2.5535598141732727 L -1.6275599186009782 2.2572707331635087 L -1.989020113606713 1.853149457231487 L -2.269559799286018 1.3424730984182194 L -2.427570740174957 0.7474322139879229 L -2.430472687696035 0.10787599137033455 L -2.2762035849777518 -0.49145310596173963 L -2.035248687584744 -0.951485300568319 L -1.7271805460474048 -1.3280141851769804 L -1.2309784705950124 -1.7128214685514118 L -0.6866422496483047 -1.9503234356274963 L -0.11935113004740228 -2.04924302389402 L 0.45208141365122667 -2.0133938298714176 L 1.0097312795574465 -1.8413933998521907 L 1.3980360753591325 -1.6249549950726636 L 1.7560829132426052 -1.3277141325924025 L 2.125009964404238 -0.8548927177628611 L 2.364007796001453 -0.3250282849244318 L 2.4492272350990505 0.038227198259146666 L 2.4784249779457452 0.4173967603564087 L 2.3973507294385312 1.043791834026709 L 2.175386801810626 1.6015925421961779 L 1.8499946439249402 2.06282302881816 L 1.4642348420440543 2.4129459094079655 L 1.0404086839126352 2.662256052093081 L 0.5929635938984945 2.8182568469764546 L 0.13361919790661547 2.8848441797177773 " stroke="#191919" stroke-width="0.7 px" style="stroke-width:0.7;stroke-miterlimit:4;stroke-dasharray:none;stroke-linecap:square;fill:none;fill-opacity:1;fill-rule: evenodd"/>
<title>b'Shape001'</title>
</g>
<g id="Shape002" transform="translate(17.328275,30.157504) scale(1,-1)">
<path id="Shape002_w0000"  d="M 2.5147758436232768 -2.822749258031884 L -2.4856369618075567 -2.823180827223184 L -2.485578271084745 -2.9898337066187786 L -2.485532021092785 -3.156487268633079 L -2.4854973939963876 -3.3231415328915603 L 2.514718797892457 -3.322712645032104 L 2.5147262080206643 -3.1560575089910743 L 2.514744950098475 -2.989403054393211 L 2.5147758436232768 -2.822749258031884 " stroke="#191919" stroke-width="0.7 px" style="stroke-width:0.7;stroke-miterlimit:4;stroke-dasharray:none;stroke-linecap:square;fill:none;fill-opacity:1;fill-rule: evenodd"/>
<title>b'Shape002'</title>
</g>
<g id="Shape003" transform="translate(17.328275,30.157504) scale(1,-1)">
<path id="Shape003_w0000"  d="M 13.01481062369476 -4.5667732503498915 L -12.985390526529184 -4.568927615468402 L -12.98564184498723 -4.735554923692919 L -12.985954983133123 -4.902173077836817 L -12.986331577422616 -5.068778985518825 L 13.015831083235819 -5.066625919839724 L 13.015428151109992 -4.900019552187461 L 13.015088529275094 -4.73340096937644 L 13.01481062369476 -4.5667732503498915 " stroke="#191919" stroke-width="0.7 px" style="stroke-width:0.7;stroke-miterlimit:4;stroke-dasharray:none;stroke-linecap:square;fill:none;fill-opacity:1;fill-rule: evenodd"/>
<title>b'Shape003'</title>
</g>
<g id="Shape019" transform="translate(17.328275,30.157504) scale(1,-1)">
<path id="Shape019_w0000"  d="M 2.516029603974115 -16.781423262349527 L 2.5159516439504177 -16.948019529833815 L 2.5161712803084857 -17.114505528900132 L 2.516096719319221 -17.281043836919892 L -2.484235805119729 -17.281421016209457 L -2.484190787631742 -17.114875292498986 L -2.484235395749555 -16.94833838366064 L -2.4843260776309517 -16.78181922156594 L 2.516029603974115 -16.781423262349527 " stroke="#191919" stroke-width="0.7 px" style="stroke-width:0.7;stroke-miterlimit:4;stroke-dasharray:none;stroke-linecap:square;fill:none;fill-opacity:1;fill-rule: evenodd"/>
<title>b'Shape019'</title>
</g>
<g id="Shape005" transform="translate(17.328275,30.157504) scale(1,-1)">
<path id="Shape005_w0000"  d="M 13.01600487915296 -8.056442783505835 L -12.986006720077684 -8.058595001074378 L -12.986386414920599 -8.225138391429525 L -12.986824940208017 -8.39166658414648 L -12.986356328555612 -8.558182653604632 L 13.0164516996323 -8.556036450868802 L 13.01688935863052 -8.38951137378528 L 13.01641757905305 -8.222984716234514 L 13.01600487915296 -8.056442783505835 " stroke="#191919" stroke-width="0.7 px" style="stroke-width:0.7;stroke-miterlimit:4;stroke-dasharray:none;stroke-linecap:square;fill:none;fill-opacity:1;fill-rule: evenodd"/>
<title>b'Shape005'</title>
</g>
<g id="Shape006" transform="translate(17.328275,30.157504) scale(1,-1)">
<path id="Shape006_w0000"  d="M 4.014309927237796 -10.037382364641307 L 3.9313914466637523 -10.033497229158474 L 3.727113663241211 -10.056836868170874 L 3.554127628477619 -10.122094884297283 L 3.411998451522906 -10.22001413790446 L 3.2866578266596025 -10.354751098340067 L 3.215513479627534 -10.460378241384056 L 3.152820734247656 -10.578461296040546 L 3.0106925846547434 -10.95062466542275 L 2.924191528567725 -11.351644985242343 L 2.896072462714489 -11.771743142453387 L 2.8960766790842642 -11.785401370819976 L 2.9503969660727867 -12.347326237133306 L 3.0376100714850054 -12.67893278021958 L 3.1632734867926953 -12.988776310071033 L 3.326960579462816 -13.247175073338102 L 3.417497621964892 -13.340585794049325 L 3.5819639641149497 -13.453285470204474 L 3.7619036133591157 -13.51715240277427 L 3.9522250100258347 -13.537030323613811 L 4.128988215664719 -13.516109317321856 L 4.296806875535025 -13.451938869788336 L 4.404576319046701 -13.383096897030278 L 4.48111089202357 -13.318728198507152 L 4.553867678274762 -13.243884527034975 L 4.7687560239382005 -12.9315700757007 L 4.91647069467995 -12.551689146997308 L 4.984987467554829 -12.190223604951388 L 5.005915747813718 -11.80911012444481 L 5.005913396987488 -11.802847185477457 L 5.005911069706745 -11.796584375079888 L 5.005911104493885 -11.79032181118507 L 4.977855411190939 -11.402623495254698 L 4.8936301791150045 -10.999243020668114 L 4.776269524007565 -10.700354392038236 L 4.675550925942684 -10.522544066092294 L 4.556931739346924 -10.352327346478521 L 4.395291570338759 -10.187111190796038 L 4.245718148964831 -10.09725170263811 L 4.095343460714611 -10.049382387638584 L 4.014309927237796 -10.037382364641307 " stroke="#191919" stroke-width="0.7 px" style="stroke-width:0.7;stroke-miterlimit:4;stroke-dasharray:none;stroke-linecap:square;fill:none;fill-opacity:1;fill-rule: evenodd"/>
<title>b'Shape006'</title>
</g>
<g id="Shape007" transform="translate(17.328275,30.157504) scale(1,-1)">
<path id="Shape007_w0000"  d="M 2.5154386712974675 -9.80181949333343 L -2.485173432933295 -9.802235533060339 L -2.4850811249573765 -9.968866450239434 L -2.4850391938210334 -10.135496109000197 L -2.485062210000511 -10.30211985246919 L 2.515550862249036 -10.30166758987223 L 2.5154782845527 -10.135056762977609 L 2.515439306459973 -9.96843917000005 L 2.5154386712974675 -9.80181949333343 " stroke="#191919" stroke-width="0.7 px" style="stroke-width:0.7;stroke-miterlimit:4;stroke-dasharray:none;stroke-linecap:square;fill:none;fill-opacity:1;fill-rule: evenodd"/>
<title>b'Shape007'</title>
</g>
<g id="Shape008" transform="translate(17.328275,30.157504) scale(1,-1)">
<path id="Shape008_w0000"  d="M 13.016846248663256 -11.545832258318192 L 7.0161804684670965 -11.546394437978186 L 7.016300974292866 -11.712924817286119 L 7.016291009893678 -11.879460297465432 L 7.016151858454599 -12.045991439878197 L 13.016007170957877 -12.045804039539949 L 13.01628024496041 -11.879145203845287 L 13.016558413126143 -11.71248788745227 L 13.016846248663256 -11.545832258318192 " stroke="#191919" stroke-width="0.7 px" style="stroke-width:0.7;stroke-miterlimit:4;stroke-dasharray:none;stroke-linecap:square;fill:none;fill-opacity:1;fill-rule: evenodd"/>
<title>b'Shape008'</title>
</g>
<g id="Shape009" transform="translate(17.328275,30.157504) scale(1,-1)">
<path id="Shape009_w0000"  d="M -3.7401218622827157 -10.029099580400667 L -3.7897060354534062 -10.03463635922544 L -3.8381449181840095 -10.051236266444237 L -3.8853877855156487 -10.078857239839143 L -3.8939324515479257 -10.084860215206994 L -3.8982049062260877 -10.087862942850176 L -3.9024776009836883 -10.090864806799848 L -4.519443205784856 -10.667433390839221 L -4.762530201087579 -11.003407274636182 L -4.968475087601537 -11.393152572816893 L -5.094690465531508 -11.719433992243246 L -5.159710570145863 -11.946590813219743 L -5.20611280503123 -12.177208998202595 L -5.207836348589499 -12.187459656288112 L -5.208698228408364 -12.192584156344683 L -5.209560184300717 -12.19770980270598 L -5.225263435694344 -12.38735597818753 L -5.20267361925937 -12.614897885896678 L -5.136142665529256 -12.83285722497144 L -5.030397905002408 -13.03739627136413 L -4.870105346347454 -13.238726388845084 L -4.677340745426411 -13.385436702448123 L -4.4936513142555565 -13.46856555977357 L -4.297157890328727 -13.517100146760942 L -4.0766586199565324 -13.535933757524731 L -3.792201980224071 -13.500787558223964 L -3.548947644593345 -13.405262747652522 L -3.362551732314456 -13.280175098955382 L -3.280208656583907 -13.2074695163067 L -3.20144872125843 -13.126303013904444 L -3.1115407681983647 -13.007844020371671 L -3.065381025904099 -12.925546466381434 L -3.0271037324360504 -12.837018944100588 L -2.9399645644327608 -12.508619393922821 L -2.927146096361091 -12.502633832351219 L -2.9207368602311203 -12.499640647918705 L -2.914327622694437 -12.49664827212838 L -2.9245841204865157 -12.477842530683924 L -2.929712472028055 -12.468438845649889 L -2.9348410508130023 -12.4590365663597 L -2.9331351878901097 -12.418006157962783 L -2.93228218116111 -12.397492652538057 L -2.931429124706179 -12.376976624602154 L -2.975798332099378 -12.099075734637122 L -3.0242902583019498 -11.947901312663754 L -3.089084728692728 -11.816768105041309 L -3.228659442163325 -11.622780405521272 L -3.390619114410153 -11.470673120905108 L -3.5725745579319703 -11.362376080144239 L -3.7658392369916074 -11.290321378313921 L -3.9502991661316456 -11.256455985009488 L -4.05454820424966 -11.251349018734246 L -4.080183003856448 -11.251354493671027 L -4.33994407994736 -11.273634179422638 L -4.345925344057734 -11.274490649428648 L -4.348915975971712 -11.27491888447254 L -4.3519066077094966 -11.275347119591252 L -4.357887686748654 -11.277057032872264 L -4.360878225918884 -11.277912864399356 L -4.363868765353244 -11.278767857728711 L -4.35874364559212 -11.27021919162265 L -4.356181087034051 -11.26594444115663 L -4.353618521958037 -11.261670603417562 L -4.349347703372875 -11.253975784674155 L -4.347212294485037 -11.2501288644009 L -4.345076885953584 -11.246281944124442 L -4.302366226219874 -11.181303824213465 L -4.165632237042575 -10.98882020855529 L -3.987941046499653 -10.798158401228074 L -3.6085115670249372 -10.474628980734783 L -3.579061913452575 -10.451532168408015 L -3.5589627259992787 -10.43010258904138 L -3.524978516684059 -10.376970843754883 L -3.504376073404334 -10.326081798374165 L -3.499197388462644 -10.30154379992319 L -3.497468653601131 -10.277644527021707 L -3.5028878155367797 -10.232418039606465 L -3.5190899163835017 -10.188060438702188 L -3.5412610397869155 -10.151050962282888 L -3.570944036535674 -10.11482709789561 L -3.6245289554550144 -10.06730316948018 L -3.6752048420643195 -10.040660249511543 L -3.707267145149216 -10.031986369829404 L -3.7401218622827157 -10.029099580400667 " stroke="#191919" stroke-width="0.7 px" style="stroke-width:0.7;stroke-miterlimit:4;stroke-dasharray:none;stroke-linecap:square;fill:none;fill-opacity:1;fill-rule: evenodd"/>
<title>b'Shape009'</title>
</g>
<g id="Shape034" transform="translate(17.328275,30.157504) scale(1,-1)">
<path id="Shape034_w0000"  d="M 2.5169958068128295 -27.250342011749115 L 2.5169724163286187 -27.416955353169286 L 2.517139308364392 -27.58349732146415 L 2.5171243524748483 -27.750076194678996 L -2.4833352962071924 -27.750499192067114 L -2.483310662958605 -27.58392086129435 L -2.4833496184984494 -27.417349258609075 L -2.483423449566276 -27.250790049321946 L 2.5169958068128295 -27.250342011749115 " stroke="#191919" stroke-width="0.7 px" style="stroke-width:0.7;stroke-miterlimit:4;stroke-dasharray:none;stroke-linecap:square;fill:none;fill-opacity:1;fill-rule: evenodd"/>
<title>b'Shape034'</title>
</g>
<g id="Shape011" transform="translate(17.328275,30.157504) scale(1,-1)">
<path id="Shape011_w0000"  d="M -6.985535802558636 -11.54755544475024 L -12.986399632681227 -11.547913700488047 L -12.986086016414928 -11.714570383699495 L -12.985779662298587 -11.881228258116657 L -12.985475833353355 -12.047887232145367 L -6.985422927178537 -12.047114300839635 L -6.985567893491109 -11.880586453415322 L -6.985633304144571 -11.714070628512777 L -6.985535802558636 -11.54755544475024 " stroke="#191919" stroke-width="0.7 px" style="stroke-width:0.7;stroke-miterlimit:4;stroke-dasharray:none;stroke-linecap:square;fill:none;fill-opacity:1;fill-rule: evenodd"/>
<title>b'Shape011'</title>
</g>
<g id="Shape012" transform="translate(17.328275,30.157504) scale(1,-1)">
<path id="Shape012_w0000"  d="M 2.5158144954725126 -13.291417077805129 L -2.4847391081040087 -13.291865562959684 L -2.484675891250986 -13.458452993372262 L -2.4846838771928366 -13.625049618038704 L -2.484731213728109 -13.79165224844321 L 2.515744686822795 -13.791264125321234 L 2.515735069430211 -13.624646938464652 L 2.515762289751496 -13.458030279051851 L 2.5158144954725126 -13.291417077805129 " stroke="#191919" stroke-width="0.7 px" style="stroke-width:0.7;stroke-miterlimit:4;stroke-dasharray:none;stroke-linecap:square;fill:none;fill-opacity:1;fill-rule: evenodd"/>
<title>b'Shape012'</title>
</g>
<g id="Shape015" transform="translate(17.328275,30.157504) scale(1,-1)">
<path id="Shape015_w0000"  d="M 4.657398762724956 -15.905178360765415 L 4.625511868707972 -15.909108771762575 L 4.595333626252307 -15.920905705637994 L 4.566898374095865 -15.940560317523516 L 4.551810054220305 -15.954916516392231 L 4.537275432800321 -15.971690343280871 L 4.418688732715922 -16.173720571976354 L 4.300058788057852 -16.375750839479302 L 4.181394054792517 -16.577785076219925 L 4.062703223757616 -16.779818874954223 L 3.9452044829293715 -16.577802081393987 L 3.827730666228594 -16.375786495618364 L 3.710291859134485 -16.17377067455604 L 3.592895552198466 -15.971762461729256 L 3.556025841434523 -15.934843891773955 L 3.5328948412116326 -15.920108899652682 L 3.5085788565576728 -15.910403687208976 L 3.490476548318491 -15.90655137747332 L 3.4717854486153605 -15.905268901991075 L 3.4659257488554847 -15.905269343344418 L 3.4346747610955326 -15.909183879612808 L 3.406899009610566 -15.919629950005245 L 3.383542577005217 -15.93489025840409 L 3.3647225177512823 -15.954999991967568 L 3.350517715484643 -15.979951540962883 L 3.3409657844974614 -16.009694096380905 L 3.336062189100522 -16.044129939343826 L 3.336155103940885 -16.619093570951556 L 3.336470816136872 -17.193934560994784 L 3.3361810529306037 -17.768730429496078 L 3.342626806463903 -17.810004120388196 L 3.355531947391123 -17.843922270246015 L 3.3688789926547216 -17.863715770031146 L 3.3862607135461076 -17.8800293884038 L 3.407153571751487 -17.892029335914064 L 3.4314431314006706 -17.899759148410393 L 3.44997023387387 -17.902633478970948 L 3.4699723851971047 -17.90358014939734 L 3.47192565855595 -17.903580002441018 L 3.509961400645971 -17.899954813471496 L 3.54248289344026 -17.888905130083778 L 3.5645669595561094 -17.874381416381226 L 3.5814966230324163 -17.856444855870144 L 3.5949726386134806 -17.834206981797056 L 3.6059785910925903 -17.804074044945366 L 3.612567144812658 -17.768701790331125 L 3.612314533298674 -17.464465676754195 L 3.612051114912669 -17.160216033765664 L 3.611782656620388 -16.85596688691657 L 3.6115087000025365 -16.55171769352203 L 3.6947658937489534 -16.69429821922639 L 3.778029116658285 -16.836880005012965 L 3.861298223718917 -16.979462758761397 L 3.9445680571896435 -17.122044737896402 L 3.979132432421105 -17.15943462091134 L 4.009255085816601 -17.178804115687974 L 4.032572126394837 -17.18676796758751 L 4.056878358365922 -17.189419613266033 L 4.062737787425478 -17.189419134507776 L 4.093516636119781 -17.18542980800921 L 4.123141845402727 -17.173464260755466 L 4.15158289549445 -17.15354686834955 L 4.166918390462304 -17.139007255199935 L 4.181874141129519 -17.122026596862575 L 4.265610690610191 -16.978699127486166 L 4.349345696374806 -16.83537099992145 L 4.433077193930798 -16.692044658561834 L 4.51680570580865 -16.54872148726587 L 4.51682293967271 -16.95536142100537 L 4.516857533791025 -17.362001358403035 L 4.516906750419771 -17.768634994705796 L 4.5326149665252515 -17.827095478832828 L 4.5460494967270515 -17.852228407869287 L 4.562913840202055 -17.872523153521435 L 4.58388991738279 -17.88837127129272 L 4.608380488552043 -17.89902393292306 L 4.6304602649926005 -17.90385417649458 L 4.6546386264227095 -17.905447979304483 L 4.657568583738699 -17.905447772392343 L 4.69243149841855 -17.901724545159688 L 4.719759899485935 -17.891901532328042 L 4.74093831125605 -17.87773175487174 L 4.758786351926519 -17.85849034656167 L 4.773247863999216 -17.834208598649873 L 4.784588040355551 -17.80398714682684 L 4.792319219615825 -17.768635212644647 L 4.7922669576836405 -17.193761333148487 L 4.792210282412636 -16.618888398021117 L 4.792160238788562 -16.044009681459173 L 4.781499886314849 -15.990289874629191 L 4.771633794106554 -15.968117207838674 L 4.758757021634973 -15.94924647915046 L 4.740821904354439 -15.932079077777145 L 4.719216726578069 -15.919071483725524 L 4.706832463192314 -15.914036446447115 L 4.693533439596846 -15.91006580381044 L 4.657398762724956 -15.905178360765415 " stroke="#191919" stroke-width="0.7 px" style="stroke-width:0.7;stroke-miterlimit:4;stroke-dasharray:none;stroke-linecap:square;fill:none;fill-opacity:1;fill-rule: evenodd"/>
<title>b'Shape015'</title>
</g>
<g id="Shape017" transform="translate(17.328275,30.157504) scale(1,-1)">
<path id="Shape017_w0000"  d="M -4.773472655527717 -15.907091151560696 L -4.792671830806259 -15.905872172451538 L -4.796578289103112 -15.905872453643145 L -4.8328298636075555 -15.909637454462612 L -4.861185529667546 -15.9195845155463 L -4.883086911308514 -15.933949945162885 L -4.901452091574118 -15.953473084180986 L -4.916216034963885 -15.97812565032018 L -4.927633223602795 -16.00881826901968 L -4.935206892900579 -16.044726261058884 L -4.9352942194769405 -16.620256682308383 L -4.935233634178893 -17.19585291205271 L -4.935132615664241 -17.771348890923008 L -4.9261010541301555 -17.810785412635923 L -4.911327976121594 -17.843613891321983 L -4.890830217523873 -17.869677137309363 L -4.867580898441345 -17.88729611970634 L -4.842879326192753 -17.898445428829735 L -4.820738520317668 -17.904175723257836 L -4.79648946623022 -17.90716774915623 L -3.759322195422974 -17.907083842055293 L -3.7179413757574933 -17.90110510255865 L -3.683356489267096 -17.888628080793396 L -3.660660666909875 -17.873598072154053 L -3.644082249351275 -17.855693109268557 L -3.631881874617485 -17.833953715691163 L -3.624119098586214 -17.808437991704523 L -3.6215250969613404 -17.79056734804853 L -3.620661196268858 -17.771284545772467 L -3.6245374902667757 -17.733223515421763 L -3.6347782951484264 -17.704056926209315 L -3.6494046870299757 -17.682036061310377 L -3.6690542250877503 -17.66406329348539 L -3.693563781295431 -17.65011652283308 L -3.7236875701564376 -17.639877662990425 L -3.758460236920099 -17.633713899607564 L -4.209210590648107 -17.634264155887916 L -4.434574010350244 -17.63452999337456 L -4.659940175711924 -17.63479696394578 L -4.659951649368182 -17.104779114787476 L -4.659910784321866 -16.57474629954983 L -4.659888381546464 -16.04471568515809 L -4.666559209744413 -16.00280438937597 L -4.6795188061726165 -15.968225837244187 L -4.693390903487364 -15.947228196114308 L -4.710751021768225 -15.93056497331207 L -4.731536701934044 -15.918214635197657 L -4.755641088152595 -15.910138470390438 L -4.773472655527717 -15.907091151560696 " stroke="#191919" stroke-width="0.7 px" style="stroke-width:0.7;stroke-miterlimit:4;stroke-dasharray:none;stroke-linecap:square;fill:none;fill-opacity:1;fill-rule: evenodd"/>
<title>b'Shape017'</title>
</g>
<g id="Shape020" transform="translate(17.328275,30.157504) scale(1,-1)">
<path id="Shape020_w0000"  d="M 13.016628569500135 -18.525312978128387 L -12.984511843049503 -18.527399384330067 L -12.984719784448714 -18.69404610733073 L -12.98499353521299 -18.86068456506271 L -12.985334388678929 -19.02731213531193 L 13.01754873995149 -19.025207588835464 L 13.017178538426242 -18.85858564088248 L 13.016872297345406 -18.691953270228485 L 13.016628569500135 -18.525312978128387 " stroke="#191919" stroke-width="0.7 px" style="stroke-width:0.7;stroke-miterlimit:4;stroke-dasharray:none;stroke-linecap:square;fill:none;fill-opacity:1;fill-rule: evenodd"/>
<title>b'Shape020'</title>
</g>
<g id="Shape021" transform="translate(17.328275,30.157504) scale(1,-1)">
<path id="Shape021_w0000"  d="M 2.5165041374429205 -20.437591278300815 L 2.5165267754326592 -20.604206328139508 L 2.5165968066513447 -20.770821661095987 L -2.4840550877201757 -20.771230791144703 L -2.4840485055672676 -20.604633370943464 L -2.484057410618827 -20.438009594372943 L -2.4840842961770733 -20.271388234728423 L 2.5165137357850833 -20.27098066767023 L 2.5165041374429205 -20.437591278300815 " stroke="#191919" stroke-width="0.7 px" style="stroke-width:0.7;stroke-miterlimit:4;stroke-dasharray:none;stroke-linecap:square;fill:none;fill-opacity:1;fill-rule: evenodd"/>
<title>b'Shape021'</title>
</g>
<g id="Shape022" transform="translate(17.328275,30.157504) scale(1,-1)">
<path id="Shape022_w0000"  d="M 4.025453281864106 -20.728302070258884 L 3.942538400860151 -20.724423043245736 L 3.738281695649408 -20.74773393412427 L 3.565276630862388 -20.812916116776897 L 3.4230810165256145 -20.91074460042976 L 3.2977444612735827 -21.045404008878016 L 3.226583416057734 -21.150980103874314 L 3.163872575361493 -21.26902465823056 L 3.0217042677996933 -21.64107135549929 L 2.935352368245539 -22.041876765943428 L 2.906937725119329 -22.461943682614216 L 2.906922862750207 -22.47561262412159 L 2.961499124113562 -23.037886410973613 L 3.048715800934664 -23.36961532529426 L 3.1743991944635894 -23.679570954517374 L 3.3380983288334427 -23.938075402173006 L 3.4291184129505936 -24.03201376619254 L 3.593652942608868 -24.144669169967884 L 3.7733304370866847 -24.208398550539997 L 3.963378081900929 -24.228230117640813 L 4.140160515858852 -24.207277104475132 L 4.307905661718555 -24.142999347710802 L 4.414924579383101 -24.074661049272336 L 4.491856697375399 -24.010005537041593 L 4.564970441712198 -23.934771960655596 L 4.7798681415122335 -23.622253151317352 L 4.92758087970469 -23.242231160060825 L 4.996468253177634 -22.880566993687907 L 5.017407617120453 -22.499292036277033 L 5.0174025957654 -22.493028773740196 L 5.017397593802476 -22.48676447231212 L 5.017392611076833 -22.48049923470643 L 4.989006753270017 -22.09279827907643 L 4.9046653277420305 -21.689473758754197 L 4.787443778664618 -21.390769981305617 L 4.686724959165423 -21.21306230919368 L 4.568100965623288 -21.042959359219335 L 4.406435552926706 -20.877859540182442 L 4.256857888446419 -20.788087202471864 L 4.106492256176567 -20.74027552494782 L 4.025453281864106 -20.728302070258884 " stroke="#191919" stroke-width="0.7 px" style="stroke-width:0.7;stroke-miterlimit:4;stroke-dasharray:none;stroke-linecap:square;fill:none;fill-opacity:1;fill-rule: evenodd"/>
<title>b'Shape022'</title>
</g>
<g id="Shape023" transform="translate(17.328275,30.157504) scale(1,-1)">
<path id="Shape023_w0000"  d="M 13.0175657514576 -22.014923534222834 L 7.017297927921032 -22.01551125832939 L 7.017434646517187 -22.182073773593352 L 7.017443750363844 -22.34863123979198 L 7.017468428208445 -22.515195632135303 L 13.018414930468794 -22.514774193850364 L 13.018105559733602 -22.34816198241021 L 13.017823922690496 -22.181544970338088 L 13.0175657514576 -22.014923534222834 " stroke="#191919" stroke-width="0.7 px" style="stroke-width:0.7;stroke-miterlimit:4;stroke-dasharray:none;stroke-linecap:square;fill:none;fill-opacity:1;fill-rule: evenodd"/>
<title>b'Shape023'</title>
</g>
<g id="Shape024" transform="translate(17.328275,30.157504) scale(1,-1)">
<path id="Shape024_w0000"  d="M -3.3431188749950955 -20.727968103726646 L -3.301268810465822 -20.73695565782596 L -3.260356916027897 -20.754135756925134 L -3.2250434318252745 -20.779269123599782 L -3.19286637406703 -20.81664665410105 L -3.1662608400877152 -20.869640373754912 L -3.14942411860073 -20.934049330446474 L -3.1460041588971723 -20.978575544230587 L -3.1481961174929145 -21.011060383998895 L -3.1547716231939082 -21.041367603012695 L -3.1728477931089314 -21.082681381749165 L -3.200692453951798 -21.118959340215067 L -3.3595386817211557 -21.315201193014047 L -3.5184606897514605 -21.51144277527234 L -3.677441957947691 -21.707685482247644 L -3.836493162873091 -21.903921865518207 L -3.784417994324036 -21.916792072424684 L -3.732229509589631 -21.929548746811218 L -3.7134280230793095 -21.934673481288048 L -3.502932200988555 -22.026822207786225 L -3.3136223663941635 -22.15712391378303 L -3.1503598069262466 -22.32760161544855 L -3.028883259643366 -22.51732788720201 L -2.9440681309334122 -22.731410076235285 L -2.8996059338390534 -22.96660099283985 L -2.894470737283564 -23.074328012471486 L -2.9022178186697634 -23.195834593044474 L -2.9235060515044573 -23.315508105869064 L -2.9850267224639326 -23.502089372601663 L -3.0709709765021422 -23.667739352827397 L -3.1763188471125137 -23.81407254020093 L -3.2996798079072116 -23.94061173751333 L -3.413855433268039 -24.030008150143008 L -3.533788836476818 -24.102884648337636 L -3.788227239554244 -24.19831406996574 L -4.056874522262671 -24.228911016464785 L -4.326369550864452 -24.20087839268431 L -4.581146201455154 -24.112348002623797 L -4.814967913420768 -23.95958004291402 L -4.997460923812779 -23.770413194444572 L -5.135733524868575 -23.538001436098497 L -5.220927089547884 -23.265941682567224 L -5.223541006527282 -23.230018963869405 L -5.224330370824295 -23.187257922122726 L -5.211228777018257 -23.139365967365656 L -5.193055923586686 -23.0975461459937 L -5.1673712725629874 -23.05908119182918 L -5.135793919497069 -23.02847102897531 L -5.094135926669158 -23.00371446990074 L -5.040436616867922 -22.987335848395578 L -4.979809322238671 -22.98205657882246 L -4.95362492696611 -22.984533271302602 L -4.923070710572753 -22.991984128882535 L -4.849888651157371 -23.021376227588267 L -4.834095352316635 -23.032148715333527 L -4.8175782311458315 -23.04730734989068 L -4.782408417503482 -23.090685979260495 L -4.767465171123246 -23.113719747627474 L -4.756364990646188 -23.135106049297313 L -4.748282972462357 -23.158077858558194 L -4.745580781599765 -23.178713464344042 L -4.720834663581094 -23.27793935094982 L -4.692387290652338 -23.352326650845363 L -4.656663795089076 -23.41484367216652 L -4.577809168426728 -23.518380040662606 L -4.490268231677278 -23.603323513109583 L -4.379492068336771 -23.676700461383213 L -4.245903885699834 -23.726852816249536 L -4.08751384859023 -23.745349523256234 L -3.8704659030035478 -23.716208637879216 L -3.792605491891443 -23.68913398493869 L -3.7159643780620044 -23.648319734600644 L -3.596221568870038 -23.555178082121007 L -3.518317748485103 -23.471669333303115 L -3.459442567011905 -23.38311242312799 L -3.4209738830674192 -23.289848233743314 L -3.4047892337280263 -23.236807558521463 L -3.390199355772361 -23.188906542181044 L -3.3901931630742252 -23.142722053249692 L -3.3850375439312845 -22.99906943864412 L -3.38503222257705 -22.97684089156982 L -3.388075713061653 -22.93193469502709 L -3.397200053277511 -22.885010059603612 L -3.424295346290939 -22.80588808670871 L -3.465193587404185 -22.72338356698193 L -3.5130501653644215 -22.64883761114846 L -3.6285274760953072 -22.524520862546524 L -3.7678224639131273 -22.43336885069499 L -3.86317280538636 -22.39439312591889 L -3.961816043970768 -22.371069469488077 L -4.063531306928834 -22.36333634066697 L -4.16739877649079 -22.371041647573026 L -4.2737650829565705 -22.394115945389704 L -4.284020397475161 -22.39753419543363 L -4.298978462266458 -22.403517653149684 L -4.3164957074938775 -22.40778971471442 L -4.36606399648989 -22.412920525719656 L -4.401949019072963 -22.410077960790495 L -4.436706575261139 -22.401537660654988 L -4.470326052178237 -22.387300951669 L -4.4988357970873025 -22.371508291313106 L -4.524433876006645 -22.351550295790787 L -4.559935434804425 -22.30990244673113 L -4.589965537707051 -22.25063475819094 L -4.601938124335154 -22.201090310469585 L -4.607072936890106 -22.153253369938348 L -4.6048155022440875 -22.12212483241591 L -4.598030025973054 -22.09303440330354 L -4.579396698013034 -22.053289027025293 L -4.550704934311747 -22.018270120887433 L -4.3870487193473675 -21.816094725816747 L -4.2234262886152525 -21.613917113977383 L -4.059978211463911 -21.41163994305046 L -3.896516713505557 -21.209388939829733 L -4.704942780740582 -21.209687901147287 L -4.710070447865304 -21.209689726084772 L -4.7551052955263176 -21.20587766592635 L -4.7969160748923105 -21.194329477601432 L -4.844645638187535 -21.168756319639478 L -4.891265570280783 -21.12586744198739 L -4.9234650995197535 -21.07961547244598 L -4.9428889486984415 -21.029357445945468 L -4.949375120867473 -20.975211368004583 L -4.944250675079323 -20.92725870601446 L -4.933466179328459 -20.87997475288886 L -4.917167602077964 -20.838690659468863 L -4.893019957634928 -20.800749429371127 L -4.8624604206189295 -20.770602447296774 L -4.821406388445108 -20.746270148749428 L -4.767779500519134 -20.730222516293466 L -4.706708086878261 -20.72507278571375 L -3.388803930202874 -20.725055167104223 L -3.3431188749950955 -20.727968103726646 " stroke="#191919" stroke-width="0.7 px" style="stroke-width:0.7;stroke-miterlimit:4;stroke-dasharray:none;stroke-linecap:square;fill:none;fill-opacity:1;fill-rule: evenodd"/>
<title>b'Shape024'</title>
</g>
<g id="Shape025" transform="translate(17.328275,30.157504) scale(1,-1)">
<path id="Shape025_w0000"  d="M 2.5166932579780745 -22.015948469727675 L -2.483964876724616 -22.016355819159312 L -2.4838854845093463 -22.182943413102812 L -2.4838267492919766 -22.34950148448027 L -2.483793181130845 -22.516044940863637 L 2.516782357272451 -22.51556964578548 L 2.516802508247663 -22.348999131787465 L 2.516664097141744 -22.182500097045487 L 2.5166932579780745 -22.015948469727675 " stroke="#191919" stroke-width="0.7 px" style="stroke-width:0.7;stroke-miterlimit:4;stroke-dasharray:none;stroke-linecap:square;fill:none;fill-opacity:1;fill-rule: evenodd"/>
<title>b'Shape025'</title>
</g>
<g id="Shape027" transform="translate(17.328275,30.157504) scale(1,-1)">
<path id="Shape027_w0000"  d="M 2.516895860631722 -23.76070254478334 L -2.483708543128879 -23.761184163237864 L -2.483746516365116 -23.92775521432822 L -2.4837815838819317 -24.09435099772176 L -2.4838177045353973 -24.260967306541957 L 2.516967179708555 -24.260545073076244 L 2.516919700808609 -24.093924397466743 L 2.5168866277172963 -23.92731151982207 L 2.516895860631722 -23.76070254478334 " stroke="#191919" stroke-width="0.7 px" style="stroke-width:0.7;stroke-miterlimit:4;stroke-dasharray:none;stroke-linecap:square;fill:none;fill-opacity:1;fill-rule: evenodd"/>
<title>b'Shape027'</title>
</g>
<g id="Shape028" transform="translate(17.328275,30.157504) scale(1,-1)">
<path id="Shape028_w0000"  d="M 13.018584753684067 -25.504538217535476 L -12.985226059079098 -25.506750649751577 L -12.984812029941397 -25.673330137983335 L -12.984465770288985 -25.839925163606797 L -12.984186235976651 -26.00653341771185 L 13.01762134040816 -26.00430711829099 L 13.017877155103104 -25.83770384298832 L 13.01819789546228 -25.67111345398429 L 13.018584753684067 -25.504538217535476 " stroke="#191919" stroke-width="0.7 px" style="stroke-width:0.7;stroke-miterlimit:4;stroke-dasharray:none;stroke-linecap:square;fill:none;fill-opacity:1;fill-rule: evenodd"/>
<title>b'Shape028'</title>
</g>
<g id="Shape030" transform="translate(17.328275,30.157504) scale(1,-1)">
<path id="Shape030_w0000"  d="M 4.658386040143078 -26.371368576113003 L 4.626498269724824 -26.3752988751763 L 4.596319036003857 -26.387095798363916 L 4.567882680812369 -26.406750590441987 L 4.552793710825362 -26.421106454613387 L 4.538258424849493 -26.437880536454927 L 4.419667943129829 -26.639910536007243 L 4.30103676552943 -26.84194099114231 L 4.182373432665548 -27.043977128338838 L 4.063684489285803 -27.2460128485506 L 3.9461835293028518 -27.043996395032394 L 3.828706823518372 -26.841981912731857 L 3.711263284948032 -26.639967016585967 L 3.593858755798225 -26.43796355616021 L 3.556986584424479 -26.401045685256143 L 3.533854369878016 -26.3863112288294 L 3.5095373581583313 -26.376606166139837 L 3.491434431089642 -26.372753991662318 L 3.4727428075419127 -26.37147280306644 L 3.4668829657584475 -26.37147331416887 L 3.4356312261605186 -26.375387542033167 L 3.4078545557169235 -26.38583423312846 L 3.3844971247109434 -26.40109435655487 L 3.3656760033310675 -26.421205192315423 L 3.35147009827981 -26.446157643671672 L 3.341917054234452 -26.475899534322416 L 3.3370123480833307 -26.510335778176966 L 3.337099307437322 -27.085306437672877 L 3.337377180553627 -27.660190106021236 L 3.3372529850149952 -28.235057043704902 L 3.3437029601151753 -28.276329479908444 L 3.3566118886967633 -28.310247596915893 L 3.3699613685309746 -28.330041215688524 L 3.3873453135513607 -28.34635457651388 L 3.4082400689981256 -28.35835328774752 L 3.4325311906579525 -28.366082512182082 L 3.45105917118447 -28.36895614362092 L 3.4710620470457947 -28.369903404928053 L 3.4730153649495072 -28.369903240686703 L 3.5110519032137333 -28.366277452329825 L 3.543574229081271 -28.355227819516777 L 3.565659001343308 -28.34070423643148 L 3.582589335054619 -28.322767949126742 L 3.5960657813279546 -28.300530597110683 L 3.6070726960551376 -28.2703978024456 L 3.613661908125705 -28.23502658223641 L 3.6134098079969323 -27.93079368505813 L 3.613144113631158 -27.626544700436334 L 3.6128726034957594 -27.322295653977342 L 3.6125955363960927 -27.018046072107584 L 3.6958539501837553 -27.160625389705714 L 3.7791188683211043 -27.30320727651148 L 3.8623894167447794 -27.44578890642047 L 3.945660743955049 -27.5883710446391 L 3.980225530388317 -27.62576007853598 L 4.010348402101917 -27.645129780208173 L 4.033665535744177 -27.653093603501308 L 4.0579718447609014 -27.65574490610499 L 4.063831286719758 -27.655744358717776 L 4.094610157204716 -27.651754233609033 L 4.124235289892633 -27.639788279175285 L 4.152676158443159 -27.61987038888465 L 4.168011502312156 -27.6053305949289 L 4.1829670630823905 -27.588350347201605 L 4.266701693564006 -27.445020859482476 L 4.350435324759683 -27.30169214820269 L 4.434164543523856 -27.158363818875547 L 4.517891238792945 -27.015040272722466 L 4.517913602878625 -27.421679762264397 L 4.517954028005574 -27.828318432227885 L 4.518011709791336 -28.234951374412155 L 4.533722228371854 -28.29341071505503 L 4.547157942998014 -28.318542725072 L 4.564023379264361 -28.338836934969947 L 4.585000464484706 -28.354684028797642 L 4.609491908341063 -28.36533653146092 L 4.631572287122502 -28.37016690202248 L 4.6557511697630645 -28.371759904393322 L 4.658681166357837 -28.371759668246305 L 4.6935445839686825 -28.36803673967116 L 4.720873703055771 -28.358213239852056 L 4.742053030273182 -28.344043019818905 L 4.759902201294855 -28.324801182009978 L 4.774364924279492 -28.300518918199483 L 4.785706280004764 -28.270296622367916 L 4.793438638393173 -28.234942486801025 L 4.793352440302478 -27.660035249520227 L 4.793249703079946 -27.085126267486018 L 4.793166965404556 -26.510202642278998 L 4.782500176952016 -26.45647969548115 L 4.772631113327874 -26.434305648215492 L 4.759751796396628 -26.415434966121815 L 4.7418142545071404 -26.398267820443465 L 4.7202070970519365 -26.38525984675573 L 4.707821954586738 -26.380225823784148 L 4.6945221605885905 -26.376255150765445 L 4.658386040143078 -26.371368576113003 " stroke="#191919" stroke-width="0.7 px" style="stroke-width:0.7;stroke-miterlimit:4;stroke-dasharray:none;stroke-linecap:square;fill:none;fill-opacity:1;fill-rule: evenodd"/>
<title>b'Shape030'</title>
</g>
<g id="Shape031" transform="translate(17.328275,30.157504) scale(1,-1)">
<path id="Shape031_w0000"  d="M -3.180440106960601 -26.373575291699318 L -3.1588461385659183 -26.37821133318812 L -3.1341258484082495 -26.38879841595682 L -3.1128846388403826 -26.404655343606024 L -3.095375717651063 -26.425554072864443 L -3.081421909479909 -26.451586810173794 L -3.0653180630882044 -26.510887416142282 L -3.0653169609961424 -27.086525813233038 L -3.065409999425807 -27.662098130782432 L -3.065181110508293 -28.237566604478822 L -3.0729806855174218 -28.27295271751143 L -3.0845078272772426 -28.303193702756044 L -3.0992618496560986 -28.327480293616922 L -3.117507128390658 -28.346715229639795 L -3.139180730161625 -28.360872635481392 L -3.16716629857107 -28.370679984447673 L -3.2028760612724323 -28.374393629488903 L -3.2038527142517808 -28.37439371589836 L -3.2280444499067826 -28.37280093058559 L -3.250155700330742 -28.367970948888477 L -3.2747144394791405 -28.35731884811705 L -3.2957893585905005 -28.341473104456277 L -3.3127807094170905 -28.32118252202137 L -3.3263757104034184 -28.296057576608078 L -3.3424633559435346 -28.237616856558788 L -3.342625850771025 -27.66212872498088 L -3.3426607412473537 -27.08652474302796 L -3.342661404042797 -26.51090797628975 L -3.3348691547506917 -26.475016854962906 L -3.323350410033923 -26.444332818782243 L -3.308602642610847 -26.41968202424564 L -3.290361073971141 -26.40015370291483 L -3.2686874178559293 -26.385777540400603 L -3.240696454245999 -26.375817790272773 L -3.204975933663645 -26.372045956903186 L -3.203999300109299 -26.372045873691913 L -3.180440106960601 -26.373575291699318 " stroke="#191919" stroke-width="0.7 px" style="stroke-width:0.7;stroke-miterlimit:4;stroke-dasharray:none;stroke-linecap:square;fill:none;fill-opacity:1;fill-rule: evenodd"/>
<title>b'Shape031'</title>
</g>
<g id="Shape032" transform="translate(17.328275,30.157504) scale(1,-1)">
<path id="Shape032_w0000"  d="M -4.772675508144014 -26.37339922671332 L -4.791875197796979 -26.3721810712452 L -4.795781729969572 -26.372181403567062 L -4.83203414806739 -26.37594633042281 L -4.86039086401201 -26.385893517248572 L -4.882293414455045 -26.400259347732522 L -4.900660220531825 -26.419783115562645 L -4.91542588478616 -26.444436093186976 L -4.926845670075022 -26.47512973054308 L -4.9344217449484296 -26.51103824315331 L -4.934488438379825 -27.086599561000057 L -4.934429891560855 -27.662213271159125 L -4.93433061529071 -28.237741096457647 L -4.925294524241751 -28.277177649305685 L -4.910516703681804 -28.310006242877307 L -4.8900156717202865 -28.336068888309015 L -4.866763645343713 -28.353687180590793 L -4.842060018577662 -28.36483547278558 L -4.819917876807258 -28.370565939755917 L -4.7956676720293405 -28.373557980818767 L -3.758461847544771 -28.373466079922952 L -3.717079053782971 -28.367487330692306 L -3.682491915003265 -28.355009627251192 L -3.6597941061061725 -28.33997836639655 L -3.643213916282267 -28.322072716788004 L -3.631012604718215 -28.300332703667713 L -3.6232499341243045 -28.274815141810155 L -3.620655625431592 -28.256941824261933 L -3.6197924177775356 -28.237656100855798 L -3.623673448288214 -28.19959017591354 L -3.6339112132205695 -28.170416575987907 L -3.648534478341519 -28.14839034768607 L -3.6681809969488466 -28.130411999513765 L -3.692687125207927 -28.116461221897147 L -3.722807880660447 -28.106219531071336 L -3.7575778422675974 -28.100052442437843 L -4.208316119201818 -28.100606750210076 L -4.433675414538886 -28.10087673267597 L -4.659036777075304 -28.101146103192498 L -4.6590671024905355 -27.571113002418254 L -4.659057570066676 -27.041067328417856 L -4.6590706948441705 -26.511022527820412 L -4.665747151144171 -26.46911150055193 L -4.678711650454689 -26.434532306311688 L -4.69258687025552 -26.413534662278195 L -4.709949582426636 -26.39687189823317 L -4.730737313844997 -26.384521979369065 L -4.754843214195449 -26.37644582255503 L -4.772675508144014 -26.37339922671332 " stroke="#191919" stroke-width="0.7 px" style="stroke-width:0.7;stroke-miterlimit:4;stroke-dasharray:none;stroke-linecap:square;fill:none;fill-opacity:1;fill-rule: evenodd"/>
<title>b'Shape032'</title>
</g>
</svg>