<?xml version="1.0" encoding="UTF-8" standalone="no"?>
<!-- Created with Inkscape (http://www.inkscape.org/) -->

<svg
   width="8.5in"
   height="11in"
   viewBox="0 0 215.9 279.4"
   version="1.1"
   id="svg1"
   xml:space="preserve"
   inkscape:version="1.3.2 (091e20e, 2023-11-25, custom)"
   sodipodi:docname="DrumTest2.svg"
   xmlns:inkscape="http://www.inkscape.org/namespaces/inkscape"
   xmlns:sodipodi="http://sodipodi.sourceforge.net/DTD/sodipodi-0.dtd"
   xmlns="http://www.w3.org/2000/svg"
   xmlns:svg="http://www.w3.org/2000/svg"><sodipodi:namedview
     id="namedview1"
     pagecolor="#ffffff"
     bordercolor="#000000"
     borderopacity="0.25"
     inkscape:showpageshadow="2"
     inkscape:pageopacity="0.0"
     inkscape:pagecheckerboard="0"
     inkscape:deskcolor="#d1d1d1"
     inkscape:document-units="mm"
     inkscape:zoom="3.7726426"
     inkscape:cx="396.27396"
     inkscape:cy="603.68825"
     inkscape:window-width="1920"
     inkscape:window-height="1009"
     inkscape:window-x="-8"
     inkscape:window-y="-8"
     inkscape:window-maximized="1"
     inkscape:current-layer="layer1" /><defs
     id="defs1" /><g
     inkscape:label="Layer 1"
     inkscape:groupmode="layer"
     id="layer1"><g
       id="g1"
       transform="translate(87.501834,117.10806)"><g
         id="Shape036"
         transform="matrix(1,0,0,-1,17.328275,30.157504)"
         style="stroke-width:0.1;stroke-dasharray:none;fill:#000000"><path
           id="Shape036_w0000"
           d="m 2.5177814,-30.906432 -1.991e-4,-0.16661 -1.793e-4,-0.166611 -5.0004088,-4.5e-4 -2.107e-4,0.166609 -2.312e-4,0.166608 2.298e-4,0.166551 5.0007466,4.57e-4 2.527e-4,-0.166554"
           stroke="#191919"
           stroke-width="0.7 px"
           style="fill:#000000;fill-opacity:1;fill-rule:evenodd;stroke-width:0.1;stroke-linecap:square;stroke-miterlimit:4;stroke-dasharray:none" /><title
           id="title1">b'Shape036'</title></g><g
         id="Shape014"
         transform="matrix(1,0,0,-1,17.328275,30.157504)"
         style="stroke-width:0.1;stroke-dasharray:none;fill:#000000"><path
           id="Shape014_w0000"
           d="m 5.7729604,-15.90509 -0.6064822,-4.8e-5 -0.047693,-0.0124 -0.031807,-0.01734 -0.023728,-0.022 -0.018055,-0.02773 -0.01073,-0.02773 -0.00663,-0.03166 5.28e-5,-0.575199 5.68e-5,-0.575199 4.97e-5,-0.575205 0.00907,-0.03707 0.014816,-0.03137 0.020518,-0.02556 0.026104,-0.01971 0.031505,-0.0139 0.036663,-0.0082 0.5225183,3.4e-5 0.1357724,0.0198 0.1233178,0.04147 0.1092741,0.06426 0.088064,0.07823 0.070085,0.09042 0.050901,0.102504 0.025678,0.09004 0.00862,0.0579 0.00289,0.0591 -0.014574,0.136707 -0.038123,0.121589 -0.063068,0.114127 -0.086079,0.106096 0.079268,0.08708 0.057972,0.09451 0.035372,0.10149 0.014477,0.119124 -9.2e-6,0.0068 -0.00569,0.07372 -0.00923,0.04509 -0.013588,0.0443 -0.041754,0.08753 -0.058784,0.07787 -0.074978,0.06811 -0.092309,0.05617 -0.1043537,0.03724 -0.115381,0.01899"
           stroke="#191919"
           stroke-width="0.7 px"
           style="fill:#000000;fill-opacity:1;fill-rule:evenodd;stroke-width:0.1;stroke-linecap:square;stroke-miterlimit:4;stroke-dasharray:none" /><title
           id="title2">b'Shape014'</title></g><g
         id="Shape029"
         transform="matrix(1,0,0,-1,17.328275,30.157504)"
         style="stroke-width:0.1;stroke-dasharray:none;fill:#000000"><path
           id="Shape029_w0000"
           d="m 5.7739794,-26.371268 -0.6065001,-5.5e-5 -0.047695,-0.0124 -0.031809,-0.01734 -0.023729,-0.022 -0.018057,-0.02773 -0.010732,-0.02773 -0.00664,-0.03166 8.86e-5,-0.575234 1.03e-4,-0.575235 8.04e-5,-0.575249 0.00908,-0.03708 0.014819,-0.03137 0.020521,-0.02556 0.026105,-0.01971 0.031506,-0.0139 0.036664,-0.0082 0.5225203,4e-5 0.1357572,0.0198 0.1232846,0.04147 0.1092198,0.06426 0.08811,0.0782 0.070142,0.09039 0.050971,0.102464 0.025745,0.09 0.00867,0.05788 0.00282,0.0591 -0.014741,0.136707 -0.038274,0.121591 -0.063211,0.114127 -0.086207,0.105998 0.079151,0.08718 0.058092,0.09455 0.035496,0.101534 0.014609,0.119175 -2.1e-6,0.0068 -0.00562,0.07375 -0.00919,0.0451 -0.01355,0.04432 -0.041688,0.08756 -0.058809,0.07788 -0.075004,0.06812 -0.092333,0.05617 -0.1043722,0.03725 -0.1153926,0.01899"
           stroke="#191919"
           stroke-width="0.7 px"
           style="fill:#000000;fill-opacity:1;fill-rule:evenodd;stroke-width:0.1;stroke-linecap:square;stroke-miterlimit:4;stroke-dasharray:none" /><title
           id="title3">b'Shape029'</title></g><g
         id="Shape004"
         transform="matrix(1,0,0,-1,17.328275,30.157504)"
         style="stroke-width:0.1;stroke-dasharray:none;fill:#000000"><path
           id="Shape004_w0000"
           d="m 2.5151053,-6.3124157 -5.0005026,-4.208e-4 2.35e-5,-0.1666534 1.81e-5,-0.1666535 1.31e-5,-0.1666537 5.0004761,4.207e-4 -1.46e-5,0.1666537 -9.5e-6,0.1666536 -4.1e-6,0.1666534"
           stroke="#191919"
           stroke-width="0.7 px"
           style="fill:#000000;fill-opacity:1;fill-rule:evenodd;stroke-width:0.1;stroke-linecap:square;stroke-miterlimit:4;stroke-dasharray:none" /><title
           id="title4">b'Shape004'</title></g><g
         id="Shape018"
         transform="matrix(1,0,0,-1,17.328275,30.157504)"
         style="stroke-width:0.1;stroke-dasharray:none;fill:#000000"><path
           id="Shape018_w0000"
           d="m -5.6889124,-15.908517 0.05886,-0.01065 0.094299,-0.03174 0.1020532,-0.05225 0.0901,-0.06508 0.077355,-0.07815 0.00488,-0.0068 0.010181,-0.01465 0.00793,-0.01432 0.00766,-0.02084 0.00256,-0.02007 -7.606e-4,-0.01759 -0.00227,-0.01647 -0.00676,-0.02402 -0.00789,-0.01795 -0.00948,-0.01605 -0.01885,-0.02207 -0.02584,-0.01856 -0.034664,-0.01328 -0.017336,-0.0037 -0.016849,-0.0012 -0.020189,0.0017 -0.019734,0.005 -0.031292,0.01546 -0.033285,0.02767 -0.050184,0.0529 -0.050132,0.04158 -0.048003,0.0288 -0.04767,0.01745 -0.047188,0.0059 h -0.00879 l -0.077763,-0.01364 -0.072361,-0.03325 -0.066674,-0.05281 -0.050737,-0.05626 -0.045747,-0.0644 -0.062705,-0.119696 -0.050068,-0.132923 -0.024664,-0.11027 -0.011199,-0.131831 -3e-7,-0.01367 -4e-7,-0.01367 -3e-7,-0.01367 0.011067,-0.147803 0.033348,-0.139008 0.055243,-0.129172 0.056887,-0.09275 0.063768,-0.07628 0.083358,-0.06742 0.09194,-0.04288 0.035156,-0.0081 0.035159,-0.0027 0.030222,0.002 0.030002,0.0061 0.061688,0.02559 0.079894,0.06042 0.094083,0.113006 0.013311,0.01379 0.01354,0.0118 0.024848,0.01616 0.025561,0.0097 0.026257,0.0032 0.016058,-0.0011 0.016215,-0.0033 0.032889,-0.01336 0.033484,-0.02221 0.016504,-0.01414 0.013455,-0.01441 0.012656,-0.01871 0.00762,-0.01912 0.00255,-0.01951 -0.00112,-0.01564 -0.00336,-0.01623 -0.013385,-0.03419 -0.022194,-0.03645 -0.00879,-0.0127 -0.1004516,-0.110782 -0.1177361,-0.08583 -0.1333158,-0.06133 -0.095939,-0.02424 -0.1032809,-0.008 -0.061126,0.0047 -0.063012,0.01411 -0.1045025,0.04172 -0.146851,0.0987 -0.1209015,0.138558 -0.091996,0.176916 -0.047988,0.142398 -0.03308,0.146291 -0.020948,0.240586 0.01912,0.233562 0.056792,0.219602 0.092793,0.202022 0.067014,0.09946 0.078035,0.08298 0.1357832,0.09286 0.1548391,0.05606 0.113288,0.0137 0.058758,-0.0036"
           stroke="#191919"
           stroke-width="0.7 px"
           style="fill:#000000;fill-opacity:1;fill-rule:evenodd;stroke-width:0.1;stroke-linecap:square;stroke-miterlimit:4;stroke-dasharray:none" /><title
           id="title5">b'Shape018'</title></g><g
         id="Shape013"
         transform="matrix(1,0,0,-1,17.328275,30.157504)"
         style="stroke-width:0.1;stroke-dasharray:none;fill:#000000"><path
           id="Shape013_w0000"
           d="m 13.016509,-15.035412 -26.001911,-0.002 2.41e-4,-0.16668 1.76e-4,-0.166683 1.12e-4,-0.166683 26.00141,0.0019 -4.9e-5,0.166709 -9e-6,0.16671 3e-5,0.166707"
           stroke="#191919"
           stroke-width="0.7 px"
           style="fill:#000000;fill-opacity:1;fill-rule:evenodd;stroke-width:0.1;stroke-linecap:square;stroke-miterlimit:4;stroke-dasharray:none" /><title
           id="title6">b'Shape013'</title></g><g
         id="Shape026"
         transform="matrix(1,0,0,-1,17.328275,30.157504)"
         style="stroke-width:0.1;stroke-dasharray:none;fill:#000000"><path
           id="Shape026_w0000"
           d="m -6.9845983,-22.016623 -6.0002057,-4.73e-4 -2.26e-4,-0.166626 -2.49e-4,-0.166621 -2.79e-4,-0.166616 6.000928,5.85e-4 -3.94e-5,0.166585 1.06e-5,0.166581 6.05e-5,0.166585"
           stroke="#191919"
           stroke-width="0.7 px"
           style="fill:#000000;fill-opacity:1;fill-rule:evenodd;stroke-width:0.1;stroke-linecap:square;stroke-miterlimit:4;stroke-dasharray:none" /><title
           id="title7">b'Shape026'</title></g><g
         id="Shape033"
         transform="matrix(1,0,0,-1,17.328275,30.157504)"
         style="stroke-width:0.1;stroke-dasharray:none;fill:#000000"><path
           id="Shape033_w0000"
           d="m -5.6881324,-26.374837 0.058862,-0.01065 0.094303,-0.03174 0.102059,-0.05225 0.090106,-0.06508 0.077361,-0.07815 0.00488,-0.0068 0.010181,-0.01465 0.00793,-0.01432 0.00766,-0.02085 0.00256,-0.02007 -7.593e-4,-0.0176 -0.00227,-0.01647 -0.00676,-0.02402 -0.00789,-0.01795 -0.00948,-0.01605 -0.018848,-0.02207 -0.025838,-0.01856 -0.034662,-0.01328 -0.017335,-0.0037 -0.016849,-0.0012 -0.020189,0.0017 -0.019734,0.005 -0.031291,0.01546 -0.033285,0.02766 -0.050184,0.0529 -0.050133,0.04158 -0.048002,0.0288 -0.047671,0.01746 -0.047188,0.0059 h -0.00879 l -0.077763,-0.01364 -0.07236,-0.03325 -0.066673,-0.05281 -0.050736,-0.05626 -0.045746,-0.0644 -0.062702,-0.119697 -0.050067,-0.132926 -0.024662,-0.110272 -0.011197,-0.131833 -10e-8,-0.01367 v -0.01367 l -1e-7,-0.01367 0.01107,-0.147805 0.033346,-0.139011 0.05524,-0.129173 0.056885,-0.09275 0.063766,-0.07628 0.083357,-0.06742 0.091939,-0.04288 0.035156,-0.0081 0.035159,-0.0027 0.030222,0.002 0.030001,0.0061 0.061688,0.02559 0.079894,0.06042 0.094082,0.113005 0.013311,0.01379 0.01354,0.0118 0.024848,0.01616 0.025561,0.0097 0.026257,0.0032 0.016057,-0.0011 0.016215,-0.0033 0.032889,-0.01336 0.033484,-0.02221 0.016503,-0.01414 0.013454,-0.01441 0.012654,-0.01871 0.00762,-0.01912 0.00255,-0.01952 -0.00112,-0.01564 -0.00336,-0.01623 -0.013383,-0.0342 -0.022193,-0.03646 -0.00879,-0.0127 -0.1004588,-0.110785 -0.1177441,-0.08584 -0.1333247,-0.06133 -0.095945,-0.02424 -0.1032852,-0.008 -0.06112,0.0047 -0.062996,0.01411 -0.1044569,0.04172 -0.1467413,0.09871 -0.1209611,0.138498 -0.09209,0.176841 -0.048084,0.142332 -0.032889,0.146288 -0.020627,0.240587 0.018841,0.233662 0.056587,0.219687 0.092654,0.202094 0.067059,0.09946 0.078075,0.08298 0.1358312,0.09287 0.1548721,0.05606 0.1132986,0.0137 0.05876,-0.0036"
           stroke="#191919"
           stroke-width="0.7 px"
           style="fill:#000000;fill-opacity:1;fill-rule:evenodd;stroke-width:0.1;stroke-linecap:square;stroke-miterlimit:4;stroke-dasharray:none" /><title
           id="title8">b'Shape033'</title></g><g
         id="Shape010"
         transform="matrix(1,0,0,-1,17.328275,30.157504)"
         style="stroke-width:0.1;stroke-dasharray:none;fill:#000000"><path
           id="Shape010_w0000"
           d="m 2.515687,-11.713261 1.291e-4,-0.166494 -1.282e-4,-0.166518 -5.0005328,-4.66e-4 5.48e-5,0.166469 -9.32e-5,0.166484 -1.004e-4,0.166549 5.0006827,4.49e-4 -1.2e-5,-0.166473"
           stroke="#191919"
           stroke-width="0.7 px"
           style="fill:#000000;fill-opacity:1;fill-rule:evenodd;stroke-width:0.1;stroke-linecap:square;stroke-miterlimit:4;stroke-dasharray:none" /><title
           id="title9">b'Shape010'</title></g><g
         id="Shape035"
         transform="matrix(1,0,0,-1,17.328275,30.157504)"
         style="stroke-width:0.1;stroke-dasharray:none;fill:#000000"><path
           id="Shape035_w0000"
           d="m 13.018199,-28.994249 -26.002395,-0.0023 6.9e-5,-0.166705 2.1e-5,-0.166709 -2.8e-5,-0.16671 26.002359,0.0023 -5.6e-5,0.16671 -9e-6,0.166708 3.9e-5,0.166705"
           stroke="#191919"
           stroke-width="0.7 px"
           style="fill:#000000;fill-opacity:1;fill-rule:evenodd;stroke-width:0.1;stroke-linecap:square;stroke-miterlimit:4;stroke-dasharray:none" /><title
           id="title10">b'Shape035'</title></g><g
         id="Shape016"
         transform="matrix(1,0,0,-1,17.328275,30.157504)"
         style="stroke-width:0.1;stroke-dasharray:none;fill:#000000"><path
           id="Shape016_w0000"
           d="m -3.1812674,-15.907288 0.021593,-0.0046 0.024719,-0.01059 0.021239,-0.01586 0.017506,-0.0209 0.013951,-0.02603 0.016097,-0.0593 -4.99e-5,-0.575641 -1.771e-4,-0.575545 3.197e-4,-0.575399 -0.0078,-0.03539 -0.011526,-0.03024 -0.014753,-0.02429 -0.018244,-0.01924 -0.021672,-0.01416 -0.027984,-0.0098 -0.035709,-0.0037 h -9.766e-4 l -0.024191,0.0016 -0.022109,0.0048 -0.024555,0.01065 -0.02107,0.01584 -0.016985,0.02029 -0.013588,0.02512 -0.016074,0.05844 -1.702e-4,0.575435 -1.5e-5,0.575581 1.15e-5,0.57561 0.00779,0.03589 0.011517,0.03068 0.014746,0.02465 0.01824,0.01953 0.021673,0.01438 0.02799,0.01 0.03572,0.0038 h 9.766e-4 l 0.023559,-0.0015"
           stroke="#191919"
           stroke-width="0.7 px"
           style="fill:#000000;fill-opacity:1;fill-rule:evenodd;stroke-width:0.1;stroke-linecap:square;stroke-miterlimit:4;stroke-dasharray:none" /><title
           id="title11">b'Shape016'</title></g><g
         id="Shape"
         transform="matrix(1,0,0,-1,17.328275,30.157504)"
         style="stroke-width:0.1;stroke-dasharray:none"><path
           id="Shape_w0000"
           d="m 17.011928,29.817443 2.21e-4,-2.595326 2.27e-4,-2.595325 2.34e-4,-2.595324 2.44e-4,-2.595322 2.54e-4,-2.595319 2.69e-4,-2.595312 2.88e-4,-2.595306 3.13e-4,-2.5952965 3.48e-4,-2.5952634 -5.15e-4,-2.5956776 -5.3e-5,-2.5956875 2.12e-4,-2.5957484 2.2e-4,-2.8132459 0.0014,-2.8143492 4.23e-4,-2.8144336 -5.28e-4,-2.8145569 -3.69e-4,-2.813949 8.82e-4,-2.813948 0.0011,-2.814351 6.99e-4,-2.814488 -5.37e-4,-2.81442 -5.57e-4,-2.814047 0.0012,-2.814063 -34.00122,-0.003 7.46e-4,2.814082 -9.98e-4,2.814068 -0.0011,2.81448 2.49e-4,2.814527 6.7e-4,2.814457 -3.6e-5,2.813627 -0.0011,2.814269 -0.001,2.8145515 1.49e-4,2.8143574 8.99e-4,2.8143488 -2.58e-4,2.8132444 -1.53e-4,2.595754 -5.65e-4,2.5956984 -8.96e-4,2.5956521 -8.1e-5,2.5952828 -1.16e-4,2.5952816 -1.44e-4,2.595296 -1.63e-4,2.595305 -1.79e-4,2.595313 -1.9e-4,2.595318 -2e-4,2.595321 -2.08e-4,2.595324 -2.14e-4,2.595326 34.000142,0.0028"
           stroke="#191919"
           stroke-width="0.7 px"
           style="fill:none;fill-opacity:1;fill-rule:evenodd;stroke-width:0.1;stroke-linecap:square;stroke-miterlimit:4;stroke-dasharray:none" /><title
           id="title12">b'Shape'</title></g><g
         id="Shape001"
         transform="matrix(1,0,0,-1,17.328275,30.157504)"
         style="stroke-width:0.1;stroke-dasharray:none;fill:#000000"><path
           id="Shape001_w0000"
           d="M 0.1336192,2.8848442 -0.32815022,2.8635688 -0.78295538,2.7540867 -1.2206152,2.5535598 -1.6275599,2.2572707 -1.9890201,1.8531495 -2.2695598,1.3424731 -2.4275707,0.74743221 l -0.0029,-0.63955622 0.1542691,-0.5993291 0.2409549,-0.46003219 0.3080682,-0.3765289 0.496202,-0.3848073 0.54433625,-0.2375019 0.56729112,-0.09892 0.57143254,0.035849 0.55764989,0.1720004 0.3883048,0.2164384 0.3580468,0.2972409 L 2.12501,-0.85489272 2.3640078,-0.32502828 2.4492272,0.0382272 2.478425,0.41739676 2.3973507,1.0437918 2.1753868,1.6015925 1.8499946,2.062823 1.4642348,2.4129459 1.0404087,2.6622561 0.59296359,2.8182568 0.1336192,2.8848442"
           stroke="#191919"
           stroke-width="0.7 px"
           style="fill:#000000;fill-opacity:1;fill-rule:evenodd;stroke-width:0.1;stroke-linecap:square;stroke-miterlimit:4;stroke-dasharray:none" /><title
           id="title13">b'Shape001'</title></g><g
         id="Shape002"
         transform="matrix(1,0,0,-1,17.328275,30.157504)"
         style="stroke-width:0.1;stroke-dasharray:none;fill:#000000"><path
           id="Shape002_w0000"
           d="m 2.5147758,-2.8227493 -5.0004128,-4.315e-4 5.87e-5,-0.1666529 4.63e-5,-0.1666536 3.46e-5,-0.1666542 5.0002162,4.289e-4 7.4e-6,0.1666551 1.88e-5,0.1666544 3.08e-5,0.1666538"
           stroke="#191919"
           stroke-width="0.7 px"
           style="fill:#000000;fill-opacity:1;fill-rule:evenodd;stroke-width:0.1;stroke-linecap:square;stroke-miterlimit:4;stroke-dasharray:none" /><title
           id="title14">b'Shape002'</title></g><g
         id="Shape003"
         transform="matrix(1,0,0,-1,17.328275,30.157504)"
         style="stroke-width:0.1;stroke-dasharray:none;fill:#000000"><path
           id="Shape003_w0000"
           d="m 13.014811,-4.5667733 -26.000202,-0.00215 -2.51e-4,-0.1666273 -3.13e-4,-0.1666182 -3.77e-4,-0.1666059 26.002163,0.00215 -4.03e-4,0.1666063 -3.39e-4,0.1666186 -2.78e-4,0.1666277"
           stroke="#191919"
           stroke-width="0.7 px"
           style="fill:#000000;fill-opacity:1;fill-rule:evenodd;stroke-width:0.1;stroke-linecap:square;stroke-miterlimit:4;stroke-dasharray:none" /><title
           id="title15">b'Shape003'</title></g><g
         id="Shape019"
         transform="matrix(1,0,0,-1,17.328275,30.157504)"
         style="stroke-width:0.1;stroke-dasharray:none;fill:#000000"><path
           id="Shape019_w0000"
           d="m 2.5160296,-16.781423 -7.8e-5,-0.166597 2.197e-4,-0.166486 -7.46e-5,-0.166538 -5.0003325,-3.77e-4 4.5e-5,0.166546 -4.46e-5,0.166537 -9.07e-5,0.166519 5.0003557,3.96e-4"
           stroke="#191919"
           stroke-width="0.7 px"
           style="fill:#000000;fill-opacity:1;fill-rule:evenodd;stroke-width:0.1;stroke-linecap:square;stroke-miterlimit:4;stroke-dasharray:none" /><title
           id="title16">b'Shape019'</title></g><g
         id="Shape005"
         transform="matrix(1,0,0,-1,17.328275,30.157504)"
         style="stroke-width:0.1;stroke-dasharray:none;fill:#000000"><path
           id="Shape005_w0000"
           d="m 13.016005,-8.0564428 -26.002012,-0.00215 -3.79e-4,-0.1665434 -4.39e-4,-0.1665282 4.69e-4,-0.1665161 26.002808,0.00215 4.37e-4,0.1665251 -4.71e-4,0.1665267 -4.13e-4,0.1665419"
           stroke="#191919"
           stroke-width="0.7 px"
           style="fill:#000000;fill-opacity:1;fill-rule:evenodd;stroke-width:0.1;stroke-linecap:square;stroke-miterlimit:4;stroke-dasharray:none" /><title
           id="title17">b'Shape005'</title></g><g
         id="Shape006"
         transform="matrix(1,0,0,-1,17.328275,30.157504)"
         style="stroke-width:0.1;stroke-dasharray:none;fill:#000000"><path
           id="Shape006_w0000"
           d="m 4.0143099,-10.037382 -0.082918,0.0039 -0.2042777,-0.02334 -0.1729861,-0.06526 -0.1421291,-0.09792 -0.1253407,-0.134737 -0.071144,-0.105627 -0.062693,-0.118083 -0.1421281,-0.372164 -0.086501,-0.40102 -0.028119,-0.420098 4.2e-6,-0.01366 0.05432,-0.561925 0.087213,-0.331607 0.1256634,-0.309843 0.1636871,-0.258399 0.090537,-0.09341 0.1644664,-0.112699 0.1799396,-0.06387 0.1903214,-0.01988 0.1767632,0.02092 0.1678187,0.06417 0.1077694,0.06884 0.076535,0.06437 0.072757,0.07484 0.2148883,0.312315 0.1477147,0.379881 0.068517,0.361465 0.020928,0.381114 -2.3e-6,0.0063 -2.3e-6,0.0063 v 0.0063 l -0.028056,0.387699 -0.084225,0.40338 -0.1173607,0.298889 -0.1007186,0.17781 -0.1186192,0.170217 -0.1616401,0.165216 -0.1495735,0.08986 -0.1503746,0.04787 -0.081034,0.012"
           stroke="#191919"
           stroke-width="0.7 px"
           style="fill:#000000;fill-opacity:1;fill-rule:evenodd;stroke-width:0.1;stroke-linecap:square;stroke-miterlimit:4;stroke-dasharray:none" /><title
           id="title18">b'Shape006'</title></g><g
         id="Shape007"
         transform="matrix(1,0,0,-1,17.328275,30.157504)"
         style="stroke-width:0.1;stroke-dasharray:none;fill:#000000"><path
           id="Shape007_w0000"
           d="m 2.5154387,-9.8018195 -5.0006121,-4.16e-4 9.23e-5,-0.166631 4.19e-5,-0.1666295 -2.3e-5,-0.166624 5.0006131,4.52e-4 -7.26e-5,0.166611 -3.9e-5,0.1666178 -6e-7,0.1666197"
           stroke="#191919"
           stroke-width="0.7 px"
           style="fill:#000000;fill-opacity:1;fill-rule:evenodd;stroke-width:0.1;stroke-linecap:square;stroke-miterlimit:4;stroke-dasharray:none" /><title
           id="title19">b'Shape007'</title></g><g
         id="Shape008"
         transform="matrix(1,0,0,-1,17.328275,30.157504)"
         style="stroke-width:0.1;stroke-dasharray:none;fill:#000000"><path
           id="Shape008_w0000"
           d="m 13.016846,-11.545832 -6.0006655,-5.62e-4 1.205e-4,-0.166531 -1e-5,-0.166535 -1.391e-4,-0.166531 5.9998551,1.87e-4 2.73e-4,0.166659 2.78e-4,0.166657 2.88e-4,0.166656"
           stroke="#191919"
           stroke-width="0.7 px"
           style="fill:#000000;fill-opacity:1;fill-rule:evenodd;stroke-width:0.1;stroke-linecap:square;stroke-miterlimit:4;stroke-dasharray:none" /><title
           id="title20">b'Shape008'</title></g><g
         id="Shape009"
         transform="matrix(1,0,0,-1,17.328275,30.157504)"
         style="stroke-width:0.1;stroke-dasharray:none;fill:#000000"><path
           id="Shape009_w0000"
           d="m -3.7401219,-10.0291 -0.049584,-0.0055 -0.048439,-0.0166 -0.047243,-0.02762 -0.00854,-0.006 -0.00427,-0.003 -0.00427,-0.003 -0.6169656,-0.576568 -0.243087,-0.335974 -0.2059449,-0.389746 -0.1262154,-0.326281 -0.06502,-0.227157 -0.046402,-0.230618 -0.00172,-0.01025 -8.619e-4,-0.0051 -8.62e-4,-0.0051 -0.015703,-0.189646 0.02259,-0.227542 0.066531,-0.217959 0.1057448,-0.204539 0.1602926,-0.20133 0.1927646,-0.146711 0.1836894,-0.08313 0.1964934,-0.04853 0.2204993,-0.01883 0.2844566,0.03515 0.2432544,0.09553 0.1863959,0.125088 0.082343,0.0727 0.07876,0.08117 0.089908,0.118459 0.04616,0.0823 0.038277,0.08853 0.087139,0.3284 0.012819,0.006 0.00641,0.003 0.00641,0.003 -0.010257,0.01881 -0.00513,0.0094 -0.00513,0.0094 0.00171,0.04103 8.53e-4,0.02051 8.531e-4,0.02052 -0.044369,0.277901 -0.048492,0.151175 -0.064794,0.131133 -0.1395747,0.193988 -0.1619597,0.152107 -0.1819555,0.108297 -0.1932646,0.07205 -0.18446,0.03387 -0.104249,0.0051 -0.025635,-5e-6 -0.2597611,-0.02228 -0.00598,-8.57e-4 -0.00299,-4.28e-4 -0.00299,-4.28e-4 -0.00598,-0.0017 -0.00299,-8.56e-4 -0.00299,-8.55e-4 0.00513,0.0085 0.00256,0.0043 0.00256,0.0043 0.00427,0.0077 0.00214,0.0038 0.00214,0.0038 0.042711,0.06498 0.136734,0.192484 0.1776912,0.190662 0.3794294,0.323529 0.02945,0.0231 0.020099,0.02143 0.033984,0.05313 0.020602,0.05089 0.00518,0.02454 0.00173,0.0239 -0.00542,0.04523 -0.016202,0.04436 -0.022171,0.03701 -0.029683,0.03622 -0.053585,0.04752 -0.050676,0.02664 -0.032062,0.0087 -0.032855,0.0029"
           stroke="#191919"
           stroke-width="0.7 px"
           style="fill:#000000;fill-opacity:1;fill-rule:evenodd;stroke-width:0.1;stroke-linecap:square;stroke-miterlimit:4;stroke-dasharray:none" /><title
           id="title21">b'Shape009'</title></g><g
         id="Shape034"
         transform="matrix(1,0,0,-1,17.328275,30.157504)"
         style="stroke-width:0.1;stroke-dasharray:none;fill:#000000"><path
           id="Shape034_w0000"
           d="m 2.5169958,-27.250342 -2.34e-5,-0.166613 1.669e-4,-0.166542 -1.49e-5,-0.166579 -5.0004597,-4.23e-4 2.46e-5,0.166578 -3.89e-5,0.166572 -7.38e-5,0.166559 5.0004192,4.48e-4"
           stroke="#191919"
           stroke-width="0.7 px"
           style="fill:#000000;fill-opacity:1;fill-rule:evenodd;stroke-width:0.1;stroke-linecap:square;stroke-miterlimit:4;stroke-dasharray:none" /><title
           id="title22">b'Shape034'</title></g><g
         id="Shape011"
         transform="matrix(1,0,0,-1,17.328275,30.157504)"
         style="stroke-width:0.1;stroke-dasharray:none;fill:#000000"><path
           id="Shape011_w0000"
           d="m -6.9855358,-11.547555 -6.0008642,-3.59e-4 3.14e-4,-0.166656 3.06e-4,-0.166658 3.04e-4,-0.166659 6.0000531,7.73e-4 -1.45e-4,0.166528 -6.54e-5,0.166515 9.75e-5,0.166516"
           stroke="#191919"
           stroke-width="0.7 px"
           style="fill:#000000;fill-opacity:1;fill-rule:evenodd;stroke-width:0.1;stroke-linecap:square;stroke-miterlimit:4;stroke-dasharray:none" /><title
           id="title23">b'Shape011'</title></g><g
         id="Shape012"
         transform="matrix(1,0,0,-1,17.328275,30.157504)"
         style="stroke-width:0.1;stroke-dasharray:none;fill:#000000"><path
           id="Shape012_w0000"
           d="m 2.5158145,-13.291417 -5.0005536,-4.49e-4 6.32e-5,-0.166587 -8e-6,-0.166597 -4.73e-5,-0.166602 5.0004759,3.88e-4 -9.6e-6,0.166617 2.72e-5,0.166617 5.22e-5,0.166613"
           stroke="#191919"
           stroke-width="0.7 px"
           style="fill:#000000;fill-opacity:1;fill-rule:evenodd;stroke-width:0.1;stroke-linecap:square;stroke-miterlimit:4;stroke-dasharray:none" /><title
           id="title24">b'Shape012'</title></g><g
         id="Shape015"
         transform="matrix(1,0,0,-1,17.328275,30.157504)"
         style="stroke-width:0.1;stroke-dasharray:none;fill:#000000"><path
           id="Shape015_w0000"
           d="m 4.6573988,-15.905178 -0.031887,-0.0039 -0.030178,-0.0118 -0.028435,-0.01965 -0.015088,-0.01436 -0.014535,-0.01677 -0.1185867,-0.202031 -0.1186299,-0.20203 -0.1186647,-0.202034 -0.1186909,-0.202034 -0.1174987,0.202017 -0.1174738,0.202016 -0.1174388,0.202015 -0.1173963,0.202009 -0.03687,0.03692 -0.023131,0.01473 -0.024316,0.0097 -0.018102,0.0039 -0.018691,0.0013 h -0.00586 l -0.031251,-0.0039 -0.027776,-0.01045 -0.023356,-0.01526 -0.01882,-0.02011 -0.014205,-0.02495 -0.00955,-0.02974 -0.0049,-0.03444 9.29e-5,-0.574964 3.157e-4,-0.574841 -2.897e-4,-0.574795 0.00645,-0.04127 0.012905,-0.03392 0.013347,-0.01979 0.017382,-0.01631 0.020893,-0.012 0.02429,-0.0077 0.018527,-0.0029 0.020002,-9.47e-4 h 0.00195 l 0.038036,0.0036 0.032522,0.01105 0.022084,0.01452 0.01693,0.01794 0.013476,0.02224 0.011006,0.03013 0.00659,0.03537 -2.526e-4,0.304236 -2.634e-4,0.30425 -2.684e-4,0.304249 -2.74e-4,0.304249 0.083257,-0.14258 0.083263,-0.142582 0.083269,-0.142583 0.08327,-0.142582 0.034564,-0.03739 0.030123,-0.01937 0.023317,-0.008 0.024306,-0.0027 0.00586,10e-7 0.030779,0.004 0.029625,0.01197 0.028441,0.01992 0.015335,0.01454 0.014956,0.01698 0.083737,0.143328 0.083735,0.143328 0.083731,0.143326 0.083729,0.143324 1.72e-5,-0.40664 3.46e-5,-0.40664 4.93e-5,-0.406634 0.015708,-0.05846 0.013434,-0.02513 0.016864,-0.0203 0.020976,-0.01585 0.024491,-0.01065 0.02208,-0.0048 0.024178,-0.0016 h 0.00293 l 0.034863,0.0037 0.027328,0.0098 0.021178,0.01417 0.017848,0.01924 0.014462,0.02428 0.01134,0.03022 0.00773,0.03535 -5.22e-5,0.574874 -5.67e-5,0.574873 -5.01e-5,0.574878 -0.01066,0.05372 -0.00987,0.02217 -0.012877,0.01887 -0.017935,0.01717 -0.021605,0.01301 -0.012384,0.005 -0.013299,0.004 -0.036135,0.0049"
           stroke="#191919"
           stroke-width="0.7 px"
           style="fill:#000000;fill-opacity:1;fill-rule:evenodd;stroke-width:0.1;stroke-linecap:square;stroke-miterlimit:4;stroke-dasharray:none" /><title
           id="title25">b'Shape015'</title></g><g
         id="Shape017"
         transform="matrix(1,0,0,-1,17.328275,30.157504)"
         style="stroke-width:0.1;stroke-dasharray:none;fill:#000000"><path
           id="Shape017_w0000"
           d="m -4.7734727,-15.907091 -0.019199,0.0012 h -0.00391 l -0.036252,-0.0038 -0.028356,-0.0099 -0.021901,-0.01436 -0.018365,-0.01952 -0.014764,-0.02465 -0.011417,-0.03069 -0.00757,-0.03591 -8.73e-5,-0.575531 6.06e-5,-0.575596 1.01e-4,-0.575496 0.00903,-0.03944 0.014773,-0.03283 0.020498,-0.02606 0.023249,-0.01762 0.024702,-0.01115 0.022141,-0.0057 0.024249,-0.003 1.0371673,8.4e-5 0.041381,0.006 0.034585,0.01248 0.022696,0.01503 0.016579,0.01791 0.0122,0.02174 0.00776,0.02552 0.00259,0.01787 8.639e-4,0.01928 -0.00388,0.03806 -0.010241,0.02917 -0.014626,0.02202 -0.01965,0.01797 -0.02451,0.01395 -0.030124,0.01024 -0.034773,0.0062 -0.4507504,-5.5e-4 -0.2253634,-2.66e-4 -0.2253662,-2.67e-4 -1.14e-5,0.530018 4.08e-5,0.530033 2.24e-5,0.53003 -0.00667,0.04191 -0.01296,0.03458 -0.013872,0.021 -0.01736,0.01666 -0.020786,0.01235 -0.024104,0.0081 -0.017832,0.003"
           stroke="#191919"
           stroke-width="0.7 px"
           style="fill:#000000;fill-opacity:1;fill-rule:evenodd;stroke-width:0.1;stroke-linecap:square;stroke-miterlimit:4;stroke-dasharray:none" /><title
           id="title26">b'Shape017'</title></g><g
         id="Shape020"
         transform="matrix(1,0,0,-1,17.328275,30.157504)"
         style="stroke-width:0.1;stroke-dasharray:none;fill:#000000"><path
           id="Shape020_w0000"
           d="m 13.016629,-18.525313 -26.001141,-0.0021 -2.08e-4,-0.166647 -2.74e-4,-0.166639 -3.4e-4,-0.166627 26.002883,0.0021 -3.7e-4,0.166622 -3.07e-4,0.166633 -2.43e-4,0.16664"
           stroke="#191919"
           stroke-width="0.7 px"
           style="fill:#000000;fill-opacity:1;fill-rule:evenodd;stroke-width:0.1;stroke-linecap:square;stroke-miterlimit:4;stroke-dasharray:none" /><title
           id="title27">b'Shape020'</title></g><g
         id="Shape021"
         transform="matrix(1,0,0,-1,17.328275,30.157504)"
         style="stroke-width:0.1;stroke-dasharray:none;fill:#000000"><path
           id="Shape021_w0000"
           d="m 2.5165041,-20.437591 2.27e-5,-0.166615 7e-5,-0.166616 -5.0006519,-4.09e-4 6.6e-6,0.166598 -8.9e-6,0.166623 -2.69e-5,0.166622 5.000598,4.07e-4 -9.6e-6,-0.16661"
           stroke="#191919"
           stroke-width="0.7 px"
           style="fill:#000000;fill-opacity:1;fill-rule:evenodd;stroke-width:0.1;stroke-linecap:square;stroke-miterlimit:4;stroke-dasharray:none" /><title
           id="title28">b'Shape021'</title></g><g
         id="Shape022"
         transform="matrix(1,0,0,-1,17.328275,30.157504)"
         style="stroke-width:0.1;stroke-dasharray:none;fill:#000000"><path
           id="Shape022_w0000"
           d="m 4.0254533,-20.728302 -0.082915,0.0039 -0.2042567,-0.02331 -0.1730051,-0.06518 -0.1421956,-0.09783 -0.1253365,-0.134659 -0.071161,-0.105576 -0.062711,-0.118045 -0.1421683,-0.372046 -0.086352,-0.400806 -0.028415,-0.420067 -1.48e-5,-0.01367 0.054576,-0.562273 0.087217,-0.331729 0.1256834,-0.309956 0.1636991,-0.258504 0.09102,-0.09394 0.1645345,-0.112655 0.1796775,-0.06373 0.1900477,-0.01983 0.1767824,0.02095 0.1677452,0.06428 0.1070189,0.06834 0.076932,0.06465 0.073114,0.07523 0.2148977,0.312519 0.1477128,0.380022 0.068887,0.361664 0.020939,0.381275 -5e-6,0.0063 -5e-6,0.0063 -5e-6,0.0063 -0.028386,0.387701 -0.084342,0.403324 -0.1172215,0.298704 -0.1007188,0.177708 -0.118624,0.170103 -0.1616654,0.165099 -0.1495777,0.08977 -0.1503656,0.04781 -0.081039,0.01197"
           stroke="#191919"
           stroke-width="0.7 px"
           style="fill:#000000;fill-opacity:1;fill-rule:evenodd;stroke-width:0.1;stroke-linecap:square;stroke-miterlimit:4;stroke-dasharray:none" /><title
           id="title29">b'Shape022'</title></g><g
         id="Shape023"
         transform="matrix(1,0,0,-1,17.328275,30.157504)"
         style="stroke-width:0.1;stroke-dasharray:none;fill:#000000"><path
           id="Shape023_w0000"
           d="m 13.017566,-22.014924 -6.0002681,-5.87e-4 1.367e-4,-0.166563 9.2e-6,-0.166557 2.46e-5,-0.166565 6.0009466,4.22e-4 -3.09e-4,0.166612 -2.82e-4,0.166617 -2.58e-4,0.166621"
           stroke="#191919"
           stroke-width="0.7 px"
           style="fill:#000000;fill-opacity:1;fill-rule:evenodd;stroke-width:0.1;stroke-linecap:square;stroke-miterlimit:4;stroke-dasharray:none" /><title
           id="title30">b'Shape023'</title></g><g
         id="Shape024"
         transform="matrix(1,0,0,-1,17.328275,30.157504)"
         style="stroke-width:0.1;stroke-dasharray:none;fill:#000000"><path
           id="Shape024_w0000"
           d="m -3.3431189,-20.727968 0.04185,-0.009 0.040912,-0.01718 0.035314,-0.02513 0.032177,-0.03738 0.026606,-0.05299 0.016837,-0.06441 0.00342,-0.04453 -0.00219,-0.03248 -0.00658,-0.03031 -0.018076,-0.04131 -0.027845,-0.03628 -0.1588462,-0.196242 -0.158922,-0.196242 -0.1589813,-0.196242 -0.1590512,-0.196237 0.052075,-0.01287 0.052189,-0.01276 0.018801,-0.0051 0.2104958,-0.09215 0.1893098,-0.130302 0.1632626,-0.170478 0.1214765,-0.189726 0.084815,-0.214082 0.044462,-0.235191 0.00514,-0.107727 -0.00775,-0.121507 -0.021288,-0.119673 -0.061521,-0.186581 -0.085944,-0.16565 -0.1053478,-0.146334 -0.123361,-0.126539 -0.1141756,-0.0894 -0.1199334,-0.07288 -0.2544384,-0.09543 -0.2686473,-0.0306 -0.2694951,0.02803 -0.2547766,0.08853 -0.2338217,0.152768 -0.182493,0.189167 -0.1382726,0.232412 -0.085194,0.272059 -0.00261,0.03592 -7.894e-4,0.04276 0.013102,0.04789 0.018173,0.04182 0.025685,0.03847 0.031577,0.03061 0.041658,0.02476 0.053699,0.01638 0.060627,0.0053 0.026184,-0.0025 0.030554,-0.0075 0.073182,-0.02939 0.015793,-0.01077 0.016517,-0.01516 0.03517,-0.04338 0.014943,-0.02303 0.0111,-0.02139 0.00808,-0.02297 0.0027,-0.02063 0.024746,-0.09923 0.028447,-0.07439 0.035724,-0.06252 0.078855,-0.103536 0.087541,-0.08494 0.1107761,-0.07338 0.1335882,-0.05015 0.1583901,-0.0185 0.2170479,0.02914 0.07786,0.02707 0.076641,0.04081 0.1197428,0.09314 0.077904,0.08351 0.058875,0.08856 0.038469,0.09326 0.016185,0.05304 0.01459,0.0479 6.2e-6,0.04619 0.00516,0.143653 5.3e-6,0.02223 -0.00304,0.04491 -0.00912,0.04692 -0.027095,0.07912 -0.040898,0.0825 -0.047857,0.07455 -0.1154773,0.124317 -0.139295,0.09115 -0.09535,0.03898 -0.098643,0.02332 -0.1017153,0.0077 -0.1038675,-0.0077 -0.1063663,-0.02307 -0.010255,-0.0034 -0.014958,-0.006 -0.017517,-0.0043 -0.049568,-0.0051 -0.035885,0.0028 -0.034758,0.0085 -0.03362,0.01424 -0.02851,0.01579 -0.025598,0.01996 -0.035501,0.04165 -0.03003,0.05927 -0.011973,0.04954 -0.00513,0.04784 0.00226,0.03113 0.00679,0.02909 0.018633,0.03974 0.028692,0.03502 0.1636562,0.202175 0.1636224,0.202178 0.1634481,0.202277 0.1634615,0.202251 -0.8084261,-2.99e-4 -0.00513,-2e-6 -0.045035,0.0038 -0.041811,0.01155 -0.047729,0.02557 -0.04662,0.04289 -0.032199,0.04625 -0.019424,0.05026 -0.00649,0.05415 0.00512,0.04795 0.010785,0.04728 0.016299,0.04128 0.024148,0.03794 0.03056,0.03015 0.041054,0.02433 0.053627,0.01605 0.061071,0.0052 1.3179042,1.8e-5 0.045685,-0.0029"
           stroke="#191919"
           stroke-width="0.7 px"
           style="fill:#000000;fill-opacity:1;fill-rule:evenodd;stroke-width:0.1;stroke-linecap:square;stroke-miterlimit:4;stroke-dasharray:none" /><title
           id="title31">b'Shape024'</title></g><g
         id="Shape025"
         transform="matrix(1,0,0,-1,17.328275,30.157504)"
         style="stroke-width:0.1;stroke-dasharray:none;fill:#000000"><path
           id="Shape025_w0000"
           d="m 2.5166933,-22.015948 -5.0006582,-4.08e-4 7.94e-5,-0.166587 5.88e-5,-0.166558 3.35e-5,-0.166544 5.0005756,4.75e-4 2.01e-5,0.166571 -1.384e-4,0.166499 2.92e-5,0.166552"
           stroke="#191919"
           stroke-width="0.7 px"
           style="fill:#000000;fill-opacity:1;fill-rule:evenodd;stroke-width:0.1;stroke-linecap:square;stroke-miterlimit:4;stroke-dasharray:none" /><title
           id="title32">b'Shape025'</title></g><g
         id="Shape027"
         transform="matrix(1,0,0,-1,17.328275,30.157504)"
         style="stroke-width:0.1;stroke-dasharray:none;fill:#000000"><path
           id="Shape027_w0000"
           d="m 2.5168959,-23.760703 -5.0006044,-4.81e-4 -3.8e-5,-0.166571 -3.51e-5,-0.166596 -3.61e-5,-0.166616 5.0007849,4.22e-4 -4.75e-5,0.166621 -3.31e-5,0.166612 9.3e-6,0.166609"
           stroke="#191919"
           stroke-width="0.7 px"
           style="fill:#000000;fill-opacity:1;fill-rule:evenodd;stroke-width:0.1;stroke-linecap:square;stroke-miterlimit:4;stroke-dasharray:none" /><title
           id="title33">b'Shape027'</title></g><g
         id="Shape028"
         transform="matrix(1,0,0,-1,17.328275,30.157504)"
         style="stroke-width:0.1;stroke-dasharray:none;fill:#000000"><path
           id="Shape028_w0000"
           d="m 13.018585,-25.504538 -26.003811,-0.0022 4.14e-4,-0.166579 3.46e-4,-0.166595 2.8e-4,-0.166608 26.001807,0.0022 2.56e-4,0.166603 3.21e-4,0.166591 3.87e-4,0.166575"
           stroke="#191919"
           stroke-width="0.7 px"
           style="fill:#000000;fill-opacity:1;fill-rule:evenodd;stroke-width:0.1;stroke-linecap:square;stroke-miterlimit:4;stroke-dasharray:none" /><title
           id="title34">b'Shape028'</title></g><g
         id="Shape030"
         transform="matrix(1,0,0,-1,17.328275,30.157504)"
         style="stroke-width:0.1;stroke-dasharray:none;fill:#000000"><path
           id="Shape030_w0000"
           d="m 4.658386,-26.371369 -0.031888,-0.0039 -0.030179,-0.0118 -0.028436,-0.01966 -0.015089,-0.01436 -0.014535,-0.01677 -0.1185905,-0.20203 -0.1186311,-0.20203 -0.1186634,-0.202036 -0.1186889,-0.202036 -0.117501,0.202017 -0.1174767,0.202014 -0.1174435,0.202015 -0.1174045,0.202003 -0.036872,0.03692 -0.023132,0.01474 -0.024317,0.0097 -0.018103,0.0039 -0.018692,0.0013 h -0.00586 l -0.031252,-0.0039 -0.027777,-0.01045 -0.023357,-0.01526 -0.018821,-0.02011 -0.014206,-0.02495 -0.00955,-0.02974 -0.0049,-0.03444 8.7e-5,-0.57497 2.779e-4,-0.574884 -1.242e-4,-0.574867 0.00645,-0.04127 0.012909,-0.03392 0.01335,-0.01979 0.017384,-0.01631 0.020895,-0.012 0.024291,-0.0077 0.018528,-0.0029 0.020003,-9.47e-4 h 0.00195 l 0.038037,0.0036 0.032522,0.01105 0.022085,0.01452 0.01693,0.01794 0.013476,0.02224 0.011007,0.03013 0.00659,0.03537 -2.521e-4,0.304233 -2.657e-4,0.304249 -2.715e-4,0.304249 -2.771e-4,0.30425 0.083259,-0.142579 0.083265,-0.142582 0.083271,-0.142582 0.083271,-0.142582 0.034565,-0.03739 0.030123,-0.01937 0.023317,-0.008 0.024306,-0.0027 0.00586,10e-7 0.030779,0.004 0.029625,0.01197 0.028441,0.01992 0.015335,0.01454 0.014956,0.01698 0.083735,0.143329 0.083734,0.143329 0.083729,0.143328 0.083727,0.143324 2.24e-5,-0.40664 4.04e-5,-0.406638 5.77e-5,-0.406633 0.01571,-0.05846 0.013436,-0.02513 0.016865,-0.02029 0.020977,-0.01585 0.024491,-0.01065 0.02208,-0.0048 0.024179,-0.0016 h 0.00293 l 0.034863,0.0037 0.027329,0.0098 0.021179,0.01417 0.017849,0.01924 0.014463,0.02428 0.011341,0.03022 0.00773,0.03535 -8.62e-5,0.574907 -1.027e-4,0.574909 -8.27e-5,0.574923 -0.010667,0.05372 -0.00987,0.02217 -0.012879,0.01887 -0.017938,0.01717 -0.021607,0.01301 -0.012385,0.005 -0.0133,0.004 -0.036136,0.0049"
           stroke="#191919"
           stroke-width="0.7 px"
           style="fill:#000000;fill-opacity:1;fill-rule:evenodd;stroke-width:0.1;stroke-linecap:square;stroke-miterlimit:4;stroke-dasharray:none" /><title
           id="title35">b'Shape030'</title></g><g
         id="Shape031"
         transform="matrix(1,0,0,-1,17.328275,30.157504)"
         style="stroke-width:0.1;stroke-dasharray:none;fill:#000000"><path
           id="Shape031_w0000"
           d="m -3.1804401,-26.373575 0.021594,-0.0046 0.02472,-0.01059 0.021241,-0.01586 0.017509,-0.0209 0.013954,-0.02603 0.016104,-0.0593 1.1e-6,-0.575639 -9.3e-5,-0.575572 2.289e-4,-0.575469 -0.0078,-0.03539 -0.011527,-0.03024 -0.014754,-0.02429 -0.018245,-0.01923 -0.021674,-0.01416 -0.027986,-0.0098 -0.03571,-0.0037 h -9.766e-4 l -0.024192,0.0016 -0.022111,0.0048 -0.024559,0.01065 -0.021075,0.01585 -0.016991,0.02029 -0.013595,0.02513 -0.016088,0.05844 -1.625e-4,0.575488 -3.48e-5,0.575604 -7e-7,0.575617 0.00779,0.03589 0.011519,0.03068 0.014748,0.02465 0.018241,0.01953 0.021674,0.01438 0.027991,0.01 0.035721,0.0038 h 9.766e-4 l 0.023559,-0.0015"
           stroke="#191919"
           stroke-width="0.7 px"
           style="fill:#000000;fill-opacity:1;fill-rule:evenodd;stroke-width:0.1;stroke-linecap:square;stroke-miterlimit:4;stroke-dasharray:none" /><title
           id="title36">b'Shape031'</title></g><g
         id="Shape032"
         transform="matrix(1,0,0,-1,17.328275,30.157504)"
         style="stroke-width:0.1;stroke-dasharray:none;fill:#000000"><path
           id="Shape032_w0000"
           d="m -4.7726755,-26.373399 -0.0192,0.0012 h -0.00391 l -0.036252,-0.0038 -0.028357,-0.0099 -0.021903,-0.01436 -0.018367,-0.01952 -0.014766,-0.02465 -0.01142,-0.03069 -0.00758,-0.03591 -6.67e-5,-0.575562 5.85e-5,-0.575613 9.93e-5,-0.575528 0.00904,-0.03944 0.014778,-0.03283 0.020501,-0.02606 0.023252,-0.01762 0.024704,-0.01115 0.022142,-0.0057 0.02425,-0.003 1.0372059,9.2e-5 0.041383,0.006 0.034587,0.01248 0.022698,0.01503 0.01658,0.0179 0.012201,0.02174 0.00776,0.02552 0.00259,0.01787 8.632e-4,0.01929 -0.00388,0.03807 -0.010238,0.02917 -0.014623,0.02203 -0.019647,0.01798 -0.024506,0.01395 -0.030121,0.01024 -0.03477,0.0062 -0.4507383,-5.55e-4 -0.2253593,-2.7e-4 -0.2253614,-2.69e-4 -3.03e-5,0.530033 9.5e-6,0.530046 -1.31e-5,0.530044 -0.00668,0.04191 -0.012964,0.03458 -0.013875,0.021 -0.017363,0.01666 -0.020788,0.01235 -0.024106,0.0081 -0.017832,0.003"
           stroke="#191919"
           stroke-width="0.7 px"
           style="fill:#000000;fill-opacity:1;fill-rule:evenodd;stroke-width:0.1;stroke-linecap:square;stroke-miterlimit:4;stroke-dasharray:none" /><title
           id="title37">b'Shape032'</title></g></g></g></svg>
